<?xml version="1.0" encoding="UTF-8" standalone="no"?>
<svg
   xmlns:dc="http://purl.org/dc/elements/1.1/"
   xmlns:cc="http://creativecommons.org/ns#"
   xmlns:rdf="http://www.w3.org/1999/02/22-rdf-syntax-ns#"
   xmlns:svg="http://www.w3.org/2000/svg"
   xmlns="http://www.w3.org/2000/svg"
   xmlns:sodipodi="http://sodipodi.sourceforge.net/DTD/sodipodi-0.dtd"
   xmlns:inkscape="http://www.inkscape.org/namespaces/inkscape"
   inkscape:version="1.0 (4035a4fb49, 2020-05-01)"
   height="433.92001"
   width="452.62524"
   sodipodi:docname="kpl-kope-pour-particulier.svg"
   id="svg245"
   version="1.1"
   viewBox="0 0 452.62524 433.92001">
  <metadata
     id="metadata251">
    <rdf:RDF>
      <cc:Work
         rdf:about="">
        <dc:format>image/svg+xml</dc:format>
        <dc:type
           rdf:resource="http://purl.org/dc/dcmitype/StillImage" />
      </cc:Work>
    </rdf:RDF>
  </metadata>
  <defs
     id="defs249" />
  <sodipodi:namedview
     inkscape:current-layer="svg245"
     inkscape:window-maximized="1"
     inkscape:window-y="-8"
     inkscape:window-x="-8"
     inkscape:cy="228.50396"
     inkscape:cx="106.97951"
     inkscape:zoom="1.852"
     showgrid="false"
     id="namedview247"
     inkscape:window-height="1057"
     inkscape:window-width="1920"
     inkscape:pageshadow="2"
     inkscape:pageopacity="0"
     guidetolerance="10"
     gridtolerance="10"
     objecttolerance="10"
     borderopacity="1"
     bordercolor="#666666"
     pagecolor="#ffffff" />
  <g
     transform="translate(0,10.283712)"
     id="g1202">
    <g
       id="freepik--Frame--inject-2"
       transform="translate(-23.690164,-52.27358)">
      <rect
         x="32"
         y="64"
         width="436"
         height="309"
         transform="rotate(-3,249.93579,218.44501)"
         style="fill:none;stroke:#263238;stroke-miterlimit:10"
         id="rect2" />
      <rect
         x="47"
         y="77"
         width="406"
         height="283"
         transform="rotate(-3,249.93579,218.44501)"
         style="fill:none;stroke:#263238;stroke-miterlimit:10"
         id="rect4" />
    </g>
    <g
       id="freepik--character-3--inject-2"
       transform="translate(-23.690164,-52.27358)">
      <ellipse
         cx="280.25"
         cy="134.25"
         rx="9"
         ry="9.5"
         style="fill:#263238;stroke:#263238;stroke-linecap:round;stroke-linejoin:round"
         id="ellipse7" />
      <path
         d="m 278.92,355.67 c 0,0 0.33,30 3.66,47 3.33,17 6.67,38 6.67,38 0,0 -3.33,13 -4.33,13.66 -1,0.66 -7.67,4.67 -5.67,6.34 2,1.67 21.33,0 21.33,0 0,0 2.34,-2.34 1.67,-7 -0.67,-4.66 -0.33,-20.34 -0.33,-20.34 0,0 2,-54.66 2,-63 v -17 l -25.67,-2 z"
         style="fill:#ffffff;stroke:#263238;stroke-linecap:round;stroke-linejoin:round"
         id="path9" />
      <path
         d="m 302.25,453.67 a 106.94,106.94 0 0 1 -0.42,-11.12 c -1.13,3.55 -3.44,9.71 -6.25,11.12 -4,2 -10.66,0.66 -10.66,0.66 -1,0.67 -7.67,4.67 -5.67,6.34 2,1.67 21.33,0 21.33,0 0,0 2.34,-2.34 1.67,-7 z"
         style="fill:#263238;stroke:#263238;stroke-linecap:round;stroke-linejoin:round"
         id="path11" />
      <path
         d="m 335.58,355.67 c 0,0 -0.33,30 -3.66,47 -3.33,17 -6.67,38 -6.67,38 0,0 3.33,13 4.33,13.66 1,0.66 7.67,4.67 5.67,6.34 -2,1.67 -21.33,0 -21.33,0 0,0 -2.34,-2.34 -1.67,-7 0.67,-4.66 0.33,-20.34 0.33,-20.34 0,0 -2,-54.66 -2,-63 v -17 l 25.67,-2 z"
         style="fill:#ffffff;stroke:#263238;stroke-linecap:round;stroke-linejoin:round"
         id="path13" />
      <path
         d="m 312.25,453.67 a 106.94,106.94 0 0 0 0.42,-11.12 c 1.13,3.55 3.44,9.71 6.25,11.12 4,2 10.66,0.66 10.66,0.66 1,0.67 7.67,4.67 5.67,6.34 -2,1.67 -21.33,0 -21.33,0 0,0 -2.34,-2.34 -1.67,-7 z"
         style="fill:#263238;stroke:#263238;stroke-linecap:round;stroke-linejoin:round"
         id="path15" />
      <path
         d="m 276.92,239 c 0,0 -10,26 -13,45.67 -3,19.67 -12.67,57.66 -10.67,60.33 2,2.67 7.67,3.33 7.67,3.33 l -0.34,5.34 c 0,0 11,4.66 21.67,5 10.67,0.34 19.33,-2.67 25.33,-1.34 6,1.33 24.34,2.67 29,0 4.66,-2.67 10,-5 10.34,-6.33 a 21.09,21.09 0 0 0 0,-4.67 l 5,-2.33 c 0,0 -1.34,-34.67 -4.67,-54.67 -3.33,-20 -8.33,-36.66 -10.67,-42.66 -2.34,-6 -11,-7.34 -11,-7.34 z"
         style="fill:#263238;stroke:#263238;stroke-linecap:round;stroke-linejoin:round"
         id="path17" />
      <line
         x1="260.92001"
         y1="348.32999"
         x2="263.57999"
         y2="313.32999"
         style="fill:none;stroke:#263238;stroke-linecap:round;stroke-linejoin:round"
         id="line19" />
      <line
         x1="346.92001"
         y1="346.32999"
         x2="340.92001"
         y2="300.67001"
         style="fill:none;stroke:#263238;stroke-linecap:round;stroke-linejoin:round"
         id="line21" />
      <path
         d="M 292.5,152.25 291,166.5 c 0,0 -28.25,11.5 -29.25,13 -1,1.5 17.25,62 17.25,62 0,0 9,6.5 25.25,6.25 16.25,-0.25 25.5,-8.5 25.5,-8.5 0,0 10.25,-59.75 8.5,-63.25 -1.75,-3.5 -28,-11 -28,-11 l -0.5,-10.75 z"
         style="fill:#2d9f83;stroke:#263238;stroke-linecap:round;stroke-linejoin:round"
         id="path23" />
      <path
         d="m 301,200 16.73,-32.73 c -4.26,-1.35 -7.48,-2.27 -7.48,-2.27 l -0.5,-10.75 -19.36,-3.76 0.61,16 c 0,0 -2.21,0.9 -5.41,2.23 z"
         style="fill:#ffffff;stroke:#263238;stroke-linecap:round;stroke-linejoin:round"
         id="path25" />
      <path
         d="m 310.07,161.21 -0.32,-7 -19.36,-3.76 0.15,4 c 2.14,2.78 7.2,8.88 11.23,10 2.7,0.79 5.87,-1.16 8.3,-3.24 z"
         style="fill:#263238;stroke:#263238;stroke-linecap:round;stroke-linejoin:round"
         id="path27" />
      <path
         d="m 284.25,137.25 c 0,0 -0.14,-0.34 -0.37,-0.81 -0.81,-1.66 -2.77,-5 -4.13,-1.69 -1.75,4.25 0.25,7.5 2,9.5 a 3.53,3.53 0 0 0 4,1 c 0,0 4.75,8.25 8.5,12.5 3.75,4.25 11,5 14,1.75 3,-3.25 6.6,-5.68 8.1,-13.68 0.34,-1.79 0.27,-5.32 0.51,-7.34 a 105.15,105.15 0 0 0 0.64,-18.73 c -0.5,-5.25 -3.75,-13 -9.75,-16.25 -6,-3.25 -17.75,-1.5 -23.25,5.5 -5.5,7 -7,14.5 -4.75,18 a 33,33 0 0 1 3,5.5 z"
         style="fill:#ffffff;stroke:#263238;stroke-linecap:round;stroke-linejoin:round"
         id="path29" />
      <path
         d="m 280.3,133.79 3.95,3.46 c 0,0 -0.14,-0.34 -0.37,-0.81 -0.71,-1.44 -2.29,-4.16 -3.58,-2.65 z"
         style="fill:#ffffff;stroke:#263238;stroke-linecap:round;stroke-linejoin:round"
         id="path31" />
      <path
         d="m 307.75,103.5 c -6,-3.25 -17.75,-1.5 -23.25,5.5 -5.5,7 -7,14.5 -4.75,18 a 33,33 0 0 1 3,5.5 l 1.5,4.75 c 0,0 0,-6.25 1,-8.75 1,-2.5 5.5,-14.25 18,-14.5 12.5,-0.25 12.25,11.75 13.5,14.75 a 4.72,4.72 0 0 0 0.8,1.25 78.85,78.85 0 0 0 -0.05,-10.25 c -0.5,-5.25 -3.75,-13 -9.75,-16.25 z"
         style="fill:#263238;stroke:#263238;stroke-linecap:round;stroke-linejoin:round"
         id="path33" />
      <path
         d="m 307,133.75 c 0,0 -0.5,5 0.5,5.5 1,0.5 3.25,0.75 2.75,2.5 -0.5,1.75 -2.75,2.25 -2.75,2.25"
         style="fill:none;stroke:#263238;stroke-linecap:round;stroke-linejoin:round"
         id="path35" />
      <path
         d="m 297.75,146.25 c 0,0 1.75,3.75 9,3.5"
         style="fill:none;stroke:#263238;stroke-linecap:round;stroke-linejoin:round"
         id="path37" />
      <path
         d="m 292.25,136.25 a 7.65,7.65 0 0 1 7,0.25"
         style="fill:none;stroke:#263238;stroke-linecap:round;stroke-linejoin:round"
         id="path39" />
      <path
         d="m 308.75,136.25 c 0,0 3.75,-1.75 6,0.75"
         style="fill:none;stroke:#263238;stroke-linecap:round;stroke-linejoin:round"
         id="path41" />
      <path
         d="M 291.75,130.5 A 7.14,7.14 0 0 1 301,129.25"
         style="fill:none;stroke:#263238;stroke-linecap:round;stroke-linejoin:round"
         id="path43" />
      <path
         d="m 308.25,130.25 c 0,0 5,-3.75 8,0.25"
         style="fill:none;stroke:#263238;stroke-linecap:round;stroke-linejoin:round"
         id="path45" />
      <path
         d="m 268.5,176.75 c 0,0 -9.5,2.75 -9.75,4.25 -0.25,1.5 6,47.25 6,47.25 0,0 -3.25,3 -2,4.75 1.25,1.75 4,5.25 4,5.25 a 3.64,3.64 0 0 0 1,3.75 c 1.75,1.5 6.75,20.5 11.75,29.5 a 109.48,109.48 0 0 0 11.25,16.25 c 0,0 3.5,6.5 6,8.25 2.5,1.75 4.25,3.25 5.75,2.5 1.5,-0.75 3,-6.75 3.25,-10.5 0.25,-3.75 -7.75,-8.5 -8.75,-9 a 25.36,25.36 0 0 1 -3.5,-3 c 0,0 -6.75,-14.25 -8,-21.25 -1.25,-7 -4.5,-17.75 -4.5,-17.75 0,0 1.75,-4.25 1.75,-5.25 0,-1 -2.75,-3.5 -2.75,-4.5 v -7.5 l -2.25,-26"
         style="fill:#2d9f83;stroke:#263238;stroke-linecap:round;stroke-linejoin:round"
         id="path47" />
      <path
         d="m 297,279 a 25.36,25.36 0 0 1 -3.5,-3 c 0,0 -6.75,-14.25 -8,-21.25 -0.55,-3.07 -1.48,-6.86 -2.36,-10.15 -6.47,-2.06 -10.87,0.48 -13.12,2.47 2.39,6.63 5.93,18 9.48,24.43 a 109.48,109.48 0 0 0 11.25,16.25 c 0,0 3.5,6.5 6,8.25 2.5,1.75 4.25,3.25 5.75,2.5 1.5,-0.75 3,-6.75 3.25,-10.5 0.25,-3.75 -7.75,-8.5 -8.75,-9 z"
         style="fill:#ffffff;stroke:#263238;stroke-linecap:round;stroke-linejoin:round"
         id="path49" />
      <path
         d="m 269,236.5 c 0,0 6.25,-4.25 10.5,-2.5"
         style="fill:none;stroke:#263238;stroke-linecap:round;stroke-linejoin:round"
         id="path51" />
      <path
         d="m 265,234 c 0,0 8,-5.75 13,-3.25"
         style="fill:none;stroke:#263238;stroke-linecap:round;stroke-linejoin:round"
         id="path53" />
      <path
         d="m 328.5,194.75 -2,34.75 c 0,0 -4,5.5 -3.5,7 a 11.9,11.9 0 0 1 0.5,3.25 l -2.25,2.75 -14,37.25 c 0,0 -6,4.25 -6.25,5.25 -0.25,1 -2.5,7.75 -2.5,9.25 0,1.5 -0.5,1.5 1.25,1.5 1.75,0 3.75,-5.5 3.75,-5.5 l -0.75,6.5 a 31.87,31.87 0 0 1 -4.5,1 c -1,0 1.5,3.5 5.5,3 4,-0.5 6.5,-2.25 7.75,-6.25 1.25,-4 3,-16 3,-16 0,0 23.25,-30.5 25.5,-34.25 2.25,-3.75 3,-7.25 2.75,-9 a 10.06,10.06 0 0 1 0.5,-5.25 c 0.75,-2.5 1,-4.75 0.5,-5.5 -0.5,-0.75 1,-25.25 0.25,-33.75 -0.75,-8.5 -3,-12.75 -5.75,-14.75 -2.75,-2 -7.5,-2.75 -7.5,-2.75"
         style="fill:#2d9f83;stroke:#263238;stroke-linecap:round;stroke-linejoin:round"
         id="path55" />
      <path
         d="m 321,243.1 -13.78,36.65 c 0,0 -6,4.25 -6.25,5.25 -0.25,1 -2.5,7.75 -2.5,9.25 0,1.5 -0.5,1.5 1.25,1.5 1.75,0 3.75,-5.5 3.75,-5.5 l -0.75,6.5 a 31.87,31.87 0 0 1 -4.5,1 c -1,0 1.5,3.5 5.5,3 4,-0.5 6.5,-2.25 7.75,-6.25 1.25,-4 3,-16 3,-16 0,0 14.67,-19.24 21.83,-29 -4.11,-6.73 -11.54,-6.84 -15.3,-6.4 z"
         style="fill:#ffffff;stroke:#263238;stroke-linecap:round;stroke-linejoin:round"
         id="path57" />
      <path
         d="m 326.25,238 c 0,0 7,-3.75 12,1"
         style="fill:none;stroke:#263238;stroke-linecap:round;stroke-linejoin:round"
         id="path59" />
      <path
         d="m 338.5,232.75 c 0,0 -7.25,-1 -11.75,3"
         style="fill:none;stroke:#263238;stroke-linecap:round;stroke-linejoin:round"
         id="path61" />
    </g>
    <g
       id="freepik--character-4--inject-2"
       transform="translate(-23.690164,-52.27358)">
      <path
         d="m 357.58,416.67 -2,27.66 c 0,0 -9.33,9 -11.33,10.34 -2,1.34 -10.67,2.33 -9.33,5 1.34,2.67 7,2.33 7,2.33 h 26 a 12.38,12.38 0 0 0 1,-7.33 c -0.67,-4.34 -1.34,-12.34 -1.34,-12.34 l 5,-25 z"
         style="fill:#ffffff;stroke:#263238;stroke-linecap:round;stroke-linejoin:round"
         id="path64" />
      <path
         d="m 341.92,462 h 26 a 12.38,12.38 0 0 0 1,-7.33 c -0.17,-1.06 -0.33,-2.34 -0.48,-3.67 h -9.86 c 0,0 -0.66,-3.33 -1,-7 -0.16,-1.77 -1,-1.9 -1.86,-1.58 l -0.14,1.91 c 0,0 -9.33,9 -11.33,10.34 -2,1.34 -10.67,2.33 -9.33,5 1.34,2.67 7,2.33 7,2.33 z"
         style="fill:#ffffff;stroke:#263238;stroke-linecap:round;stroke-linejoin:round"
         id="path66" />
      <path
         d="m 404.92,418 3.33,36.33 c 0,0 1.67,10 3.67,10.34 2,0.34 10,1.66 11.33,-2.67 1.33,-4.33 -5.33,-17.67 -5.33,-17.67 L 420.58,418 Z"
         style="fill:#ffffff;stroke:#263238;stroke-linecap:round;stroke-linejoin:round"
         id="path68" />
      <path
         d="m 408.25,454.33 c 0,0 1.67,10 3.67,10.34 2,0.34 10,1.66 11.33,-2.67 1.33,-4.33 -5.33,-17.67 -5.33,-17.67 0,0 -3.34,-2.66 -5,-0.66 a 18,18 0 0 0 -2.67,5 l -2.62,-1.09 z"
         style="fill:#ffffff;stroke:#263238;stroke-linecap:round;stroke-linejoin:round"
         id="path70" />
      <path
         d="m 355.58,276 a 250.68,250.68 0 0 0 -2,33.67 c 0,20.33 1.67,104.33 1.67,104.33 l 19.33,-0.67 10.34,-90.66 2.33,3.33 13.67,87.33 c 0,0 5,2.67 8.33,2.67 3.33,0 13,-3 13,-3 0,0 -1.33,-100 -1,-105.67 0.33,-5.67 -1.67,-22.33 -1.67,-22.33 0,0 -9.33,2.67 -25.33,0.33 -16,-2.34 -25.33,-5.66 -28,-7 -2.67,-1.34 -10.67,-2.33 -10.67,-2.33 z"
         style="fill:#263238;stroke:#263238;stroke-linecap:round;stroke-linejoin:round"
         id="path72" />
      <line
         x1="379.75"
         y1="323.5"
         x2="393.25"
         y2="318"
         style="fill:none;stroke:#808080;stroke-linecap:round;stroke-linejoin:round"
         id="line74" />
      <path
         d="m 362.75,287 c 0,0 -1,6.5 -6.5,14.5"
         style="fill:none;stroke:#808080;stroke-linecap:round;stroke-linejoin:round"
         id="path76" />
      <path
         d="m 409.75,291.5 a 27.15,27.15 0 0 0 9,12.5"
         style="fill:none;stroke:#808080;stroke-linecap:round;stroke-linejoin:round"
         id="path78" />
      <path
         d="m 393.45,172.73 c 0,0 -31.12,9.64 -31.93,11.65 -0.81,2.01 -26.62,49.8 -24.82,51.21 1.8,1.41 18.8,0.39 19.6,0 0.8,-0.39 7.83,-18.27 7.83,-18.27 0,0 -0.4,18.87 -0.4,20.27 0,1.4 0,11 -3.61,18.28 -3.61,7.28 -6.23,21.28 -6.23,22.88 v 2.61 c 0,0 21.29,13.64 37.55,11.44 a 182.77,182.77 0 0 0 29.11,-6.43 c 0,0 -0.6,-12.44 -2.21,-18.27 -1.61,-5.83 -5,-24.69 -5,-26.7 0,-2.01 2.61,-5.82 2.81,-6.43 0.2,-0.61 9.24,-31.92 9.24,-31.92 l 7.63,25.7 13.05,-2 c 0,0 -4.22,-39.75 -6.83,-42 -2.61,-2.25 -33.93,-10.44 -33.93,-10.44 z"
         style="fill:#ffffff"
         id="path80" />
      <path
         d="m 356.3,235.58 a 15.13,15.13 0 0 0 1.69,-3.32 h -20.46 c -0.76,1.91 -1.09,3.12 -0.83,3.33 1.81,1.41 18.8,0.41 19.6,-0.01 z"
         style="fill:#2d9f83"
         id="path82" />
      <path
         d="m 361.54,252.38 a 28.51,28.51 0 0 1 -1.42,3.48 48.16,48.16 0 0 0 -2.66,6.9 h 59.63 c -0.66,-3.12 -1.39,-6.88 -2,-10.38 z"
         style="fill:#2d9f83"
         id="path84" />
      <path
         d="M 419.23,272.5 H 355 a 52.37,52.37 0 0 0 -1.06,6.24 v 2.61 c 0,0 0.95,0.61 2.57,1.53 h 63.87 c -0.25,-2.81 -0.61,-6.88 -1.15,-10.38 z"
         style="fill:#2d9f83"
         id="path86" />
      <path
         d="m 416.93,232.26 h -53.1 c -0.06,2.74 -0.1,4.89 -0.1,5.32 0,0.43 0,2.5 -0.24,5.07 h 49.95 c -0.07,-0.59 -0.12,-1 -0.12,-1.25 0,-2 2.61,-5.82 2.81,-6.43 0.04,-0.1 0.34,-1.12 0.8,-2.71 z"
         style="fill:#2d9f83"
         id="path88" />
      <path
         d="m 419.75,222.53 c 1,-3.46 2.06,-7.15 3,-10.38 h -75.6 c -1.84,3.61 -3.63,7.17 -5.18,10.38 h 20.08 c 1.19,-2.94 2.08,-5.22 2.08,-5.22 0,0 0,2.23 -0.11,5.22 z"
         style="fill:#2d9f83"
         id="path90" />
      <path
         d="m 393.45,172.73 c 0,0 -19.54,6.06 -28.05,9.57 h 67.66 c -9.86,-3.25 -27.77,-8 -27.77,-8 z"
         style="fill:#2d9f83"
         id="path92" />
      <path
         d="m 357.58,192 c -1.55,3 -3.43,6.54 -5.42,10.38 H 443 c -0.54,-3.77 -1.12,-7.4 -1.68,-10.38 z"
         style="fill:#2d9f83"
         id="path94" />
      <path
         d="m 428.07,212.15 3.08,10.38 h 14.43 c -0.3,-2.66 -0.73,-6.34 -1.24,-10.38 z"
         style="fill:#2d9f83"
         id="path96" />
      <path
         d="m 393.45,172.73 c 0,0 -31.12,9.64 -31.93,11.65 -0.81,2.01 -26.62,49.8 -24.82,51.21 1.8,1.41 18.8,0.39 19.6,0 0.8,-0.39 7.83,-18.27 7.83,-18.27 0,0 -0.4,18.87 -0.4,20.27 0,1.4 0,11 -3.61,18.28 -3.61,7.28 -6.23,21.28 -6.23,22.88 v 2.61 c 0,0 21.29,13.64 37.55,11.44 a 182.77,182.77 0 0 0 29.11,-6.43 c 0,0 -0.6,-12.44 -2.21,-18.27 -1.61,-5.83 -5,-24.69 -5,-26.7 0,-2.01 2.61,-5.82 2.81,-6.43 0.2,-0.61 9.24,-31.92 9.24,-31.92 l 7.63,25.7 13.05,-2 c 0,0 -4.22,-39.75 -6.83,-42 -2.61,-2.25 -33.93,-10.44 -33.93,-10.44 z"
         style="fill:none;stroke:#263238;stroke-linecap:round;stroke-linejoin:round"
         id="path98" />
      <polygon
         points="408.5,176.75 413.52,167.72 396.06,158.28 391.44,174.54 397.06,193.01 "
         style="fill:#ffffff;stroke:#263238;stroke-linecap:round;stroke-linejoin:round"
         id="polygon100" />
      <path
         d="m 395.37,160.71 -1.4,4.93 0.53,2.83 a 22.47,22.47 0 0 0 5.78,8.91 14.85,14.85 0 0 0 5.78,2.85 l 2.45,-3.48 4.51,-8.12 z"
         style="fill:#263238;stroke:#263238;stroke-linecap:round;stroke-linejoin:round"
         id="path102" />
      <path
         d="m 393.9,142.66 c 0,0 -1.06,-3 -1.27,-9.31 -0.21,-6.31 1.06,-12.07 3.18,-11 2.12,1.07 1.69,4.44 1.69,4.44 a 14.29,14.29 0 0 1 12.7,-9.31 c 9.95,-0.63 7.19,3.39 7.19,3.39 0,0 15.88,-1.27 21.38,5.5 5.5,6.77 4.44,13.33 3,13.33 h -3.17 c 0,0 4.87,14.19 1.27,16.94 -3.6,2.75 -10.16,-7 -10.16,-7 0,0 -0.85,3.39 -2.54,4.24 a 20.48,20.48 0 0 1 -3.18,1.26 c 0,0 -6.56,-1.9 -9.94,-4.44 -3.38,-2.54 -8.68,-10.16 -8.68,-10.16 0,0 -5.71,7 -7.83,7.83 a 31.57,31.57 0 0 0 -3.6,1.7 z"
         style="fill:#263238;stroke:#263238;stroke-linecap:round;stroke-linejoin:round"
         id="path104" />
      <path
         d="m 395.51,146.71 c 0,0 0,-8.08 -2.81,-5.27 -2.81,2.81 -3.86,7.73 -2.1,10.19 l 1.75,2.46 1.76,1.41 c 0,0 -1.41,6.32 0,10.19 1.41,3.87 3.86,9.13 9.84,8.43 5.98,-0.7 11,-3.47 13.44,-8.39 C 419.83,160.81 425,153 425,153 c 0,0 -8.78,-0.35 -13.7,-7.38 -4.92,-7.03 -6,-11.24 -6,-11.24 0,0 -4.87,10.23 -9.79,12.33 z"
         style="fill:#ffffff;stroke:#263238;stroke-linecap:round;stroke-linejoin:round"
         id="path106" />
      <path
         d="m 399.62,151.12 a 5,5 0 0 0 5.5,2.54"
         style="fill:none;stroke:#263238;stroke-linecap:round;stroke-linejoin:round"
         id="path108" />
      <path
         d="m 410.62,156 a 4.92,4.92 0 0 0 6.35,3.18"
         style="fill:none;stroke:#263238;stroke-linecap:round;stroke-linejoin:round"
         id="path110" />
      <path
         d="m 402.16,161.49 c 0,0 0.63,2.33 4.65,1.49"
         style="fill:none;stroke:#263238;stroke-linecap:round;stroke-linejoin:round"
         id="path112" />
      <path
         d="m 399.4,162.55 c 0,0 0.43,4.66 7.84,4.66"
         style="fill:none;stroke:#263238;stroke-linecap:round;stroke-linejoin:round"
         id="path114" />
      <path
         d="m 401.1,147.74 a 7,7 0 0 1 5.92,2.54"
         style="fill:none;stroke:#263238;stroke-linecap:round;stroke-linejoin:round"
         id="path116" />
      <path
         d="m 412.31,153.24 c 0,0 3.39,-0.42 5.93,4"
         style="fill:none;stroke:#263238;stroke-linecap:round;stroke-linejoin:round"
         id="path118" />
      <path
         d="m 393.05,147.24 c 0,0 -3.22,0 -3.42,1.4 -0.2,1.4 0,20.88 1.61,31.52 1.61,10.64 3.61,21.49 4.21,21.69 0.6,0.2 18.28,-31.12 19.08,-32.33"
         style="fill:none;stroke:#263238;stroke-linecap:round;stroke-linejoin:round"
         id="path120" />
      <polygon
         points="362.63,207.47 365.44,236.18 376.88,235.58 374.47,206.66 "
         style="fill:#263238;stroke:#263238;stroke-miterlimit:10"
         id="polygon122" />
      <path
         d="m 357.91,233.77 2.21,-12.85 3.41,-5.82 0.2,5 c 0,0 10.44,-7 10.64,-5.42 0.2,1.58 -7.63,7.83 -7.63,7.83 v 1.8 c 0,0 7.23,-4 8,-4.21 0.77,-0.21 2.82,-2 2.62,-0.2 -0.2,1.8 -2.82,3.41 -3.82,4.21 -1,0.8 -5.22,3.42 -5.22,3.42 0,0 8,-4.42 8,-3 0,1.42 -2,3.22 -2.61,3.82 -0.61,0.6 -2.61,3.41 -3.81,4.82 -1.2,1.41 -9.64,4.41 -9.64,4.41 0,0 -20.26,8.42 -23.83,9.24 -3.57,0.82 -3.88,-8.22 -1.47,-11.23 2.41,-3.01 4.68,-3.43 7.89,-4.23 3.21,-0.8 15.06,2.41 15.06,2.41 z"
         style="fill:#ffffff;stroke:#263238;stroke-miterlimit:10"
         id="path124" />
      <path
         d="m 373.57,236 c 0,0 1.2,9.84 4,14.45 2.8,4.61 10.44,6.83 14.05,3.22 3.61,-3.61 5.64,-11.67 5.44,-21.67 -0.2,-10 -1.61,-30.11 -1.61,-30.11"
         style="fill:none;stroke:#263238;stroke-linecap:round;stroke-linejoin:round"
         id="path126" />
      <polygon
         points="352.92,406.67 354.25,420.33 376.58,420.33 377.25,407 "
         style="fill:#ffffff;stroke:#263238;stroke-linecap:round;stroke-linejoin:round"
         id="polygon128" />
      <polygon
         points="398.92,409 400.58,420.33 423.58,420.67 424.25,407.33 "
         style="fill:#ffffff;stroke:#263238;stroke-linecap:round;stroke-linejoin:round"
         id="polygon130" />
      <path
         d="m 420.15,159.08 -1.61,6.83 c 0,0 -8.63,5 -9,7.23 -0.37,2.23 19.47,50.59 21.28,53.8 1.81,3.21 4,8.64 9.44,7.43 5.44,-1.21 7.63,-9 5.82,-12.65 -1.81,-3.65 -29.92,-46 -29.92,-46 l 11.25,-10.24 c 0,0 0.2,-9.24 -0.2,-11.25 -0.4,-2.01 -0.61,-2.81 -0.61,-2.81 0,0 -5.25,6.46 -6.45,7.66 z"
         style="fill:#ffffff;stroke:#263238;stroke-linecap:round;stroke-linejoin:round"
         id="path132" />
      <polyline
         points="421.63 157.98 421.63 166.7 419.86 169.7"
         style="fill:none;stroke:#263238;stroke-linecap:round;stroke-linejoin:round"
         id="polyline134" />
      <path
         d="m 424,155.14 c 0,0 0.27,9.25 0.27,10.34 a 6.67,6.67 0 0 1 -1.09,2.72"
         style="fill:none;stroke:#263238;stroke-linecap:round;stroke-linejoin:round"
         id="path136" />
      <path
         d="m 425.45,153.35 c 0,0 0.81,10.49 0.81,11.58 a 4,4 0 0 1 -0.95,2.18"
         style="fill:none;stroke:#263238;stroke-linecap:round;stroke-linejoin:round"
         id="path138" />
    </g>
    <g
       id="freepik--character-2--inject-2"
       transform="translate(-23.690164,-52.27358)">
      <path
         d="m 234.5,439.33 5.75,8.42 c 0,0 18.86,10.4 19.59,10.64 0.73,0.24 0.73,2.18 -0.48,2.42 -1.21,0.24 -5.57,0.72 -5.57,0.72 h -39.65 c 0,0 -1,-3.86 -1.46,-6 -0.46,-2.14 0.73,-9.19 0.73,-9.19 l 0.24,-6.29 z"
         style="fill:#ffffff;stroke:#263238;stroke-linecap:round;stroke-linejoin:round"
         id="path141" />
      <path
         d="m 170.5,253.67 1.33,39.33 5.67,131 -2.33,7 3.33,10.67 c 0,0 4,-4 9,-1.67 a 30.5,30.5 0 0 1 8,5.33 50.18,50.18 0 0 0 2.67,-5.66 23.27,23.27 0 0 0 1,-7.34 c 0,-1 4.66,-5.66 4.66,-7.33 0,-1.67 -4,-8.67 -4,-8.67 L 206.17,292 213.5,423.33 c 0,0 -2,2.34 -2,3.34 0,1 2.67,17 2.67,17 0,0 0.33,0.33 4.33,0.33 4,0 9.33,-1 11,-2.67 1.67,-1.67 5,-2 5,-2 l 0.67,-7.33 -1.34,-5.33 4.34,-80.67 v -81.33 l 0.33,-12.34 -68.67,-1 z"
         style="fill:#263238;stroke:#263238;stroke-linecap:round;stroke-linejoin:round"
         id="path143" />
      <path
         d="m 183.17,152 -24.34,13 -14.66,55.33 -19.34,29.67 7,5.67 26,-25.34 7.34,-9.33 2.66,17 c 0,0 -5,12 -2.33,14.33 a 22.89,22.89 0 0 0 6.33,3.67 h 66.67 a 42.7,42.7 0 0 0 1.33,-6 c 0,-1.33 -1.66,-12.67 -1.66,-12.67 l 1,-23.33 3.66,20.67 3.34,36.33 10,-0.33 2,-48.67 -14,-57 -28,-11.67 z"
         style="fill:#ffffff;stroke:#263238;stroke-linecap:round;stroke-linejoin:round"
         id="path145" />
      <polygon
         points="189.25,142.75 184.5,143.25 180,151.75 183.25,172.5 198.5,161.75 213.75,173 219,151.5 212.75,142.5 "
         style="fill:#ffffff;stroke:#263238;stroke-linecap:round;stroke-linejoin:round"
         id="polygon147" />
      <path
         d="m 187.75,135 -0.75,12.75 12.5,15 11.25,-15.5 -1,-12.5 c 0,0 -13,3.5 -22,0.25 z"
         style="fill:#ffffff;stroke:#263238;stroke-linecap:round;stroke-linejoin:round"
         id="path149" />
      <path
         d="m 210.14,139.6 -0.39,-4.85 c 0,0 -13,3.5 -22,0.25 l -0.19,3.22 c 1.9,3.5 6.24,10.38 11.23,10.81 4.21,0.36 8.62,-5.21 11.35,-9.43 z"
         style="fill:#263238;stroke:#263238;stroke-linecap:round;stroke-linejoin:round"
         id="path151" />
      <path
         d="m 181.5,114.75 c 0,0 -1.75,-3.75 -2.75,-0.75 -1,3 3,9.25 3,9.25 L 182.5,115 Z"
         style="fill:#ffffff;stroke:#263238;stroke-linecap:round;stroke-linejoin:round"
         id="path153" />
      <path
         d="m 214.84,114.75 c 0,0 1.75,-3.75 2.75,-0.75 1,3 -3,9.25 -3,9.25 L 213.84,115 Z"
         style="fill:#ffffff;stroke:#263238;stroke-linecap:round;stroke-linejoin:round"
         id="path155" />
      <path
         d="m 213.5,119 c 0,0 0.5,0.25 1.25,-1.5 0.75,-1.75 1.25,-11.75 1.25,-11.75 0,0 5,-7.5 2.25,-12.75 -2.75,-5.25 -12,-7.5 -18.75,-9 -6.75,-1.5 -17,1.25 -20.25,5 -3.25,3.75 -6.5,8.25 -4.5,10.75 a 42.58,42.58 0 0 0 6.5,5.75 c 0,0 -0.75,7.75 0.25,9.25 l 1,1.5 1.25,-10.25 c 0,0 8.75,-1 14,-2.75 5.25,-1.75 7.75,-2.5 7.75,-2.5 0,0 2.25,4.25 4,5.5 a 12.14,12.14 0 0 1 2.5,2.25 z"
         style="fill:#263238;stroke:#263238;stroke-linecap:round;stroke-linejoin:round"
         id="path157" />
      <path
         d="m 182.75,104 c 0,0 -1.75,21.75 -0.25,25 1.5,3.25 7.75,15.25 17.5,14.25 9.75,-1 13.5,-10.75 14,-16.5 0.5,-5.75 -0.5,-21.25 -0.5,-21.25 0,0 -4.75,-2 -5.25,-4 a 27.63,27.63 0 0 1 -0.5,-5.25 c 0,0 -14.75,9 -25,7.75 z"
         style="fill:#ffffff;stroke:#263238;stroke-linecap:round;stroke-linejoin:round"
         id="path159" />
      <path
         d="m 199,122.75 a 14.51,14.51 0 0 0 -7.25,3 c -3.5,2.75 -5.5,3 -5.5,3 0,0 4.5,5.5 11.25,5.5 6.75,0 11,-3.25 11.75,-5.5 L 210,126.5 a 24.1,24.1 0 0 1 -7.25,-2 19.81,19.81 0 0 0 -3.75,-1.75 z"
         style="fill:#263238;stroke:#263238;stroke-linecap:round;stroke-linejoin:round"
         id="path161" />
      <path
         d="m 196.5,117.5 c 0,0 -0.5,5.5 0,6.5 0.5,1 4.25,3 4.75,0.75 0.5,-2.25 0,-7.25 0,-7.25"
         style="fill:#ffffff;stroke:#263238;stroke-linecap:round;stroke-linejoin:round"
         id="path163" />
      <ellipse
         cx="190.88"
         cy="115.5"
         rx="1.38"
         ry="1.75"
         style="fill:#263238"
         id="ellipse165" />
      <ellipse
         cx="205.75"
         cy="115.5"
         rx="1.38"
         ry="1.75"
         style="fill:#263238"
         id="ellipse167" />
      <path
         d="m 186.75,110.75 c 0,0 1.25,-4 7.5,-1.75"
         style="fill:none;stroke:#263238;stroke-linecap:round;stroke-linejoin:round"
         id="path169" />
      <path
         d="m 201.5,108.75 c 0,0 3.5,-3.25 7.75,1"
         style="fill:none;stroke:#263238;stroke-linecap:round;stroke-linejoin:round"
         id="path171" />
      <polyline
         points="160.17 183.33 165.17 221 155.83 193.67"
         style="fill:none;stroke:#263238;stroke-linecap:round;stroke-linejoin:round"
         id="polyline173" />
      <line
         x1="199.5"
         y1="166.33"
         x2="202.83"
         y2="236.67"
         style="fill:none;stroke:#263238;stroke-linecap:round;stroke-linejoin:round"
         id="line175" />
      <line
         x1="239.17"
         y1="214"
         x2="239.5"
         y2="180.33"
         style="fill:none;stroke:#263238;stroke-linecap:round;stroke-linejoin:round"
         id="line177" />
      <line
         x1="200.5"
         y1="293"
         x2="213.83"
         y2="284.67001"
         style="fill:none;stroke:#808080;stroke-linecap:round;stroke-linejoin:round"
         id="line179" />
      <path
         d="m 179.31,440.56 -2.9,9.19 c 0,0 -6.77,10.88 -6.53,11.85 0.24,0.97 26.84,0 26.84,0 0,0 1.94,0 1.7,-4.11 a 121.52,121.52 0 0 0 -1.94,-12.33 c 0,0 -2.9,-7.5 -8.46,-8.71 -5.56,-1.21 -8.71,2.66 -8.71,4.11 z"
         style="fill:#ffffff;stroke:#263238;stroke-linecap:round;stroke-linejoin:round"
         id="path181" />
      <polygon
         points="253.65,298.05 256.69,286.31 254.75,298.6 "
         style="fill:none;stroke:#263238;stroke-linecap:round;stroke-linejoin:round"
         id="polygon183" />
      <path
         d="m 246.17,271 -2.29,10.88 1,11.23 1.64,0.18 0.62,-7.92 1.16,12.63 4.89,0.93 c 0,0 3.26,-10.71 3.5,-12.57 0.24,-1.86 -0.52,-15.64 -0.52,-15.64 z"
         style="fill:#ffffff;stroke:#263238;stroke-linecap:round;stroke-linejoin:round"
         id="path185" />
      <line
         x1="249.63"
         y1="297.85999"
         x2="251.46001"
         y2="284.34"
         style="fill:none;stroke:#263238;stroke-linecap:round;stroke-linejoin:round"
         id="line187" />
      <line
         x1="251.09"
         y1="298.41"
         x2="254.38"
         y2="285.42999"
         style="fill:none;stroke:#263238;stroke-linecap:round;stroke-linejoin:round"
         id="line189" />
      <path
         d="m 124.83,250 c 0,0 -8,3.67 -10,4.33 -2,0.66 -2.66,3 -5,4.67 -2.34,1.67 -5.33,3.67 -3.66,4.33 a 7.82,7.82 0 0 0 3.66,0.34 l 3,-3.67 -5.33,11.67 -0.33,4.33 4,1.67 9.33,-5 11.33,-17 z"
         style="fill:#ffffff;stroke:#263238;stroke-linecap:round;stroke-linejoin:round"
         id="path191" />
      <path
         d="m 112.83,260 c 0,0 3.92,3.29 6.35,2.6 2.43,-0.69 4.34,-5.73 4.34,-5.73"
         style="fill:#ffffff;stroke:#263238;stroke-linecap:round;stroke-linejoin:round"
         id="path193" />
      <line
         x1="107.55"
         y1="274.23001"
         x2="113.11"
         y2="266.07001"
         style="fill:#ffffff;stroke:#263238;stroke-linecap:round;stroke-linejoin:round"
         id="line195" />
      <line
         x1="109.12"
         y1="276.48001"
         x2="115.54"
         y2="267.28"
         style="fill:#ffffff;stroke:#263238;stroke-linecap:round;stroke-linejoin:round"
         id="line197" />
      <line
         x1="111.17"
         y1="277.67001"
         x2="118.66"
         y2="268.67001"
         style="fill:#ffffff;stroke:#263238;stroke-linecap:round;stroke-linejoin:round"
         id="line199" />
    </g>
    <g
       id="freepik--character-1--inject-2"
       transform="translate(-23.690164,-52.27358)">
      <path
         d="m 135.75,438.65 a 31.46,31.46 0 0 0 2,5.25 c 1,1.75 2.5,7.75 4.5,8.75 2,1 2.75,4 2.75,6 0,2 -0.5,2.5 -1.75,2.5 h -25 c 0,0 -0.25,-3.25 -0.25,-6.25 0,-3 0.5,-7.75 0.5,-9 v -8 a 106.69,106.69 0 0 1 11.25,-0.75 c 5.25,0 6,1.5 6,1.5 z"
         style="fill:#ffffff;stroke:#263238;stroke-linecap:round;stroke-linejoin:round"
         id="path202" />
      <path
         d="m 92,437.9 -4.5,11.5 c 0,0 -5.75,5.5 -5.75,7.75 0,2.25 1.25,3.25 2,3.25 h 25.5 a 21.84,21.84 0 0 0 0.25,-8 c -0.75,-3.75 -2.25,-9.5 -2.25,-9.5 l -10,-5.25 z"
         style="fill:#ffffff;stroke:#263238;stroke-linecap:round;stroke-linejoin:round"
         id="path204" />
      <path
         d="m 87.25,337.15 4.75,88.5 c 0,0 -3.25,5.5 -2.5,7 a 45,45 0 0 1 1.75,6.75 l 9.25,5.5 c 0,0 6.5,-1 6.75,-2 0.25,-1 1,-6.5 1.25,-10 0.25,-3.5 -1.25,-6.75 -1,-10.25 0.25,-3.5 5.5,-71.25 5.5,-71.25 l 1.75,-0.5 3.75,81 a 18.71,18.71 0 0 0 -1.25,4 c -0.25,1.75 2.25,5.25 2.25,5.25 0,0 0,3 1.5,3.5 1.5,0.5 4.75,-0.5 5.75,-1.5 1,-1 0.5,-4 2.75,-4.5 2.25,-0.5 6.75,1.75 6.75,1.75 a 66.34,66.34 0 0 0 0,-7.25 C 136,430.9 133.5,427.4 133.5,427.4 l 3.25,-65.25 -1,-25 z"
         style="fill:#263238;stroke:#263238;stroke-linecap:round;stroke-linejoin:round"
         id="path206" />
      <path
         d="m 150.25,296.4 -2,48 c 0,0 2,11.5 2,12.25 0,0.75 -1,5.75 -2.75,7.25 a 1.66,1.66 0 0 1 -2.75,-0.5 l 0.5,-2.75 -1.25,-6 -1.75,6.75 c 0,0 -2.25,0.25 -1.75,-2.75 0.5,-3 0.25,-8.25 0.75,-10 a 18.89,18.89 0 0 0 0.5,-4.25 c 0,0 -5,-25.75 -5,-26.5 0,-0.75 -1.25,-19.75 -1.25,-19.75 z"
         style="fill:#ffffff;stroke:#263238;stroke-linecap:round;stroke-linejoin:round"
         id="path208" />
      <circle
         cx="68.879997"
         cy="321.01999"
         r="18.879999"
         style="fill:#ffffff;stroke:#263238;stroke-linecap:round;stroke-linejoin:round"
         id="circle210" />
      <path
         d="m 60.5,283.65 c 0,0 -8.25,10.25 -8.75,11.5 -0.5,1.25 -8.75,29 -8,31.75 0.75,2.75 3.75,8.75 4.5,10.75 0.75,2 9,6.25 11.75,6.25 1.58,0 3.58,-1.16 5,-2.15 a 1.34,1.34 0 0 0 -0.15,-2.29 28.53,28.53 0 0 1 -3.09,-1.81 c -1.75,-1.25 -3.25,-2.5 -3.25,-2.5 0,0 3.5,2.75 3.75,0.75 0.25,-2 -2,-3.5 -2.75,-5 a 27.35,27.35 0 0 0 -5,-5.5 l -3,-2 c 0,0 -1,-8 1.25,-11.75 A 19.57,19.57 0 0 1 58,305.9 l 5,-7.5 4.75,-4 z"
         style="fill:#ffffff;stroke:#263238;stroke-linecap:round;stroke-linejoin:round"
         id="path212" />
      <line
         x1="58.5"
         y1="335.14999"
         x2="52"
         y2="331.64999"
         style="fill:#ffffff;stroke:#263238;stroke-linecap:round;stroke-linejoin:round"
         id="line214" />
      <path
         d="m 105.75,248.15 -24.5,8.5 -24.25,28 11.25,14.5 17,-11.75 0.5,51.5 a 101.47,101.47 0 0 0 24,5 c 13,1 27,-5 27,-5 l 2,-35.75 17.25,-5.25 c 0,0 -12,-33.25 -14.25,-37.25 -2.25,-4 -22.25,-11.25 -22.25,-11.25 0,0 -8.25,-2.25 -13.75,-1.25 z"
         style="fill:#2d9f83;stroke:#263238;stroke-linecap:round;stroke-linejoin:round"
         id="path216" />
      <line
         x1="138.75"
         y1="303.14999"
         x2="139.5"
         y2="269.14999"
         style="fill:#ffffff;stroke:#263238;stroke-linecap:round;stroke-linejoin:round"
         id="line218" />
      <line
         x1="85.25"
         y1="287.39999"
         x2="82.5"
         y2="272.64999"
         style="fill:#ffffff;stroke:#263238;stroke-linecap:round;stroke-linejoin:round"
         id="line220" />
      <path
         d="m 104.25,238.4 c 0,0 0.75,11 0.5,13 -0.25,2 1,9 6,9.75 5,0.75 9.75,-8.25 10.25,-9 0.5,-0.75 -0.5,-7.5 -0.5,-7.5 z"
         style="fill:#ffffff;stroke:#263238;stroke-linecap:round;stroke-linejoin:round"
         id="path222" />
      <path
         d="m 121.14,251 c 0,-2.14 -0.64,-6.35 -0.64,-6.35 l -16.25,-6.25 c 0,0 0.1,1.47 0.21,3.43 a 20.83,20.83 0 0 0 9.33,7 56.36,56.36 0 0 0 7.35,2.17 z"
         style="fill:#263238;stroke:#263238;stroke-linecap:round;stroke-linejoin:round"
         id="path224" />
      <path
         d="m 127.25,210.15 c 0,0 -2.75,-6.25 -12.5,-8 -9.75,-1.75 -20.5,2.75 -24.25,11.75 -3.75,9 4.5,18.25 4.5,18.25 0,0 8.5,8.25 10.25,10 1.75,1.75 4,4.25 8.5,4.75 4.5,0.5 11.25,1.25 13.75,0 2.5,-1.25 3.5,-6 4,-7 0.5,-1 2.5,-8.75 1,-12.5 a 16.33,16.33 0 0 0 -3.75,-5.75 c 0,0 0.25,-7.25 -1.5,-11.5 z"
         style="fill:#ffffff;stroke:#263238;stroke-linecap:round;stroke-linejoin:round"
         id="path226" />
      <path
         d="m 126.25,212.15 a 11.24,11.24 0 0 0 1.22,-1.41 c -0.07,-0.2 -0.14,-0.4 -0.22,-0.59 0,0 -2.75,-6.25 -12.5,-8 -9.75,-1.75 -20.5,2.75 -24.25,11.75 -3.75,9 4.5,18.25 4.5,18.25 l 2.91,2.85 a 4.06,4.06 0 0 1 1.34,-1.33 c 1.75,-1 3.75,2.5 3.75,2.5 a 3.17,3.17 0 0 0 2,-1.75 c 0.75,-1.5 -2.5,-6.25 -2.5,-6.25 a 17.73,17.73 0 0 1 3.5,-4.75 c 2.5,-2.5 6.75,-10 6.75,-10 l 0.5,3.75 a 11.46,11.46 0 0 0 4,-1.5 c 1.25,-1 3.5,-3 3.5,-3 l -0.5,4 a 37.64,37.64 0 0 0 6,-4.52 z"
         style="fill:#263238;stroke:#263238;stroke-linecap:round;stroke-linejoin:round"
         id="path228" />
      <path
         d="m 126.75,228.15 c 0,0 4.25,3.25 3,4.75 a 4.23,4.23 0 0 1 -3,1.5"
         style="fill:none;stroke:#263238;stroke-linecap:round;stroke-linejoin:round"
         id="path230" />
      <path
         d="m 119.5,237.65 a 6.49,6.49 0 0 0 7.25,1"
         style="fill:none;stroke:#263238;stroke-linecap:round;stroke-linejoin:round"
         id="path232" />
      <path
         d="m 119,228.46 c 0.15,0.95 -0.28,1.81 -1,1.92 -0.72,0.11 -1.36,-0.58 -1.5,-1.54 -0.14,-0.96 0.28,-1.81 1,-1.92 0.72,-0.11 1.34,0.58 1.5,1.54 z"
         style="fill:#263238"
         id="path234" />
      <path
         d="m 128,225 c 0.15,0.95 -0.28,1.81 -1,1.92 -0.72,0.11 -1.36,-0.58 -1.5,-1.54 -0.14,-0.96 0.28,-1.81 1,-1.92 0.72,-0.11 1.34,0.54 1.5,1.54 z"
         style="fill:#263238"
         id="path236" />
      <path
         d="m 114,225.65 a 5.22,5.22 0 0 1 4.75,-3"
         style="fill:none;stroke:#263238;stroke-linecap:round;stroke-linejoin:round"
         id="path238" />
      <path
         d="m 124.25,221.4 c 0,0 2.5,-2.25 4,-2"
         style="fill:none;stroke:#263238;stroke-linecap:round;stroke-linejoin:round"
         id="path240" />
      <path
         d="m 105.75,236.4 c 0,0 -3.25,-7 -6.75,-6.5 -3.5,0.5 -3.75,6 -0.75,9 3,3 7,1.25 7,1.25"
         style="fill:#ffffff;stroke:#263238;stroke-linecap:round;stroke-linejoin:round"
         id="path242" />
    </g>
  </g>
  <rect
     ry="6.9100106e-16"
     rx="201.79837"
     y="0"
     x="0.00012891542"
     height="433.92001"
     width="452.625"
     id="rect1076"
     style="fill:none;stroke-width:5.93041;paint-order:stroke fill markers" />
</svg>
