<?xml version="1.0" encoding="UTF-8" standalone="no"?>
<svg
   xmlns:dc="http://purl.org/dc/elements/1.1/"
   xmlns:cc="http://creativecommons.org/ns#"
   xmlns:rdf="http://www.w3.org/1999/02/22-rdf-syntax-ns#"
   xmlns:svg="http://www.w3.org/2000/svg"
   xmlns="http://www.w3.org/2000/svg"
   xmlns:sodipodi="http://sodipodi.sourceforge.net/DTD/sodipodi-0.dtd"
   xmlns:inkscape="http://www.inkscape.org/namespaces/inkscape"
   inkscape:version="1.0 (4035a4fb49, 2020-05-01)"
   height="433.91977"
   width="452.62503"
   sodipodi:docname="kpl-kope-pour-editeur.svg"
   id="svg374"
   version="1.1"
   viewBox="0 0 452.62503 433.91977">
  <metadata
     id="metadata380">
    <rdf:RDF>
      <cc:Work
         rdf:about="">
        <dc:format>image/svg+xml</dc:format>
        <dc:type
           rdf:resource="http://purl.org/dc/dcmitype/StillImage" />
      </cc:Work>
    </rdf:RDF>
  </metadata>
  <defs
     id="defs378" />
  <sodipodi:namedview
     inkscape:current-layer="svg374"
     inkscape:window-maximized="1"
     inkscape:window-y="-8"
     inkscape:window-x="-8"
     inkscape:cy="154.50345"
     inkscape:cx="212.0105"
     inkscape:zoom="1.852"
     showgrid="false"
     id="namedview376"
     inkscape:window-height="1057"
     inkscape:window-width="1920"
     inkscape:pageshadow="2"
     inkscape:pageopacity="0"
     guidetolerance="10"
     gridtolerance="10"
     objecttolerance="10"
     borderopacity="1"
     bordercolor="#666666"
     pagecolor="#ffffff" />
  <g
     transform="matrix(1.0747895,0,0,1.0747895,-40.830712,-56.211491)"
     id="freepik--Symbol--inject-13">
    <path
       id="path2"
       style="fill:none;stroke:#263238;stroke-linecap:round;stroke-linejoin:round"
       d="m 402.38,139.9 a 2.45,2.45 0 0 1 0.11,0.65 q 0,0.38 0,0.69 a 6.09,6.09 0 0 1 -0.19,1.57 3.48,3.48 0 0 1 -0.6,1.29 3.08,3.08 0 0 1 -1.08,0.9 3.67,3.67 0 0 1 -1.68,0.35 4.69,4.69 0 0 1 -1.92,-0.42 23,23 0 0 1 -2.33,-1.2 L 384.8,138 a 8,8 0 0 1 -0.65,-7.15 4,4 0 0 1 1.62,-1.66 l 12.69,-7.39 a 5.71,5.71 0 0 1 3.07,1.64 3.62,3.62 0 0 1 0.8,2.24 3.65,3.65 0 0 1 -0.8,2.51 7.88,7.88 0 0 1 -2.38,1.69 L 391,134 Z" />
    <path
       id="path4"
       style="fill:none;stroke:#263238;stroke-linecap:round;stroke-linejoin:round"
       d="m 419.68,150.43 c -0.43,0.06 -0.84,0.09 -1.24,0.11 -0.4,0.02 -0.77,0 -1.11,0 a 4.66,4.66 0 0 1 -3,-0.83 3.21,3.21 0 0 1 -1,-2.67 9.24,9.24 0 0 1 0.36,-2.52 c 0.25,-0.84 0.47,-1.59 0.65,-2.24 l 8.12,-29.3 c 0.46,-0.06 0.89,-0.1 1.3,-0.12 h 1.1 a 4.85,4.85 0 0 1 2.93,0.79 2.88,2.88 0 0 1 1.09,2.53 8.76,8.76 0 0 1 -0.37,2.54 q -0.37,1.2 -0.69,2.4 z" />
    <path
       id="path6"
       style="fill:none;stroke:#263238;stroke-linecap:round;stroke-linejoin:round"
       d="m 439.8,127.26 a 2.45,2.45 0 0 1 -0.11,-0.65 c 0,-0.24 0,-0.47 0,-0.69 a 6.62,6.62 0 0 1 0.18,-1.57 3.48,3.48 0 0 1 0.6,-1.29 3.12,3.12 0 0 1 1.09,-0.9 3.61,3.61 0 0 1 1.68,-0.35 4.64,4.64 0 0 1 1.91,0.42 c 0.63,0.28 1.41,0.68 2.33,1.2 l 9.93,5.72 a 6.66,6.66 0 0 1 1.2,4.15 6.54,6.54 0 0 1 -0.56,3 4,4 0 0 1 -1.61,1.67 l -12.69,7.38 a 5.67,5.67 0 0 1 -3.07,-1.64 3.57,3.57 0 0 1 -0.81,-2.24 3.62,3.62 0 0 1 0.81,-2.51 8.13,8.13 0 0 1 2.37,-1.69 l 8.13,-4.1 z" />
  </g>
  <g
     transform="matrix(1.0747895,0,0,1.0747895,-40.830712,-56.211491)"
     id="freepik--Controls--inject-13">
    <polyline
       id="polyline9"
       style="fill:none;stroke:#263238;stroke-linecap:round;stroke-linejoin:round"
       points="252.39 135.63 252.39 148.43 288.63 148.43 288.63 118.73 318.32 118.73 318.32 82.5 301.6 82.5" />
    <polyline
       id="polyline11"
       style="fill:none;stroke:#263238;stroke-linecap:round;stroke-linejoin:round"
       points="237.63 82.5 222.69 82.5 222.69 118.73 252.39 118.73 252.39 129.36" />
    <polyline
       id="polyline13"
       style="fill:none;stroke:#263238;stroke-linecap:round;stroke-linejoin:round"
       points="296.51 82.5 288.63 82.5 288.63 52.8 252.39 52.8 252.39 82.5 244.8 82.5" />
    <circle
       id="circle15"
       style="fill:none;stroke:#263238;stroke-linecap:round;stroke-linejoin:round"
       r="7.54"
       cy="100.61"
       cx="270.51001" />
    <polygon
       id="polygon17"
       style="fill:none;stroke:#263238;stroke-linecap:round;stroke-linejoin:round"
       points="276.73,74.54 270.9,64.45 265.08,74.54 " />
    <polygon
       id="polygon19"
       style="fill:none;stroke:#263238;stroke-linecap:round;stroke-linejoin:round"
       points="265.08,129 270.9,139.1 276.73,129 " />
    <polygon
       id="polygon21"
       style="fill:none;stroke:#263238;stroke-linecap:round;stroke-linejoin:round"
       points="243.67,95.95 233.58,101.77 243.67,107.6 " />
    <polygon
       id="polygon23"
       style="fill:none;stroke:#263238;stroke-linecap:round;stroke-linejoin:round"
       points="298.13,107.6 308.23,101.77 298.13,95.95 " />
  </g>
  <g
     transform="matrix(1.0747895,0,0,1.0747895,-40.830712,-56.211491)"
     id="freepik--Hearts--inject-13">
    <path
       id="path26"
       style="fill:none;stroke:#263238;stroke-linecap:round;stroke-linejoin:round"
       d="m 405.15,211.84 a 4.88,4.88 0 0 0 -6.91,0 l -1.58,1.58 -1.58,-1.58 a 4.89,4.89 0 0 0 -6.91,6.91 l 8.33,8.34 0.16,-0.16 0.16,0.16 8.33,-8.34 a 4.88,4.88 0 0 0 0,-6.91 z" />
    <path
       id="path28"
       style="fill:none;stroke:#263238;stroke-linecap:round;stroke-linejoin:round"
       d="m 428.07,211.84 a 4.88,4.88 0 0 0 -6.91,0 l -1.58,1.58 -1.58,-1.58 a 4.89,4.89 0 1 0 -6.91,6.91 l 8.33,8.34 0.16,-0.16 0.16,0.16 8.33,-8.34 a 4.88,4.88 0 0 0 0,-6.91 z" />
    <path
       id="path30"
       style="fill:none;stroke:#263238;stroke-linecap:round;stroke-linejoin:round"
       d="m 451,211.84 a 4.88,4.88 0 0 0 -6.91,0 l -1.58,1.58 -1.58,-1.58 a 4.89,4.89 0 0 0 -6.91,6.91 l 8.33,8.34 0.16,-0.16 0.16,0.16 8.33,-8.34 a 4.88,4.88 0 0 0 0,-6.91 z" />
    <path
       id="path32"
       style="fill:none;stroke:#263238;stroke-linecap:round;stroke-linejoin:round"
       d="m 114.51,99.07 a 5.67,5.67 0 0 0 -7.5,0 l -1.71,1.57 -1.72,-1.57 a 5.67,5.67 0 0 0 -7.5,0 4.57,4.57 0 0 0 0,6.86 l 9,8.27 0.18,-0.16 0.17,0.16 9,-8.27 a 4.57,4.57 0 0 0 0.08,-6.86 z" />
    <path
       id="path34"
       style="fill:none;stroke:#263238;stroke-linecap:round;stroke-linejoin:round"
       d="m 139.37,99.07 a 5.67,5.67 0 0 0 -7.5,0 l -1.71,1.57 -1.72,-1.57 a 5.67,5.67 0 0 0 -7.5,0 4.57,4.57 0 0 0 0,6.86 l 9.06,8.27 0.17,-0.16 0.17,0.16 9,-8.27 a 4.57,4.57 0 0 0 0.03,-6.86 z" />
    <path
       id="path36"
       style="fill:none;stroke:#263238;stroke-linecap:round;stroke-linejoin:round"
       d="m 164.23,99.07 a 5.66,5.66 0 0 0 -7.49,0 l -1.74,1.57 -1.71,-1.57 a 5.67,5.67 0 0 0 -7.5,0 4.57,4.57 0 0 0 0,6.86 l 9,8.27 0.21,-0.2 0.17,0.16 9,-8.27 a 4.55,4.55 0 0 0 0.06,-6.82 z" />
  </g>
  <g
     transform="matrix(1.0747895,0,0,1.0747895,-40.830712,-56.211491)"
     id="freepik--Drink--inject-13">
    <rect
       id="rect39"
       style="fill:#ffffff;stroke:#263238;stroke-linecap:round;stroke-linejoin:round"
       height="7.2800002"
       width="20.76"
       y="263.91"
       x="380.98999" />
    <polygon
       id="polygon41"
       style="fill:#0d5f82;stroke:#263238;stroke-linecap:round;stroke-linejoin:round"
       points="380.8,271.19 383.44,299.05 399.29,299.05 401.93,271.19 " />
    <rect
       id="rect43"
       style="fill:#ffffff;stroke:#263238;stroke-linecap:round;stroke-linejoin:round"
       height="4.29"
       width="25.290001"
       y="269.91"
       x="378.72" />
  </g>
  <g
     transform="matrix(1.0747895,0,0,1.0747895,-40.830712,-56.211491)"
     id="freepik--Desk--inject-13">
    <rect
       id="rect46"
       style="fill:#263238;stroke:#263238;stroke-linecap:round;stroke-linejoin:round"
       height="96.75"
       width="123.66"
       y="181.57001"
       x="247.64999" />
    <rect
       id="rect48"
       style="fill:#ffffff;stroke:#263238;stroke-linecap:round;stroke-linejoin:round"
       height="86.879997"
       width="115.68"
       y="184.69"
       x="251.64" />
    <rect
       id="rect50"
       style="fill:#263238;stroke:#263238;stroke-linecap:round;stroke-linejoin:round"
       height="86.879997"
       width="30.450001"
       y="184.69"
       x="336.87" />
    <rect
       id="rect52"
       style="fill:#ffffff;stroke:#263238;stroke-linecap:round;stroke-linejoin:round"
       height="4.75"
       width="115.68"
       y="184.69"
       x="251.64" />
    <rect
       id="rect54"
       style="fill:#ffffff;stroke:#263238;stroke-linecap:round;stroke-linejoin:round"
       height="25.07"
       width="12.47"
       y="239.19"
       x="263.95001" />
    <rect
       id="rect56"
       style="fill:#ffffff;stroke:#263238;stroke-linecap:round;stroke-linejoin:round"
       height="11.86"
       width="12.47"
       y="252.39999"
       x="263.95001" />
    <line
       id="line58"
       style="fill:#ffffff;stroke:#263238;stroke-linecap:round;stroke-linejoin:round"
       y2="254.5"
       x2="276.29999"
       y1="254.5"
       x1="264.20001" />
    <line
       id="line60"
       style="fill:#ffffff;stroke:#263238;stroke-linecap:round;stroke-linejoin:round"
       y2="256.85001"
       x2="276.29999"
       y1="256.85001"
       x1="264.20001" />
    <line
       id="line62"
       style="fill:#ffffff;stroke:#263238;stroke-linecap:round;stroke-linejoin:round"
       y2="259.19"
       x2="276.29999"
       y1="259.19"
       x1="264.20001" />
    <line
       id="line64"
       style="fill:#ffffff;stroke:#263238;stroke-linecap:round;stroke-linejoin:round"
       y2="261.54001"
       x2="276.29999"
       y1="261.54001"
       x1="264.20001" />
    <path
       id="path66"
       style="fill:#ffffff;stroke:#263238;stroke-linecap:round;stroke-linejoin:round"
       d="m 262.87,257 h 6.39 v 7.29 h -12.47 v -1.2 a 6.08,6.08 0 0 1 6.08,-6.09 z" />
    <rect
       id="rect68"
       style="fill:#ffffff;stroke:#263238;stroke-linecap:round;stroke-linejoin:round"
       transform="rotate(180,288.96,251.72)"
       height="25.07"
       width="12.47"
       y="239.19"
       x="282.72" />
    <rect
       id="rect70"
       style="fill:#ffffff;stroke:#263238;stroke-linecap:round;stroke-linejoin:round"
       height="11.86"
       width="12.47"
       y="252.39999"
       x="282.72" />
    <line
       id="line72"
       style="fill:#ffffff;stroke:#263238;stroke-linecap:round;stroke-linejoin:round"
       y2="254.5"
       x2="282.85001"
       y1="254.5"
       x1="294.95001" />
    <line
       id="line74"
       style="fill:#ffffff;stroke:#263238;stroke-linecap:round;stroke-linejoin:round"
       y2="256.85001"
       x2="282.85001"
       y1="256.85001"
       x1="294.95001" />
    <line
       id="line76"
       style="fill:#ffffff;stroke:#263238;stroke-linecap:round;stroke-linejoin:round"
       y2="259.19"
       x2="282.85001"
       y1="259.19"
       x1="294.95001" />
    <line
       id="line78"
       style="fill:#ffffff;stroke:#263238;stroke-linecap:round;stroke-linejoin:round"
       y2="261.54001"
       x2="282.85001"
       y1="261.54001"
       x1="294.95001" />
    <path
       id="path80"
       style="fill:#ffffff;stroke:#263238;stroke-linecap:round;stroke-linejoin:round"
       transform="rotate(180,296.125,260.615)"
       d="m 289.89,257 h 12.47 v 7.29 H 296 a 6.08,6.08 0 0 1 -6.08,-6.08 V 257 Z" />
    <polygon
       id="polygon82"
       style="fill:#0d5f82;stroke:#263238;stroke-linecap:round;stroke-linejoin:round"
       points="294.18,235.98 264.08,235.98 264.08,241.57 276.33,250.55 282.51,250.55 294.18,241.96 " />
    <rect
       id="rect84"
       style="fill:#ffffff;stroke:#263238;stroke-linecap:round;stroke-linejoin:round"
       height="22.290001"
       width="30.01"
       y="213.69"
       x="264.07999" />
    <rect
       id="rect86"
       style="fill:#263238;stroke:#263238;stroke-linecap:round;stroke-linejoin:round"
       height="7.5300002"
       width="29.620001"
       y="228.91"
       x="264.56" />
    <path
       id="path88"
       style="fill:#ffffff;stroke:#263238;stroke-linecap:round;stroke-linejoin:round"
       d="m 259.07,217.74 c 0,0 -3.05,4.38 -3.05,8.09 v 21.95 a 1,1 0 0 0 1,1 h 7.83 a 1,1 0 0 0 1,-1 v 0 a 1,1 0 0 1 1,-1 H 268 a 1,1 0 0 0 1,-1 v -28.17 c 0,0 -6.88,-4.12 -9.93,0.13 z" />
    <rect
       id="rect90"
       style="fill:#263238;stroke:#263238;stroke-linecap:round;stroke-linejoin:round"
       height="8.3599997"
       width="13"
       y="232.59"
       x="256.01999" />
    <path
       id="path92"
       style="fill:#ffffff;stroke:#263238;stroke-linecap:round;stroke-linejoin:round"
       d="m 301.29,217.74 c 0,0 3,4.38 3,8.09 v 21.95 a 1,1 0 0 1 -1,1 h -7.83 a 1,1 0 0 1 -1,-1 v 0 a 1,1 0 0 0 -1,-1 h -1.2 a 1,1 0 0 1 -1,-1 v -28.17 c 0,0 6.97,-4.12 10.03,0.13 z" />
    <rect
       id="rect94"
       style="fill:#263238;stroke:#263238;stroke-linecap:round;stroke-linejoin:round"
       height="8.3599997"
       width="13"
       y="232.59"
       x="291.34" />
    <path
       id="path96"
       style="fill:#ffffff;stroke:#263238;stroke-linecap:round;stroke-linejoin:round"
       d="m 276.63,210.43 a 12.15,12.15 0 0 0 -11.42,0.53 c -5.87,3.52 -5.44,7.58 -4.48,9 0.96,1.42 3.09,1.6 5,0.75 1.91,-0.85 3,-4.16 6.94,-4.59 3.94,-0.43 6,-1.49 5.55,-4.05 -0.45,-2.56 -1.59,-1.64 -1.59,-1.64 z" />
    <path
       id="path98"
       style="fill:#ffffff;stroke:#263238;stroke-linecap:round;stroke-linejoin:round"
       d="m 283.9,210.43 a 12.15,12.15 0 0 1 11.42,0.53 c 5.87,3.52 5.44,7.58 4.48,9 -0.96,1.42 -3.09,1.6 -5,0.75 -1.91,-0.85 -3,-4.16 -6.94,-4.59 -3.94,-0.43 -6,-1.49 -5.55,-4.05 0.45,-2.56 1.59,-1.64 1.59,-1.64 z" />
    <path
       id="path100"
       style="fill:#ffffff;stroke:#263238;stroke-linecap:round;stroke-linejoin:round"
       d="m 282.71,200.16 h 5.39 l 1.38,-3.44 a 0.25,0.25 0 0 1 0.48,0.09 v 5.49 a 2.7,2.7 0 0 1 -2.7,2.7 h -4.55 z" />
    <path
       id="path102"
       style="fill:#ffffff;stroke:#263238;stroke-linecap:round;stroke-linejoin:round"
       d="m 277.76,200.16 h -5.39 L 271,196.72 a 0.25,0.25 0 0 0 -0.48,0.09 v 5.49 a 2.69,2.69 0 0 0 2.69,2.7 h 4.56 z" />
    <path
       id="path104"
       style="fill:#ffffff;stroke:#263238;stroke-linecap:round;stroke-linejoin:round"
       d="m 276.31,205.18 a 7.19,7.19 0 0 0 -0.55,2.79 c 0,3.19 2,5.77 4.38,5.77 2.38,0 4.37,-2.58 4.37,-5.77 a 7.19,7.19 0 0 0 -0.55,-2.79 z" />
    <path
       id="path106"
       style="fill:#263238;stroke:#263238;stroke-linecap:round;stroke-linejoin:round"
       d="m 276.31,205.18 c 0,0 0.58,-7.81 4.3,-7.62 3.72,0.19 3.35,7.62 3.35,7.62 z" />
    <path
       id="path108"
       style="fill:#0d5f82;stroke:#263238;stroke-linecap:round;stroke-linejoin:round"
       d="m 276.31,208.06 a 7.19,7.19 0 0 0 -0.55,2.79 c 0,3.19 2,5.77 4.38,5.77 2.38,0 4.37,-2.58 4.37,-5.77 a 7.19,7.19 0 0 0 -0.55,-2.79 z" />
    <rect
       id="rect110"
       style="fill:#ffffff;stroke:#263238;stroke-linecap:round;stroke-linejoin:round"
       height="4.3699999"
       width="1.92"
       y="205.09"
       x="279.07999" />
    <line
       id="line112"
       style="fill:#ffffff;stroke:#263238;stroke-linecap:round;stroke-linejoin:round"
       y2="228.74001"
       x2="280.14001"
       y1="216.62"
       x1="280.14001" />
    <rect
       id="rect114"
       style="fill:#ffffff;stroke:#263238;stroke-linecap:round;stroke-linejoin:round"
       height="81.809998"
       width="3.3499999"
       y="189.42999"
       x="335.57001" />
    <rect
       id="rect116"
       style="fill:#0d5f82;stroke:#263238;stroke-linecap:round;stroke-linejoin:round"
       height="5.9499998"
       width="5.9499998"
       y="192.99001"
       x="306.20999" />
    <rect
       id="rect118"
       style="fill:#263238;stroke:#263238;stroke-linecap:round;stroke-linejoin:round"
       height="5.9499998"
       width="5.9499998"
       y="201.17"
       x="306.20999" />
    <rect
       id="rect120"
       style="fill:#ffffff;stroke:#263238;stroke-linecap:round;stroke-linejoin:round"
       height="5.9499998"
       width="5.9499998"
       y="209.22"
       x="306.20999" />
    <path
       id="path122"
       style="fill:#0d5f82"
       d="m 342.9,195.37 h -1.53 A 0.37,0.37 0 0 1 341,195 a 0.38,0.38 0 0 1 0.37,-0.38 h 1.53 a 0.37,0.37 0 0 1 0.37,0.38 0.36,0.36 0 0 1 -0.37,0.37 z m 0.37,1.37 a 0.37,0.37 0 0 0 -0.37,-0.38 h -1.53 a 0.38,0.38 0 0 0 -0.37,0.38 0.37,0.37 0 0 0 0.37,0.37 h 1.53 a 0.36,0.36 0 0 0 0.37,-0.37 z m 0,1.74 a 0.37,0.37 0 0 0 -0.37,-0.38 h -1.53 a 0.38,0.38 0 0 0 0,0.76 h 1.53 a 0.37,0.37 0 0 0 0.37,-0.38 z m 0,1.74 a 0.37,0.37 0 0 0 -0.37,-0.38 h -1.53 a 0.38,0.38 0 0 0 0,0.76 h 1.53 a 0.37,0.37 0 0 0 0.37,-0.38 z m 0,1.74 a 0.36,0.36 0 0 0 -0.37,-0.37 h -1.53 a 0.37,0.37 0 0 0 -0.37,0.37 0.38,0.38 0 0 0 0.37,0.38 h 1.53 a 0.37,0.37 0 0 0 0.37,-0.34 z m 0,1.74 a 0.37,0.37 0 0 0 -0.37,-0.37 h -1.53 a 0.38,0.38 0 0 0 0,0.75 h 1.53 a 0.37,0.37 0 0 0 0.37,-0.38 z m 0,1.74 a 0.37,0.37 0 0 0 -0.37,-0.37 h -1.53 a 0.38,0.38 0 0 0 0,0.75 h 1.53 a 0.37,0.37 0 0 0 0.37,-0.38 z m 0,1.75 a 0.37,0.37 0 0 0 -0.37,-0.38 h -1.53 a 0.38,0.38 0 0 0 0,0.75 h 1.53 a 0.37,0.37 0 0 0 0.37,-0.37 z M 349,195 a 0.37,0.37 0 0 0 -0.37,-0.38 h -4 a 0.38,0.38 0 0 0 -0.38,0.38 0.37,0.37 0 0 0 0.38,0.37 h 4 A 0.36,0.36 0 0 0 349,195 Z m 0,1.74 a 0.37,0.37 0 0 0 -0.37,-0.38 h -4 a 0.38,0.38 0 0 0 -0.38,0.38 0.37,0.37 0 0 0 0.38,0.37 h 4 a 0.36,0.36 0 0 0 0.37,-0.37 z m 0,1.74 a 0.37,0.37 0 0 0 -0.37,-0.38 h -4 a 0.38,0.38 0 0 0 0,0.76 h 4 a 0.37,0.37 0 0 0 0.37,-0.38 z m 0,1.74 a 0.37,0.37 0 0 0 -0.37,-0.38 h -4 a 0.38,0.38 0 0 0 0,0.76 h 4 a 0.37,0.37 0 0 0 0.37,-0.38 z m 0,1.74 a 0.36,0.36 0 0 0 -0.37,-0.37 h -4 a 0.37,0.37 0 0 0 -0.38,0.37 0.38,0.38 0 0 0 0.38,0.38 h 4 A 0.37,0.37 0 0 0 349,202 Z m 4.79,1.74 a 0.38,0.38 0 0 0 -0.37,-0.37 h -4 a 0.38,0.38 0 1 0 0,0.75 h 4 a 0.38,0.38 0 0 0 0.34,-0.38 z m 0,1.74 a 0.38,0.38 0 0 0 -0.37,-0.37 h -4 a 0.38,0.38 0 1 0 0,0.75 h 4 a 0.38,0.38 0 0 0 0.34,-0.38 z m 0,1.75 a 0.38,0.38 0 0 0 -0.37,-0.38 h -4 a 0.38,0.38 0 1 0 0,0.75 h 4 a 0.38,0.38 0 0 0 0.34,-0.37 z m -3,-12.19 a 0.44,0.44 0 0 0 -0.43,-0.44 0.44,0.44 0 0 0 -0.44,0.44 0.44,0.44 0 0 0 0.44,0.43 0.43,0.43 0 0 0 0.37,-0.43 z m 1.31,0 a 0.44,0.44 0 0 0 -0.44,-0.44 0.44,0.44 0 0 0 -0.43,0.44 0.43,0.43 0 0 0 0.43,0.43 A 0.44,0.44 0 0 0 352,195 Z m 1.3,0 a 0.44,0.44 0 0 0 -0.43,-0.44 0.44,0.44 0 0 0 -0.44,0.44 0.44,0.44 0 0 0 0.44,0.43 0.43,0.43 0 0 0 0.37,-0.43 z m 1.31,0 a 0.44,0.44 0 1 0 -0.87,0 0.44,0.44 0 0 0 0.87,0 z m 1.31,0 a 0.44,0.44 0 0 0 -0.44,-0.44 0.44,0.44 0 0 0 -0.43,0.44 0.43,0.43 0 0 0 0.43,0.43 A 0.44,0.44 0 0 0 356,195 Z m 1.3,0 a 0.44,0.44 0 0 0 -0.43,-0.44 0.44,0.44 0 0 0 -0.44,0.44 0.44,0.44 0 0 0 0.44,0.43 0.43,0.43 0 0 0 0.37,-0.43 z m -6.53,3.48 a 0.44,0.44 0 0 0 -0.43,-0.44 0.44,0.44 0 0 0 -0.44,0.44 0.44,0.44 0 0 0 0.44,0.43 0.43,0.43 0 0 0 0.37,-0.43 z m 1.31,0 a 0.44,0.44 0 0 0 -0.44,-0.44 0.44,0.44 0 0 0 -0.43,0.44 0.43,0.43 0 0 0 0.43,0.43 0.44,0.44 0 0 0 0.34,-0.43 z m 1.3,0 a 0.44,0.44 0 0 0 -0.43,-0.44 0.44,0.44 0 0 0 -0.44,0.44 0.44,0.44 0 0 0 0.44,0.43 0.43,0.43 0 0 0 0.37,-0.43 z m 1.31,0 a 0.44,0.44 0 1 0 -0.87,0 0.44,0.44 0 0 0 0.87,0 z m 1.31,0 a 0.44,0.44 0 0 0 -0.44,-0.44 0.44,0.44 0 0 0 -0.43,0.44 0.43,0.43 0 0 0 0.43,0.43 0.44,0.44 0 0 0 0.42,-0.43 z m 1.3,0 a 0.44,0.44 0 0 0 -0.43,-0.44 0.44,0.44 0 0 0 -0.44,0.44 0.44,0.44 0 0 0 0.44,0.43 0.43,0.43 0 0 0 0.37,-0.43 z m -2.07,5 a 0.43,0.43 0 0 0 -0.43,-0.44 0.44,0.44 0 1 0 0,0.87 0.43,0.43 0 0 0 0.37,-0.42 z m 1.31,0 a 0.44,0.44 0 1 0 -0.43,0.43 0.43,0.43 0 0 0 0.37,-0.42 z m 1.31,0 a 0.44,0.44 0 0 0 -0.44,-0.44 0.44,0.44 0 0 0 0,0.87 0.44,0.44 0 0 0 0.38,-0.42 z m 1.3,0 a 0.43,0.43 0 0 0 -0.43,-0.44 0.44,0.44 0 1 0 0,0.87 0.43,0.43 0 0 0 0.37,-0.42 z m 1.31,0 a 0.44,0.44 0 0 0 -0.44,-0.44 0.44,0.44 0 0 0 0,0.87 0.44,0.44 0 0 0 0.38,-0.42 z m 1.3,0 a 0.43,0.43 0 0 0 -0.43,-0.44 0.44,0.44 0 1 0 0,0.87 0.43,0.43 0 0 0 0.37,-0.42 z m -6.53,3.59 a 0.44,0.44 0 0 0 -0.43,-0.44 0.44,0.44 0 0 0 -0.44,0.44 0.44,0.44 0 0 0 0.44,0.43 0.43,0.43 0 0 0 0.37,-0.42 z m 1.31,0 a 0.44,0.44 0 1 0 -0.87,0 0.44,0.44 0 0 0 0.87,0 z m 1.31,0 a 0.44,0.44 0 0 0 -0.44,-0.44 0.44,0.44 0 0 0 -0.43,0.44 0.43,0.43 0 0 0 0.43,0.43 0.44,0.44 0 0 0 0.38,-0.42 z m 1.3,0 a 0.44,0.44 0 0 0 -0.43,-0.44 0.44,0.44 0 0 0 -0.44,0.44 0.44,0.44 0 0 0 0.44,0.43 0.43,0.43 0 0 0 0.37,-0.42 z m 1.31,0 a 0.44,0.44 0 0 0 -0.44,-0.44 0.44,0.44 0 0 0 -0.43,0.44 0.43,0.43 0 0 0 0.43,0.43 0.44,0.44 0 0 0 0.38,-0.42 z m 1.3,0 a 0.44,0.44 0 0 0 -0.43,-0.44 0.44,0.44 0 0 0 -0.44,0.44 0.44,0.44 0 0 0 0.44,0.43 0.43,0.43 0 0 0 0.37,-0.42 z" />
    <path
       id="path124"
       style="fill:#0d5f82"
       d="m 342.9,209.64 h -1.53 a 0.38,0.38 0 0 1 0,-0.75 h 1.53 a 0.38,0.38 0 0 1 0,0.75 z m 0.37,1.37 a 0.37,0.37 0 0 0 -0.37,-0.38 h -1.53 a 0.38,0.38 0 0 0 0,0.75 h 1.53 a 0.37,0.37 0 0 0 0.37,-0.38 z m 0,1.74 a 0.37,0.37 0 0 0 -0.37,-0.38 h -1.53 a 0.38,0.38 0 0 0 -0.37,0.38 0.37,0.37 0 0 0 0.37,0.37 h 1.53 a 0.36,0.36 0 0 0 0.37,-0.37 z m 0,1.74 a 0.37,0.37 0 0 0 -0.37,-0.38 h -1.53 a 0.38,0.38 0 0 0 -0.37,0.38 0.37,0.37 0 0 0 0.37,0.37 h 1.53 a 0.36,0.36 0 0 0 0.37,-0.37 z m 0,1.74 a 0.37,0.37 0 0 0 -0.37,-0.38 h -1.53 a 0.38,0.38 0 0 0 0,0.76 h 1.53 a 0.37,0.37 0 0 0 0.37,-0.38 z m 0,1.74 a 0.36,0.36 0 0 0 -0.37,-0.37 h -1.53 a 0.37,0.37 0 0 0 -0.37,0.37 0.38,0.38 0 0 0 0.37,0.38 h 1.53 a 0.37,0.37 0 0 0 0.37,-0.35 z m 0,1.74 a 0.36,0.36 0 0 0 -0.37,-0.37 h -1.53 a 0.37,0.37 0 0 0 -0.37,0.37 0.38,0.38 0 0 0 0.37,0.38 h 1.53 a 0.37,0.37 0 0 0 0.37,-0.38 z m 0,1.74 a 0.37,0.37 0 0 0 -0.37,-0.37 h -1.53 a 0.38,0.38 0 0 0 0,0.75 h 1.53 a 0.37,0.37 0 0 0 0.37,-0.38 z m 5.7,-12.18 a 0.37,0.37 0 0 0 -0.37,-0.38 h -4 a 0.38,0.38 0 1 0 0,0.75 h 4 a 0.37,0.37 0 0 0 0.4,-0.37 z m 0,1.74 a 0.37,0.37 0 0 0 -0.37,-0.38 h -4 a 0.38,0.38 0 1 0 0,0.75 h 4 A 0.37,0.37 0 0 0 349,211 Z m 0,1.74 a 0.37,0.37 0 0 0 -0.37,-0.38 h -4 a 0.38,0.38 0 0 0 -0.38,0.38 0.37,0.37 0 0 0 0.38,0.37 h 4 a 0.36,0.36 0 0 0 0.4,-0.37 z m 0,1.74 a 0.37,0.37 0 0 0 -0.37,-0.38 h -4 a 0.38,0.38 0 0 0 -0.38,0.38 0.37,0.37 0 0 0 0.38,0.37 h 4 a 0.36,0.36 0 0 0 0.4,-0.37 z m 0,1.74 a 0.37,0.37 0 0 0 -0.37,-0.38 h -4 a 0.38,0.38 0 0 0 0,0.76 h 4 a 0.37,0.37 0 0 0 0.4,-0.38 z m 4.79,1.74 a 0.37,0.37 0 0 0 -0.37,-0.37 h -4 a 0.37,0.37 0 0 0 -0.38,0.37 0.38,0.38 0 0 0 0.38,0.38 h 4 a 0.38,0.38 0 0 0 0.37,-0.35 z m 0,1.74 a 0.37,0.37 0 0 0 -0.37,-0.37 h -4 a 0.37,0.37 0 0 0 -0.38,0.37 0.38,0.38 0 0 0 0.38,0.38 h 4 a 0.38,0.38 0 0 0 0.37,-0.38 z m 0,1.74 a 0.38,0.38 0 0 0 -0.37,-0.37 h -4 a 0.38,0.38 0 1 0 0,0.75 h 4 a 0.38,0.38 0 0 0 0.37,-0.38 z m -3,-12.18 a 0.44,0.44 0 0 0 -0.43,-0.44 0.44,0.44 0 0 0 -0.44,0.44 0.44,0.44 0 0 0 0.44,0.43 0.43,0.43 0 0 0 0.4,-0.43 z m 1.31,0 a 0.44,0.44 0 0 0 -0.44,-0.44 0.44,0.44 0 0 0 -0.43,0.44 0.43,0.43 0 0 0 0.43,0.43 0.44,0.44 0 0 0 0.37,-0.43 z m 1.3,0 a 0.44,0.44 0 0 0 -0.43,-0.44 0.44,0.44 0 0 0 -0.44,0.44 0.44,0.44 0 0 0 0.44,0.43 0.43,0.43 0 0 0 0.4,-0.43 z m 1.31,0 a 0.44,0.44 0 1 0 -0.87,0 0.44,0.44 0 0 0 0.87,0 z m 1.31,0 a 0.44,0.44 0 0 0 -0.44,-0.44 0.44,0.44 0 0 0 -0.43,0.44 0.43,0.43 0 0 0 0.43,0.43 0.44,0.44 0 0 0 0.45,-0.43 z m 1.3,0 a 0.44,0.44 0 0 0 -0.43,-0.44 0.44,0.44 0 0 0 -0.44,0.44 0.44,0.44 0 0 0 0.44,0.43 0.43,0.43 0 0 0 0.4,-0.43 z m -6.53,3.48 a 0.44,0.44 0 0 0 -0.43,-0.44 0.44,0.44 0 0 0 -0.44,0.44 0.44,0.44 0 0 0 0.44,0.43 0.43,0.43 0 0 0 0.4,-0.43 z m 1.31,0 a 0.44,0.44 0 0 0 -0.44,-0.44 0.44,0.44 0 0 0 -0.43,0.44 0.43,0.43 0 0 0 0.43,0.43 0.44,0.44 0 0 0 0.37,-0.43 z m 1.3,0 a 0.44,0.44 0 0 0 -0.43,-0.44 0.44,0.44 0 0 0 -0.44,0.44 0.44,0.44 0 0 0 0.44,0.43 0.43,0.43 0 0 0 0.4,-0.43 z m 1.31,0 a 0.44,0.44 0 1 0 -0.87,0 0.44,0.44 0 0 0 0.87,0 z m 1.31,0 a 0.44,0.44 0 0 0 -0.44,-0.44 0.44,0.44 0 0 0 -0.43,0.44 0.43,0.43 0 0 0 0.43,0.43 0.44,0.44 0 0 0 0.45,-0.43 z m 1.3,0 a 0.44,0.44 0 0 0 -0.43,-0.44 0.44,0.44 0 0 0 -0.44,0.44 0.44,0.44 0 0 0 0.44,0.43 0.43,0.43 0 0 0 0.4,-0.43 z m -2.07,5 a 0.43,0.43 0 0 0 -0.43,-0.43 0.44,0.44 0 0 0 -0.44,0.43 0.44,0.44 0 0 0 0.44,0.44 0.44,0.44 0 0 0 0.4,-0.44 z m 1.31,0 a 0.44,0.44 0 0 0 -0.87,0 0.44,0.44 0 1 0 0.87,0 z m 1.31,0 a 0.44,0.44 0 0 0 -0.44,-0.43 0.43,0.43 0 0 0 -0.43,0.43 0.44,0.44 0 0 0 0.43,0.44 0.44,0.44 0 0 0 0.41,-0.44 z m 1.3,0 a 0.43,0.43 0 0 0 -0.43,-0.43 0.44,0.44 0 0 0 -0.44,0.43 0.44,0.44 0 0 0 0.44,0.44 0.44,0.44 0 0 0 0.4,-0.44 z m 1.31,0 a 0.44,0.44 0 0 0 -0.44,-0.43 0.43,0.43 0 0 0 -0.43,0.43 0.44,0.44 0 0 0 0.43,0.44 0.44,0.44 0 0 0 0.41,-0.44 z m 1.3,0 a 0.43,0.43 0 0 0 -0.43,-0.43 0.44,0.44 0 0 0 -0.44,0.43 0.44,0.44 0 0 0 0.44,0.44 0.44,0.44 0 0 0 0.4,-0.44 z m -6.53,3.59 a 0.43,0.43 0 0 0 -0.43,-0.43 0.44,0.44 0 1 0 0,0.87 0.43,0.43 0 0 0 0.4,-0.44 z m 1.31,0 a 0.44,0.44 0 0 0 -0.87,0 0.44,0.44 0 1 0 0.87,0 z m 1.31,0 a 0.44,0.44 0 0 0 -0.44,-0.43 0.44,0.44 0 0 0 0,0.87 0.44,0.44 0 0 0 0.41,-0.44 z m 1.3,0 a 0.43,0.43 0 0 0 -0.43,-0.43 0.44,0.44 0 1 0 0,0.87 0.43,0.43 0 0 0 0.4,-0.44 z m 1.31,0 a 0.44,0.44 0 0 0 -0.44,-0.43 0.44,0.44 0 0 0 0,0.87 0.44,0.44 0 0 0 0.41,-0.44 z m 1.3,0 a 0.43,0.43 0 0 0 -0.43,-0.43 0.44,0.44 0 1 0 0,0.87 0.43,0.43 0 0 0 0.4,-0.44 z" />
    <rect
       id="rect126"
       style="fill:#ffffff;stroke:#263238;stroke-linecap:round;stroke-linejoin:round"
       height="13.71"
       width="21.620001"
       y="219.77"
       x="310.95999" />
    <path
       id="path128"
       style="fill:#0d5f82;stroke:#263238;stroke-linecap:round;stroke-linejoin:round"
       d="m 321.65,252.31 v 0 a 1.63,1.63 0 0 1 -1.63,-1.63 v -30.91 h 3.26 v 30.91 a 1.63,1.63 0 0 1 -1.63,1.63 z" />
    <polyline
       id="polyline130"
       style="fill:none;stroke:#263238;stroke-linecap:round;stroke-linejoin:round"
       points="320.26 235.12 322.81 235.12 320.26 238.14 323.28 238.14 320.26 241.39 323.28 241.39 320.26 244.41 323.05 244.41 320.02 247.2 322.58 247.2 320.02 249.87 323.28 249.87" />
    <rect
       id="rect132"
       style="fill:#ffffff;stroke:#263238;stroke-linecap:round;stroke-linejoin:round"
       height="13.71"
       width="12.78"
       y="219.77"
       x="315.37" />
    <rect
       id="rect134"
       style="fill:#263238;stroke:#263238;stroke-linecap:round;stroke-linejoin:round"
       height="25.690001"
       width="12.56"
       y="274.59"
       x="300.01999" />
    <polygon
       id="polygon136"
       style="fill:#263238;stroke:#263238;stroke-linecap:round;stroke-linejoin:round"
       points="352.96,298.72 365.79,280.48 376.62,298.72 " />
    <polygon
       id="polygon138"
       style="fill:#263238;stroke:#263238;stroke-linecap:round;stroke-linejoin:round"
       points="311.29,263.66 290.89,299.29 356.45,299.29 376.84,263.66 " />
    <polygon
       id="polygon140"
       style="fill:#ffffff;stroke:#263238;stroke-linecap:round;stroke-linejoin:round"
       points="316.51,267.37 300.51,295.3 351.39,295.3 367.38,267.37 " />
    <polygon
       id="polygon142"
       style="fill:#ffffff;stroke:#263238;stroke-linecap:round;stroke-linejoin:round"
       points="342.14,283.41 319.32,283.41 312.68,295.01 335.5,295.01 " />
    <polygon
       id="polygon144"
       style="fill:#ffffff;stroke:#263238;stroke-linecap:round;stroke-linejoin:round"
       points="335.59,294.98 313.06,294.98 313.04,295.01 335.57,295.01 " />
    <path
       id="path146"
       style="fill:#ffffff;stroke:#263238;stroke-linecap:round;stroke-linejoin:round"
       d="m 316.43,295 4.94,-8.63 a 5.88,5.88 0 0 0 -7.62,0.1 c 0,0 -4.23,3.33 -5.85,6.16 l -1.36,2.37 z" />
    <path
       id="path148"
       style="fill:#ffffff;stroke:#263238;stroke-linecap:round;stroke-linejoin:round"
       d="m 343.29,295 1.36,-2.37 a 11.12,11.12 0 0 0 1.21,-6.16 c -0.48,-3.22 -7.51,-0.1 -7.51,-0.1 l -4.94,8.63 z" />
    <path
       id="path150"
       style="fill:#ffffff;stroke:#263238;stroke-linecap:round;stroke-linejoin:round"
       d="m 330.28,280.92 c 0,0 -2.91,-2.27 -8.91,0.41 -6,2.68 -7.44,5.76 -7.31,6.82 0.13,1.06 1.66,1.21 3.49,0.56 1.83,-0.65 4.08,-3.16 7.27,-3.49 3.19,-0.33 5.2,-1.13 6,-3.08 0.8,-1.95 -0.54,-1.22 -0.54,-1.22 z" />
    <path
       id="path152"
       style="fill:#ffffff;stroke:#263238;stroke-linecap:round;stroke-linejoin:round"
       d="m 335.82,280.92 c 0,0 5.52,-2.27 8.45,0.41 2.93,2.68 0.84,5.76 -0.49,6.82 a 3.81,3.81 0 0 1 -4.14,0.56 c -1.09,-0.65 -0.46,-3.16 -3.28,-3.49 -2.82,-0.33 -3.89,-1.13 -2.46,-3.08 1.43,-1.95 1.92,-1.22 1.92,-1.22 z" />
    <path
       id="path154"
       style="fill:#ffffff;stroke:#263238;stroke-linecap:round;stroke-linejoin:round"
       d="m 339.38,273.12 h 4.1 L 346,270.5 c 0.19,-0.2 0.44,-0.14 0.32,0.07 l -2.32,4.17 a 4.19,4.19 0 0 1 -3.22,2.05 h -3.47 z" />
    <path
       id="path156"
       style="fill:#ffffff;stroke:#263238;stroke-linecap:round;stroke-linejoin:round"
       d="m 335.62,273.12 h -4.11 l 0.46,-2.62 c 0,-0.2 -0.29,-0.14 -0.41,0.07 l -2.39,4.17 c -0.65,1.14 -0.26,2.05 0.88,2.05 h 3.46 z" />
    <path
       id="path158"
       style="fill:#ffffff;stroke:#263238;stroke-linecap:round;stroke-linejoin:round"
       d="m 332.33,276.94 a 9.89,9.89 0 0 0 -1.63,2.12 c -1.39,2.42 -1,4.38 0.81,4.38 1.81,0 4.45,-2 5.84,-4.38 a 6.46,6.46 0 0 0 0.8,-2.12 z" />
    <path
       id="path160"
       style="fill:#ffffff;stroke:#263238;stroke-linecap:round;stroke-linejoin:round"
       d="m 332.33,276.94 c 0,0 3.84,-5.95 6.59,-5.8 2.75,0.15 -0.77,5.8 -0.77,5.8 z" />
    <path
       id="path162"
       style="fill:#ffffff;stroke:#263238;stroke-linecap:round;stroke-linejoin:round"
       d="m 331.07,279.13 a 10.5,10.5 0 0 0 -1.63,2.12 c -1.38,2.42 -1,4.38 0.82,4.38 1.82,0 4.45,-2 5.83,-4.38 a 6.16,6.16 0 0 0 0.8,-2.12 z" />
    <polygon
       id="polygon164"
       style="fill:#ffffff;stroke:#263238;stroke-linecap:round;stroke-linejoin:round"
       points="332.57,280.19 334.47,276.87 335.94,276.87 334.03,280.19 " />
    <path
       id="path166"
       style="fill:#ffffff;stroke:#263238;stroke-linecap:round;stroke-linejoin:round"
       d="m 330.26,285.63 q -2.31,4 -4.61,8.06" />
    <rect
       id="rect168"
       style="fill:#263238;stroke:#263238;stroke-linecap:round;stroke-linejoin:round"
       height="20.25"
       width="9.6099997"
       y="273.92999"
       x="175.52" />
    <rect
       id="rect170"
       style="fill:#ffffff;stroke:#263238;stroke-linecap:round;stroke-linejoin:round"
       height="97.610001"
       width="121.21"
       y="181.13"
       x="121.45" />
    <rect
       id="rect172"
       style="fill:#263238;stroke:#263238;stroke-linecap:round;stroke-linejoin:round"
       height="84.669998"
       width="108.25"
       y="186.21001"
       x="127.93" />
    <path
       id="path174"
       style="fill:#0d5f82"
       d="m 193.07,192 h -2.79 a 0.69,0.69 0 0 1 0,-1.38 h 2.79 a 0.69,0.69 0 0 1 0,1.38 z m 0.68,2.5 a 0.68,0.68 0 0 0 -0.68,-0.69 h -2.79 a 0.69,0.69 0 0 0 0,1.38 h 2.79 a 0.68,0.68 0 0 0 0.68,-0.66 z m 0,3.19 A 0.68,0.68 0 0 0 193.07,197 h -2.79 a 0.69,0.69 0 0 0 0,1.38 h 2.79 a 0.68,0.68 0 0 0 0.68,-0.66 z m 0,3.19 a 0.68,0.68 0 0 0 -0.68,-0.69 h -2.79 a 0.69,0.69 0 0 0 0,1.38 h 2.79 a 0.68,0.68 0 0 0 0.68,-0.66 z m 0,3.19 a 0.68,0.68 0 0 0 -0.68,-0.69 h -2.79 a 0.69,0.69 0 0 0 -0.69,0.69 0.68,0.68 0 0 0 0.69,0.68 h 2.79 a 0.67,0.67 0 0 0 0.68,-0.65 z m 0,3.19 a 0.68,0.68 0 0 0 -0.68,-0.69 h -2.79 a 0.69,0.69 0 0 0 -0.69,0.69 0.68,0.68 0 0 0 0.69,0.68 h 2.79 a 0.67,0.67 0 0 0 0.68,-0.65 z m 0,3.18 a 0.67,0.67 0 0 0 -0.68,-0.68 h -2.79 a 0.69,0.69 0 1 0 0,1.37 h 2.79 a 0.68,0.68 0 0 0 0.68,-0.66 z m 0,3.19 a 0.67,0.67 0 0 0 -0.68,-0.68 h -2.79 a 0.68,0.68 0 0 0 -0.69,0.68 0.69,0.69 0 0 0 0.69,0.69 h 2.79 a 0.68,0.68 0 0 0 0.68,-0.66 z m 10.44,-22.32 a 0.69,0.69 0 0 0 -0.69,-0.69 h -7.32 a 0.69,0.69 0 0 0 0,1.38 h 7.32 a 0.69,0.69 0 0 0 0.69,-0.66 z m 0,3.19 a 0.69,0.69 0 0 0 -0.69,-0.69 h -7.32 a 0.69,0.69 0 0 0 0,1.38 h 7.32 a 0.69,0.69 0 0 0 0.69,-0.66 z m 0,3.19 A 0.69,0.69 0 0 0 203.5,197 h -7.32 a 0.69,0.69 0 0 0 0,1.38 h 7.32 a 0.69,0.69 0 0 0 0.69,-0.66 z m 0,3.19 a 0.69,0.69 0 0 0 -0.69,-0.69 h -7.32 a 0.69,0.69 0 0 0 0,1.38 h 7.32 a 0.69,0.69 0 0 0 0.69,-0.66 z m 0,3.19 a 0.69,0.69 0 0 0 -0.69,-0.69 h -7.32 a 0.69,0.69 0 0 0 -0.69,0.69 0.68,0.68 0 0 0 0.69,0.68 h 7.32 a 0.68,0.68 0 0 0 0.69,-0.65 z m 8.77,3.19 a 0.69,0.69 0 0 0 -0.69,-0.69 H 205 a 0.69,0.69 0 0 0 -0.69,0.69 0.68,0.68 0 0 0 0.69,0.68 h 7.32 a 0.68,0.68 0 0 0 0.68,-0.65 z m 0,3.18 a 0.68,0.68 0 0 0 -0.69,-0.68 H 205 a 0.69,0.69 0 1 0 0,1.37 h 7.32 a 0.69,0.69 0 0 0 0.68,-0.66 z m 0,3.19 a 0.68,0.68 0 0 0 -0.69,-0.68 H 205 a 0.68,0.68 0 0 0 -0.69,0.68 0.69,0.69 0 0 0 0.69,0.69 h 7.32 a 0.69,0.69 0 0 0 0.68,-0.66 z m -5.54,-22.32 a 0.8,0.8 0 0 0 -1.6,0 0.8,0.8 0 0 0 1.6,0 z m 2.39,0 a 0.8,0.8 0 0 0 -1.6,0 0.8,0.8 0 0 0 1.6,0 z m 2.39,0 a 0.8,0.8 0 0 0 -1.6,0 0.8,0.8 0 0 0 1.6,0 z m 2.39,0 a 0.79,0.79 0 0 0 -0.8,-0.79 0.79,0.79 0 0 0 -0.79,0.79 0.79,0.79 0 0 0 0.79,0.8 0.8,0.8 0 0 0 0.8,-0.77 z m 2.39,0 a 0.8,0.8 0 1 0 -0.8,0.8 0.8,0.8 0 0 0 0.82,-0.77 z m 2.39,0 a 0.79,0.79 0 0 0 -0.79,-0.79 0.79,0.79 0 0 0 -0.8,0.79 0.8,0.8 0 0 0 0.8,0.8 0.79,0.79 0 0 0 0.79,-0.77 z m -12,6.38 a 0.8,0.8 0 1 0 -0.8,0.8 0.8,0.8 0 0 0 0.85,-0.77 z m 2.39,0 a 0.8,0.8 0 1 0 -0.8,0.8 0.8,0.8 0 0 0 0.85,-0.77 z m 2.39,0 a 0.8,0.8 0 1 0 -0.8,0.8 0.8,0.8 0 0 0 0.85,-0.77 z m 2.39,0 a 0.8,0.8 0 0 0 -0.8,-0.8 0.8,0.8 0 0 0 0,1.6 0.8,0.8 0 0 0 0.85,-0.77 z m 2.39,0 a 0.8,0.8 0 1 0 -0.8,0.8 0.8,0.8 0 0 0 0.87,-0.77 z m 2.39,0 a 0.79,0.79 0 0 0 -0.79,-0.8 0.8,0.8 0 0 0 0,1.6 0.79,0.79 0 0 0 0.84,-0.77 z m -3.78,9.17 a 0.8,0.8 0 1 0 -1.6,0 0.8,0.8 0 0 0 1.6,0 z m 2.39,0 a 0.8,0.8 0 0 0 -1.6,0 0.8,0.8 0 0 0 1.6,0 z m 2.39,0 a 0.8,0.8 0 0 0 -0.8,-0.8 0.79,0.79 0 0 0 -0.79,0.8 0.79,0.79 0 0 0 0.79,0.79 0.79,0.79 0 0 0 0.85,-0.76 z m 2.39,0 a 0.8,0.8 0 0 0 -0.8,-0.8 0.79,0.79 0 0 0 -0.79,0.8 0.79,0.79 0 0 0 0.79,0.79 0.79,0.79 0 0 0 0.85,-0.76 z m 2.39,0 a 0.79,0.79 0 0 0 -0.79,-0.8 0.8,0.8 0 0 0 -0.8,0.8 0.79,0.79 0 0 0 0.8,0.79 0.79,0.79 0 0 0 0.84,-0.76 z m 2.4,0 a 0.8,0.8 0 1 0 -1.6,0 0.8,0.8 0 0 0 1.6,0 z m -12,6.57 a 0.8,0.8 0 0 0 -1.6,0 0.8,0.8 0 0 0 1.6,0 z m 2.39,0 a 0.8,0.8 0 0 0 -1.6,0 0.8,0.8 0 0 0 1.6,0 z m 2.39,0 a 0.79,0.79 0 0 0 -0.8,-0.79 0.79,0.79 0 0 0 -0.79,0.79 0.79,0.79 0 0 0 0.79,0.8 0.8,0.8 0 0 0 0.89,-0.77 z m 2.39,0 a 0.79,0.79 0 0 0 -0.8,-0.79 0.79,0.79 0 0 0 -0.79,0.79 0.79,0.79 0 0 0 0.79,0.8 0.8,0.8 0 0 0 0.89,-0.77 z m 2.39,0 a 0.79,0.79 0 0 0 -0.79,-0.79 0.79,0.79 0 0 0 -0.8,0.79 0.8,0.8 0 0 0 0.8,0.8 0.79,0.79 0 0 0 0.88,-0.77 z m 2.4,0 a 0.8,0.8 0 0 0 -1.6,0 0.8,0.8 0 0 0 1.6,0 z" />
    <path
       id="path176"
       style="fill:#0d5f82"
       d="m 193.07,217.55 h -2.79 a 0.69,0.69 0 0 1 0,-1.38 h 2.79 a 0.69,0.69 0 0 1 0,1.38 z m 0.68,2.5 a 0.68,0.68 0 0 0 -0.68,-0.69 h -2.79 a 0.69,0.69 0 0 0 0,1.38 h 2.79 a 0.68,0.68 0 0 0 0.68,-0.69 z m 0,3.19 a 0.68,0.68 0 0 0 -0.68,-0.69 h -2.79 a 0.69,0.69 0 0 0 -0.69,0.69 0.68,0.68 0 0 0 0.69,0.68 h 2.79 a 0.67,0.67 0 0 0 0.68,-0.68 z m 0,3.18 a 0.67,0.67 0 0 0 -0.68,-0.68 h -2.79 a 0.69,0.69 0 1 0 0,1.37 h 2.79 a 0.68,0.68 0 0 0 0.68,-0.69 z m 0,3.19 a 0.67,0.67 0 0 0 -0.68,-0.68 h -2.79 a 0.68,0.68 0 0 0 -0.69,0.68 0.69,0.69 0 0 0 0.69,0.69 h 2.79 a 0.68,0.68 0 0 0 0.68,-0.69 z m 0,3.19 a 0.68,0.68 0 0 0 -0.68,-0.69 h -2.79 a 0.69,0.69 0 0 0 0,1.38 h 2.79 a 0.68,0.68 0 0 0 0.68,-0.69 z m 0,3.19 a 0.68,0.68 0 0 0 -0.68,-0.69 h -2.79 a 0.69,0.69 0 1 0 0,1.38 h 2.79 a 0.68,0.68 0 0 0 0.68,-0.68 z m 0,3.19 a 0.68,0.68 0 0 0 -0.68,-0.69 h -2.79 a 0.69,0.69 0 0 0 0,1.38 h 2.79 a 0.68,0.68 0 0 0 0.68,-0.69 z m 10.44,-22.32 a 0.69,0.69 0 0 0 -0.69,-0.69 h -7.32 a 0.69,0.69 0 0 0 0,1.38 h 7.32 a 0.69,0.69 0 0 0 0.69,-0.69 z m 0,3.19 a 0.69,0.69 0 0 0 -0.69,-0.69 h -7.32 a 0.69,0.69 0 0 0 0,1.38 h 7.32 a 0.69,0.69 0 0 0 0.69,-0.69 z m 0,3.19 a 0.69,0.69 0 0 0 -0.69,-0.69 h -7.32 a 0.69,0.69 0 0 0 -0.69,0.69 0.68,0.68 0 0 0 0.69,0.68 h 7.32 a 0.68,0.68 0 0 0 0.69,-0.68 z m 0,3.18 a 0.68,0.68 0 0 0 -0.69,-0.68 h -7.32 a 0.69,0.69 0 1 0 0,1.37 h 7.32 a 0.69,0.69 0 0 0 0.69,-0.69 z m 0,3.19 a 0.68,0.68 0 0 0 -0.69,-0.68 h -7.32 a 0.68,0.68 0 0 0 -0.69,0.68 0.69,0.69 0 0 0 0.69,0.69 h 7.32 a 0.69,0.69 0 0 0 0.69,-0.69 z m 8.81,3.19 a 0.69,0.69 0 0 0 -0.69,-0.69 H 205 a 0.69,0.69 0 0 0 0,1.38 h 7.32 A 0.69,0.69 0 0 0 213,232.8 Z m 0,3.19 a 0.69,0.69 0 0 0 -0.69,-0.69 H 205 a 0.69,0.69 0 0 0 0,1.38 h 7.32 A 0.69,0.69 0 0 0 213,236 Z m 0,3.19 a 0.69,0.69 0 0 0 -0.69,-0.69 H 205 a 0.69,0.69 0 0 0 0,1.38 h 7.32 a 0.69,0.69 0 0 0 0.68,-0.69 z m -5.54,-22.32 a 0.8,0.8 0 1 0 -0.8,0.8 0.8,0.8 0 0 0 0.76,-0.8 z m 2.39,0 a 0.8,0.8 0 1 0 -0.8,0.8 0.8,0.8 0 0 0 0.76,-0.8 z m 2.39,0 a 0.8,0.8 0 1 0 -0.8,0.8 0.8,0.8 0 0 0 0.76,-0.8 z m 2.39,0 a 0.8,0.8 0 0 0 -0.8,-0.8 0.8,0.8 0 0 0 0,1.6 0.8,0.8 0 0 0 0.76,-0.8 z m 2.39,0 a 0.8,0.8 0 1 0 -0.8,0.8 0.8,0.8 0 0 0 0.78,-0.8 z m 2.39,0 a 0.79,0.79 0 0 0 -0.79,-0.8 0.8,0.8 0 1 0 0,1.6 0.79,0.79 0 0 0 0.75,-0.8 z m -12,6.38 a 0.8,0.8 0 0 0 -1.6,0 0.8,0.8 0 0 0 1.6,0 z m 2.39,0 a 0.8,0.8 0 0 0 -1.6,0 0.8,0.8 0 0 0 1.6,0 z m 2.39,0 a 0.8,0.8 0 0 0 -1.6,0 0.8,0.8 0 0 0 1.6,0 z m 2.39,0 a 0.8,0.8 0 0 0 -0.8,-0.8 0.79,0.79 0 0 0 -0.79,0.8 0.79,0.79 0 0 0 0.79,0.79 0.79,0.79 0 0 0 0.81,-0.79 z m 2.39,0 a 0.8,0.8 0 1 0 -1.59,0 0.8,0.8 0 0 0 1.59,0 z m 2.39,0 a 0.79,0.79 0 0 0 -0.79,-0.8 0.8,0.8 0 0 0 -0.8,0.8 0.79,0.79 0 0 0 0.8,0.79 0.79,0.79 0 0 0 0.8,-0.79 z m -3.78,9.16 a 0.8,0.8 0 0 0 -1.6,0 0.8,0.8 0 0 0 1.6,0 z m 2.39,0 a 0.8,0.8 0 0 0 -1.6,0 0.8,0.8 0 0 0 1.6,0 z m 2.39,0 a 0.79,0.79 0 0 0 -0.8,-0.79 0.79,0.79 0 0 0 -0.79,0.79 0.79,0.79 0 0 0 0.79,0.8 0.8,0.8 0 0 0 0.81,-0.8 z m 2.39,0 a 0.79,0.79 0 0 0 -0.8,-0.79 0.79,0.79 0 0 0 -0.79,0.79 0.79,0.79 0 0 0 0.79,0.8 0.8,0.8 0 0 0 0.81,-0.8 z m 2.39,0 a 0.79,0.79 0 0 0 -0.79,-0.79 0.79,0.79 0 0 0 -0.8,0.79 0.8,0.8 0 0 0 0.8,0.8 0.79,0.79 0 0 0 0.8,-0.8 z m 2.4,0 a 0.8,0.8 0 0 0 -1.6,0 0.8,0.8 0 0 0 1.6,0 z m -12,6.58 a 0.8,0.8 0 1 0 -0.8,0.8 0.8,0.8 0 0 0 0.85,-0.78 z m 2.39,0 a 0.8,0.8 0 1 0 -0.8,0.8 A 0.8,0.8 0 0 0 218,239 Z m 2.39,0 a 0.8,0.8 0 0 0 -0.8,-0.8 0.8,0.8 0 0 0 0,1.6 0.8,0.8 0 0 0 0.85,-0.78 z m 2.39,0 a 0.8,0.8 0 0 0 -0.8,-0.8 0.8,0.8 0 0 0 0,1.6 0.8,0.8 0 0 0 0.85,-0.78 z m 2.39,0 a 0.79,0.79 0 0 0 -0.79,-0.8 0.8,0.8 0 0 0 0,1.6 0.79,0.79 0 0 0 0.84,-0.78 z m 2.4,0 a 0.8,0.8 0 1 0 -0.8,0.8 0.8,0.8 0 0 0 0.85,-0.78 z" />
    <path
       id="path178"
       style="fill:#0d5f82"
       d="m 193.07,243.68 h -2.79 a 0.69,0.69 0 1 1 0,-1.38 h 2.79 a 0.69,0.69 0 0 1 0,1.38 z m 0.68,2.5 a 0.68,0.68 0 0 0 -0.68,-0.69 h -2.79 a 0.69,0.69 0 0 0 0,1.38 h 2.79 a 0.68,0.68 0 0 0 0.68,-0.69 z m 0,3.19 a 0.68,0.68 0 0 0 -0.68,-0.69 h -2.79 a 0.69,0.69 0 1 0 0,1.38 h 2.79 a 0.68,0.68 0 0 0 0.68,-0.69 z m 0,3.19 a 0.68,0.68 0 0 0 -0.68,-0.69 h -2.79 a 0.69,0.69 0 0 0 0,1.38 h 2.79 a 0.68,0.68 0 0 0 0.68,-0.69 z m 0,3.19 a 0.68,0.68 0 0 0 -0.68,-0.69 h -2.79 a 0.69,0.69 0 0 0 -0.69,0.69 0.68,0.68 0 0 0 0.69,0.68 h 2.79 a 0.67,0.67 0 0 0 0.68,-0.68 z m 0,3.19 a 0.68,0.68 0 0 0 -0.68,-0.69 h -2.79 a 0.69,0.69 0 0 0 -0.69,0.69 0.68,0.68 0 0 0 0.69,0.68 h 2.79 a 0.67,0.67 0 0 0 0.68,-0.68 z m 0,3.18 a 0.67,0.67 0 0 0 -0.68,-0.68 h -2.79 a 0.68,0.68 0 0 0 -0.69,0.68 0.69,0.69 0 0 0 0.69,0.69 h 2.79 a 0.68,0.68 0 0 0 0.68,-0.69 z m 0,3.19 a 0.68,0.68 0 0 0 -0.68,-0.69 h -2.79 a 0.69,0.69 0 1 0 0,1.38 h 2.79 a 0.68,0.68 0 0 0 0.68,-0.69 z M 204.19,243 a 0.69,0.69 0 0 0 -0.69,-0.69 h -7.32 a 0.69,0.69 0 0 0 0,1.38 h 7.32 a 0.69,0.69 0 0 0 0.69,-0.69 z m 0,3.19 a 0.69,0.69 0 0 0 -0.69,-0.69 h -7.32 a 0.69,0.69 0 0 0 0,1.38 h 7.32 a 0.69,0.69 0 0 0 0.69,-0.7 z m 0,3.19 a 0.69,0.69 0 0 0 -0.69,-0.69 h -7.32 a 0.69,0.69 0 0 0 0,1.38 h 7.32 a 0.69,0.69 0 0 0 0.69,-0.7 z m 0,3.19 a 0.69,0.69 0 0 0 -0.69,-0.69 h -7.32 a 0.69,0.69 0 0 0 0,1.38 h 7.32 a 0.69,0.69 0 0 0 0.69,-0.7 z m 0,3.19 a 0.69,0.69 0 0 0 -0.69,-0.69 h -7.32 a 0.69,0.69 0 0 0 -0.69,0.69 0.68,0.68 0 0 0 0.69,0.68 h 7.32 a 0.68,0.68 0 0 0 0.69,-0.69 z m 8.77,3.19 a 0.69,0.69 0 0 0 -0.69,-0.69 H 205 a 0.69,0.69 0 0 0 -0.69,0.69 0.68,0.68 0 0 0 0.69,0.68 h 7.32 a 0.68,0.68 0 0 0 0.68,-0.69 z m 0,3.18 a 0.68,0.68 0 0 0 -0.69,-0.68 H 205 a 0.68,0.68 0 0 0 -0.69,0.68 0.69,0.69 0 0 0 0.69,0.69 h 7.32 a 0.69,0.69 0 0 0 0.68,-0.7 z m 0,3.19 a 0.69,0.69 0 0 0 -0.69,-0.69 H 205 a 0.69,0.69 0 0 0 0,1.38 h 7.32 a 0.69,0.69 0 0 0 0.68,-0.7 z M 207.42,243 a 0.8,0.8 0 1 0 -0.8,0.8 0.8,0.8 0 0 0 0.8,-0.8 z m 2.39,0 a 0.8,0.8 0 1 0 -0.8,0.8 0.8,0.8 0 0 0 0.8,-0.8 z m 2.39,0 a 0.8,0.8 0 1 0 -0.8,0.8 0.8,0.8 0 0 0 0.8,-0.8 z m 2.39,0 a 0.8,0.8 0 0 0 -0.8,-0.8 0.8,0.8 0 0 0 0,1.6 0.8,0.8 0 0 0 0.8,-0.8 z m 2.39,0 a 0.8,0.8 0 1 0 -0.8,0.8 0.8,0.8 0 0 0 0.82,-0.8 z m 2.39,0 a 0.79,0.79 0 0 0 -0.79,-0.8 0.8,0.8 0 1 0 0,1.6 0.79,0.79 0 0 0 0.79,-0.8 z m -12,6.38 a 0.8,0.8 0 1 0 -0.8,0.8 0.8,0.8 0 0 0 0.85,-0.81 z m 2.39,0 a 0.8,0.8 0 1 0 -0.8,0.8 0.8,0.8 0 0 0 0.85,-0.81 z m 2.39,0 a 0.8,0.8 0 1 0 -0.8,0.8 0.8,0.8 0 0 0 0.85,-0.81 z m 2.39,0 a 0.8,0.8 0 0 0 -0.8,-0.8 0.8,0.8 0 0 0 0,1.6 0.8,0.8 0 0 0 0.85,-0.81 z m 2.39,0 a 0.8,0.8 0 1 0 -0.8,0.8 0.8,0.8 0 0 0 0.87,-0.81 z m 2.39,0 a 0.79,0.79 0 0 0 -0.79,-0.8 0.8,0.8 0 1 0 0,1.6 0.79,0.79 0 0 0 0.84,-0.81 z m -3.78,9.17 a 0.8,0.8 0 0 0 -1.6,0 0.8,0.8 0 0 0 1.6,0 z m 2.39,0 a 0.8,0.8 0 0 0 -1.6,0 0.8,0.8 0 0 0 1.6,0 z m 2.39,0 a 0.8,0.8 0 0 0 -0.8,-0.8 0.79,0.79 0 0 0 -0.79,0.8 0.79,0.79 0 0 0 0.79,0.79 0.79,0.79 0 0 0 0.85,-0.8 z m 2.39,0 a 0.8,0.8 0 0 0 -0.8,-0.8 0.79,0.79 0 0 0 -0.79,0.8 0.79,0.79 0 0 0 0.79,0.79 0.79,0.79 0 0 0 0.85,-0.8 z m 2.39,0 a 0.79,0.79 0 0 0 -0.79,-0.8 0.8,0.8 0 0 0 -0.8,0.8 0.79,0.79 0 0 0 0.8,0.79 0.79,0.79 0 0 0 0.84,-0.8 z m 2.4,0 a 0.8,0.8 0 1 0 -1.6,0 0.8,0.8 0 0 0 1.6,0 z m -12,6.57 a 0.8,0.8 0 0 0 -1.6,0 0.8,0.8 0 1 0 1.6,0 z m 2.39,0 a 0.8,0.8 0 0 0 -1.6,0 0.8,0.8 0 0 0 1.6,0 z m 2.39,0 a 0.79,0.79 0 0 0 -0.8,-0.79 0.79,0.79 0 0 0 -0.79,0.79 0.79,0.79 0 0 0 0.79,0.8 0.8,0.8 0 0 0 0.89,-0.81 z m 2.39,0 a 0.79,0.79 0 0 0 -0.8,-0.79 0.79,0.79 0 0 0 -0.79,0.79 0.79,0.79 0 0 0 0.79,0.8 0.8,0.8 0 0 0 0.89,-0.81 z m 2.39,0 a 0.79,0.79 0 0 0 -0.79,-0.79 0.79,0.79 0 0 0 -0.8,0.79 0.8,0.8 0 0 0 0.8,0.8 0.79,0.79 0 0 0 0.88,-0.81 z m 2.4,0 a 0.8,0.8 0 0 0 -1.6,0 0.8,0.8 0 0 0 1.6,0 z" />
    <path
       id="path180"
       style="fill:#0d5f82"
       d="m 150,192 h -2.79 a 0.69,0.69 0 0 1 0,-1.38 H 150 a 0.69,0.69 0 0 1 0,1.38 z m 0.68,2.5 A 0.68,0.68 0 0 0 150,193.81 h -2.79 a 0.69,0.69 0 0 0 0,1.38 H 150 a 0.68,0.68 0 0 0 0.63,-0.66 z m 0,3.19 A 0.68,0.68 0 0 0 150,197 h -2.79 a 0.69,0.69 0 0 0 0,1.38 H 150 a 0.68,0.68 0 0 0 0.63,-0.66 z m 0,3.19 A 0.68,0.68 0 0 0 150,200.19 h -2.79 a 0.69,0.69 0 0 0 0,1.38 H 150 a 0.68,0.68 0 0 0 0.63,-0.66 z m 0,3.19 A 0.68,0.68 0 0 0 150,203.38 h -2.79 a 0.69,0.69 0 0 0 -0.69,0.69 0.68,0.68 0 0 0 0.69,0.68 H 150 a 0.67,0.67 0 0 0 0.63,-0.65 z m 0,3.19 A 0.68,0.68 0 0 0 150,206.57 h -2.79 a 0.69,0.69 0 0 0 -0.69,0.69 0.68,0.68 0 0 0 0.69,0.68 H 150 a 0.67,0.67 0 0 0 0.63,-0.65 z m 0,3.18 A 0.67,0.67 0 0 0 150,209.76 h -2.79 a 0.69,0.69 0 1 0 0,1.37 H 150 a 0.68,0.68 0 0 0 0.63,-0.66 z m 0,3.19 A 0.67,0.67 0 0 0 150,213 h -2.79 a 0.68,0.68 0 0 0 -0.69,0.68 0.69,0.69 0 0 0 0.69,0.69 H 150 a 0.68,0.68 0 0 0 0.63,-0.71 z m 10.44,-22.32 a 0.69,0.69 0 0 0 -0.69,-0.69 h -7.32 a 0.69,0.69 0 0 0 0,1.38 h 7.32 a 0.69,0.69 0 0 0 0.64,-0.66 z m 0,3.19 a 0.69,0.69 0 0 0 -0.69,-0.69 h -7.32 a 0.69,0.69 0 0 0 0,1.38 h 7.32 a 0.69,0.69 0 0 0 0.64,-0.66 z m 0,3.19 A 0.69,0.69 0 0 0 160.43,197 h -7.32 a 0.69,0.69 0 0 0 0,1.38 h 7.32 a 0.69,0.69 0 0 0 0.64,-0.66 z m 0,3.19 a 0.69,0.69 0 0 0 -0.69,-0.69 h -7.32 a 0.69,0.69 0 0 0 0,1.38 h 7.32 a 0.69,0.69 0 0 0 0.64,-0.66 z m 0,3.19 a 0.69,0.69 0 0 0 -0.69,-0.69 h -7.32 a 0.69,0.69 0 0 0 -0.69,0.69 0.68,0.68 0 0 0 0.69,0.68 h 7.32 a 0.68,0.68 0 0 0 0.64,-0.65 z m 8.77,3.19 a 0.69,0.69 0 0 0 -0.69,-0.69 h -7.32 a 0.69,0.69 0 0 0 -0.69,0.69 0.68,0.68 0 0 0 0.69,0.68 h 7.32 a 0.68,0.68 0 0 0 0.64,-0.65 z m 0,3.18 a 0.68,0.68 0 0 0 -0.69,-0.68 h -7.32 a 0.69,0.69 0 1 0 0,1.37 h 7.32 a 0.69,0.69 0 0 0 0.64,-0.66 z m 0,3.19 a 0.68,0.68 0 0 0 -0.69,-0.68 h -7.32 a 0.68,0.68 0 0 0 -0.69,0.68 0.69,0.69 0 0 0 0.69,0.69 h 7.32 a 0.69,0.69 0 0 0 0.64,-0.66 z m -5.54,-22.32 a 0.8,0.8 0 0 0 -1.6,0 0.8,0.8 0 0 0 1.6,0 z m 2.39,0 a 0.8,0.8 0 0 0 -1.6,0 0.8,0.8 0 0 0 1.6,0 z m 2.39,0 a 0.8,0.8 0 0 0 -1.6,0 0.8,0.8 0 0 0 1.6,0 z m 2.39,0 a 0.79,0.79 0 0 0 -0.8,-0.79 0.79,0.79 0 0 0 -0.79,0.79 0.79,0.79 0 0 0 0.79,0.8 0.8,0.8 0 0 0 0.75,-0.77 z m 2.39,0 a 0.79,0.79 0 0 0 -0.8,-0.79 0.79,0.79 0 0 0 -0.79,0.79 0.79,0.79 0 0 0 0.79,0.8 0.8,0.8 0 0 0 0.75,-0.77 z m 2.39,0 a 0.79,0.79 0 0 0 -0.79,-0.79 0.79,0.79 0 0 0 -0.8,0.79 0.8,0.8 0 0 0 0.8,0.8 0.79,0.79 0 0 0 0.74,-0.77 z m -11.95,6.38 a 0.8,0.8 0 1 0 -0.8,0.8 0.8,0.8 0 0 0 0.75,-0.77 z m 2.39,0 a 0.8,0.8 0 1 0 -0.8,0.8 0.8,0.8 0 0 0 0.75,-0.77 z m 2.39,0 a 0.8,0.8 0 1 0 -0.8,0.8 0.8,0.8 0 0 0 0.75,-0.77 z m 2.39,0 a 0.8,0.8 0 0 0 -0.8,-0.8 0.8,0.8 0 0 0 0,1.6 0.8,0.8 0 0 0 0.75,-0.77 z m 2.39,0 a 0.8,0.8 0 0 0 -0.8,-0.8 0.8,0.8 0 0 0 0,1.6 0.8,0.8 0 0 0 0.75,-0.77 z m 2.39,0 a 0.79,0.79 0 0 0 -0.79,-0.8 0.8,0.8 0 0 0 0,1.6 0.79,0.79 0 0 0 0.74,-0.77 z m -3.78,9.17 a 0.8,0.8 0 1 0 -1.6,0 0.8,0.8 0 0 0 1.6,0 z m 2.39,0 a 0.8,0.8 0 1 0 -1.6,0 0.8,0.8 0 0 0 1.6,0 z m 2.39,0 a 0.8,0.8 0 0 0 -0.8,-0.8 0.79,0.79 0 0 0 -0.79,0.8 0.79,0.79 0 0 0 0.79,0.79 0.79,0.79 0 0 0 0.75,-0.76 z m 2.39,0 a 0.8,0.8 0 0 0 -0.8,-0.8 0.79,0.79 0 0 0 -0.79,0.8 0.79,0.79 0 0 0 0.79,0.79 0.79,0.79 0 0 0 0.75,-0.76 z m 2.39,0 a 0.79,0.79 0 0 0 -0.79,-0.8 0.8,0.8 0 0 0 -0.8,0.8 0.79,0.79 0 0 0 0.8,0.79 0.79,0.79 0 0 0 0.71,-0.76 z m 2.39,0 a 0.79,0.79 0 0 0 -0.79,-0.8 0.8,0.8 0 0 0 -0.8,0.8 0.79,0.79 0 0 0 0.8,0.79 0.79,0.79 0 0 0 0.74,-0.76 z m -11.95,6.57 a 0.8,0.8 0 0 0 -1.6,0 0.8,0.8 0 0 0 1.6,0 z m 2.39,0 a 0.8,0.8 0 0 0 -1.6,0 0.8,0.8 0 0 0 1.6,0 z m 2.39,0 a 0.79,0.79 0 0 0 -0.8,-0.79 0.79,0.79 0 0 0 -0.79,0.79 0.79,0.79 0 0 0 0.79,0.8 0.8,0.8 0 0 0 0.75,-0.77 z m 2.39,0 a 0.79,0.79 0 0 0 -0.8,-0.79 0.79,0.79 0 0 0 -0.79,0.79 0.79,0.79 0 0 0 0.79,0.8 0.8,0.8 0 0 0 0.75,-0.77 z m 2.39,0 a 0.79,0.79 0 0 0 -0.79,-0.79 0.79,0.79 0 0 0 -0.8,0.79 0.8,0.8 0 0 0 0.8,0.8 0.79,0.79 0 0 0 0.71,-0.77 z m 2.39,0 a 0.79,0.79 0 0 0 -0.79,-0.79 0.79,0.79 0 0 0 -0.8,0.79 0.8,0.8 0 0 0 0.8,0.8 0.79,0.79 0 0 0 0.74,-0.77 z" />
    <path
       id="path182"
       style="fill:#0d5f82"
       d="m 150,218.16 h -2.79 a 0.69,0.69 0 1 1 0,-1.37 H 150 a 0.69,0.69 0 0 1 0,1.37 z m 0.68,2.5 A 0.67,0.67 0 0 0 150,220 h -2.79 a 0.68,0.68 0 0 0 -0.69,0.68 0.69,0.69 0 0 0 0.69,0.69 H 150 a 0.68,0.68 0 0 0 0.63,-0.71 z m 0,3.19 A 0.68,0.68 0 0 0 150,223.16 h -2.79 a 0.69,0.69 0 0 0 0,1.38 H 150 a 0.68,0.68 0 0 0 0.63,-0.69 z m 0,3.19 A 0.68,0.68 0 0 0 150,226.35 h -2.79 a 0.69,0.69 0 0 0 0,1.38 H 150 a 0.68,0.68 0 0 0 0.63,-0.73 z m 0,3.19 A 0.68,0.68 0 0 0 150,229.54 h -2.79 a 0.69,0.69 0 0 0 0,1.38 H 150 a 0.68,0.68 0 0 0 0.63,-0.69 z m 0,3.19 A 0.68,0.68 0 0 0 150,232.73 h -2.79 a 0.69,0.69 0 0 0 0,1.38 H 150 a 0.68,0.68 0 0 0 0.63,-0.69 z m 0,3.19 A 0.68,0.68 0 0 0 150,235.92 h -2.79 a 0.69,0.69 0 0 0 0,1.38 H 150 a 0.68,0.68 0 0 0 0.63,-0.69 z m 0,3.19 A 0.68,0.68 0 0 0 150,239.11 h -2.79 a 0.69,0.69 0 0 0 -0.69,0.69 0.68,0.68 0 0 0 0.69,0.68 H 150 a 0.67,0.67 0 0 0 0.63,-0.68 z m 10.44,-22.32 a 0.69,0.69 0 0 0 -0.69,-0.69 h -7.32 a 0.69,0.69 0 1 0 0,1.37 h 7.32 a 0.68,0.68 0 0 0 0.64,-0.68 z m 0,3.18 a 0.68,0.68 0 0 0 -0.69,-0.68 h -7.32 a 0.68,0.68 0 0 0 -0.69,0.68 0.69,0.69 0 0 0 0.69,0.69 h 7.32 a 0.69,0.69 0 0 0 0.64,-0.69 z m 0,3.19 a 0.69,0.69 0 0 0 -0.69,-0.69 h -7.32 a 0.69,0.69 0 0 0 0,1.38 h 7.32 a 0.69,0.69 0 0 0 0.64,-0.69 z m 0,3.19 a 0.69,0.69 0 0 0 -0.69,-0.69 h -7.32 a 0.69,0.69 0 0 0 0,1.38 h 7.32 a 0.69,0.69 0 0 0 0.64,-0.73 z m 0,3.19 a 0.69,0.69 0 0 0 -0.69,-0.69 h -7.32 a 0.69,0.69 0 0 0 0,1.38 h 7.32 a 0.69,0.69 0 0 0 0.64,-0.69 z m 8.77,3.19 a 0.69,0.69 0 0 0 -0.69,-0.69 h -7.32 a 0.69,0.69 0 1 0 0,1.38 h 7.32 a 0.69,0.69 0 0 0 0.64,-0.69 z m 0,3.19 a 0.69,0.69 0 0 0 -0.69,-0.69 h -7.32 a 0.69,0.69 0 1 0 0,1.38 h 7.32 a 0.69,0.69 0 0 0 0.64,-0.69 z m 0,3.19 a 0.69,0.69 0 0 0 -0.69,-0.69 h -7.32 a 0.69,0.69 0 0 0 -0.69,0.69 0.68,0.68 0 0 0 0.69,0.68 h 7.32 a 0.68,0.68 0 0 0 0.64,-0.68 z m -5.54,-22.33 a 0.8,0.8 0 1 0 -0.8,0.8 0.79,0.79 0 0 0 0.75,-0.8 z m 2.39,0 a 0.8,0.8 0 1 0 -0.8,0.8 0.79,0.79 0 0 0 0.75,-0.8 z m 2.39,0 a 0.8,0.8 0 1 0 -0.8,0.8 0.79,0.79 0 0 0 0.75,-0.8 z m 2.39,0 a 0.79,0.79 0 0 0 -0.8,-0.79 0.8,0.8 0 0 0 0,1.59 0.8,0.8 0 0 0 0.75,-0.8 z m 2.39,0 a 0.79,0.79 0 0 0 -0.8,-0.79 0.8,0.8 0 0 0 0,1.59 0.8,0.8 0 0 0 0.75,-0.8 z m 2.39,0 a 0.79,0.79 0 0 0 -0.79,-0.79 0.8,0.8 0 1 0 0.79,0.79 z m -11.95,6.38 a 0.8,0.8 0 0 0 -1.6,0 0.8,0.8 0 1 0 1.6,0 z m 2.39,0 a 0.8,0.8 0 0 0 -1.6,0 0.8,0.8 0 1 0 1.6,0 z m 2.39,0 a 0.8,0.8 0 0 0 -1.6,0 0.8,0.8 0 0 0 1.6,0 z m 2.39,0 a 0.79,0.79 0 0 0 -0.8,-0.79 0.79,0.79 0 0 0 -0.79,0.79 0.79,0.79 0 0 0 0.79,0.8 0.8,0.8 0 0 0 0.75,-0.8 z m 2.39,0 a 0.79,0.79 0 0 0 -0.8,-0.79 0.79,0.79 0 0 0 -0.79,0.79 0.79,0.79 0 0 0 0.79,0.8 0.8,0.8 0 0 0 0.75,-0.8 z m 2.39,0 a 0.79,0.79 0 0 0 -0.79,-0.79 0.79,0.79 0 0 0 -0.8,0.79 0.8,0.8 0 0 0 0.8,0.8 0.79,0.79 0 0 0 0.74,-0.8 z m -3.83,9.15 a 0.8,0.8 0 1 0 -0.8,0.8 0.8,0.8 0 0 0 0.8,-0.8 z m 2.39,0 a 0.8,0.8 0 1 0 -0.8,0.8 0.8,0.8 0 0 0 0.8,-0.8 z m 2.39,0 a 0.8,0.8 0 0 0 -0.8,-0.8 0.8,0.8 0 0 0 0,1.6 0.8,0.8 0 0 0 0.8,-0.8 z m 2.39,0 a 0.8,0.8 0 0 0 -0.8,-0.8 0.8,0.8 0 0 0 0,1.6 0.8,0.8 0 0 0 0.8,-0.8 z m 2.39,0 a 0.79,0.79 0 0 0 -0.79,-0.8 0.8,0.8 0 1 0 0,1.6 0.79,0.79 0 0 0 0.76,-0.8 z m 2.39,0 a 0.79,0.79 0 0 0 -0.79,-0.8 0.8,0.8 0 0 0 0,1.6 0.79,0.79 0 0 0 0.79,-0.8 z m -11.95,6.58 a 0.8,0.8 0 1 0 -1.6,0 0.8,0.8 0 0 0 1.6,0 z m 2.39,0 a 0.8,0.8 0 1 0 -1.6,0 0.8,0.8 0 0 0 1.6,0 z m 2.39,0 a 0.8,0.8 0 0 0 -0.8,-0.8 0.79,0.79 0 0 0 -0.79,0.8 0.79,0.79 0 0 0 0.79,0.79 0.79,0.79 0 0 0 0.8,-0.77 z m 2.39,0 a 0.8,0.8 0 0 0 -0.8,-0.8 0.79,0.79 0 0 0 -0.79,0.8 0.79,0.79 0 0 0 0.79,0.79 0.79,0.79 0 0 0 0.8,-0.77 z m 2.39,0 a 0.79,0.79 0 0 0 -0.79,-0.8 0.8,0.8 0 0 0 -0.8,0.8 0.79,0.79 0 0 0 0.8,0.79 0.79,0.79 0 0 0 0.76,-0.77 z m 2.39,0 a 0.79,0.79 0 0 0 -0.79,-0.8 0.8,0.8 0 0 0 -0.8,0.8 0.79,0.79 0 0 0 0.8,0.79 0.79,0.79 0 0 0 0.79,-0.77 z" />
    <rect
       id="rect184"
       style="fill:#ffffff;stroke:#263238;stroke-linecap:round;stroke-linejoin:round"
       height="1.4299999"
       width="4.29"
       y="295.42001"
       x="215.5" />
    <rect
       id="rect186"
       style="fill:#ffffff;stroke:#263238;stroke-linecap:round;stroke-linejoin:round"
       height="1.4299999"
       width="4.29"
       y="295.42001"
       x="221.53" />
    <rect
       id="rect188"
       style="fill:#ffffff;stroke:#263238;stroke-linecap:round;stroke-linejoin:round"
       height="1.4299999"
       width="4.29"
       y="295.42001"
       x="227.56" />
    <rect
       id="rect190"
       style="fill:#ffffff;stroke:#263238;stroke-linecap:round;stroke-linejoin:round"
       height="1.4299999"
       width="4.29"
       y="295.42001"
       x="233.60001" />
    <rect
       id="rect192"
       style="fill:#ffffff;stroke:#263238;stroke-linecap:round;stroke-linejoin:round"
       height="1.4299999"
       width="4.29"
       y="295.42001"
       x="239.63" />
    <rect
       id="rect194"
       style="fill:#ffffff;stroke:#263238;stroke-linecap:round;stroke-linejoin:round"
       height="1.4299999"
       width="4.29"
       y="295.42001"
       x="245.66" />
    <rect
       id="rect196"
       style="fill:#ffffff;stroke:#263238;stroke-linecap:round;stroke-linejoin:round"
       height="1.4299999"
       width="4.29"
       y="295.42001"
       x="251.7" />
    <rect
       id="rect198"
       style="fill:#ffffff;stroke:#263238;stroke-linecap:round;stroke-linejoin:round"
       height="1.4299999"
       width="4.29"
       y="295.42001"
       x="257.73001" />
    <rect
       id="rect200"
       style="fill:#ffffff;stroke:#263238;stroke-linecap:round;stroke-linejoin:round"
       height="1.4299999"
       width="4.29"
       y="295.42001"
       x="263.76001" />
    <rect
       id="rect202"
       style="fill:#ffffff;stroke:#263238;stroke-linecap:round;stroke-linejoin:round"
       height="1.4299999"
       width="4.29"
       y="295.42001"
       x="269.79999" />
    <rect
       id="rect204"
       style="fill:#ffffff;stroke:#263238;stroke-linecap:round;stroke-linejoin:round"
       height="1.4299999"
       width="4.29"
       y="295.42001"
       x="275.82999" />
    <rect
       id="rect206"
       style="fill:#ffffff;stroke:#263238;stroke-linecap:round;stroke-linejoin:round"
       height="1.4299999"
       width="4.29"
       y="295.42001"
       x="281.85999" />
    <rect
       id="rect208"
       style="fill:#ffffff;stroke:#263238;stroke-linecap:round;stroke-linejoin:round"
       height="1.4299999"
       width="4.29"
       y="295.42001"
       x="287.89999" />
    <rect
       id="rect210"
       style="fill:none;stroke:#263238;stroke-linecap:round;stroke-linejoin:round"
       height="1.4299999"
       width="4.29"
       y="295.42001"
       x="293.92999" />
    <rect
       id="rect212"
       style="fill:none;stroke:#263238;stroke-linecap:round;stroke-linejoin:round"
       height="1.4299999"
       width="4.29"
       y="295.42001"
       x="299.95999" />
    <rect
       id="rect214"
       style="fill:#263238;stroke:#263238;stroke-linecap:round;stroke-linejoin:round"
       height="2.5999999"
       width="93.139999"
       y="296.63"
       x="212.48" />
    <rect
       id="rect216"
       style="fill:#ffffff;stroke:#263238;stroke-linecap:round;stroke-linejoin:round"
       height="2.5999999"
       width="31.219999"
       y="296.63"
       x="274.39999" />
    <path
       id="path218"
       style="fill:#ffffff;stroke:#263238;stroke-linecap:round;stroke-linejoin:round"
       d="m 134.23,455.49 v 0 a 2.46,2.46 0 0 0 2.46,-2.42 l 2.48,-149.74 h -9.88 l 2.48,149.74 a 2.46,2.46 0 0 0 2.46,2.42 z" />
    <polygon
       id="polygon220"
       style="fill:#263238;stroke:#263238;stroke-linecap:round;stroke-linejoin:round"
       points="139,313.56 139.17,303.33 129.29,303.33 129.46,313.56 " />
    <path
       id="path222"
       style="fill:#ffffff;stroke:#263238;stroke-linecap:round;stroke-linejoin:round"
       d="m 213.13,455.49 v 0 a 2.46,2.46 0 0 0 2.46,-2.42 l 2.48,-149.74 h -9.88 l 2.48,149.74 a 2.46,2.46 0 0 0 2.46,2.42 z" />
    <polygon
       id="polygon224"
       style="fill:#263238;stroke:#263238;stroke-linecap:round;stroke-linejoin:round"
       points="217.9,313.56 218.07,303.33 208.19,303.33 208.36,313.56 " />
    <path
       id="path226"
       style="fill:#ffffff;stroke:#263238;stroke-linecap:round;stroke-linejoin:round"
       d="m 287.72,455.49 v 0 a 2.47,2.47 0 0 0 2.46,-2.42 l 2.48,-149.74 h -9.88 l 2.48,149.74 a 2.46,2.46 0 0 0 2.46,2.42 z" />
    <polygon
       id="polygon228"
       style="fill:#263238;stroke:#263238;stroke-linecap:round;stroke-linejoin:round"
       points="292.49,313.56 292.66,303.33 282.78,303.33 282.94,313.56 " />
    <path
       id="path230"
       style="fill:#ffffff;stroke:#263238;stroke-linecap:round;stroke-linejoin:round"
       d="m 409.46,455.49 v 0 a 2.46,2.46 0 0 0 2.46,-2.42 l 2.48,-149.74 h -9.88 L 407,453.07 a 2.47,2.47 0 0 0 2.46,2.42 z" />
    <polygon
       id="polygon232"
       style="fill:#263238;stroke:#263238;stroke-linecap:round;stroke-linejoin:round"
       points="414.24,313.56 414.4,303.33 404.52,303.33 404.69,313.56 " />
    <rect
       id="rect234"
       style="fill:#263238;stroke:#263238;stroke-linecap:round;stroke-linejoin:round"
       height="7.4099998"
       width="299.85999"
       y="298.88"
       x="124.35" />
    <rect
       id="rect236"
       style="fill:#ffffff;stroke:#263238;stroke-linecap:round;stroke-linejoin:round"
       height="7.4099998"
       width="122.66"
       y="298.88"
       x="301.54999" />
    <rect
       id="rect238"
       style="fill:#ffffff;stroke:#263238;stroke-linecap:round;stroke-linejoin:round"
       height="1.4299999"
       width="4.29"
       y="295.42001"
       x="215.5" />
    <rect
       id="rect240"
       style="fill:#ffffff;stroke:#263238;stroke-linecap:round;stroke-linejoin:round"
       height="1.4299999"
       width="4.29"
       y="295.42001"
       x="221.53" />
    <rect
       id="rect242"
       style="fill:#ffffff;stroke:#263238;stroke-linecap:round;stroke-linejoin:round"
       height="1.4299999"
       width="4.29"
       y="295.42001"
       x="227.56" />
    <rect
       id="rect244"
       style="fill:#ffffff;stroke:#263238;stroke-linecap:round;stroke-linejoin:round"
       height="1.4299999"
       width="4.29"
       y="295.42001"
       x="233.60001" />
    <rect
       id="rect246"
       style="fill:#ffffff;stroke:#263238;stroke-linecap:round;stroke-linejoin:round"
       height="1.4299999"
       width="4.29"
       y="295.42001"
       x="239.63" />
    <rect
       id="rect248"
       style="fill:#ffffff;stroke:#263238;stroke-linecap:round;stroke-linejoin:round"
       height="1.4299999"
       width="4.29"
       y="295.42001"
       x="245.66" />
    <rect
       id="rect250"
       style="fill:#ffffff;stroke:#263238;stroke-linecap:round;stroke-linejoin:round"
       height="1.4299999"
       width="4.29"
       y="295.42001"
       x="251.7" />
    <rect
       id="rect252"
       style="fill:#ffffff;stroke:#263238;stroke-linecap:round;stroke-linejoin:round"
       height="1.4299999"
       width="4.29"
       y="295.42001"
       x="257.73001" />
    <rect
       id="rect254"
       style="fill:#ffffff;stroke:#263238;stroke-linecap:round;stroke-linejoin:round"
       height="1.4299999"
       width="4.29"
       y="295.42001"
       x="263.76001" />
    <rect
       id="rect256"
       style="fill:#ffffff;stroke:#263238;stroke-linecap:round;stroke-linejoin:round"
       height="1.4299999"
       width="4.29"
       y="295.42001"
       x="269.79999" />
    <rect
       id="rect258"
       style="fill:#ffffff;stroke:#263238;stroke-linecap:round;stroke-linejoin:round"
       height="1.4299999"
       width="4.29"
       y="295.42001"
       x="275.82999" />
    <rect
       id="rect260"
       style="fill:#ffffff;stroke:#263238;stroke-linecap:round;stroke-linejoin:round"
       height="1.4299999"
       width="4.29"
       y="295.42001"
       x="281.85999" />
    <rect
       id="rect262"
       style="fill:#ffffff;stroke:#263238;stroke-linecap:round;stroke-linejoin:round"
       height="1.4299999"
       width="4.29"
       y="295.42001"
       x="287.89999" />
    <rect
       id="rect264"
       style="fill:none;stroke:#263238;stroke-linecap:round;stroke-linejoin:round"
       height="1.4299999"
       width="4.29"
       y="295.42001"
       x="293.92999" />
    <rect
       id="rect266"
       style="fill:none;stroke:#263238;stroke-linecap:round;stroke-linejoin:round"
       height="1.4299999"
       width="4.29"
       y="295.42001"
       x="299.95999" />
    <rect
       id="rect268"
       style="fill:#263238;stroke:#263238;stroke-linecap:round;stroke-linejoin:round"
       height="2.5999999"
       width="93.139999"
       y="296.63"
       x="212.48" />
    <rect
       id="rect270"
       style="fill:#ffffff;stroke:#263238;stroke-linecap:round;stroke-linejoin:round"
       height="2.5999999"
       width="31.219999"
       y="296.63"
       x="274.39999" />
  </g>
  <g
     transform="matrix(1.0747895,0,0,1.0747895,-40.830712,-56.211491)"
     id="freepik--Character--inject-13">
    <path
       id="path273"
       style="fill:#ffffff;stroke:#263238;stroke-linecap:round;stroke-linejoin:round"
       d="m 137.5,220.54 c 0,0 8.28,-5.27 6,-11.79 -2.28,-6.52 -14.8,-13.29 -15.55,-27.09 -0.75,-13.8 19.32,-21.32 30.35,-21.32 11.03,0 13.05,0.75 13.55,3.51 a 10.49,10.49 0 0 1 0.25,3.76 46.51,46.51 0 0 1 5,5.52 c 2.76,3.51 5.51,8.28 4.76,10.29 a 9.68,9.68 0 0 0 -0.25,6.52 c 0.75,2.26 9.53,3.76 8,6.27 a 9.18,9.18 0 0 1 -4.27,3.51 73.71,73.71 0 0 1 -3,14.8 c -2.25,6.52 -2.25,9.28 -7,9.28 -4.75,0 -6.52,-3 -6.52,-3 l -10.79,10.79 z" />
    <path
       id="path275"
       style="fill:#263238;stroke:#263238;stroke-linecap:round;stroke-linejoin:round"
       d="m 175.38,223.8 c 4.77,0 4.77,-2.76 7,-9.28 a 72.34,72.34 0 0 0 3,-14.25 13,13 0 0 0 -4.46,0.69 c -4.5,1.24 -8.89,6 -12.26,9.38 -3.37,3.38 -3.61,0.48 -4.81,-7.46 a 69.31,69.31 0 0 1 -0.24,-16.11 c 0,0 5.29,-4.57 6.73,-10.1 1.44,-5.53 -7.93,-4.33 -11.06,-6 -3.13,-1.67 12.86,-3 12.86,-3 a 10.49,10.49 0 0 0 -0.25,-3.76 c -0.5,-2.76 -2.51,-3.51 -13.55,-3.51 -11.04,0 -31.1,7.52 -30.35,21.32 0.75,13.8 13.3,20.57 15.55,27.09 a 6.88,6.88 0 0 1 0.37,1.79 c 3.21,1.07 6.62,1.21 8.15,-1.4 2.41,-4.09 -1.68,-9.14 -1,-15.16 0.68,-6.02 7.7,-1 7.7,-0.24 0,0.76 0,10.11 0.24,15.16 0.24,5.05 9.84,11.89 9.84,11.89 0,0 1.77,2.95 6.54,2.95 z" />
    <path
       id="path277"
       style="fill:#263238"
       d="m 179.46,188.81 c 0,1.53 -0.38,2.77 -0.84,2.77 -0.46,0 -0.84,-1.24 -0.84,-2.77 0,-1.53 0.38,-2.76 0.84,-2.76 0.46,0 0.84,1.24 0.84,2.76 z" />
    <path
       id="path279"
       style="fill:none;stroke:#ffffff;stroke-linecap:round;stroke-linejoin:round"
       d="m 182.11,209.14 c 0,0 -4.33,0.72 -5.53,-4.33" />
    <path
       id="path281"
       style="fill:none;stroke:#263238;stroke-width:2px;stroke-linecap:round;stroke-linejoin:round"
       d="m 180.9,184.36 c 0,0 -3.12,-3.36 -6.73,1.45" />
    <line
       id="line283"
       style="fill:#ffffff;stroke:#263238;stroke-width:2px;stroke-linecap:round;stroke-linejoin:round"
       y2="194.47"
       x2="185.23"
       y1="182.44"
       x1="183.31" />
    <line
       id="line285"
       style="fill:#ffffff;stroke:#263238;stroke-width:2px;stroke-linecap:round;stroke-linejoin:round"
       y2="192.53999"
       x2="157.09"
       y1="187.00999"
       x1="183.78999" />
    <path
       id="path287"
       style="fill:#ffffff;stroke:#263238;stroke-linecap:round;stroke-linejoin:round"
       d="m 160,195 c 0,0 -5.53,-9.62 -9.14,-5.53 -3.61,4.09 -1.68,12.5 0.48,15.39 2.16,2.89 7.46,1.2 8.42,0" />
    <path
       id="path289"
       style="fill:#ffffff;stroke:#263238;stroke-linecap:round;stroke-linejoin:round"
       d="m 227.08,285.62 c 0,0 10.58,-3.62 14.19,-2.62 3.61,1 8.42,4.57 8.42,4.57 0,0 2.16,0.48 -2.89,1.68 -5.05,1.2 -12,0.25 -16.11,-0.48 -4.11,-0.73 -6.25,-0.99 -3.61,-3.15 z" />
    <path
       id="path291"
       style="fill:#ffffff;stroke:#263238;stroke-linecap:round;stroke-linejoin:round"
       d="m 153.29,294 10.76,2.57 c 0,0 0.25,4.87 4.87,5.63 4.62,0.76 7.47,-4.55 8.86,-4.58 1.39,-0.03 11.63,0.74 11.63,0.74 l -11,-15.63 -21,-5.64 z" />
    <path
       id="path293"
       style="fill:#ffffff;stroke:#263238;stroke-linecap:round;stroke-linejoin:round"
       d="m 263.15,286.16 5.53,0.43 a 5,5 0 0 1 3.84,3.09 l 1.19,3 c 0,0 0.22,2.91 -0.67,3.13 -0.89,0.22 -0.69,0.21 -1.35,-2.24 a 13,13 0 0 0 -1.11,-3.13 l -3.58,-0.67 1.79,1.79 0.89,4.47 a 1.84,1.84 0 0 1 -2.23,-0.44 16.11,16.11 0 0 1 -2.24,-3.36 l -6,-5.59 z" />
    <path
       id="path295"
       style="fill:#ffffff;stroke:#263238;stroke-linecap:round;stroke-linejoin:round"
       d="m 199,281.45 46.55,5.45 c 0,0 7.8,-0.19 15.37,-1.11 3.67,-0.44 8,3.72 8,3.72 0,0 4.82,0.37 5.58,1.8 0.76,1.43 3.23,5 1.08,5.27 -2.15,0.27 -2.71,-2.59 -3.92,-3 -1.21,-0.41 -4.82,-0.38 -7.7,0.17 -2.88,0.55 -7.64,2.34 -12,2.19 a 13.34,13.34 0 0 1 -7.28,-2.48 c 0,0 -42.43,6.48 -47.48,6.59 a 33.39,33.39 0 0 1 -9.41,-1.23 z" />
    <path
       id="path297"
       style="fill:#ffffff;stroke:#263238;stroke-linecap:round;stroke-linejoin:round"
       d="m 190,274.31 c 0,0 1,-1.2 2.41,0.72 1.41,1.92 2.4,3.37 3.61,4.09 1.21,0.72 4.57,-0.24 2.88,4.57 -1.69,4.81 -7,15.15 -12,17.56 -5,2.41 -8.18,-1.2 -9.14,-3.61 -0.96,-2.41 -5.77,-1.2 -5.53,-7 0.24,-5.8 17.77,-16.33 17.77,-16.33 z" />
    <path
       id="path299"
       style="fill:#ffffff;stroke:#263238;stroke-linecap:round;stroke-linejoin:round"
       d="m 188.36,435.73 a 51.33,51.33 0 0 0 7,-0.47 c 2.63,-0.46 14.12,-3.71 14.49,-1.62 0.37,2.09 0.38,2.55 -4.14,8.12 -4.52,5.57 -10.73,6 -14.12,7.2 -3.39,1.2 -5.3,2.04 -10.59,3.71 -5.29,1.67 -6.4,-9.28 -6.4,-12.77 0,-3.49 13.76,-4.17 13.76,-4.17 z" />
    <path
       id="path301"
       style="fill:#263238;stroke:#263238;stroke-linecap:round;stroke-linejoin:round"
       d="m 154.69,357.77 c 0,0 11.51,66.75 14.64,74.69 3.13,7.94 5,11.79 5,11.79 0,0 1.68,1.2 7,-1.21 5.32,-2.41 11.31,-7.69 11.31,-7.69 0,0 -1,-3.37 -2.65,-4.57 -1.65,-1.2 -5.29,-0.72 -5.29,-3.37 0,-2.65 2.2,-73.73 2.2,-73.73 z" />
    <path
       id="path303"
       style="fill:#ffffff;stroke:#263238;stroke-linecap:round;stroke-linejoin:round"
       d="m 149.13,435.59 c 0,0 6.25,6.73 7.45,7.93 1.2,1.2 17.56,8.66 16.6,10.59 -0.96,1.93 -21.41,1.68 -25.5,0.48 -2.07,-0.61 -12.26,-5.29 -16.83,-7.46 -4.57,-2.17 6.73,-12.74 6.73,-12.74 z" />
    <path
       id="path305"
       style="fill:#263238;stroke:#263238;stroke-linecap:round;stroke-linejoin:round"
       d="m 94.08,322.17 c 0,0 0,0.25 0,0.71 -0.27,4.32 -1.49,27.19 2.21,31.76 4.09,5.05 18.76,6.25 32.22,6.25 13.46,0 50,-3.36 50,-3.36 l -40.92,76.86 13.95,3.36 c 0,0 41.64,-54.25 47.17,-62.18 5.53,-7.93 10.1,-15.88 14,-20.45 3.9,-4.57 8.66,-15.39 7.22,-18.76 -1.44,-3.37 -16.6,-5.05 -34.4,-8.17 -17.8,-3.12 -40.88,-3.37 -40.88,-3.37 0,0 -3.85,2.4 -21.17,2.4 -17.32,0 -29.4,-5.05 -29.4,-5.05 z" />
    <path
       id="path307"
       style="fill:none;stroke:#7a7a7a;stroke-linecap:round;stroke-linejoin:round"
       d="m 178.5,357.53 c 0,0 20.2,-2.17 26.7,-6.26" />
    <path
       id="path309"
       style="fill:none;stroke:#7a7a7a;stroke-linecap:round;stroke-linejoin:round"
       d="m 209.28,354.16 a 157.24,157.24 0 0 1 -28.13,24.29" />
    <path
       id="path311"
       style="fill:none;stroke:#263238;stroke-linecap:round;stroke-linejoin:round"
       d="m 132.56,330.35 c 0,0 -10.1,9.38 -18,14.43" />
    <path
       id="path313"
       style="fill:none;stroke:#263238;stroke-linecap:round;stroke-linejoin:round"
       d="m 135.93,329.39 c 0,0 -5.53,9.14 -9.62,14.91" />
    <path
       id="path315"
       style="fill:#ffffff;stroke:#263238;stroke-linecap:round;stroke-linejoin:round"
       d="m 132.8,221.16 c 0,0 -14.91,9.62 -23.08,22.61 -8.17,12.99 -9.87,28.14 -10.59,30.06 -0.72,1.92 -4.33,34.39 -4.33,34.39 0,0 -5.47,8.57 -2.4,13.47 2.4,3.85 0.72,3.85 7,5.29 2.35,0.54 21.89,3.85 33.67,2.41 11.78,-1.44 15.64,-6.49 16.84,-9.86 1.2,-3.37 0.48,-10.34 1.2,-14.43 0.72,-4.09 10.34,-19.48 10.34,-19.48 0,0 11.31,8.17 13.23,8.9 1.92,0.73 7,-3.13 12.51,-10.59 5.51,-7.46 4.09,-7.45 1.44,-11.06 -2.65,-3.61 -10.82,-18.52 -12.75,-23.09 -1.93,-4.57 -7.45,-7.69 -7.45,-7.69 0,0 -21.92,-21.41 -35.63,-20.93 z" />
    <path
       id="path317"
       style="fill:#ffffff;stroke:#263238;stroke-linecap:round;stroke-linejoin:round"
       d="m 130.16,222.6 c 0,0 5.29,-0.48 13,3.13 7.71,3.61 25.25,16.36 25.25,16.36 L 167,231 c 0,0 -21.89,-13.47 -24.78,-14.67 -2.89,-1.2 -4.81,0 -7.93,2.89 a 25.08,25.08 0 0 1 -4.13,3.38 z" />
    <line
       id="line319"
       style="fill:none;stroke:#263238;stroke-linecap:round;stroke-linejoin:round"
       y2="272.14999"
       x2="145.78999"
       y1="285.62"
       x1="161.42" />
    <path
       id="path321"
       style="fill:none;stroke:#263238;stroke-linecap:round;stroke-linejoin:round"
       d="m 154.21,280.09 c 0,0 -11.79,3.12 -18.28,3.12" />
    <path
       id="path323"
       style="fill:none;stroke:#263238;stroke-linecap:round;stroke-linejoin:round"
       d="m 155.65,280.09 c 0,0 -7.93,8.41 -16.11,13" />
    <path
       id="path325"
       style="fill:#ffffff;stroke:#263238;stroke-linecap:round;stroke-linejoin:round"
       d="m 109.76,324.51 c 0,0 2.41,-9.45 -0.74,-10.93 -3.15,-1.48 -23.9,0.37 -35.94,4.08 -12.04,3.71 -16.67,11.67 -15.37,11.67 1.3,0 43.35,-7.6 52.05,-4.82 z" />
    <path
       id="path327"
       style="fill:#ffffff;stroke:#263238;stroke-linecap:round;stroke-linejoin:round"
       d="m 110.36,315.48 c -7.7,0 -21.72,1.79 -30.79,4.58 a 30.49,30.49 0 0 0 -13.41,8 c 13.06,-2 37.24,-5.55 43.6,-3.52 0,-0.03 1.48,-5.84 0.6,-9.06 z" />
    <path
       id="path329"
       style="fill:#a1a1a1;stroke:#263238;stroke-linecap:round;stroke-linejoin:round"
       d="m 63.63,326.73 c 0,0 -13.52,2.41 -14.45,9.08 -0.93,6.67 8.53,7.78 13.53,2 5,-5.78 24.64,-10.93 32.6,-11.12 7.96,-0.19 8.71,1.49 8.15,6.67 -0.56,5.18 -15.37,26.68 -17,32.05 -1.63,5.37 7.41,10 10.19,5.93 2.78,-4.07 11.67,-30.38 12,-39.27 0.33,-8.89 -1.85,-9.82 -8.71,-10.56 -6.86,-0.74 -27.41,1.89 -36.31,5.22 z" />
    <path
       id="path331"
       style="fill:#525252;stroke:#263238;stroke-linecap:round;stroke-linejoin:round"
       d="m 65.86,326.73 c 0,0 -13.53,2.41 -14.45,9.08 -0.92,6.67 8.52,7.78 13.52,2 5,-5.78 24.64,-10.93 32.61,-11.12 7.97,-0.19 8.7,1.49 8.15,6.67 -0.55,5.18 -15.38,26.68 -17,32.05 -1.62,5.37 7.41,10 10.19,5.93 2.78,-4.07 11.67,-30.38 12,-39.27 0.33,-8.89 -1.85,-9.82 -8.7,-10.56 -6.85,-0.74 -27.43,1.89 -36.32,5.22 z" />
    <path
       id="path333"
       style="fill:#263238;stroke:#263238;stroke-linecap:round;stroke-linejoin:round"
       d="m 118.9,412.88 c 0,0 -37.42,8.89 -49.65,17 -12.23,8.11 -12.25,15.6 -12.25,15.6 0,0 0,2.6 5.18,0 5.18,-2.6 7.41,-9.26 14.08,-11.85 6.67,-2.59 41.48,-8.91 41.48,-8.91 z" />
    <path
       id="path335"
       style="fill:#263238;stroke:#263238;stroke-linecap:round;stroke-linejoin:round"
       d="M 70,449.11 A 5.92,5.92 0 1 0 64.05,455 5.92,5.92 0 0 0 70,449.11 Z" />
    <circle
       id="circle337"
       style="fill:#ffffff;stroke:#263238;stroke-linecap:round;stroke-linejoin:round"
       r="2.48"
       cy="449.10999"
       cx="64.050003" />
    <path
       id="path339"
       style="fill:#263238;stroke:#263238;stroke-linecap:round;stroke-linejoin:round"
       d="m 126.67,412.88 c 0,0 37.42,8.89 49.65,17 12.23,8.11 12.23,15.56 12.23,15.56 0,0 0,2.6 -5.19,0 -5.19,-2.6 -7.41,-9.26 -14.08,-11.85 -6.67,-2.59 -41.48,-8.91 -41.48,-8.91 z" />
    <path
       id="path341"
       style="fill:#263238;stroke:#263238;stroke-linecap:round;stroke-linejoin:round"
       d="m 175.61,449.11 a 5.92,5.92 0 1 1 5.92,5.91 5.92,5.92 0 0 1 -5.92,-5.91 z" />
    <path
       id="path343"
       style="fill:#ffffff;stroke:#263238;stroke-linecap:round;stroke-linejoin:round"
       d="m 179.05,449.11 a 2.48,2.48 0 1 1 2.48,2.48 2.48,2.48 0 0 1 -2.48,-2.48 z" />
    <rect
       id="rect345"
       style="fill:#263238;stroke:#263238;stroke-linecap:round;stroke-linejoin:round"
       height="40.639999"
       width="11.36"
       y="384.07999"
       x="117.77" />
    <rect
       id="rect347"
       style="fill:#263238;stroke:#263238;stroke-linecap:round;stroke-linejoin:round"
       height="8.6099997"
       width="54.790001"
       y="375.39001"
       x="97.620003" />
    <path
       id="path349"
       style="fill:#0d5f82;stroke:#263238;stroke-linecap:round;stroke-linejoin:round"
       d="m 180.78,351.74 c -4.94,-9.38 -14.82,-14.32 -25.2,-9.38 -10.38,4.94 -25.69,12.84 -25.69,12.84 0,0 0,-26.68 -4.44,-39.52 -4.44,-12.84 -9.39,-15.31 -5.45,-25.68 3.94,-10.37 9.92,-9.76 8.4,-25.69 C 127.39,253.61 118,248 118,248 118,248 102.68,237.63 96.75,220.83 90.82,204.03 94.28,200.08 76.5,197.12 58.72,194.16 53.82,208 52.33,224.29 50.84,240.58 35.54,256.89 39,271.22 c 3.46,14.33 8.39,19.27 10.86,26.68 2.47,7.41 13.34,69.16 15.32,73.6 1.98,4.44 11.36,5.44 12.84,5.44 h 99.79 c 0,0 7.91,-15.81 2.97,-25.2 z M 62.14,247 a 4.37,4.37 0 0 1 -2.79,-7.73 l 6.75,-5.61 4.7,-0.49 1.29,13.83 z m 26.35,0 h -10 l -2,-13.83 4.83,0.49 8.07,5.61 a 5.85,5.85 0 0 1 2.38,3.36 3.35,3.35 0 0 1 -3.28,4.37 z" />
    <path
       id="path351"
       style="fill:#263238;stroke:#263238;stroke-linecap:round;stroke-linejoin:round"
       d="m 114.36,376.94 c 1,-17.18 -2.69,-50.56 -9.67,-82.09 -7.34,-33.19 -3.39,-57.4 -2.28,-63 -0.27,-0.4 -0.54,-0.81 -0.8,-1.23 H 51.13 c -1.58,5.7 -4.34,11.36 -6.88,16.91 0,2.34 0.07,4.89 0.25,7.64 1,15.47 4.71,40.69 4.71,40.69 0,0 0,0.18 0.1,0.51 0.19,0.5 0.38,1 0.55,1.53 2.47,7.41 13.34,69.16 15.32,73.6 1.98,4.44 11.36,5.44 12.84,5.44 z M 62.14,247 a 4.37,4.37 0 0 1 -2.79,-7.73 l 6.75,-5.61 4.7,-0.49 1.29,13.83 z m 19.24,-13.34 8.07,5.61 a 5.85,5.85 0 0 1 2.38,3.36 3.35,3.35 0 0 1 -3.34,4.37 h -10 l -2,-13.83 z" />
    <rect
       id="rect353"
       style="fill:#525252;stroke:#263238;stroke-linecap:round;stroke-linejoin:round"
       height="3.7"
       width="34.639999"
       y="344.62"
       x="64.68" />
    <polygon
       id="polygon355"
       style="fill:#525252;stroke:#263238;stroke-linecap:round;stroke-linejoin:round"
       points="83.44,376.49 87.92,376.49 81.5,348.27 77.02,348.27 " />
    <circle
       id="circle357"
       style="fill:#525252;stroke:#263238;stroke-linecap:round;stroke-linejoin:round"
       r="9.1599998"
       cy="380.70999"
       cx="91.940002" />
    <circle
       id="circle359"
       style="fill:#263238;stroke:#263238;stroke-linecap:round;stroke-linejoin:round"
       r="6.23"
       cy="380.70999"
       cx="95.599998" />
    <polygon
       id="polygon361"
       style="fill:#263238;stroke:#263238;stroke-linecap:round;stroke-linejoin:round"
       points="124.31,447.39 124.31,437.85 126.03,433.46 126.03,412.09 120.11,412.09 120.11,433.46 121.83,437.85 121.83,447.39 " />
    <path
       id="path363"
       style="fill:#263238;stroke:#263238;stroke-linecap:round;stroke-linejoin:round"
       d="m 123.07,455.21 v 0 a 1.91,1.91 0 0 1 -1.91,-1.91 v -8.2 a 1.92,1.92 0 0 1 1.91,-1.91 v 0 a 1.92,1.92 0 0 1 1.93,1.91 v 8.2 a 1.91,1.91 0 0 1 -1.93,1.91 z" />
    <path
       id="path365"
       style="fill:#a1a1a1;stroke:#263238;stroke-linecap:round;stroke-linejoin:round"
       d="m 177.44,324.51 c 0,0 2.41,-7.22 -0.74,-8.71 -3.15,-1.49 -23.9,-1.85 -35.94,1.86 -12.04,3.71 -16.67,11.67 -15.37,11.67 1.3,0 43.35,-7.6 52.05,-4.82 z" />
    <path
       id="path367"
       style="fill:#525252;stroke:#263238;stroke-linecap:round;stroke-linejoin:round"
       d="m 144.45,318.62 c -8.72,2.68 -13.56,7.6 -15.06,10.11 10.94,-1.74 40.86,-6.51 48.05,-4.22 0,0 2.15,-6.46 -0.28,-8.41 -7.06,-0.82 -22.82,-0.53 -32.71,2.52 z" />
    <path
       id="path369"
       style="fill:#a1a1a1;stroke:#263238;stroke-linecap:round;stroke-linejoin:round"
       d="m 131.31,326.73 c 0,0 -13.52,2.41 -14.45,9.08 -0.93,6.67 8.53,7.78 13.53,2 5,-5.78 24.61,-10.89 32.61,-11.08 8,-0.19 8.71,1.49 8.15,6.67 -0.56,5.18 -15.37,26.68 -17,32.05 -1.63,5.37 7.41,10 10.19,5.93 2.78,-4.07 11.67,-30.38 12,-39.27 0.33,-8.89 -1.85,-9.82 -8.71,-10.56 -6.86,-0.74 -27.42,1.85 -36.32,5.18 z" />
    <path
       id="path371"
       style="fill:#525252;stroke:#263238;stroke-linecap:round;stroke-linejoin:round"
       d="m 133.54,326.73 c 0,0 -13.53,2.41 -14.45,9.08 -0.92,6.67 8.52,7.78 13.52,2 5,-5.78 24.64,-10.93 32.61,-11.12 7.97,-0.19 8.7,1.49 8.15,6.67 -0.55,5.18 -15.37,26.72 -17.05,32.09 -1.68,5.37 7.41,10 10.19,5.93 2.78,-4.07 11.67,-30.38 12,-39.27 0.33,-8.89 -1.85,-9.82 -8.7,-10.56 -6.85,-0.74 -27.38,1.85 -36.27,5.18 z" />
  </g>
</svg>
