<?xml version="1.0" encoding="UTF-8" standalone="no"?>
<svg
   viewBox="0 0 333.87985 428.03696"
   version="1.1"
   id="svg166"
   sodipodi:docname="Verified-bro.svg"
   width="333.87985"
   height="428.03696"
   inkscape:version="1.1 (c68e22c387, 2021-05-23)"
   xmlns:inkscape="http://www.inkscape.org/namespaces/inkscape"
   xmlns:sodipodi="http://sodipodi.sourceforge.net/DTD/sodipodi-0.dtd"
   xmlns="http://www.w3.org/2000/svg"
   xmlns:svg="http://www.w3.org/2000/svg">
  <defs
     id="defs170" />
  <sodipodi:namedview
     id="namedview168"
     pagecolor="#ffffff"
     bordercolor="#666666"
     borderopacity="1.0"
     inkscape:pageshadow="2"
     inkscape:pageopacity="0.0"
     inkscape:pagecheckerboard="0"
     showgrid="false"
     inkscape:zoom="1.244"
     inkscape:cx="207.79743"
     inkscape:cy="210.61093"
     inkscape:window-width="1368"
     inkscape:window-height="850"
     inkscape:window-x="-6"
     inkscape:window-y="-6"
     inkscape:window-maximized="1"
     inkscape:current-layer="svg166" />
  <g
     id="freepik--Device--inject-66"
     transform="translate(-42.08997,-39.499998)">
    <path
       d="M 248.87,147.22 V 112.3 h -3.16 V 67.6 A 27.55,27.55 0 0 0 218.16,40 h -148 A 27.56,27.56 0 0 0 42.59,67.6 v 300.74 a 27.56,27.56 0 0 0 27.56,27.56 h 148 A 27.55,27.55 0 0 0 245.7,368.34 V 177 h 3.16 v -20.65 h -3.16 v -9.13 z"
       style="fill:#707070;stroke:#263238;stroke-linejoin:round"
       id="path2" />
    <rect
       x="45.779999"
       y="43.84"
       width="196.74001"
       height="348.26001"
       rx="30.52"
       style="fill:#263238;stroke:#263238;stroke-linejoin:round"
       id="rect4" />
    <path
       d="m 209.5,46.34 h -54.64 l -0.06,0.2 c -1.61,5.82 -5.34,9.6 -9.46,9.6 H 143 c -4.13,0 -7.85,-3.78 -9.47,-9.6 l -0.05,-0.2 H 78.81 A 27.56,27.56 0 0 0 51.25,73.9 v 274.76 a 27.55,27.55 0 0 0 27.56,27.55 H 209.5 a 27.54,27.54 0 0 0 27.55,-27.55 V 73.9 A 27.55,27.55 0 0 0 209.5,46.34 Z"
       style="fill:#ffffff;stroke:#263238;stroke-linejoin:round"
       id="path6" />
    <path
       d="m 209.5,46.34 h -54.64 l -0.06,0.2 c -1.61,5.82 -5.34,9.6 -9.46,9.6 H 143 c -4.13,0 -7.85,-3.78 -9.47,-9.6 l -0.05,-0.2 H 78.81 A 27.56,27.56 0 0 0 51.25,73.9 V 77 h 185.8 V 73.9 A 27.55,27.55 0 0 0 209.5,46.34 Z"
       style="fill:#a61c3c"
       id="path8" />
    <path
       d="m 205.79,202 c 0,-6 8.18,-13.06 6.7,-18.62 -1.54,-5.75 -12.19,-7.74 -15.1,-12.78 -2.91,-5.04 0.61,-15.31 -3.54,-19.46 -4.15,-4.15 -14.34,-0.57 -19.46,-3.53 -5.12,-2.96 -7,-13.56 -12.77,-15.1 -5.56,-1.48 -12.59,6.7 -18.62,6.7 -6.03,0 -13.06,-8.18 -18.62,-6.7 -5.75,1.54 -7.74,12.19 -12.78,15.1 -5.04,2.91 -15.31,-0.61 -19.46,3.54 -4.15,4.15 -0.57,14.34 -3.53,19.46 -2.96,5.12 -13.56,7 -15.1,12.77 -1.51,5.56 6.7,12.62 6.7,18.62 0,6 -8.18,13.06 -6.7,18.62 1.54,5.75 12.19,7.74 15.1,12.78 2.91,5.04 -0.61,15.31 3.54,19.46 4.15,4.15 14.34,0.57 19.46,3.53 5.12,2.96 7,13.56 12.77,15.1 5.56,1.48 12.59,-6.7 18.62,-6.7 6.03,0 13.06,8.18 18.62,6.7 5.75,-1.54 7.74,-12.19 12.78,-15.1 5.04,-2.91 15.31,0.61 19.46,-3.54 4.15,-4.15 0.57,-14.34 3.53,-19.46 2.96,-5.12 13.56,-7 15.1,-12.77 1.51,-5.56 -6.7,-12.62 -6.7,-18.62 z"
       style="fill:#a61c3c"
       id="path10" />
    <path
       d="M 142.13,227.16 115,198.44 a 3.4311077,3.4311077 0 0 1 5,-4.7 l 21.3,22.56 26.9,-39 a 3.43,3.43 0 1 1 5.64,3.89 z"
       style="fill:#ffffff"
       id="path12" />
    <path
       d="m 72.15,303.88 -0.82,0.83 -5.64,5.64 -6.48,-6.47 a 4,4 0 0 1 0,-5.64 4,4 0 0 1 5.64,0 l 0.84,0.83 0.82,-0.83 a 4,4 0 0 1 5.64,0 4,4 0 0 1 0,5.64 z"
       style="fill:none;stroke:#263238;stroke-linejoin:round"
       id="path14" />
    <circle
       cx="87.879997"
       cy="303.98001"
       r="8.25"
       style="fill:none;stroke:#263238;stroke-linecap:round;stroke-linejoin:round"
       id="circle16" />
    <path
       d="m 83.06,305.49 a 4.75,4.75 0 0 0 4.82,3.89 4.53,4.53 0 0 0 4.82,-3.89 z"
       style="fill:none;stroke:#263238;stroke-linecap:round;stroke-linejoin:round"
       id="path18" />
    <path
       d="m 85.92,302.46 c 0,0.94 -0.28,1.7 -0.62,1.7 -0.34,0 -0.62,-0.76 -0.62,-1.7 0,-0.94 0.28,-1.71 0.62,-1.71 0.34,0 0.62,0.76 0.62,1.71 z"
       style="fill:#263238"
       id="path20" />
    <path
       d="m 90.57,302.46 c 0,0.94 -0.28,1.7 -0.62,1.7 -0.34,0 -0.62,-0.76 -0.62,-1.7 0,-0.94 0.28,-1.71 0.62,-1.71 0.34,0 0.62,0.76 0.62,1.71 z"
       style="fill:#263238"
       id="path22" />
    <line
       x1="59.380001"
       y1="320.5"
       x2="116.5"
       y2="320.5"
       style="fill:none;stroke:#263238;stroke-linejoin:round"
       id="line24" />
    <line
       x1="162.33"
       y1="328"
       x2="181.67"
       y2="328"
       style="fill:none;stroke:#263238;stroke-linejoin:round"
       id="line26" />
    <line
       x1="146.33"
       y1="328"
       x2="158.33"
       y2="328"
       style="fill:none;stroke:#263238;stroke-linejoin:round"
       id="line28" />
    <line
       x1="98.330002"
       y1="328"
       x2="141.67"
       y2="328"
       style="fill:none;stroke:#263238;stroke-linejoin:round"
       id="line30" />
    <line
       x1="59.380001"
       y1="328"
       x2="93"
       y2="328"
       style="fill:none;stroke:#263238;stroke-linejoin:round"
       id="line32" />
    <line
       x1="132.33"
       y1="336"
       x2="170"
       y2="336"
       style="fill:none;stroke:#263238;stroke-linejoin:round"
       id="line34" />
    <line
       x1="99"
       y1="336"
       x2="127.67"
       y2="336"
       style="fill:none;stroke:#263238;stroke-linejoin:round"
       id="line36" />
    <line
       x1="59.380001"
       y1="336"
       x2="94.330002"
       y2="336"
       style="fill:none;stroke:#263238;stroke-linejoin:round"
       id="line38" />
    <line
       x1="219.67"
       y1="344"
       x2="224.33"
       y2="344"
       style="fill:none;stroke:#263238;stroke-linejoin:round"
       id="line40" />
    <line
       x1="185"
       y1="344"
       x2="216.33"
       y2="344"
       style="fill:none;stroke:#263238;stroke-linejoin:round"
       id="line42" />
    <line
       x1="123.67"
       y1="344"
       x2="177"
       y2="344"
       style="fill:none;stroke:#263238;stroke-linejoin:round"
       id="line44" />
    <line
       x1="73"
       y1="344"
       x2="118.33"
       y2="344"
       style="fill:none;stroke:#263238;stroke-linejoin:round"
       id="line46" />
    <line
       x1="59.380001"
       y1="344"
       x2="67.669998"
       y2="344"
       style="fill:none;stroke:#263238;stroke-linejoin:round"
       id="line48" />
    <circle
       cx="70.870003"
       cy="102.67"
       r="10.96"
       style="fill:#595959"
       id="circle50" />
    <line
       x1="87.309998"
       y1="103.17"
       x2="125.18"
       y2="103.17"
       style="fill:none;stroke:#263238;stroke-linejoin:round"
       id="line52" />
    <circle
       cx="143.59"
       cy="47.66"
       r="2.5899999"
       style="fill:#707070"
       id="circle54" />
    <path
       d="m 67.76,57.58 c 0,2.61 -2.93,3.56 -3,5.55 v 0.14 h 2.86 v 0.88 h -3.76 v -0.74 c 0,-2.81 2.94,-3.35 2.94,-5.8 0,-0.89 -0.3,-1.36 -1,-1.36 -0.7,0 -1,0.51 -1,1.28 v 0.77 h -0.9 v -0.71 c 0,-1.33 0.61,-2.21 2,-2.21 1.39,0 1.86,0.87 1.86,2.2 z"
       style="fill:#ffffff"
       id="path56" />
    <path
       d="m 72.52,57.56 v 0.23 a 1.72,1.72 0 0 1 -1.06,1.78 1.74,1.74 0 0 1 1.06,1.8 V 62 c 0,1.33 -0.62,2.2 -2,2.2 -1.38,0 -2,-0.87 -2,-2.2 v -0.59 h 0.91 v 0.65 c 0,0.78 0.32,1.26 1,1.26 0.68,0 1,-0.46 1,-1.34 v -0.67 c 0,-0.86 -0.36,-1.27 -1.09,-1.29 h -0.52 v -0.87 h 0.57 a 1,1 0 0 0 1,-1.19 v -0.4 c 0,-0.89 -0.31,-1.35 -1,-1.35 -0.69,0 -1,0.48 -1,1.26 V 58 h -0.91 v -0.4 c 0,-1.32 0.62,-2.18 2,-2.18 1.38,0 2.04,0.82 2.04,2.14 z"
       style="fill:#ffffff"
       id="path58" />
    <path
       d="m 74.39,58.22 v 1.2 h -0.93 v -1.2 z m 0,4.73 v 1.2 H 73.46 V 63 Z"
       style="fill:#ffffff"
       id="path60" />
    <path
       d="m 76.35,59 a 1.4,1.4 0 0 1 1.29,-0.72 c 1.12,0 1.61,0.82 1.61,2.06 V 62 c 0,1.33 -0.63,2.2 -2,2.2 -1.37,0 -1.94,-0.87 -1.94,-2.2 v -0.58 h 0.9 v 0.64 c 0,0.78 0.32,1.26 1,1.26 0.68,0 1,-0.48 1,-1.26 v -1.64 c 0,-0.78 -0.33,-1.26 -1,-1.26 a 0.94,0.94 0 0 0 -1,0.93 v 0.2 H 75.3 l 0.24,-4.82 H 79 v 0.87 h -2.51 z"
       style="fill:#ffffff"
       id="path62" />
    <path
       d="m 84.08,57.55 v 0.16 h -0.91 v -0.22 c 0,-0.78 -0.32,-1.24 -1,-1.24 -0.68,0 -1.06,0.47 -1.06,1.4 v 2 a 1.4,1.4 0 0 1 1.4,-0.93 c 1.12,0 1.61,0.8 1.61,2.06 V 62 c 0,1.33 -0.65,2.2 -2,2.2 -1.35,0 -2,-0.87 -2,-2.2 v -4.39 c 0,-1.37 0.62,-2.23 2,-2.23 1.38,0 1.96,0.84 1.96,2.17 z m -3,3.25 v 1.3 c 0,0.78 0.32,1.26 1,1.26 0.68,0 1,-0.48 1,-1.26 v -1.3 c 0,-0.78 -0.34,-1.25 -1,-1.25 -0.66,0 -0.99,0.45 -0.99,1.25 z"
       style="fill:#ffffff"
       id="path64" />
    <rect
       x="176.41"
       y="57.93"
       width="2.45"
       height="6.1300001"
       style="fill:#ffffff"
       id="rect66" />
    <rect
       x="179.67999"
       y="56.700001"
       width="2.45"
       height="7.3600001"
       style="fill:#ffffff"
       id="rect68" />
    <rect
       x="182.95"
       y="55.830002"
       width="2.45"
       height="8.2299995"
       style="fill:#ffffff"
       id="rect70" />
    <rect
       x="186.22"
       y="54.32"
       width="2.45"
       height="9.7399998"
       style="fill:#ffffff"
       id="rect72" />
    <path
       d="m 219,63.89 h -14.7 v -9 H 219 Z m -13.9,-0.81 h 13.08 v -7.36 h -13.07 z"
       style="fill:#ffffff"
       id="path74" />
    <rect
       x="206.34"
       y="56.610001"
       width="7.7600002"
       height="5.5799999"
       style="fill:#ffffff"
       id="rect76" />
    <rect
       x="218.5"
       y="58.34"
       width="1.85"
       height="2.1199999"
       style="fill:#ffffff"
       id="rect78" />
    <path
       d="m 198.9,61.94 a 0.6,0.6 0 0 1 -0.28,-0.08 c -3,-1.78 -5,-0.13 -5.05,-0.06 a 0.55,0.55 0 1 1 -0.72,-0.82 c 0.1,-0.1 2.63,-2.26 6.34,-0.06 a 0.55,0.55 0 0 1 0.19,0.75 0.57,0.57 0 0 1 -0.48,0.27 z"
       style="fill:#ffffff"
       id="path80" />
    <path
       d="m 200,60.09 a 0.5,0.5 0 0 1 -0.28,-0.08 c -4.33,-2.57 -7.24,-0.08 -7.27,-0.06 a 0.53,0.53 0 0 1 -0.77,-0.05 0.54,0.54 0 0 1 0.05,-0.77 c 0,0 3.54,-3 8.55,-0.06 a 0.54,0.54 0 0 1 0.19,0.75 0.53,0.53 0 0 1 -0.47,0.27 z"
       style="fill:#ffffff"
       id="path82" />
    <path
       d="m 201,58 a 0.53,0.53 0 0 1 -0.28,-0.07 c -5.49,-3.26 -9.13,-0.2 -9.28,-0.06 a 0.55267531,0.55267531 0 0 1 -0.73,-0.83 c 0.05,0 4.38,-3.74 10.57,-0.06 a 0.55,0.55 0 0 1 0.19,0.75 A 0.54,0.54 0 0 1 201,58 Z"
       style="fill:#ffffff"
       id="path84" />
    <path
       d="m 197.25,62.86 a 1.38,1.38 0 1 1 -1.38,-1.38 1.38,1.38 0 0 1 1.38,1.38 z"
       style="fill:#ffffff"
       id="path86" />
  </g>
  <g
     id="freepik--Character--inject-66"
     transform="translate(-42.08997,-39.499998)">
    <path
       d="m 286.21,296 c 0,0 -3.71,22.07 -1,34.73 2.71,12.66 8.38,29.3 9,31.93 0.62,2.63 -2.09,14.29 -1,22.92 1.09,8.63 3.58,35.76 3.58,35.76 0,0 -0.46,6.76 0.57,8.41 a 10,10 0 0 1 1.41,5.24 c 0.08,1.93 -1.29,3.91 0,5.3 1.29,1.39 2.27,2.56 2.33,4 0.06,1.44 0.11,2.88 0.15,3.84 0.04,0.96 -7.47,12.1 -7.34,15.47 0.13,3.37 3,3.5 7.07,2.13 4.07,-1.37 7.65,-7.53 7.65,-7.53 l 0.36,2.88 a 1.27,1.27 0 0 0 1.65,-0.79 20.71,20.71 0 0 0 0.27,-5.31 c 0,-1 0.85,-2.92 0.73,-6.05 a 44.77,44.77 0 0 0 -1,-6.95 c 0,0 0.85,-2.92 1,-4.13 0.15,-1.21 -1,-2.13 -0.2,-5.29 0.8,-3.16 2,-3.22 2,-5.14 a 22.17,22.17 0 0 0 -0.71,-5.76 c -0.54,-1.66 1.8,-15.48 1.73,-17.41 -0.07,-1.93 0.19,-7.23 0.19,-7.23 0,0 2.56,-8.54 2.43,-11.9 -0.13,-3.36 -0.29,-25.53 -0.29,-25.53 l -0.32,-8.18 c 0,0 0.72,12 2.17,18.47 1.45,6.47 4.12,24.89 5.72,28.92 1.6,4.03 3.91,13.58 4.78,17.4 0.87,3.82 2.13,11.24 2.13,11.24 a 11,11 0 0 0 -0.29,4.83 21.07,21.07 0 0 0 0.63,3.83 c 0,0 -1.55,3.43 -1.27,4.38 a 34,34 0 0 1 0.43,4.81 c 0,0.72 -1.55,3.43 -2.84,7.58 -1.29,4.15 -5.66,9.13 -1.89,13.08 3.77,3.95 10.21,-3.78 11.25,-7.91 1.04,-4.13 3.4,-11.7 3.61,-12.43 a 13.87,13.87 0 0 0 1.72,-5.13 24.52,24.52 0 0 0 0,-5.54 23.16,23.16 0 0 0 1,-4.14 c 0.17,-1.69 0,-5.3 0,-5.3 0,0 3.7,-16 4,-21.35 0.3,-5.35 -1.61,-16.32 -1.93,-18.24 -0.32,-1.92 0,-6.5 -0.79,-7.91 -0.79,-1.41 -2.41,-6.17 -2.41,-6.17 0,0 12,-26.73 13.79,-41.26 1.79,-14.53 1.13,-26.54 0.31,-28.92 -0.82,-2.38 -1.62,-4.51 -1.62,-4.51 0,0 -10.08,7.14 -31.88,4.14 -21.8,-3 -30.28,-4.1 -32.47,-4.74 A 15.29,15.29 0 0 0 286.21,296 Z"
       style="fill:#263238;stroke:#263238;stroke-linejoin:round"
       id="path89" />
    <path
       d="m 306.67,149 c 0,0 -5.77,0.48 -11.29,7.24 -5.52,6.76 -8.19,15.67 -6.58,18.12 1.61,2.45 3.53,6.66 3.57,7.66 0.04,1 -7.47,8.35 -5.33,11.53 2.14,3.18 2.72,5.18 1,5.5 -1.72,0.32 -4.66,2.95 -4.09,4.69 0.57,1.74 3.64,3.13 2.47,5.19 -1.17,2.06 -2.19,1.84 -2.1,4.36 0.09,2.52 2.58,4.44 1.27,4.86 -1.31,0.42 -3.8,1 -3,2.75 a 23.12,23.12 0 0 0 2.67,3.92 c 0,0 9.69,9.68 28.87,11.19 19.18,1.51 36.87,-15.79 39.53,-18.41 2.66,-2.62 3.14,-3.4 3.08,-4.9 -0.06,-1.5 -1.13,-3.23 -1.71,-5 -0.58,-1.77 0.05,-5.28 0,-6 -0.05,-0.72 -1.87,-2.69 -3.17,-3.64 -1.3,-0.95 -1.65,-3.71 -1.25,-6.25 0.4,-2.54 -2.18,-4.19 -3.21,-4.9 -1.03,-0.71 -1.88,-2.95 -1.21,-5.24 0.67,-2.29 -2.44,-4.43 -3.74,-5.38 -1.3,-0.95 -1.63,-3.21 -1.23,-5.74 0.4,-2.53 -3.07,-7.68 -4.92,-9.87 -1.85,-2.19 -4.39,-9.39 -14.06,-12 -9.67,-2.61 -15.57,0.32 -15.57,0.32 z"
       style="fill:#263238;stroke:#263238;stroke-linejoin:round"
       id="path91" />
    <path
       d="m 318.92,202.88 c 0,0 -10.83,6.2 -18.2,8.66 -7.37,2.46 -7.69,18.86 -7.53,22.94 0.16,4.08 -3.9,29.55 -1.36,32.82 2.54,3.27 25.64,2.6 33.57,2.05 7.93,-0.55 13.53,1.15 18.75,-1 5.22,-2.15 5.87,-3.84 5.77,-6.49 -0.1,-2.65 0.44,-31.57 0.22,-37.11 -0.22,-5.54 -1.73,-13.42 -3.72,-15 -1.99,-1.58 -6.14,-2.89 -12.23,-4.57 -6.09,-1.68 -15.27,-2.3 -15.27,-2.3 z"
       style="fill:#ffffff;stroke:#263238;stroke-linejoin:round"
       id="path93" />
    <path
       d="m 289.54,276.55 c 0,0 -4,20.87 -3.92,22.79 a 21.73,21.73 0 0 1 -0.32,4.11 c 0,0 8.78,2.55 12.4,2.89 3.62,0.34 11.59,0.5 15,1.33 3.41,0.83 17.59,0 22.6,-1.13 5.01,-1.13 8.59,-2.26 11.44,-3.1 a 62.48,62.48 0 0 0 6.88,-2.68 l 2.82,-2 -5.91,-21.44 c 0,0 -10.29,1.61 -20.38,2.48 -10.09,0.87 -29.21,-1.5 -31.87,-1.87 -2.66,-0.37 -8.74,-1.38 -8.74,-1.38 z"
       style="fill:#ffffff;stroke:#263238;stroke-linejoin:round"
       id="path95" />
    <line
       x1="298.57001"
       y1="293.39999"
       x2="298.28"
       y2="296.12"
       style="fill:none;stroke:#263238;stroke-linejoin:round"
       id="line97" />
    <line
       x1="299.82999"
       y1="281.47"
       x2="298.82001"
       y2="291.04999"
       style="fill:none;stroke:#263238;stroke-linejoin:round"
       id="line99" />
    <line
       x1="298.26001"
       y1="282.07001"
       x2="295.92001"
       y2="290.10999"
       style="fill:none;stroke:#263238;stroke-linejoin:round"
       id="line101" />
    <line
       x1="331.14999"
       y1="282.35999"
       x2="330.79999"
       y2="293.78"
       style="fill:none;stroke:#263238;stroke-linejoin:round"
       id="line103" />
    <line
       x1="339.19"
       y1="294.01999"
       x2="339.69"
       y2="297.14001"
       style="fill:none;stroke:#263238;stroke-linejoin:round"
       id="line105" />
    <line
       x1="337.22"
       y1="281.59"
       x2="338.69"
       y2="290.84"
       style="fill:none;stroke:#263238;stroke-linejoin:round"
       id="line107" />
    <path
       d="m 349.92,261.88 c -0.11,-2.64 0.44,-31.57 0.22,-37.11 -0.11,-2.79 -0.37,-1.68 -1,-4.56 -3.5,3.28 -11.25,8.7 -26.5,10.46 a 48.37,48.37 0 0 1 -28.88,-5.84 58.09,58.09 0 0 0 -0.53,9.65 c 0.16,4.09 -3.9,29.55 -1.36,32.82 2.54,3.27 25.64,2.6 33.57,2.05 7.93,-0.55 13.53,1.15 18.75,-1 5.22,-2.15 5.81,-3.82 5.73,-6.47 z"
       style="fill:#ffffff;stroke:#263238;stroke-linejoin:round"
       id="path109" />
    <path
       d="m 324,261.05 a 67.17,67.17 0 0 0 7.58,-1.09"
       style="fill:none;stroke:#263238;stroke-linejoin:round"
       id="path111" />
    <path
       d="M 299.48,259.77 A 93.3,93.3 0 0 0 321,261.26"
       style="fill:none;stroke:#263238;stroke-linejoin:round"
       id="path113" />
    <path
       d="m 302.49,256.52 a 11,11 0 0 0 9.57,4.44"
       style="fill:none;stroke:#263238;stroke-linejoin:round"
       id="path115" />
    <path
       d="m 313.65,258.49 a 16.47,16.47 0 0 0 4.19,2.49"
       style="fill:none;stroke:#263238;stroke-linejoin:round"
       id="path117" />
    <path
       d="m 327.21,260.37 a 22.26,22.26 0 0 0 4.35,-5.72"
       style="fill:none;stroke:#263238;stroke-linejoin:round"
       id="path119" />
    <path
       d="m 289.85,265.93 c 0,0 21.83,3.72 32.65,3.29 10.82,-0.43 27.23,-5.89 27.23,-5.89 l 0.79,13.95 c 0,0 -9.67,5.19 -29.89,5.51 -20.22,0.32 -31.69,-3.33 -31.69,-3.33 z"
       style="fill:#263238;stroke:#263238;stroke-linejoin:round"
       id="path121" />
    <path
       d="m 310.84,217.89 c 0,0 -0.23,-6 -0.45,-11.55 a 30.88,30.88 0 0 0 -1,-7.9 30.89,30.89 0 0 0 7.77,1.38 c 3.86,0.08 9.64,-5.92 10.08,-6.91 0.44,-0.99 1.1,-2.69 1.1,-2.69 0,0 0.61,9.37 1.48,12.95 0.87,3.58 1.43,5.73 1.43,5.73"
       style="fill:#ffffff;stroke:#263238;stroke-miterlimit:10"
       id="path123" />
    <path
       d="m 314.38,208 c 5.86,-3.22 10.91,-10.69 10.91,-10.69 l 0.34,-2.53 c -2.08,2.1 -5.78,5.1 -8.51,5 a 30.89,30.89 0 0 1 -7.77,-1.38 30.88,30.88 0 0 1 1,7.9 c 0.05,1.25 0.1,2.52 0.14,3.74 0.99,-0.46 2.23,-1.13 3.89,-2.04 z"
       style="fill:#263238;stroke:#263238;stroke-linejoin:round"
       id="path125" />
    <path
       d="m 332,173.45 -3.84,0.4 c 0,0 -0.08,-0.55 -0.31,-1.44 l -0.49,-0.46 c -0.75,-0.69 -1,-0.44 -2.19,-0.64 -1.19,-0.2 -1.77,-2.09 -1.85,-4 -0.08,-1.91 -2.5,-2.31 -5.22,-4.13 -2.23,-1.49 -3.23,-4.64 -3.52,-5.74 a 16.62,16.62 0 0 0 -2.7,-0.1 17.34,17.34 0 0 1 -2.22,5.69 c -1.82,2.72 -3.51,2.55 -3.93,4 -0.42,1.45 -1.56,3.19 -2.52,3.47 -0.96,0.28 -3.35,0.38 -3.31,1.58 0.04,1.2 -0.59,3.15 -1.3,3.66 l -0.53,0.39 c 0.43,2.71 1,4.9 1,5.38 0,1 0.28,7.21 3.07,10.72 2.79,3.51 8.15,11.24 14.41,11 6.26,-0.24 11.21,-8.87 12.09,-11.07 0.88,-2.2 1.11,-8.48 1.11,-8.48 a 14.09,14.09 0 0 0 3,-4.45 c 1.04,-2.72 -0.75,-5.78 -0.75,-5.78 z"
       style="fill:#ffffff;stroke:#263238;stroke-linejoin:round"
       id="path127" />
    <path
       d="m 298.22,172.62 c -0.07,-1.69 1.5,-4.64 2.22,-4.67 a 6.19,6.19 0 0 0 3.51,-2.79 c 0.43,-1.22 0.14,-2.41 1.33,-2.94 1.19,-0.53 1.11,-2.21 1.11,-2.21 0,0 -3.23,3.5 -5.12,4.54 a 11.53,11.53 0 0 0 -3.5,2.78 22.44,22.44 0 0 0 0,6.51 1.36,1.36 0 0 0 0.45,-1.22 z"
       style="fill:#ffffff;stroke:#263238;stroke-linejoin:round"
       id="path129" />
    <path
       d="m 311.7,190.63 c 0,0 1.52,2.11 4.35,0.31"
       style="fill:none;stroke:#263238;stroke-linejoin:round"
       id="path131" />
    <path
       d="m 311.84,194.24 c 0,0 4.89,1.74 6.67,-2"
       style="fill:none;stroke:#263238;stroke-linejoin:round"
       id="path133" />
    <path
       d="m 306.76,181.7 c 0.14,1 -0.18,1.85 -0.71,1.92 -0.53,0.07 -1.05,-0.62 -1.19,-1.62 -0.14,-1 0.18,-1.84 0.7,-1.92 0.52,-0.08 1.07,0.63 1.2,1.62 z"
       style="fill:#263238"
       id="path135" />
    <path
       d="m 318.75,180.15 c 0.13,1 -0.18,1.84 -0.71,1.91 -0.53,0.07 -1.07,-0.67 -1.2,-1.65 -0.13,-0.98 0.18,-1.85 0.71,-1.92 0.53,-0.07 1.06,0.67 1.2,1.66 z"
       style="fill:#263238"
       id="path137" />
    <path
       d="m 301.56,178 c 0,0 1.12,-2.21 5,-1.88"
       style="fill:none;stroke:#263238;stroke-linejoin:round"
       id="path139" />
    <path
       d="m 315,175.33 c 0,0 3.78,-1.84 6.76,0.46"
       style="fill:none;stroke:#263238;stroke-linejoin:round"
       id="path141" />
    <path
       d="m 307.29,176.59 c 0,0 3.26,3.25 3.39,6.62"
       style="fill:none;stroke:#263238;stroke-linejoin:round"
       id="path143" />
    <path
       d="m 321.42,309 c 0,0 -3.95,3.77 -4.79,13 -0.84,9.23 -0.84,27.74 -0.84,27.74 0,0 0.6,6.11 0.87,9.84"
       style="fill:none;stroke:#808080;stroke-linejoin:round"
       id="path145" />
    <path
       d="m 317.35,314.35 a 18.18,18.18 0 0 1 -3.55,-3.28"
       style="fill:none;stroke:#808080;stroke-linejoin:round"
       id="path147" />
    <path
       d="m 325.87,403.79 c 1.26,4.39 2.54,9.74 3.14,12.37 0.87,3.82 2.13,11.24 2.13,11.24 a 11,11 0 0 0 -0.29,4.83 21.07,21.07 0 0 0 0.63,3.83 c 0,0 -1.55,3.43 -1.27,4.38 a 34,34 0 0 1 0.43,4.81 c 0,0.72 -1.55,3.43 -2.84,7.58 -1.29,4.15 -5.66,9.13 -1.89,13.08 3.77,3.95 10.21,-3.78 11.25,-7.91 1.04,-4.13 3.4,-11.7 3.61,-12.43 a 13.87,13.87 0 0 0 1.72,-5.13 24.52,24.52 0 0 0 0,-5.54 23.16,23.16 0 0 0 1,-4.14 c 0.17,-1.69 0,-5.3 0,-5.3 0,0 3.7,-16 4,-21.35 a 33.94,33.94 0 0 0 -0.06,-3.57 35.84,35.84 0 0 1 -21.56,3.25 z"
       style="fill:#595959;stroke:#263238;stroke-linejoin:round"
       id="path149" />
    <path
       d="m 308.5,458.16 0.36,2.88 a 1.27,1.27 0 0 0 1.65,-0.79 20.71,20.71 0 0 0 0.27,-5.31 c 0,-1 0.85,-2.92 0.73,-6.05 a 44.77,44.77 0 0 0 -1,-6.95 c 0,0 0.85,-2.92 1,-4.13 0.15,-1.21 -1,-2.13 -0.2,-5.29 0.8,-3.16 2,-3.22 2,-5.14 a 22.17,22.17 0 0 0 -0.71,-5.76 c -0.54,-1.66 1.8,-15.48 1.73,-17.41 0,-0.6 0,-1.53 0,-2.53 -6.39,2.43 -14.41,1.39 -19.5,0.27 1,9.64 1.85,19.34 1.85,19.34 0,0 -0.46,6.76 0.57,8.41 a 10,10 0 0 1 1.41,5.24 c 0.08,1.93 -1.29,3.91 0,5.3 1.29,1.39 2.27,2.56 2.33,4 0.06,1.44 0.11,2.88 0.15,3.84 0.04,0.96 -7.47,12.1 -7.34,15.47 0.13,3.37 3,3.5 7.07,2.13 4.07,-1.37 7.63,-7.52 7.63,-7.52 z"
       style="fill:#595959;stroke:#263238;stroke-linejoin:round"
       id="path151" />
    <path
       d="m 310.19,207.56 c 0,0 -5.27,13 -6.79,23.15 -1.52,10.15 -4,27.86 -5,31.27 -1,3.41 -3.81,7.38 -7.16,26.3 -3.35,18.92 -1,41 -1,41 0,0 -0.93,1 -5.05,0.44 a 37.58,37.58 0 0 1 -8.28,-2.33 c 0,0 1.57,-21.26 3.43,-29 1.86,-7.74 6.2,-26.26 6.2,-26.26 l -0.11,-8.91 A 76.55,76.55 0 0 1 281.49,274 c -2.7,4.69 -5.52,6.48 -10.09,6.66 -4.57,0.18 -7.8,-8.36 -4.72,-15.71 3.08,-7.35 6.08,-16.86 7.81,-22 1.73,-5.14 7.1,-21.48 11.07,-24.77 3.97,-3.29 22.69,-11.03 24.63,-10.62 z"
       style="fill:#a61c3c;stroke:#263238;stroke-linejoin:round"
       id="path153" />
    <path
       d="m 332,204.29 c 0,0 -1,29.19 0.59,39.48 1.59,10.29 7.18,23.33 8.84,28.81 1.66,5.48 3.64,25.15 5.14,32.56 1.5,7.41 1,25.25 1,25.25 0,0 3.85,-0.15 6.27,0 2.42,0.15 12.08,-5.06 12.08,-5.06 0,0 -1.25,-13.44 -3.78,-22.73 -2.53,-9.29 -7.4,-28.86 -8.05,-33.17 -0.65,-4.31 -1.81,-9.09 -1.86,-10.53 -0.05,-1.44 2,-10 2,-10 0,0 7.37,-21 6.62,-27.72 -0.75,-6.72 -9.33,-10.47 -13.5,-12.48 -4.17,-2.01 -15.35,-4.41 -15.35,-4.41 z"
       style="fill:#a61c3c;stroke:#263238;stroke-linejoin:round"
       id="path155" />
    <path
       d="m 352.92,246.35 5.72,22.9 c 0,0 -1.31,3.42 -0.31,4.35 a 3.29,3.29 0 0 1 1,2.12 c 0,0 -0.83,3.41 0.2,5 1.03,1.59 5.73,35.43 5.73,35.43 0,0 -3.93,4 -3.87,5.69 a 14.22,14.22 0 0 1 -0.77,4.85 c -0.43,1.23 -2,3.7 -1.29,3.91 0.71,0.21 3.57,-1.11 3.77,-2.08 a 9.74,9.74 0 0 1 0.88,-2.2 l 0.65,-1.71 a 62.35,62.35 0 0 1 0.27,6.73 10.64,10.64 0 0 1 -1.06,3.66 c -0.68,1.23 -2.28,3.22 -1.06,3.65 1.22,0.43 4.88,-4.52 4.88,-4.52 a 10.57,10.57 0 0 0 3.08,-1.33 c 1.64,-1 3,-4.45 3.15,-5.67 0.15,-1.22 0,-6 0,-6.74 0,-0.74 -1,-6.23 -1,-6.23 0,0 2.84,-25.64 2.56,-32.86 a 132.84,132.84 0 0 0 -1.26,-13.44 l -0.94,-5.5 c 0,0 -2.17,-30.75 -5.56,-37.37 -3.39,-6.62 -8.9,-11.69 -13.27,-12.72"
       style="fill:#ffffff;stroke:#263238;stroke-linejoin:round"
       id="path157" />
    <path
       d="m 352.51,245.61 6.13,23.64 c 0,0 -1.31,3.42 -0.31,4.35 a 3.29,3.29 0 0 1 1,2.12 c 0,0 -0.83,3.41 0.2,5 a 11.11,11.11 0 0 1 0.62,2.37 c 2.87,-1.87 9.45,-5.12 14.42,0.17 a 2.45,2.45 0 0 0 0.88,0.64 c 0,-1 0,-1.9 0,-2.6 a 132.84,132.84 0 0 0 -1.26,-13.44 l -0.94,-5.5 c 0,0 -2.17,-30.75 -5.56,-37.37 -3.39,-6.62 -10.08,-11.64 -14.46,-12.68"
       style="fill:#a61c3c;stroke:#263238;stroke-linejoin:round"
       id="path159" />
    <polygon
       points="298.37,261.99 291.44,235.39 276.49,237.29 284.8,262.51 "
       style="fill:#263238;stroke:#263238;stroke-linejoin:round"
       id="polygon161" />
    <path
       d="m 285.07,267.23 a 2.37,2.37 0 0 0 0.82,-1 c 0.51,-1.34 1.38,-3.06 1.38,-3.06 0,0 4.25,-1.86 4.8,-2.26 0.55,-0.4 4.26,-1.48 4.78,-2.44 0.52,-0.96 0.51,-1.52 -1.35,-0.89 -1.86,0.63 -7.6,2.37 -7.6,2.37 0,0 0.92,-0.41 1.65,-0.82 0.73,-0.41 5.69,-3.42 6.25,-3.63 0.56,-0.21 0.7,-1.34 0.29,-2.07 -0.41,-0.73 -0.73,0.4 -2.4,1 -1.67,0.6 -7.79,2.57 -7.79,2.57 l 3.29,-2.38 c 0.55,-0.4 5.53,-2.66 5.53,-2.66 0,0 1.47,-0.81 1.43,-1.75 -0.04,-0.94 -0.6,-1.1 -1.16,-0.89 -0.56,0.21 -4.3,0.54 -5.59,1.16 -1.29,0.62 -5.52,2.84 -5.52,2.84 l 1.9,-4.2 c 0,0 5.12,-3.59 5.86,-3.8 0.74,-0.21 2.21,-1.22 2,-2 -0.21,-0.78 -1.72,-0.87 -1.72,-0.87 0,0 -6.49,2.13 -7.76,3.5 -1.27,1.37 -3.77,4.28 -3.77,4.28 a 17.84,17.84 0 0 1 -1.09,-3.71 c 0,-1.13 -0.12,-3.19 -0.92,-4.29 -0.8,-1.1 -1,-0.71 -1,-0.71 0,0 0,6 -0.31,6.58 -0.31,0.58 2.65,10 2.65,10 L 281,262 a 65.51,65.51 0 0 1 -7.49,0.67 c -1.88,-0.12 -4.37,3.36 -4.76,7.7 a 6.83,6.83 0 0 0 6.68,7.44 c 3.37,-0.14 5.89,-2.86 7.14,-4.6 a 15.11,15.11 0 0 0 1.89,-4.59 z"
       style="fill:#ffffff;stroke:#263238;stroke-linejoin:round"
       id="path163" />
  </g>
</svg>
