<?xml version="1.0" encoding="UTF-8" standalone="no"?>
<svg
   viewBox="0 0 421.40506 421.1694"
   version="1.1"
   id="svg227"
   sodipodi:docname="Selecting team-bro (1).svg"
   width="421.40506"
   height="421.1694"
   inkscape:version="1.1 (c68e22c387, 2021-05-23)"
   xmlns:inkscape="http://www.inkscape.org/namespaces/inkscape"
   xmlns:sodipodi="http://sodipodi.sourceforge.net/DTD/sodipodi-0.dtd"
   xmlns="http://www.w3.org/2000/svg"
   xmlns:svg="http://www.w3.org/2000/svg">
  <defs
     id="defs231" />
  <sodipodi:namedview
     id="namedview229"
     pagecolor="#ffffff"
     bordercolor="#666666"
     borderopacity="1.0"
     inkscape:pageshadow="2"
     inkscape:pageopacity="0.0"
     inkscape:pagecheckerboard="0"
     showgrid="false"
     inkscape:zoom="1.244"
     inkscape:cx="217.84566"
     inkscape:cy="198.55305"
     inkscape:window-width="1368"
     inkscape:window-height="850"
     inkscape:window-x="-6"
     inkscape:window-y="-6"
     inkscape:window-maximized="1"
     inkscape:current-layer="svg227" />
  <g
     id="freepik--character-5--inject-2"
     transform="translate(-32.074827,-51.830586)">
    <path
       d="m 388.19,215.57 c 0,0 -6.39,0 -13.06,7 -6.67,7 -10.38,16.54 -8.83,19.43 1.55,2.89 3.32,7.64 3.27,8.75 -0.05,1.11 -8.95,8.54 -6.87,12.24 2.08,3.7 2.54,5.94 0.59,6.14 -1.95,0.2 -5.4,2.84 -4.92,4.81 0.48,1.97 3.75,3.76 2.27,5.93 -1.48,2.17 -2.57,1.84 -2.68,4.62 -0.11,2.78 2.44,5.12 1,5.47 -1.44,0.35 -4.27,0.79 -3.51,2.77 a 25.64,25.64 0 0 0 2.6,4.55 c 0,0 9.83,11.5 30.83,14.83 21,3.33 42,-14.19 45.14,-16.84 3.14,-2.65 3.75,-3.47 3.82,-5.13 0.07,-1.66 -1,-3.66 -1.45,-5.62 -0.45,-1.96 0.51,-5.82 0.54,-6.65 0.03,-0.83 -1.82,-3.13 -3.16,-4.3 -1.34,-1.17 -1.5,-4.23 -0.84,-7 0.66,-2.77 -2,-4.81 -3.11,-5.68 -1.11,-0.87 -1.81,-3.41 -0.88,-5.88 0.93,-2.47 -2.3,-5.09 -3.65,-6.26 -1.35,-1.17 -1.52,-3.67 -0.86,-6.42 0.66,-2.75 -2.71,-8.73 -4.55,-11.3 -1.84,-2.57 -4,-10.73 -14.45,-14.47 -10.45,-3.74 -17.24,-0.99 -17.24,-0.99 z"
       style="fill:#263238;stroke:#263238;stroke-linecap:round;stroke-linejoin:round"
       id="path2" />
    <path
       d="m 365,316 a 58.86,58.86 0 0 0 63.22,-3.24 c 0,-5.29 0.05,-9.74 0,-11.65 -0.24,-6.11 -1.91,-14.83 -4.11,-16.61 -2.2,-1.78 -6.78,-3.19 -13.51,-5.06 -6.73,-1.87 -16.87,-2.53 -16.87,-2.53 0,0 -12,6.86 -20.12,9.58 -8.12,2.72 -8.5,20.83 -8.32,25.35 A 40.05,40.05 0 0 1 365,316 Z"
       style="fill:#ffffff;stroke:#263238;stroke-linecap:round;stroke-linejoin:round"
       id="path4" />
    <path
       d="m 365,316 a 58.86,58.86 0 0 0 63.22,-3.24 c 0,-5.29 0.05,-9.74 0,-11.65 -0.12,-3.09 -0.41,-1.86 -1.15,-5.05 -3.86,3.63 -12.43,9.62 -29.28,11.57 -15.37,1.78 -28,-4 -31.91,-6.46 A 65.28,65.28 0 0 0 365.29,311.84 40.05,40.05 0 0 1 365,316 Z"
       style="fill:#ffffff;stroke:#263238;stroke-linecap:round;stroke-linejoin:round"
       id="path6" />
    <path
       d="m 384.79,293.46 -0.5,-12.76 c -0.24,-6.11 -1.15,-8.73 -1.15,-8.73 a 34.26,34.26 0 0 0 8.58,1.52 c 4.27,0.1 10.66,-6.54 11.15,-7.63 0.49,-1.09 1.21,-3 1.21,-3 0,0 0.68,10.35 1.63,14.31 0.95,3.96 1.58,6.33 1.58,6.33"
       style="fill:#ffffff;stroke:#263238;stroke-linecap:round;stroke-miterlimit:10"
       id="path8" />
    <path
       d="m 388.69,282.54 c 6.48,-3.57 12.07,-11.82 12.07,-11.82 l 0.37,-2.79 c -2.3,2.32 -6.39,5.63 -9.41,5.56 a 34.26,34.26 0 0 1 -8.58,-1.52 c 0,0 0.91,2.62 1.15,8.73 0,1.38 0.11,2.78 0.16,4.13 1.05,-0.55 2.42,-1.29 4.24,-2.29 z"
       style="fill:#263238;stroke:#263238;stroke-linecap:round;stroke-linejoin:round"
       id="path10" />
    <path
       d="m 413.48,247.47 -4.25,-0.29 c 0,0 0,-0.62 -0.06,-1.63 l -0.45,-0.59 c -0.69,-0.89 -1,-0.67 -2.27,-1.11 -1.27,-0.44 -1.53,-2.61 -1.25,-4.72 0.28,-2.11 -2.29,-3 -4.91,-5.49 -2.14,-2 -2.64,-5.66 -2.74,-6.91 a 18.52,18.52 0 0 0 -2.93,-0.62 19.3,19.3 0 0 1 -3.48,5.78 c -2.5,2.62 -4.31,2.11 -5.05,3.62 -0.74,1.51 -2.3,3.18 -3.39,3.3 -1.09,0.12 -3.73,-0.22 -3.9,1.09 -0.17,1.31 -1.25,3.33 -2.11,3.75 L 376,244 c 0,3 0.15,5.52 0.08,6 -0.14,1.06 -1.05,7.91 1.32,12.25 2.37,4.34 6.78,13.75 13.6,14.75 6.82,1 13.88,-7.55 15.25,-9.78 1.37,-2.23 2.81,-9 2.81,-9 a 15.38,15.38 0 0 0 4.06,-4.29 c 1.75,-2.78 0.36,-6.46 0.36,-6.46 z"
       style="fill:#ffffff;stroke:#263238;stroke-linecap:round;stroke-linejoin:round"
       id="path12" />
    <path
       d="m 376.88,240.19 c 0.25,-1.85 2.51,-4.77 3.31,-4.66 a 6.86,6.86 0 0 0 4.34,-2.38 c 0.7,-1.24 0.61,-2.6 2,-3 1.39,-0.4 1.63,-2.2 1.63,-2.2 0,0 -4.18,3.2 -6.43,4 a 12.92,12.92 0 0 0 -4.34,2.37 24.62,24.62 0 0 0 -1.27,7.07 1.49,1.49 0 0 0 0.76,-1.2 z"
       style="fill:#ffffff;stroke:#263238;stroke-linecap:round;stroke-linejoin:round"
       id="path14" />
    <path
       d="m 388.15,262.35 c 0,0 1.27,2.58 4.68,1.16"
       style="fill:none;stroke:#263238;stroke-linecap:round;stroke-linejoin:round"
       id="path16" />
    <path
       d="m 387.63,266.3 c 0,0 5,2.82 7.62,-0.86"
       style="fill:none;stroke:#263238;stroke-linecap:round;stroke-linejoin:round"
       id="path18" />
    <path
       d="m 384.47,251.69 c 0,1.1 -0.55,2 -1.14,2 -0.59,0 -1,-0.93 -1,-2 0,-1.07 0.55,-2 1.14,-2 0.59,0 1.04,0.9 1,2 z"
       style="fill:#263238"
       id="path20" />
    <path
       d="m 397.81,252.26 c 0,1.1 -0.55,2 -1.13,2 -0.58,0 -1,-0.93 -1,-2 0,-1.07 0.55,-2 1.14,-2 0.59,0 1.03,0.9 0.99,2 z"
       style="fill:#263238"
       id="path22" />
    <path
       d="m 379.5,246.71 c 0,0 1.64,-2.2 5.78,-1.11"
       style="fill:none;stroke:#263238;stroke-linecap:round;stroke-linejoin:round"
       id="path24" />
    <path
       d="m 394.58,246.3 c 0,0 4.47,-1.28 7.28,1.77"
       style="fill:none;stroke:#263238;stroke-linecap:round;stroke-linejoin:round"
       id="path26" />
    <path
       d="m 386,246.23 c 0,0 2.93,4.15 2.44,7.84"
       style="fill:none;stroke:#263238;stroke-linecap:round;stroke-linejoin:round"
       id="path28" />
    <path
       d="m 374.69,320.35 c 0.67,-4.56 1.33,-9.08 1.87,-12.72 1.69,-11.25 7.51,-25.59 7.51,-25.59 -2.14,-0.44 -22.84,8.09 -27.22,11.72 -1.91,1.59 -4.12,5.91 -6.16,10.76 a 58.93,58.93 0 0 0 24,15.83 z"
       style="fill:#0b4f6c;stroke:#263238;stroke-linecap:round;stroke-linejoin:round"
       id="path30" />
    <path
       d="m 444,296 a 28.89,28.89 0 0 0 -10.51,-8 56.59,56.59 0 0 0 -8.38,-4.59 c -4.61,-2.22 -17,-4.93 -17,-4.93 0,0 -1.11,31.75 0.61,43.35 A 58.92,58.92 0 0 0 444,296 Z"
       style="fill:#0b4f6c;stroke:#263238;stroke-linecap:round;stroke-linejoin:round"
       id="path32" />
    <circle
       cx="394.10001"
       cy="264.76999"
       r="58.869999"
       transform="rotate(-45,394.10058,264.7682)"
       style="fill:none;stroke:#263238;stroke-miterlimit:10"
       id="circle34" />
  </g>
  <g
     id="freepik--character-4--inject-2"
     transform="translate(-32.074827,-51.830586)">
    <circle
       cx="394.10001"
       cy="121.2"
       r="58.869999"
       transform="rotate(-12.95,394.09576,121.21084)"
       style="fill:#0b4f6c"
       id="circle37" />
    <path
       d="m 394.1,180.07 a 58.78,58.78 0 0 0 45.75,-21.83 L 416.5,140 l -17,-4.83 v -0.67 l -4.25,0.33 -4.25,-0.33 v 0.67 l -17,1.33 -26.48,20.69 a 58.78,58.78 0 0 0 46.58,22.88 z"
       style="fill:#ffffff;stroke:#263238;stroke-miterlimit:10"
       id="path39" />
    <path
       d="m 378.5,133 a 48.4,48.4 0 0 1 -6,1 c -1.5,0 -7,24.5 -7,24.5 l 19,-6 8,8 6.5,-7.5 19,8.5 c 0,0 -1.5,-23 -1.5,-26 0,-3 -17.5,-7 -17.5,-7 z"
       style="fill:#ffffff;stroke:#263238;stroke-miterlimit:10"
       id="path41" />
    <polygon
       points="391.5,154 407,138.5 408,118.5 376,123 378,140.5 "
       style="fill:#d4d4d4;stroke:#263238;stroke-miterlimit:10"
       id="polygon43" />
    <polygon
       points="406.23,118.75 386.25,133.1 407.31,132.2 408,118.5 "
       style="fill:#263238;stroke:#263238;stroke-miterlimit:10"
       id="polygon45" />
    <path
       d="m 397.17,72.1 c 0,0 15,3.85 16,10.61 1,6.76 0.2,20.83 0.2,20.83 0,0 3.21,-6.07 5.21,-0.48 2,5.59 -1.66,9.27 -2.95,9.66 a 11.2,11.2 0 0 1 -3,0.36 c 0,0 -4.14,9.46 -6.4,11.29 -2.26,1.83 -10.71,9.22 -14.06,10.25 -3.35,1.03 -9.17,1.41 -10.83,-0.34 -1.66,-1.75 -8.47,-13.76 -8.67,-16.24 -0.2,-2.48 -1.73,-24.87 -1.49,-27.77 0.24,-2.9 -1.17,-8.39 5,-14 6.17,-5.61 20.99,-4.17 20.99,-4.17 z"
       style="fill:#d4d4d4;stroke:#263238;stroke-miterlimit:10"
       id="path47" />
    <path
       d="m 376.17,76.31 c 6.19,-5.57 21,-4.21 21,-4.21 0,0 15,3.85 16,10.61 1,6.76 0.2,20.83 0.2,20.83 0,0 -1.61,3 -3.3,2.14 -1.69,-0.86 1.13,-8.25 1.13,-8.25 0,0 -1,-2.24 -1.76,-4.82 -0.76,-2.58 -0.38,-5.81 0.63,-8.94 1.01,-3.13 -6.6,-9.54 -10.71,-9.13 -4.11,0.41 -9.36,3.46 -12.98,2.86 -3.62,-0.6 -4.2,-2.66 -4.2,-2.66 0,0 -0.94,-0.28 -4.29,0.76 a 7.35,7.35 0 0 0 -1.77,0.85 z"
       style="fill:#263238;stroke:#263238;stroke-miterlimit:10"
       id="path49" />
    <path
       d="m 388.87,96.13 17.76,1.73 c 0,0 0.54,6.28 -0.42,7.92 -0.96,1.64 -2.51,3.18 -7.15,3.56 -4.64,0.38 -9.51,-1.12 -10.06,-3.2 -0.55,-2.08 -0.13,-10.01 -0.13,-10.01 z"
       style="fill:none;stroke:#263238;stroke-width:2px;stroke-linecap:round;stroke-miterlimit:10"
       id="path51" />
    <path
       d="M 383.88,96 H 366 c 0,0 -1.15,6.19 -0.35,7.93 0.8,1.74 2.19,3.4 6.77,4.24 4.58,0.84 9.58,-0.17 10.36,-2.17 0.78,-2 1.1,-10 1.1,-10 z"
       style="fill:none;stroke:#263238;stroke-width:2px;stroke-linecap:round;stroke-miterlimit:10"
       id="path53" />
    <path
       d="m 388.87,96.13 c 0,0 -2.88,-1.35 -5,-0.11"
       style="fill:none;stroke:#263238;stroke-width:2px;stroke-linecap:round;stroke-miterlimit:10"
       id="path55" />
    <path
       d="m 388.59,98.79 c 0,0 -2.85,-2.1 -4.89,-0.31"
       style="fill:none;stroke:#263238;stroke-width:2px;stroke-linecap:round;stroke-miterlimit:10"
       id="path57" />
    <line
       x1="406.63"
       y1="97.860001"
       x2="413.69"
       y2="103.25"
       style="fill:none;stroke:#263238;stroke-width:2px;stroke-linecap:round;stroke-miterlimit:10"
       id="line59" />
    <line
       x1="366.04001"
       y1="96.019997"
       x2="371.13"
       y2="98.07"
       style="fill:none;stroke:#263238;stroke-width:2px;stroke-linecap:round;stroke-miterlimit:10"
       id="line61" />
    <path
       d="m 393.34,104.62 a 1.18,1.18 0 1 0 2.25,-0.7 1.18,1.18 0 0 0 -2.25,0.7 z"
       style="fill:#263238"
       id="path63" />
    <path
       d="m 375.1,103.89 a 1.18,1.18 0 1 0 2.25,-0.7 1.18,1.18 0 0 0 -2.25,0.7 z"
       style="fill:#263238"
       id="path65" />
    <path
       d="m 392.55,91.87 c 0,0 5.06,-3.37 8.62,1.88"
       style="fill:none;stroke:#263238;stroke-width:2px;stroke-linecap:round;stroke-miterlimit:10"
       id="path67" />
    <path
       d="m 381.27,93.53 c 0,0 -2.24,-3.07 -7.65,0.41"
       style="fill:none;stroke:#263238;stroke-width:2px;stroke-linecap:round;stroke-miterlimit:10"
       id="path69" />
    <path
       d="m 383.91,103 c 0,0 -0.61,4.34 -1.85,5.37 -1.24,1.03 -4.34,3.15 -2.17,3.91 2.17,0.76 6.55,1.48 8.21,1 a 2.57,2.57 0 0 0 1.85,-2"
       style="fill:none;stroke:#263238;stroke-miterlimit:10"
       id="path71" />
    <path
       d="m 384,118.87 a 14.67,14.67 0 0 0 8.64,-0.59 c 4.5,-1.77 4.68,-4.16 4.68,-4.16"
       style="fill:none;stroke:#263238;stroke-miterlimit:10"
       id="path73" />
    <line
       x1="396.04999"
       y1="113.35"
       x2="399.10999"
       y2="114.87"
       style="fill:none;stroke:#263238;stroke-miterlimit:10"
       id="line75" />
    <circle
       cx="394.10001"
       cy="121.2"
       r="58.869999"
       transform="rotate(-12.95,394.09576,121.21084)"
       style="fill:none;stroke:#263238;stroke-miterlimit:10"
       id="circle77" />
  </g>
  <g
     id="freepik--character-3--inject-2"
     transform="translate(-32.074827,-51.830586)">
    <circle
       cx="104.1"
       cy="265.89999"
       r="58.869999"
       transform="rotate(-12.76,104.1379,266.00459)"
       style="fill:#0b4f6c"
       id="circle80" />
    <path
       d="m 104.1,324.77 a 58.67,58.67 0 0 0 43.53,-19.27 l -28.56,-15.5 -2.83,-14.18 -20.21,-5 -0.71,19.18 -33.65,16.68 a 58.66,58.66 0 0 0 42.43,18.09 z"
       style="fill:#ffffff;stroke:#263238;stroke-miterlimit:10"
       id="path82" />
    <polygon
       points="108.89,274.04 96.03,270.88 95.48,285.53 113.75,282.23 "
       style="fill:#263238;stroke:#263238;stroke-miterlimit:10"
       id="polygon84" />
    <path
       d="m 124.45,231.33 c 0,0 -20.53,-11.33 -30.27,-10.53 -9.74,0.8 -24.47,21.06 -26.31,30.79 -1.84,9.73 7.63,15 8.15,15.79 0.52,0.79 -7.89,0.27 -7.1,6.58 0.79,6.31 10.79,7.37 16.58,6.32 5.79,-1.05 9.73,-8.42 9.73,-9.47 0,-1.05 -2.63,-8.16 -2.63,-8.16 0,0 5.53,0.52 6.32,-4.21 0.79,-4.73 5.26,-15.27 11.31,-15.53 6.05,-0.26 10.79,0.53 11.32,1.84 a 43.52,43.52 0 0 1 1,6.32 15.17,15.17 0 0 0 12.45,-3.16 c 5.53,-4.74 7.63,-17.63 0.27,-20.26 a 8.68,8.68 0 0 0 -10.82,3.68 z"
       style="fill:#263238;stroke:#263238;stroke-linecap:round;stroke-linejoin:round"
       id="path86" />
    <path
       d="m 90.12,258.28 -10.58,6 c 0,0 4,4.86 5.72,5.43 1.72,0.57 4.57,-0.29 4.57,-0.29 0,0 4.86,5.72 8.58,8.3 3.72,2.58 12.58,7.43 17.45,5.71 4.87,-1.72 12,-14.58 11.43,-18.87 -0.57,-4.29 -3.14,-11.15 -2.86,-14.58 0.28,-3.43 0.86,-8.87 0.86,-8.87 0,0 -11.72,-5.72 -21.16,-0.28 -9.44,5.44 -8.86,15.45 -14.01,17.45 z"
       style="fill:#ffffff;stroke:#263238;stroke-linecap:round;stroke-linejoin:round"
       id="path88" />
    <path
       d="m 115.86,253.13 0.28,3.43 c 0,0 7.44,0.86 4.58,3.44 a 14.64,14.64 0 0 1 -6.87,3.14"
       style="fill:none;stroke:#263238;stroke-linecap:round;stroke-linejoin:round"
       id="path90" />
    <path
       d="m 102.13,250.84 c 0,0 2.86,-2.85 6.29,-2.57"
       style="fill:none;stroke:#263238;stroke-linecap:round;stroke-linejoin:round"
       id="path92" />
    <path
       d="m 117,247.41 a 6,6 0 0 1 5.72,1.15"
       style="fill:none;stroke:#263238;stroke-linecap:round;stroke-linejoin:round"
       id="path94" />
    <ellipse
       cx="107.37"
       cy="255.59"
       rx="1.24"
       ry="2.1700001"
       style="fill:#263238"
       id="ellipse96" />
    <path
       d="m 121.42,254.27 c 0,1.2 -0.55,2.18 -1.24,2.18 -0.69,0 -1.24,-1 -1.24,-2.18 0,-1.18 0.56,-2.17 1.24,-2.17 0.68,0 1.24,0.97 1.24,2.17 z"
       style="fill:#263238"
       id="path98" />
    <path
       d="m 120.49,266.63 c 0,0 -6.74,3.9 -12.76,-0.36"
       style="fill:none;stroke:#263238;stroke-linecap:round;stroke-linejoin:round"
       id="path100" />
    <path
       d="m 104.1,324.77 a 58.68,58.68 0 0 0 43.54,-19.28 l -19.32,-11.17 -6.77,19.11 -23.4,0.35 -15.24,-17.37 -0.39,-0.05 -20.85,10.32 a 58.66,58.66 0 0 0 42.43,18.09 z"
       style="fill:#263238;stroke:#263238;stroke-miterlimit:10"
       id="path102" />
    <circle
       cx="104.1"
       cy="265.89999"
       r="58.869999"
       transform="rotate(-12.76,104.1379,266.00459)"
       style="fill:none;stroke:#263238;stroke-miterlimit:10"
       id="circle104" />
  </g>
  <g
     id="freepik--character-2--inject-2"
     transform="translate(-32.074827,-51.830586)">
    <circle
       cx="104.1"
       cy="121.74"
       r="58.869999"
       style="fill:none;stroke:#263238;stroke-miterlimit:10"
       id="circle107" />
    <path
       d="m 115,81.76 a 7.72,7.72 0 0 0 7.6,-0.18 c 3.71,-2.41 1.12,-3.53 0.37,-5 -0.75,-1.47 1.12,-1.86 1.49,-3.9 0.37,-2.04 -0.93,-3.71 -1.67,-3.89 -0.74,-0.18 -0.56,-2.23 -0.56,-4.27 a 4.57,4.57 0 0 0 -3.52,-3.9 c -1.12,0 -1.86,-1.48 -2.6,-3.34 -0.74,-1.86 -2.23,-3.52 -4.82,-2.41 -2.59,1.11 -3.9,1.12 -5.2,-0.74 -1.3,-1.86 -4.45,-2.23 -5.56,-1.3 -1.11,0.93 -1.67,2.78 -3.9,0.93 a 4.79,4.79 0 0 0 -6.31,-0.19 c -1.3,1.3 -1.11,2.79 -3.15,2 -2.04,-0.79 -5.38,0.38 -6.12,2.6 -0.74,2.22 -4.83,4.64 -6.31,4.08 -1.48,-0.56 -4.08,0 -2.78,2.79 1.3,2.79 -0.19,4.63 -1.3,4.63 -1.11,0 -3.53,0.75 -2.23,3.16 1.3,2.41 2.23,4.26 0.74,5 -1.49,0.74 -3.89,0.92 -2,4.08 1.89,3.16 3.34,3 2.79,4.82 -0.55,1.82 -1.67,2.41 0,3.71 1.67,1.3 3.71,1.86 3.71,3 0,1.14 -2.23,1.67 0.37,2.6 a 20.57,20.57 0 0 0 4.64,1.11 c 0,0 3.7,-10.01 14.32,-13.35 10.62,-3.34 16.7,-3 19.11,-1.67 2.41,1.33 2.89,-0.37 2.89,-0.37 z"
       style="fill:#263238;stroke:#263238;stroke-linecap:round;stroke-linejoin:round"
       id="path109" />
    <path
       d="m 104.1,180.61 a 58.71,58.71 0 0 1 -13.28,-1.52 c -2.34,-12.21 -4.64,-24.55 -4.64,-24.55 0,0 10,-2.76 13.06,-3.26 3.06,-0.5 12.05,-1.51 12.05,-1.51 l 13.56,6.28 c 0,0 1.62,8.95 3.24,19.45 a 58.56,58.56 0 0 1 -23.99,5.11 z"
       style="fill:#ffffff;stroke:#263238;stroke-miterlimit:10"
       id="path111" />
    <path
       d="m 87.05,159.2 37.58,-3.2 0.22,0.1 c 0,0 0.32,1.79 0.83,4.71 L 88,164 Z"
       style="fill:#263238"
       id="path113" />
    <path
       d="m 89.32,171.2 37.57,-3.2 c 0.25,1.53 0.51,3.15 0.78,4.83 L 90.24,176 c -0.32,-1.61 -0.62,-3.22 -0.92,-4.8 z"
       style="fill:#263238"
       id="path115" />
    <path
       d="m 113.3,142.74 c 0,0 2.76,10.55 3,16.07 0.24,5.52 -5.52,10.05 -13.81,9.29 -8.29,-0.76 -9.79,-9.79 -9.79,-12 0,-2.21 -0.5,-21.34 -0.5,-21.34 a 81.06,81.06 0 0 0 8.79,6.53 c 4.78,2.96 12.31,1.45 12.31,1.45 z"
       style="fill:#b5b5b5;stroke:#263238;stroke-miterlimit:10"
       id="path117" />
    <path
       d="M 105.77,151.78 C 97.92,148 94,140.65 92.24,136 c 0,-0.78 0,-1.24 0,-1.24 a 81.06,81.06 0 0 0 8.79,6.53 c 4.77,3 12.3,1.5 12.3,1.5 0,0 1.73,6.59 2.57,12.08 a 31.79,31.79 0 0 1 -10.13,-3.09 z"
       style="fill:#263238;stroke:#263238;stroke-miterlimit:10"
       id="path119" />
    <path
       d="m 124.62,109.92 c 0,0 4,-5.2 4.8,2 0.8,7.2 -6.8,14.4 -6.8,14.4 v -16.4"
       style="fill:#b5b5b5;stroke:#263238;stroke-linecap:round;stroke-linejoin:round"
       id="path121" />
    <path
       d="m 78.88,102.44 c 0,0 0.31,-11.14 4.45,-17.5 4.14,-6.36 12.86,-10.27 22.59,-8.59 12.08,2.07 17.5,11.13 19.41,18.77 1.91,7.64 -0.32,18.77 -0.32,26.41 0,7.64 -8.91,21.32 -11.45,23.54 -2.54,2.22 -6.48,3 -11,0.7 -4.12,-2.09 -10.89,-9.22 -15,-13.36 C 83.45,128.27 81,116 80.33,113.12 79.66,110.24 78.88,102.44 78.88,102.44 Z"
       style="fill:#b5b5b5;stroke:#263238;stroke-linecap:round;stroke-linejoin:round"
       id="path123" />
    <path
       d="m 112.61,124.06 c 0,0 0.38,2.41 -5.19,2"
       style="fill:none;stroke:#263238;stroke-linecap:round;stroke-linejoin:round"
       id="path125" />
    <path
       d="m 114.28,130.37 c 0,0 -6.49,4.45 -13,0.18"
       style="fill:none;stroke:#263238;stroke-linecap:round;stroke-linejoin:round"
       id="path127" />
    <path
       d="m 114.28,113.86 c 0,1.33 0.63,2.41 1.4,2.41 0.77,0 1.39,-1.08 1.39,-2.41 0,-1.33 -0.63,-2.41 -1.39,-2.41 -0.76,0 -1.4,1.08 -1.4,2.41 z"
       style="fill:#263238"
       id="path129" />
    <path
       d="m 99.8,115.05 c 0,1.33 0.62,2.41 1.39,2.41 0.77,0 1.39,-1.08 1.39,-2.41 0,-1.33 -0.62,-2.42 -1.39,-2.42 -0.77,0 -1.39,1.08 -1.39,2.42 z"
       style="fill:#263238"
       id="path131" />
    <path
       d="m 120.22,106.25 c 0,0 -1.67,-3.71 -7.23,-1.85"
       style="fill:none;stroke:#263238;stroke-linecap:round;stroke-linejoin:round"
       id="path133" />
    <path
       d="m 103.71,105.88 c 0,0 -5.19,-2.78 -10.95,1.48"
       style="fill:none;stroke:#263238;stroke-linecap:round;stroke-linejoin:round"
       id="path135" />
    <path
       d="m 63.15,164 c 0.12,-1.68 -0.07,-4.63 1.95,-5.75 1.37,-0.76 11,-3 18.38,-4.63 4.85,-1.08 8.75,-1.9 8.75,-1.9 0,0 0.94,14.25 2,28 A 58.68,58.68 0 0 1 63.15,164 Z"
       style="fill:#0b4f6c;stroke:#263238;stroke-miterlimit:10"
       id="path137" />
    <path
       d="m 129.15,175 a 217.28,217.28 0 0 0 -4.6,-21.38 c 7.4,1.64 17,3.87 18.38,4.63 2.09,1.16 1.82,4.24 2,5.9 A 58.84,58.84 0 0 1 129.15,175 Z"
       style="fill:#0b4f6c;stroke:#263238;stroke-miterlimit:10"
       id="path139" />
    <path
       d="m 83.92,177.05 c -0.69,-12.49 -0.44,-23.41 -0.44,-23.41 4.85,-1.08 8.75,-1.9 8.75,-1.9 0,0 0.94,14.25 2,28 a 58.86,58.86 0 0 1 -10.31,-2.69 z"
       style="fill:#0b4f6c;stroke:#263238;stroke-miterlimit:10"
       id="path141" />
    <path
       d="m 105.92,76.35 c 12.08,2.07 17.5,11.13 19.41,18.77 a 26.42,26.42 0 0 1 0.66,4.35 19.79,19.79 0 0 0 -1.77,-2.35 52.8,52.8 0 0 0 -10,-9.19 c 0,0 -1.6,4 -10.8,8.79 -9.2,4.79 -21.59,4.4 -21.59,4.4 0,0 2.4,0.8 0.4,5.2 -0.87,1.9 -1.65,3.5 -2.27,4.71 -0.54,-3.47 -1.08,-8.59 -1.08,-8.59 0,0 0.31,-11.14 4.45,-17.5 4.14,-6.36 12.86,-10.27 22.59,-8.59 z"
       style="fill:#263238;stroke:#263238;stroke-linecap:round;stroke-linejoin:round"
       id="path143" />
    <path
       d="m 83,117.52 c 0,0 -2.4,-9.2 -6.4,-4.8 -4,4.4 0.8,10.8 3.2,14 2.4,3.2 6.4,0.8 6.4,0.8"
       style="fill:#b5b5b5;stroke:#263238;stroke-linecap:round;stroke-linejoin:round"
       id="path145" />
    <path
       d="m 115.8,151.6 4,26.82 c 0,0 8.4,-2.36 11.2,-4.42 l -5.31,-20.63 a 27.2,27.2 0 0 0 -9.89,-1.77 z"
       style="fill:#0b4f6c;stroke:#263238;stroke-miterlimit:10"
       id="path147" />
  </g>
  <g
     id="freepik--character-1--inject-2"
     transform="translate(-32.074827,-51.830586)">
    <path
       d="m 250.53,146.64 a 44.48,44.48 0 0 1 2.77,7.36 c 1,3.78 0.76,6.55 3,8.32 2.24,1.77 4.78,2.26 4.28,4.53 a 3.69,3.69 0 0 1 -2.52,2.77 c 0,0 -1.26,11.34 -1.76,15.37 -0.5,4.03 -13.86,0 -13.86,0 l -2.44,12.81 -16.38,1 -1.77,-13.86 a 43,43 0 0 1 -8.31,-19.4 c -1.77,-11.59 4.78,-25.2 18.64,-25.2 13.86,0 18.35,6.3 18.35,6.3 z"
       style="fill:#ffffff;stroke:#263238;stroke-miterlimit:10"
       id="path150" />
    <path
       d="m 257.08,175.87 c 0,0 -3,1 -4.79,-1"
       style="fill:none;stroke:#263238;stroke-miterlimit:10"
       id="path152" />
    <line
       x1="252.8"
       y1="158.99001"
       x2="253.81"
       y2="162.27"
       style="fill:none;stroke:#263238;stroke-miterlimit:10"
       id="line154" />
    <path
       d="m 252.8,157 a 2,2 0 0 0 -2,2"
       style="fill:none;stroke:#263238;stroke-miterlimit:10"
       id="path156" />
    <path
       d="m 216,205.1 c 0,0 6,-8.06 7.05,-8.31 1.05,-0.25 12.1,-2.77 17.39,-1.51 5.29,1.26 6.55,3.78 10.58,4.78 a 17.67,17.67 0 0 0 8.57,-0.5 11.39,11.39 0 0 1 -4,3.78 17.88,17.88 0 0 1 -5.8,1.76 21.77,21.77 0 0 1 -9.32,-0.25 c -6.3,-1.26 -17.14,-1.51 -17.14,-1.51 z"
       style="fill:#ffffff;stroke:#263238;stroke-miterlimit:10"
       id="path158" />
    <path
       d="m 325.37,200.32 c 0,0 2.77,-9.58 4,-11.6 a 22.07,22.07 0 0 1 6.05,-5.79 c 1.76,-1 8.57,-5 10.33,-5 1.76,0 2.71,2 1.26,2.77 -0.91,0.5 -5.29,2.27 -5.79,3 a 14.92,14.92 0 0 1 -2,2 l 4,1 c 0,0 1.51,2.77 2.27,4 0.76,1.23 1.51,2.52 0.5,4.28 -1.01,1.76 -2.26,4.54 -3.78,5.3 -1.52,0.76 -0.75,-2.78 -0.75,-2.78 0,0 -3,3 -4.54,4.29 a 21.28,21.28 0 0 1 -3.53,2.27 l -0.75,2 z"
       style="fill:#ffffff;stroke:#263238;stroke-miterlimit:10"
       id="path160" />
    <path
       d="m 204.63,278.11 c 0,0 5,0 6.11,-0.11 1.11,-0.11 3.3,-1 4,-1 0.7,0 1.08,5.07 -0.73,9.42 -1.81,4.35 -6.51,6.69 -6.51,6.69 l -5.8,-6.15 c 0,0 2.57,-5.96 2.93,-8.85 z"
       style="fill:#ffffff;stroke:#263238;stroke-miterlimit:10"
       id="path162" />
    <path
       d="m 209.07,368.67 c 0,0 -2.33,13.33 -0.67,25.66 1.66,12.33 11,60.34 11,60.34 l -3.66,14 c 0,0 -4,2.33 -2,3.33 2,1 11.66,0 11.66,0 0,0 1.34,-6 2.34,-9 1,-3 4,-5 2.66,-8.67 -1.34,-3.67 -2.33,-7.33 -2.33,-7.33 l 4.67,-71.33 z"
       style="fill:#ffffff;stroke:#263238;stroke-miterlimit:10"
       id="path164" />
    <path
       d="m 229.56,451.9 c -1.57,-0.11 -4.9,0 -6.16,2.77 -1.66,3.66 -5.33,12.66 -5.33,12.66 l -3.67,2.34 -0.35,0.23 c -0.78,0.72 -1.34,1.59 -0.31,2.1 2,1 11.66,0 11.66,0 0,0 1.34,-6 2.34,-9 1,-3 4,-5 2.66,-8.67 -0.3,-0.82 -0.58,-1.64 -0.84,-2.43 z"
       style="fill:#263238;stroke:#263238;stroke-miterlimit:10"
       id="path166" />
    <path
       d="m 225.07,458 1.5,14 h 2.33 l 1.17,-15.17 c 0,0 -4,-2.83 -5,1.17 z"
       style="fill:#263238;stroke:#263238;stroke-miterlimit:10"
       id="path168" />
    <path
       d="m 252.07,373.33 6,12.67 c 0,0 1,18.2 5.67,29.2 4.67,11 14,28.67 14,28.67 l 3,5.33 c 0,0 -4.34,5 -3,8 1.34,3 7,4.67 9.33,6.67 2.33,2 2.83,8.13 5.5,8.13 2.67,0 10,0.67 10.67,-1 0.67,-1.67 -3.67,-3.67 -3.67,-3.67 0,0 -6.42,-12.16 -7.08,-13.83 -0.66,-1.67 -10.75,-58.17 -11.42,-64.83 -0.67,-6.66 -2.67,-18.34 -2.67,-18.34 z"
       style="fill:#ffffff;stroke:#263238;stroke-miterlimit:10"
       id="path170" />
    <path
       d="m 293.57,467.67 c 0,0 -5.17,-8.13 -7.83,-11.8 a 13.1,13.1 0 0 0 -6.5,-4.62 c -1.11,1.72 -2.29,4.18 -1.5,5.95 1.33,3 6.67,4.66 8.29,7.27 2.26,3.64 3.87,7.53 6.54,7.53 2.67,0 10,0.67 10.67,-1 0.67,-1.67 -3.67,-3.67 -3.67,-3.67 -1,-0.33 -6,0.34 -6,0.34 z"
       style="fill:#263238;stroke:#263238;stroke-miterlimit:10"
       id="path172" />
    <path
       d="m 277.74,458.45 1.15,14.05 H 281 l 1.22,-10.5 c 0,0 0.26,-4.6 -4.48,-3.55 z"
       style="fill:#263238;stroke:#263238;stroke-miterlimit:10"
       id="path174" />
    <path
       d="m 210.74,278 c 0,0 -8,17 -10,29 -2,12 1.5,34 1.5,34 l -1.5,30 c 0,0 29,7.5 49,7.5 a 140.26,140.26 0 0 0 36.5,-5 c 0,0 0.5,-32.5 -3.5,-48 -4,-15.5 -13,-41.5 -13.5,-43 -0.5,-1.5 -4,-6 -4,-6 0,0 -32,6.5 -54.5,1.5 z"
       style="fill:#263238;stroke:#263238;stroke-miterlimit:10"
       id="path176" />
    <line
       x1="218.60001"
       y1="326.10999"
       x2="250.06"
       y2="354.84"
       style="fill:none;stroke:#707070;stroke-miterlimit:10"
       id="line178" />
    <line
       x1="228.86"
       y1="344.57999"
       x2="243.22"
       y2="356.20001"
       style="fill:none;stroke:#707070;stroke-miterlimit:10"
       id="line180" />
    <path
       d="m 218.78,204.6 c 0,0 -19.66,8.06 -20.41,10.33 -0.75,2.27 -6.55,14.62 -6.55,14.62 0,0 -23.69,36.28 -23.19,38.05 0.5,1.77 27.72,18.4 27.72,18.4 0,0 -0.75,0.76 0,1.26 a 59,59 0 0 0 6.55,2 c 0,0 4,-3.78 4,-7.31 0,-3.53 -1,-5 -1.76,-5.29 -0.76,-0.29 -4.28,-2.27 -4.28,-2.27 l -1,-0.25 -10.86,-11.58 13.61,-18.9 c 0,0 12.1,21.67 12.1,24.44 0,2.77 -6.05,9.33 -4.79,12.35 1.26,3.02 5.79,3.78 23.43,5.54 17.64,1.76 32.51,-4 34,-5.29 1.49,-1.29 -2.52,-9.07 -2.52,-14.87 0,-5.8 0.25,-27 0.25,-27 0,0 25.46,10.58 30.5,7.81 5.04,-2.77 35.53,-35.78 35.53,-35.78 l 4.53,-4.28 -10.08,-9.33 -6.8,6.05 -29.23,23.18 c 0,0 -1.51,-1.51 -2.27,-1.51 a 19.63,19.63 0 0 0 -2.27,0.25 c 0,0 -19.15,-13.1 -21.42,-15.12 -2.27,-2.02 -8.56,-2.26 -8.56,-2.26 l -12.35,-2.27 c 0,0 -13.55,-5.51 -23.88,-0.97 z"
       style="fill:#ffffff;stroke:#263238;stroke-miterlimit:10"
       id="path182" />
    <line
       x1="265.14001"
       y1="238.87"
       x2="249.77"
       y2="236.10001"
       style="fill:none;stroke:#263238;stroke-miterlimit:10"
       id="line184" />
    <line
       x1="261.10999"
       y1="238.37"
       x2="247"
       y2="242.64999"
       style="fill:none;stroke:#263238;stroke-miterlimit:10"
       id="line186" />
    <path
       d="m 249.55,272.39 a 32,32 0 0 0 2.24,-2.78"
       style="fill:none;stroke:#263238;stroke-miterlimit:10"
       id="path188" />
    <path
       d="m 230.12,285 a 51.94,51.94 0 0 0 17,-10.19"
       style="fill:none;stroke:#263238;stroke-miterlimit:10"
       id="path190" />
    <path
       d="m 252,264.07 c 0,0 -5.79,3.28 -11.84,6.8"
       style="fill:none;stroke:#263238;stroke-miterlimit:10"
       id="path192" />
    <path
       d="m 198.22,232.32 4.43,11.34 c 0,0 -8.57,-6.8 -9.57,-9.83"
       style="fill:none;stroke:#263238;stroke-miterlimit:10"
       id="path194" />
    <line
       x1="196.35001"
       y1="227.53"
       x2="197.22"
       y2="229.75999"
       style="fill:none;stroke:#263238;stroke-miterlimit:10"
       id="line196" />
    <path
       d="m 187.78,241.64 c 0,0 4.54,2.27 11.6,0.51"
       style="fill:none;stroke:#263238;stroke-miterlimit:10"
       id="path198" />
    <path
       d="M 187.78,261.8 A 23.54,23.54 0 0 1 177.7,261.3"
       style="fill:none;stroke:#263238;stroke-miterlimit:10"
       id="path200" />
    <path
       d="m 181,258 c 0,0 3.78,1.77 6.55,1.77"
       style="fill:none;stroke:#263238;stroke-miterlimit:10"
       id="path202" />
    <path
       d="m 199.88,274.15 c 0,0 2.52,9.58 -3.53,11.84"
       style="fill:#ffffff;stroke:#263238;stroke-miterlimit:10"
       id="path204" />
    <line
       x1="320.57999"
       y1="201.83"
       x2="331.17001"
       y2="210.89999"
       style="fill:none;stroke:#263238;stroke-miterlimit:10"
       id="line206" />
    <path
       d="m 284.32,233.35 c -0.58,0.59 -1.19,1.18 -1.79,1.74"
       style="fill:none;stroke:#263238;stroke-miterlimit:10"
       id="path208" />
    <path
       d="m 289.59,227.53 c 0,0 -1.4,1.7 -3.32,3.78"
       style="fill:none;stroke:#263238;stroke-miterlimit:10"
       id="path210" />
    <path
       d="m 286.31,226.52 a 40.39,40.39 0 0 1 -7.81,6"
       style="fill:none;stroke:#263238;stroke-miterlimit:10"
       id="path212" />
    <path
       d="m 251.26,141.65 c 0,0 1.78,4.65 -1.79,16.43 -3.57,11.78 -6.79,19.65 -5,27.15 1.79,7.5 6.07,8.93 6.79,7.86 a 14.83,14.83 0 0 1 2.5,-2.5 c 0,0 0.71,2.85 -2.5,5.35 -3.21,2.5 -15.72,5 -23.58,3.93 -7.86,-1.07 -12.86,2.13 -15.68,-4.64 -2.82,-6.77 -1.43,-17.5 -2.15,-21.79 -0.72,-4.29 -7.85,-10 -2.85,-22.86 5,-12.86 25,-14.29 31.78,-14.29 6.78,0 11.4,-2.14 12.48,5.36 z"
       style="fill:#263238;stroke:#263238;stroke-miterlimit:10"
       id="path214" />
  </g>
  <g
     id="freepik--check-mark-2--inject-2"
     transform="translate(-32.074827,-51.830586)">
    <circle
       cx="335.23001"
       cy="121.2"
       r="17.1"
       style="fill:#ffffff;stroke:#263238;stroke-miterlimit:10"
       id="circle217" />
    <polyline
       points="328.33 117 335.67 125 350.33 103.67"
       style="fill:none;stroke:#263238;stroke-width:3px;stroke-linecap:round;stroke-linejoin:round"
       id="polyline219" />
  </g>
  <g
     id="freepik--check-mark-1--inject-2"
     transform="translate(-32.074827,-51.830586)">
    <circle
       cx="49.669998"
       cy="265.89999"
       r="17.1"
       transform="rotate(-45,49.668066,265.89681)"
       style="fill:#ffffff;stroke:#263238;stroke-miterlimit:10"
       id="circle222" />
    <polyline
       points="42.77 261.7 50.1 269.7 64.77 248.37"
       style="fill:none;stroke:#263238;stroke-width:3px;stroke-linecap:round;stroke-linejoin:round"
       id="polyline224" />
  </g>
</svg>
