<svg xmlns="http://www.w3.org/2000/svg" viewBox="0 0 500 500"><g id="freepik--Heart--inject-4"><path d="M438.32,341.79l-2.27,2.29-14.46,14.46-14.47-14.46-2.28-2.29a10.22,10.22,0,0,1,14.46-14.46l2.29,2.29,2.28-2.29a10.22,10.22,0,1,1,14.45,14.46Z" style="fill:none;stroke:#263238;stroke-linecap:round;stroke-linejoin:round"></path></g><g id="freepik--Stars--inject-4"><polygon points="70.95 367.74 73.09 374.31 80.01 374.31 74.41 378.38 76.55 384.96 70.95 380.89 65.36 384.96 67.5 378.38 61.9 374.31 68.82 374.31 70.95 367.74" style="fill:none;stroke:#263238;stroke-linecap:round;stroke-linejoin:round"></polygon><polygon points="92.49 367.74 94.63 374.31 101.54 374.31 95.95 378.38 98.08 384.96 92.49 380.89 86.89 384.96 89.03 378.38 83.44 374.31 90.35 374.31 92.49 367.74" style="fill:none;stroke:#263238;stroke-linecap:round;stroke-linejoin:round"></polygon><polygon points="114.02 367.74 116.16 374.31 123.07 374.31 117.48 378.38 119.62 384.96 114.02 380.89 108.43 384.96 110.56 378.38 104.97 374.31 111.88 374.31 114.02 367.74" style="fill:none;stroke:#263238;stroke-linecap:round;stroke-linejoin:round"></polygon><polygon points="135.56 367.74 137.69 374.31 144.61 374.31 139.01 378.38 141.15 384.96 135.56 380.89 129.96 384.96 132.1 378.38 126.5 374.31 133.42 374.31 135.56 367.74" style="fill:none;stroke:#263238;stroke-linecap:round;stroke-linejoin:round"></polygon><polygon points="157.09 367.74 159.22 374.31 166.14 374.31 160.55 378.38 162.68 384.96 157.09 380.89 151.49 384.96 153.63 378.38 148.03 374.31 154.95 374.31 157.09 367.74" style="fill:none;stroke:#263238;stroke-linecap:round;stroke-linejoin:round"></polygon></g><g id="freepik--speech-bubble-6--inject-4"><path d="M330.5,298.57V257a5.15,5.15,0,0,1,5.31-5h6.39l-.83-13.22L352.22,252H378a5.15,5.15,0,0,1,5.31,5v41.61a5.15,5.15,0,0,1-5.31,5H335.81A5.15,5.15,0,0,1,330.5,298.57Z" style="fill:#263238;stroke:#263238;stroke-linecap:round;stroke-linejoin:round"></path><path d="M346.79,271.75s7.8-1,9.51-1.71,4.63-2.68,3.65-7.8,1-4.63,2.93-3.9,3.41,4.63,3.17,6.58a21.08,21.08,0,0,0,.24,4.88s9,.73,9.75,1,1,2.68,1,3.9,0,3.17-1,3.66-2.68,1.22-2.68,1.22-1.22,7.31-1.46,9,0,3.17-1.95,3.9a9.22,9.22,0,0,1-5.12.25c-1.71-.25-18.77-1.71-18.77-1.71Z" style="fill:#fff;stroke:#263238;stroke-linecap:round;stroke-linejoin:round"></path><rect x="335.09" y="269.55" width="14.38" height="25.11" style="fill:#0D5F82;stroke:#263238;stroke-linecap:round;stroke-linejoin:round"></rect></g><g id="freepik--speech-bubble-5--inject-4"><path d="M403.12,162.36H351.63a5,5,0,0,0-5,5v8.81l-13.23-.78,13.23,10.14v10.08a5,5,0,0,0,5,5h51.49a5,5,0,0,0,5-5V167.32A5,5,0,0,0,403.12,162.36Z" style="fill:#fff;stroke:#263238;stroke-linecap:round;stroke-linejoin:round"></path><polygon points="368.84 189.44 366.65 212.1 377.37 203.33 387.86 211.62 383.95 188.22 368.84 189.44" style="fill:#263238;stroke:#263238;stroke-linecap:round;stroke-linejoin:round"></polygon><path d="M392,175.68c0-1.81,1.66-3.87,1.13-5.5s-3.12-2.38-4.15-3.79-.9-4.08-2.32-5.12-3.89-.08-5.59-.63-3.07-2.77-4.89-2.77-3.25,2.24-4.89,2.77-4.17-.4-5.58.63-1.29,3.69-2.33,5.12-3.6,2.09-4.15,3.79,1.13,3.69,1.13,5.5-1.66,3.87-1.13,5.51,3.13,2.38,4.15,3.79.9,4.08,2.33,5.12,3.89.08,5.58.63,3.08,2.77,4.89,2.77,3.25-2.24,4.89-2.77,4.17.4,5.59-.63,1.28-3.69,2.32-5.12,3.6-2.09,4.15-3.79S392,177.5,392,175.68Z" style="fill:#0D5F82;stroke:#263238;stroke-linecap:round;stroke-linejoin:round"></path><circle cx="376.13" cy="175.68" r="13.95" transform="translate(-21.97 57.97) rotate(-8.56)" style="fill:#fff;stroke:#263238;stroke-linecap:round;stroke-linejoin:round"></circle><path d="M375.37,183.87V170.64l-.51.24-.6.26-.62.26-.54.24V169.1l.63-.34c.28-.14.57-.3.89-.48s.6-.36.88-.54a4.12,4.12,0,0,0,.61-.49h2.69v16.62Z" style="fill:#263238"></path></g><g id="freepik--speech-bubble-4--inject-4"><path d="M337.17,49.33H285.68a5,5,0,0,0-5,5V76.66a5,5,0,0,0,5,5h3.22l-4.19,11,11.66-11h40.8a5,5,0,0,0,5-5V54.29A5,5,0,0,0,337.17,49.33Z" style="fill:#fff;stroke:#263238;stroke-linecap:round;stroke-linejoin:round"></path><circle cx="300.63" cy="65.86" r="2.01" style="fill:#263238"></circle><circle cx="310.67" cy="65.86" r="2.01" style="fill:#263238"></circle><circle cx="320.71" cy="65.86" r="2.01" style="fill:#263238"></circle></g><g id="freepik--speech-bubble-3--inject-4"><path d="M209.45,108.59,199,102.69V91.07a5,5,0,0,0-5-5h-61a5,5,0,0,0-5,5v25.79a5,5,0,0,0,5,5h61a5,5,0,0,0,5-5V109.5Z" style="fill:#263238;stroke:#263238;stroke-linecap:round;stroke-linejoin:round"></path><polygon points="138.95 98.47 140.19 102.28 144.18 102.28 140.95 104.62 142.18 108.42 138.95 106.08 135.72 108.42 136.95 104.62 133.72 102.28 137.72 102.28 138.95 98.47" style="fill:#fff"></polygon><polygon points="151.39 98.47 152.63 102.28 156.62 102.28 153.39 104.62 154.63 108.42 151.39 106.08 148.16 108.42 149.4 104.62 146.16 102.28 150.16 102.28 151.39 98.47" style="fill:#fff"></polygon><polygon points="163.84 98.47 165.07 102.28 169.07 102.28 165.83 104.62 167.07 108.42 163.84 106.08 160.6 108.42 161.84 104.62 158.6 102.28 162.6 102.28 163.84 98.47" style="fill:#fff"></polygon><polygon points="176.28 98.47 177.51 102.28 181.51 102.28 178.28 104.62 179.51 108.42 176.28 106.08 173.04 108.42 174.28 104.62 171.05 102.28 175.04 102.28 176.28 98.47" style="fill:#fff"></polygon><polygon points="188.72 98.47 189.96 102.28 193.95 102.28 190.72 104.62 191.95 108.42 188.72 106.08 185.49 108.42 186.72 104.62 183.49 102.28 187.49 102.28 188.72 98.47" style="fill:#fff"></polygon></g><g id="freepik--speech-bubble-2--inject-4"><path d="M143,189.85H127.39v-8.28a5,5,0,0,0-5-5H83.93a5,5,0,0,0-5,5v22.37a5,5,0,0,0,5,5h38.5a5,5,0,0,0,5-5v-7.13Z" style="fill:#fff;stroke:#263238;stroke-linecap:round;stroke-linejoin:round"></path><path d="M113.34,193.84l-1.52,1.53-9.6,9.61-9.62-9.61-1.52-1.53a6.79,6.79,0,0,1,9.61-9.6l1.53,1.52,1.51-1.52a6.79,6.79,0,0,1,9.61,9.6Z" style="fill:#0D5F82;stroke:#263238;stroke-linecap:round;stroke-linejoin:round"></path></g><g id="freepik--speech-bubble-1--inject-4"><path d="M102.22,246.4h55.94a5.93,5.93,0,0,1,5.73,6.13V257l14.92-6.19-14.92,17.77v43.21a5.94,5.94,0,0,1-5.73,6.13H102.22a5.94,5.94,0,0,1-5.73-6.13V252.53A5.93,5.93,0,0,1,102.22,246.4Z" style="fill:#fff;stroke:#263238;stroke-linecap:round;stroke-linejoin:round"></path><circle cx="126.12" cy="272.23" r="18.53" style="fill:#263238;stroke:#263238;stroke-linecap:round;stroke-linejoin:round"></circle><path d="M125.8,286.19v-2.7a5.51,5.51,0,0,1-4.2-1.81,8.26,8.26,0,0,1-1.51-5.15l4.16-.62a11,11,0,0,0,.24,2.28,2.48,2.48,0,0,0,.64,1.25,1.44,1.44,0,0,0,1,.38,1,1,0,0,0,1-.51,2.57,2.57,0,0,0,.23-1.09,4,4,0,0,0-.63-2.3A9.78,9.78,0,0,0,125,274l-1.93-1.66a16.14,16.14,0,0,1-1.48-1.51,6.17,6.17,0,0,1-1.07-1.79,6.39,6.39,0,0,1-.41-2.44,5.44,5.44,0,0,1,1.48-4.05,6.11,6.11,0,0,1,4-1.66v-2.58h1.39v2.55a5,5,0,0,1,2.53.73,4.2,4.2,0,0,1,1.43,1.57,7.26,7.26,0,0,1,.65,2,12.78,12.78,0,0,1,.2,1.94l-4.21.52q0-1-.12-1.71a2.54,2.54,0,0,0-.38-1.13,1,1,0,0,0-.92-.37,1.08,1.08,0,0,0-1,.57,2.26,2.26,0,0,0-.33,1.14,3.16,3.16,0,0,0,.67,2.11,13.78,13.78,0,0,0,1.45,1.51l1.85,1.6a16.88,16.88,0,0,1,1.7,1.8,7.87,7.87,0,0,1,1.24,2.12,7.26,7.26,0,0,1,.46,2.69,5.82,5.82,0,0,1-.6,2.64,5,5,0,0,1-1.71,1.95,5.89,5.89,0,0,1-2.66.91v2.72Z" style="fill:#fff"></path><path d="M159.49,272.72,147,277l3.44,3-17.5,20-10.54-5.81a2,2,0,0,0-2.18.17L103.68,307a2,2,0,0,0,2.43,3.18l15.53-11.88,10.8,5.95a2,2,0,0,0,2.47-.43l18.57-21.17,3.44,3Z" style="fill:#0D5F82;stroke:#263238;stroke-linecap:round;stroke-linejoin:round"></path></g><g id="freepik--Character--inject-4"><path d="M212.36,281.55s4.35,83,6.53,99.82,6.53,41.36,6.53,41.36-3.11,2.18-3.73,4.36.31,10.26.31,10.26l22.7,1.55s.93-5.59.93-18.35v-19c0-2.48,3.74-108.84,3.74-108.84l2.79,109.16s-.93,33.89.63,34.51a27.28,27.28,0,0,1,4.35,2.8l19.9-.62a65.18,65.18,0,0,0,1.56-11.19c0-4.36-2.8-12.75-2.49-17.42s8.4-42.6,8.4-49.13V259.15H213Z" style="fill:#263238;stroke:#263238;stroke-linecap:round;stroke-linejoin:round"></path><path d="M242.52,437.35s-8.39-7.15-12.12-6.53-7.16,2.8-7.47,3.73-2.49,2.8-3.11,4.66-10.57,11.2-12.75,13.69-3.73,2.8-1.86,4.35a9,9,0,0,0,4,1.87H244.7s1.25-2.8.93-8.4-.93-11.82-.93-11.82Z" style="fill:#fff;stroke:#263238;stroke-linecap:round;stroke-linejoin:round"></path><path d="M204.38,456c0,.36.22.73.83,1.24a9,9,0,0,0,4,1.87H244.7a12.85,12.85,0,0,0,.75-3.11Z" style="fill:#fff;stroke:#263238;stroke-linecap:round;stroke-linejoin:round"></path><path d="M257.27,437.35s7.91-7.15,11.43-6.53,6.74,2.8,7,3.73,2.34,2.8,2.93,4.66,10,11.2,12,13.69,3.52,2.8,1.76,4.35a8.23,8.23,0,0,1-3.81,1.87h-33.4s-1.17-2.8-.88-8.4.88-11.82.88-11.82Z" style="fill:#fff;stroke:#263238;stroke-linecap:round;stroke-linejoin:round"></path><path d="M293.21,456c0,.36-.21.73-.78,1.24a8.23,8.23,0,0,1-3.81,1.87h-33.4a13.8,13.8,0,0,1-.71-3.11Z" style="fill:#fff;stroke:#263238;stroke-linecap:round;stroke-linejoin:round"></path><path d="M238.57,147.67l-9,7.64,1.62,105.56h38.89s1.85-107.88,1.16-109.5-4.86-3.24-4.86-3.24Z" style="fill:#fff;stroke:#263238;stroke-linecap:round;stroke-linejoin:round"></path><path d="M304.53,193.66,320,197.94s-15.67-28.74-18.52-35.63c-2.23-5.38-5-7-6.15-7.43-5.93-3.83-28.94-6.75-28.94-6.75l-1.8,52.71-2.75,87.48h32.73s-2.76-30.89-4.28-40.68l-2.15-13.77s2.65-21,5-41.11Z" style="fill:#0D5F82;stroke:#263238;stroke-linecap:round;stroke-linejoin:round"></path><path d="M270,214.44a42.42,42.42,0,0,1-3.8,7.58" style="fill:none;stroke:#263238;stroke-linecap:round;stroke-linejoin:round"></path><path d="M271.21,151.37l5.44,12.11-4.47,4.85,7.08,8.57s-2.76,18.67-7.63,33.13" style="fill:none;stroke:#263238;stroke-linecap:round;stroke-linejoin:round"></path><path d="M235.91,122.07s-2.91-4-5-1.13,5.82,12.78,5.82,12.78Z" style="fill:#fff;stroke:#263238;stroke-linecap:round;stroke-linejoin:round"></path><path d="M269.56,122.07s2.91-4,5-1.13-5.82,12.78-5.82,12.78Z" style="fill:#fff;stroke:#263238;stroke-linecap:round;stroke-linejoin:round"></path><path d="M235.26,119.81s1.78,18.6,2.11,21.84,1.45,10.19,2.75,12.61,10.19,11.49,12.61,10.52,10.84-9.71,13.11-12.3,1.45-7.28,1.78-8.41,1.61-12.29,1.61-12.29L270,120s.33-1.13-.16-8.41-.48-10.52-1.29-12.3-2.91-2.75-6.64-3.72-12.61-.8-18.11,1.95-8.25,6.63-8.41,8.08S235.26,119.81,235.26,119.81Z" style="fill:#fff;stroke:#263238;stroke-linecap:round;stroke-linejoin:round"></path><path d="M250.15,114.47s-5-3.24-7.77,1" style="fill:none;stroke:#263238;stroke-linecap:round;stroke-linejoin:round"></path><path d="M257.1,114.79a5.55,5.55,0,0,1,6.8.81" style="fill:none;stroke:#263238;stroke-linecap:round;stroke-linejoin:round"></path><path d="M255.65,116.41a8.23,8.23,0,0,1,1,4c.16,2.91-.33,8.89-.33,8.89l-6.14-.65" style="fill:none;stroke:#263238;stroke-linecap:round;stroke-linejoin:round"></path><path d="M246.91,130.81s3.07,5,10.84,2.42" style="fill:none;stroke:#263238;stroke-linecap:round;stroke-linejoin:round"></path><path d="M247.88,119.24c0,.94-.43,1.7-1,1.7s-1-.76-1-1.7.44-1.7,1-1.7S247.88,118.3,247.88,119.24Z" style="fill:#263238"></path><path d="M261.63,119.24c0,.94-.43,1.7-1,1.7s-1-.76-1-1.7.43-1.7,1-1.7S261.63,118.3,261.63,119.24Z" style="fill:#263238"></path><path d="M249.18,121.43a11,11,0,0,1-4.53,2.58" style="fill:none;stroke:#263238;stroke-linecap:round;stroke-linejoin:round"></path><path d="M258.72,121.43s1.94,2.26,4.21,2.58" style="fill:none;stroke:#263238;stroke-linecap:round;stroke-linejoin:round"></path><path d="M247.07,146.34s3.08,3.72,11.65.16" style="fill:none;stroke:#263238;stroke-linecap:round;stroke-linejoin:round"></path><path d="M233.49,104.6s.48,16.34,1,16.66,1.94.65,2.26-.48a32.47,32.47,0,0,0,.16-5.34s1.62-.16,1.94-2.75-1.13-7.12-1.13-7.12,5.82-4.2,11.32-5.82,8.42.81,11.81,1a8,8,0,0,0,5.5-1.78s-1.62,2.43-1.62,3.56,2.11,7.12,1.78,8.9-.64,3.72.33,4.36,2.1,1.46,2.1,1.46,0,4.37.65,4.69,1.78-1.45,1.94-3.88.16-8.25,1-10,2.1-3.07,1.13-5.66-4.37-4.85-4.85-5-6.63-8.08-14.56-10-20.54,9.39-21.84,12.95S233.49,104.6,233.49,104.6Z" style="fill:#263238;stroke:#263238;stroke-linecap:round;stroke-linejoin:round"></path><path d="M162.11,162a49.45,49.45,0,0,1-2.23-7c-.35-2.23-3.1-5.84-5.84-6.87a20.16,20.16,0,0,1-7.73-5.33c-2.41-2.57-3.78-3.43-4.13-.86s1.38,3.78,3.1,5.33,3.43,2.92,3.43,2.92a21.26,21.26,0,0,1-5.32,1,34,34,0,0,1-9.45-.86c-2.58-.69-11.51-7.21-10.65-4.64s5.15,5.84,8.59,9.11,5.67,5,9.62,6.18,10.3,2.75,10.3,2.75l3.61,4.81Z" style="fill:#fff;stroke:#263238;stroke-linecap:round;stroke-linejoin:round"></path><path d="M135.49,157.37s-5.5-4.12-6.36-8.76-.51-6.35.69-5.67,4.12,7.39,4.12,7.39l5.15,5.67" style="fill:#fff;stroke:#263238;stroke-linecap:round;stroke-linejoin:round"></path><path d="M140.12,159.61s-5.15-3.1-5.66-6.19-1.72-12.19-.52-11.51,3.61,10.31,3.61,10.31l2.92,2.58" style="fill:#fff;stroke:#263238;stroke-linecap:round;stroke-linejoin:round"></path><path d="M143,159.78s-3.09-6-3.78-7.9-2.23-9.79-.68-9.45,2.92,8.24,2.92,8.24l3.95,5s5.49-1.72,7-1.38,3.44,3.44,3.44,3.44" style="fill:#fff;stroke:#263238;stroke-linecap:round;stroke-linejoin:round"></path><polygon points="166.19 164.73 162.08 160.92 151.93 171.51 154.91 175.42 166.19 164.73" style="fill:#fff;stroke:#263238;stroke-linecap:round;stroke-linejoin:round"></polygon><path d="M238.57,147.67s-3.48,27.54-3.94,43.29,1.16,98.39,1.16,98.39L205,288.42s3.47-29.17,6-39.82a93.18,93.18,0,0,0,1.85-25c-.23-1.39-1.85-14.12-1.85-14.12s-17.37,11.57-19.45,11.34-14.12-9-23.38-20.6a99.64,99.64,0,0,1-14.12-25L165,162.71l25.93,25.93s13.42-27.08,14.81-27.78S238.57,147.67,238.57,147.67Z" style="fill:#0D5F82;stroke:#263238;stroke-linecap:round;stroke-linejoin:round"></path><path d="M225.78,195.27A167.72,167.72,0,0,0,233,221.64" style="fill:none;stroke:#263238;stroke-linecap:round;stroke-linejoin:round"></path><path d="M232.66,152.29l-5.6,14.17,4.48,3.73-7.83,8.2A101.87,101.87,0,0,0,225.05,191" style="fill:none;stroke:#263238;stroke-linecap:round;stroke-linejoin:round"></path><path d="M210.32,205.77s-4.63-20.37-6-28.47" style="fill:#fff;stroke:#263238;stroke-linecap:round;stroke-linejoin:round"></path><polyline points="238.07 163.4 242.02 174.99 252.74 164.78 261.25 175.78 264.98 165.89" style="fill:#fff;stroke:#263238;stroke-linecap:round;stroke-linejoin:round"></polyline><polygon points="256.86 170.77 252.02 179.41 246.46 170.71 252.74 164.78 256.86 170.77" style="fill:#263238;stroke:#263238;stroke-linecap:round;stroke-linejoin:round"></polygon><polygon points="252.02 179.41 241.24 251.59 250.85 259.32 258.35 251.36 252.02 179.41" style="fill:#263238;stroke:#263238;stroke-linecap:round;stroke-linejoin:round"></polygon><circle cx="291.54" cy="136.21" r="14.3" transform="translate(-23.59 71.08) rotate(-13.37)" style="fill:#fff;stroke:#263238;stroke-linecap:round;stroke-linejoin:round"></circle><path d="M282.15,154.58s-.49,6.4-.12,7.63,3,6.15,3,6.15-.37,3.45.24,4.56,6.52,8.12,6.52,8.12l7-6.16L294.82,167l-.12-10.21S287,150.16,282.15,154.58Z" style="fill:#fff;stroke:#263238;stroke-linecap:round;stroke-linejoin:round"></path><path d="M285.63,147.52l2.16,17.75a3.48,3.48,0,0,0,3.84,3h0a3.48,3.48,0,0,0,3.09-3.58l-.62-18.13S288.76,142.55,285.63,147.52Z" style="fill:#fff;stroke:#263238;stroke-linecap:round;stroke-linejoin:round"></path><path d="M286,151.39s-4.6.55-4.6,2,1.65,8.1,3.12,8.47,2.58.37,2.58-2.58A48.66,48.66,0,0,0,286,151.39Z" style="fill:#fff;stroke:#263238;stroke-linecap:round;stroke-linejoin:round"></path><path d="M296.86,156.36s-10.68.92-10.86,2,.18,3.87.92,3.87,10.3.07,10.49-1S298.15,157.83,296.86,156.36Z" style="fill:#fff;stroke:#263238;stroke-linecap:round;stroke-linejoin:round"></path><path d="M296.53,161.54s-9.51.53-9.71,1.51.06,3.44.72,3.46,9.15.34,9.35-.59S297.64,162.88,296.53,161.54Z" style="fill:#fff;stroke:#263238;stroke-linecap:round;stroke-linejoin:round"></path><path d="M295.23,166.16s-7.88.44-8,1.25.05,2.85.6,2.87,7.57.28,7.73-.49S296.15,167.27,295.23,166.16Z" style="fill:#fff;stroke:#263238;stroke-linecap:round;stroke-linejoin:round"></path><path d="M296.12,151.57s-10.68.92-10.86,2,.18,3.86.92,3.86,10.3.08,10.49-1S297.41,153,296.12,151.57Z" style="fill:#fff;stroke:#263238;stroke-linecap:round;stroke-linejoin:round"></path><polygon points="298.62 171.38 295.52 169.79 287.11 180.1 290.56 184.7 298.62 171.38" style="fill:#fff;stroke:#263238;stroke-linecap:round;stroke-linejoin:round"></polygon><path d="M298,169.56s-3.06,7.13-5.35,9.68-4.85,4.84-4.85,4.84S298.5,209.31,300,214.15s7.39,8.15,9.94,8.91,8.66-1.27,11-3.82,5.6-10.7,3.82-15.28S298,169.56,298,169.56Z" style="fill:#0D5F82;stroke:#263238;stroke-linecap:round;stroke-linejoin:round"></path><circle cx="309.04" cy="130.13" r="25.87" transform="translate(-22.74 81.56) rotate(-14.51)" style="fill:#0D5F82;stroke:#263238;stroke-linecap:round;stroke-linejoin:round"></circle><circle cx="309.04" cy="130.13" r="21.08" transform="translate(-21.37 72.94) rotate(-13.02)" style="fill:#263238;stroke:#263238;stroke-linecap:round;stroke-linejoin:round"></circle><circle cx="307.01" cy="131.14" r="8.55" style="fill:#fff;stroke:#263238;stroke-linecap:round;stroke-linejoin:round"></circle><path d="M313.76,130.13a4.72,4.72,0,1,0-4.72,4.71A4.72,4.72,0,0,0,313.76,130.13Z" style="fill:#0D5F82;stroke:#263238;stroke-linecap:round;stroke-linejoin:round"></path></g></svg>
