<?xml version="1.0" encoding="UTF-8" standalone="no"?>
<svg
   viewBox="0 0 474.60229 463.11957"
   version="1.1"
   id="svg426"
   sodipodi:docname="Verified-bro.svg"
   width="474.60229"
   height="463.11957"
   inkscape:version="1.1 (c68e22c387, 2021-05-23)"
   xmlns:inkscape="http://www.inkscape.org/namespaces/inkscape"
   xmlns:sodipodi="http://sodipodi.sourceforge.net/DTD/sodipodi-0.dtd"
   xmlns="http://www.w3.org/2000/svg"
   xmlns:svg="http://www.w3.org/2000/svg">
  <defs
     id="defs430" />
  <sodipodi:namedview
     id="namedview428"
     pagecolor="#ffffff"
     bordercolor="#666666"
     borderopacity="1.0"
     inkscape:pageshadow="2"
     inkscape:pageopacity="0.0"
     inkscape:pagecheckerboard="0"
     showgrid="false"
     inkscape:zoom="1.244"
     inkscape:cx="238.34405"
     inkscape:cy="229.09968"
     inkscape:window-width="1368"
     inkscape:window-height="850"
     inkscape:window-x="-6"
     inkscape:window-y="-6"
     inkscape:window-maximized="1"
     inkscape:current-layer="svg426" />
  <g
     id="freepik--background-simple--inject-66"
     transform="translate(-11.373362,-20.878396)">
    <path
       d="M 448.78,113.53 A 149.17,149.17 0 0 0 437.85,98.18 C 405.49,58.39 363.18,41.55 314.85,30.27 264.93,18.62 206.48,15 158.55,36 147.27,41 136.55,47.6 128.07,56.6 96,90.51 85,147.3 49.29,192.19 13.58,237.08 -3.84,293 28.22,346.08 c 13.57,22.48 30.87,41 51.34,57.3 25.2,20 46.94,47.06 76.07,62.71 30.61,16.44 71.38,22.17 105.26,14.64 38.65,-8.59 61.32,-42.75 90.82,-66 23.26,-18.36 51.09,-30.38 73.88,-49.32 34.92,-29 61.4,-75.66 57,-121.89 -4.32,-44.88 -9.88,-91.52 -33.81,-129.99 z"
       style="fill:#a61c3c"
       id="path2" />
    <path
       d="M 448.78,113.53 A 149.17,149.17 0 0 0 437.85,98.18 C 405.49,58.39 363.18,41.55 314.85,30.27 264.93,18.62 206.48,15 158.55,36 147.27,41 136.55,47.6 128.07,56.6 96,90.51 85,147.3 49.29,192.19 13.58,237.08 -3.84,293 28.22,346.08 c 13.57,22.48 30.87,41 51.34,57.3 25.2,20 46.94,47.06 76.07,62.71 30.61,16.44 71.38,22.17 105.26,14.64 38.65,-8.59 61.32,-42.75 90.82,-66 23.26,-18.36 51.09,-30.38 73.88,-49.32 34.92,-29 61.4,-75.66 57,-121.89 -4.32,-44.88 -9.88,-91.52 -33.81,-129.99 z"
       style="opacity:0.7;fill:#ffffff"
       id="path4" />
  </g>
  <g
     id="freepik--Window--inject-66"
     transform="translate(-11.373362,-20.878396)">
    <path
       d="m 454.75,31.1 a 4.59,4.59 0 0 0 -4.35,3.14 H 224.89 a 4.62,4.62 0 1 0 0,2.95 H 450.4 a 4.6,4.6 0 1 0 4.35,-6.09 z"
       style="opacity:0.2"
       id="path7" />
    <g
       style="opacity:0.2"
       id="g27">
      <path
         d="m 278.22,38 c 3.22,78.18 6,157.11 9.39,235 l -0.33,15.27 c 0,0 -14.45,0 -22.06,0.76 -7.61,0.76 -19.4,0.76 -27.77,0.76 -8.37,0 -12.93,-3.05 -12.93,-3.05 l 0.55,-13.76 c 1.68,-77.86 3.51,-156.8 4.69,-235"
         style="fill:none;stroke:#000000;stroke-linejoin:round"
         id="path9" />
      <line
         x1="242.19"
         y1="260.10999"
         x2="242.14999"
         y2="269.31"
         style="fill:none;stroke:#000000;stroke-linejoin:round"
         id="line11" />
      <line
         x1="242.98"
         y1="80.75"
         x2="242.23"
         y2="251.92999"
         style="fill:none;stroke:#000000;stroke-linejoin:round"
         id="line13" />
      <line
         x1="243.17"
         y1="36.290001"
         x2="243"
         y2="75.639999"
         style="fill:none;stroke:#000000;stroke-linejoin:round"
         id="line15" />
      <line
         x1="256.14001"
         y1="126.21"
         x2="254.41"
         y2="240.17999"
         style="fill:none;stroke:#000000;stroke-linejoin:round"
         id="line17" />
      <line
         x1="257.48001"
         y1="37.310001"
         x2="256.23999"
         y2="119.08"
         style="fill:none;stroke:#000000;stroke-linejoin:round"
         id="line19" />
      <line
         x1="268.23999"
         y1="157.91"
         x2="268.72"
         y2="263.69"
         style="fill:none;stroke:#000000;stroke-linejoin:round"
         id="line21" />
      <line
         x1="267.89999"
         y1="82.790001"
         x2="268.20001"
         y2="149.22"
         style="fill:none;stroke:#000000;stroke-linejoin:round"
         id="line23" />
      <line
         x1="267.70001"
         y1="38.330002"
         x2="267.85999"
         y2="74.620003"
         style="fill:none;stroke:#000000;stroke-linejoin:round"
         id="line25" />
    </g>
    <g
       style="opacity:0.2"
       id="g47">
      <path
         d="m 394.89,38 c -3.09,82.78 -7,166.39 -10,248.73 a 138.9,138.9 0 0 0 16.18,1.49 h 32.31 a 93.14,93.14 0 0 0 14.95,-1.54 c -1.45,-82.29 -2.44,-165.9 -5,-248.68"
         style="fill:none;stroke:#000000;stroke-linejoin:round"
         id="path29" />
      <line
         x1="430.92001"
         y1="260.10999"
         x2="430.95999"
         y2="269.31"
         style="fill:none;stroke:#000000;stroke-linejoin:round"
         id="line31" />
      <line
         x1="430.14001"
         y1="80.75"
         x2="430.89001"
         y2="251.92999"
         style="fill:none;stroke:#000000;stroke-linejoin:round"
         id="line33" />
      <line
         x1="429.94"
         y1="36.290001"
         x2="430.10999"
         y2="75.639999"
         style="fill:none;stroke:#000000;stroke-linejoin:round"
         id="line35" />
      <line
         x1="416.98001"
         y1="126.21"
         x2="418.70001"
         y2="240.17999"
         style="fill:none;stroke:#000000;stroke-linejoin:round"
         id="line37" />
      <line
         x1="415.63"
         y1="37.310001"
         x2="416.87"
         y2="119.08"
         style="fill:none;stroke:#000000;stroke-linejoin:round"
         id="line39" />
      <line
         x1="404.87"
         y1="157.91"
         x2="404.39001"
         y2="263.69"
         style="fill:none;stroke:#000000;stroke-linejoin:round"
         id="line41" />
      <line
         x1="405.20999"
         y1="82.790001"
         x2="404.91"
         y2="149.22"
         style="fill:none;stroke:#000000;stroke-linejoin:round"
         id="line43" />
      <line
         x1="405.41"
         y1="38.330002"
         x2="405.25"
         y2="74.620003"
         style="fill:none;stroke:#000000;stroke-linejoin:round"
         id="line45" />
    </g>
    <g
       style="opacity:0.2"
       id="g53">
      <polyline
         points="279.66 60.24 302.35 60.24 302.35 86.72 281.17 86.72"
         style="fill:none;stroke:#000000;stroke-linejoin:round"
         id="polyline49" />
      <rect
         x="306.31"
         y="60.299999"
         width="23.719999"
         height="26.559999"
         style="fill:none;stroke:#000000;stroke-linejoin:round"
         id="rect51" />
    </g>
    <g
       style="opacity:0.2"
       id="g59">
      <polyline
         points="393.76 60.24 371.07 60.24 371.07 86.72 392.25 86.72"
         style="fill:none;stroke:#000000;stroke-linejoin:round"
         id="polyline55" />
      <rect
         x="343.39001"
         y="60.299999"
         width="23.719999"
         height="26.559999"
         transform="rotate(180,355.25,73.58)"
         style="fill:none;stroke:#000000;stroke-linejoin:round"
         id="rect57" />
    </g>
    <polyline
       points="283.4 180.55 330.64 180.55 330.64 101.17 281.33 101.17"
       style="opacity:0.2;fill:none;stroke:#000000;stroke-linejoin:round"
       id="polyline61" />
    <polyline
       points="391.37 100.5 343.1 100.5 343.1 180.55 387.74 180.55"
       style="opacity:0.2;fill:none;stroke:#000000;stroke-linejoin:round"
       id="polyline63" />
    <polyline
       points="284.96 199.39 330.64 199.39 330.64 279.19 288.42 279.19"
       style="opacity:0.2;fill:none;stroke:#000000;stroke-linejoin:round"
       id="polyline65" />
    <polyline
       points="388.26 198.72 343.1 198.72 343.1 279.93 384.27 279.93"
       style="opacity:0.2;fill:none;stroke:#000000;stroke-linejoin:round"
       id="polyline67" />
    <line
       x1="288.20999"
       y1="285"
       x2="384.89999"
       y2="285"
       style="opacity:0.2;fill:none;stroke:#000000;stroke-linejoin:round"
       id="line69" />
    <line
       x1="279.47"
       y1="51.049999"
       x2="393.70999"
       y2="51.049999"
       style="opacity:0.2;fill:none;stroke:#000000;stroke-linejoin:round"
       id="line71" />
    <line
       x1="336.85999"
       y1="51.599998"
       x2="336.85999"
       y2="283.89999"
       style="opacity:0.2;fill:none;stroke:#000000;stroke-linejoin:round"
       id="line73" />
    <line
       x1="280.92001"
       y1="95.029999"
       x2="392.04001"
       y2="95.029999"
       style="opacity:0.2;fill:none;stroke:#000000;stroke-linejoin:round"
       id="line75" />
  </g>
  <g
     id="freepik--Couch--inject-66"
     transform="translate(-11.373362,-20.878396)">
    <g
       style="opacity:0.2"
       id="g92">
      <path
         d="M 354.9,385.19 V 308 A 11.09,11.09 0 0 0 343.8,296.91 H 242.38 V 386"
         style="fill:none;stroke:#000000;stroke-linejoin:round"
         id="path78" />
      <path
         d="M 243.23,296.89 H 139.92 A 11.08,11.08 0 0 0 128.83,308 v 77.21"
         style="fill:none;stroke:#000000;stroke-linejoin:round"
         id="path80" />
      <path
         d="m 364.92,392.56 v 26 H 242.43 v -33.37 h 115.12 a 7.37,7.37 0 0 1 7.37,7.37 z"
         style="fill:none;stroke:#000000;stroke-linejoin:round"
         id="path82" />
      <path
         d="M 243.36,385.19 H 126.19 a 7.37,7.37 0 0 0 -7.38,7.37 v 26 h 124.55"
         style="fill:none;stroke:#000000;stroke-linejoin:round"
         id="path84" />
      <rect
         x="118.81"
         y="418.53"
         width="246.32001"
         height="41.830002"
         style="fill:none;stroke:#000000;stroke-linejoin:round"
         id="rect86" />
      <path
         d="m 128.83,340.89 a 7.44,7.44 0 0 0 -5.37,-2.29 h -22.31 a 7.43,7.43 0 0 0 -7.44,7.4 v 106.9 a 7.44,7.44 0 0 0 7.44,7.43 h 22.31"
         style="fill:none;stroke:#000000;stroke-linejoin:round"
         id="path88" />
      <path
         d="M 357.69,460.36 H 380 a 7.43,7.43 0 0 0 7.43,-7.43 V 346 A 7.43,7.43 0 0 0 380,338.6 h -22.31 a 7.38,7.38 0 0 0 -2.79,0.54"
         style="fill:none;stroke:#000000;stroke-linejoin:round"
         id="path90" />
    </g>
  </g>
  <g
     id="freepik--Device--inject-66"
     transform="translate(-11.373362,-20.878396)">
    <path
       d="M 248.87,147.22 V 112.3 h -3.16 V 67.6 A 27.55,27.55 0 0 0 218.16,40 h -148 A 27.56,27.56 0 0 0 42.59,67.6 v 300.74 a 27.56,27.56 0 0 0 27.56,27.56 h 148 A 27.55,27.55 0 0 0 245.7,368.34 V 177 h 3.16 v -20.65 h -3.16 v -9.13 z"
       style="fill:#707070;stroke:#263238;stroke-linejoin:round"
       id="path95" />
    <rect
       x="45.779999"
       y="43.84"
       width="196.74001"
       height="348.26001"
       rx="30.52"
       style="fill:#263238;stroke:#263238;stroke-linejoin:round"
       id="rect97" />
    <path
       d="m 209.5,46.34 h -54.64 l -0.06,0.2 c -1.61,5.82 -5.34,9.6 -9.46,9.6 H 143 c -4.13,0 -7.85,-3.78 -9.47,-9.6 l -0.05,-0.2 H 78.81 A 27.56,27.56 0 0 0 51.25,73.9 v 274.76 a 27.55,27.55 0 0 0 27.56,27.55 H 209.5 a 27.54,27.54 0 0 0 27.55,-27.55 V 73.9 A 27.55,27.55 0 0 0 209.5,46.34 Z"
       style="fill:#ffffff;stroke:#263238;stroke-linejoin:round"
       id="path99" />
    <path
       d="m 209.5,46.34 h -54.64 l -0.06,0.2 c -1.61,5.82 -5.34,9.6 -9.46,9.6 H 143 c -4.13,0 -7.85,-3.78 -9.47,-9.6 l -0.05,-0.2 H 78.81 A 27.56,27.56 0 0 0 51.25,73.9 V 77 h 185.8 V 73.9 A 27.55,27.55 0 0 0 209.5,46.34 Z"
       style="fill:#a61c3c"
       id="path101" />
    <path
       d="m 205.79,202 c 0,-6 8.18,-13.06 6.7,-18.62 -1.54,-5.75 -12.19,-7.74 -15.1,-12.78 -2.91,-5.04 0.61,-15.31 -3.54,-19.46 -4.15,-4.15 -14.34,-0.57 -19.46,-3.53 -5.12,-2.96 -7,-13.56 -12.77,-15.1 -5.56,-1.48 -12.59,6.7 -18.62,6.7 -6.03,0 -13.06,-8.18 -18.62,-6.7 -5.75,1.54 -7.74,12.19 -12.78,15.1 -5.04,2.91 -15.31,-0.61 -19.46,3.54 -4.15,4.15 -0.57,14.34 -3.53,19.46 -2.96,5.12 -13.56,7 -15.1,12.77 -1.51,5.56 6.7,12.62 6.7,18.62 0,6 -8.18,13.06 -6.7,18.62 1.54,5.75 12.19,7.74 15.1,12.78 2.91,5.04 -0.61,15.31 3.54,19.46 4.15,4.15 14.34,0.57 19.46,3.53 5.12,2.96 7,13.56 12.77,15.1 5.56,1.48 12.59,-6.7 18.62,-6.7 6.03,0 13.06,8.18 18.62,6.7 5.75,-1.54 7.74,-12.19 12.78,-15.1 5.04,-2.91 15.31,0.61 19.46,-3.54 4.15,-4.15 0.57,-14.34 3.53,-19.46 2.96,-5.12 13.56,-7 15.1,-12.77 1.51,-5.56 -6.7,-12.62 -6.7,-18.62 z"
       style="fill:#a61c3c"
       id="path103" />
    <path
       d="M 142.13,227.16 115,198.44 a 3.4311077,3.4311077 0 0 1 5,-4.7 l 21.3,22.56 26.9,-39 a 3.43,3.43 0 1 1 5.64,3.89 z"
       style="fill:#ffffff"
       id="path105" />
    <path
       d="m 72.15,303.88 -0.82,0.83 -5.64,5.64 -6.48,-6.47 a 4,4 0 0 1 0,-5.64 4,4 0 0 1 5.64,0 l 0.84,0.83 0.82,-0.83 a 4,4 0 0 1 5.64,0 4,4 0 0 1 0,5.64 z"
       style="fill:none;stroke:#263238;stroke-linejoin:round"
       id="path107" />
    <circle
       cx="87.879997"
       cy="303.98001"
       r="8.25"
       style="fill:none;stroke:#263238;stroke-linecap:round;stroke-linejoin:round"
       id="circle109" />
    <path
       d="m 83.06,305.49 a 4.75,4.75 0 0 0 4.82,3.89 4.53,4.53 0 0 0 4.82,-3.89 z"
       style="fill:none;stroke:#263238;stroke-linecap:round;stroke-linejoin:round"
       id="path111" />
    <path
       d="m 85.92,302.46 c 0,0.94 -0.28,1.7 -0.62,1.7 -0.34,0 -0.62,-0.76 -0.62,-1.7 0,-0.94 0.28,-1.71 0.62,-1.71 0.34,0 0.62,0.76 0.62,1.71 z"
       style="fill:#263238"
       id="path113" />
    <path
       d="m 90.57,302.46 c 0,0.94 -0.28,1.7 -0.62,1.7 -0.34,0 -0.62,-0.76 -0.62,-1.7 0,-0.94 0.28,-1.71 0.62,-1.71 0.34,0 0.62,0.76 0.62,1.71 z"
       style="fill:#263238"
       id="path115" />
    <line
       x1="59.380001"
       y1="320.5"
       x2="116.5"
       y2="320.5"
       style="fill:none;stroke:#263238;stroke-linejoin:round"
       id="line117" />
    <line
       x1="162.33"
       y1="328"
       x2="181.67"
       y2="328"
       style="fill:none;stroke:#263238;stroke-linejoin:round"
       id="line119" />
    <line
       x1="146.33"
       y1="328"
       x2="158.33"
       y2="328"
       style="fill:none;stroke:#263238;stroke-linejoin:round"
       id="line121" />
    <line
       x1="98.330002"
       y1="328"
       x2="141.67"
       y2="328"
       style="fill:none;stroke:#263238;stroke-linejoin:round"
       id="line123" />
    <line
       x1="59.380001"
       y1="328"
       x2="93"
       y2="328"
       style="fill:none;stroke:#263238;stroke-linejoin:round"
       id="line125" />
    <line
       x1="132.33"
       y1="336"
       x2="170"
       y2="336"
       style="fill:none;stroke:#263238;stroke-linejoin:round"
       id="line127" />
    <line
       x1="99"
       y1="336"
       x2="127.67"
       y2="336"
       style="fill:none;stroke:#263238;stroke-linejoin:round"
       id="line129" />
    <line
       x1="59.380001"
       y1="336"
       x2="94.330002"
       y2="336"
       style="fill:none;stroke:#263238;stroke-linejoin:round"
       id="line131" />
    <line
       x1="219.67"
       y1="344"
       x2="224.33"
       y2="344"
       style="fill:none;stroke:#263238;stroke-linejoin:round"
       id="line133" />
    <line
       x1="185"
       y1="344"
       x2="216.33"
       y2="344"
       style="fill:none;stroke:#263238;stroke-linejoin:round"
       id="line135" />
    <line
       x1="123.67"
       y1="344"
       x2="177"
       y2="344"
       style="fill:none;stroke:#263238;stroke-linejoin:round"
       id="line137" />
    <line
       x1="73"
       y1="344"
       x2="118.33"
       y2="344"
       style="fill:none;stroke:#263238;stroke-linejoin:round"
       id="line139" />
    <line
       x1="59.380001"
       y1="344"
       x2="67.669998"
       y2="344"
       style="fill:none;stroke:#263238;stroke-linejoin:round"
       id="line141" />
    <circle
       cx="70.870003"
       cy="102.67"
       r="10.96"
       style="fill:#595959"
       id="circle143" />
    <line
       x1="87.309998"
       y1="103.17"
       x2="125.18"
       y2="103.17"
       style="fill:none;stroke:#263238;stroke-linejoin:round"
       id="line145" />
    <circle
       cx="143.59"
       cy="47.66"
       r="2.5899999"
       style="fill:#707070"
       id="circle147" />
    <path
       d="m 67.76,57.58 c 0,2.61 -2.93,3.56 -3,5.55 v 0.14 h 2.86 v 0.88 h -3.76 v -0.74 c 0,-2.81 2.94,-3.35 2.94,-5.8 0,-0.89 -0.3,-1.36 -1,-1.36 -0.7,0 -1,0.51 -1,1.28 v 0.77 h -0.9 v -0.71 c 0,-1.33 0.61,-2.21 2,-2.21 1.39,0 1.86,0.87 1.86,2.2 z"
       style="fill:#ffffff"
       id="path149" />
    <path
       d="m 72.52,57.56 v 0.23 a 1.72,1.72 0 0 1 -1.06,1.78 1.74,1.74 0 0 1 1.06,1.8 V 62 c 0,1.33 -0.62,2.2 -2,2.2 -1.38,0 -2,-0.87 -2,-2.2 v -0.59 h 0.91 v 0.65 c 0,0.78 0.32,1.26 1,1.26 0.68,0 1,-0.46 1,-1.34 v -0.67 c 0,-0.86 -0.36,-1.27 -1.09,-1.29 h -0.52 v -0.87 h 0.57 a 1,1 0 0 0 1,-1.19 v -0.4 c 0,-0.89 -0.31,-1.35 -1,-1.35 -0.69,0 -1,0.48 -1,1.26 V 58 h -0.91 v -0.4 c 0,-1.32 0.62,-2.18 2,-2.18 1.38,0 2.04,0.82 2.04,2.14 z"
       style="fill:#ffffff"
       id="path151" />
    <path
       d="m 74.39,58.22 v 1.2 h -0.93 v -1.2 z m 0,4.73 v 1.2 H 73.46 V 63 Z"
       style="fill:#ffffff"
       id="path153" />
    <path
       d="m 76.35,59 a 1.4,1.4 0 0 1 1.29,-0.72 c 1.12,0 1.61,0.82 1.61,2.06 V 62 c 0,1.33 -0.63,2.2 -2,2.2 -1.37,0 -1.94,-0.87 -1.94,-2.2 v -0.58 h 0.9 v 0.64 c 0,0.78 0.32,1.26 1,1.26 0.68,0 1,-0.48 1,-1.26 v -1.64 c 0,-0.78 -0.33,-1.26 -1,-1.26 a 0.94,0.94 0 0 0 -1,0.93 v 0.2 H 75.3 l 0.24,-4.82 H 79 v 0.87 h -2.51 z"
       style="fill:#ffffff"
       id="path155" />
    <path
       d="m 84.08,57.55 v 0.16 h -0.91 v -0.22 c 0,-0.78 -0.32,-1.24 -1,-1.24 -0.68,0 -1.06,0.47 -1.06,1.4 v 2 a 1.4,1.4 0 0 1 1.4,-0.93 c 1.12,0 1.61,0.8 1.61,2.06 V 62 c 0,1.33 -0.65,2.2 -2,2.2 -1.35,0 -2,-0.87 -2,-2.2 v -4.39 c 0,-1.37 0.62,-2.23 2,-2.23 1.38,0 1.96,0.84 1.96,2.17 z m -3,3.25 v 1.3 c 0,0.78 0.32,1.26 1,1.26 0.68,0 1,-0.48 1,-1.26 v -1.3 c 0,-0.78 -0.34,-1.25 -1,-1.25 -0.66,0 -0.99,0.45 -0.99,1.25 z"
       style="fill:#ffffff"
       id="path157" />
    <rect
       x="176.41"
       y="57.93"
       width="2.45"
       height="6.1300001"
       style="fill:#ffffff"
       id="rect159" />
    <rect
       x="179.67999"
       y="56.700001"
       width="2.45"
       height="7.3600001"
       style="fill:#ffffff"
       id="rect161" />
    <rect
       x="182.95"
       y="55.830002"
       width="2.45"
       height="8.2299995"
       style="fill:#ffffff"
       id="rect163" />
    <rect
       x="186.22"
       y="54.32"
       width="2.45"
       height="9.7399998"
       style="fill:#ffffff"
       id="rect165" />
    <path
       d="m 219,63.89 h -14.7 v -9 H 219 Z m -13.9,-0.81 h 13.08 v -7.36 h -13.07 z"
       style="fill:#ffffff"
       id="path167" />
    <rect
       x="206.34"
       y="56.610001"
       width="7.7600002"
       height="5.5799999"
       style="fill:#ffffff"
       id="rect169" />
    <rect
       x="218.5"
       y="58.34"
       width="1.85"
       height="2.1199999"
       style="fill:#ffffff"
       id="rect171" />
    <path
       d="m 198.9,61.94 a 0.6,0.6 0 0 1 -0.28,-0.08 c -3,-1.78 -5,-0.13 -5.05,-0.06 a 0.55,0.55 0 1 1 -0.72,-0.82 c 0.1,-0.1 2.63,-2.26 6.34,-0.06 a 0.55,0.55 0 0 1 0.19,0.75 0.57,0.57 0 0 1 -0.48,0.27 z"
       style="fill:#ffffff"
       id="path173" />
    <path
       d="m 200,60.09 a 0.5,0.5 0 0 1 -0.28,-0.08 c -4.33,-2.57 -7.24,-0.08 -7.27,-0.06 a 0.53,0.53 0 0 1 -0.77,-0.05 0.54,0.54 0 0 1 0.05,-0.77 c 0,0 3.54,-3 8.55,-0.06 a 0.54,0.54 0 0 1 0.19,0.75 0.53,0.53 0 0 1 -0.47,0.27 z"
       style="fill:#ffffff"
       id="path175" />
    <path
       d="m 201,58 a 0.53,0.53 0 0 1 -0.28,-0.07 c -5.49,-3.26 -9.13,-0.2 -9.28,-0.06 a 0.55267531,0.55267531 0 0 1 -0.73,-0.83 c 0.05,0 4.38,-3.74 10.57,-0.06 a 0.55,0.55 0 0 1 0.19,0.75 A 0.54,0.54 0 0 1 201,58 Z"
       style="fill:#ffffff"
       id="path177" />
    <path
       d="m 197.25,62.86 a 1.38,1.38 0 1 1 -1.38,-1.38 1.38,1.38 0 0 1 1.38,1.38 z"
       style="fill:#ffffff"
       id="path179" />
  </g>
  <g
     id="freepik--Plant--inject-66"
     transform="translate(-11.373362,-20.878396)">
    <path
       d="m 451.55,273.48 c 0,0 -11.95,-6.64 -12.83,8.41 -0.88,15.05 -3.1,139.89 -3.1,139.89"
       style="fill:none;stroke:#263238;stroke-width:2px;stroke-linecap:round;stroke-linejoin:round"
       id="path182" />
    <path
       d="m 432.51,283.21 c 0,0 9.75,48.71 5.32,137.24"
       style="fill:none;stroke:#263238;stroke-width:2px;stroke-linecap:round;stroke-linejoin:round"
       id="path184" />
    <path
       d="m 442.09,276.51 c 0,0 -4.57,2.93 -7.17,-0.43 -2.6,-3.36 1.76,-9.49 -2.09,-12.12 -3.85,-2.63 -10.48,1.39 -10.48,1.39 0,0 5.11,1.5 4.95,4.29 -0.16,2.79 -2.63,3.84 -3,2.62 -0.37,-1.22 -2.76,-7.36 -6.91,-4.81 a 10.28,10.28 0 0 0 -4.78,6.52 c 0,0 9.65,-1 10.24,2.6 0.59,3.6 -4,-0.63 -7.95,-0.86 -3.95,-0.23 -7.61,0.35 -7.36,2.76 a 31.45,31.45 0 0 1 -0.37,6.38 11.84,11.84 0 0 1 7.76,-2.74 c 4.38,0.25 4.21,3 0.23,2.81 -3.98,-0.19 -7.41,3.56 -7.41,3.56 0,0 3.63,6.21 8.25,9.28 4.62,3.07 6.28,2 6.82,-0.39 0.54,-2.39 -0.7,-8.44 2.09,-8.28 2.79,0.16 -4.62,10.53 -1.06,11.14 3.56,0.61 6.43,-0.42 7.36,-2.77 l 0.94,-2.34 c 0,0 -1.24,-6.07 -0.7,-8.44 0.54,-2.37 1.2,0.07 1.83,2.91 0.63,2.84 1,9.65 2.25,9.33 1.25,-0.32 5.11,-5.3 6,-7.25 0.89,-1.95 -5.13,-7.9 -5.06,-9.09 0.07,-1.19 4.74,1.08 5.46,2.32 a 29.91,29.91 0 0 1 1.43,2.88 c 0,0 2.91,-1.83 2.84,-7.43 -0.07,-5.6 -4.11,-3.84 -4.11,-3.84 z"
       style="fill:#a61c3c"
       id="path186" />
    <path
       d="m 442.09,276.51 c 0,0 -4.57,2.93 -7.17,-0.43 -2.6,-3.36 1.76,-9.49 -2.09,-12.12 -3.85,-2.63 -10.48,1.39 -10.48,1.39 0,0 5.11,1.5 4.95,4.29 -0.16,2.79 -2.63,3.84 -3,2.62 -0.37,-1.22 -2.76,-7.36 -6.91,-4.81 a 10.28,10.28 0 0 0 -4.78,6.52 c 0,0 9.65,-1 10.24,2.6 0.59,3.6 -4,-0.63 -7.95,-0.86 -3.95,-0.23 -7.61,0.35 -7.36,2.76 a 31.45,31.45 0 0 1 -0.37,6.38 11.84,11.84 0 0 1 7.76,-2.74 c 4.38,0.25 4.21,3 0.23,2.81 -3.98,-0.19 -7.41,3.56 -7.41,3.56 0,0 3.63,6.21 8.25,9.28 4.62,3.07 6.28,2 6.82,-0.39 0.54,-2.39 -0.7,-8.44 2.09,-8.28 2.79,0.16 -4.62,10.53 -1.06,11.14 3.56,0.61 6.43,-0.42 7.36,-2.77 l 0.94,-2.34 c 0,0 -1.24,-6.07 -0.7,-8.44 0.54,-2.37 1.2,0.07 1.83,2.91 0.63,2.84 1,9.65 2.25,9.33 1.25,-0.32 5.11,-5.3 6,-7.25 0.89,-1.95 -5.13,-7.9 -5.06,-9.09 0.07,-1.19 4.74,1.08 5.46,2.32 a 29.91,29.91 0 0 1 1.43,2.88 c 0,0 2.91,-1.83 2.84,-7.43 -0.07,-5.6 -4.11,-3.84 -4.11,-3.84 z"
       style="opacity:0.3;fill:#263238"
       id="path188" />
    <path
       d="m 418.91,289.64 c 3,-3.68 7.38,-8.67 11.06,-11.05"
       style="fill:none;stroke:#263238;stroke-linecap:round;stroke-linejoin:round"
       id="path190" />
    <path
       d="m 415.46,294.13 c 0,0 0.76,-1.06 2,-2.66"
       style="fill:none;stroke:#263238;stroke-linecap:round;stroke-linejoin:round"
       id="path192" />
    <path
       d="m 431.91,279.51 c 0,0 4.43,6.26 5.25,12.7"
       style="fill:none;stroke:#263238;stroke-linecap:round;stroke-linejoin:round"
       id="path194" />
    <path
       d="m 426.9,283.21 c 0,0 1.24,-0.73 0.77,7.24"
       style="fill:none;stroke:#263238;stroke-linecap:round;stroke-linejoin:round"
       id="path196" />
    <path
       d="m 430.13,275.8 c 0,0 2.54,-2.25 1.2,-6.73"
       style="fill:none;stroke:#263238;stroke-linecap:round;stroke-linejoin:round"
       id="path198" />
    <line
       x1="426.70999"
       y1="279.60001"
       x2="424.91"
       y2="276.29001"
       style="fill:none;stroke:#263238;stroke-linecap:round;stroke-linejoin:round"
       id="line200" />
    <path
       d="m 422.91,283 c 0,0 -5.74,-4.33 -9.33,-4.55"
       style="fill:none;stroke:#263238;stroke-linecap:round;stroke-linejoin:round"
       id="path202" />
    <path
       d="m 458.38,264.7 c 0,0 -0.18,6.57 -5.31,6.89 -5.13,0.32 -8.31,-8.23 -13.56,-6.17 -5.25,2.06 -5.75,11.43 -5.75,11.43 0,0 5,-4.09 7.66,-2 2.66,2.09 2.06,5.25 0.62,4.75 -1.44,-0.5 -9.26,-2.25 -9.53,3.64 a 12.45,12.45 0 0 0 3.26,9.23 c 0,0 5.56,-10.37 9.59,-8.48 4.03,1.89 -3.33,3.54 -6.28,7.37 -2.95,3.83 -4.84,7.86 -2.25,9.25 a 38.48,38.48 0 0 1 6.17,4.69 14.31,14.31 0 0 1 2.54,-9.63 c 3.25,-4.22 5.93,-2.15 3,1.68 -2.93,3.83 -1.49,9.84 -1.49,9.84 0,0 8.7,0.6 14.92,-1.93 6.22,-2.53 6.26,-4.94 4.25,-7.1 -2.01,-2.16 -8.92,-5.05 -6.86,-7.73 2.06,-2.68 7.39,11.8 10.43,8.65 3.04,-3.15 4,-6.72 2.25,-9.25 l -1.71,-2.54 c 0,0 -6.92,-2.9 -8.93,-5.05 -2.01,-2.15 0.89,-1.15 4.16,0.15 3.27,1.3 10.37,5.55 10.87,4.11 0.5,-1.44 -1.82,-8.73 -3.14,-11 -1.32,-2.27 -11.41,-0.25 -12.56,-1.13 -1.15,-0.88 4.31,-4 6.05,-3.89 a 36.81,36.81 0 0 1 3.86,0.54 c 0,0 0.15,-4.16 -5.5,-7.91 -5.65,-3.75 -6.76,1.59 -6.76,1.59 z"
       style="fill:#a61c3c"
       id="path204" />
    <path
       d="m 458.38,264.7 c 0,0 -0.18,6.57 -5.31,6.89 -5.13,0.32 -8.31,-8.23 -13.56,-6.17 -5.25,2.06 -5.75,11.43 -5.75,11.43 0,0 5,-4.09 7.66,-2 2.66,2.09 2.06,5.25 0.62,4.75 -1.44,-0.5 -9.26,-2.25 -9.53,3.64 a 12.45,12.45 0 0 0 3.26,9.23 c 0,0 5.56,-10.37 9.59,-8.48 4.03,1.89 -3.33,3.54 -6.28,7.37 -2.95,3.83 -4.84,7.86 -2.25,9.25 a 38.48,38.48 0 0 1 6.17,4.69 14.31,14.31 0 0 1 2.54,-9.63 c 3.25,-4.22 5.93,-2.15 3,1.68 -2.93,3.83 -1.49,9.84 -1.49,9.84 0,0 8.7,0.6 14.92,-1.93 6.22,-2.53 6.26,-4.94 4.25,-7.1 -2.01,-2.16 -8.92,-5.05 -6.86,-7.73 2.06,-2.68 7.39,11.8 10.43,8.65 3.04,-3.15 4,-6.72 2.25,-9.25 l -1.71,-2.54 c 0,0 -6.92,-2.9 -8.93,-5.05 -2.01,-2.15 0.89,-1.15 4.16,0.15 3.27,1.3 10.37,5.55 10.87,4.11 0.5,-1.44 -1.82,-8.73 -3.14,-11 -1.32,-2.27 -11.41,-0.25 -12.56,-1.13 -1.15,-0.88 4.31,-4 6.05,-3.89 a 36.81,36.81 0 0 1 3.86,0.54 c 0,0 0.15,-4.16 -5.5,-7.91 -5.65,-3.75 -6.76,1.59 -6.76,1.59 z"
       style="opacity:0.2;fill:#263238"
       id="path206" />
    <path
       d="m 455.74,296.85 c -1.66,-5.49 -3.66,-13.29 -3.53,-18.6"
       style="fill:none;stroke:#263238;stroke-linecap:round;stroke-linejoin:round"
       id="path208" />
    <path
       d="m 457.87,303.37 c 0,0 -0.54,-1.49 -1.29,-3.82"
       style="fill:none;stroke:#263238;stroke-linecap:round;stroke-linejoin:round"
       id="path210" />
    <path
       d="m 454.45,276.93 c 0,0 9.29,-0.17 16.3,3.4"
       style="fill:none;stroke:#263238;stroke-linecap:round;stroke-linejoin:round"
       id="path212" />
    <path
       d="m 454.74,284.47 c 0,0 0.12,-1.74 7.78,4.17"
       style="fill:none;stroke:#263238;stroke-linecap:round;stroke-linejoin:round"
       id="path214" />
    <path
       d="m 449.53,276.19 c 0,0 -0.53,-4.07 -5.92,-5.79"
       style="fill:none;stroke:#263238;stroke-linecap:round;stroke-linejoin:round"
       id="path216" />
    <line
       x1="451"
       y1="282.20001"
       x2="446.45999"
       y2="281.75"
       style="fill:none;stroke:#263238;stroke-linecap:round;stroke-linejoin:round"
       id="line218" />
    <path
       d="m 451.79,288.3 c 0,0 -8.26,2.8 -10.92,6.24"
       style="fill:none;stroke:#263238;stroke-linecap:round;stroke-linejoin:round"
       id="path220" />
    <path
       d="m 403.31,308.45 c 0,0 26.11,44.28 25.69,111.12"
       style="fill:none;stroke:#263238;stroke-width:2px;stroke-linecap:round;stroke-linejoin:round"
       id="path222" />
    <path
       d="m 435.51,303.89 c 0,0 -0.83,7.56 -6.78,7.45 -5.95,-0.11 -8.81,-10.28 -15.06,-8.41 -6.25,1.87 -7.73,12.65 -7.73,12.65 0,0 6.14,-4.25 9,-1.61 2.86,2.64 1.88,6.25 0.26,5.53 -1.62,-0.72 -10.46,-3.47 -11.33,3.31 a 14.42,14.42 0 0 0 2.89,11 c 0,0 7.39,-11.44 11.87,-8.88 4.48,2.56 -4.19,3.76 -7.95,7.9 -3.76,4.14 -6.33,8.62 -3.47,10.47 a 44.21,44.21 0 0 1 6.62,6 c 0,0 -0.3,-6.33 3.85,-10.88 4.15,-4.55 7,-1.92 3.27,2.22 -3.73,4.14 -2.64,11.22 -2.64,11.22 0,0 10,1.51 17.4,-0.82 7.4,-2.33 7.68,-5.12 5.58,-7.79 -2.1,-2.67 -9.83,-6.67 -7.19,-9.57 2.64,-2.9 7.41,14.31 11.21,11 3.8,-3.31 5.2,-7.38 3.47,-10.46 l -1.73,-3.09 c 0,0 -7.72,-4 -9.82,-6.67 -2.1,-2.67 1.13,-1.24 4.78,0.57 3.65,1.81 11.44,7.38 12.16,5.76 0.72,-1.62 -1.28,-10.24 -2.59,-12.95 -1.31,-2.71 -13.14,-1.36 -14.39,-2.49 -1.25,-1.13 5.35,-4.22 7.35,-3.92 2,0.3 4.4,1 4.4,1 0,0 0.57,-4.78 -5.6,-9.64 -6.17,-4.86 -7.83,1.1 -7.83,1.1 z"
       style="fill:#a61c3c"
       id="path224" />
    <path
       d="m 435.51,303.89 c 0,0 -0.83,7.56 -6.78,7.45 -5.95,-0.11 -8.81,-10.28 -15.06,-8.41 -6.25,1.87 -7.73,12.65 -7.73,12.65 0,0 6.14,-4.25 9,-1.61 2.86,2.64 1.88,6.25 0.26,5.53 -1.62,-0.72 -10.46,-3.47 -11.33,3.31 a 14.42,14.42 0 0 0 2.89,11 c 0,0 7.39,-11.44 11.87,-8.88 4.48,2.56 -4.19,3.76 -7.95,7.9 -3.76,4.14 -6.33,8.62 -3.47,10.47 a 44.21,44.21 0 0 1 6.62,6 c 0,0 -0.3,-6.33 3.85,-10.88 4.15,-4.55 7,-1.92 3.27,2.22 -3.73,4.14 -2.64,11.22 -2.64,11.22 0,0 10,1.51 17.4,-0.82 7.4,-2.33 7.68,-5.12 5.58,-7.79 -2.1,-2.67 -9.83,-6.67 -7.19,-9.57 2.64,-2.9 7.41,14.31 11.21,11 3.8,-3.31 5.2,-7.38 3.47,-10.46 l -1.73,-3.09 c 0,0 -7.72,-4 -9.82,-6.67 -2.1,-2.67 1.13,-1.24 4.78,0.57 3.65,1.81 11.44,7.38 12.16,5.76 0.72,-1.62 -1.28,-10.24 -2.59,-12.95 -1.31,-2.71 -13.14,-1.36 -14.39,-2.49 -1.25,-1.13 5.35,-4.22 7.35,-3.92 2,0.3 4.4,1 4.4,1 0,0 0.57,-4.78 -5.6,-9.64 -6.17,-4.86 -7.83,1.1 -7.83,1.1 z"
       style="opacity:0.3;fill:#263238"
       id="path226" />
    <path
       d="m 429.42,340.74 c -1.39,-6.49 -3,-15.68 -2.32,-21.8"
       style="fill:none;stroke:#263238;stroke-linecap:round;stroke-linejoin:round"
       id="path228" />
    <path
       d="m 431.27,348.47 c 0,0 -0.49,-1.78 -1.13,-4.53"
       style="fill:none;stroke:#263238;stroke-linecap:round;stroke-linejoin:round"
       id="path230" />
    <path
       d="m 429.82,317.63 c 0,0 10.73,0.68 18.48,5.47"
       style="fill:none;stroke:#263238;stroke-linecap:round;stroke-linejoin:round"
       id="path232" />
    <path
       d="m 429.43,326.36 c 0,0 0.31,-2 8.59,5.54"
       style="fill:none;stroke:#263238;stroke-linecap:round;stroke-linejoin:round"
       id="path234" />
    <path
       d="m 424.2,316.31 c 0,0 -0.22,-4.75 -6.28,-7.24"
       style="fill:none;stroke:#263238;stroke-linecap:round;stroke-linejoin:round"
       id="path236" />
    <line
       x1="425.32999"
       y1="323.39001"
       x2="420.14001"
       y2="322.44"
       style="fill:none;stroke:#263238;stroke-linecap:round;stroke-linejoin:round"
       id="line238" />
    <path
       d="m 425.67,330.5 c 0,0 -9.79,2.45 -13.18,6.17"
       style="fill:none;stroke:#263238;stroke-linecap:round;stroke-linejoin:round"
       id="path240" />
    <path
       d="m 435.51,367.16 c 0,0 -0.83,7.57 -6.78,7.46 -5.95,-0.11 -8.81,-10.29 -15.06,-8.41 -6.25,1.88 -7.73,12.65 -7.73,12.65 0,0 6.14,-4.25 9,-1.61 2.86,2.64 1.88,6.25 0.26,5.53 -1.62,-0.72 -10.46,-3.47 -11.33,3.31 a 14.42,14.42 0 0 0 2.89,11 c 0,0 7.39,-11.44 11.87,-8.88 4.48,2.56 -4.19,3.76 -7.95,7.9 -3.76,4.14 -6.33,8.62 -3.47,10.47 a 43.65,43.65 0 0 1 6.62,6 c 0,0 -0.3,-6.33 3.85,-10.88 4.15,-4.55 7,-1.92 3.27,2.22 -3.73,4.14 -2.64,11.22 -2.64,11.22 0,0 10,1.51 17.4,-0.82 7.4,-2.33 7.68,-5.12 5.58,-7.79 -2.1,-2.67 -9.83,-6.67 -7.19,-9.57 2.64,-2.9 7.41,14.31 11.21,11 3.8,-3.31 5.2,-7.38 3.47,-10.47 l -1.73,-3.08 c 0,0 -7.72,-4 -9.82,-6.67 -2.1,-2.67 1.13,-1.25 4.78,0.56 3.65,1.81 11.44,7.39 12.16,5.77 0.72,-1.62 -1.28,-10.24 -2.59,-12.95 -1.31,-2.71 -13.14,-1.37 -14.39,-2.5 -1.25,-1.13 5.35,-4.21 7.35,-3.91 a 43.08,43.08 0 0 1 4.4,1 c 0,0 0.57,-4.78 -5.6,-9.64 -6.17,-4.86 -7.83,1.09 -7.83,1.09 z"
       style="fill:#a61c3c"
       id="path242" />
    <path
       d="m 435.51,367.16 c 0,0 -0.83,7.57 -6.78,7.46 -5.95,-0.11 -8.81,-10.29 -15.06,-8.41 -6.25,1.88 -7.73,12.65 -7.73,12.65 0,0 6.14,-4.25 9,-1.61 2.86,2.64 1.88,6.25 0.26,5.53 -1.62,-0.72 -10.46,-3.47 -11.33,3.31 a 14.42,14.42 0 0 0 2.89,11 c 0,0 7.39,-11.44 11.87,-8.88 4.48,2.56 -4.19,3.76 -7.95,7.9 -3.76,4.14 -6.33,8.62 -3.47,10.47 a 43.65,43.65 0 0 1 6.62,6 c 0,0 -0.3,-6.33 3.85,-10.88 4.15,-4.55 7,-1.92 3.27,2.22 -3.73,4.14 -2.64,11.22 -2.64,11.22 0,0 10,1.51 17.4,-0.82 7.4,-2.33 7.68,-5.12 5.58,-7.79 -2.1,-2.67 -9.83,-6.67 -7.19,-9.57 2.64,-2.9 7.41,14.31 11.21,11 3.8,-3.31 5.2,-7.38 3.47,-10.47 l -1.73,-3.08 c 0,0 -7.72,-4 -9.82,-6.67 -2.1,-2.67 1.13,-1.25 4.78,0.56 3.65,1.81 11.44,7.39 12.16,5.77 0.72,-1.62 -1.28,-10.24 -2.59,-12.95 -1.31,-2.71 -13.14,-1.37 -14.39,-2.5 -1.25,-1.13 5.35,-4.21 7.35,-3.91 a 43.08,43.08 0 0 1 4.4,1 c 0,0 0.57,-4.78 -5.6,-9.64 -6.17,-4.86 -7.83,1.09 -7.83,1.09 z"
       style="opacity:0.3;fill:#263238"
       id="path244" />
    <path
       d="m 429.42,404 c -1.39,-6.5 -3,-15.68 -2.32,-21.8"
       style="fill:none;stroke:#263238;stroke-linecap:round;stroke-linejoin:round"
       id="path246" />
    <path
       d="m 431.27,411.75 c 0,0 -0.49,-1.78 -1.13,-4.54"
       style="fill:none;stroke:#263238;stroke-linecap:round;stroke-linejoin:round"
       id="path248" />
    <path
       d="m 429.82,380.91 c 0,0 10.73,0.68 18.48,5.46"
       style="fill:none;stroke:#263238;stroke-linecap:round;stroke-linejoin:round"
       id="path250" />
    <path
       d="m 429.43,389.64 c 0,0 0.31,-2 8.59,5.54"
       style="fill:none;stroke:#263238;stroke-linecap:round;stroke-linejoin:round"
       id="path252" />
    <path
       d="m 424.2,379.58 c 0,0 -0.22,-4.74 -6.28,-7.23"
       style="fill:none;stroke:#263238;stroke-linecap:round;stroke-linejoin:round"
       id="path254" />
    <line
       x1="425.32999"
       y1="386.66"
       x2="420.14001"
       y2="385.72"
       style="fill:none;stroke:#263238;stroke-linecap:round;stroke-linejoin:round"
       id="line256" />
    <path
       d="m 425.67,393.78 c 0,0 -9.79,2.44 -13.18,6.17"
       style="fill:none;stroke:#263238;stroke-linecap:round;stroke-linejoin:round"
       id="path258" />
    <path
       d="m 413.49,361.12 c 0,0 16.82,39.88 18.59,58.88 l -3.54,-90.76"
       style="fill:none;stroke:#263238;stroke-width:2px;stroke-linecap:round;stroke-linejoin:round"
       id="path260" />
    <path
       d="m 454.21,351.83 c -22.13,-4 -22.13,68.18 -22.13,68.18"
       style="fill:none;stroke:#263238;stroke-width:2px;stroke-linecap:round;stroke-linejoin:round"
       id="path262" />
    <path
       d="m 434.73,419.57 c 0,0 -12.83,-120.42 24.35,-120.42"
       style="fill:none;stroke:#263238;stroke-width:2px;stroke-linecap:round;stroke-linejoin:round"
       id="path264" />
    <path
       d="m 445.78,349.14 c -3,-3.4 -9.45,-3.4 -13.23,5.29 -3.78,8.69 -0.38,7.18 -0.38,7.18 0,0 7.18,-2.27 11.72,-3.78 4.54,-1.51 10.58,-5.29 11,-3 0.42,2.29 -3,4.53 -7.18,5.29 -4.18,0.76 -15.12,3.78 -14,6 1.12,2.22 3.78,9.06 3.78,9.06 a 95.77,95.77 0 0 1 10.21,-7.55 c 4.91,-3 7.93,-1.89 5.29,1.51 -2.64,3.4 -10.21,7.18 -8.69,11.71 1.52,4.53 10.58,10.21 10.58,10.21 0,0 1.13,-9.45 3.78,-12.47 2.65,-3.02 2.64,0.37 1.89,5.66 a 61.17,61.17 0 0 0 -0.76,6.81 l 10.58,3.78 a 75.35,75.35 0 0 1 5.67,-7.56 l 1.89,-1.89 c 0,0 -8.32,-7.18 -8.69,-11.72 -0.37,-4.54 5.67,0 7.55,0.76 1.88,0.76 4.92,6.05 4.92,6.05 0,0 1.89,-8.7 2.26,-11.72 l 0.38,-3 c 0,0 -7.93,-3 -11,-3 -3.07,0 -4.53,2.27 -4.53,-0.75 0,-3.02 3,-4.91 6.42,-4.54 a 59.16,59.16 0 0 1 9.07,2.27 c 0,0 2.27,-1.89 1.51,-7.56 -0.76,-5.67 -2.64,-5.66 -7.18,-4.15 -4.54,1.51 -7.55,4.91 -10.95,4.91 -3.4,0 -1.52,-4.16 0.75,-5.29 2.27,-1.13 7.94,-3.4 9.07,-3.78 1.13,-0.38 -6,-5.67 -9.82,-6.42 -3.82,-0.75 -8.68,1.9 -8.32,5.66 0.77,7.89 -10.57,9.43 -13.59,6.03 z"
       style="fill:#a61c3c"
       id="path266" />
    <path
       d="m 470.1,388.05 c 0.12,1.14 0.2,2.28 0.24,3.41"
       style="fill:none;stroke:#263238;stroke-linecap:round;stroke-linejoin:round"
       id="path268" />
    <path
       d="m 462.51,360.92 a 99.76,99.76 0 0 1 7.12,23.42"
       style="fill:none;stroke:#263238;stroke-linecap:round;stroke-linejoin:round"
       id="path270" />
    <path
       d="m 461.15,357.89 c -1.87,-4 -3.28,-6.48 -3.28,-6.48 a 11.15,11.15 0 0 0 4.91,-4.54 12.56,12.56 0 0 1 3.78,-4.53"
       style="fill:none;stroke:#263238;stroke-linecap:round;stroke-linejoin:round"
       id="path272" />
    <path
       d="m 444.64,364.26 c 0,0 13.61,-5.67 13.61,-4.54"
       style="fill:none;stroke:#263238;stroke-linecap:round;stroke-linejoin:round"
       id="path274" />
    <path
       d="m 465.81,357.08 c 0,0 6,-3 11.33,-3"
       style="fill:none;stroke:#263238;stroke-linecap:round;stroke-linejoin:round"
       id="path276" />
    <path
       d="m 463.54,366.15 a 52,52 0 0 0 -7.18,7.18 32.43,32.43 0 0 0 -5.29,8.69"
       style="fill:none;stroke:#263238;stroke-linecap:round;stroke-linejoin:round"
       id="path278" />
    <path
       d="m 467.7,367.66 c 0,0 7.93,-2.27 12.09,1.51"
       style="fill:none;stroke:#263238;stroke-linecap:round;stroke-linejoin:round"
       id="path280" />
    <path
       d="m 482.07,316.6 c -4.11,-2.44 -8.66,-2.49 -10.89,-5.06 -2.23,-2.57 2.14,-3.87 4.49,-2.9 2.35,0.97 7.77,3.77 8.8,4.37 1.03,0.6 0.31,-8.28 -1.59,-11.63 -1.9,-3.35 -7.13,-5.29 -9.73,-2.56 -5.5,5.78 -14.08,-1.79 -13.49,-6.31 0.59,-4.52 -3.66,-9.36 -12.66,-6.51 -9,2.85 -5.67,4.43 -5.67,4.43 0,0 6.41,3.93 10.53,6.36 4.12,2.43 10.93,4.53 9.47,6.3 -1.46,1.77 -5.41,0.69 -8.71,-2 -3.3,-2.69 -12.76,-8.93 -13.73,-6.59 -0.97,2.34 -4.37,8.8 -4.37,8.8 a 96,96 0 0 1 12.4,2.75 c 5.5,1.73 6.63,4.75 2.32,5 -4.31,0.25 -12.11,-3 -14.54,1.12 -2.43,4.12 -0.77,14.68 -0.77,14.68 0,0 7.88,-5.34 11.9,-5.32 4.02,0.02 1.44,2.24 -3.05,5.14 a 61.69,61.69 0 0 0 -5.63,3.89 l 4.09,10.44 a 74.52,74.52 0 0 1 9.42,-0.68 l 2.66,0.19 c 0,0 0,-11 3.15,-14.24 3.15,-3.24 3.72,4.28 4.39,6.2 0.67,1.92 -1.35,7.67 -1.35,7.67 0,0 7.8,-4.27 10.33,-6 l 2.53,-1.7 c 0,0 -2.92,-8 -4.9,-10.26 -1.98,-2.26 -4.68,-1.94 -2.4,-3.92 2.28,-1.98 5.69,-0.93 7.64,1.88 a 59.47,59.47 0 0 1 4.23,8.34 c 0,0 2.91,0.47 6.7,-3.82 3.79,-4.29 2.54,-5.66 -1.57,-8.06 z m -35.76,12.09 c -3,-1.51 4.15,-4.53 4.15,-4.53 2.65,-0.38 -1.13,6.04 -4.15,4.53 z m 5.09,-14.11 c -1.29,-0.64 2.58,-1.93 2.58,-1.93 5.58,1.07 -1.29,2.58 -2.58,1.93 z"
       style="fill:#a61c3c"
       id="path282" />
    <path
       d="m 446.23,336.39 c -0.79,0.83 -1.6,1.64 -2.43,2.42"
       style="fill:none;stroke:#263238;stroke-linecap:round;stroke-linejoin:round"
       id="path284" />
    <path
       d="m 461.74,312.87 a 100.67,100.67 0 0 1 -13,20.73"
       style="fill:none;stroke:#263238;stroke-linecap:round;stroke-linejoin:round"
       id="path286" />
    <path
       d="m 463.13,309.86 c 1.82,-4.06 2.75,-6.73 2.75,-6.73 a 11.16,11.16 0 0 0 6.64,0.74 12.59,12.59 0 0 1 5.9,-0.12"
       style="fill:none;stroke:#263238;stroke-linecap:round;stroke-linejoin:round"
       id="path288" />
    <path
       d="m 447.5,301.57 c 0,0 13.2,6.55 12.35,7.3"
       style="fill:none;stroke:#263238;stroke-linecap:round;stroke-linejoin:round"
       id="path290" />
    <path
       d="m 466.8,312.84 c 0,0 6.24,2.58 9.71,6.58"
       style="fill:none;stroke:#263238;stroke-linecap:round;stroke-linejoin:round"
       id="path292" />
    <path
       d="m 458.46,317.07 a 52.45,52.45 0 0 0 -10.13,-0.71 32.63,32.63 0 0 0 -10,1.7"
       style="fill:none;stroke:#263238;stroke-linecap:round;stroke-linejoin:round"
       id="path294" />
    <path
       d="m 460.05,321.2 c 0,0 6.91,4.51 6.78,10.13"
       style="fill:none;stroke:#263238;stroke-linecap:round;stroke-linejoin:round"
       id="path296" />
    <path
       d="m 423.35,369 c -3.31,-2 -7,-2 -8.77,-4.07 -1.77,-2.07 1.73,-3.11 3.62,-2.33 1.89,0.78 6.25,3 7.08,3.52 0.83,0.52 0.25,-6.67 -1.28,-9.36 -1.53,-2.69 -5.74,-4.27 -7.83,-2.07 -4.43,4.65 -11.33,-1.44 -10.85,-5.07 0.48,-3.63 -2.92,-7.54 -10.2,-5.25 -7.28,2.29 -4.56,3.56 -4.56,3.56 0,0 5.17,3.17 8.48,5.12 3.31,1.95 8.79,3.64 7.62,5.07 -1.17,1.43 -4.35,0.55 -7,-1.57 -2.65,-2.12 -10.27,-7.2 -11,-5.31 -0.73,1.89 -3.52,7.08 -3.52,7.08 a 77.26,77.26 0 0 1 10,2.21 c 4.43,1.39 5.33,3.83 1.87,4 -3.46,0.17 -9.74,-2.42 -11.7,0.9 -1.96,3.32 -0.62,11.81 -0.62,11.81 0,0 6.34,-4.3 9.57,-4.28 3.23,0.02 1.17,1.8 -2.45,4.13 a 52.34,52.34 0 0 0 -4.53,3.13 l 3.29,8.43 a 60.52,60.52 0 0 1 7.58,-0.55 l 2.15,0.16 c 0,0 0,-8.84 2.53,-11.47 2.53,-2.63 3,3.45 3.53,5 0.53,1.55 -1.09,6.17 -1.09,6.17 0,0 6.28,-3.44 8.32,-4.8 l 2,-1.37 c 0,0 -2.35,-6.41 -3.95,-8.25 -1.6,-1.84 -3.77,-1.56 -1.93,-3.16 1.84,-1.6 4.58,-0.75 6.14,1.52 a 46.72,46.72 0 0 1 3.41,6.7 c 0,0 2.35,0.38 5.39,-3.07 3.04,-3.45 2.01,-4.61 -1.3,-6.53 z m -28.78,9.73 c -2.43,-1.21 3.34,-3.65 3.34,-3.65 2.09,-0.34 -0.91,4.83 -3.34,3.61 z m 4.1,-11.35 c -1,-0.52 2.07,-1.56 2.07,-1.56 4.49,0.83 -1.04,2.04 -2.07,1.52 z"
       style="fill:#a61c3c"
       id="path298" />
    <path
       d="m 394.5,384.89 c -0.63,0.67 -1.28,1.32 -1.95,1.94"
       style="fill:none;stroke:#263238;stroke-linecap:round;stroke-linejoin:round"
       id="path300" />
    <path
       d="m 407,366 a 80.69,80.69 0 0 1 -10.48,16.68"
       style="fill:none;stroke:#263238;stroke-linecap:round;stroke-linejoin:round"
       id="path302" />
    <path
       d="m 408.11,363.53 c 1.46,-3.26 2.21,-5.41 2.21,-5.41 a 9,9 0 0 0 5.35,0.59 10.14,10.14 0 0 1 4.74,-0.09"
       style="fill:none;stroke:#263238;stroke-linecap:round;stroke-linejoin:round"
       id="path304" />
    <path
       d="m 395.53,356.86 c 0,0 10.62,5.28 9.93,5.88"
       style="fill:none;stroke:#263238;stroke-linecap:round;stroke-linejoin:round"
       id="path306" />
    <path
       d="m 411.06,365.93 c 0,0 5,2.08 7.82,5.3"
       style="fill:none;stroke:#263238;stroke-linecap:round;stroke-linejoin:round"
       id="path308" />
    <path
       d="m 404.35,369.34 a 42,42 0 0 0 -8.15,-0.57 26,26 0 0 0 -8.07,1.37"
       style="fill:none;stroke:#263238;stroke-linecap:round;stroke-linejoin:round"
       id="path310" />
    <path
       d="m 405.63,372.67 c 0,0 5.56,3.62 5.46,8.14"
       style="fill:none;stroke:#263238;stroke-linecap:round;stroke-linejoin:round"
       id="path312" />
    <path
       d="m 409.85,306.56 c 0,0 -4.16,3 -6.8,0 -2.64,-3 1.13,-9.07 -2.65,-11.34 -3.78,-2.27 -9.82,1.89 -9.82,1.89 0,0 4.91,1.13 4.91,3.78 0,2.65 -2.27,3.78 -2.65,2.64 -0.38,-1.14 -3,-6.8 -6.8,-4.15 a 9.72,9.72 0 0 0 -4.16,6.42 c 0,0 9.07,-1.51 9.83,1.89 0.76,3.4 -3.78,-0.38 -7.56,-0.38 -3.78,0 -7.18,0.76 -6.8,3 a 29.65,29.65 0 0 1 0,6.05 11.22,11.22 0 0 1 7.18,-3 c 4.16,0 4.16,2.64 0.38,2.64 -3.78,0 -6.8,3.78 -6.8,3.78 0,0 3.77,5.67 8.31,8.32 4.54,2.65 6.05,1.51 6.42,-0.76 0.37,-2.27 -1.13,-7.94 1.52,-7.94 2.65,0 -3.78,10.21 -0.36,10.6 3.42,0.39 6,-0.76 6.8,-3 l 0.76,-2.27 c 0,0 -1.56,-5.73 -1.16,-7.97 0.4,-2.24 1.14,0 1.89,2.64 0.75,2.64 1.51,9.07 2.65,8.7 1.14,-0.37 4.53,-5.29 5.29,-7.18 0.76,-1.89 -5.29,-7.18 -5.29,-8.32 0,-1.14 4.53,0.76 5.29,1.89 0.76,1.13 1.51,2.65 1.51,2.65 0,0 2.64,-1.89 2.27,-7.18 -0.37,-5.29 -4.16,-3.4 -4.16,-3.4 z"
       style="fill:#a61c3c"
       id="path314" />
    <path
       d="m 388.68,320.26 c 2.61,-3.65 6.49,-8.6 9.83,-11.06"
       style="fill:none;stroke:#263238;stroke-linecap:round;stroke-linejoin:round"
       id="path316" />
    <path
       d="m 385.66,324.69 c 0,0 0.67,-1 1.75,-2.62"
       style="fill:none;stroke:#263238;stroke-linecap:round;stroke-linejoin:round"
       id="path318" />
    <path
       d="m 400.4,310 c 0,0 4.54,5.67 5.67,11.71"
       style="fill:none;stroke:#263238;stroke-linecap:round;stroke-linejoin:round"
       id="path320" />
    <path
       d="m 395.87,313.74 c 0,0 1.13,-0.76 1.13,6.8"
       style="fill:none;stroke:#263238;stroke-linecap:round;stroke-linejoin:round"
       id="path322" />
    <path
       d="m 398.51,306.56 c 0,0 2.27,-2.27 0.76,-6.43"
       style="fill:none;stroke:#263238;stroke-linecap:round;stroke-linejoin:round"
       id="path324" />
    <line
       x1="395.48999"
       y1="310.32999"
       x2="393.60001"
       y2="307.31"
       style="fill:none;stroke:#263238;stroke-linecap:round;stroke-linejoin:round"
       id="line326" />
    <path
       d="m 392.09,313.74 c 0,0 -5.67,-3.74 -9.09,-3.74"
       style="fill:none;stroke:#263238;stroke-linecap:round;stroke-linejoin:round"
       id="path328" />
    <path
       d="m 446.68,386.87 c 0,0 -4.16,3 -6.81,0 -2.65,-3 1.14,-9.07 -2.64,-11.34 -3.78,-2.27 -9.83,1.89 -9.83,1.89 0,0 4.92,1.13 4.92,3.78 0,2.65 -2.27,3.78 -2.65,2.64 -0.38,-1.14 -3,-6.8 -6.8,-4.15 a 9.72,9.72 0 0 0 -4.16,6.42 c 0,0 9.07,-1.51 9.83,1.89 0.76,3.4 -3.78,-0.38 -7.56,-0.38 -3.78,0 -7.18,0.76 -6.8,3 a 29.56,29.56 0 0 1 0,6 11.22,11.22 0 0 1 7.18,-3 c 4.15,0 4.15,2.64 0.38,2.64 -3.77,0 -6.81,3.78 -6.81,3.78 0,0 3.78,5.67 8.32,8.32 4.54,2.65 6,1.51 6.42,-0.76 0.42,-2.27 -1.13,-7.93 1.51,-7.93 2.64,0 -3.78,10.2 -0.38,10.58 3.4,0.38 6.05,-0.76 6.81,-3 l 0.75,-2.26 c 0,0 -1.51,-5.67 -1.13,-7.94 0.38,-2.27 1.13,0 1.89,2.65 0.76,2.65 1.51,9.06 2.64,8.69 1.13,-0.37 4.54,-5.29 5.29,-7.18 0.75,-1.89 -5.29,-7.18 -5.29,-8.32 0,-1.14 4.54,0.76 5.29,1.89 a 30,30 0 0 1 1.52,2.65 c 0,0 2.64,-1.89 2.26,-7.18 -0.38,-5.29 -4.15,-3.38 -4.15,-3.38 z"
       style="fill:#a61c3c"
       id="path330" />
    <path
       d="m 425.51,400.57 c 2.61,-3.65 6.48,-8.6 9.83,-11.06"
       style="fill:none;stroke:#263238;stroke-linecap:round;stroke-linejoin:round"
       id="path332" />
    <path
       d="m 422.49,405 c 0,0 0.66,-1.05 1.75,-2.63"
       style="fill:none;stroke:#263238;stroke-linecap:round;stroke-linejoin:round"
       id="path334" />
    <path
       d="m 437.23,390.27 c 0,0 4.53,5.67 5.67,11.71"
       style="fill:none;stroke:#263238;stroke-linecap:round;stroke-linejoin:round"
       id="path336" />
    <path
       d="m 432.69,394.05 c 0,0 1.14,-0.76 1.14,6.8"
       style="fill:none;stroke:#263238;stroke-linecap:round;stroke-linejoin:round"
       id="path338" />
    <path
       d="m 435.34,386.87 c 0,0 2.27,-2.27 0.75,-6.43"
       style="fill:none;stroke:#263238;stroke-linecap:round;stroke-linejoin:round"
       id="path340" />
    <line
       x1="432.32001"
       y1="390.64999"
       x2="430.42999"
       y2="387.62"
       style="fill:none;stroke:#263238;stroke-linecap:round;stroke-linejoin:round"
       id="line342" />
    <path
       d="m 428.92,394.05 c 0,0 -5.67,-3.78 -9.07,-3.78"
       style="fill:none;stroke:#263238;stroke-linecap:round;stroke-linejoin:round"
       id="path344" />
    <rect
       x="418.79999"
       y="418.31"
       width="29.209999"
       height="42.049999"
       style="fill:#263238"
       id="rect346" />
  </g>
  <g
     id="freepik--Character--inject-66"
     transform="translate(-11.373362,-20.878396)">
    <path
       d="m 286.21,296 c 0,0 -3.71,22.07 -1,34.73 2.71,12.66 8.38,29.3 9,31.93 0.62,2.63 -2.09,14.29 -1,22.92 1.09,8.63 3.58,35.76 3.58,35.76 0,0 -0.46,6.76 0.57,8.41 a 10,10 0 0 1 1.41,5.24 c 0.08,1.93 -1.29,3.91 0,5.3 1.29,1.39 2.27,2.56 2.33,4 0.06,1.44 0.11,2.88 0.15,3.84 0.04,0.96 -7.47,12.1 -7.34,15.47 0.13,3.37 3,3.5 7.07,2.13 4.07,-1.37 7.65,-7.53 7.65,-7.53 l 0.36,2.88 a 1.27,1.27 0 0 0 1.65,-0.79 20.71,20.71 0 0 0 0.27,-5.31 c 0,-1 0.85,-2.92 0.73,-6.05 a 44.77,44.77 0 0 0 -1,-6.95 c 0,0 0.85,-2.92 1,-4.13 0.15,-1.21 -1,-2.13 -0.2,-5.29 0.8,-3.16 2,-3.22 2,-5.14 a 22.17,22.17 0 0 0 -0.71,-5.76 c -0.54,-1.66 1.8,-15.48 1.73,-17.41 -0.07,-1.93 0.19,-7.23 0.19,-7.23 0,0 2.56,-8.54 2.43,-11.9 -0.13,-3.36 -0.29,-25.53 -0.29,-25.53 l -0.32,-8.18 c 0,0 0.72,12 2.17,18.47 1.45,6.47 4.12,24.89 5.72,28.92 1.6,4.03 3.91,13.58 4.78,17.4 0.87,3.82 2.13,11.24 2.13,11.24 a 11,11 0 0 0 -0.29,4.83 21.07,21.07 0 0 0 0.63,3.83 c 0,0 -1.55,3.43 -1.27,4.38 a 34,34 0 0 1 0.43,4.81 c 0,0.72 -1.55,3.43 -2.84,7.58 -1.29,4.15 -5.66,9.13 -1.89,13.08 3.77,3.95 10.21,-3.78 11.25,-7.91 1.04,-4.13 3.4,-11.7 3.61,-12.43 a 13.87,13.87 0 0 0 1.72,-5.13 24.52,24.52 0 0 0 0,-5.54 23.16,23.16 0 0 0 1,-4.14 c 0.17,-1.69 0,-5.3 0,-5.3 0,0 3.7,-16 4,-21.35 0.3,-5.35 -1.61,-16.32 -1.93,-18.24 -0.32,-1.92 0,-6.5 -0.79,-7.91 -0.79,-1.41 -2.41,-6.17 -2.41,-6.17 0,0 12,-26.73 13.79,-41.26 1.79,-14.53 1.13,-26.54 0.31,-28.92 -0.82,-2.38 -1.62,-4.51 -1.62,-4.51 0,0 -10.08,7.14 -31.88,4.14 -21.8,-3 -30.28,-4.1 -32.47,-4.74 A 15.29,15.29 0 0 0 286.21,296 Z"
       style="fill:#263238;stroke:#263238;stroke-linejoin:round"
       id="path349" />
    <path
       d="m 306.67,149 c 0,0 -5.77,0.48 -11.29,7.24 -5.52,6.76 -8.19,15.67 -6.58,18.12 1.61,2.45 3.53,6.66 3.57,7.66 0.04,1 -7.47,8.35 -5.33,11.53 2.14,3.18 2.72,5.18 1,5.5 -1.72,0.32 -4.66,2.95 -4.09,4.69 0.57,1.74 3.64,3.13 2.47,5.19 -1.17,2.06 -2.19,1.84 -2.1,4.36 0.09,2.52 2.58,4.44 1.27,4.86 -1.31,0.42 -3.8,1 -3,2.75 a 23.12,23.12 0 0 0 2.67,3.92 c 0,0 9.69,9.68 28.87,11.19 19.18,1.51 36.87,-15.79 39.53,-18.41 2.66,-2.62 3.14,-3.4 3.08,-4.9 -0.06,-1.5 -1.13,-3.23 -1.71,-5 -0.58,-1.77 0.05,-5.28 0,-6 -0.05,-0.72 -1.87,-2.69 -3.17,-3.64 -1.3,-0.95 -1.65,-3.71 -1.25,-6.25 0.4,-2.54 -2.18,-4.19 -3.21,-4.9 -1.03,-0.71 -1.88,-2.95 -1.21,-5.24 0.67,-2.29 -2.44,-4.43 -3.74,-5.38 -1.3,-0.95 -1.63,-3.21 -1.23,-5.74 0.4,-2.53 -3.07,-7.68 -4.92,-9.87 -1.85,-2.19 -4.39,-9.39 -14.06,-12 -9.67,-2.61 -15.57,0.32 -15.57,0.32 z"
       style="fill:#263238;stroke:#263238;stroke-linejoin:round"
       id="path351" />
    <path
       d="m 318.92,202.88 c 0,0 -10.83,6.2 -18.2,8.66 -7.37,2.46 -7.69,18.86 -7.53,22.94 0.16,4.08 -3.9,29.55 -1.36,32.82 2.54,3.27 25.64,2.6 33.57,2.05 7.93,-0.55 13.53,1.15 18.75,-1 5.22,-2.15 5.87,-3.84 5.77,-6.49 -0.1,-2.65 0.44,-31.57 0.22,-37.11 -0.22,-5.54 -1.73,-13.42 -3.72,-15 -1.99,-1.58 -6.14,-2.89 -12.23,-4.57 -6.09,-1.68 -15.27,-2.3 -15.27,-2.3 z"
       style="fill:#ffffff;stroke:#263238;stroke-linejoin:round"
       id="path353" />
    <path
       d="m 289.54,276.55 c 0,0 -4,20.87 -3.92,22.79 a 21.73,21.73 0 0 1 -0.32,4.11 c 0,0 8.78,2.55 12.4,2.89 3.62,0.34 11.59,0.5 15,1.33 3.41,0.83 17.59,0 22.6,-1.13 5.01,-1.13 8.59,-2.26 11.44,-3.1 a 62.48,62.48 0 0 0 6.88,-2.68 l 2.82,-2 -5.91,-21.44 c 0,0 -10.29,1.61 -20.38,2.48 -10.09,0.87 -29.21,-1.5 -31.87,-1.87 -2.66,-0.37 -8.74,-1.38 -8.74,-1.38 z"
       style="fill:#ffffff;stroke:#263238;stroke-linejoin:round"
       id="path355" />
    <line
       x1="298.57001"
       y1="293.39999"
       x2="298.28"
       y2="296.12"
       style="fill:none;stroke:#263238;stroke-linejoin:round"
       id="line357" />
    <line
       x1="299.82999"
       y1="281.47"
       x2="298.82001"
       y2="291.04999"
       style="fill:none;stroke:#263238;stroke-linejoin:round"
       id="line359" />
    <line
       x1="298.26001"
       y1="282.07001"
       x2="295.92001"
       y2="290.10999"
       style="fill:none;stroke:#263238;stroke-linejoin:round"
       id="line361" />
    <line
       x1="331.14999"
       y1="282.35999"
       x2="330.79999"
       y2="293.78"
       style="fill:none;stroke:#263238;stroke-linejoin:round"
       id="line363" />
    <line
       x1="339.19"
       y1="294.01999"
       x2="339.69"
       y2="297.14001"
       style="fill:none;stroke:#263238;stroke-linejoin:round"
       id="line365" />
    <line
       x1="337.22"
       y1="281.59"
       x2="338.69"
       y2="290.84"
       style="fill:none;stroke:#263238;stroke-linejoin:round"
       id="line367" />
    <path
       d="m 349.92,261.88 c -0.11,-2.64 0.44,-31.57 0.22,-37.11 -0.11,-2.79 -0.37,-1.68 -1,-4.56 -3.5,3.28 -11.25,8.7 -26.5,10.46 a 48.37,48.37 0 0 1 -28.88,-5.84 58.09,58.09 0 0 0 -0.53,9.65 c 0.16,4.09 -3.9,29.55 -1.36,32.82 2.54,3.27 25.64,2.6 33.57,2.05 7.93,-0.55 13.53,1.15 18.75,-1 5.22,-2.15 5.81,-3.82 5.73,-6.47 z"
       style="fill:#ffffff;stroke:#263238;stroke-linejoin:round"
       id="path369" />
    <path
       d="m 324,261.05 a 67.17,67.17 0 0 0 7.58,-1.09"
       style="fill:none;stroke:#263238;stroke-linejoin:round"
       id="path371" />
    <path
       d="M 299.48,259.77 A 93.3,93.3 0 0 0 321,261.26"
       style="fill:none;stroke:#263238;stroke-linejoin:round"
       id="path373" />
    <path
       d="m 302.49,256.52 a 11,11 0 0 0 9.57,4.44"
       style="fill:none;stroke:#263238;stroke-linejoin:round"
       id="path375" />
    <path
       d="m 313.65,258.49 a 16.47,16.47 0 0 0 4.19,2.49"
       style="fill:none;stroke:#263238;stroke-linejoin:round"
       id="path377" />
    <path
       d="m 327.21,260.37 a 22.26,22.26 0 0 0 4.35,-5.72"
       style="fill:none;stroke:#263238;stroke-linejoin:round"
       id="path379" />
    <path
       d="m 289.85,265.93 c 0,0 21.83,3.72 32.65,3.29 10.82,-0.43 27.23,-5.89 27.23,-5.89 l 0.79,13.95 c 0,0 -9.67,5.19 -29.89,5.51 -20.22,0.32 -31.69,-3.33 -31.69,-3.33 z"
       style="fill:#263238;stroke:#263238;stroke-linejoin:round"
       id="path381" />
    <path
       d="m 310.84,217.89 c 0,0 -0.23,-6 -0.45,-11.55 a 30.88,30.88 0 0 0 -1,-7.9 30.89,30.89 0 0 0 7.77,1.38 c 3.86,0.08 9.64,-5.92 10.08,-6.91 0.44,-0.99 1.1,-2.69 1.1,-2.69 0,0 0.61,9.37 1.48,12.95 0.87,3.58 1.43,5.73 1.43,5.73"
       style="fill:#ffffff;stroke:#263238;stroke-miterlimit:10"
       id="path383" />
    <path
       d="m 314.38,208 c 5.86,-3.22 10.91,-10.69 10.91,-10.69 l 0.34,-2.53 c -2.08,2.1 -5.78,5.1 -8.51,5 a 30.89,30.89 0 0 1 -7.77,-1.38 30.88,30.88 0 0 1 1,7.9 c 0.05,1.25 0.1,2.52 0.14,3.74 0.99,-0.46 2.23,-1.13 3.89,-2.04 z"
       style="fill:#263238;stroke:#263238;stroke-linejoin:round"
       id="path385" />
    <path
       d="m 332,173.45 -3.84,0.4 c 0,0 -0.08,-0.55 -0.31,-1.44 l -0.49,-0.46 c -0.75,-0.69 -1,-0.44 -2.19,-0.64 -1.19,-0.2 -1.77,-2.09 -1.85,-4 -0.08,-1.91 -2.5,-2.31 -5.22,-4.13 -2.23,-1.49 -3.23,-4.64 -3.52,-5.74 a 16.62,16.62 0 0 0 -2.7,-0.1 17.34,17.34 0 0 1 -2.22,5.69 c -1.82,2.72 -3.51,2.55 -3.93,4 -0.42,1.45 -1.56,3.19 -2.52,3.47 -0.96,0.28 -3.35,0.38 -3.31,1.58 0.04,1.2 -0.59,3.15 -1.3,3.66 l -0.53,0.39 c 0.43,2.71 1,4.9 1,5.38 0,1 0.28,7.21 3.07,10.72 2.79,3.51 8.15,11.24 14.41,11 6.26,-0.24 11.21,-8.87 12.09,-11.07 0.88,-2.2 1.11,-8.48 1.11,-8.48 a 14.09,14.09 0 0 0 3,-4.45 c 1.04,-2.72 -0.75,-5.78 -0.75,-5.78 z"
       style="fill:#ffffff;stroke:#263238;stroke-linejoin:round"
       id="path387" />
    <path
       d="m 298.22,172.62 c -0.07,-1.69 1.5,-4.64 2.22,-4.67 a 6.19,6.19 0 0 0 3.51,-2.79 c 0.43,-1.22 0.14,-2.41 1.33,-2.94 1.19,-0.53 1.11,-2.21 1.11,-2.21 0,0 -3.23,3.5 -5.12,4.54 a 11.53,11.53 0 0 0 -3.5,2.78 22.44,22.44 0 0 0 0,6.51 1.36,1.36 0 0 0 0.45,-1.22 z"
       style="fill:#ffffff;stroke:#263238;stroke-linejoin:round"
       id="path389" />
    <path
       d="m 311.7,190.63 c 0,0 1.52,2.11 4.35,0.31"
       style="fill:none;stroke:#263238;stroke-linejoin:round"
       id="path391" />
    <path
       d="m 311.84,194.24 c 0,0 4.89,1.74 6.67,-2"
       style="fill:none;stroke:#263238;stroke-linejoin:round"
       id="path393" />
    <path
       d="m 306.76,181.7 c 0.14,1 -0.18,1.85 -0.71,1.92 -0.53,0.07 -1.05,-0.62 -1.19,-1.62 -0.14,-1 0.18,-1.84 0.7,-1.92 0.52,-0.08 1.07,0.63 1.2,1.62 z"
       style="fill:#263238"
       id="path395" />
    <path
       d="m 318.75,180.15 c 0.13,1 -0.18,1.84 -0.71,1.91 -0.53,0.07 -1.07,-0.67 -1.2,-1.65 -0.13,-0.98 0.18,-1.85 0.71,-1.92 0.53,-0.07 1.06,0.67 1.2,1.66 z"
       style="fill:#263238"
       id="path397" />
    <path
       d="m 301.56,178 c 0,0 1.12,-2.21 5,-1.88"
       style="fill:none;stroke:#263238;stroke-linejoin:round"
       id="path399" />
    <path
       d="m 315,175.33 c 0,0 3.78,-1.84 6.76,0.46"
       style="fill:none;stroke:#263238;stroke-linejoin:round"
       id="path401" />
    <path
       d="m 307.29,176.59 c 0,0 3.26,3.25 3.39,6.62"
       style="fill:none;stroke:#263238;stroke-linejoin:round"
       id="path403" />
    <path
       d="m 321.42,309 c 0,0 -3.95,3.77 -4.79,13 -0.84,9.23 -0.84,27.74 -0.84,27.74 0,0 0.6,6.11 0.87,9.84"
       style="fill:none;stroke:#808080;stroke-linejoin:round"
       id="path405" />
    <path
       d="m 317.35,314.35 a 18.18,18.18 0 0 1 -3.55,-3.28"
       style="fill:none;stroke:#808080;stroke-linejoin:round"
       id="path407" />
    <path
       d="m 325.87,403.79 c 1.26,4.39 2.54,9.74 3.14,12.37 0.87,3.82 2.13,11.24 2.13,11.24 a 11,11 0 0 0 -0.29,4.83 21.07,21.07 0 0 0 0.63,3.83 c 0,0 -1.55,3.43 -1.27,4.38 a 34,34 0 0 1 0.43,4.81 c 0,0.72 -1.55,3.43 -2.84,7.58 -1.29,4.15 -5.66,9.13 -1.89,13.08 3.77,3.95 10.21,-3.78 11.25,-7.91 1.04,-4.13 3.4,-11.7 3.61,-12.43 a 13.87,13.87 0 0 0 1.72,-5.13 24.52,24.52 0 0 0 0,-5.54 23.16,23.16 0 0 0 1,-4.14 c 0.17,-1.69 0,-5.3 0,-5.3 0,0 3.7,-16 4,-21.35 a 33.94,33.94 0 0 0 -0.06,-3.57 35.84,35.84 0 0 1 -21.56,3.25 z"
       style="fill:#595959;stroke:#263238;stroke-linejoin:round"
       id="path409" />
    <path
       d="m 308.5,458.16 0.36,2.88 a 1.27,1.27 0 0 0 1.65,-0.79 20.71,20.71 0 0 0 0.27,-5.31 c 0,-1 0.85,-2.92 0.73,-6.05 a 44.77,44.77 0 0 0 -1,-6.95 c 0,0 0.85,-2.92 1,-4.13 0.15,-1.21 -1,-2.13 -0.2,-5.29 0.8,-3.16 2,-3.22 2,-5.14 a 22.17,22.17 0 0 0 -0.71,-5.76 c -0.54,-1.66 1.8,-15.48 1.73,-17.41 0,-0.6 0,-1.53 0,-2.53 -6.39,2.43 -14.41,1.39 -19.5,0.27 1,9.64 1.85,19.34 1.85,19.34 0,0 -0.46,6.76 0.57,8.41 a 10,10 0 0 1 1.41,5.24 c 0.08,1.93 -1.29,3.91 0,5.3 1.29,1.39 2.27,2.56 2.33,4 0.06,1.44 0.11,2.88 0.15,3.84 0.04,0.96 -7.47,12.1 -7.34,15.47 0.13,3.37 3,3.5 7.07,2.13 4.07,-1.37 7.63,-7.52 7.63,-7.52 z"
       style="fill:#595959;stroke:#263238;stroke-linejoin:round"
       id="path411" />
    <path
       d="m 310.19,207.56 c 0,0 -5.27,13 -6.79,23.15 -1.52,10.15 -4,27.86 -5,31.27 -1,3.41 -3.81,7.38 -7.16,26.3 -3.35,18.92 -1,41 -1,41 0,0 -0.93,1 -5.05,0.44 a 37.58,37.58 0 0 1 -8.28,-2.33 c 0,0 1.57,-21.26 3.43,-29 1.86,-7.74 6.2,-26.26 6.2,-26.26 l -0.11,-8.91 A 76.55,76.55 0 0 1 281.49,274 c -2.7,4.69 -5.52,6.48 -10.09,6.66 -4.57,0.18 -7.8,-8.36 -4.72,-15.71 3.08,-7.35 6.08,-16.86 7.81,-22 1.73,-5.14 7.1,-21.48 11.07,-24.77 3.97,-3.29 22.69,-11.03 24.63,-10.62 z"
       style="fill:#a61c3c;stroke:#263238;stroke-linejoin:round"
       id="path413" />
    <path
       d="m 332,204.29 c 0,0 -1,29.19 0.59,39.48 1.59,10.29 7.18,23.33 8.84,28.81 1.66,5.48 3.64,25.15 5.14,32.56 1.5,7.41 1,25.25 1,25.25 0,0 3.85,-0.15 6.27,0 2.42,0.15 12.08,-5.06 12.08,-5.06 0,0 -1.25,-13.44 -3.78,-22.73 -2.53,-9.29 -7.4,-28.86 -8.05,-33.17 -0.65,-4.31 -1.81,-9.09 -1.86,-10.53 -0.05,-1.44 2,-10 2,-10 0,0 7.37,-21 6.62,-27.72 -0.75,-6.72 -9.33,-10.47 -13.5,-12.48 -4.17,-2.01 -15.35,-4.41 -15.35,-4.41 z"
       style="fill:#a61c3c;stroke:#263238;stroke-linejoin:round"
       id="path415" />
    <path
       d="m 352.92,246.35 5.72,22.9 c 0,0 -1.31,3.42 -0.31,4.35 a 3.29,3.29 0 0 1 1,2.12 c 0,0 -0.83,3.41 0.2,5 1.03,1.59 5.73,35.43 5.73,35.43 0,0 -3.93,4 -3.87,5.69 a 14.22,14.22 0 0 1 -0.77,4.85 c -0.43,1.23 -2,3.7 -1.29,3.91 0.71,0.21 3.57,-1.11 3.77,-2.08 a 9.74,9.74 0 0 1 0.88,-2.2 l 0.65,-1.71 a 62.35,62.35 0 0 1 0.27,6.73 10.64,10.64 0 0 1 -1.06,3.66 c -0.68,1.23 -2.28,3.22 -1.06,3.65 1.22,0.43 4.88,-4.52 4.88,-4.52 a 10.57,10.57 0 0 0 3.08,-1.33 c 1.64,-1 3,-4.45 3.15,-5.67 0.15,-1.22 0,-6 0,-6.74 0,-0.74 -1,-6.23 -1,-6.23 0,0 2.84,-25.64 2.56,-32.86 a 132.84,132.84 0 0 0 -1.26,-13.44 l -0.94,-5.5 c 0,0 -2.17,-30.75 -5.56,-37.37 -3.39,-6.62 -8.9,-11.69 -13.27,-12.72"
       style="fill:#ffffff;stroke:#263238;stroke-linejoin:round"
       id="path417" />
    <path
       d="m 352.51,245.61 6.13,23.64 c 0,0 -1.31,3.42 -0.31,4.35 a 3.29,3.29 0 0 1 1,2.12 c 0,0 -0.83,3.41 0.2,5 a 11.11,11.11 0 0 1 0.62,2.37 c 2.87,-1.87 9.45,-5.12 14.42,0.17 a 2.45,2.45 0 0 0 0.88,0.64 c 0,-1 0,-1.9 0,-2.6 a 132.84,132.84 0 0 0 -1.26,-13.44 l -0.94,-5.5 c 0,0 -2.17,-30.75 -5.56,-37.37 -3.39,-6.62 -10.08,-11.64 -14.46,-12.68"
       style="fill:#a61c3c;stroke:#263238;stroke-linejoin:round"
       id="path419" />
    <polygon
       points="298.37,261.99 291.44,235.39 276.49,237.29 284.8,262.51 "
       style="fill:#263238;stroke:#263238;stroke-linejoin:round"
       id="polygon421" />
    <path
       d="m 285.07,267.23 a 2.37,2.37 0 0 0 0.82,-1 c 0.51,-1.34 1.38,-3.06 1.38,-3.06 0,0 4.25,-1.86 4.8,-2.26 0.55,-0.4 4.26,-1.48 4.78,-2.44 0.52,-0.96 0.51,-1.52 -1.35,-0.89 -1.86,0.63 -7.6,2.37 -7.6,2.37 0,0 0.92,-0.41 1.65,-0.82 0.73,-0.41 5.69,-3.42 6.25,-3.63 0.56,-0.21 0.7,-1.34 0.29,-2.07 -0.41,-0.73 -0.73,0.4 -2.4,1 -1.67,0.6 -7.79,2.57 -7.79,2.57 l 3.29,-2.38 c 0.55,-0.4 5.53,-2.66 5.53,-2.66 0,0 1.47,-0.81 1.43,-1.75 -0.04,-0.94 -0.6,-1.1 -1.16,-0.89 -0.56,0.21 -4.3,0.54 -5.59,1.16 -1.29,0.62 -5.52,2.84 -5.52,2.84 l 1.9,-4.2 c 0,0 5.12,-3.59 5.86,-3.8 0.74,-0.21 2.21,-1.22 2,-2 -0.21,-0.78 -1.72,-0.87 -1.72,-0.87 0,0 -6.49,2.13 -7.76,3.5 -1.27,1.37 -3.77,4.28 -3.77,4.28 a 17.84,17.84 0 0 1 -1.09,-3.71 c 0,-1.13 -0.12,-3.19 -0.92,-4.29 -0.8,-1.1 -1,-0.71 -1,-0.71 0,0 0,6 -0.31,6.58 -0.31,0.58 2.65,10 2.65,10 L 281,262 a 65.51,65.51 0 0 1 -7.49,0.67 c -1.88,-0.12 -4.37,3.36 -4.76,7.7 a 6.83,6.83 0 0 0 6.68,7.44 c 3.37,-0.14 5.89,-2.86 7.14,-4.6 a 15.11,15.11 0 0 0 1.89,-4.59 z"
       style="fill:#ffffff;stroke:#263238;stroke-linejoin:round"
       id="path423" />
  </g>
</svg>
