<?xml version="1.0" encoding="UTF-8" standalone="no"?>
<svg
   viewBox="0 0 474.45297 452.83417"
   version="1.1"
   id="svg524"
   sodipodi:docname="Advent calendar-bro (2).svg"
   width="474.45297"
   height="452.83417"
   inkscape:version="1.1 (c68e22c387, 2021-05-23)"
   xmlns:inkscape="http://www.inkscape.org/namespaces/inkscape"
   xmlns:sodipodi="http://sodipodi.sourceforge.net/DTD/sodipodi-0.dtd"
   xmlns="http://www.w3.org/2000/svg"
   xmlns:svg="http://www.w3.org/2000/svg">
  <defs
     id="defs528" />
  <sodipodi:namedview
     id="namedview526"
     pagecolor="#ffffff"
     bordercolor="#666666"
     borderopacity="1.0"
     inkscape:pageshadow="2"
     inkscape:pageopacity="0.0"
     inkscape:pagecheckerboard="0"
     showgrid="false"
     inkscape:zoom="1.244"
     inkscape:cx="239.14791"
     inkscape:cy="224.27653"
     inkscape:window-width="1368"
     inkscape:window-height="850"
     inkscape:window-x="-6"
     inkscape:window-y="-6"
     inkscape:window-maximized="1"
     inkscape:current-layer="svg524" />
  <g
     id="freepik--background-simple--inject-212"
     transform="translate(-10.352477,-25.345824)">
    <path
       d="m 323.83,36.06 c 0,0 -79.34,-31.17 -155.22,12.82 C 92.73,92.87 56.28,183.38 24.83,255.82 -6.62,328.26 14.63,403.43 74.41,439.1 c 59.78,35.67 98.47,-13.38 181,-13.52 82.53,-0.14 105.06,12.73 172.29,-33.76 67.23,-46.49 76.55,-160.45 20.22,-246.54 C 391.59,59.19 323.83,36.06 323.83,36.06 Z"
       style="fill:#439a86"
       id="path2" />
    <path
       d="m 323.83,36.06 c 0,0 -79.34,-31.17 -155.22,12.82 C 92.73,92.87 56.28,183.38 24.83,255.82 -6.62,328.26 14.63,403.43 74.41,439.1 c 59.78,35.67 98.47,-13.38 181,-13.52 82.53,-0.14 105.06,12.73 172.29,-33.76 67.23,-46.49 76.55,-160.45 20.22,-246.54 C 391.59,59.19 323.83,36.06 323.83,36.06 Z"
       style="opacity:0.7;fill:#ffffff"
       id="path4" />
  </g>
  <g
     id="freepik--Tree--inject-212"
     transform="translate(-10.352477,-25.345824)">
    <path
       d="m 99,426.89 c 0,0 -8,7.21 -17.64,8 -9.64,0.79 -2.41,-13.64 -2.41,-13.64 0,0 -15.24,24.87 -24.06,23.26 -8.82,-1.61 18.44,-31.28 18.44,-31.28 0,0 -10.42,8.82 -17.64,13.64 -7.22,4.82 -1.61,-11.23 -1.61,-11.23 0,0 -19.25,12 -22.46,6.41 -3.21,-5.59 19.26,-20.85 19.26,-20.85 0,0 -19.26,6.41 -22.46,1.6 -3.2,-4.81 32.08,-10.43 32.08,-10.43 0,0 -11.23,-1.6 -12.83,-6.41 -1.6,-4.81 20.05,-0.8 20.05,-0.8 0,0 -8.82,-4 -10.43,-12 -1.61,-8 18.39,0.93 18.39,0.93 l -4,-8.14 c 0,0 -10.43,4 -16.84,4 -6.41,0 1.6,-6.42 1.6,-6.42 0,0 -12.83,3.21 -20.85,0 -8.02,-3.21 21.65,-12 21.65,-12 0,0 -17.64,-2.41 -20.85,-6.42 -3.21,-4.01 32.88,2.41 32.88,2.41 a 16.27,16.27 0 0 1 -12,-8.83 c -4,-8 22.46,-0.8 22.46,-0.8 L 69.3,326.62 c 0,0 -23.26,3.21 -28.87,-0.8 -5.61,-4.01 18.45,-6.42 18.45,-6.42 0,0 -18.45,-4 -19.25,-8.82 -0.8,-4.82 39.3,2.42 39.3,2.42 0,0 -25.67,-12.84 -28.07,-21.66 -2.4,-8.82 30.48,7.22 30.48,7.22 l -6.42,-12 c 0,0 -16.85,0.8 -24.06,-5.62 -7.21,-6.42 32.08,-8.82 32.08,-8.82 0,0 -12,-7.22 -15.24,-15.24 -3.24,-8.02 19.25,4 19.25,4 0,0 -8,-23.26 -4,-32.89 4,-9.63 9.62,25.67 9.62,25.67 0,0 -8,-44.12 -4,-45.72 4,-1.6 8,5.62 8,5.62 0,0 4.81,-34.5 9.62,-27.28 4.81,7.22 -1.6,37.7 -1.6,37.7 0,0 9.62,-28.07 13.63,-17.64 4.01,10.43 -8.81,41.66 -8.81,41.66 0,0 11.23,-12 9.62,-2.41 -1.61,9.59 -4,19.25 -4,19.25 0,0 25.67,-20.85 24.87,-10.43 -0.8,10.42 -4.81,13.64 -4.81,13.64 0,0 24.86,-6.42 19.25,0.8 -5.61,7.22 -36.1,12 -36.1,12 0,0 24.07,3.21 19.25,8 -4.82,4.79 -9.62,4.82 -9.62,4.82 0,0 9.62,3.2 8.82,5.61 -0.8,2.41 -4,8.82 -4,8.82 0,0 13.64,-9.62 15.24,-3.2 1.6,6.42 -20,15.24 -20,15.24 0,0 37.7,-1.61 32.88,4.81 -4.82,6.42 -18.44,7.22 -18.44,7.22 0,0 15.24,4 8.82,7.22 -6.42,3.22 -25.67,-3.21 -25.67,-3.21 l 1.61,6.41 c 0,0 27.27,8.83 17.64,11.23 a 40.49,40.49 0 0 1 -18.45,0 l 11.23,6.42 c 0,0 22.46,-8 18.45,-1.6 -4.01,6.4 -13.63,9.62 -13.63,9.62 0,0 21.65,-5.61 16.84,1.61 -4.81,7.22 -25.67,8 -25.67,8 0,0 28.88,12 16,13.63 -12.88,1.63 -29.7,-5.5 -29.7,-5.5 0,0 35.29,13.63 31.28,19.25 -4.01,5.62 -11.23,0.8 -11.23,0.8 0,0 20.85,14.44 14.44,19.25 -6.41,4.81 -24.87,-10.43 -24.87,-10.43 0,0 8.82,8 2.41,8.83 -6.41,0.83 -28.87,-11.25 -28.87,-11.25 0,0 15.24,13.63 8.83,13.63 -6.41,0 -15.24,-5.61 -15.24,-5.61 z"
       style="fill:#439a86;stroke:#263238;stroke-miterlimit:10"
       id="path7" />
    <path
       d="m 93,281.85 a 3.47,3.47 0 1 1 -3.47,-3.47 3.46,3.46 0 0 1 3.47,3.47 z"
       style="fill:#ffffff"
       id="path9" />
    <path
       d="m 104.48,246.92 a 3.47,3.47 0 1 1 -3.46,-3.46 3.46,3.46 0 0 1 3.46,3.46 z"
       style="fill:#ffffff"
       id="path11" />
    <path
       d="m 109.82,263.45 a 3.47,3.47 0 1 1 -3.47,-3.46 3.47,3.47 0 0 1 3.47,3.46 z"
       style="fill:#ffffff"
       id="path13" />
    <path
       d="m 120.48,299.18 a 3.47,3.47 0 1 1 -3.47,-3.47 3.46,3.46 0 0 1 3.47,3.47 z"
       style="fill:#ffffff"
       id="path15" />
    <path
       d="m 102.35,338.64 a 3.47,3.47 0 1 1 -3.47,-3.47 3.46,3.46 0 0 1 3.47,3.47 z"
       style="fill:#ffffff"
       id="path17" />
    <path
       d="m 123.15,273.85 a 3.47,3.47 0 1 1 -3.47,-3.47 3.48,3.48 0 0 1 3.47,3.47 z"
       style="fill:#ffffff"
       id="path19" />
    <path
       d="m 94.62,321 a 3.47,3.47 0 1 1 -3.47,-3.47 3.47,3.47 0 0 1 3.47,3.47 z"
       style="fill:#ffffff"
       id="path21" />
    <path
       d="M 121,361 A 3.47,3.47 0 1 1 117.54,357.54 3.46,3.46 0 0 1 121,361 Z"
       style="fill:#ffffff"
       id="path23" />
    <path
       d="m 86.09,386.63 a 3.47,3.47 0 1 1 -3.47,-3.47 3.46,3.46 0 0 1 3.47,3.47 z"
       style="fill:#ffffff"
       id="path25" />
    <path
       d="m 91.15,369 a 3.47,3.47 0 1 1 -3.46,-3.47 3.47,3.47 0 0 1 3.46,3.47 z"
       style="fill:#ffffff"
       id="path27" />
    <path
       d="m 63.43,404.22 a 3.47,3.47 0 1 1 -3.43,-3.46 3.47,3.47 0 0 1 3.43,3.46 z"
       style="fill:#ffffff"
       id="path29" />
    <circle
       cx="105.82"
       cy="397.82001"
       r="3.47"
       style="fill:#ffffff"
       id="circle31" />
    <circle
       cx="95.690002"
       cy="305.04001"
       r="3.47"
       style="fill:#263238"
       id="circle33" />
    <path
       d="m 111.42,280.52 a 3.47,3.47 0 1 1 -3.47,-3.47 3.47,3.47 0 0 1 3.47,3.47 z"
       style="fill:#263238"
       id="path35" />
    <path
       d="m 118.35,322.91 a 3.47,3.47 0 1 1 -3.47,-3.47 3.46,3.46 0 0 1 3.47,3.47 z"
       style="fill:#263238"
       id="path37" />
    <path
       d="m 100.75,229.33 a 3.47,3.47 0 1 1 -3.46,-3.47 3.46,3.46 0 0 1 3.46,3.47 z"
       style="fill:#263238"
       id="path39" />
    <path
       d="m 118.88,344 a 3.47,3.47 0 1 1 -3.47,-3.47 3.46,3.46 0 0 1 3.47,3.47 z"
       style="fill:#263238"
       id="path41" />
    <path
       d="m 115.68,383.43 a 3.47,3.47 0 1 1 -3.46,-3.47 3.46,3.46 0 0 1 3.46,3.47 z"
       style="fill:#263238"
       id="path43" />
    <path
       d="m 103.42,363.16 a 3.47,3.47 0 1 1 -3.42,-3.46 3.47,3.47 0 0 1 3.42,3.46 z"
       style="fill:#263238"
       id="path45" />
    <circle
       cx="87.150002"
       cy="405.82001"
       r="3.47"
       style="fill:#263238"
       id="circle47" />
    <path
       d="m 137.54,371.7 a 3.47,3.47 0 1 1 -3.46,-3.47 3.46,3.46 0 0 1 3.46,3.47 z"
       style="fill:#263238"
       id="path49" />
    <path
       d="m 74.62,358.37 a 3.47,3.47 0 1 1 -3.46,-3.47 3.46,3.46 0 0 1 3.46,3.47 z"
       style="fill:#263238"
       id="path51" />
    <path
       d="m 76.22,401.56 a 3.47,3.47 0 1 1 -3.46,-3.47 3.46,3.46 0 0 1 3.46,3.47 z"
       style="fill:#263238"
       id="path53" />
    <path
       d="m 131.68,405.29 a 3.47,3.47 0 1 1 -3.47,-3.47 3.46,3.46 0 0 1 3.47,3.47 z"
       style="fill:#263238"
       id="path55" />
    <path
       d="m 94.35,264 a 3.47,3.47 0 1 1 -3.46,-3.47 3.46,3.46 0 0 1 3.46,3.47 z"
       style="fill:#263238"
       id="path57" />
    <path
       d="m 85.29,347.7 a 3.47,3.47 0 1 1 -3.47,-3.47 3.47,3.47 0 0 1 3.47,3.47 z"
       style="fill:#263238"
       id="path59" />
    <rect
       x="23.4"
       y="431.25"
       width="47"
       height="35"
       style="fill:#263238;stroke:#263238;stroke-linecap:round;stroke-linejoin:round"
       id="rect61" />
    <rect
       x="42.900002"
       y="431.25"
       width="8"
       height="35"
       style="fill:#ffffff;stroke:#263238;stroke-linecap:round;stroke-linejoin:round"
       id="rect63" />
    <path
       d="m 46.56,430.74 c 0,0 -7.79,-4.67 -12.23,-5.34 -4.44,-0.67 -3.55,5.21 0.69,5.55 3.78,0.31 7.75,-0.14 11.54,-0.21 z"
       style="fill:#ffffff;stroke:#263238;stroke-linecap:round;stroke-linejoin:round"
       id="path65" />
    <path
       d="m 45.84,430.74 c 0,0 7.78,-4.67 12.23,-5.34 4.45,-0.67 3.55,5.21 -0.7,5.55 -3.77,0.31 -7.74,-0.14 -11.53,-0.21 z"
       style="fill:#ffffff;stroke:#263238;stroke-linecap:round;stroke-linejoin:round"
       id="path67" />
    <path
       d="m 44.78,430.74 c 0,0 -11.34,-4.45 -11.34,-3.34 0,1.11 2.44,3.78 11.34,3.34 z"
       style="fill:#ffffff;stroke:#263238;stroke-linecap:round;stroke-linejoin:round"
       id="path69" />
    <path
       d="m 45.67,430.75 c 0,0 12.23,-3.39 12.23,-2.55 0,0.84 -2.64,2.89 -12.23,2.55 z"
       style="fill:#ffffff;stroke:#263238;stroke-linecap:round;stroke-linejoin:round"
       id="path71" />
    <polygon
       points="41.22,439.63 45,442.52 45,430.96 36.55,430.96 36.55,442.52 "
       style="fill:#ffffff;stroke:#263238;stroke-linecap:round;stroke-linejoin:round"
       id="polygon73" />
    <polygon
       points="56.78,451.19 60.56,454.08 60.56,430.96 52.12,430.96 52.12,454.08 "
       style="fill:#ffffff;stroke:#263238;stroke-linecap:round;stroke-linejoin:round"
       id="polygon75" />
    <rect
       x="69.989998"
       y="418.76999"
       width="63.77"
       height="47.48"
       style="fill:#ffffff;stroke:#263238;stroke-linecap:round;stroke-linejoin:round"
       id="rect77" />
    <rect
       x="96.449997"
       y="418.76999"
       width="10.85"
       height="47.48"
       style="fill:#263238;stroke:#263238;stroke-linecap:round;stroke-linejoin:round"
       id="rect79" />
    <path
       d="m 101.4,418.07 c 0,0 -10.55,-6.34 -16.59,-7.24 -6.04,-0.9 -4.81,7.07 1,7.53 5.07,0.41 10.45,-0.19 15.59,-0.29 z"
       style="fill:#263238;stroke:#263238;stroke-linecap:round;stroke-linejoin:round"
       id="path81" />
    <path
       d="m 100.44,418.07 c 0,0 10.56,-6.34 16.56,-7.24 6,-0.9 4.81,7.07 -1,7.53 -5,0.41 -10.43,-0.19 -15.56,-0.29 z"
       style="fill:#263238;stroke:#263238;stroke-linecap:round;stroke-linejoin:round"
       id="path83" />
    <path
       d="m 99,418.07 c 0,0 -15.38,-6 -15.38,-4.53 0,1.47 3.3,5.13 15.38,4.53 z"
       style="fill:#ffffff;stroke:#263238;stroke-linecap:round;stroke-linejoin:round"
       id="path85" />
    <path
       d="m 100.2,418.08 c 0,0 16.59,-4.6 16.59,-3.45 0,1.15 -3.58,3.91 -16.59,3.45 z"
       style="fill:#ffffff;stroke:#263238;stroke-linecap:round;stroke-linejoin:round"
       id="path87" />
    <polygon
       points="94.16,430.13 99.29,434.06 99.29,418.37 87.83,418.37 87.83,434.06 "
       style="fill:#263238;stroke:#263238;stroke-linecap:round;stroke-linejoin:round"
       id="polygon89" />
    <polygon
       points="115.28,445.82 120.41,449.74 120.41,418.37 108.95,418.37 108.95,449.74 "
       style="fill:#263238;stroke:#263238;stroke-linecap:round;stroke-linejoin:round"
       id="polygon91" />
    <rect
       x="131.78"
       y="412.95001"
       width="71.580002"
       height="53.310001"
       style="fill:#ffffff"
       id="rect93" />
    <polygon
       points="183.72,435.34 180.51,435.8 182.83,438.07 182.28,441.26 185.16,439.75 188.03,441.26 187.48,438.07 189.8,435.8 186.59,435.34 185.16,432.43 "
       style="fill:#439a86"
       id="polygon95" />
    <polygon
       points="200.96,441.26 203.37,439.99 203.37,433.35 202.39,435.34 199.18,435.8 201.5,438.07 "
       style="fill:#439a86"
       id="polygon97" />
    <polygon
       points="193.21,419.73 190,420.19 192.32,422.46 191.77,425.65 194.64,424.15 197.52,425.65 196.97,422.46 199.29,420.19 196.08,419.73 194.64,416.82 "
       style="fill:#439a86"
       id="polygon99" />
    <polygon
       points="193.21,448.5 190,448.96 192.32,451.23 191.77,454.42 194.64,452.92 197.52,454.42 196.97,451.23 199.29,448.96 196.08,448.5 194.64,445.59 "
       style="fill:#439a86"
       id="polygon101" />
    <polygon
       points="146.69,464.11 143.48,464.57 145.21,466.25 151.04,466.25 152.77,464.57 149.56,464.11 148.13,461.2 "
       style="fill:#439a86"
       id="polygon103" />
    <polygon
       points="200.91,466.25 203.37,466.25 203.37,462.12 202.39,464.11 199.18,464.57 "
       style="fill:#439a86"
       id="polygon105" />
    <polygon
       points="165.36,464.11 162.15,464.57 163.88,466.25 169.71,466.25 171.44,464.57 168.23,464.11 166.79,461.2 "
       style="fill:#439a86"
       id="polygon107" />
    <polygon
       points="183.72,464.11 180.51,464.57 182.24,466.25 188.07,466.25 189.8,464.57 186.59,464.11 185.16,461.2 "
       style="fill:#439a86"
       id="polygon109" />
    <polygon
       points="174.54,419.73 171.33,420.19 173.65,422.46 173.1,425.65 175.97,424.15 178.85,425.65 178.3,422.46 180.62,420.19 177.41,419.73 175.97,416.82 "
       style="fill:#439a86"
       id="polygon111" />
    <polygon
       points="146.69,435.34 143.48,435.8 145.8,438.07 145.25,441.26 148.13,439.75 151,441.26 150.45,438.07 152.77,435.8 149.56,435.34 148.13,432.43 "
       style="fill:#439a86"
       id="polygon113" />
    <polygon
       points="174.54,448.5 171.33,448.96 173.65,451.23 173.1,454.42 175.97,452.92 178.85,454.42 178.3,451.23 180.62,448.96 177.41,448.5 175.97,445.59 "
       style="fill:#439a86"
       id="polygon115" />
    <polygon
       points="141.81,454.42 141.27,451.23 143.59,448.96 140.38,448.5 138.94,445.59 137.51,448.5 134.3,448.96 136.62,451.23 136.07,454.42 138.94,452.92 "
       style="fill:#439a86"
       id="polygon117" />
    <polygon
       points="137.51,419.73 134.3,420.19 136.62,422.46 136.07,425.65 138.94,424.15 141.81,425.65 141.27,422.46 143.59,420.19 140.38,419.73 138.94,416.82 "
       style="fill:#439a86"
       id="polygon119" />
    <polygon
       points="156.18,419.73 152.97,420.19 155.29,422.46 154.74,425.65 157.61,424.15 160.48,425.65 159.94,422.46 162.26,420.19 159.05,419.73 157.61,416.82 "
       style="fill:#439a86"
       id="polygon121" />
    <polygon
       points="165.36,435.34 162.15,435.8 164.47,438.07 163.92,441.26 166.79,439.75 169.66,441.26 169.12,438.07 171.44,435.8 168.23,435.34 166.79,432.43 "
       style="fill:#439a86"
       id="polygon123" />
    <polygon
       points="156.18,448.5 152.97,448.96 155.29,451.23 154.74,454.42 157.61,452.92 160.48,454.42 159.94,451.23 162.26,448.96 159.05,448.5 157.61,445.59 "
       style="fill:#439a86"
       id="polygon125" />
    <rect
       x="131.78"
       y="412.95001"
       width="71.580002"
       height="53.310001"
       style="fill:none;stroke:#263238;stroke-linecap:round;stroke-linejoin:round"
       id="rect127" />
    <rect
       x="161.48"
       y="404.14999"
       width="12.18"
       height="70.889999"
       transform="rotate(90,167.58,439.6)"
       style="fill:#439a86;stroke:#263238;stroke-linecap:round;stroke-linejoin:round"
       id="rect129" />
    <rect
       x="161.48"
       y="412.95001"
       width="12.18"
       height="53.310001"
       style="fill:#439a86;stroke:#263238;stroke-linecap:round;stroke-linejoin:round"
       id="rect131" />
  </g>
  <g
     id="freepik--Calendar--inject-212"
     transform="translate(-10.352477,-25.345824)">
    <polyline
       points="173.04 91.09 265.39 29.65 352.32 90.92"
       style="fill:none;stroke:#263238;stroke-linecap:round;stroke-linejoin:round"
       id="polyline134" />
    <circle
       cx="265.39001"
       cy="29.65"
       r="1.88"
       style="fill:#263238"
       id="circle136" />
    <line
       x1="166.52"
       y1="93.059998"
       x2="358.54001"
       y2="93.059998"
       style="fill:none;stroke:#263238;stroke-width:5px;stroke-linecap:round;stroke-linejoin:round"
       id="line138" />
    <line
       x1="166.52"
       y1="383.16"
       x2="358.54001"
       y2="383.16"
       style="fill:none;stroke:#263238;stroke-width:5px;stroke-linecap:round;stroke-linejoin:round"
       id="line140" />
    <rect
       x="169.95"
       y="90.870003"
       width="186.88"
       height="294.09"
       style="fill:#ffffff;stroke:#263238;stroke-linecap:round;stroke-linejoin:round"
       id="rect142" />
    <path
       d="m 175.66,166.21 c 0,0 0.32,-0.15 0.92,-0.4"
       style="fill:none;stroke:#263238;stroke-linecap:round;stroke-linejoin:round"
       id="path144" />
    <path
       d="m 178.45,165.1 a 64.75,64.75 0 0 1 37.22,-1.75 c 21.71,5.72 21.78,10.67 41.14,8 16.58,-2.28 29.15,-17.14 53.15,-11.43 22.6,5.38 28.48,13.29 38.15,9.91"
       style="fill:none;stroke:#263238;stroke-linecap:round;stroke-linejoin:round;stroke-dasharray:2.00852, 2.00852"
       id="path146" />
    <path
       d="m 349.05,169.47 c 0.3,-0.12 0.61,-0.26 0.92,-0.4"
       style="fill:none;stroke:#263238;stroke-linecap:round;stroke-linejoin:round"
       id="path148" />
    <path
       d="m 196.54,156.21 0.47,-4.7 a 13.72,13.72 0 0 1 -5.76,-1.69 3.4,3.4 0 0 1 -1.83,-3 c 0,-1.75 1.54,-3.46 3.32,-4.87 a 5.17,5.17 0 0 1 -1.86,-2 c -0.47,-0.94 -1.72,-3.43 6.84,-9.88 l 1.38,-1.38 a 4.6,4.6 0 0 1 3.66,-1.67 6.61,6.61 0 0 1 4.13,1.54 c 8.58,7.1 9.64,9.41 8.62,11.41 a 5.23,5.23 0 0 1 -1.88,2 c 1.81,1.41 3.35,3.12 3.36,4.87 a 3.38,3.38 0 0 1 -1.85,3 14.28,14.28 0 0 1 -5.89,1.69 l 0.48,4.69 z"
       style="fill:#439a86;stroke:#263238;stroke-linecap:round;stroke-linejoin:round"
       id="path150" />
    <path
       d="m 208.83,141.4 c 0,0 3.83,-0.47 4.79,-2.35 0.66,-1.3 -4.69,-6 -8.07,-8.81 -1.44,-1.19 -3.74,-1.59 -4.86,-0.1 l -1.58,1.57 c 0,0 -7.28,5.46 -6.34,7.34 0.94,1.88 4.7,2.35 4.7,2.35 0,0 -8.47,4.7 -5.17,6.6 a 12.65,12.65 0 0 0 7,1.41 l -0.47,4.7 h 8.51 l -0.48,-4.7 A 13.13,13.13 0 0 0 214.1,148 c 3.36,-1.9 -5.27,-6.6 -5.27,-6.6 z"
       style="fill:#439a86;stroke:#263238;stroke-width:0.5px;stroke-linecap:round;stroke-linejoin:round;stroke-dasharray:1"
       id="path152" />
    <path
       d="m 290.27,156.21 0.47,-4.7 a 13.72,13.72 0 0 1 -5.76,-1.69 3.38,3.38 0 0 1 -1.83,-3 c 0,-1.75 1.53,-3.46 3.32,-4.87 a 5.12,5.12 0 0 1 -1.87,-2 c -0.47,-0.94 -1.72,-3.43 6.85,-9.88 l 1.38,-1.38 a 4.59,4.59 0 0 1 3.65,-1.67 6.63,6.63 0 0 1 4.14,1.54 c 8.58,7.1 9.63,9.41 8.61,11.41 a 5.16,5.16 0 0 1 -1.88,2 c 1.81,1.41 3.36,3.12 3.37,4.87 a 3.37,3.37 0 0 1 -1.86,3 14.24,14.24 0 0 1 -5.88,1.69 l 0.48,4.69 z"
       style="fill:#439a86;stroke:#263238;stroke-linecap:round;stroke-linejoin:round"
       id="path154" />
    <path
       d="m 302.55,141.4 c 0,0 3.84,-0.47 4.8,-2.35 0.66,-1.3 -4.69,-6 -8.08,-8.81 -1.43,-1.19 -3.74,-1.59 -4.86,-0.1 l -1.57,1.57 c 0,0 -7.29,5.46 -6.35,7.34 0.94,1.88 4.71,2.35 4.71,2.35 0,0 -8.47,4.7 -5.18,6.58 a 12.69,12.69 0 0 0 7.06,1.41 l -0.47,4.7 h 8.51 l -0.48,-4.7 a 13.14,13.14 0 0 0 7.19,-1.41 c 3.35,-1.88 -5.28,-6.58 -5.28,-6.58 z"
       style="fill:#439a86;stroke:#263238;stroke-width:0.5px;stroke-linecap:round;stroke-linejoin:round;stroke-dasharray:1"
       id="path156" />
    <path
       d="m 327.92,156.21 0.36,-3.55 a 10.46,10.46 0 0 1 -4.36,-1.29 2.52,2.52 0 0 1 -1.38,-2.24 c 0,-1.32 1.16,-2.62 2.51,-3.69 a 3.77,3.77 0 0 1 -1.41,-1.5 c -0.36,-0.71 -1.3,-2.6 5.17,-7.48 l 1.05,-1 a 3.45,3.45 0 0 1 2.76,-1.26 5,5 0 0 1 3.13,1.16 c 6.49,5.37 7.29,7.12 6.52,8.63 a 3.91,3.91 0 0 1 -1.42,1.49 c 1.37,1.07 2.54,2.37 2.55,3.69 a 2.56,2.56 0 0 1 -1.41,2.25 10.88,10.88 0 0 1 -4.45,1.28 l 0.36,3.55 z"
       style="fill:#439a86;stroke:#263238;stroke-linecap:round;stroke-linejoin:round"
       id="path158" />
    <path
       d="m 337.22,145 c 0,0 2.9,-0.35 3.62,-1.77 0.5,-1 -3.54,-4.55 -6.11,-6.67 -1.08,-0.9 -2.82,-1.2 -3.67,-0.07 l -1.19,1.19 c 0,0 -5.51,4.12 -4.8,5.55 0.71,1.43 3.55,1.77 3.55,1.77 0,0 -6.4,3.56 -3.91,5 a 9.53,9.53 0 0 0 5.34,1.07 l -0.36,3.56 h 6.44 l -0.36,-3.56 a 9.88,9.88 0 0 0 5.44,-1.07 c 2.54,-1.44 -3.99,-5 -3.99,-5 z"
       style="fill:#439a86;stroke:#263238;stroke-linecap:round;stroke-linejoin:round;stroke-dasharray:1"
       id="path160" />
    <circle
       cx="249.56"
       cy="136.85001"
       r="5.48"
       style="fill:#ffffff;stroke:#263238;stroke-linecap:round;stroke-linejoin:round"
       id="circle162" />
    <circle
       cx="249.56"
       cy="136.85001"
       r="3.9200001"
       style="fill:#ffffff;stroke:#263238;stroke-width:0.5px;stroke-linecap:round;stroke-linejoin:round;stroke-dasharray:1"
       id="circle164" />
    <path
       d="m 256.23,147.21 a 6.67,6.67 0 1 1 -6.67,-6.67 6.68,6.68 0 0 1 6.67,6.67 z"
       style="fill:#ffffff;stroke:#263238;stroke-linecap:round;stroke-linejoin:round"
       id="path166" />
    <path
       d="m 254.33,147.21 a 4.77,4.77 0 1 1 -4.77,-4.77 4.77,4.77 0 0 1 4.77,4.77 z"
       style="fill:#ffffff;stroke:#263238;stroke-width:0.5px;stroke-linecap:round;stroke-linejoin:round;stroke-dasharray:1"
       id="path168" />
    <circle
       cx="249.56"
       cy="158.77"
       r="9.4200001"
       transform="rotate(-22.64,249.50788,158.7694)"
       style="fill:#ffffff;stroke:#263238;stroke-linecap:round;stroke-linejoin:round"
       id="circle170" />
    <path
       d="m 256.29,158.77 a 6.74,6.74 0 1 1 -6.73,-6.73 6.73,6.73 0 0 1 6.73,6.73 z"
       style="fill:#ffffff;stroke:#263238;stroke-width:0.5px;stroke-linecap:round;stroke-linejoin:round;stroke-dasharray:1"
       id="path172" />
    <circle
       cx="247.82001"
       cy="136.17"
       r="0.97000003"
       style="fill:#263238"
       id="circle174" />
    <circle
       cx="251"
       cy="136.17"
       r="0.97000003"
       style="fill:#263238"
       id="circle176" />
    <path
       d="m 247.24,138.18 a 3,3 0 0 0 4.15,0"
       style="fill:none;stroke:#263238;stroke-linecap:round;stroke-linejoin:round"
       id="path178" />
    <path
       d="m 247.24,141.69 a 1.17,1.17 0 1 1 -1.17,-1.17 1.17,1.17 0 0 1 1.17,1.17 z"
       style="fill:#439a86;stroke:#263238;stroke-linecap:round;stroke-linejoin:round"
       id="path180" />
    <path
       d="m 254.25,141.69 a 1.17,1.17 0 0 1 -2.34,0 1.17,1.17 0 0 1 2.34,0 z"
       style="fill:#439a86;stroke:#263238;stroke-linecap:round;stroke-linejoin:round"
       id="path182" />
    <path
       d="m 252.43,143.12 a 1.17,1.17 0 1 1 -1.17,-1.17 1.17,1.17 0 0 1 1.17,1.17 z"
       style="fill:#439a86;stroke:#263238;stroke-linecap:round;stroke-linejoin:round"
       id="path184" />
    <path
       d="m 249.44,143.12 a 1.17,1.17 0 1 1 -1.16,-1.17 1.16,1.16 0 0 1 1.16,1.17 z"
       style="fill:#439a86;stroke:#263238;stroke-linecap:round;stroke-linejoin:round"
       id="path186" />
    <path
       d="m 250.87,144.94 a 1.17,1.17 0 1 1 -1.17,-1.17 1.17,1.17 0 0 1 1.17,1.17 z"
       style="fill:#439a86;stroke:#263238;stroke-linecap:round;stroke-linejoin:round"
       id="path188" />
    <path
       d="m 250.87,147.28 a 1.17,1.17 0 1 1 -1.17,-1.17 1.16,1.16 0 0 1 1.17,1.17 z"
       style="fill:#439a86;stroke:#263238;stroke-linecap:round;stroke-linejoin:round"
       id="path190" />
    <line
       x1="183.09"
       y1="122.2"
       x2="183.09"
       y2="130.2"
       style="fill:none;stroke:#439a86;stroke-linecap:round;stroke-linejoin:round"
       id="line192" />
    <line
       x1="187.09"
       y1="126.2"
       x2="179.09"
       y2="126.2"
       style="fill:none;stroke:#439a86;stroke-linecap:round;stroke-linejoin:round"
       id="line194" />
    <line
       x1="185.92"
       y1="129.03"
       x2="180.25999"
       y2="123.37"
       style="fill:none;stroke:#439a86;stroke-linecap:round;stroke-linejoin:round"
       id="line196" />
    <line
       x1="185.92"
       y1="123.37"
       x2="180.25999"
       y2="129.03"
       style="fill:none;stroke:#439a86;stroke-linecap:round;stroke-linejoin:round"
       id="line198" />
    <line
       x1="225.95"
       y1="143.92"
       x2="225.95"
       y2="151.92"
       style="fill:none;stroke:#439a86;stroke-linecap:round;stroke-linejoin:round"
       id="line200" />
    <line
       x1="229.95"
       y1="147.92"
       x2="221.95"
       y2="147.92"
       style="fill:none;stroke:#439a86;stroke-linecap:round;stroke-linejoin:round"
       id="line202" />
    <line
       x1="228.78"
       y1="150.75"
       x2="223.12"
       y2="145.09"
       style="fill:none;stroke:#439a86;stroke-linecap:round;stroke-linejoin:round"
       id="line204" />
    <line
       x1="228.78"
       y1="145.09"
       x2="223.12"
       y2="150.75"
       style="fill:none;stroke:#439a86;stroke-linecap:round;stroke-linejoin:round"
       id="line206" />
    <line
       x1="222.24001"
       y1="95.059998"
       x2="222.24001"
       y2="103.06"
       style="fill:none;stroke:#439a86;stroke-linecap:round;stroke-linejoin:round"
       id="line208" />
    <line
       x1="226.24001"
       y1="99.059998"
       x2="218.24001"
       y2="99.059998"
       style="fill:none;stroke:#439a86;stroke-linecap:round;stroke-linejoin:round"
       id="line210" />
    <line
       x1="225.07001"
       y1="101.89"
       x2="219.41"
       y2="96.230003"
       style="fill:none;stroke:#439a86;stroke-linecap:round;stroke-linejoin:round"
       id="line212" />
    <line
       x1="225.07001"
       y1="96.230003"
       x2="219.41"
       y2="101.89"
       style="fill:none;stroke:#439a86;stroke-linecap:round;stroke-linejoin:round"
       id="line214" />
    <line
       x1="325.39001"
       y1="120.49"
       x2="325.39001"
       y2="128.49001"
       style="fill:none;stroke:#439a86;stroke-linecap:round;stroke-linejoin:round"
       id="line216" />
    <line
       x1="329.39001"
       y1="124.49"
       x2="321.39001"
       y2="124.49"
       style="fill:none;stroke:#439a86;stroke-linecap:round;stroke-linejoin:round"
       id="line218" />
    <line
       x1="328.22"
       y1="127.32"
       x2="322.56"
       y2="121.66"
       style="fill:none;stroke:#439a86;stroke-linecap:round;stroke-linejoin:round"
       id="line220" />
    <line
       x1="328.22"
       y1="121.66"
       x2="322.56"
       y2="127.32"
       style="fill:none;stroke:#439a86;stroke-linecap:round;stroke-linejoin:round"
       id="line222" />
    <line
       x1="272.53"
       y1="135.92"
       x2="272.53"
       y2="143.92"
       style="fill:none;stroke:#439a86;stroke-linecap:round;stroke-linejoin:round"
       id="line224" />
    <line
       x1="276.53"
       y1="139.92"
       x2="268.53"
       y2="139.92"
       style="fill:none;stroke:#439a86;stroke-linecap:round;stroke-linejoin:round"
       id="line226" />
    <line
       x1="275.35999"
       y1="142.75"
       x2="269.70001"
       y2="137.09"
       style="fill:none;stroke:#439a86;stroke-linecap:round;stroke-linejoin:round"
       id="line228" />
    <line
       x1="275.35999"
       y1="137.09"
       x2="269.70001"
       y2="142.75"
       style="fill:none;stroke:#439a86;stroke-linecap:round;stroke-linejoin:round"
       id="line230" />
    <line
       x1="265.67001"
       y1="157.35001"
       x2="265.67001"
       y2="165.35001"
       style="fill:none;stroke:#439a86;stroke-linecap:round;stroke-linejoin:round"
       id="line232" />
    <line
       x1="269.67001"
       y1="161.35001"
       x2="261.67001"
       y2="161.35001"
       style="fill:none;stroke:#439a86;stroke-linecap:round;stroke-linejoin:round"
       id="line234" />
    <line
       x1="268.5"
       y1="164.17999"
       x2="262.84"
       y2="158.52"
       style="fill:none;stroke:#439a86;stroke-linecap:round;stroke-linejoin:round"
       id="line236" />
    <line
       x1="268.5"
       y1="158.52"
       x2="262.84"
       y2="164.17999"
       style="fill:none;stroke:#439a86;stroke-linecap:round;stroke-linejoin:round"
       id="line238" />
    <line
       x1="341.67999"
       y1="99.339996"
       x2="341.67999"
       y2="107.34"
       style="fill:none;stroke:#439a86;stroke-linecap:round;stroke-linejoin:round"
       id="line240" />
    <line
       x1="345.67999"
       y1="103.34"
       x2="337.67999"
       y2="103.34"
       style="fill:none;stroke:#439a86;stroke-linecap:round;stroke-linejoin:round"
       id="line242" />
    <line
       x1="344.51001"
       y1="106.17"
       x2="338.85001"
       y2="100.52"
       style="fill:none;stroke:#439a86;stroke-linecap:round;stroke-linejoin:round"
       id="line244" />
    <line
       x1="344.51001"
       y1="100.52"
       x2="338.85001"
       y2="106.17"
       style="fill:none;stroke:#439a86;stroke-linecap:round;stroke-linejoin:round"
       id="line246" />
    <line
       x1="346.82001"
       y1="152.21001"
       x2="346.82001"
       y2="160.21001"
       style="fill:none;stroke:#439a86;stroke-linecap:round;stroke-linejoin:round"
       id="line248" />
    <line
       x1="350.82001"
       y1="156.21001"
       x2="342.82001"
       y2="156.21001"
       style="fill:none;stroke:#439a86;stroke-linecap:round;stroke-linejoin:round"
       id="line250" />
    <line
       x1="349.64999"
       y1="159.03999"
       x2="344"
       y2="153.38"
       style="fill:none;stroke:#439a86;stroke-linecap:round;stroke-linejoin:round"
       id="line252" />
    <line
       x1="349.64999"
       y1="153.38"
       x2="344"
       y2="159.03999"
       style="fill:none;stroke:#439a86;stroke-linecap:round;stroke-linejoin:round"
       id="line254" />
    <line
       x1="281.39001"
       y1="97.059998"
       x2="281.39001"
       y2="105.06"
       style="fill:none;stroke:#439a86;stroke-linecap:round;stroke-linejoin:round"
       id="line256" />
    <line
       x1="285.39001"
       y1="101.06"
       x2="277.39001"
       y2="101.06"
       style="fill:none;stroke:#439a86;stroke-linecap:round;stroke-linejoin:round"
       id="line258" />
    <line
       x1="284.22"
       y1="103.89"
       x2="278.56"
       y2="98.230003"
       style="fill:none;stroke:#439a86;stroke-linecap:round;stroke-linejoin:round"
       id="line260" />
    <line
       x1="284.22"
       y1="98.230003"
       x2="278.56"
       y2="103.89"
       style="fill:none;stroke:#439a86;stroke-linecap:round;stroke-linejoin:round"
       id="line262" />
    <path
       d="m 212.66,184.62 c -17.66,4.89 -30.28,1 -33.71,-0.31 v 39.48 h 33.71 z"
       style="fill:#ffffff;stroke:#263238;stroke-linecap:round;stroke-linejoin:round"
       id="path264" />
    <path
       d="m 246.34,184.62 c -17.66,4.89 -30.28,1 -33.71,-0.31 v 39.48 h 33.71 z"
       style="fill:#ffffff;stroke:#263238;stroke-linecap:round;stroke-linejoin:round"
       id="path266" />
    <path
       d="m 280,184.62 c -17.66,4.89 -30.28,1 -33.71,-0.31 v 39.48 H 280 Z"
       style="fill:#ffffff;stroke:#263238;stroke-linecap:round;stroke-linejoin:round"
       id="path268" />
    <path
       d="m 313.71,184.62 c -17.66,4.89 -30.28,1 -33.71,-0.31 v 39.48 h 33.71 z"
       style="fill:#ffffff;stroke:#263238;stroke-linecap:round;stroke-linejoin:round"
       id="path270" />
    <path
       d="m 347.4,184.62 c -17.66,4.89 -30.28,1 -33.71,-0.31 v 39.48 h 33.71 z"
       style="fill:#ffffff;stroke:#263238;stroke-linecap:round;stroke-linejoin:round"
       id="path272" />
    <path
       d="m 212.66,223.62 c -17.88,6.93 -30.28,1 -33.71,-0.3 v 39.47 h 33.71 z"
       style="fill:#ffffff;stroke:#263238;stroke-linecap:round;stroke-linejoin:round"
       id="path274" />
    <path
       d="m 246.34,223.62 c -17.66,4.89 -30.28,1 -33.71,-0.3 v 39.47 h 33.71 z"
       style="fill:#ffffff;stroke:#263238;stroke-linecap:round;stroke-linejoin:round"
       id="path276" />
    <path
       d="m 280,223.62 c -17.66,4.89 -30.28,1 -33.71,-0.3 v 39.47 H 280 Z"
       style="fill:#ffffff;stroke:#263238;stroke-linecap:round;stroke-linejoin:round"
       id="path278" />
    <path
       d="m 313.71,223.62 c -17.66,4.89 -30.28,1 -33.71,-0.3 v 39.47 h 33.71 z"
       style="fill:#ffffff;stroke:#263238;stroke-linecap:round;stroke-linejoin:round"
       id="path280" />
    <path
       d="m 347.4,223.62 c -17.66,4.89 -30.28,1 -33.71,-0.3 v 39.47 h 33.71 z"
       style="fill:#ffffff;stroke:#263238;stroke-linecap:round;stroke-linejoin:round"
       id="path282" />
    <path
       d="m 212.66,262.63 c -18.74,9.27 -30.28,1 -33.71,-0.31 v 39.47 h 33.71 z"
       style="fill:#ffffff;stroke:#263238;stroke-linecap:round;stroke-linejoin:round"
       id="path284" />
    <path
       d="m 246.34,262.63 c -17.66,4.89 -30.28,1 -33.71,-0.31 v 39.47 h 33.71 z"
       style="fill:#ffffff;stroke:#263238;stroke-linecap:round;stroke-linejoin:round"
       id="path286" />
    <path
       d="m 280,262.63 c -19.54,10.44 -30.28,1 -33.71,-0.31 v 39.47 H 280 Z"
       style="fill:#ffffff;stroke:#263238;stroke-linecap:round;stroke-linejoin:round"
       id="path288" />
    <path
       d="m 313.71,262.63 c -17.66,4.89 -30.28,1 -33.71,-0.31 v 39.47 h 33.71 z"
       style="fill:#ffffff;stroke:#263238;stroke-linecap:round;stroke-linejoin:round"
       id="path290" />
    <path
       d="m 347.4,262.63 c -17.66,4.89 -30.28,1 -33.71,-0.31 v 39.47 h 33.71 z"
       style="fill:#ffffff;stroke:#263238;stroke-linecap:round;stroke-linejoin:round"
       id="path292" />
    <path
       d="m 212.66,301.63 c -17.66,4.89 -30.28,1 -33.71,-0.3 v 39.47 h 33.71 z"
       style="fill:#ffffff;stroke:#263238;stroke-linecap:round;stroke-linejoin:round"
       id="path294" />
    <path
       d="m 246.34,301.63 c -17.66,4.89 -30.28,1 -33.71,-0.3 v 39.47 h 33.71 z"
       style="fill:#ffffff;stroke:#263238;stroke-linecap:round;stroke-linejoin:round"
       id="path296" />
    <path
       d="m 280,301.63 c -17.66,4.89 -30.28,1 -33.71,-0.3 V 340.8 H 280 Z"
       style="fill:#ffffff;stroke:#263238;stroke-linecap:round;stroke-linejoin:round"
       id="path298" />
    <path
       d="m 313.71,301.63 c -19.91,11.67 -30.28,1 -33.71,-0.3 v 39.47 h 33.71 z"
       style="fill:#ffffff;stroke:#263238;stroke-linecap:round;stroke-linejoin:round"
       id="path300" />
    <path
       d="m 347.4,301.63 c -17.66,4.89 -30.28,1 -33.71,-0.3 v 39.47 h 33.71 z"
       style="fill:#ffffff;stroke:#263238;stroke-linecap:round;stroke-linejoin:round"
       id="path302" />
    <path
       d="m 212.66,340.63 c -17.66,4.9 -30.28,1 -33.71,-0.3 v 39.47 h 33.71 z"
       style="fill:#ffffff;stroke:#263238;stroke-linecap:round;stroke-linejoin:round"
       id="path304" />
    <path
       d="m 246.34,340.63 c -20,9.94 -30.28,1 -33.71,-0.3 v 39.47 h 33.71 z"
       style="fill:#ffffff;stroke:#263238;stroke-linecap:round;stroke-linejoin:round"
       id="path306" />
    <path
       d="m 280,340.63 c -17.66,4.9 -30.28,1 -33.71,-0.3 V 379.8 H 280 Z"
       style="fill:#ffffff;stroke:#263238;stroke-linecap:round;stroke-linejoin:round"
       id="path308" />
    <path
       d="m 313.71,340.63 c -17.66,4.9 -30.28,1 -33.71,-0.3 v 39.47 h 33.71 z"
       style="fill:#ffffff;stroke:#263238;stroke-linecap:round;stroke-linejoin:round"
       id="path310" />
    <path
       d="m 347.4,340.63 c -17.66,4.9 -30.28,1 -33.71,-0.3 v 39.47 h 33.71 z"
       style="fill:#ffffff;stroke:#263238;stroke-linecap:round;stroke-linejoin:round"
       id="path312" />
    <path
       d="m 270.24,255.69 a 4.64,4.64 0 0 0 -8.38,1.26 l -2.86,10.3 a 17.76,17.76 0 0 0 2.89,0.27 l 2.73,-9.81 a 1.78,1.78 0 0 1 2,-1.28 1.77,1.77 0 0 1 1.45,2.28 l -1.57,5.19 a 1.4314765,1.4314765 0 1 0 2.74,0.83 l 1.57,-5.19 a 4.63,4.63 0 0 0 -0.57,-3.85 z"
       style="fill:#ffffff;stroke:#263238;stroke-linecap:round;stroke-linejoin:round"
       id="path314" />
    <path
       d="m 266.87,256.5 a 1.75,1.75 0 0 1 1,0.73 1.79,1.79 0 0 1 0.26,1.21 l 0.68,-4.19 a 4.89,4.89 0 0 0 -1.79,-0.66 h -0.13 z"
       style="fill:#439a86;stroke:#263238;stroke-width:0.5px;stroke-linecap:round;stroke-linejoin:round"
       id="path316" />
    <polygon
       points="262.71,264.57 260.41,262.17 259.81,264.3 262.12,266.71 "
       style="fill:#439a86;stroke:#263238;stroke-width:0.5px;stroke-linecap:round;stroke-linejoin:round"
       id="polygon318" />
    <polygon
       points="263.8,260.65 261.67,257.62 261.01,260 263.14,263.03 "
       style="fill:#439a86;stroke:#263238;stroke-width:0.5px;stroke-linecap:round;stroke-linejoin:round"
       id="polygon320" />
    <path
       d="m 262.63,255.4 1.71,3.31 0.28,-1 a 1.79,1.79 0 0 1 0.81,-1 l -1.3,-2.53 a 4.58,4.58 0 0 0 -1.5,1.22 z"
       style="fill:#439a86;stroke:#263238;stroke-width:0.5px;stroke-linecap:round;stroke-linejoin:round"
       id="path322" />
    <path
       d="m 270.77,259.54 a 4.63,4.63 0 0 0 0.18,-1.77 l -3.14,1.67 -0.81,2.56 3.57,-1.89 z"
       style="fill:#439a86;stroke:#263238;stroke-width:0.5px;stroke-linecap:round;stroke-linejoin:round"
       id="path324" />
    <path
       d="m 202.72,215 a 4.64,4.64 0 0 0 -8.38,1.25 l -2.86,10.31 a 16.77,16.77 0 0 0 2.89,0.26 l 2.73,-9.8 a 1.79,1.79 0 0 1 2,-1.29 1.76,1.76 0 0 1 1.25,0.81 1.7,1.7 0 0 1 0.2,1.47 l -1.57,5.2 a 1.4314765,1.4314765 0 0 0 2.74,0.83 l 1.57,-5.2 A 4.6,4.6 0 0 0 202.72,215 Z"
       style="fill:#ffffff;stroke:#263238;stroke-linecap:round;stroke-linejoin:round"
       id="path326" />
    <path
       d="m 199.35,215.77 a 1.77,1.77 0 0 1 1,0.74 1.7,1.7 0 0 1 0.26,1.2 l 0.68,-4.19 a 4.7,4.7 0 0 0 -1.79,-0.65 h -0.13 z"
       style="fill:#439a86;stroke:#263238;stroke-width:0.5px;stroke-linecap:round;stroke-linejoin:round"
       id="path328" />
    <polygon
       points="195.19,223.84 192.89,221.44 192.29,223.58 194.6,225.98 "
       style="fill:#439a86;stroke:#263238;stroke-width:0.5px;stroke-linecap:round;stroke-linejoin:round"
       id="polygon330" />
    <polygon
       points="196.28,219.92 194.15,216.9 193.49,219.27 195.62,222.3 "
       style="fill:#439a86;stroke:#263238;stroke-width:0.5px;stroke-linecap:round;stroke-linejoin:round"
       id="polygon332" />
    <path
       d="m 195.11,214.67 1.71,3.31 0.28,-1 a 1.73,1.73 0 0 1 0.81,-1.05 l -1.3,-2.54 a 4.71,4.71 0 0 0 -1.5,1.28 z"
       style="fill:#439a86;stroke:#263238;stroke-width:0.5px;stroke-linecap:round;stroke-linejoin:round"
       id="path334" />
    <path
       d="m 203.25,218.81 a 4.63,4.63 0 0 0 0.18,-1.77 l -3.14,1.67 -0.78,2.58 3.57,-1.9 z"
       style="fill:#439a86;stroke:#263238;stroke-width:0.5px;stroke-linecap:round;stroke-linejoin:round"
       id="path336" />
    <path
       d="m 190.37,266.34 a 27.43,27.43 0 0 0 10.39,-0.18 7.39,7.39 0 1 0 -10.39,0.18 z"
       style="fill:#ffffff;stroke:#263238;stroke-linecap:round;stroke-linejoin:round"
       id="path338" />
    <path
       d="m 194.17,266.74 c 0.9,0 1.87,0 2.92,-0.08 a 5.89,5.89 0 1 0 -2.92,0.08 z"
       style="fill:#439a86;stroke:#263238;stroke-width:0.5px;stroke-linecap:round;stroke-linejoin:round"
       id="path340" />
    <circle
       cx="195.47"
       cy="261"
       r="4.3899999"
       style="fill:#ffffff;stroke:#263238;stroke-width:0.5px;stroke-linecap:round;stroke-linejoin:round"
       id="circle342" />
    <path
       d="m 198.48,261 a 3,3 0 1 1 -3,-3 3,3 0 0 1 3,3 z"
       style="fill:#439a86;stroke:#263238;stroke-width:0.5px;stroke-linecap:round;stroke-linejoin:round"
       id="path344" />
    <path
       d="m 197.71,261 a 2.24,2.24 0 1 1 -2.24,-2.25 2.24,2.24 0 0 1 2.24,2.25 z"
       style="fill:#ffffff;stroke:#263238;stroke-width:0.5px;stroke-linecap:round;stroke-linejoin:round"
       id="path346" />
    <path
       d="m 326.47,342.6 a 27.27,27.27 0 0 0 10.39,-0.19 7.39,7.39 0 1 0 -10.39,0.19 z"
       style="fill:#ffffff;stroke:#263238;stroke-linecap:round;stroke-linejoin:round"
       id="path348" />
    <path
       d="m 330.27,343 a 27,27 0 0 0 2.92,-0.09 5.87,5.87 0 1 0 -2.92,0.09 z"
       style="fill:#439a86;stroke:#263238;stroke-width:0.5px;stroke-linecap:round;stroke-linejoin:round"
       id="path350" />
    <circle
       cx="331.57001"
       cy="337.25"
       r="4.3899999"
       style="fill:#ffffff;stroke:#263238;stroke-width:0.5px;stroke-linecap:round;stroke-linejoin:round"
       id="circle352" />
    <path
       d="m 334.58,337.25 a 3,3 0 1 1 -3,-3 3,3 0 0 1 3,3 z"
       style="fill:#439a86;stroke:#263238;stroke-width:0.5px;stroke-linecap:round;stroke-linejoin:round"
       id="path354" />
    <path
       d="m 333.81,337.25 a 2.24,2.24 0 1 1 -2.24,-2.24 2.24,2.24 0 0 1 2.24,2.24 z"
       style="fill:#ffffff;stroke:#263238;stroke-width:0.5px;stroke-linecap:round;stroke-linejoin:round"
       id="path356" />
    <path
       d="m 288.39,305.52 2.55,-10.35 16.7,3.34 -1.2,6.68 c 0,0 -9.99,3.95 -18.05,0.33 z"
       style="fill:#439a86;stroke:#263238;stroke-linecap:round;stroke-linejoin:round"
       id="path358" />
    <path
       d="m 295.69,307 a 24.47,24.47 0 0 0 2.59,-0.08 l 2.3,-9.86 -2.53,-0.5 z"
       style="fill:#ffffff;stroke:#263238;stroke-linecap:round;stroke-linejoin:round"
       id="path360" />
    <path
       d="m 220.6,344.11 2.55,-10.35 16.7,3.34 -1.19,6.68 c 0,0 -10,3.95 -18.06,0.33 z"
       style="fill:#439a86;stroke:#263238;stroke-linecap:round;stroke-linejoin:round"
       id="path362" />
    <path
       d="m 220.8,343.32 10,2.21 a 32.67,32.67 0 0 0 4.86,-0.83 l -14.46,-3 z"
       style="fill:#ffffff;stroke:#263238;stroke-linecap:round;stroke-linejoin:round"
       id="path364" />
    <path
       d="m 227.91,345.63 a 24.28,24.28 0 0 0 2.58,-0.08 l 2.31,-9.86 -2.53,-0.51 z"
       style="fill:#ffffff;stroke:#263238;stroke-linecap:round;stroke-linejoin:round"
       id="path366" />
    <path
       d="m 194.51,195.57 a 4.2,4.2 0 0 1 -2,0.61 v -1.3 A 2.43,2.43 0 0 0 195,193 h 1.1 v 14.23 h -1.57 z"
       style="fill:#263238"
       id="path368" />
    <path
       d="m 231.71,196.45 c 0,4.29 -4.81,5.83 -4.83,9.1 v 0.23 h 4.67 v 1.44 h -6.24 V 206 c 0,-4.59 4.82,-5.49 4.82,-9.49 0,-1.47 -0.49,-2.24 -1.67,-2.24 -1.18,0 -1.66,0.84 -1.66,2.1 v 1.26 h -1.49 v -1.16 c 0,-2.18 1,-3.62 3.19,-3.62 2.19,0 3.21,1.42 3.21,3.6 z"
       style="fill:#263238"
       id="path370" />
    <path
       d="m 266.66,196.43 v 0.36 a 2.82,2.82 0 0 1 -1.72,2.93 2.82,2.82 0 0 1 1.72,2.95 v 1.09 c 0,2.18 -1,3.6 -3.21,3.6 -2.21,0 -3.19,-1.42 -3.19,-3.6 v -1 h 1.49 v 1.08 c 0,1.28 0.52,2 1.66,2 1.14,0 1.67,-0.75 1.67,-2.2 v -1.09 c 0,-1.41 -0.59,-2.08 -1.79,-2.12 h -0.85 v -1.42 h 0.93 a 1.71,1.71 0 0 0 1.71,-2 v -0.65 c 0,-1.47 -0.51,-2.22 -1.67,-2.22 -1.16,0 -1.66,0.79 -1.66,2.08 v 0.73 h -1.49 v -0.65 c 0,-2.18 1,-3.58 3.19,-3.58 2.19,0 3.21,1.53 3.21,3.71 z"
       style="fill:#263238"
       id="path372" />
    <path
       d="m 299.32,204.35 v 2.87 h -1.55 v -2.87 h -4.59 v -1.44 l 4.41,-9.92 h 1.73 v 9.92 h 1.14 v 1.44 z m -4.68,-1.44 h 3.13 V 196 Z"
       style="fill:#263238"
       id="path374" />
    <path
       d="m 328.6,198.78 a 2.3,2.3 0 0 1 2.11,-1.18 c 1.83,0 2.64,1.35 2.64,3.38 v 2.78 c 0,2.18 -1,3.6 -3.21,3.6 -2.21,0 -3.19,-1.42 -3.19,-3.6 v -0.95 h 1.49 v 1.06 c 0,1.28 0.52,2 1.66,2 1.14,0 1.67,-0.77 1.67,-2 v -2.77 c 0,-1.28 -0.53,-2 -1.67,-2 a 1.53,1.53 0 0 0 -1.6,1.52 v 0.33 H 327 l 0.39,-7.91 H 333 v 1.42 h -4.19 z"
       style="fill:#263238"
       id="path376" />
    <path
       d="m 197.47,237.09 v 0.26 H 196 V 237 c 0,-1.28 -0.52,-2 -1.68,-2 -1.16,0 -1.73,0.77 -1.73,2.3 v 3.19 a 2.29,2.29 0 0 1 2.3,-1.52 c 1.83,0 2.64,1.32 2.64,3.37 v 2.15 c 0,2.18 -1.08,3.6 -3.25,3.6 -2.17,0 -3.28,-1.42 -3.28,-3.6 v -7.25 c 0,-2.26 1,-3.66 3.28,-3.66 2.28,0 3.19,1.33 3.19,3.51 z m -4.9,5.32 v 2.14 c 0,1.28 0.53,2 1.69,2 1.16,0 1.68,-0.77 1.68,-2 v -2.14 c 0,-1.28 -0.54,-2 -1.68,-2 -1.14,0 -1.69,0.72 -1.69,2 z"
       style="fill:#263238"
       id="path378" />
    <path
       d="m 230.05,235.09 h -4.84 v -1.42 h 6.44 v 1.38 L 228,247.9 h -1.59 z"
       style="fill:#263238"
       id="path380" />
    <path
       d="m 266.82,237.05 v 0.44 a 2.81,2.81 0 0 1 -1.63,2.93 c 1.18,0.47 1.63,1.58 1.63,3 v 1 c 0,2.2 -1.14,3.56 -3.36,3.56 -2.22,0 -3.35,-1.36 -3.35,-3.56 v -1 c 0,-1.45 0.45,-2.52 1.65,-3 -1.16,-0.45 -1.65,-1.48 -1.65,-2.93 v -0.44 c 0,-2.2 1.16,-3.52 3.35,-3.52 2.19,0 3.36,1.32 3.36,3.52 z m -5.15,0 v 0.69 c 0,1.38 0.68,2 1.79,2 1.11,0 1.79,-0.61 1.79,-2 v -0.69 c 0,-1.47 -0.67,-2.14 -1.79,-2.14 -1.12,0 -1.79,0.71 -1.79,2.18 z m 0,6.15 v 1.2 c 0,1.47 0.66,2.16 1.79,2.16 1.13,0 1.77,-0.69 1.79,-2.16 v -1.2 c 0,-1.38 -0.61,-2.05 -1.79,-2.05 -1.18,0 -1.79,0.71 -1.79,2.09 z"
       style="fill:#263238"
       id="path382" />
    <path
       d="m 300,237.11 v 7.25 c 0,2.26 -1,3.68 -3.29,3.68 -2.29,0 -3.21,-1.4 -3.21,-3.58 v -0.26 h 1.5 v 0.37 c 0,1.28 0.55,2 1.69,2 1.14,0 1.74,-0.77 1.74,-2.28 v -3.19 a 2.25,2.25 0 0 1 -2.29,1.5 c -1.83,0 -2.64,-1.3 -2.64,-3.35 v -2.17 c 0,-2.18 1.05,-3.58 3.25,-3.58 2.2,0 3.25,1.43 3.25,3.61 z m -5,-0.08 v 2.13 c 0,1.28 0.55,2.05 1.69,2.05 1.14,0 1.68,-0.77 1.68,-2.05 V 237 c 0,-1.31 -0.52,-2.06 -1.68,-2.06 -1.16,0 -1.61,0.78 -1.61,2.06 z"
       style="fill:#263238"
       id="path384" />
    <path
       d="m 326.46,236.25 a 4.16,4.16 0 0 1 -2,0.61 v -1.3 a 2.42,2.42 0 0 0 2.44,-1.89 h 1.1 v 14.23 h -1.57 z"
       style="fill:#263238"
       id="path386" />
    <path
       d="m 330.31,237.11 c 0,-2.18 1.07,-3.58 3.25,-3.58 2.18,0 3.27,1.4 3.27,3.58 v 7.33 c 0,2.18 -1.08,3.6 -3.27,3.6 -2.19,0 -3.25,-1.42 -3.25,-3.6 z m 1.56,7.44 c 0,1.28 0.55,2 1.69,2 1.14,0 1.69,-0.77 1.69,-2 V 237 c 0,-1.31 -0.53,-2.08 -1.69,-2.08 -1.16,0 -1.69,0.77 -1.69,2.08 z"
       style="fill:#263238"
       id="path388" />
    <path
       d="m 191.08,276.67 a 4.2,4.2 0 0 1 -2,0.61 V 276 a 2.42,2.42 0 0 0 2.44,-1.89 h 1.1 v 14.23 h -1.56 z"
       style="fill:#263238"
       id="path390" />
    <path
       d="m 198,276.67 a 4.2,4.2 0 0 1 -2,0.61 V 276 a 2.42,2.42 0 0 0 2.43,-1.89 h 1.1 v 14.23 H 198 Z"
       style="fill:#263238"
       id="path392" />
    <path
       d="m 224.78,276.67 a 4.16,4.16 0 0 1 -2,0.61 V 276 a 2.42,2.42 0 0 0 2.44,-1.89 h 1.1 v 14.23 h -1.57 z"
       style="fill:#263238"
       id="path394" />
    <path
       d="m 235.15,277.55 c 0,4.29 -4.82,5.83 -4.84,9.1 v 0.23 H 235 v 1.44 h -6.24 v -1.22 c 0,-4.59 4.82,-5.49 4.82,-9.49 0,-1.47 -0.49,-2.24 -1.67,-2.24 -1.18,0 -1.67,0.84 -1.67,2.1 v 1.26 h -1.48 v -1.16 c 0,-2.18 1,-3.62 3.19,-3.62 2.19,0 3.2,1.42 3.2,3.6 z"
       style="fill:#263238"
       id="path396" />
    <path
       d="m 259.81,276.67 a 4.16,4.16 0 0 1 -2,0.61 V 276 a 2.42,2.42 0 0 0 2.44,-1.89 h 1.1 v 14.23 h -1.57 z"
       style="fill:#263238"
       id="path398" />
    <path
       d="m 270.1,277.53 v 0.36 a 2.83,2.83 0 0 1 -1.73,2.93 2.83,2.83 0 0 1 1.73,2.95 v 1.09 c 0,2.18 -1,3.6 -3.21,3.6 -2.21,0 -3.19,-1.42 -3.19,-3.6 v -1 h 1.48 V 285 c 0,1.28 0.53,2 1.67,2 1.14,0 1.66,-0.75 1.66,-2.2 v -1.09 c 0,-1.41 -0.59,-2.08 -1.78,-2.12 h -0.86 v -1.42 h 0.94 a 1.7,1.7 0 0 0 1.7,-1.95 v -0.65 c 0,-1.47 -0.5,-2.22 -1.66,-2.22 -1.16,0 -1.67,0.8 -1.67,2.08 v 0.73 h -1.48 v -0.65 c 0,-2.18 1,-3.58 3.19,-3.58 2.19,0 3.21,1.42 3.21,3.6 z"
       style="fill:#263238"
       id="path400" />
    <path
       d="m 293,276.67 a 4.2,4.2 0 0 1 -2,0.61 V 276 a 2.42,2.42 0 0 0 2.44,-1.89 h 1.1 v 14.23 H 293 Z"
       style="fill:#263238"
       id="path402" />
    <path
       d="m 302.75,285.45 v 2.87 h -1.54 v -2.87 h -4.59 V 284 l 4.41,-9.92 h 1.72 V 284 h 1.14 v 1.44 z M 298.08,284 h 3.13 v -6.95 z"
       style="fill:#263238"
       id="path404" />
    <path
       d="m 326.48,276.67 a 4.16,4.16 0 0 1 -2,0.61 V 276 a 2.42,2.42 0 0 0 2.44,-1.89 h 1.1 v 14.23 h -1.57 z"
       style="fill:#263238"
       id="path406" />
    <path
       d="m 332,279.88 a 2.29,2.29 0 0 1 2.12,-1.17 c 1.83,0 2.64,1.34 2.64,3.37 v 2.78 c 0,2.18 -1,3.6 -3.21,3.6 -2.21,0 -3.19,-1.42 -3.19,-3.6 v -0.95 h 1.48 V 285 c 0,1.28 0.53,2 1.67,2 1.14,0 1.67,-0.77 1.67,-2 v -2.8 c 0,-1.28 -0.53,-2.05 -1.67,-2.05 a 1.54,1.54 0 0 0 -1.61,1.52 V 282 h -1.48 l 0.38,-7.91 h 5.61 v 1.42 h -4.18 z"
       style="fill:#263238"
       id="path408" />
    <path
       d="m 190.56,314.53 a 4.32,4.32 0 0 1 -2,0.61 v -1.3 A 2.43,2.43 0 0 0 191,312 h 1.1 v 14.22 h -1.56 z"
       style="fill:#263238"
       id="path410" />
    <path
       d="m 200.9,315.36 v 0.27 h -1.48 v -0.37 c 0,-1.28 -0.53,-2 -1.69,-2 -1.16,0 -1.73,0.74 -1.73,2.26 v 3.19 a 2.28,2.28 0 0 1 2.29,-1.52 c 1.83,0 2.64,1.32 2.64,3.37 v 2.16 c 0,2.17 -1.07,3.6 -3.25,3.6 -2.18,0 -3.27,-1.43 -3.27,-3.6 v -7.26 c 0,-2.25 1,-3.66 3.27,-3.66 2.27,0 3.22,1.39 3.22,3.56 z m -4.9,5.33 v 2.13 c 0,1.28 0.52,2.05 1.68,2.05 1.16,0 1.69,-0.77 1.69,-2.05 v -2.13 c 0,-1.28 -0.55,-2.06 -1.69,-2.06 -1.14,0 -1.68,0.78 -1.68,2.06 z"
       style="fill:#263238"
       id="path412" />
    <path
       d="m 224.78,314.53 a 4.28,4.28 0 0 1 -2,0.61 v -1.3 a 2.43,2.43 0 0 0 2.44,-1.89 h 1.1 v 14.22 h -1.57 z"
       style="fill:#263238"
       id="path414" />
    <path
       d="m 233.48,313.37 h -4.83 V 312 h 6.44 v 1.38 l -3.66,12.84 h -1.58 z"
       style="fill:#263238"
       id="path416" />
    <path
       d="m 259.76,314.53 a 4.28,4.28 0 0 1 -2,0.61 v -1.3 a 2.43,2.43 0 0 0 2.44,-1.89 h 1.1 v 14.22 h -1.57 z"
       style="fill:#263238"
       id="path418" />
    <path
       d="m 270.25,315.32 v 0.45 a 2.82,2.82 0 0 1 -1.62,2.93 c 1.17,0.46 1.62,1.58 1.62,3 v 1.06 c 0,2.2 -1.14,3.56 -3.35,3.56 -2.21,0 -3.36,-1.36 -3.36,-3.56 v -1.06 c 0,-1.44 0.45,-2.52 1.65,-3 a 2.79,2.79 0 0 1 -1.65,-2.93 v -0.45 c 0,-2.19 1.16,-3.52 3.36,-3.52 2.2,0 3.35,1.33 3.35,3.52 z m -5.14,0 v 0.69 c 0,1.38 0.67,2 1.79,2 1.12,0 1.79,-0.61 1.79,-2 v -0.69 c 0,-1.46 -0.67,-2.13 -1.79,-2.13 -1.12,0 -1.79,0.71 -1.79,2.17 z m 0,6.16 v 1.2 c 0,1.46 0.65,2.15 1.79,2.15 1.14,0 1.77,-0.69 1.79,-2.15 v -1.2 c 0,-1.38 -0.61,-2 -1.79,-2 -1.18,0 -1.79,0.66 -1.79,2.04 z"
       style="fill:#263238"
       id="path420" />
    <path
       d="m 293.13,314.53 a 4.32,4.32 0 0 1 -2,0.61 v -1.3 A 2.45,2.45 0 0 0 293.6,312 h 1.09 v 14.22 h -1.56 z"
       style="fill:#263238"
       id="path422" />
    <path
       d="m 303.48,315.38 v 7.26 c 0,2.25 -1,3.68 -3.3,3.68 -2.3,0 -3.21,-1.41 -3.21,-3.58 v -0.27 h 1.49 v 0.37 c 0,1.28 0.54,2 1.68,2 1.14,0 1.75,-0.77 1.75,-2.27 v -3.19 a 2.28,2.28 0 0 1 -2.3,1.5 c -1.83,0 -2.64,-1.3 -2.64,-3.35 v -2.18 c 0,-2.17 1.06,-3.58 3.25,-3.58 2.19,0 3.28,1.44 3.28,3.61 z m -5,-0.08 v 2.13 c 0,1.28 0.54,2.06 1.68,2.06 1.14,0 1.69,-0.78 1.69,-2.06 v -2.13 c 0,-1.3 -0.53,-2.05 -1.69,-2.05 -1.16,0 -1.64,0.75 -1.64,2.05 z"
       style="fill:#263238"
       id="path424" />
    <path
       d="m 329.46,315.4 c 0,4.29 -4.82,5.84 -4.84,9.11 v 0.22 h 4.68 v 1.44 h -6.24 V 325 c 0,-4.6 4.82,-5.49 4.82,-9.5 0,-1.46 -0.49,-2.23 -1.67,-2.23 -1.18,0 -1.67,0.83 -1.67,2.09 v 1.26 h -1.48 v -1.16 c 0,-2.17 1,-3.62 3.19,-3.62 2.19,0 3.21,1.39 3.21,3.56 z"
       style="fill:#263238"
       id="path426" />
    <path
       d="m 330.8,315.38 c 0,-2.17 1.08,-3.58 3.26,-3.58 2.18,0 3.27,1.41 3.27,3.58 v 7.34 c 0,2.17 -1.08,3.6 -3.27,3.6 -2.19,0 -3.26,-1.43 -3.26,-3.6 z m 1.57,7.44 c 0,1.28 0.55,2.05 1.69,2.05 1.14,0 1.68,-0.77 1.68,-2.05 v -7.52 c 0,-1.3 -0.53,-2.07 -1.68,-2.07 -1.15,0 -1.69,0.77 -1.69,2.07 z"
       style="fill:#263238"
       id="path428" />
    <path
       d="m 194.07,355.52 c 0,4.29 -4.81,5.83 -4.83,9.1 v 0.23 h 4.67 v 1.44 h -6.24 v -1.22 c 0,-4.59 4.82,-5.49 4.82,-9.49 0,-1.46 -0.49,-2.24 -1.67,-2.24 -1.18,0 -1.66,0.84 -1.66,2.1 v 1.26 h -1.49 v -1.16 c 0,-2.18 1,-3.62 3.19,-3.62 2.19,0 3.21,1.42 3.21,3.6 z"
       style="fill:#263238"
       id="path430" />
    <path
       d="m 198.45,354.64 a 4.2,4.2 0 0 1 -2,0.61 V 354 a 2.42,2.42 0 0 0 2.44,-1.89 H 200 v 14.23 h -1.56 z"
       style="fill:#263238"
       id="path432" />
    <path
       d="m 227.78,355.52 c 0,4.29 -4.82,5.83 -4.84,9.1 v 0.23 h 4.68 v 1.44 h -6.24 v -1.22 c 0,-4.59 4.82,-5.49 4.82,-9.49 0,-1.46 -0.49,-2.24 -1.67,-2.24 -1.18,0 -1.67,0.84 -1.67,2.1 v 1.26 h -1.48 v -1.16 c 0,-2.18 1,-3.62 3.19,-3.62 2.19,0 3.21,1.42 3.21,3.6 z"
       style="fill:#263238"
       id="path434" />
    <path
       d="m 235.65,355.52 c 0,4.29 -4.82,5.83 -4.84,9.1 v 0.23 h 4.68 v 1.44 h -6.24 v -1.22 c 0,-4.59 4.81,-5.49 4.81,-9.49 0,-1.46 -0.48,-2.24 -1.66,-2.24 -1.18,0 -1.67,0.84 -1.67,2.1 v 1.26 h -1.48 v -1.16 c 0,-2.18 1,-3.62 3.19,-3.62 2.19,0 3.21,1.42 3.21,3.6 z"
       style="fill:#263238"
       id="path436" />
    <path
       d="m 262.81,355.52 c 0,4.29 -4.81,5.83 -4.84,9.1 v 0.23 h 4.68 v 1.44 h -6.24 v -1.22 c 0,-4.59 4.82,-5.49 4.82,-9.49 0,-1.46 -0.49,-2.24 -1.67,-2.24 -1.18,0 -1.67,0.84 -1.67,2.1 v 1.26 h -1.48 v -1.16 c 0,-2.18 1,-3.62 3.19,-3.62 2.19,0 3.21,1.42 3.21,3.6 z"
       style="fill:#263238"
       id="path438" />
    <path
       d="m 270.6,355.5 v 0.36 a 2.83,2.83 0 0 1 -1.73,2.93 2.83,2.83 0 0 1 1.73,2.95 v 1.09 c 0,2.18 -1,3.6 -3.21,3.6 -2.21,0 -3.19,-1.42 -3.19,-3.6 v -1 h 1.48 v 1.08 c 0,1.28 0.53,2.05 1.67,2.05 1.14,0 1.66,-0.75 1.66,-2.2 v -1.06 c 0,-1.41 -0.59,-2.08 -1.79,-2.12 h -0.85 v -1.42 h 0.94 a 1.7,1.7 0 0 0 1.7,-2 v -0.65 c 0,-1.47 -0.51,-2.22 -1.66,-2.22 -1.15,0 -1.67,0.8 -1.67,2.08 v 0.73 h -1.48 v -0.65 c 0,-2.18 1,-3.58 3.19,-3.58 2.19,0 3.21,1.45 3.21,3.63 z"
       style="fill:#263238"
       id="path440" />
    <path
       d="m 296,355.52 c 0,4.29 -4.81,5.83 -4.83,9.1 v 0.23 h 4.67 v 1.44 h -6.24 v -1.22 c 0,-4.59 4.82,-5.49 4.82,-9.49 0,-1.46 -0.49,-2.24 -1.67,-2.24 -1.18,0 -1.66,0.84 -1.66,2.1 v 1.26 h -1.49 v -1.16 c 0,-2.18 1,-3.62 3.19,-3.62 2.19,0 3.21,1.42 3.21,3.6 z"
       style="fill:#263238"
       id="path442" />
    <path
       d="m 303.25,363.42 v 2.87 h -1.54 v -2.87 h -4.6 V 362 l 4.41,-9.92 h 1.73 V 362 h 1.14 v 1.44 z M 298.58,362 h 3.13 v -7 z"
       style="fill:#263238"
       id="path444" />
    <path
       d="m 329.48,355.52 c 0,4.29 -4.81,5.83 -4.84,9.1 v 0.23 h 4.68 v 1.44 h -6.24 v -1.22 c 0,-4.59 4.82,-5.49 4.82,-9.49 0,-1.46 -0.49,-2.24 -1.67,-2.24 -1.18,0 -1.67,0.84 -1.67,2.1 v 1.26 h -1.48 v -1.16 c 0,-2.18 1,-3.62 3.19,-3.62 2.19,0 3.21,1.42 3.21,3.6 z"
       style="fill:#263238"
       id="path446" />
    <path
       d="m 332.53,357.86 a 2.28,2.28 0 0 1 2.12,-1.18 c 1.83,0 2.64,1.34 2.64,3.37 v 2.78 c 0,2.18 -1,3.6 -3.21,3.6 -2.21,0 -3.19,-1.42 -3.19,-3.6 v -0.95 h 1.48 v 1.06 c 0,1.28 0.53,2.05 1.67,2.05 1.14,0 1.66,-0.77 1.66,-2.05 v -2.77 c 0,-1.28 -0.53,-2.05 -1.66,-2.05 a 1.53,1.53 0 0 0 -1.61,1.52 V 360 H 331 l 0.38,-7.91 h 5.61 v 1.43 h -4.18 z"
       style="fill:#263238"
       id="path448" />
    <path
       d="m 212.41,120.19 h -1.52 l -2.36,-11.32 v 11.34 h -1.38 V 106 h 2.21 L 211.7,117.36 214,106 h 2.21 v 14.23 h -1.5 v -11.46 z"
       style="fill:#263238"
       id="path450" />
    <path
       d="m 222.86,112.28 v 1.42 h -3.48 v 5.07 h 4.27 v 1.44 H 217.8 V 106 h 5.85 v 1.44 h -4.27 v 4.86 z"
       style="fill:#263238"
       id="path452" />
    <path
       d="m 228.29,106 c 2.23,0 3.17,1.14 3.17,3.25 v 1.16 c 0,1.57 -0.55,2.54 -1.77,2.93 1.3,0.38 1.79,1.44 1.79,3 v 2.21 a 3.63,3.63 0 0 0 0.28,1.71 h -1.6 a 3.76,3.76 0 0 1 -0.27,-1.73 v -2.24 c 0,-1.6 -0.75,-2.11 -2.07,-2.11 h -1.12 v 6.08 h -1.58 V 106 Z m -0.41,6.71 c 1.26,0 2,-0.41 2,-2 v -1.36 c 0,-1.29 -0.46,-2 -1.64,-2 h -1.54 v 5.27 z"
       style="fill:#263238"
       id="path454" />
    <path
       d="m 236.3,106 c 2.23,0 3.17,1.14 3.17,3.25 v 1.16 c 0,1.57 -0.55,2.54 -1.77,2.93 1.3,0.38 1.79,1.44 1.79,3 v 2.21 a 3.63,3.63 0 0 0 0.28,1.71 h -1.6 a 3.76,3.76 0 0 1 -0.27,-1.73 v -2.24 c 0,-1.6 -0.75,-2.11 -2.07,-2.11 h -1.12 v 6.08 h -1.58 V 106 Z m -0.41,6.71 c 1.26,0 2,-0.41 2,-2 v -1.36 c 0,-1.29 -0.46,-2 -1.64,-2 h -1.55 v 5.27 z"
       style="fill:#263238"
       id="path456" />
    <path
       d="m 243.45,115.11 -3,-9.13 h 1.64 l 2.22,7 2.23,-7 h 1.51 l -3,9.13 v 5.1 h -1.57 z"
       style="fill:#263238"
       id="path458" />
    <path
       d="m 258.62,109.42 v 1.28 h -1.51 v -1.37 c 0,-1.28 -0.5,-2 -1.66,-2 -1.16,0 -1.67,0.77 -1.67,2 v 7.52 c 0,1.28 0.53,2.06 1.67,2.06 1.14,0 1.66,-0.78 1.66,-2.06 V 115 h 1.51 v 1.77 c 0,2.16 -1,3.58 -3.21,3.58 -2.21,0 -3.19,-1.42 -3.19,-3.58 v -7.35 c 0,-2.16 1,-3.58 3.19,-3.58 2.19,0 3.21,1.42 3.21,3.58 z"
       style="fill:#263238"
       id="path460" />
    <path
       d="m 261.65,113.81 v 6.4 h -1.59 V 106 h 1.59 v 6.4 h 3.5 V 106 h 1.58 v 14.23 h -1.58 v -6.4 z"
       style="fill:#263238"
       id="path462" />
    <path
       d="m 271.53,106 c 2.23,0 3.17,1.14 3.17,3.25 v 1.16 c 0,1.57 -0.55,2.54 -1.77,2.93 1.3,0.38 1.79,1.44 1.79,3 v 2.21 a 3.63,3.63 0 0 0 0.28,1.71 h -1.6 a 3.76,3.76 0 0 1 -0.27,-1.73 v -2.24 c 0,-1.6 -0.75,-2.11 -2.07,-2.11 h -1.12 v 6.08 h -1.58 V 106 Z m -0.41,6.71 c 1.26,0 2,-0.41 2,-2 v -1.36 c 0,-1.29 -0.46,-2 -1.64,-2 h -1.55 v 5.27 z"
       style="fill:#263238"
       id="path464" />
    <path
       d="m 278,106 v 14.23 h -1.58 V 106 Z"
       style="fill:#263238"
       id="path466" />
    <path
       d="m 285.74,109.4 v 0.38 h -1.51 v -0.47 c 0,-1.28 -0.48,-2 -1.62,-2 -1.14,0 -1.63,0.75 -1.63,2 0,3.19 4.78,3.5 4.78,7.5 0,2.16 -1,3.56 -3.21,3.56 -2.21,0 -3.19,-1.4 -3.19,-3.56 V 116 h 1.48 v 0.9 c 0,1.28 0.53,2 1.67,2 1.14,0 1.66,-0.75 1.66,-2 0,-3.18 -4.75,-3.48 -4.75,-7.48 0,-2.2 1,-3.56 3.15,-3.56 2.15,0 3.17,1.38 3.17,3.54 z"
       style="fill:#263238"
       id="path468" />
    <path
       d="m 289.22,120.21 v -12.79 h -2.63 V 106 h 6.83 v 1.44 h -2.62 v 12.79 z"
       style="fill:#263238"
       id="path470" />
    <path
       d="m 299.77,120.19 h -1.53 l -2.36,-11.32 v 11.34 H 294.5 V 106 h 2.22 l 2.33,11.36 2.26,-11.36 h 2.22 v 14.23 H 302 v -11.46 z"
       style="fill:#263238"
       id="path472" />
    <path
       d="m 306.76,117.34 -0.55,2.87 h -1.46 L 307.47,106 h 2.3 l 2.72,14.23 h -1.58 l -0.55,-2.87 z M 307,116 h 3.17 l -1.6,-8.21 z"
       style="fill:#263238"
       id="path474" />
    <path
       d="m 319.89,109.4 v 0.38 h -1.5 v -0.47 c 0,-1.28 -0.49,-2 -1.63,-2 -1.14,0 -1.62,0.75 -1.62,2 0,3.19 4.77,3.5 4.77,7.5 0,2.16 -1,3.56 -3.21,3.56 -2.21,0 -3.19,-1.4 -3.19,-3.56 V 116 H 315 v 0.9 c 0,1.28 0.53,2 1.67,2 1.14,0 1.67,-0.75 1.67,-2 0,-3.18 -4.76,-3.48 -4.76,-7.48 0,-2.2 1,-3.56 3.15,-3.56 2.15,0 3.16,1.38 3.16,3.54 z"
       style="fill:#263238"
       id="path476" />
  </g>
  <g
     id="freepik--Character--inject-212"
     transform="translate(-10.352477,-25.345824)">
    <path
       d="m 436.42,259.5 c 0,0 8.27,4.9 11.33,19.89 3.06,14.99 7,42.84 6.12,51.11 -0.88,8.27 -13.47,26 -15.61,27.54 -2.14,1.54 -3.06,-31.83 -3.37,-33.66 -0.31,-1.83 -4,-64.88 -4,-64.88 0,0 3.7,-3.06 5.53,0 z"
       style="fill:#263238;stroke:#263238;stroke-linecap:round;stroke-linejoin:round"
       id="path479" />
    <path
       d="m 434.89,455.65 c 0,0 2.76,12.24 0.31,14.38 -2.45,2.14 -10.1,3.37 -15.91,2.76 -5.81,-0.61 -12.55,-4.9 -13.47,-5.2 -0.92,-0.3 -1.22,-12.86 -1.22,-12.86 0,0 17.75,4.9 30.29,0.92 z"
       style="fill:#ffffff;stroke:#263238;stroke-linecap:round;stroke-linejoin:round"
       id="path481" />
    <path
       d="m 405.26,465.59 c 0.16,1.14 0.34,1.92 0.56,2 0.92,0.3 7.65,4.59 13.47,5.2 5.82,0.61 13.46,-0.61 15.91,-2.76 0.82,-0.71 1.05,-2.56 1,-4.7 a 31.83,31.83 0 0 1 -10.8,3.17 c -7.09,0.92 -16.06,-1.59 -20.14,-2.91 z"
       style="fill:#ffffff;stroke:#263238;stroke-linecap:round;stroke-linejoin:round"
       id="path483" />
    <path
       d="m 382,457.18 c 0,0 -11.93,7.35 -18.66,8.88 -6.73,1.53 -5.51,5.5 0,7.95 5.51,2.45 13.16,3.67 22.64,3.67 9.48,0 21.12,-2.44 26,-3.06 4.88,-0.62 2.14,-6.73 1.53,-10.71 -0.61,-3.98 -0.92,-7 -0.92,-7 0,0 -21.46,3.64 -30.59,0.27 z"
       style="fill:#ffffff;stroke:#263238;stroke-linecap:round;stroke-linejoin:round"
       id="path485" />
    <path
       d="m 385.93,477.68 c 9.49,0 21.12,-2.44 26,-3.06 2.4,-0.29 3,-1.91 2.84,-3.95 -9.58,1.52 -25.79,3.78 -37.11,2.73 -11,-1 -16.29,-3.52 -18.61,-5.09 -1.16,1.81 0.59,4.09 4.23,5.7 5.52,2.45 13.17,3.67 22.65,3.67 z"
       style="fill:#ffffff;stroke:#263238;stroke-linecap:round;stroke-linejoin:round"
       id="path487" />
    <path
       d="m 374.92,337.84 c 0,0 -0.62,31.21 -0.62,49 0,17.79 8,53.86 8,56.61 0,2.75 -2.45,3.67 -2.45,7 a 50,50 0 0 0 0.61,7 c 0,0 4,4.28 13.77,4.89 a 53.94,53.94 0 0 0 18.67,-2.44 c 0,0 9.49,1.83 15.61,1.53 a 11.22,11.22 0 0 0 8.87,-5.21 c 0,0 -3.06,-41 -3.06,-45.28 V 400 c 0,0 6.43,-44.68 6.43,-51.41 v -9.49 c 0,0 -22.65,5.51 -39.78,3.37 -17.13,-2.14 -25.4,-6.73 -25.4,-6.73 z"
       style="fill:#439a86;stroke:#263238;stroke-linecap:round;stroke-linejoin:round"
       id="path489" />
    <path
       d="m 419.9,365.69 -10.1,3.67 c 0,0 -1.53,37.94 -1.84,43.15 -0.31,5.21 5.21,35.49 4.9,47.43"
       style="fill:none;stroke:#263238;stroke-linecap:round;stroke-linejoin:round"
       id="path491" />
    <path
       d="m 370.33,329.58 c 0,0 -0.31,6.73 1.53,9.79 1.84,3.06 17.13,8 37.33,9.18 20.2,1.18 29.38,-3.37 31.82,-5.81 2.44,-2.44 0.62,-8.27 0.62,-8.27 0,0 -3.06,4.59 -29.38,1.23 -26.32,-3.36 -41.31,-8 -41.31,-8 z"
       style="fill:#ffffff;stroke:#263238;stroke-linecap:round;stroke-linejoin:round"
       id="path493" />
    <path
       d="m 441.14,278.92 c 0,0 4.06,54.68 1.08,57.66 -2.98,2.98 -12.72,5.68 -39,3.79 -26.28,-1.89 -33.29,-8.93 -34.92,-12.45 -1.63,-3.52 8.39,-48.73 12.45,-59 a 46.35,46.35 0 0 1 12.46,-17.05 c 0,0 6.76,-2.71 19.49,-2.44 12.73,0.27 15.7,2.71 20.84,7.31 a 23.83,23.83 0 0 1 7.85,13.53"
       style="fill:#263238;stroke:#263238;stroke-linecap:round;stroke-linejoin:round"
       id="path495" />
    <path
       d="m 442.74,279.83 c -0.1,-1.89 -0.22,-3.75 -0.35,-5.55"
       style="fill:none;stroke:#707070;stroke-miterlimit:10"
       id="path497" />
    <path
       d="m 443,323.36 c 0.25,-9.27 0.49,-24.12 0,-38"
       style="fill:none;stroke:#707070;stroke-miterlimit:10"
       id="path499" />
    <path
       d="m 442.69,332.57 c 0,0 0.09,-1.95 0.2,-5.23"
       style="fill:none;stroke:#707070;stroke-miterlimit:10"
       id="path501" />
    <path
       d="m 395.12,194.2 c 0,0 -4.06,5.41 -3.79,9.2 a 13.39,13.39 0 0 1 -2.16,8.39 c -1.36,2.44 -6.5,2.17 -5.15,5.69 1.35,3.52 3,4.06 3,4.06 0,0 1.08,9.74 2.71,14.62 1.63,4.88 3,6.22 5.68,6.22 a 65.05,65.05 0 0 0 6.77,-0.54 l -0.27,6.5 23.82,0.27 1.89,-10.29 c 0,0 7.58,-25.44 1.09,-37.08 C 422.22,189.6 403,188 395.12,194.2 Z"
       style="fill:#ffffff;stroke:#263238;stroke-linecap:round;stroke-linejoin:round"
       id="path503" />
    <path
       d="m 395.12,210.85 c 0,1.12 -0.48,2 -1.08,2 -0.6,0 -1.08,-0.91 -1.08,-2 0,-1.09 0.48,-2 1.08,-2 0.6,0 1.08,0.88 1.08,2 z"
       style="fill:#263238"
       id="path505" />
    <path
       d="m 388.9,227 c 0,0 2.7,2.17 5.68,-0.81"
       style="fill:none;stroke:#263238;stroke-linecap:round;stroke-linejoin:round"
       id="path507" />
    <path
       d="m 393.5,205 c 0,0 2.7,-2.17 3.52,2.16"
       style="fill:none;stroke:#263238;stroke-linecap:round;stroke-linejoin:round"
       id="path509" />
    <path
       d="m 414.07,176.33 c 0,0 3.25,-6.49 -2.71,-6.22 -5.96,0.27 -13.8,8.66 -13.8,10.56 0,1.9 -3.25,-7.31 -6.23,-1.36 -2.98,5.95 0.54,14.08 3.52,16.51 a 14.49,14.49 0 0 0 7.31,2.71 c 0,0 -2.44,-0.81 -2.17,3.79 a 5.57,5.57 0 0 0 4.06,5.41 c 0,0 -5.14,3.52 -4.06,7.58 1.08,4.06 5.42,0.54 5.42,0.54 0,0 -1.9,3.52 0.27,2.71 2.17,-0.81 4.32,-3.56 4.32,-3.56 0,0 7.58,1.09 4.6,8.93 -2.98,7.84 -7,7.85 -7,7.85 0,0 0.27,6.23 1.63,7.85 1.36,1.62 3.52,-3.24 3.52,-3.24 0,0 1.08,7.85 5.95,9.74 4.87,1.89 7.85,-6.5 7.85,-6.5 0,0 6.5,4.61 8.12,2.71 1.62,-1.9 0,-4.6 0,-4.6 0,0 2.71,0 10.29,-10.56 7.58,-10.56 7.85,-21.92 4.33,-33.83 -3.52,-11.91 -23.58,-21.35 -35.22,-17.02 z"
       style="fill:#263238;stroke:#263238;stroke-linecap:round;stroke-linejoin:round"
       id="path511" />
    <path
       d="m 431.12,250.77 c 0,0 -3.25,-5.68 -13.8,-5.68 -10.55,0 -19.22,-0.27 -22.2,3 a 16.76,16.76 0 0 0 -3.79,6.22 c 0,0 16,-4.06 26.8,-1.89 10.8,2.17 14.62,2.7 14.62,2.7 z"
       style="fill:#ffffff;stroke:#263238;stroke-linecap:round;stroke-linejoin:round"
       id="path513" />
    <path
       d="m 326.64,255.1 c 0,0 -6.23,-13 -8.66,-14.61 -2.43,-1.61 -11.64,-5.15 -12.73,-2.71 -1.09,2.44 2.44,4.33 4.06,4.87 1.62,0.54 2.71,2.71 2.71,2.71 0,0 -3.79,1.62 -5.14,3.25 -1.35,1.63 -3.79,7 -2.17,8.39 a 24.41,24.41 0 0 0 6,3.79 c 1.62,0.54 2.16,-1.36 2.16,-1.36 0,0 0.27,1.9 3,2.71 a 24,24 0 0 0 6.5,0.81 c 0.75,0.05 4.27,-7.85 4.27,-7.85 z"
       style="fill:#ffffff;stroke:#263238;stroke-linecap:round;stroke-linejoin:round"
       id="path515" />
    <path
       d="m 312.83,259.43 -2.16,-3 -1.36,0.27"
       style="fill:#ffffff;stroke:#263238;stroke-linecap:round;stroke-linejoin:round"
       id="path517" />
    <path
       d="m 333.68,256.19 c 0,0 -4.61,-3.25 -7.58,-3 -2.97,0.25 -7.31,8.12 -5.15,11.64 2.16,3.52 9.21,6.49 9.21,6.49 0,0 2.7,-8.93 5.68,-11.09 2.98,-2.16 -2.16,-4.04 -2.16,-4.04 z"
       style="fill:#ffffff;stroke:#263238;stroke-linecap:round;stroke-linejoin:round"
       id="path519" />
    <path
       d="m 413,256.73 c 0,0 -9.48,-5.42 -17.06,-4.33 -7.58,1.09 -27.88,17.86 -29,18.13 -1.12,0.27 -19,-8.39 -24.09,-10.55 -5.09,-2.16 -7.58,-5.69 -10.83,-4.06 -3.25,1.63 -7,10.82 -4.06,15.42 2.94,4.6 28.15,21.93 34.38,24.37 6.23,2.44 31.4,-3 43.31,-11.37"
       style="fill:#263238;stroke:#263238;stroke-linecap:round;stroke-linejoin:round"
       id="path521" />
  </g>
</svg>
