<?xml version="1.0" encoding="UTF-8" standalone="no"?>
<svg
   viewBox="0 0 450.04001 395.34003"
   version="1.1"
   id="svg657"
   sodipodi:docname="Knowledge-bro (4).svg"
   width="450.04001"
   height="395.34003"
   inkscape:version="1.1 (c68e22c387, 2021-05-23)"
   xmlns:inkscape="http://www.inkscape.org/namespaces/inkscape"
   xmlns:sodipodi="http://sodipodi.sourceforge.net/DTD/sodipodi-0.dtd"
   xmlns="http://www.w3.org/2000/svg"
   xmlns:svg="http://www.w3.org/2000/svg">
  <sodipodi:namedview
     id="namedview659"
     pagecolor="#ffffff"
     bordercolor="#666666"
     borderopacity="1.0"
     inkscape:pageshadow="2"
     inkscape:pageopacity="0.0"
     inkscape:pagecheckerboard="0"
     showgrid="false"
     inkscape:zoom="1.244"
     inkscape:cx="225.08039"
     inkscape:cy="196.94534"
     inkscape:window-width="1368"
     inkscape:window-height="850"
     inkscape:window-x="-6"
     inkscape:window-y="-6"
     inkscape:window-maximized="1"
     inkscape:current-layer="svg657" />
  <defs
     id="defs11">
    <clipPath
       id="freepik--clip-path--inject-11">
      <path
         d="m 171.05,232.34 -14.76,5.33 -3.29,-8.61 28.36,-8.75 c 0,0 -1.69,2.82 -6.25,9.72 -2.92,4.39 -4.06,2.31 -4.06,2.31 z"
         style="fill:#439a86;stroke:#263238;stroke-linecap:round;stroke-linejoin:round"
         id="path2" />
    </clipPath>
    <clipPath
       id="freepik--clip-path-2--inject-11">
      <path
         d="m 164.33,259.24 a 156.56,156.56 0 0 0 -11.77,15.24 c -4.85,3.25 -11.57,6 -20.83,7.41 L 131,282 v 0 c -4.84,0.64 -7.72,-20.25 -9.07,-33.49 -0.61,-6.1 -0.9,-10.57 -0.9,-10.57 0,0 -13.9,-19.58 -15.5,-38.05 a 35.56,35.56 0 0 1 -0.13,-4.83 c 0.29,-7.29 2.12,-12.31 4.29,-15.72 a 16.46,16.46 0 0 1 8,-6.86 1.5,1.5 0 0 0 -0.55,1.58 2.73,2.73 0 0 0 0.62,1.1 l 0.21,0.22 c 0.16,0.17 0.34,0.33 0.51,0.48 l 3.57,3.25 5.35,4.86 a 7.22,7.22 0 0 0 3.82,2.23 c 1.5,0.16 3.65,-2.13 3.31,-3.59 l -0.24,0.88 a 6.08,6.08 0 0 1 -1.79,-4.82 4.93,4.93 0 0 1 0.3,-1.38 20.65,20.65 0 0 1 3.48,4.31 c 4.47,7.29 12.57,17.33 17.51,23.24 a 13.54,13.54 0 0 1 2,14.33 l -0.06,0.13 c -1.79,3.75 -0.37,8.1 -0.06,8.95 l 0.06,0.15 2.8,8.49 v 0 l 4.47,13.8 0.83,2.52 a 12.5,12.5 0 0 1 0.5,6.03 z"
         style="fill:#439a86;stroke:#263238;stroke-linecap:round;stroke-linejoin:round"
         id="path5" />
    </clipPath>
    <clipPath
       id="freepik--clip-path-3--inject-11">
      <path
         d="m 171.05,232.1 c 0,0 -22.12,9.3 -31.66,9.73 0,0 -5.94,-16.45 -9.46,-45.76 -1.67,-13.88 -15.15,-9.87 -15.15,-9.87 -0.24,0.14 -13.5,5.88 -8.12,24.32 5.38,18.44 21.58,51.36 21.58,51.36 A 97.37,97.37 0 0 0 162.53,251 l 12.56,-6.76 c 0,0 -2.09,-7.24 -4.04,-12.14 z"
         style="fill:#439a86;stroke:#263238;stroke-linecap:round;stroke-linejoin:round"
         id="path8" />
    </clipPath>
  </defs>
  <g
     id="freepik--Window--inject-11"
     transform="translate(-25.28,-53.159996)">
    <polygon
       points="391.25,254.07 391.25,73.78 391.29,73.77 392.01,73.77 392.01,254.07 "
       style="fill:#ffffff;stroke:#263238;stroke-linecap:round;stroke-linejoin:round"
       id="polygon13" />
    <polygon
       points="391.25,254.07 109.61,254.07 109.61,73.77 391.29,73.77 391.25,73.78 "
       style="fill:#ffffff;stroke:#263238;stroke-linecap:round;stroke-linejoin:round"
       id="polygon15" />
    <rect
       x="391.25"
       y="73.779999"
       width="0.75999999"
       height="180.28999"
       style="fill:#ffffff;stroke:#263238;stroke-linecap:round;stroke-linejoin:round"
       id="rect17" />
    <polygon
       points="467.08,272.33 391.25,254.07 391.25,73.78 391.29,73.77 467.08,55.52 474.82,53.66 474.82,274.19 "
       style="fill:#ffffff;stroke:#263238;stroke-linecap:round;stroke-linejoin:round"
       id="polygon19" />
    <rect
       x="467.07999"
       y="53.66"
       width="7.7399998"
       height="220.52"
       style="fill:#ffffff;stroke:#263238;stroke-linecap:round;stroke-linejoin:round"
       id="rect21" />
    <polygon
       points="109.35,73.78 25.78,53.66 25.78,274.18 109.35,254.07 "
       style="fill:#ffffff;stroke:#263238;stroke-linecap:round;stroke-linejoin:round"
       id="polygon23" />
    <rect
       x="25.780001"
       y="53.66"
       width="7.7399998"
       height="220.52"
       transform="rotate(180,29.65,163.92)"
       style="fill:#ffffff;stroke:#263238;stroke-linecap:round;stroke-linejoin:round"
       id="rect25" />
    <polygon
       points="118.78,82.46 383.45,83.43 383.45,244.03 118.78,243.05 "
       style="fill:#5c5c5c;stroke:#263238;stroke-linecap:round;stroke-linejoin:round"
       id="polygon27" />
    <path
       d="m 306.69,242.89 h 76.84 a 91.08,91.08 0 0 0 -173.83,-6.12 18.75,18.75 0 0 0 -1.06,6.12 z"
       style="fill:#439a86;stroke:#263238;stroke-linecap:round;stroke-linejoin:round"
       id="path29" />
    <path
       d="M 283.48,182.36 272,189.24 v 11 c 0,0 8.71,-1.18 11.49,-5.94 0,0 -2.38,-1 4.35,-5 6.73,-4 5.16,-8.95 -4.36,-6.94 z"
       style="fill:#ffffff"
       id="path31" />
    <path
       d="m 265.26,182.36 h 1.59 l -11.28,6.76 -1.79,1.93 -11.08,6.38 -2.18,2.77 -1.78,6.14 -5.94,4.75 2.77,2 -6.33,7.91 h -2.18 l -0.79,-3.17 4.75,-9.9 -6.58,3.69 c 0,0 14.1,-21.97 40.82,-29.26 z"
       style="fill:#ffffff"
       id="path33" />
    <path
       d="m 209.41,242.14 h 16 l 0.57,-7.25 c 0,0 -1,-1.39 -0.84,-2 0.16,-0.61 2,-10.29 2,-10.29 l -3.06,-8.31 -2.85,3.75 h -1.73 a 86.1,86.1 0 0 0 -10.09,24.1 z"
       style="fill:#ffffff"
       id="path35" />
    <polygon
       points="265.26,193.47 263.29,194.66 261.5,194.66 261.5,192.85 263.29,191.05 265.26,191.05 "
       style="fill:#ffffff"
       id="polygon37" />
    <polygon
       points="247.45,201.67 244.48,204.56 243.29,202.78 241.12,204.56 241.12,202.58 242.7,200.2 251.21,195.85 248.24,199.01 "
       style="fill:#ffffff"
       id="polygon39" />
    <path
       d="m 306.83,242.56 h 13.54 c 3.63,0 25.69,-0.19 25.69,-0.19 1.89,-6.75 2.79,-14.7 0.56,-21.38 -2.89,-8.69 -8.27,-16.71 -10,-22 v 0 l -0.06,-0.17 c -0.05,-0.16 -0.09,-0.3 -0.12,-0.44 a 3.2,3.2 0 0 1 2.44,-3.74 c 1.38,-0.39 4,1.19 4,1.19 h 5.05 l -5.25,-3 -2.17,-2.3 -1.39,-1.23 -5.12,-2.16 0.2,-1.58 a 28.56,28.56 0 0 0 -9.7,-3.67 l 3.76,2.87 h -4 l -0.79,4.48 h -7.92 c 0,0 2,-0.52 -2.77,-3.14 -4.77,-2.62 -20.19,-3.74 -20.19,-3.74 l 4.75,6.88 -10.34,5.82 1.19,4.35 7.08,-2 v -2.37 l 4.4,-2.67 0.4,4.65 1.57,2 2,-1.58 5.58,5.55 -9.93,9.67 -1.59,-12.44 -14.26,3.16 -11.44,13.45 c 0,0 13.85,5.15 19,8.32 5.15,3.17 4.31,9.93 4.31,9.93 l 8.36,4.71 -1.47,2.77 z"
       style="fill:#ffffff"
       id="path41" />
    <polygon
       points="102.15,78.4 40.8,66.08 41.56,255.44 102.82,245.79 "
       style="fill:#ffffff;stroke:#263238;stroke-linecap:round;stroke-linejoin:round"
       id="polygon43" />
    <line
       x1="66.879997"
       y1="85.660004"
       x2="80.760002"
       y2="122.96"
       style="fill:#ffffff;stroke:#263238;stroke-linecap:round;stroke-linejoin:round"
       id="line45" />
    <line
       x1="64.699997"
       y1="79.790001"
       x2="66.139999"
       y2="83.669998"
       style="fill:#ffffff;stroke:#263238;stroke-linecap:round;stroke-linejoin:round"
       id="line47" />
    <line
       x1="61.389999"
       y1="70.900002"
       x2="64.050003"
       y2="78.040001"
       style="fill:#ffffff;stroke:#263238;stroke-linecap:round;stroke-linejoin:round"
       id="line49" />
    <line
       x1="60.5"
       y1="91.550003"
       x2="78.660004"
       y2="140.89999"
       style="fill:#ffffff;stroke:#263238;stroke-linecap:round;stroke-linejoin:round"
       id="line51" />
    <line
       x1="53.889999"
       y1="73.610001"
       x2="59.57"
       y2="89.040001"
       style="fill:#ffffff;stroke:#263238;stroke-linecap:round;stroke-linejoin:round"
       id="line53" />
    <line
       x1="66.830002"
       y1="188.23"
       x2="80.900002"
       y2="227.88"
       style="fill:#ffffff;stroke:#263238;stroke-linecap:round;stroke-linejoin:round"
       id="line55" />
    <polygon
       points="397.92,78.4 459.26,66.08 458.5,255.44 397.24,245.79 "
       style="fill:#ffffff;stroke:#263238;stroke-linecap:round;stroke-linejoin:round"
       id="polygon57" />
    <line
       x1="432.82999"
       y1="88.449997"
       x2="446.70999"
       y2="125.74"
       style="fill:#ffffff;stroke:#263238;stroke-linecap:round;stroke-linejoin:round"
       id="line59" />
    <line
       x1="430.64001"
       y1="82.57"
       x2="432.09"
       y2="86.459999"
       style="fill:#ffffff;stroke:#263238;stroke-linecap:round;stroke-linejoin:round"
       id="line61" />
    <line
       x1="426.44"
       y1="94.339996"
       x2="444.60999"
       y2="143.69"
       style="fill:#ffffff;stroke:#263238;stroke-linecap:round;stroke-linejoin:round"
       id="line63" />
    <line
       x1="419.84"
       y1="76.400002"
       x2="425.51999"
       y2="91.82"
       style="fill:#ffffff;stroke:#263238;stroke-linecap:round;stroke-linejoin:round"
       id="line65" />
    <line
       x1="432.76999"
       y1="191.02"
       x2="446.84"
       y2="230.66"
       style="fill:#ffffff;stroke:#263238;stroke-linecap:round;stroke-linejoin:round"
       id="line67" />
  </g>
  <g
     id="freepik--Shelf--inject-11"
     transform="translate(-25.28,-53.159996)">
    <path
       d="M 394.33,314.74 V 435 a 12.81,12.81 0 0 1 -12.81,12.81 H 355 a 19.67,19.67 0 0 0 17.05,-19.49 V 321.6 A 19.69,19.69 0 0 0 354.5,302 v -0.11 h 27 a 12.82,12.82 0 0 1 12.83,12.85 z"
       style="fill:#263238;stroke:#263238;stroke-linecap:round;stroke-linejoin:round"
       id="path70" />
    <path
       d="m 354.5,302 a 20.94,20.94 0 0 0 -2.1,-0.11 H 66.32 A 19.67,19.67 0 0 0 46.65,321.6 V 428.33 A 19.67,19.67 0 0 0 66.32,448 H 352.4 a 18.9,18.9 0 0 0 2.62,-0.18 19.67,19.67 0 0 0 17.05,-19.49 V 321.6 A 19.69,19.69 0 0 0 354.5,302 Z M 153.74,317.6 H 346 a 14.41,14.41 0 0 1 14.45,14.4 v 40.09 H 153.74 Z M 128.61,433.77 H 89.28 l -0.51,-0.17 c -4.63,-1.67 -8,-7.25 -8,-13.88 v -87.54 c 0,-8 4.92,-14.41 11,-14.41 h 36.89 z M 346,434 153.71,433.64 v -54.17 h 206.74 v 40.07 A 14.41,14.41 0 0 1 346,434 Z"
       style="fill:#ffffff;stroke:#263238;stroke-linecap:round;stroke-linejoin:round"
       id="path72" />
    <line
       x1="225.36"
       y1="440.37"
       x2="185.17"
       y2="440.37"
       style="fill:none;stroke:#263238;stroke-linecap:round;stroke-linejoin:round"
       id="line74" />
    <line
       x1="241.63"
       y1="440.37"
       x2="233.52"
       y2="440.37"
       style="fill:none;stroke:#263238;stroke-linecap:round;stroke-linejoin:round"
       id="line76" />
    <path
       d="m 80.73,332.18 v 87.54 c 0,6.63 3.41,12.21 8,13.88 H 70.59 A 12.38,12.38 0 0 1 58.2,421.22 V 330 a 12.39,12.39 0 0 1 12.39,-12.4 h 35.81 a 12.6,12.6 0 0 1 2,0.17 H 91.72 c -6.07,0 -10.99,6.45 -10.99,14.41 z"
       style="fill:#263238;stroke:#263238;stroke-linecap:round;stroke-linejoin:round"
       id="path78" />
    <rect
       x="135.42999"
       y="317.60001"
       width="18.309999"
       height="116"
       style="fill:#263238;stroke:#263238;stroke-linecap:round;stroke-linejoin:round"
       id="rect80" />
    <polygon
       points="360.45,379.47 135.15,379.47 135.15,372.18 360.45,372.09 "
       style="fill:#ffffff;stroke:#263238;stroke-linecap:round;stroke-linejoin:round"
       id="polygon82" />
    <rect
       x="128.61"
       y="317.60001"
       width="6.8200002"
       height="116"
       style="fill:#ffffff;stroke:#263238;stroke-linecap:round;stroke-linejoin:round"
       id="rect84" />
    <rect
       x="219.87"
       y="327.87"
       width="12.24"
       height="44.310001"
       style="fill:none;stroke:#263238;stroke-linecap:round;stroke-linejoin:round"
       id="rect86" />
    <rect
       x="209.21001"
       y="327.87"
       width="10.66"
       height="44.310001"
       style="fill:none;stroke:#263238;stroke-linecap:round;stroke-linejoin:round"
       id="rect88" />
    <polygon
       points="272.4,327.87 272.4,321.04 241.15,321.04 241.15,372.18 244.33,372.18 244.33,327.87 250.35,327.87 261.49,327.87 "
       style="fill:none;stroke:#263238;stroke-linecap:round;stroke-linejoin:round"
       id="polygon90" />
    <polygon
       points="232.11,321.04 232.11,327.87 232.11,372.18 241.14,372.18 241.15,372.18 241.15,321.04 241.14,321.04 "
       style="fill:none;stroke:#263238;stroke-linecap:round;stroke-linejoin:round"
       id="polygon92" />
    <polygon
       points="276.71,327.87 272.4,327.87 261.49,327.87 250.35,327.87 250.35,372.18 261.49,372.18 263.07,372.18 263.07,335.37 271.93,335.37 276.71,335.37 "
       style="fill:none;stroke:#263238;stroke-linecap:round;stroke-linejoin:round"
       id="polygon94" />
    <rect
       x="244.33"
       y="327.87"
       width="6.02"
       height="44.310001"
       style="fill:none;stroke:#263238;stroke-linecap:round;stroke-linejoin:round"
       id="rect96" />
    <polygon
       points="271.93,335.37 271.93,372.18 272.4,372.18 276.71,372.18 282.1,372.18 282.1,335.37 276.71,335.37 "
       style="fill:none;stroke:#263238;stroke-linecap:round;stroke-linejoin:round"
       id="polygon98" />
    <rect
       x="263.07001"
       y="335.37"
       width="8.8500004"
       height="36.810001"
       style="fill:none;stroke:#263238;stroke-linecap:round;stroke-linejoin:round"
       id="rect100" />
    <polygon
       points="292.24,335.37 297.24,335.37 297.24,372.18 297.25,372.18 297.25,335.37 306.5,335.37 315.57,335.37 315.57,329.69 289.61,329.69 289.61,372.18 292.24,372.18 "
       style="fill:none;stroke:#263238;stroke-linecap:round;stroke-linejoin:round"
       id="polygon102" />
    <polygon
       points="289.61,329.69 289.59,329.69 282.1,329.69 282.1,335.37 282.1,372.18 289.59,372.18 289.61,372.18 "
       style="fill:none;stroke:#263238;stroke-linecap:round;stroke-linejoin:round"
       id="polygon104" />
    <polygon
       points="306.5,372.18 315.57,372.18 322.48,372.18 322.48,335.37 315.57,335.37 306.5,335.37 297.25,335.37 297.25,372.18 "
       style="fill:none;stroke:#263238;stroke-linecap:round;stroke-linejoin:round"
       id="polygon106" />
    <rect
       x="292.23999"
       y="335.37"
       width="5"
       height="36.810001"
       style="fill:none;stroke:#263238;stroke-linecap:round;stroke-linejoin:round"
       id="rect108" />
    <rect
       x="163.75999"
       y="389.29999"
       width="2.8900001"
       height="44.310001"
       style="fill:none;stroke:#263238;stroke-linecap:round;stroke-linejoin:round"
       id="rect110" />
    <rect
       x="153.10001"
       y="389.29999"
       width="10.66"
       height="44.310001"
       style="fill:none;stroke:#263238;stroke-linecap:round;stroke-linejoin:round"
       id="rect112" />
    <polygon
       points="197.92,382.47 185.04,382.47 185.04,433.61 188.22,433.61 188.22,389.3 194.24,389.3 197.92,389.3 "
       style="fill:none;stroke:#263238;stroke-linecap:round;stroke-linejoin:round"
       id="polygon114" />
    <polygon
       points="166.66,389.3 166.66,433.61 176.01,433.61 176.01,382.47 166.66,382.47 "
       style="fill:none;stroke:#263238;stroke-linecap:round;stroke-linejoin:round"
       id="polygon116" />
    <rect
       x="176.00999"
       y="382.47"
       width="9.04"
       height="51.139999"
       style="fill:none;stroke:#263238;stroke-linecap:round;stroke-linejoin:round"
       id="rect118" />
    <rect
       x="287.38"
       y="389.29999"
       width="12.24"
       height="44.310001"
       style="fill:none;stroke:#263238;stroke-linecap:round;stroke-linejoin:round"
       id="rect120" />
    <rect
       x="276.72"
       y="389.29999"
       width="10.66"
       height="44.310001"
       style="fill:none;stroke:#263238;stroke-linecap:round;stroke-linejoin:round"
       id="rect122" />
    <polygon
       points="329,433.61 339.91,433.61 339.91,382.47 308.66,382.47 308.66,433.61 "
       style="fill:none;stroke:#263238;stroke-linecap:round;stroke-linejoin:round"
       id="polygon124" />
    <polygon
       points="299.62,382.47 299.62,389.3 299.62,433.61 308.65,433.61 308.66,433.61 308.66,382.47 308.65,382.47 "
       style="fill:none;stroke:#263238;stroke-linecap:round;stroke-linejoin:round"
       id="polygon126" />
    <polygon
       points="220.6,396.8 220.6,389.3 205.38,389.3 197.92,389.3 194.24,389.3 194.24,433.61 197.44,433.61 197.44,396.8 206.97,396.8 215.82,396.8 "
       style="fill:none;stroke:#263238;stroke-linecap:round;stroke-linejoin:round"
       id="polygon128" />
    <rect
       x="188.22"
       y="389.29999"
       width="6.02"
       height="44.310001"
       style="fill:none;stroke:#263238;stroke-linecap:round;stroke-linejoin:round"
       id="rect130" />
    <polygon
       points="215.82,433.61 220.6,433.61 225.99,433.61 225.99,396.8 220.6,396.8 215.82,396.8 "
       style="fill:none;stroke:#263238;stroke-linecap:round;stroke-linejoin:round"
       id="polygon132" />
    <polygon
       points="197.92,433.61 205.38,433.61 206.97,433.61 206.97,396.8 197.44,396.8 197.44,433.61 "
       style="fill:none;stroke:#263238;stroke-linecap:round;stroke-linejoin:round"
       id="polygon134" />
    <rect
       x="206.97"
       y="396.79999"
       width="8.8500004"
       height="36.810001"
       style="fill:none;stroke:#263238;stroke-linecap:round;stroke-linejoin:round"
       id="rect136" />
    <polygon
       points="233.5,391.12 233.5,433.61 236.13,433.61 236.13,396.8 241.13,396.8 241.13,433.61 241.14,433.61 241.14,396.8 259.46,396.8 259.46,391.12 "
       style="fill:none;stroke:#263238;stroke-linecap:round;stroke-linejoin:round"
       id="polygon138" />
    <polygon
       points="225.99,396.8 225.99,433.61 232.02,433.61 233.49,433.61 233.5,433.61 233.5,391.12 233.49,391.12 225.99,391.12 "
       style="fill:none;stroke:#263238;stroke-linecap:round;stroke-linejoin:round"
       id="polygon140" />
    <polygon
       points="259.46,433.61 266.37,433.61 266.37,396.8 259.46,396.8 241.14,396.8 241.14,433.61 "
       style="fill:none;stroke:#263238;stroke-linecap:round;stroke-linejoin:round"
       id="polygon142" />
    <rect
       x="236.13"
       y="396.79999"
       width="5"
       height="36.810001"
       style="fill:none;stroke:#263238;stroke-linecap:round;stroke-linejoin:round"
       id="rect144" />
    <path
       d="m 66,400.47 -0.94,0.93 a 33.73,33.73 0 0 0 30.39,9.12 1.5,1.5 0 0 1 -0.39,-1 c 0,-0.08 0,-0.16 0,-0.25"
       style="fill:none;stroke:#263238;stroke-linecap:round;stroke-linejoin:round"
       id="path146" />
    <rect
       x="92.669998"
       y="408.25"
       width="6.3899999"
       height="18.469999"
       transform="translate(-1.16,0.27)"
       style="fill:#ffffff;stroke:#263238;stroke-linecap:round;stroke-linejoin:round"
       id="rect148" />
    <g
       style="opacity:0.2"
       id="g152">
      <rect
         x="92.669998"
         y="408.25"
         width="6.3899999"
         height="18.469999"
         transform="translate(-1.16,0.27)"
         style="fill:#ffffff;stroke:#263238;stroke-linecap:round;stroke-linejoin:round"
         id="rect150" />
    </g>
    <path
       d="M 115.23,433.6 H 76.52 c 0.71,-4 7.47,-7.27 16.18,-7.94 1,-0.07 2.07,-0.12 3.14,-0.12 1.07,0 2.19,0 3.24,0.11 8.75,0.64 15.52,3.92 16.15,7.95 z"
       style="fill:#ffffff;stroke:#263238;stroke-linecap:round;stroke-linejoin:round"
       id="path154" />
    <polygon
       points="113.52,355.33 115.12,356.92 68.91,403.71 67.31,402.12 "
       style="fill:#ffffff;stroke:#263238;stroke-linecap:round;stroke-linejoin:round"
       id="polygon156" />
    <path
       d="m 95.13,409.24 c 0,0.09 0,0.17 0,0.25 a 1.5,1.5 0 0 0 0.39,1 33.62,33.62 0 0 0 17,-56.8 l -0.93,0.94"
       style="fill:none;stroke:#263238;stroke-linecap:round;stroke-linejoin:round"
       id="path158" />
    <path
       d="m 108.35,395.82 a 23.94,23.94 0 1 1 -0.59,-33.85 23.93,23.93 0 0 1 0.59,33.85 z"
       style="fill:#439a86;stroke:#263238;stroke-linecap:round;stroke-linejoin:round"
       id="path160" />
    <path
       d="m 75.78,396.67 c 9.2,1.84 19.2,-2.53 25.44,-9 l -0.74,0.76 c 5.67,-5.87 10.27,-16.6 8.1,-25.75"
       style="fill:none;stroke:#263238;stroke-linecap:round;stroke-linejoin:round"
       id="path162" />
    <polyline
       points="86.05 355.8 93.63 363.12 94.48 363.94 100.02 369.3 100.81 370.05 106.36 375.4 107.2 376.22 114.68 383.45"
       style="fill:none;stroke:#263238;stroke-linecap:round;stroke-linejoin:round"
       id="polyline164" />
    <line
       x1="74.07"
       y1="362.51999"
       x2="108.49"
       y2="395.76001"
       style="fill:none;stroke:#263238;stroke-linecap:round;stroke-linejoin:round"
       id="line166" />
    <polyline
       points="67.96 374.89 75.51 382.19 76.37 383.01 81.76 388.22 82.53 388.97 87.91 394.18 87.93 394.18 88.78 395 96.34 402.3 96.03 402.62"
       style="fill:none;stroke:#263238;stroke-linecap:round;stroke-linejoin:round"
       id="polyline168" />
    <g
       style="opacity:0.2"
       id="g174">
      <polyline
         points="86.05 355.8 93.63 363.12 94.48 363.94 100.02 369.3 100.81 370.05 106.36 375.4 107.2 376.22 114.68 383.45"
         style="fill:none;stroke:#263238;stroke-linecap:round;stroke-linejoin:round"
         id="polyline170" />
      <line
         x1="74.07"
         y1="362.51999"
         x2="108.49"
         y2="395.76001"
         style="fill:none;stroke:#263238;stroke-linecap:round;stroke-linejoin:round"
         id="line172" />
    </g>
    <path
       d="m 107.92,361.49 c -9.34,-1.87 -20,3.14 -25.73,9.06 l 0.51,-0.53 c -5.72,5.92 -10.35,16.76 -8.16,26"
       style="fill:none;stroke:#263238;stroke-linecap:round;stroke-linejoin:round"
       id="path176" />
    <line
       x1="74.739998"
       y1="396.54999"
       x2="108.11"
       y2="361.98001"
       style="fill:none;stroke:#263238;stroke-linecap:round;stroke-linejoin:round"
       id="line178" />
  </g>
  <g
     id="freepik--Plant--inject-11"
     transform="translate(-25.28,-53.159996)">
    <path
       d="m 438.75,272.86 c 0,0 -16.17,18.95 -20.28,62.9 -4.11,43.95 -8.83,76 -8.83,76"
       style="fill:none;stroke:#263238;stroke-width:2px;stroke-linecap:round;stroke-linejoin:round"
       id="path181" />
    <path
       d="m 464.37,238.18 a 2.43,2.43 0 0 1 2.68,1.93 c 2.4,12.2 12.77,70.85 -11.54,63.11 -20.17,-6.42 -18.85,-21.17 -16.85,-28.3 a 1.83,1.83 0 0 0 -2.47,-2.19 c -7.87,3.25 -25,8.37 -26.88,-7.7 -2.18,-18.51 44.24,-25.48 55.06,-26.85 z"
       style="fill:#439a86"
       id="path183" />
    <path
       d="m 455.51,248.85 a 100.63,100.63 0 0 0 -12.63,18"
       style="fill:none;stroke:#263238;stroke-linecap:round;stroke-linejoin:round"
       id="path185" />
    <path
       d="m 462.91,241.62 a 46.19,46.19 0 0 0 -4.27,3.89"
       style="fill:none;stroke:#263238;stroke-linecap:round;stroke-linejoin:round"
       id="path187" />
    <path
       d="m 444.73,270.92 c 0,0 6.78,-7.12 23.41,-4"
       style="fill:none;stroke:#263238;stroke-linecap:round;stroke-linejoin:round"
       id="path189" />
    <path
       d="m 437.34,246.85 c 0,0 -3.08,8.63 0,20"
       style="fill:none;stroke:#263238;stroke-linecap:round;stroke-linejoin:round"
       id="path191" />
    <path
       d="m 465.28,285 a 18.31,18.31 0 0 1 2.86,3.1"
       style="fill:none;stroke:#263238;stroke-linecap:round;stroke-linejoin:round"
       id="path193" />
    <path
       d="m 442.88,277 c 0,0 11.18,0.58 19.51,5.85"
       style="fill:none;stroke:#263238;stroke-linecap:round;stroke-linejoin:round"
       id="path195" />
    <path
       d="m 433.64,270.92 c 0,0 -12.63,-3.74 -15.71,-14.06"
       style="fill:none;stroke:#263238;stroke-linecap:round;stroke-linejoin:round"
       id="path197" />
    <path
       d="m 393.23,336.49 c 0,0 9.25,10.84 11.6,36 2.35,25.16 5.05,43.45 5.05,43.45"
       style="fill:none;stroke:#263238;stroke-width:2px;stroke-linecap:round;stroke-linejoin:round"
       id="path199" />
    <path
       d="m 379.45,317.77 a 1.38,1.38 0 0 0 -1.53,1.1 c -1.38,7 -7.31,40.52 6.59,36.1 11.54,-3.67 10.79,-12.12 9.64,-16.19 a 1.06,1.06 0 0 1 1.42,-1.26 c 4.5,1.87 14.29,4.79 15.37,-4.4 1.25,-10.59 -25.3,-14.57 -31.49,-15.35 z"
       style="fill:#439a86"
       id="path201" />
    <path
       d="m 384.52,323.87 a 58.33,58.33 0 0 1 7.22,10.31"
       style="fill:none;stroke:#263238;stroke-linecap:round;stroke-linejoin:round"
       id="path203" />
    <path
       d="m 380.29,319.73 a 27.53,27.53 0 0 1 2.44,2.23"
       style="fill:none;stroke:#263238;stroke-linecap:round;stroke-linejoin:round"
       id="path205" />
    <path
       d="m 390.68,336.49 c 0,0 -3.88,-4.07 -13.39,-2.31"
       style="fill:none;stroke:#263238;stroke-linecap:round;stroke-linejoin:round"
       id="path207" />
    <path
       d="m 394.91,322.73 a 20.78,20.78 0 0 1 0,11.45"
       style="fill:none;stroke:#263238;stroke-linecap:round;stroke-linejoin:round"
       id="path209" />
    <path
       d="m 378.93,344.56 a 11,11 0 0 0 -1.64,1.77"
       style="fill:none;stroke:#263238;stroke-linecap:round;stroke-linejoin:round"
       id="path211" />
    <path
       d="m 391.74,340 c 0,0 -6.4,0.33 -11.16,3.35"
       style="fill:none;stroke:#263238;stroke-linecap:round;stroke-linejoin:round"
       id="path213" />
    <path
       d="m 397,336.49 c 0,0 7.23,-2.14 9,-8"
       style="fill:none;stroke:#263238;stroke-linecap:round;stroke-linejoin:round"
       id="path215" />
    <path
       d="m 436.88,326.39 c 0,0 -14.88,17.49 -18.71,58.05 -1.2,12.83 -2.46,24.56 -3.61,34.6"
       style="fill:none;stroke:#263238;stroke-width:2px;stroke-linecap:round;stroke-linejoin:round"
       id="path217" />
    <path
       d="m 465.26,313.62 a 1.87,1.87 0 0 1 1.21,2.26 c -2.48,9.33 -15.24,53.75 -29.56,40.07 -11.88,-11.35 -5.92,-21.19 -2.1,-25.48 a 1.43,1.43 0 0 0 -1,-2.37 c -6.6,-0.41 -20.28,-2.68 -16.12,-14.53 4.82,-13.65 39.56,-2.68 47.57,0.05 z"
       style="fill:#439a86"
       id="path219" />
    <path
       d="m 465.26,313.62 a 1.87,1.87 0 0 1 1.21,2.26 c -2.48,9.33 -15.24,53.75 -29.56,40.07 -11.88,-11.35 -5.92,-21.19 -2.1,-25.48 a 1.43,1.43 0 0 0 -1,-2.37 c -6.6,-0.41 -20.28,-2.68 -16.12,-14.53 4.82,-13.65 39.56,-2.68 47.57,0.05 z"
       style="opacity:0.2"
       id="path221" />
    <path
       d="m 455.45,318 a 78.24,78.24 0 0 0 -14.95,8.27"
       style="fill:none;stroke:#263238;stroke-linecap:round;stroke-linejoin:round"
       id="path223" />
    <path
       d="m 463.07,315.52 a 36.85,36.85 0 0 0 -4.3,1.26"
       style="fill:none;stroke:#263238;stroke-linecap:round;stroke-linejoin:round"
       id="path225" />
    <path
       d="m 440.41,329.76 c 0,0 7.15,-2.66 17.7,5.16"
       style="fill:none;stroke:#263238;stroke-linecap:round;stroke-linejoin:round"
       id="path227" />
    <path
       d="m 443.46,310.45 a 28.23,28.23 0 0 0 -6.83,14"
       style="fill:none;stroke:#263238;stroke-linecap:round;stroke-linejoin:round"
       id="path229" />
    <path
       d="m 449.93,346.6 a 14.77,14.77 0 0 1 0.94,3.14"
       style="fill:none;stroke:#263238;stroke-linecap:round;stroke-linejoin:round"
       id="path231" />
    <path
       d="m 437,333.39 c 0,0 7.6,4.22 11.61,10.73"
       style="fill:none;stroke:#263238;stroke-linecap:round;stroke-linejoin:round"
       id="path233" />
    <path
       d="m 432.68,326 c 0,0 -7.54,-6.91 -6.17,-15.16"
       style="fill:none;stroke:#263238;stroke-linecap:round;stroke-linejoin:round"
       id="path235" />
    <path
       d="m 405.3,447.84 h 15 a 11,11 0 0 0 11,-10.43 l 0.84,-16.28 a 12.71,12.71 0 0 0 -12.7,-13.37 h -13.3 a 12.71,12.71 0 0 0 -12.69,13.37 l 0.84,16.28 a 11,11 0 0 0 11.01,10.43 z"
       style="fill:#ffffff;stroke:#263238;stroke-linecap:round;stroke-linejoin:round"
       id="path237" />
    <line
       x1="416.95001"
       y1="436.98999"
       x2="394.29999"
       y2="436.98999"
       style="fill:#ffffff;stroke:#263238;stroke-linecap:round;stroke-linejoin:round"
       id="line239" />
    <line
       x1="431.35001"
       y1="436.98999"
       x2="423.84"
       y2="436.98999"
       style="fill:#ffffff;stroke:#263238;stroke-linecap:round;stroke-linejoin:round"
       id="line241" />
  </g>
  <g
     id="freepik--Books--inject-11"
     transform="translate(-25.28,-53.159996)">
    <path
       d="m 136.71,246.62 -0.07,13.12 c 1.39,0 1.38,2.52 0,2.51 -4.29,0 -8.58,0 -12.87,0 l 0.09,-18.22 12.87,0.06 c 1.37,0.02 1.36,2.53 -0.02,2.53 z"
       style="fill:#ffffff;stroke:#263238;stroke-linecap:round;stroke-linejoin:round"
       id="path244" />
    <rect
       x="125.12"
       y="248.17"
       width="13.11"
       height="9.9899998"
       transform="rotate(-89.73,131.66604,253.15839)"
       style="fill:#ffffff;stroke:#263238;stroke-linecap:round;stroke-linejoin:round"
       id="rect246" />
    <path
       d="m 128.81,245.32 -55.17,-0.26 c -2.38,0 -4.33,3.48 -4.35,7.8 -0.02,4.32 1.89,7.83 4.28,7.84 l 55.17,0.26 z"
       style="fill:#ffffff;stroke:#263238;stroke-linecap:round;stroke-linejoin:round"
       id="path248" />
    <path
       d="m 128.81,245.32 -55.17,-0.26 c -2.38,0 -4.33,3.48 -4.35,7.8 -0.02,4.32 1.89,7.83 4.28,7.84 l 55.17,0.26 z"
       style="fill:#ffffff;stroke:#263238;stroke-linecap:round;stroke-linejoin:round"
       id="path250" />
    <path
       d="m 128.73,262.22 c -11.34,-0.06 -43.23,0 -54.57,-0.26 -7.77,-0.2 -8.1,-17.58 -0.48,-18.16 5.32,-0.4 10.78,0.06 16.1,0.08 l 39,0.19 c 1.39,0 1.38,2.52 0,2.51 L 76,246.33 c -2.49,0 -4.27,0 -5.25,3.43 -0.84,3 -0.61,9 2.79,9.68 a 7.62,7.62 0 0 0 1.17,0 l 17.59,0.08 36.42,0.17 c 1.38,0 1.37,2.52 0,2.52 z"
       style="fill:#439a86;stroke:#263238;stroke-linecap:round;stroke-linejoin:round"
       id="path252" />
    <path
       d="m 136.68,233.36 v 8.34 c 1.38,0 1.38,1.61 0,1.6 q -6.44,0 -12.87,0 l 0.06,-11.58 12.87,0.06 c 1.33,-0.01 1.33,1.59 -0.06,1.58 z"
       style="fill:#ffffff;stroke:#263238;stroke-linecap:round;stroke-linejoin:round"
       id="path254" />
    <rect
       x="127.5"
       y="232.52"
       width="8.3299999"
       height="9.9899998"
       transform="rotate(-89.73,131.64922,237.51148)"
       style="fill:#ffffff;stroke:#263238;stroke-linecap:round;stroke-linejoin:round"
       id="rect256" />
    <path
       d="m 128.78,232.52 -55.17,-0.26 c -2.38,0 -4.32,2.2 -4.34,5 -0.02,2.8 1.91,5 4.29,5 l 55.18,0.26 z"
       style="fill:#ffffff;stroke:#263238;stroke-linecap:round;stroke-linejoin:round"
       id="path258" />
    <path
       d="m 128.78,232.52 -55.17,-0.26 c -2.38,0 -4.32,2.2 -4.34,5 -0.02,2.8 1.91,5 4.29,5 l 55.18,0.26 z"
       style="fill:#bfbfbf;stroke:#263238;stroke-linecap:round;stroke-linejoin:round"
       id="path260" />
    <path
       d="m 128.73,243.26 c -11.34,0 -43.23,0 -54.57,-0.26 -7.77,-0.14 -8.13,-11.19 -0.51,-11.54 5.31,-0.24 10.78,0 16.1,0.08 l 39,0.18 c 1.38,0 1.38,1.61 0,1.6 L 76,233.07 c -2.49,0 -4.27,0 -5.24,2.17 -0.84,1.88 -0.6,5.73 2.81,6.16 a 9.12,9.12 0 0 0 1.17,0 l 17.58,0.08 36.42,0.17 c 1.39,0 1.38,1.61 0,1.6 z"
       style="fill:#263238;stroke:#263238;stroke-linecap:round;stroke-linejoin:round"
       id="path262" />
    <path
       d="m 134.7,265.79 -0.06,12.15 c 1.28,0 1.27,2.33 0,2.33 -4,0 -7.95,0 -11.92,0 l 0.08,-16.87 11.92,0.06 c 1.28,0.01 1.28,2.33 -0.02,2.33 z"
       style="fill:#5c5c5c;stroke:#263238;stroke-linecap:round;stroke-linejoin:round"
       id="path264" />
    <rect
       x="123.97"
       y="267.22"
       width="12.14"
       height="9.2600002"
       transform="rotate(-89.73,130.0261,271.84639)"
       style="fill:#bfbfbf;stroke:#263238;stroke-linecap:round;stroke-linejoin:round"
       id="rect266" />
    <path
       d="m 127.39,264.59 -51.1,-0.24 c -2.21,0 -4,3.22 -4,7.22 0,4 1.76,7.25 4,7.26 l 51.1,0.24 z"
       style="fill:#ffffff;stroke:#263238;stroke-linecap:round;stroke-linejoin:round"
       id="path268" />
    <path
       d="m 127.39,264.59 -51.1,-0.24 c -2.21,0 -4,3.22 -4,7.22 0,4 1.76,7.25 4,7.26 l 51.1,0.24 z"
       style="fill:#bfbfbf;stroke:#263238;stroke-linecap:round;stroke-linejoin:round"
       id="path270" />
    <path
       d="m 127.31,280.23 c -10.5,-0.05 -40,0 -50.54,-0.24 -7.19,-0.18 -7.5,-16.28 -0.44,-16.81 4.92,-0.37 10,0.05 14.91,0.07 l 36.15,0.18 c 1.29,0 1.28,2.33 0,2.32 l -48.88,-0.23 c -2.3,0 -4,0 -4.86,3.18 -0.78,2.74 -0.56,8.34 2.59,9 a 5.57,5.57 0 0 0 1.08,0 l 16.29,0.08 33.72,0.16 c 1.29,0 1.28,2.33 0,2.32 z"
       style="fill:#5c5c5c;stroke:#263238;stroke-linecap:round;stroke-linejoin:round"
       id="path272" />
    <path
       d="m 140.55,284.32 -0.07,14.46 c 1.52,0 1.51,2.78 0,2.77 -4.72,0 -9.45,0 -14.18,0 l 0.1,-20.08 14.18,0.07 c 1.51,0.02 1.5,2.79 -0.03,2.78 z"
       style="fill:#bfbfbf;stroke:#263238;stroke-linecap:round;stroke-linejoin:round"
       id="path274" />
    <rect
       x="127.78"
       y="286.03"
       width="14.44"
       height="11.02"
       transform="rotate(-89.73,134.9941,291.5312)"
       style="fill:#ffffff;stroke:#263238;stroke-linecap:round;stroke-linejoin:round"
       id="rect276" />
    <path
       d="M 131.85,282.89 71,282.6 c -2.62,0 -4.77,3.84 -4.79,8.6 -0.02,4.76 2.08,8.63 4.71,8.64 l 60.81,0.29 z"
       style="fill:#ffffff;stroke:#263238;stroke-linecap:round;stroke-linejoin:round"
       id="path278" />
    <path
       d="M 131.85,282.89 71,282.6 c -2.62,0 -4.77,3.84 -4.79,8.6 -0.02,4.76 2.08,8.63 4.71,8.64 l 60.81,0.29 z"
       style="fill:#ffffff;stroke:#263238;stroke-linecap:round;stroke-linejoin:round"
       id="path280" />
    <path
       d="m 131.76,301.51 c -12.5,-0.06 -47.65,0 -60.14,-0.28 -8.57,-0.23 -8.94,-19.38 -0.53,-20 5.85,-0.44 11.87,0.06 17.74,0.08 l 43,0.21 c 1.52,0 1.51,2.78 0,2.77 L 73.67,284 c -2.74,0 -4.7,0 -5.78,3.78 -0.93,3.27 -0.67,9.93 3.08,10.67 a 6.84,6.84 0 0 0 1.28,0 l 19.39,0.09 40.13,0.19 c 1.53,0 1.52,2.78 0,2.77 z"
       style="fill:#bfbfbf;stroke:#263238;stroke-linecap:round;stroke-linejoin:round"
       id="path282" />
    <path
       d="m 130.59,228.16 c -4.12,3.19 -9.27,3.27 -13.9,2.25 a 12.86,12.86 0 0 0 4.73,-2.31 v 0 l -0.23,-0.52 c 6.15,0.38 8.12,-2.27 8.12,-2.27 l 0.44,1 z"
       style="fill:#ffffff;stroke:#263238;stroke-linecap:round;stroke-linejoin:round"
       id="path284" />
    <path
       d="m 121.41,228.09 v 0 a 12.86,12.86 0 0 1 -4.73,2.31 39.45,39.45 0 0 1 -9.93,-3.8 l -0.21,-0.12 c -1.32,-0.72 -2.1,-1.24 -2.1,-1.24 -0.15,0.18 -0.3,0.34 -0.45,0.5 v 0 a 16.25,16.25 0 0 1 -2.85,2.49 c -4.65,3.14 -10,3.05 -14.18,2.14 a 30.61,30.61 0 0 1 -7.24,-2.58 18.19,18.19 0 0 0 5.58,-0.52 18.3,18.3 0 0 0 7.3,0.44 19.48,19.48 0 0 0 4.72,-1.33 21,21 0 0 0 3.44,-1.84 v 0 a 19.58,19.58 0 0 0 3.32,-2.7 v 0 a 53.77,53.77 0 0 0 13,5.11 h 0.08 a 27,27 0 0 0 4,0.59 v 0 z"
       style="fill:#ffffff;stroke:#263238;stroke-linecap:round;stroke-linejoin:round"
       id="path286" />
    <path
       d="m 121.41,228.09 v 0 a 12.86,12.86 0 0 1 -4.73,2.31 c -5.32,1.41 -11.28,-0.31 -15.55,-2.16 -1.52,-0.65 -2.83,-1.31 -3.82,-1.85 -1.29,-0.72 -2,-1.21 -2,-1.21 a 17.12,17.12 0 0 1 -2.68,2.54 15.44,15.44 0 0 1 -5.63,2.67 c -8.31,2 -16.81,-2.87 -16.81,-2.87 l 0.84,-2.38 a 20.8,20.8 0 0 0 8.73,2.67 18.19,18.19 0 0 0 5.58,-0.52 21.22,21.22 0 0 0 9.64,-5.5 c 2.11,1.11 4.06,2 5.85,2.76 0.81,0.34 1.58,0.64 2.32,0.91 h 0.11 l 0.77,0.26 c 1,0.33 1.91,0.62 2.77,0.85 5,1.33 8.37,1 10.42,0.37 l 0.39,-0.14 h 0.12 a 5.52,5.52 0 0 0 2.44,-1.57 l 0.27,0.61 0.77,1.73 z"
       style="fill:#ffffff;stroke:#263238;stroke-linecap:round;stroke-linejoin:round"
       id="path288" />
    <path
       d="m 129.3,225.3 c 0,0 -2,2.65 -8.12,2.27 l -0.77,-1.73 v 0 c -0.12,0 -1.29,0.51 -2.52,0.9 l -0.19,0.06 h -0.12 l -0.47,0.12 c -1.57,0.39 -5,0.92 -10.55,-0.47 -0.81,-0.19 -1.66,-0.44 -2.55,-0.74 l -0.78,-0.25 h -0.11 c -0.75,-0.27 -1.54,-0.56 -2.35,-0.9 a 57.29,57.29 0 0 1 -5.82,-2.77 l 9.17,0.06 v 0 a 158.28,158.28 0 0 0 16,3.2 c 3.65,0.49 7.06,0.69 9.18,0.25 z"
       style="fill:#263238;stroke:#263238;stroke-linecap:round;stroke-linejoin:round"
       id="path290" />
    <path
       d="m 121.42,228.1 a 15.21,15.21 0 0 0 9.17,0.06 l -1.29,-2.86 c 0,0 -1.66,1.93 -8.9,0.54 z"
       style="fill:#ffffff;stroke:#263238;stroke-linecap:round;stroke-linejoin:round"
       id="path292" />
    <path
       d="m 375.88,298.22 c -5,3.85 -11.16,3.95 -16.74,2.71 a 15.43,15.43 0 0 0 5.69,-2.77 v 0 l -0.29,-0.63 c 7.42,0.46 9.79,-2.73 9.79,-2.73 l 0.52,1.17 z"
       style="fill:#ffffff;stroke:#263238;stroke-linecap:round;stroke-linejoin:round"
       id="path294" />
    <path
       d="m 364.83,298.14 v 0 a 15.46,15.46 0 0 1 -5.69,2.78 47.6,47.6 0 0 1 -12,-4.58 c -0.09,0 -0.17,-0.1 -0.25,-0.14 -1.59,-0.87 -2.53,-1.49 -2.53,-1.49 -0.19,0.22 -0.37,0.41 -0.55,0.6 v 0 a 18.79,18.79 0 0 1 -3.43,3 c -5.59,3.79 -12,3.68 -17.08,2.59 a 36.24,36.24 0 0 1 -8.73,-3.12 21.73,21.73 0 0 0 6.73,-0.62 21.93,21.93 0 0 0 8.78,0.53 24,24 0 0 0 5.71,-1.6 26.65,26.65 0 0 0 4.13,-2.21 v 0 a 24.09,24.09 0 0 0 4,-3.25 v 0 a 65.2,65.2 0 0 0 15.65,6.16 0.14,0.14 0 0 1 0.09,0 31.48,31.48 0 0 0 4.8,0.72 v 0 z"
       style="fill:#ffffff;stroke:#263238;stroke-linecap:round;stroke-linejoin:round"
       id="path296" />
    <path
       d="m 335.81,296.1 a 24,24 0 0 1 -5.71,1.6 19.26,19.26 0 0 0 3.24,-3.06 c 0,0 0.91,0.6 2.47,1.46 z"
       style="fill:#263238;stroke:#263238;stroke-linecap:round;stroke-linejoin:round"
       id="path298" />
    <path
       d="m 364.83,298.14 v 0 a 15.46,15.46 0 0 1 -5.69,2.78 c -6.41,1.7 -13.59,-0.38 -18.74,-2.61 -1.82,-0.77 -3.4,-1.57 -4.59,-2.22 -1.56,-0.86 -2.47,-1.46 -2.47,-1.46 a 19.26,19.26 0 0 1 -3.24,3.06 18.45,18.45 0 0 1 -6.78,3.21 c -10,2.43 -20.25,-3.46 -20.25,-3.46 l 1,-2.87 a 24.7,24.7 0 0 0 10.51,3.21 21.73,21.73 0 0 0 6.73,-0.62 25.58,25.58 0 0 0 11.61,-6.63 c 2.55,1.34 4.89,2.43 7.05,3.33 1,0.41 1.9,0.77 2.79,1.09 l 0.14,0.06 0.92,0.31 c 1.18,0.4 2.3,0.74 3.34,1 6.09,1.6 10.08,1.24 12.56,0.44 a 4.09,4.09 0 0 0 0.46,-0.16 l 0.15,-0.05 a 6.64,6.64 0 0 0 2.93,-1.89 l 0.33,0.74 0.93,2.08 z"
       style="fill:#ffffff;stroke:#263238;stroke-linecap:round;stroke-linejoin:round"
       id="path300" />
    <path
       d="m 375.89,298.22 a 18.38,18.38 0 0 1 -11.06,-0.07 l -1.23,-2.72 c -0.13,0.06 -1.54,0.6 -3,1.08 l -0.23,0.07 -0.15,0.05 -0.55,0.15 c -1.9,0.47 -6.09,1.1 -12.72,-0.57 -1,-0.24 -2,-0.53 -3.08,-0.89 l -0.93,-0.3 -0.14,-0.06 c -0.91,-0.32 -1.85,-0.67 -2.83,-1.07 a 71.06,71.06 0 0 1 -7,-3.35 l 11.05,0.08 v 0 a 194.8,194.8 0 0 0 19.31,3.86 c 4.37,0.58 8.47,0.83 11,0.29 z"
       style="fill:#ffffff;stroke:#263238;stroke-linecap:round;stroke-linejoin:round"
       id="path302" />
    <path
       d="m 364.8,293 v 0 a 15.54,15.54 0 0 1 -5.69,2.78 c -6.41,1.7 -13.59,-0.38 -18.74,-2.61 -1.82,-0.78 -3.4,-1.57 -4.59,-2.22 -1.55,-0.87 -2.46,-1.46 -2.46,-1.46 a 20.06,20.06 0 0 1 -3.24,3.06 18.49,18.49 0 0 1 -6.79,3.21 c -10,2.43 -20.25,-3.46 -20.25,-3.46 l 1,-2.87 a 25,25 0 0 0 10.51,3.21 21.64,21.64 0 0 0 6.72,-0.62 25.57,25.57 0 0 0 11.62,-6.63 c 2.54,1.34 4.88,2.43 7,3.33 1,0.4 1.9,0.77 2.8,1.09 l 0.13,0.05 0.93,0.32 c 1.18,0.4 2.29,0.74 3.34,1 6.09,1.6 10.08,1.24 12.55,0.44 l 0.47,-0.16 0.15,-0.05 a 6.73,6.73 0 0 0 2.93,-1.89 l 0.33,0.74 0.93,2.07 z"
       style="fill:#ffffff;stroke:#263238;stroke-linecap:round;stroke-linejoin:round"
       id="path304" />
    <path
       d="m 374.3,289.59 c 0,0 -2.37,3.19 -9.78,2.73 l -0.93,-2.08 v 0 c -0.14,0.06 -1.55,0.6 -3,1.08 a 0.79,0.79 0 0 0 -0.22,0.07 l -0.15,0.05 -0.56,0.14 c -1.9,0.47 -6.09,1.1 -12.72,-0.56 -1,-0.24 -2,-0.54 -3.07,-0.89 l -0.94,-0.31 -0.13,-0.05 c -0.91,-0.32 -1.85,-0.67 -2.83,-1.07 a 70,70 0 0 1 -7,-3.35 l 11,0.08 v 0 a 194.8,194.8 0 0 0 19.31,3.86 c 4.36,0.59 8.47,0.84 11.02,0.3 z"
       style="fill:#263238;stroke:#263238;stroke-linecap:round;stroke-linejoin:round"
       id="path306" />
    <path
       d="m 364.8,293 a 18.37,18.37 0 0 0 11.05,0.07 l -1.55,-3.45 c 0,0 -2,2.33 -10.72,0.66 z"
       style="fill:#ffffff;stroke:#263238;stroke-linecap:round;stroke-linejoin:round"
       id="path308" />
  </g>
  <g
     id="freepik--Graphics--inject-11"
     transform="translate(-25.28,-53.159996)">
    <polygon
       points="149.04,116.6 156.1,112.95 155.69,115.25 151.15,117.6 "
       style="fill:#ffffff;stroke:#263238;stroke-linecap:round;stroke-linejoin:round"
       id="polygon311" />
    <path
       d="m 153.14,93.33 a 10.4,10.4 0 0 1 0.45,8.49 6.84,6.84 0 0 0 0.24,5.62 l 0.36,0.7 -8.08,4.18 -0.36,-0.7 a 6.83,6.83 0 0 0 -4.44,-3.44 10.42,10.42 0 0 1 -1.73,-19.59 10.5,10.5 0 0 1 13.56,4.74 z"
       style="fill:#ffffff;stroke:#263238;stroke-linecap:round;stroke-linejoin:round"
       id="path313" />
    <path
       d="m 153.14,93.33 a 10.4,10.4 0 0 1 0.45,8.49 6.84,6.84 0 0 0 0.24,5.62 l 0.36,0.7 -8.08,4.18 -0.36,-0.7 a 6.83,6.83 0 0 0 -4.44,-3.44 10.42,10.42 0 0 1 -1.73,-19.59 10.5,10.5 0 0 1 13.56,4.74 z"
       style="opacity:0.9;fill:#ffffff;stroke:#263238;stroke-linecap:round;stroke-linejoin:round"
       id="path315" />
    <polygon
       points="149.04,101.23 148.36,104.02 146.19,102.58 146.12,105.19 143.45,104.12 148.68,110.61 148.19,111 141.33,102.49 141.81,102.09 143,103.27 145.52,104.27 145.6,101.43 147.97,103 148.6,100.37 148.33,98.73 148.94,98.55 151.91,109.08 151.31,109.25 "
       style="fill:#439a86"
       id="polygon317" />
    <polygon
       points="148.58,117.09 146,112.1 154.06,107.89 156.64,112.88 "
       style="fill:#439a86;stroke:#263238;stroke-linecap:round;stroke-linejoin:round"
       id="polygon319" />
    <path
       d="m 326.86,91.58 h 0.91 a 1.87,1.87 0 0 1 1.87,1.87 V 108.4 H 325 V 93.45 a 1.87,1.87 0 0 1 1.86,-1.87 z"
       transform="rotate(52.32,327.30209,99.984691)"
       style="fill:#ffffff;stroke:#263238;stroke-linecap:round;stroke-linejoin:round"
       id="path321" />
    <path
       d="m 326.86,91.58 h 0.91 a 1.87,1.87 0 0 1 1.87,1.87 V 108.4 H 325 V 93.45 a 1.87,1.87 0 0 1 1.86,-1.87 z"
       transform="rotate(52.32,327.30209,99.984691)"
       style="fill:#263238;stroke:#263238;stroke-linecap:round;stroke-linejoin:round"
       id="path323" />
    <rect
       x="311.75"
       y="107.03"
       width="4.3200002"
       height="42.080002"
       transform="rotate(25.5,313.94879,128.09604)"
       style="fill:#263238;stroke:#263238;stroke-linecap:round;stroke-linejoin:round"
       id="rect325" />
    <rect
       x="309.32001"
       y="103.86"
       width="4.3200002"
       height="4.75"
       transform="rotate(25.5,311.51025,106.23261)"
       style="fill:#439a86;stroke:#263238;stroke-linecap:round;stroke-linejoin:round"
       id="rect327" />
    <rect
       x="314.03"
       y="98.309998"
       width="3.45"
       height="6.9499998"
       transform="rotate(25.5,315.78123,101.80518)"
       style="fill:#ffffff;stroke:#263238;stroke-linecap:round;stroke-linejoin:round"
       id="rect329" />
    <rect
       x="314.03"
       y="98.309998"
       width="3.45"
       height="6.9499998"
       transform="rotate(25.5,315.78123,101.80518)"
       style="fill:#ffffff;stroke:#263238;stroke-linecap:round;stroke-linejoin:round"
       id="rect331" />
    <path
       d="m 329.79,112.33 -14,-6.66 3,-6.27 11.15,8.6 a 2.21,2.21 0 0 1 0.64,2.7 z"
       style="fill:#ffffff;stroke:#263238;stroke-linecap:round;stroke-linejoin:round"
       id="path333" />
    <path
       d="m 311.84,112.1 -3.44,-4.21 a 0.23,0.23 0 0 1 0.28,-0.36 l 10.19,4.85 a 0.24,0.24 0 0 1 -0.1,0.46 h -5.44 a 2,2 0 0 1 -1.49,-0.74 z"
       style="fill:#ffffff;stroke:#263238;stroke-linecap:round;stroke-linejoin:round"
       id="path335" />
    <rect
       x="308.29999"
       y="112.39"
       width="6.5300002"
       height="4.4099998"
       rx="2.1400001"
       transform="rotate(-64.5,311.56086,114.59355)"
       style="fill:#ffffff;stroke:#263238;stroke-linecap:round;stroke-linejoin:round"
       id="rect337" />
    <rect
       x="308.29999"
       y="112.39"
       width="6.5300002"
       height="4.4099998"
       rx="2.1400001"
       transform="rotate(-64.5,311.56086,114.59355)"
       style="fill:#263238;stroke:#263238;stroke-linecap:round;stroke-linejoin:round"
       id="rect339" />
    <rect
       x="304.51999"
       y="109.54"
       width="6.5300002"
       height="4.4099998"
       rx="2.1400001"
       transform="rotate(-42,307.78207,111.75011)"
       style="fill:#ffffff;stroke:#263238;stroke-linecap:round;stroke-linejoin:round"
       id="rect341" />
    <rect
       x="312.89001"
       y="113.54"
       width="6.5300002"
       height="4.4099998"
       rx="2.1400001"
       transform="rotate(-87,316.13376,115.74723)"
       style="fill:#ffffff;stroke:#263238;stroke-linecap:round;stroke-linejoin:round"
       id="rect343" />
    <path
       d="m 306.8,148 13.2,6.29 a 2,2 0 0 0 2.8,-1.36 l 8.72,-38 a 2.07,2.07 0 0 0 -1.12,-2.33 l -15.95,-7.6 -2,4.28 10.47,5 z"
       style="fill:#439a86;stroke:#263238;stroke-linecap:round;stroke-linejoin:round"
       id="path345" />
    <rect
       x="291.19"
       y="122.34"
       width="17.52"
       height="3.4100001"
       transform="rotate(25.5,299.98038,124.05603)"
       style="fill:#ffffff;stroke:#263238;stroke-linecap:round;stroke-linejoin:round"
       id="rect347" />
    <rect
       x="307"
       y="129.88"
       width="17.52"
       height="3.4100001"
       transform="rotate(25.5,315.78815,131.6054)"
       style="fill:#ffffff;stroke:#263238;stroke-linecap:round;stroke-linejoin:round"
       id="rect349" />
    <rect
       x="291.19"
       y="122.34"
       width="17.52"
       height="3.4100001"
       transform="rotate(25.5,299.98038,124.05603)"
       style="fill:#ffffff;stroke:#263238;stroke-linecap:round;stroke-linejoin:round"
       id="rect351" />
    <path
       d="m 246.16,160.42 a 6.83,6.83 0 0 0 1.41,-1.11 c 3.59,-3.76 2.12,-11 -3.28,-16.16 a 16.65,16.65 0 0 0 -9.39,-4.69 24.76,24.76 0 0 0 -2.7,-3.06 c -7.55,-7.22 -18.17,-8.35 -23.74,-2.54 -3.79,4 -4.24,10.15 -1.75,16 -3.89,4.92 -1.94,13.62 4.64,19.9 4.76,4.56 10.69,6.63 15.4,5.86 0.15,0.16 0.3,0.33 0.46,0.48 6.85,6.55 16.11,8 20.68,3.21 3.98,-4.2 3.11,-11.7 -1.73,-17.89 z"
       style="fill:none;stroke:#ffffff;stroke-linecap:round;stroke-linejoin:round"
       id="path353" />
    <g
       style="opacity:0.9"
       id="g381">
      <path
         d="m 222,136.31 c 1.48,-1.21 1.75,-0.95 0.61,0.58 a 2.47,2.47 0 0 0 1.17,4 c 1.78,0.67 1.69,1 -0.2,0.81 a 2.47,2.47 0 0 0 -2.88,3 c 0.31,1.88 0,2 -0.8,0.23 a 2.47,2.47 0 0 0 -4.05,-1 c -1.48,1.22 -1.75,1 -0.6,-0.57 a 2.47,2.47 0 0 0 -1.17,-4 c -1.79,-0.67 -1.7,-1 0.19,-0.81 a 2.48,2.48 0 0 0 2.89,-3 c -0.32,-1.89 0,-2 0.8,-0.24 a 2.46,2.46 0 0 0 4.04,1 z"
         style="fill:#ffffff"
         id="path355" />
      <polygon
         points="245.34,164.49 234.8,163.23 236.53,173.71 232.35,163.94 224.14,170.68 230.51,162.18 220.57,158.44 231.11,159.7 229.38,149.23 233.56,158.99 241.77,152.25 235.41,160.75 "
         style="fill:#ffffff"
         id="polygon357" />
      <path
         d="m 249.57,120.51 a 5.3,5.3 0 0 0 1,-0.79 c 3.26,-3.41 1.34,-10.55 -4.3,-15.94 -5.64,-5.39 -12.53,-6.91 -15.89,-3.8 -4.88,-3 -10.27,-3.28 -13.15,-0.26 -3.56,3.72 -2,11 3.55,16.29 a 18.66,18.66 0 0 0 6.83,4.24 18.5,18.5 0 0 0 4.51,6.61 c 5.47,5.23 12.78,6.48 16.32,2.78 2.07,-2.19 2.36,-5.64 1.13,-9.13 z"
         style="fill:none;stroke:#ffffff;stroke-linecap:round;stroke-linejoin:round"
         id="path359" />
      <polygon
         points="247.24,116.2 240.23,115.36 241.38,122.33 238.61,115.84 233.15,120.32 237.38,114.67 230.78,112.18 237.78,113.02 236.63,106.06 239.41,112.55 244.86,108.07 240.63,113.72 "
         style="fill:#ffffff"
         id="polygon361" />
      <path
         d="m 250.55,119.72 a 4.61,4.61 0 0 1 -1,0.78 c 1.24,3.52 0.94,7 -1.16,9.13 -3.53,3.7 -10.84,2.46 -16.31,-2.78 a 18.34,18.34 0 0 1 -4.5,-6.61 18.61,18.61 0 0 1 -6.84,-4.23 c -5.53,-5.28 -7.11,-12.57 -3.56,-16.3 2.9,-3 8.28,-2.75 13.15,0.27 3.37,-3.12 10.38,-1.48 15.89,3.8 5.51,5.28 7.6,12.53 4.33,15.94 z"
         style="fill:none;stroke:#ffffff;stroke-linecap:round;stroke-linejoin:round"
         id="path363" />
      <polygon
         points="247.24,116.2 240.23,115.36 241.38,122.33 238.61,115.84 233.15,120.32 237.38,114.67 230.78,112.18 237.78,113.02 236.63,106.06 239.41,112.55 244.86,108.07 240.63,113.72 "
         style="fill:#ffffff"
         id="polygon365" />
      <path
         d="m 266.32,95.77 c 1.45,-1.19 1.72,-0.93 0.59,0.56 a 2.43,2.43 0 0 0 1.15,3.93 c 1.75,0.65 1.66,1 -0.19,0.79 a 2.43,2.43 0 0 0 -2.83,3 c 0.31,1.85 -0.05,2 -0.78,0.23 a 2.42,2.42 0 0 0 -4,-1 c -1.45,1.19 -1.71,0.94 -0.59,-0.56 a 2.42,2.42 0 0 0 -1.15,-3.92 c -1.75,-0.66 -1.66,-1 0.2,-0.8 a 2.42,2.42 0 0 0 2.82,-3 c -0.31,-1.85 0.05,-2 0.78,-0.23 a 2.42,2.42 0 0 0 4,1 z"
         style="fill:#ffffff"
         id="path367" />
      <path
         d="m 198.74,108.47 c 0.9,-0.55 0,-2.9 -1,-4.85 1.81,-1.26 3.69,-2.93 3.15,-3.83 -0.54,-0.9 -2.9,0 -4.85,1 -1.26,-1.8 -2.93,-3.69 -3.83,-3.14 -0.9,0.55 0,2.89 1,4.84 -1.81,1.26 -3.7,2.93 -3.15,3.83 0.55,0.9 2.9,0 4.85,-1 1.26,1.81 2.93,3.68 3.83,3.15 z m 1.54,-8.33 c 0.1,0.28 -0.85,1.46 -2.89,2.89 -0.16,-0.3 -0.33,-0.58 -0.48,-0.84 l -0.52,-0.82 c 2.21,-1.14 3.69,-1.45 3.89,-1.23 z M 196,104 c -0.3,0.18 -0.59,0.35 -0.87,0.5 q -0.27,-0.39 -0.54,-0.84 c -0.18,-0.3 -0.35,-0.59 -0.5,-0.87 0.27,-0.18 0.55,-0.36 0.85,-0.54 0.3,-0.18 0.58,-0.35 0.87,-0.51 l 0.54,0.85 c 0.18,0.3 0.34,0.59 0.5,0.87 -0.28,0.13 -0.56,0.31 -0.85,0.54 z m -3.47,-5.7 c 0.28,-0.1 1.46,0.85 2.9,2.89 -0.3,0.16 -0.58,0.33 -0.84,0.49 -0.26,0.16 -0.53,0.33 -0.82,0.52 -1.16,-2.26 -1.46,-3.75 -1.25,-3.95 z m -1.9,7.7 c -0.09,-0.28 0.86,-1.46 2.89,-2.9 l 0.49,0.84 c 0.16,0.26 0.33,0.54 0.52,0.82 -2.21,1.16 -3.7,1.46 -3.9,1.24 z m 4.87,-1 0.84,-0.49 0.82,-0.52 c 1.14,2.21 1.45,3.7 1.24,3.9 -0.21,0.2 -1.47,-0.89 -2.9,-2.89 z"
         style="fill:#ffffff"
         id="path369" />
      <path
         d="m 198.74,108.47 c 0.9,-0.55 0,-2.9 -1,-4.85 1.81,-1.26 3.69,-2.93 3.15,-3.83 -0.54,-0.9 -2.9,0 -4.85,1 -1.26,-1.8 -2.93,-3.69 -3.83,-3.14 -0.9,0.55 0,2.89 1,4.84 -1.81,1.26 -3.7,2.93 -3.15,3.83 0.55,0.9 2.9,0 4.85,-1 1.26,1.81 2.93,3.68 3.83,3.15 z m 1.54,-8.33 c 0.1,0.28 -0.85,1.46 -2.89,2.89 -0.16,-0.3 -0.33,-0.58 -0.48,-0.84 l -0.52,-0.82 c 2.21,-1.14 3.69,-1.45 3.89,-1.23 z M 196,104 c -0.3,0.18 -0.59,0.35 -0.87,0.5 q -0.27,-0.39 -0.54,-0.84 c -0.18,-0.3 -0.35,-0.59 -0.5,-0.87 0.27,-0.18 0.55,-0.36 0.85,-0.54 0.3,-0.18 0.58,-0.35 0.87,-0.51 l 0.54,0.85 c 0.18,0.3 0.34,0.59 0.5,0.87 -0.28,0.13 -0.56,0.31 -0.85,0.54 z m -3.47,-5.7 c 0.28,-0.1 1.46,0.85 2.9,2.89 -0.3,0.16 -0.58,0.33 -0.84,0.49 -0.26,0.16 -0.53,0.33 -0.82,0.52 -1.16,-2.26 -1.46,-3.75 -1.25,-3.95 z m -1.9,7.7 c -0.09,-0.28 0.86,-1.46 2.89,-2.9 l 0.49,0.84 c 0.16,0.26 0.33,0.54 0.52,0.82 -2.21,1.16 -3.7,1.46 -3.9,1.24 z m 4.87,-1 0.84,-0.49 0.82,-0.52 c 1.14,2.21 1.45,3.7 1.24,3.9 -0.21,0.2 -1.47,-0.89 -2.9,-2.89 z"
         style="opacity:0.5;fill:#ffffff"
         id="path371" />
      <path
         d="m 196.2,104.28 a 10.93,10.93 0 0 0 1.74,0.2 c 0.86,0 1.32,-0.14 1.4,-0.46 0.15,-0.63 -1.36,-1.28 -2.67,-1.68 0.24,-1.35 0.36,-3 -0.27,-3.14 -0.32,-0.08 -0.66,0.25 -1.05,1 a 10.93,10.93 0 0 0 -0.63,1.63 c -1.34,-0.24 -3,-0.36 -3.14,0.27 a 0.41,0.41 0 0 0 0.07,0.33 5.44,5.44 0 0 0 2.6,1.35 5.48,5.48 0 0 0 0,2.93 0.41,0.41 0 0 0 0.26,0.21 c 0.63,0.18 1.28,-1.33 1.69,-2.64 z m 2.79,-0.43 a 0.1,0.1 0 0 1 0,0.09 c 0,0.06 -0.24,0.22 -1.07,0.2 a 9.72,9.72 0 0 1 -1.65,-0.18 c 0.07,-0.23 0.13,-0.45 0.18,-0.64 0.05,-0.19 0.09,-0.42 0.14,-0.65 a 5.35,5.35 0 0 1 2.41,1.18 z m -3,0.05 -0.67,-0.14 -0.66,-0.18 c 0,-0.22 0.09,-0.44 0.15,-0.67 0.06,-0.23 0.11,-0.45 0.17,-0.67 l 0.68,0.15 0.66,0.18 c 0,0.21 -0.09,0.43 -0.15,0.67 -0.06,0.24 -0.17,0.45 -0.17,0.66 z m -0.31,-3.53 c 0.37,-0.74 0.62,-0.86 0.68,-0.85 l 0.07,0.06 a 5.46,5.46 0 0 1 -0.05,2.66 c -0.23,-0.07 -0.45,-0.13 -0.65,-0.17 l -0.65,-0.15 a 12,12 0 0 1 0.57,-1.55 z m -3.74,1.84 c 0,-0.2 1,-0.33 2.72,0 -0.07,0.21 -0.12,0.43 -0.18,0.65 -0.06,0.22 -0.09,0.42 -0.14,0.65 -1.66,-0.51 -2.48,-1.11 -2.43,-1.3 z m 2.68,4.42 c -0.19,0 -0.32,-1 0,-2.73 l 0.64,0.18 0.66,0.14 c -0.56,1.64 -1.13,2.45 -1.33,2.41 z"
         style="fill:#ffffff"
         id="path373" />
      <path
         d="m 275.13,120.34 a 11.58,11.58 0 0 0 1.27,-1.21 c 0.57,-0.65 0.75,-1.1 0.55,-1.37 -0.38,-0.52 -1.85,0.22 -3,1 -0.87,-1 -2.05,-2.21 -2.57,-1.82 -0.27,0.19 -0.24,0.67 0.11,1.46 a 10.51,10.51 0 0 0 0.84,1.54 c -1.05,0.87 -2.2,2 -1.82,2.57 a 0.42,0.42 0 0 0 0.3,0.17 5.53,5.53 0 0 0 2.7,-1.12 c 0.72,0.86 1.64,1.8 2.24,1.89 a 0.41,0.41 0 0 0 0.33,-0.07 c 0.53,-0.38 -0.21,-1.89 -0.95,-3.04 z m 1.47,-2.42 c 0,0 0.07,0 0.08,0 0.01,0 0,0.33 -0.53,1 a 11.22,11.22 0 0 1 -1.2,1.15 l -0.38,-0.55 -0.41,-0.53 a 5.5,5.5 0 0 1 2.44,-1.07 z m -1.91,2.35 -0.55,0.42 -0.56,0.39 c -0.14,-0.17 -0.27,-0.35 -0.42,-0.55 l -0.39,-0.56 c 0.17,-0.14 0.35,-0.27 0.55,-0.42 l 0.56,-0.39 q 0.21,0.25 0.42,0.54 z m -2.9,-2 c -0.33,-0.76 -0.27,-1 -0.22,-1.06 a 0.15,0.15 0 0 1 0.1,0 5.56,5.56 0 0 1 2,1.75 l -0.55,0.38 -0.53,0.41 a 10.93,10.93 0 0 1 -0.8,-1.52 z m -1,4 c -0.12,-0.17 0.42,-1 1.73,-2.1 l 0.38,0.55 0.41,0.53 c -1.45,0.93 -2.41,1.19 -2.53,1.03 z m 5.11,0.79 c -0.16,0.12 -1,-0.42 -2.1,-1.73 l 0.55,-0.38 0.53,-0.41 c 0.91,1.46 1.17,2.46 1.01,2.53 z"
         style="fill:#ffffff"
         id="path375" />
      <path
         d="m 280,121.09 c 0.16,-1 -2.22,-1.86 -4.37,-2.34 0.2,-2.19 0.15,-4.71 -0.9,-4.87 -1.05,-0.16 -1.86,2.22 -2.34,4.37 -2.19,-0.2 -4.71,-0.15 -4.87,0.9 -0.16,1.05 2.22,1.86 4.37,2.34 -0.2,2.19 -0.15,4.71 0.9,4.87 1.05,0.16 1.86,-2.22 2.34,-4.37 2.16,0.2 4.68,0.14 4.87,-0.9 z m -5.37,-6.55 c 0.27,0.1 0.56,1.59 0.35,4.07 -0.34,-0.06 -0.66,-0.12 -1,-0.16 l -1,-0.13 c 0.6,-2.43 1.33,-3.77 1.62,-3.78 z m 0.15,5.74 q -0.09,0.51 -0.18,1 c -0.32,0 -0.65,-0.08 -1,-0.14 l -1,-0.17 c 0,-0.32 0.08,-0.65 0.14,-1 0.06,-0.35 0.11,-0.67 0.17,-1 l 1,0.13 1,0.18 c -0.07,0.32 -0.11,0.65 -0.16,1 z m -6.6,-1 c 0.1,-0.27 1.59,-0.56 4.08,-0.35 -0.07,0.34 -0.13,0.66 -0.17,1 -0.04,0.34 -0.09,0.62 -0.13,1 -2.46,-0.66 -3.79,-1.39 -3.81,-1.68 z m 4.71,6.45 c -0.27,-0.1 -0.56,-1.59 -0.35,-4.08 0.34,0.07 0.66,0.13 1,0.17 l 1,0.13 c -0.66,2.4 -1.38,3.73 -1.68,3.75 z m 2.38,-4.36 c 0.06,-0.34 0.12,-0.66 0.16,-1 0.04,-0.34 0.09,-0.62 0.13,-1 2.43,0.55 3.77,1.27 3.78,1.57 0.01,0.3 -1.62,0.61 -4.1,0.4 z"
         style="fill:#ffffff"
         id="path377" />
      <path
         d="m 280,121.09 c 0.16,-1 -2.22,-1.86 -4.37,-2.34 0.2,-2.19 0.15,-4.71 -0.9,-4.87 -1.05,-0.16 -1.86,2.22 -2.34,4.37 -2.19,-0.2 -4.71,-0.15 -4.87,0.9 -0.16,1.05 2.22,1.86 4.37,2.34 -0.2,2.19 -0.15,4.71 0.9,4.87 1.05,0.16 1.86,-2.22 2.34,-4.37 2.16,0.2 4.68,0.14 4.87,-0.9 z m -5.37,-6.55 c 0.27,0.1 0.56,1.59 0.35,4.07 -0.34,-0.06 -0.66,-0.12 -1,-0.16 l -1,-0.13 c 0.6,-2.43 1.33,-3.77 1.62,-3.78 z m 0.15,5.74 q -0.09,0.51 -0.18,1 c -0.32,0 -0.65,-0.08 -1,-0.14 l -1,-0.17 c 0,-0.32 0.08,-0.65 0.14,-1 0.06,-0.35 0.11,-0.67 0.17,-1 l 1,0.13 1,0.18 c -0.07,0.32 -0.11,0.65 -0.16,1 z m -6.6,-1 c 0.1,-0.27 1.59,-0.56 4.08,-0.35 -0.07,0.34 -0.13,0.66 -0.17,1 -0.04,0.34 -0.09,0.62 -0.13,1 -2.46,-0.66 -3.79,-1.39 -3.81,-1.68 z m 4.71,6.45 c -0.27,-0.1 -0.56,-1.59 -0.35,-4.08 0.34,0.07 0.66,0.13 1,0.17 l 1,0.13 c -0.66,2.4 -1.38,3.73 -1.68,3.75 z m 2.38,-4.36 c 0.06,-0.34 0.12,-0.66 0.16,-1 0.04,-0.34 0.09,-0.62 0.13,-1 2.43,0.55 3.77,1.27 3.78,1.57 0.01,0.3 -1.62,0.61 -4.1,0.4 z"
         style="opacity:0.5;fill:#ffffff"
         id="path379" />
    </g>
    <path
       d="m 197.58,191.13 1.86,-15.87 10.89,-11.38 a 2.75,2.75 0 0 0 3.37,-0.47 v 0 a 2.76,2.76 0 0 0 -0.09,-3.9 L 210,156 a 2.76,2.76 0 0 0 -3.9,0.09 v 0 a 2.78,2.78 0 0 0 -0.32,3.4 l -10.88,11.38 -15.77,2.57 a 3.72,3.72 0 0 0 -2,6.35 l 14.21,13.58 a 3.71,3.71 0 0 0 6.24,-2.24 z"
       style="fill:#ffffff;stroke:#263238;stroke-linecap:round;stroke-linejoin:round"
       id="path383" />
    <path
       d="m 197.58,191.13 1.86,-15.87 10.89,-11.38 a 2.75,2.75 0 0 0 3.37,-0.47 v 0 a 2.76,2.76 0 0 0 -0.09,-3.9 L 210,156 a 2.76,2.76 0 0 0 -3.9,0.09 v 0 a 2.78,2.78 0 0 0 -0.32,3.4 l -10.88,11.38 -15.77,2.57 a 3.72,3.72 0 0 0 -2,6.35 l 14.21,13.58 a 3.71,3.71 0 0 0 6.24,-2.24 z"
       style="opacity:0.6;fill:#ffffff;stroke:#263238;stroke-linecap:round;stroke-linejoin:round"
       id="path385" />
    <path
       d="m 195.91,189.68 0.77,-6.57 c -0.29,0.29 -2.59,-1.45 -5.15,-3.9 -2.56,-2.45 -4.39,-4.66 -4.12,-5 l -6.53,1.07 a 2.05,2.05 0 0 0 -1.09,3.51 l 12.66,12.1 a 2.05,2.05 0 0 0 3.46,-1.24 z"
       style="fill:#439a86;stroke:#263238;stroke-linecap:round;stroke-linejoin:round"
       id="path387" />
    <path
       d="m 196.68,183.11 c -0.28,0.3 -2.59,-1.45 -5.15,-3.9 -2.56,-2.45 -4.41,-4.68 -4.12,-5 0.29,-0.32 2.59,1.45 5.15,3.9 2.56,2.45 4.44,4.7 4.12,5 z"
       style="fill:#ffffff;stroke:#263238;stroke-linecap:round;stroke-linejoin:round"
       id="path389" />
    <path
       d="m 196.68,183.11 c -0.28,0.3 -2.59,-1.45 -5.15,-3.9 -2.56,-2.45 -4.41,-4.68 -4.12,-5 0.29,-0.32 2.59,1.45 5.15,3.9 2.56,2.45 4.44,4.7 4.12,5 z"
       style="fill:#263238;stroke:#263238;stroke-linecap:round;stroke-linejoin:round"
       id="path391" />
    <path
       d="m 346.52,169.86 a 3.48,3.48 0 0 1 -3.5,3.67 2.3,2.3 0 0 1 -2.34,-1.35 l -0.71,3.57 h -0.83 l 1.68,-8.45 h 0.8 l -0.2,1 a 3.09,3.09 0 0 1 2.4,-1 2.49,2.49 0 0 1 2.7,2.56 z m -0.84,0 a 1.81,1.81 0 0 0 -2,-1.93 2.7,2.7 0 0 0 -2.67,2.9 1.8,1.8 0 0 0 2,1.91 2.69,2.69 0 0 0 2.67,-2.83 z"
       style="fill:#ffffff"
       id="path393" />
    <path
       d="m 347.83,167.67 h 5.1 v 0.69 h -5.1 z m 0,2.71 h 5.1 v 0.69 h -5.1 z"
       style="fill:#ffffff"
       id="path395" />
    <path
       d="m 364.67,179.26 h -4.59 l -1.42,2.2 h -0.94 l 5.4,-8.22 H 364 l 2.11,8.22 h -0.87 z m -0.17,-0.7 -1.11,-4.44 -2.86,4.44 z"
       style="fill:#ffffff"
       id="path397" />
    <path
       d="m 361.38,157.3 -0.64,3.23 H 365 l -0.16,0.75 h -4.26 l -0.69,3.48 H 359 l 1.64,-8.21 h 5.63 l -0.15,0.75 z"
       style="fill:#ffffff"
       id="path399" />
    <path
       d="m 357.7,169.32 h 5.86 l -0.11,0.57 h -5.87 z"
       style="fill:#ffffff"
       id="path401" />
    <path
       d="m 349.46,128.59 a 6.14,6.14 0 0 1 -2.86,-3.77 11.68,11.68 0 0 1 -0.19,-4.82 11.13,11.13 0 0 1 1.51,-4.58 5.65,5.65 0 0 1 3.89,-2.65 5.86,5.86 0 0 1 4.36,1.43 8.24,8.24 0 0 1 -0.7,13.28 c -1.83,1.21 -3.86,2.26 -6.01,1.11 z"
       style="fill:#439a86;stroke:#263238;stroke-linecap:round;stroke-linejoin:round"
       id="path403" />
    <path
       d="m 367.53,111.74 a 12.76,12.76 0 0 1 2,17.08 c -1.33,1.72 -3.16,3.15 -3.86,5.21 -0.45,1.31 -0.44,2.87 -1.39,3.88 -1.25,1.34 -3.41,1 -5.19,0.57 a 14,14 0 0 1 -4.81,-1.83 4.74,4.74 0 0 1 -2.18,-4.4 c 0.14,-0.85 0.94,-4.3 0.24,-4.8 -0.7,-0.5 -4.05,-0.65 -3.92,-2.53 0.07,-1.15 2,-2.06 3.13,-2 -2.59,-0.5 -4.92,1.88 -4.92,1.88 -1.77,-4.21 0.58,-9.75 1.55,-11.5 1.7,-3 5.28,-4.65 8.75,-4.72 a 17.74,17.74 0 0 1 10.6,3.16 z"
       style="fill:#ffffff;stroke:#263238;stroke-linecap:round;stroke-linejoin:round"
       id="path405" />
    <path
       d="m 361.9,119.9 a 4.52,4.52 0 0 1 -2.57,2.64 3.8,3.8 0 0 1 -3.62,-0.12 3.13,3.13 0 0 1 -1.16,-3.27 4.07,4.07 0 0 1 2.38,-2.66 5.05,5.05 0 0 1 3.89,-0.14 3.23,3.23 0 0 1 1.08,3.55 z"
       style="fill:#263238;stroke:#263238;stroke-linecap:round;stroke-linejoin:round"
       id="path407" />
    <path
       d="m 365.11,119.87 a 4.06,4.06 0 0 0 -0.27,3.31 3.42,3.42 0 0 0 2.22,2.4 2.83,2.83 0 0 0 2.92,-1.16 3.7,3.7 0 0 0 0.4,-3.19 4.61,4.61 0 0 0 -2.22,-2.74 2.91,2.91 0 0 0 -3.05,1.38 z"
       style="fill:#263238;stroke:#263238;stroke-linecap:round;stroke-linejoin:round"
       id="path409" />
    <path
       d="m 363.2,127.28 a 0.87,0.87 0 0 1 -1.18,0.5 c -0.44,-0.21 -0.24,-0.61 -0.23,-1.1 -0.16,0.5 -0.43,0.93 -1.12,0.8 a 1.07,1.07 0 0 1 -0.89,-0.88 0.78,0.78 0 0 1 0.24,-0.71 c 0.19,-0.18 2,-1.15 2.29,-1 a 5.38,5.38 0 0 1 0.89,2.39 z"
       style="fill:#263238;stroke:#263238;stroke-linecap:round;stroke-linejoin:round"
       id="path411" />
    <path
       d="m 355.44,131.79 a 1.22,1.22 0 0 0 -0.3,1.42 1.18,1.18 0 0 0 1.32,0.6 1.16,1.16 0 0 0 0.81,-1.2 2.11,2.11 0 0 0 -0.11,1.48 1.75,1.75 0 0 0 2.54,0.76 3.75,3.75 0 0 0 1,-1.38 1.46,1.46 0 0 0 0.14,1.68 c 0.48,0.39 0.92,0.57 1.43,0.22 a 1.27,1.27 0 0 0 0.62,-1.45"
       style="fill:#ffffff;stroke:#263238;stroke-linecap:round;stroke-linejoin:round"
       id="path413" />
    <path
       d="m 363.85,134.11 c 0,0 -2.2,-0.35 -2.73,-0.49 a 45,45 0 0 1 -7,-2.19 3.7,3.7 0 0 0 -0.29,-2.67 2,2 0 0 1 0.75,2.37 31.75,31.75 0 0 0 9.25,2.61 c 0.27,-0.56 0.59,-1.44 1.33,-1.17 0,0 -0.7,0.13 -1.31,1.54 z"
       style="fill:#ffffff;stroke:#263238;stroke-linecap:round;stroke-linejoin:round"
       id="path415" />
    <path
       d="m 354.91,131.21 a 1,1 0 0 1 0.83,-1.23 1.38,1.38 0 0 1 1.39,0.73 2.07,2.07 0 0 1 0.09,1.62 2.64,2.64 0 0 1 1,-1.33 1.68,1.68 0 0 1 1.95,0.25 1.72,1.72 0 0 1 0.31,1.95 2,2 0 0 1 1,-1.51 1.47,1.47 0 0 1 1.72,0.27 1.17,1.17 0 0 1 -0.12,1.67"
       style="fill:#ffffff;stroke:#263238;stroke-linecap:round;stroke-linejoin:round"
       id="path417" />
    <path
       d="m 288.49,156 c 0,0.2 0,0.4 0,0.59 a 0.13,0.13 0 0 1 0,0.06 9.9,9.9 0 0 1 -4.36,7.59 9.47,9.47 0 0 1 -1.24,0.71 v 0 a 10,10 0 0 1 -8.68,0 9.65,9.65 0 0 1 -1.17,-0.68 v 0 a 9.93,9.93 0 0 1 -2.6,-2.57 10.26,10.26 0 0 1 -0.82,-1.4 10,10 0 0 1 -0.94,-3.59 c 0,-0.22 0,-0.45 0,-0.68 0,-0.23 0,-0.44 0,-0.65 v 0 a 10.16,10.16 0 0 1 1,-3.66 10.32,10.32 0 0 1 0.83,-1.4 10,10 0 0 1 2.58,-2.53 9.19,9.19 0 0 1 1.19,-0.68 9.71,9.71 0 0 1 3.69,-1 h 0.67 0.36 a 9.85,9.85 0 0 1 3.94,1 8.78,8.78 0 0 1 1.19,0.69 v 0 a 9.92,9.92 0 0 1 4.34,7.54 q 0.02,0.3 0.02,0.66 z"
       style="fill:#ffffff;stroke:#263238;stroke-linecap:round;stroke-linejoin:round"
       id="path419" />
    <path
       d="m 276.67,171.65 a 2.67,2.67 0 0 0 0.42,-1.13 0.34,0.34 0 0 1 0,-0.1 c 0.07,-0.52 0.66,-3.95 0.71,-4.5 q 0.4,0 0.84,0 h 0.76 c 0.06,0.54 0.76,4 0.83,4.49 a 1.1,1.1 0 0 1 0,0.18 2.4,2.4 0 0 0 0.36,1 1.14,1.14 0 0 1 0.17,0.71 1.09,1.09 0 0 1 -2.12,0.21 v 0 a 1.09,1.09 0 0 1 -1.11,0.76 1.1,1.1 0 0 1 -1,-1 1.12,1.12 0 0 1 0.14,-0.62 z"
       style="fill:#439a86;stroke:#263238;stroke-linecap:round;stroke-linejoin:round"
       id="path421" />
    <path
       d="m 280.62,140.35 a 2.91,2.91 0 0 0 -0.41,1.13 c 0,0 0,0.07 0,0.1 -0.07,0.52 -0.67,3.95 -0.71,4.5 q -0.42,0 -0.84,0 h -0.77 c -0.05,-0.54 -0.76,-4 -0.82,-4.49 v -0.18 a 2.4,2.4 0 0 0 -0.36,-1 1,1 0 0 1 -0.16,-0.7 1.09,1.09 0 0 1 2.12,-0.22 v 0 a 1.08,1.08 0 0 1 1.1,-0.76 1.09,1.09 0 0 1 1,1 1,1 0 0 1 -0.15,0.62 z"
       style="fill:#439a86;stroke:#263238;stroke-linecap:round;stroke-linejoin:round"
       id="path423" />
    <path
       d="m 291.21,165.54 a 2.76,2.76 0 0 0 -0.77,-0.93 l -0.08,-0.06 c -0.42,-0.32 -3.09,-2.55 -3.54,-2.86 0.15,-0.23 0.3,-0.47 0.44,-0.72 0.14,-0.25 0.25,-0.44 0.37,-0.67 0.49,0.23 3.82,1.33 4.3,1.53 l 0.17,0.07 a 2.37,2.37 0 0 0 1.08,0.21 1.1,1.1 0 0 1 0.69,0.21 1.09,1.09 0 0 1 -0.88,1.94 v 0 a 1.09,1.09 0 0 1 -1.27,1.72 1.16,1.16 0 0 1 -0.51,-0.44 z"
       style="fill:#439a86;stroke:#263238;stroke-linecap:round;stroke-linejoin:round"
       id="path425" />
    <path
       d="m 266.08,146.47 a 2.85,2.85 0 0 0 0.77,0.92 l 0.08,0.06 c 0.42,0.32 3.09,2.55 3.54,2.86 -0.15,0.23 -0.3,0.47 -0.44,0.72 -0.14,0.25 -0.25,0.44 -0.36,0.67 -0.5,-0.23 -3.83,-1.33 -4.31,-1.53 l -0.17,-0.07 a 2.37,2.37 0 0 0 -1.08,-0.21 1.06,1.06 0 0 1 -0.69,-0.21 1.09,1.09 0 0 1 0.88,-1.94 v 0 a 1.09,1.09 0 0 1 1.26,-1.73 1,1 0 0 1 0.52,0.46 z"
       style="fill:#439a86;stroke:#263238;stroke-linecap:round;stroke-linejoin:round"
       id="path427" />
    <path
       d="m 293.19,149.89 a 2.69,2.69 0 0 0 -1.19,0.2 h -0.09 c -0.49,0.21 -3.75,1.4 -4.25,1.64 -0.12,-0.25 -0.26,-0.5 -0.4,-0.74 -0.14,-0.24 -0.26,-0.44 -0.4,-0.65 0.45,-0.32 3.07,-2.65 3.48,-3 l 0.15,-0.11 a 2.5,2.5 0 0 0 0.72,-0.83 1.09,1.09 0 1 1 1.77,1.24 v 0 a 1.09,1.09 0 0 1 0.87,1.95 1.05,1.05 0 0 1 -0.66,0.3 z"
       style="fill:#439a86;stroke:#263238;stroke-linecap:round;stroke-linejoin:round"
       id="path429" />
    <path
       d="m 264.11,162.11 a 2.65,2.65 0 0 0 1.18,-0.2 h 0.1 c 0.48,-0.2 3.75,-1.4 4.24,-1.64 0.13,0.25 0.26,0.5 0.4,0.74 0.14,0.24 0.26,0.44 0.4,0.66 -0.44,0.32 -3.06,2.65 -3.47,3 l -0.15,0.11 a 2.4,2.4 0 0 0 -0.72,0.83 1.12,1.12 0 0 1 -0.53,0.5 1.1,1.1 0 0 1 -1.31,-0.34 1.09,1.09 0 0 1 0.07,-1.39 v 0 a 1.08,1.08 0 0 1 -1.21,-0.57 1.09,1.09 0 0 1 0.35,-1.38 1,1 0 0 1 0.65,-0.32 z"
       style="fill:#439a86;stroke:#263238;stroke-linecap:round;stroke-linejoin:round"
       id="path431" />
    <path
       d="m 277.13,150.42 a 1.61,1.61 0 1 1 -1.6,-1.62 1.61,1.61 0 0 1 1.6,1.62 z"
       style="fill:#439a86;stroke:#263238;stroke-linecap:round;stroke-linejoin:round"
       id="path433" />
    <path
       d="m 280.25,156.05 a 1.61,1.61 0 1 1 -3.22,0 1.61,1.61 0 0 1 3.22,0 z"
       style="fill:#439a86;stroke:#263238;stroke-linecap:round;stroke-linejoin:round"
       id="path435" />
    <path
       d="m 283.39,161.6 a 1.61,1.61 0 1 1 -1.6,-1.62 1.62,1.62 0 0 1 1.6,1.62 z"
       style="fill:#439a86;stroke:#263238;stroke-linecap:round;stroke-linejoin:round"
       id="path437" />
    <path
       d="m 274.48,160 a 1.61,1.61 0 1 1 -0.65,2.18 1.61,1.61 0 0 1 0.65,-2.18 z"
       style="fill:#439a86;stroke:#263238;stroke-linecap:round;stroke-linejoin:round"
       id="path439" />
    <path
       d="m 281.28,149.16 a 1.61,1.61 0 1 1 -0.65,2.18 1.6,1.6 0 0 1 0.65,-2.18 z"
       style="fill:#439a86;stroke:#263238;stroke-linecap:round;stroke-linejoin:round"
       id="path441" />
    <path
       d="m 273,154.6 a 1.61,1.61 0 1 1 -2.19,0.64 1.61,1.61 0 0 1 2.19,-0.64 z"
       style="fill:#439a86;stroke:#263238;stroke-linecap:round;stroke-linejoin:round"
       id="path443" />
    <path
       d="m 285.83,154.58 a 1.62,1.62 0 0 1 0.63,2.19 1.61,1.61 0 0 1 -2.82,-1.55 1.61,1.61 0 0 1 2.19,-0.64 z"
       style="fill:#439a86;stroke:#263238;stroke-linecap:round;stroke-linejoin:round"
       id="path445" />
    <polyline
       points="270.19 145.12 271.85 144.16 273.51 143.2"
       style="fill:none;stroke:#ffffff;stroke-linecap:round;stroke-linejoin:round"
       id="polyline447" />
    <line
       x1="273.67999"
       y1="147.39999"
       x2="271.85001"
       y2="144.16"
       style="fill:none;stroke:#ffffff;stroke-linecap:round;stroke-linejoin:round"
       id="line449" />
    <polyline
       points="286.99 145.12 285.33 144.16 283.67 143.2"
       style="fill:none;stroke:#ffffff;stroke-linecap:round;stroke-linejoin:round"
       id="polyline451" />
    <line
       x1="283.5"
       y1="147.39999"
       x2="285.32999"
       y2="144.16"
       style="fill:none;stroke:#ffffff;stroke-linecap:round;stroke-linejoin:round"
       id="line453" />
    <polyline
       points="292.15 157.96 292.15 156.04 292.15 154.13"
       style="fill:none;stroke:#ffffff;stroke-linecap:round;stroke-linejoin:round"
       id="polyline455" />
    <line
       x1="288.42999"
       y1="156.09"
       x2="292.14999"
       y2="156.05"
       style="fill:none;stroke:#ffffff;stroke-linecap:round;stroke-linejoin:round"
       id="line457" />
    <polyline
       points="264.85 157.96 264.85 156.04 264.85 154.13"
       style="fill:none;stroke:#ffffff;stroke-linecap:round;stroke-linejoin:round"
       id="polyline459" />
    <line
       x1="268.57001"
       y1="156.09"
       x2="264.85001"
       y2="156.05"
       style="fill:none;stroke:#ffffff;stroke-linecap:round;stroke-linejoin:round"
       id="line461" />
    <polyline
       points="270.19 167.03 271.85 167.99 273.51 168.95"
       style="fill:none;stroke:#ffffff;stroke-linecap:round;stroke-linejoin:round"
       id="polyline463" />
    <line
       x1="273.67999"
       y1="164.74001"
       x2="271.85001"
       y2="167.99001"
       style="fill:none;stroke:#ffffff;stroke-linecap:round;stroke-linejoin:round"
       id="line465" />
    <polyline
       points="286.99 167.03 285.33 167.99 283.67 168.95"
       style="fill:none;stroke:#ffffff;stroke-linecap:round;stroke-linejoin:round"
       id="polyline467" />
    <line
       x1="283.5"
       y1="164.74001"
       x2="285.32999"
       y2="167.99001"
       style="fill:none;stroke:#ffffff;stroke-linecap:round;stroke-linejoin:round"
       id="line469" />
    <path
       d="m 331.94,216.84 c 0.86,-1.41 1.41,-3.28 0.52,-4.67 -0.89,-1.39 -3,-1.67 -4.82,-1.69 1.4,-2.44 0.11,-5.86 -2.38,-7.17 a 7.4,7.4 0 0 0 -7.88,1.1 11.62,11.62 0 0 0 -3.81,7.31 c -0.42,2.73 0.15,4.75 2.46,6.29 1.66,1.11 2.43,2.63 3.92,3.8 3.66,2.89 10.05,-1.81 11.99,-4.97 z"
       style="fill:#439a86;stroke:#263238;stroke-linecap:round;stroke-linejoin:round"
       id="path471" />
    <path
       d="m 327.15,210.94 c 0.33,-0.37 4,-3.94 4.22,-3.68 a 1.75,1.75 0 0 0 1,0.49"
       style="fill:#ffffff;stroke:#263238;stroke-linecap:round;stroke-linejoin:round"
       id="path473" />
    <path
       d="m 332.39,208.57 a 12.82,12.82 0 0 1 2.74,0.56 6.61,6.61 0 0 1 -2.56,1.53 3.36,3.36 0 0 1 -2.8,-0.56 c -1.46,-1.1 1.97,-1.57 2.62,-1.53 z"
       style="fill:#263238;stroke:#263238;stroke-linecap:round;stroke-linejoin:round"
       id="path475" />
    <path
       d="m 324.81,205.47 a 0.85,0.85 0 0 0 -1.3,-0.47 0.82,0.82 0 1 0 1.34,0.56 z"
       style="fill:#ffffff;stroke:#263238;stroke-linecap:round;stroke-linejoin:round"
       id="path477" />
    <path
       d="m 320.67,205.22 c -2.58,-0.23 -4.89,4.21 -5.17,6.05"
       style="fill:none;stroke:#263238;stroke-linecap:round;stroke-linejoin:round"
       id="path479" />
    <path
       d="m 190.64,132.44 v 0 l -0.49,-0.61 a 16.45,16.45 0 0 0 -5.46,-4.3 15.84,15.84 0 0 0 -7,-1.6 16.3,16.3 0 0 0 -15.42,11.33 16.93,16.93 0 0 0 -0.65,2.66 c 0,0.29 0,0.57 0,0.86 a 9.26,9.26 0 0 0 3.75,7.49 l 0.57,-0.4 a 10.06,10.06 0 0 1 6.16,-2.12 l 6.29,0.53 a 1.79,1.79 0 0 1 1,0 4.05,4.05 0 0 0 0.5,0.12 l 0.73,0.06 a 4.27,4.27 0 0 0 4.17,-3.59 5,5 0 0 0 0.55,0 6.53,6.53 0 0 0 6.47,-6.62 6.7,6.7 0 0 0 -1.17,-3.81 z"
       style="fill:#ffffff;stroke:#263238;stroke-linecap:round;stroke-linejoin:round"
       id="path481" />
    <path
       d="m 178.4,146.27 a 1.9,1.9 0 0 0 -0.93,0.61 8.93,8.93 0 0 1 -6.79,3.14 8.79,8.79 0 0 1 -5.3,-1.76 l 0.57,-0.4 a 10.06,10.06 0 0 1 6.16,-2.12 z"
       style="fill:#439a86;stroke:#263238;stroke-linecap:round;stroke-linejoin:round"
       id="path483" />
    <path
       d="m 177.76,146.6 -3.76,6.8 a 0.86,0.86 0 0 1 -0.75,0.44 0.88,0.88 0 0 1 -0.86,-1 l 0.37,-3.05 v 0 h 0.13 0.08 0.14 l 0.58,-0.19 0.19,-0.07 c 0.26,-0.11 0.52,-0.22 0.77,-0.35 l 0.2,-0.11 0.42,-0.24 0.2,-0.12 0.2,-0.14 0.19,-0.13 0.16,-0.12 0.22,-0.17 0.18,-0.15 a 9.63,9.63 0 0 0 1,-1"
       style="fill:#263238;stroke:#263238;stroke-linecap:round;stroke-linejoin:round"
       id="path485" />
    <path
       d="m 172.47,138 c 0.48,0 10.47,-1.12 12.3,4.86"
       style="fill:#ffffff;stroke:#263238;stroke-linecap:round;stroke-linejoin:round"
       id="path487" />
    <path
       d="m 175.76,126.17 c 4,0.87 2.56,6.73 2.6,6.78"
       style="fill:#ffffff;stroke:#263238;stroke-linecap:round;stroke-linejoin:round"
       id="path489" />
    <path
       d="m 180.5,126.09 a 2.65,2.65 0 0 0 -2.18,2.2"
       style="fill:#ffffff;stroke:#263238;stroke-linecap:round;stroke-linejoin:round"
       id="path491" />
    <path
       d="m 169.92,133.23 a 4.61,4.61 0 0 0 -3.08,3.74 4.71,4.71 0 0 0 2,4.44"
       style="fill:#ffffff;stroke:#263238;stroke-linecap:round;stroke-linejoin:round"
       id="path493" />
    <path
       d="m 167.49,140.23 a 2.89,2.89 0 0 0 -1,3.63"
       style="fill:#ffffff;stroke:#263238;stroke-linecap:round;stroke-linejoin:round"
       id="path495" />
    <path
       d="m 191.72,137.56 a 2.28,2.28 0 0 0 -0.93,-1.82 2.16,2.16 0 0 0 -2,-0.3 4.13,4.13 0 0 0 -1.63,-3.17 3.93,3.93 0 0 0 -3.45,-0.55"
       style="fill:#ffffff;stroke:#263238;stroke-linecap:round;stroke-linejoin:round"
       id="path497" />
    <path
       d="m 186.7,138.34 a 5.2,5.2 0 0 0 -3.08,2.48"
       style="fill:#ffffff;stroke:#263238;stroke-linecap:round;stroke-linejoin:round"
       id="path499" />
    <path
       d="m 175.93,135.75 a 4,4 0 0 0 0.39,2.13"
       style="fill:#ffffff;stroke:#263238;stroke-linecap:round;stroke-linejoin:round"
       id="path501" />
    <path
       d="m 170.74,136.12 c 0,0 1.73,1.77 1.7,1.76 L 171,139"
       style="fill:#ffffff;stroke:#263238;stroke-linecap:round;stroke-linejoin:round"
       id="path503" />
    <path
       d="m 166,142.25 a 2.3,2.3 0 0 0 -1.77,-0.43 2.37,2.37 0 0 0 -1.53,1"
       style="fill:#ffffff;stroke:#263238;stroke-linecap:round;stroke-linejoin:round"
       id="path505" />
    <path
       d="m 180.67,136 a 4,4 0 0 0 -0.92,2.42"
       style="fill:#ffffff;stroke:#263238;stroke-linecap:round;stroke-linejoin:round"
       id="path507" />
  </g>
  <g
     id="freepik--character--inject-11"
     transform="translate(-25.28,-53.159996)">
    <path
       d="m 249.43,403.1 c -3.87,-2.44 -11.62,-10.87 -13,-13.84 -1.38,-2.97 -2.83,-3.19 -5.67,-4.75 -8,-4.38 -12.23,-6.81 -8.91,-12.11 a 10.79,10.79 0 0 1 2.35,-2.58 11.67,11.67 0 0 0 4.27,-8.1 53.8,53.8 0 0 0 0.11,-8.7 c 2.54,2 5.62,4.11 13.23,4.51 l -1.06,10.94 c -0.74,9.3 6.61,19.91 8.9,26.87 0.29,0.87 0.43,2.06 1,2.54 a 8,8 0 0 1 2,2.15 2.31,2.31 0 0 1 -3.22,3.07 z"
       style="fill:#ffffff;stroke:#263238;stroke-linecap:round;stroke-linejoin:round"
       id="path510" />
    <path
       d="m 232.83,366.77 a 8.27,8.27 0 0 0 -1.63,2.41 2.54,2.54 0 0 0 0.32,2.63"
       style="fill:none;stroke:#263238;stroke-linecap:round;stroke-linejoin:round"
       id="path512" />
    <path
       d="m 234.46,384.5 c 0.17,3 4.63,8.65 6.68,10.87"
       style="fill:none;stroke:#263238;stroke-linecap:round;stroke-linejoin:round"
       id="path514" />
    <path
       d="m 247.91,395.47 a 10.56,10.56 0 0 0 2.5,2.31"
       style="fill:none;stroke:#263238;stroke-linecap:round;stroke-linejoin:round"
       id="path516" />
    <path
       d="m 230.16,382.25 a 11.13,11.13 0 0 1 -6.47,-2.4"
       style="fill:none;stroke:#263238;stroke-linecap:round;stroke-linejoin:round"
       id="path518" />
    <path
       d="m 245.82,397.92 a 8.25,8.25 0 0 0 3.93,5.16"
       style="fill:#ffffff;stroke:#263238;stroke-linecap:round;stroke-linejoin:round"
       id="path520" />
    <path
       d="m 253.63,300 -10.4,57.6 c -0.48,0 -0.93,-0.05 -1.39,-0.09 -6.78,-0.58 -10.86,-2.65 -13.23,-4.52 -1.15,-12.86 -0.63,-29 -0.7,-33 -0.22,-14.21 5,-21.16 5,-21.16 0,0 -22.21,2.44 -45,2.94 -6.61,0.14 -13.28,0.12 -19.47,-0.16 4.22,-1.68 12.06,-10.66 14.2,-13.17 -17.71,15.1 -32.75,11.05 -35.85,9.89 l 0.43,0.22 0.72,0.35 a 24,24 0 0 1 -5.21,-2.05 c -15.9,-9 -14.31,-25.15 -13,-33.38 0.14,-0.92 0.28,-1.74 0.39,-2.43 0,0 10.53,0.62 25.37,1.92 5.19,0.46 10.9,1 16.87,1.61 8.15,0.86 16.78,1.86 25.24,3.05 2.16,0.28 4.3,0.61 6.42,0.92 1.81,0.27 3.61,0.56 5.37,0.85 1.38,0.22 2.72,0.45 4.06,0.68 l 3.09,0.56 c 0.33,0.07 0.67,0.13 1,0.18 0,0 0,0 0,0 16.32,3.07 29.4,6.91 32.87,11.56 5.84,7.94 3.22,17.63 3.22,17.63 z"
       style="fill:#bfbfbf;stroke:#263238;stroke-linecap:round;stroke-linejoin:round"
       id="path522" />
    <path
       d="m 216.43,286.64 q 3.23,-2 6.27,-4.31"
       style="fill:none;stroke:#263238;stroke-linecap:round;stroke-linejoin:round"
       id="path524" />
    <path
       d="m 166.7,300.8 a 92.87,92.87 0 0 0 43.13,-10.38"
       style="fill:none;stroke:#263238;stroke-linecap:round;stroke-linejoin:round"
       id="path526" />
    <path
       d="m 254.15,293.12 a 28.57,28.57 0 0 1 -8.45,18.46"
       style="fill:none;stroke:#263238;stroke-linecap:round;stroke-linejoin:round"
       id="path528" />
    <path
       d="m 236.5,295.3 -4.67,5.94"
       style="fill:none;stroke:#263238;stroke-linecap:round;stroke-linejoin:round"
       id="path530" />
    <path
       d="m 182.56,288.45 c -2.14,2.51 -10,11.49 -14.2,13.17 -8,-0.38 -15.21,-1.2 -20.5,-2.71 l -0.72,-0.35 -0.43,-0.22 c 3.1,1.16 18.14,5.21 35.85,-9.89 z"
       style="fill:#263238;stroke:#263238;stroke-linecap:round;stroke-linejoin:round"
       id="path532" />
    <path
       d="m 146,298.06 a 3.48,3.48 0 0 1 0.63,0.26 4.53,4.53 0 0 1 -0.63,-0.26 z"
       style="fill:#263238;stroke:#263238;stroke-linecap:round;stroke-linejoin:round"
       id="path534" />
    <path
       d="m 185,286.25 c -0.82,0.78 -1.64,1.51 -2.45,2.2 l 0.54,-0.65 z"
       style="fill:#263238;stroke:#263238;stroke-linecap:round;stroke-linejoin:round"
       id="path536" />
    <path
       d="m 317,303.08 c -4.54,0.89 -16.08,0.05 -19.12,-1.21 -3.04,-1.26 -4.29,-0.39 -7.46,0.42 -8.89,2.29 -13.72,3.46 -14.95,-2.74 a 10.91,10.91 0 0 1 0,-3.52 11.82,11.82 0 0 0 -2.46,-8.92 55.33,55.33 0 0 0 -5.94,-6.48 c 3.25,-0.28 7,-0.86 12.86,-5.83 l 6.77,8.78 c 5.9,7.36 18.65,10.08 25.15,13.62 0.81,0.44 1.74,1.22 2.52,1.15 a 8.06,8.06 0 0 1 2.95,0.21 2.34,2.34 0 0 1 -0.32,4.52 z"
       style="fill:#ffffff;stroke:#263238;stroke-linecap:round;stroke-linejoin:round"
       id="path538" />
    <path
       d="m 279.61,287.83 a 8.77,8.77 0 0 0 0.47,2.9 2.53,2.53 0 0 0 2.06,1.71"
       style="fill:none;stroke:#263238;stroke-linecap:round;stroke-linejoin:round"
       id="path540" />
    <path
       d="m 293.07,299.75 c 2.21,2.1 9.4,3.16 12.44,3.38"
       style="fill:none;stroke:#263238;stroke-linecap:round;stroke-linejoin:round"
       id="path542" />
    <path
       d="m 288.36,301.07 a 11.32,11.32 0 0 1 -6.42,2.71"
       style="fill:none;stroke:#263238;stroke-linecap:round;stroke-linejoin:round"
       id="path544" />
    <path
       d="m 311.44,301.89 a 6.62,6.62 0 0 0 5.74,0.95"
       style="fill:#ffffff;stroke:#263238;stroke-linecap:round;stroke-linejoin:round"
       id="path546" />
    <path
       d="m 281,273.91 a 29.63,29.63 0 0 1 -15.58,6.91 c -9.75,-8.67 -19.43,-20.32 -22.38,-23.1 -6.65,-6.26 -10.35,-19.9 -10.35,-19.9 0,0 -14.69,17.18 -31.15,33.32 -13.29,13.05 -27.76,25.45 -36.65,27.63 -17.92,4.39 -28,-5.35 -32.77,-12.29 -0.53,-0.77 -2.51,-6.65 -2.91,-7.24 A 141.92,141.92 0 0 0 150.81,265 c 4.13,-3.25 8.7,-6.81 13.52,-10.48 6.59,-5 13.64,-10.24 20.68,-15.22 2,-0.43 4.39,-1 6.1,-1.44 a 3.76,3.76 0 0 0 1.91,-1.34 l 0.31,0.11 6.47,-6.9 a 4.85,4.85 0 0 0 1.47,-1.17 l 0.64,-0.72 v 0 c 14.14,-9 26.41,-15.25 32.19,-14.23 9.84,1.73 14.63,10.69 14.63,10.69 z"
       style="fill:#bfbfbf;stroke:#263238;stroke-linecap:round;stroke-linejoin:round"
       id="path548" />
    <path
       d="m 201.91,227.87 -0.64,0.72 a 4.85,4.85 0 0 1 -1.47,1.17 l -6.47,6.9 -0.31,-0.11 a 3.76,3.76 0 0 1 -1.91,1.34 c -1.71,0.46 -4.15,1 -6.1,1.44 1.79,-1.28 3.59,-2.53 5.37,-3.76 q 2.28,-1.59 4.54,-3.1 l 3.45,-2.3 2.66,-1.73 c 0.29,-0.18 0.59,-0.37 0.88,-0.57 z"
       style="fill:#ffffff;stroke:#263238;stroke-linecap:round;stroke-linejoin:round"
       id="path550" />
    <path
       d="m 308,298 c 2,0.56 2.91,1.39 4.89,2 0.55,0.15 2.16,0 2.64,0.34 a 2,2 0 0 1 1,1.33 1.23,1.23 0 0 1 -0.75,1.36"
       style="fill:none;stroke:#263238;stroke-linecap:round;stroke-linejoin:round"
       id="path552" />
    <path
       d="m 310.82,297.72 a 8.8,8.8 0 0 0 5.16,1.39 2,2 0 0 1 2,1.41 1.74,1.74 0 0 1 -0.54,2.11"
       style="fill:none;stroke:#263238;stroke-linecap:round;stroke-linejoin:round"
       id="path554" />
    <path
       d="m 171.05,232.34 -14.76,5.33 -3.29,-8.61 28.36,-8.75 c 0,0 -1.69,2.82 -6.25,9.72 -2.92,4.39 -4.06,2.31 -4.06,2.31 z"
       style="fill:#439a86"
       id="path556" />
    <g
       clip-path="url(#freepik--clip-path--inject-11)"
       id="g562">
      <path
         d="m 171.05,232.34 -14.76,5.33 -3.29,-8.61 28.36,-8.75 c 0,0 -1.69,2.82 -6.25,9.72 -2.92,4.39 -4.06,2.31 -4.06,2.31 z"
         style="fill:#439a86;stroke:#263238;stroke-linecap:round;stroke-linejoin:round"
         id="path558" />
      <path
         d="m 157.07,235 a 2.8,2.8 0 0 0 2.36,1.14 8.44,8.44 0 0 0 2.65,-0.57 l 8.32,-2.74 a 11.61,11.61 0 0 0 3.36,-1.52 c 2.26,-1.67 9.16,-6.28 4.08,-5.44 -4.49,0.71 -21.46,8.03 -20.77,9.13 z"
         style="opacity:0.2;fill:#263238"
         id="path560" />
    </g>
    <path
       d="m 171.05,232.34 -14.76,5.33 -3.29,-8.61 28.36,-8.75 c 0,0 -1.69,2.82 -6.25,9.72 -2.92,4.39 -4.06,2.31 -4.06,2.31 z"
       style="fill:none;stroke:#263238;stroke-linecap:round;stroke-linejoin:round"
       id="path564" />
    <path
       d="m 134.47,182.61 c 0.34,1.46 -1.81,3.74 -3.31,3.59 a 7.22,7.22 0 0 1 -3.82,-2.23 l -8.92,-8.11 a 3.83,3.83 0 0 1 -1.34,-1.8 1.5,1.5 0 0 1 0.55,-1.58 c 0,0 0,0 0,0 a 3.13,3.13 0 0 1 0.4,-0.12 v 0 h 0.22 a 13,13 0 0 0 3.78,-9.76 c 3,-0.52 6.05,1.07 8.09,3.34 2.04,2.27 5.86,2 7,4.85 -1.07,0.73 -4,5.32 -4.45,6.56 a 4.94,4.94 0 0 0 -0.3,1.37 6.09,6.09 0 0 0 1.79,4.83 z"
       style="fill:#ffffff;stroke:#263238;stroke-linecap:round;stroke-linejoin:round"
       id="path566" />
    <path
       d="m 164.33,259.24 a 156.56,156.56 0 0 0 -11.77,15.24 c -4.85,3.25 -11.57,6 -20.83,7.41 L 131,282 v 0 c -4.84,0.64 -7.72,-20.25 -9.07,-33.49 -0.61,-6.1 -0.9,-10.57 -0.9,-10.57 0,0 -13.9,-19.58 -15.5,-38.05 a 35.56,35.56 0 0 1 -0.13,-4.83 c 0.29,-7.29 2.12,-12.31 4.29,-15.72 a 16.46,16.46 0 0 1 8,-6.86 1.5,1.5 0 0 0 -0.55,1.58 2.73,2.73 0 0 0 0.62,1.1 l 0.21,0.22 c 0.16,0.17 0.34,0.33 0.51,0.48 l 3.57,3.25 5.35,4.86 a 7.22,7.22 0 0 0 3.82,2.23 c 1.5,0.16 3.65,-2.13 3.31,-3.59 l -0.24,0.88 a 6.08,6.08 0 0 1 -1.79,-4.82 4.93,4.93 0 0 1 0.3,-1.38 20.65,20.65 0 0 1 3.48,4.31 c 4.47,7.29 12.57,17.33 17.51,23.24 a 13.54,13.54 0 0 1 2,14.33 l -0.06,0.13 c -1.79,3.75 -0.37,8.1 -0.06,8.95 l 0.06,0.15 2.8,8.49 v 0 l 4.47,13.8 0.83,2.52 a 12.5,12.5 0 0 1 0.5,6.03 z"
       style="fill:#439a86"
       id="path568" />
    <g
       clip-path="url(#freepik--clip-path-2--inject-11)"
       id="g574">
      <path
         d="m 140.91,210.88 a 30.58,30.58 0 0 1 4.65,7.82 c 1,2.87 1.06,6.23 -0.57,8.8 a 70.84,70.84 0 0 0 10.22,-5.94 25.78,25.78 0 0 1 -6.68,11.09 c -2.3,2.25 -5.85,4.11 -8.62,2.46 -2.36,-1.42 -3.63,-3.91 -4.28,-6.6 -3.77,-15.42 -3.77,-18.8 -5.3,-31.81 3.87,4.3 7.11,9.5 10.58,14.18 z"
         style="opacity:0.2;fill:#263238"
         id="path570" />
      <path
         d="m 121.79,250.39 a 35.78,35.78 0 0 0 0.88,9.81 12.09,12.09 0 0 0 5.73,7.7 c 3.39,1.72 7.5,1.12 11.13,0 3.63,-1.12 7.17,-2.79 11,-3.07 a 25.64,25.64 0 0 1 -19.39,8.57 9.53,9.53 0 0 0 8.49,1.87 22.69,22.69 0 0 1 -11.63,4.55 c 2.09,2.57 6.06,2.37 9.25,1.51 A 39.62,39.62 0 0 0 164.22,256 c 0.48,-1.45 0.62,-3.52 -0.81,-4.07 a 3.16,3.16 0 0 0 -2.15,0.2 l -26.75,9.08 c -1.93,0.65 -4.23,1.25 -5.86,0 a 6.23,6.23 0 0 1 -1.67,-2.36 q -2.39,-4.77 -4.76,-9.56 l -0.55,1.26 c -0.09,-1.18 -0.19,-2.37 -0.29,-3.56"
         style="opacity:0.2;fill:#263238"
         id="path572" />
    </g>
    <path
       d="m 164.33,259.24 a 156.56,156.56 0 0 0 -11.77,15.24 c -4.85,3.25 -11.57,6 -20.83,7.41 L 131,282 v 0 c -4.84,0.64 -7.72,-20.25 -9.07,-33.49 -0.61,-6.1 -0.9,-10.57 -0.9,-10.57 0,0 -13.9,-19.58 -15.5,-38.05 a 35.56,35.56 0 0 1 -0.13,-4.83 c 0.29,-7.29 2.12,-12.31 4.29,-15.72 a 16.46,16.46 0 0 1 8,-6.86 1.5,1.5 0 0 0 -0.55,1.58 2.73,2.73 0 0 0 0.62,1.1 l 0.21,0.22 c 0.16,0.17 0.34,0.33 0.51,0.48 l 3.57,3.25 5.35,4.86 a 7.22,7.22 0 0 0 3.82,2.23 c 1.5,0.16 3.65,-2.13 3.31,-3.59 l -0.24,0.88 a 6.08,6.08 0 0 1 -1.79,-4.82 4.93,4.93 0 0 1 0.3,-1.38 20.65,20.65 0 0 1 3.48,4.31 c 4.47,7.29 12.57,17.33 17.51,23.24 a 13.54,13.54 0 0 1 2,14.33 l -0.06,0.13 c -1.79,3.75 -0.37,8.1 -0.06,8.95 l 0.06,0.15 2.8,8.49 v 0 l 4.47,13.8 0.83,2.52 a 12.5,12.5 0 0 1 0.5,6.03 z"
       style="fill:none;stroke:#263238;stroke-linecap:round;stroke-linejoin:round"
       id="path576" />
    <path
       d="m 118,172.34 a 0.93,0.93 0 0 0 -0.4,0.12"
       style="fill:none;stroke:#263238;stroke-linecap:round;stroke-linejoin:round"
       id="path578" />
    <path
       d="m 122,162.56 0.1,-0.16 v 0.14 z"
       style="fill:none;stroke:#263238;stroke-linecap:round;stroke-linejoin:round"
       id="path580" />
    <path
       d="m 118.29,172.3 a 5.64,5.64 0 0 1 -0.56,0.53"
       style="fill:none;stroke:#263238;stroke-linecap:round;stroke-linejoin:round"
       id="path582" />
    <path
       d="m 225.22,200.8 -2.66,2.84 -0.68,0.73 -0.75,0.8 -0.4,0.42 c -5.58,6 -14.92,16 -19.27,20.93 v 0 l -0.64,0.72 a 4.85,4.85 0 0 1 -1.47,1.17 3.44,3.44 0 0 1 -1.43,0.41 4.57,4.57 0 0 1 -1.94,-0.27 9.41,9.41 0 0 1 -2.41,-1.35 22,22 0 0 1 -3.33,-3.23 c -0.4,-0.46 -0.78,-0.94 -1.14,-1.4 -0.62,-0.81 -1.18,-1.6 -1.66,-2.3 -1,-1.47 -1.59,-2.53 -1.59,-2.53 l 1.43,-1.5 v 0 l 0.19,-0.19 7.44,-7.78 v 0 l 25.27,-26.4 c 2.97,-2.01 5.04,18.93 5.04,18.93 z"
       style="fill:#ffffff;stroke:#263238;stroke-linecap:round;stroke-linejoin:round"
       id="path584" />
    <path
       d="m 219.63,184.82 v 0 l -28.25,29.7 c 0,0 -1.47,2 0,3 1.47,1 25.38,-26.19 25.38,-26.19 0,0 4.47,1.66 5.83,4 1.36,2.34 -3.43,-5.23 -3,-10.45"
       style="fill:#bfbfbf;stroke:#263238;stroke-linecap:round;stroke-linejoin:round"
       id="path586" />
    <path
       d="m 224.61,198.86 c 0,0 -3.72,-6.2 -4.47,-9.17 a 14.82,14.82 0 0 1 -0.51,-4.87 l 2.58,0.35 a 51.42,51.42 0 0 1 2.4,13.69"
       style="fill:#bfbfbf;stroke:#263238;stroke-linecap:round;stroke-linejoin:round"
       id="path588" />
    <path
       d="m 225.07,200.19 -9.21,-4.74 -22.51,23.55 -2,-2.51 23.84,-25.63 a 12.56,12.56 0 0 1 6.17,3.45 12.83,12.83 0 0 1 3.71,5.88 z"
       style="fill:#bfbfbf;stroke:#263238;stroke-linecap:round;stroke-linejoin:round"
       id="path590" />
    <polygon
       points="221.88,204.37 221.13,205.17 220.73,205.59 200.56,227.1 199.33,228.42 192.86,235.32 192.55,235.21 189.91,234.23 181.34,231.05 189.08,222.58 192.16,219.21 192.2,219.17 192.85,218.46 194.12,217.07 214.49,194.78 225.22,200.8 222.56,203.64 "
       style="fill:#ffffff;stroke:#263238;stroke-linecap:round;stroke-linejoin:round"
       id="polygon592" />
    <path
       d="m 171.05,232.1 c 0,0 -22.12,9.3 -31.66,9.73 0,0 -5.94,-16.45 -9.46,-45.76 -1.67,-13.88 -15.15,-9.87 -15.15,-9.87 -0.24,0.14 -13.5,5.88 -8.12,24.32 5.38,18.44 21.58,51.36 21.58,51.36 A 97.37,97.37 0 0 0 162.53,251 l 12.56,-6.76 c 0,0 -2.09,-7.24 -4.04,-12.14 z"
       style="fill:#439a86"
       id="path594" />
    <g
       clip-path="url(#freepik--clip-path-3--inject-11)"
       id="g598">
      <path
         d="m 111,210.68 c 3.33,4.45 7.6,8.1 11.45,12.11 a 5.84,5.84 0 0 1 1.92,3.22 c 0.13,1.26 -0.53,2.45 -0.85,3.68 -1,3.62 1.1,7.32 3.39,10.28 2.29,2.96 5,5.89 5.63,9.57 0.23,1.3 0.21,2.71 0.92,3.82 1.35,2.09 4.41,2 6.83,1.4 11.67,-2.71 22.14,-10 34.07,-11.17 a 163.87,163.87 0 0 1 -40.64,17.9 c -2,0.58 -4.3,1.09 -6.11,0 -1.51,-0.87 -2.27,-2.59 -2.94,-4.19 L 111.21,225 a 99.68,99.68 0 0 1 -5.09,-14.3 c -0.85,-3.4 -2.89,-11.47 -0.54,-14.39 0.93,1.84 0.68,5 1.47,7.23 a 28,28 0 0 0 3.95,7.14 z"
         style="opacity:0.2;fill:#263238"
         id="path596" />
    </g>
    <path
       d="m 171.05,232.1 c 0,0 -22.12,9.3 -31.66,9.73 0,0 -5.94,-16.45 -9.46,-45.76 -1.67,-13.88 -15.15,-9.87 -15.15,-9.87 -0.24,0.14 -13.5,5.88 -8.12,24.32 5.38,18.44 21.58,51.36 21.58,51.36 A 97.37,97.37 0 0 0 162.53,251 l 12.56,-6.76 c 0,0 -2.09,-7.24 -4.04,-12.14 z"
       style="fill:none;stroke:#263238;stroke-linecap:round;stroke-linejoin:round"
       id="path600" />
    <path
       d="m 199.18,222.2 -2.12,0.83 c 0,0 0.58,3.93 -0.37,4.66 -0.24,0.3 -0.48,0.59 -0.73,0.87 a 13,13 0 0 1 -1.16,1.19 c -0.08,0.36 -0.19,0.84 -0.35,1.38 a 11.75,11.75 0 0 1 -1.9,4.08 3.76,3.76 0 0 1 -1.91,1.34 c -1.71,0.46 -4.15,1 -6.1,1.44 l -3.21,0.68 -6.64,3.75 -1.1,-3 -2.53,-7 v 0 h 0.08 A 17.77,17.77 0 0 0 174,231 a 6.85,6.85 0 0 0 1.07,-1 55.74,55.74 0 0 0 5.24,-8.08 l 0.21,-0.39 0.66,-1.21 c 0.33,-0.59 0.56,-1 0.67,-1.19 1.74,-0.92 3.65,-2 5.39,-2.91 v 0 c 1.72,-0.89 2.69,0 5.88,-0.54 0.9,0 1.12,0.64 1,1.37 0,0 0,0 0,0 a 2.72,2.72 0 0 1 -1.26,1.35 13.21,13.21 0 0 1 -3.14,1.14 l 2.45,-0.39 1.26,-0.2 h 0.18 l 1.7,-0.27 h 0.06 l 1.58,-0.25 h 0.12 0.1 l 3.06,0.21 h 0.09 l 1.56,0.11 a 1.17,1.17 0 0 1 0,0.11 c 0.23,0.6 0.95,3.2 -2.7,3.34 z"
       style="fill:#ffffff;stroke:#263238;stroke-linecap:round;stroke-linejoin:round"
       id="path602" />
    <path
       d="m 188.31,224.66 c 4.8,-1.84 8.1,-2 10.87,-2.46 a 2.39,2.39 0 0 0 2.45,-0.77 2.56,2.56 0 0 0 0.24,-2.65 c -2,0 -4.05,-0.61 -6,-0.18 -3.15,0.7 -5.69,0.42 -9.46,2.09"
       style="fill:none;stroke:#263238;stroke-linecap:round;stroke-linejoin:round"
       id="path604" />
    <path
       d="m 190.64,232.34 a 14.79,14.79 0 0 0 4.17,-2.59"
       style="fill:none;stroke:#263238;stroke-linecap:round;stroke-linejoin:round"
       id="path606" />
    <path
       d="m 189.69,228.33 a 40,40 0 0 0 7.33,-2.5"
       style="fill:none;stroke:#263238;stroke-linecap:round;stroke-linejoin:round"
       id="path608" />
    <path
       d="m 183,218.29 c 0.51,0 4.41,-8.54 4.41,-8.54 0,0 5.94,0.15 7.52,-1.5 0,0 1.51,3 -1.57,3.93 -3.08,0.93 -6.1,4.07 -6.1,4.07 z"
       style="fill:#ffffff;stroke:#263238;stroke-linecap:round;stroke-linejoin:round"
       id="path610" />
    <path
       d="m 130,169.49 a 8.27,8.27 0 0 0 3.74,3.16 c 1.58,0.49 3.68,-0.37 3.85,-2 0.14,-1.43 -1.12,-2.57 -2.26,-3.44 -1.39,-1.07 -8.49,-7.75 -9.95,-6.87 -1.93,1.14 3.79,8.02 4.62,9.15 z"
       style="fill:#263238;stroke:#263238;stroke-linecap:round;stroke-linejoin:round"
       id="path612" />
    <path
       d="m 150.55,136.22 a 56.48,56.48 0 0 1 1.78,6.91 c 0.4,2.75 -0.59,7.53 -0.45,8.37 0.14,0.84 3.18,6.16 3,7.1 -0.18,0.94 -4,2.17 -4,2.17 0,0 -2,6.26 -3.2,8.85 -1.2,2.59 -1.29,4.14 -4.84,3.46 -3.55,-0.68 -8.15,-3 -13.64,-7.13 -5.49,-4.13 -10.66,-7.07 -10.74,-13.49 -0.08,-6.42 19.7,-18.14 22.36,-19.34 2.66,-1.2 9.73,3.1 9.73,3.1 z"
       style="fill:#ffffff;stroke:#263238;stroke-linecap:round;stroke-linejoin:round"
       id="path614" />
    <path
       d="m 149.52,151.23 c -0.27,1.22 -0.89,2.11 -1.36,2 -0.47,-0.11 -0.69,-1.2 -0.42,-2.41 0.27,-1.21 0.91,-2.12 1.37,-2 0.46,0.12 0.69,1.18 0.41,2.41 z"
       style="fill:#263238"
       id="path616" />
    <path
       d="m 145.8,147.5 c 0,0 2.55,-4.21 5,-2.17"
       style="fill:none;stroke:#263238;stroke-linecap:round;stroke-linejoin:round"
       id="path618" />
    <path
       d="m 149.57,162.92 c 0,0 -3.57,0.79 -4.86,-2.26"
       style="fill:none;stroke:#263238;stroke-linecap:round;stroke-linejoin:round"
       id="path620" />
    <path
       d="m 132.35,121.07 c -8.28,0.55 -15.88,1.55 -21.8,7 -11,10.18 -5.49,23.2 -3.76,27.13 1.27,2.9 3.57,5.36 4.51,8.37 0.94,3.01 -0.3,7 -3.56,7.56 a 3.89,3.89 0 0 0 5.4,0.37 16.26,16.26 0 0 1 -4.85,8 13.54,13.54 0 0 0 9.84,-4.81 l -2.22,7.31 c 4,-1.71 8.13,-3.52 10.91,-6.71 2.78,-3.19 3.74,-8.2 1,-11.44 -1.55,-1.82 -3.93,-2.76 -6,-4.08 -2.07,-1.32 -3.91,-3.43 -3.48,-5.71 a 4,4 0 0 1 7.77,0.15 44.32,44.32 0 0 1 13.27,-12.47 27.33,27.33 0 0 1 -4.24,11.26 c 0.39,-0.59 5.56,-1.64 6.51,-2.1 a 25.82,25.82 0 0 0 6,-4.06 23.5,23.5 0 0 0 7.11,-11.57 c 2.24,-9.02 -14.68,-14.71 -22.41,-14.2 z"
       style="fill:#263238;stroke:#263238;stroke-linecap:round;stroke-linejoin:round"
       id="path622" />
    <path
       d="m 142.47,154.65 h 0.17"
       style="fill:none;stroke:#263238;stroke-linecap:round;stroke-linejoin:round"
       id="path624" />
    <path
       d="m 144.07,156.43 v -0.18"
       style="fill:none;stroke:#263238;stroke-linecap:round;stroke-linejoin:round"
       id="path626" />
    <path
       d="m 145.21,154.83 v -0.18"
       style="fill:none;stroke:#263238;stroke-linecap:round;stroke-linejoin:round"
       id="path628" />
    <path
       d="m 231.43,230.64 a 32.5,32.5 0 0 0 3.44,11.67"
       style="fill:none;stroke:#263238;stroke-linecap:round;stroke-linejoin:round"
       id="path630" />
    <path
       d="m 180.83,242.31 c -6,6 -11.66,11.82 -16.5,16.94 l 0.27,-0.92 a 5.31,5.31 0 0 0 -0.27,-3.78 v 0 z"
       style="fill:#263238;stroke:#263238;stroke-linecap:round;stroke-linejoin:round"
       id="path632" />
    <path
       d="m 242.91,218.44 a 25.76,25.76 0 0 1 8.26,15.47"
       style="fill:none;stroke:#263238;stroke-linecap:round;stroke-linejoin:round"
       id="path634" />
    <path
       d="m 132.65,249.2 a 20.1,20.1 0 0 1 7.87,-7.81"
       style="fill:none;stroke:#263238;stroke-linecap:round;stroke-linejoin:round"
       id="path636" />
    <path
       d="m 142.28,228.51 a 27.53,27.53 0 0 0 12.5,-7.8"
       style="fill:none;stroke:#263238;stroke-linecap:round;stroke-linejoin:round"
       id="path638" />
    <path
       d="m 135.55,201 c 0,1.09 0,2.19 -0.06,3.28"
       style="fill:none;stroke:#263238;stroke-linecap:round;stroke-linejoin:round"
       id="path640" />
    <path
       d="m 132.65,212.86 c 1.46,-4.61 0.9,-11.11 0.95,-15.42 a 1.17,1.17 0 0 1 0.21,-0.8 0.78,0.78 0 0 1 1.12,0.14 2.15,2.15 0 0 1 0.4,1.19 4.78,4.78 0 0 1 0.07,0.65"
       style="fill:none;stroke:#263238;stroke-linecap:round;stroke-linejoin:round"
       id="path642" />
    <path
       d="m 144.59,266.88 a 32.34,32.34 0 0 0 13.21,-11 22,22 0 0 1 -25.53,18.48"
       style="fill:none;stroke:#263238;stroke-linecap:round;stroke-linejoin:round"
       id="path644" />
    <path
       d="m 137.39,269.24 c 1.07,-0.23 2.12,-0.5 3.16,-0.82"
       style="fill:none;stroke:#263238;stroke-linecap:round;stroke-linejoin:round"
       id="path646" />
    <path
       d="M 112.74,220.71 A 29,29 0 0 0 115.5,224"
       style="fill:none;stroke:#263238;stroke-linecap:round;stroke-linejoin:round"
       id="path648" />
    <path
       d="m 105.43,202.63 a 37.35,37.35 0 0 0 5.69,15.82"
       style="fill:none;stroke:#263238;stroke-linecap:round;stroke-linejoin:round"
       id="path650" />
    <path
       d="m 167.59,255.63 c -1.11,1.18 -2.19,2.39 -3.26,3.61 a 156.56,156.56 0 0 0 -11.77,15.24 q -2.76,4 -5.24,8.26"
       style="fill:none;stroke:#263238;stroke-linecap:round;stroke-linejoin:round"
       id="path652" />
    <path
       d="m 128,159.05 c -0.33,2.57 0.79,7.22 8.19,11.43"
       style="fill:none;stroke:#263238;stroke-linecap:round;stroke-linejoin:round"
       id="path654" />
  </g>
</svg>
