<?xml version="1.0" encoding="UTF-8" standalone="no"?>
<svg
   viewBox="0 0 474.45297 427.58246"
   version="1.1"
   id="svg433"
   sodipodi:docname="Children preparing their backpack-bro.svg"
   width="474.45297"
   height="427.58246"
   inkscape:version="1.1 (c68e22c387, 2021-05-23)"
   xmlns:inkscape="http://www.inkscape.org/namespaces/inkscape"
   xmlns:sodipodi="http://sodipodi.sourceforge.net/DTD/sodipodi-0.dtd"
   xmlns="http://www.w3.org/2000/svg"
   xmlns:svg="http://www.w3.org/2000/svg">
  <defs
     id="defs437" />
  <sodipodi:namedview
     id="namedview435"
     pagecolor="#ffffff"
     bordercolor="#666666"
     borderopacity="1.0"
     inkscape:pageshadow="2"
     inkscape:pageopacity="0.0"
     inkscape:pagecheckerboard="0"
     showgrid="false"
     inkscape:zoom="1.244"
     inkscape:cx="235.53055"
     inkscape:cy="209.80707"
     inkscape:window-width="1368"
     inkscape:window-height="850"
     inkscape:window-x="-6"
     inkscape:window-y="-6"
     inkscape:window-maximized="1"
     inkscape:current-layer="svg433" />
  <g
     id="freepik--background-simple--inject-223"
     transform="translate(-14.352477,-40.345824)">
    <path
       d="m 327.83,51.06 c 0,0 -79.34,-31.17 -155.22,12.82 -75.88,43.99 -112.33,134.5 -143.78,206.94 -31.45,72.44 -10.2,147.61 49.58,183.28 59.78,35.67 98.47,-13.38 181,-13.52 82.53,-0.14 105.06,12.73 172.29,-33.76 67.23,-46.49 76.55,-160.45 20.22,-246.54 C 395.59,74.19 327.83,51.06 327.83,51.06 Z"
       style="fill:#ed7d3a"
       id="path2" />
    <path
       d="m 327.83,51.06 c 0,0 -79.34,-31.17 -155.22,12.82 -75.88,43.99 -112.33,134.5 -143.78,206.94 -31.45,72.44 -10.2,147.61 49.58,183.28 59.78,35.67 98.47,-13.38 181,-13.52 82.53,-0.14 105.06,12.73 172.29,-33.76 67.23,-46.49 76.55,-160.45 20.22,-246.54 C 395.59,74.19 327.83,51.06 327.83,51.06 Z"
       style="opacity:0.7;fill:#ffffff"
       id="path4" />
  </g>
  <g
     id="freepik--Window--inject-223"
     transform="translate(-14.352477,-40.345824)">
    <path
       d="M 124.21,73.66 V 279.11 H 252.35 V 73.66 Z m 66.86,5 h 56.6 V 124 h -56.6 z m 0,50.36 h 56.6 v 44.9 h -56.6 z m 0,49.88 h 56.6 v 45.85 h -56.6 z m -4.68,95.25 h -57.5 v -44.44 h 57.5 z m 0,-49.4 h -57.5 v -45.87 h 57.5 z m 0,-50.83 h -57.5 V 129 h 57.5 z m 0,-49.88 h -57.5 v -45.4 h 57.5 z m 4.68,150.11 v -44.44 h 56.6 v 44.42 z"
       style="fill:none;stroke:#263238;stroke-miterlimit:10"
       id="path7" />
  </g>
  <g
     id="freepik--Plants--inject-223"
     transform="translate(-14.352477,-40.345824)">
    <path
       d="m 423,100.51 c 0,0 0.15,-4.19 -3.42,-10.55 A 57.56,57.56 0 0 0 411.2,78.78 c 0,0 2.18,0 5.74,3.57 a 39.68,39.68 0 0 1 5.59,7 c 0,0 0.31,-4.34 -4.34,-12 -4.65,-7.66 -8.54,-12.72 -8.54,-12.72 0,0 8.23,3.88 12.11,10.08 a 57.64,57.64 0 0 1 5,9.16 v -11.3 c 0,-4.81 0.47,-11.79 0.47,-11.79 a 48.64,48.64 0 0 1 2.48,12.41 c 0.47,7 0.62,12.73 0.62,12.73 a 63,63 0 0 1 1.87,-12.73 82.27,82.27 0 0 1 5,-13.19 c 0,0 0.47,11.33 -0.77,17.69 -1.24,6.36 -2.8,11.8 -2.8,11.8 a 21.14,21.14 0 0 1 3.37,-6.36 33.33,33.33 0 0 1 6,-6.37 c 0,0 -5.43,10.87 -6,14.9 a 85.64,85.64 0 0 0 -0.78,8.54"
       style="fill:#ed7d3a"
       id="path10" />
    <path
       d="m 399,112.62 c 0,0 -3.41,-4.35 -3.41,-7 0,-2.65 2.63,1.24 2.63,1.24 0,0 -5.58,-10.24 -5.12,-14.43 0.46,-4.19 4.66,7.29 4.66,7.29 0,0 -1.4,-23.59 0.93,-22.81 2.33,0.78 5.28,23 5.28,24.37 0,1.37 2,-9.78 3.57,-6.52 1.57,3.26 1.55,11 1.55,11 0,0 2,-11.8 3.57,-7.76 1.57,4.04 -1.86,14.74 -1.86,14.74"
       style="fill:#ed7d3a"
       id="path12" />
    <path
       d="m 357.35,113.08 c 0,0 1.4,-2.64 -1.39,-6.67 a 72,72 0 0 0 -6.21,-7.61 c 0,0 5.9,2.18 7.6,4 1.7,1.82 3.26,4.19 3.11,3.72 -0.15,-0.47 -2.48,-4.81 -5,-9.78 C 352.94,91.77 350.68,87 350.68,87 a 75.35,75.35 0 0 0 7,7.91 34.87,34.87 0 0 1 6.06,8.07 c 0,0 -1.74,-8.98 -1.74,-12.98 0,-4 0.78,-10.87 0.78,-10.87 0,0 2.79,6.83 3.41,11.8 0.62,4.97 0.78,10.55 0.78,10.55 0,0 0.31,-1.55 1.55,-6.83 a 114.19,114.19 0 0 1 4,-12.42 c 0,0 0.32,5.9 0.16,11.8 -0.16,5.9 -2.64,12.88 -2.64,12.88 0,0 2.33,-2.64 4.19,-5.12 a 38.89,38.89 0 0 0 2.64,-3.88 c 0,0 -4,9.62 -4.5,10.71 -0.5,1.09 -1.4,4.66 -1.4,4.66 z"
       style="fill:#ed7d3a"
       id="path14" />
    <rect
       x="349.42999"
       y="132.25"
       width="94.650002"
       height="7.6399999"
       style="fill:none;stroke:#263238;stroke-linecap:round;stroke-linejoin:round"
       id="rect16" />
    <rect
       x="355.72"
       y="113.03"
       width="16.51"
       height="5.5700002"
       style="fill:none;stroke:#263238;stroke-linecap:round;stroke-linejoin:round"
       id="rect18" />
    <polygon
       points="351.46,118.63 376.49,118.63 370.23,132.19 357.72,132.19 "
       style="fill:none;stroke:#263238;stroke-linecap:round;stroke-linejoin:round"
       id="polygon20" />
    <rect
       x="379.98001"
       y="97.440002"
       width="9.7600002"
       height="34.799999"
       style="fill:none;stroke:#263238;stroke-linecap:round;stroke-linejoin:round"
       id="rect22" />
    <polyline
       points="414.82 122.93 414.82 132.24 395.72 132.24 395.72 122.13"
       style="fill:none;stroke:#263238;stroke-linecap:round;stroke-linejoin:round"
       id="polyline24" />
    <path
       d="m 414.79,121.64 v -8.92 h -19.1 v 10.21 a 2.28,2.28 0 0 0 2.29,2.29 h 0.11 a 2.28,2.28 0 0 0 2.29,-2.29 v -1.29 h 0.12 v 1.29 a 2.29,2.29 0 0 0 2.29,2.29 h 0.12 a 2.29,2.29 0 0 0 2.29,-2.29 v -1.29 h 0.12 v 1.29 a 2.28,2.28 0 0 0 2.29,2.29 h 0.11 a 2.28,2.28 0 0 0 2.29,-2.29 v -1.29 h 0.12 v 1.29 a 2.29,2.29 0 0 0 2.29,2.29 h 0.12 a 2.29,2.29 0 0 0 2.29,-2.29 v -1.29 z"
       style="fill:none;stroke:#263238;stroke-linecap:round;stroke-linejoin:round"
       id="path26" />
    <rect
       x="419.32001"
       y="99.989998"
       width="18.389999"
       height="25.139999"
       style="fill:none;stroke:#263238;stroke-linecap:round;stroke-linejoin:round"
       id="rect28" />
    <rect
       x="421.10999"
       y="125.23"
       width="14.8"
       height="7.0300002"
       style="fill:none;stroke:#263238;stroke-linecap:round;stroke-linejoin:round"
       id="rect30" />
    <path
       d="m 381.14,86.66 a 4.11,4.11 0 1 0 4.11,4.11 4.11,4.11 0 0 0 -4.11,-4.11 z m 0,5.82 a 1.71,1.71 0 1 1 1.71,-1.71 1.72,1.72 0 0 1 -1.71,1.71 z"
       style="fill:#ed7d3a"
       id="path32" />
    <path
       d="m 385.23,83.59 a 3.09,3.09 0 1 0 3.09,3.09 3.08,3.08 0 0 0 -3.09,-3.09 z m 0,4.37 a 1.28,1.28 0 1 1 0,-2.56 1.28,1.28 0 0 1 0,2.56 z"
       style="fill:#ed7d3a"
       id="path34" />
    <path
       d="m 387.72,89.49 a 3.09,3.09 0 1 0 3.08,3.08 3.08,3.08 0 0 0 -3.08,-3.08 z m 0,4.37 a 1.29,1.29 0 1 1 1.28,-1.29 1.28,1.28 0 0 1 -1.28,1.29 z"
       style="fill:#ed7d3a"
       id="path36" />
    <path
       d="m 384.3,92.75 a 3.09,3.09 0 1 0 3.09,3.08 3.08,3.08 0 0 0 -3.09,-3.08 z m 0,4.36 a 1.28,1.28 0 1 1 1.28,-1.28 1.28,1.28 0 0 1 -1.28,1.28 z"
       style="fill:#ed7d3a"
       id="path38" />
    <path
       d="m 385.23,75.06 a 3.08,3.08 0 1 0 3.09,3.08 3.08,3.08 0 0 0 -3.09,-3.08 z m 0,4.36 a 1.28,1.28 0 1 1 1.28,-1.28 1.28,1.28 0 0 1 -1.28,1.28 z"
       style="fill:#ed7d3a"
       id="path40" />
    <path
       d="m 383.84,79.09 a 3.09,3.09 0 1 0 3.08,3.09 3.09,3.09 0 0 0 -3.08,-3.09 z m 0,4.37 a 1.28,1.28 0 1 1 1.28,-1.28 1.28,1.28 0 0 1 -1.28,1.28 z"
       style="fill:#ed7d3a"
       id="path42" />
    <path
       d="m 379.65,77.85 a 3.09,3.09 0 1 0 3.08,3.08 3.08,3.08 0 0 0 -3.08,-3.08 z m 0,4.36 a 1.28,1.28 0 1 1 0,-2.56 1.28,1.28 0 0 1 0,2.56 z"
       style="fill:#ed7d3a"
       id="path44" />
    <path
       d="m 389.11,79.56 a 3.09,3.09 0 1 0 3.09,3.08 3.08,3.08 0 0 0 -3.09,-3.08 z m 0,4.36 a 1.28,1.28 0 1 1 1.28,-1.28 1.28,1.28 0 0 1 -1.28,1.28 z"
       style="fill:#ed7d3a"
       id="path46" />
  </g>
  <g
     id="freepik--Armchair--inject-223"
     transform="translate(-14.352477,-40.345824)">
    <path
       d="m 402.23,242 h 17.37 a 19.65,19.65 0 0 1 19.65,19.65 v 45"
       style="fill:none;stroke:#263238;stroke-miterlimit:10"
       id="path49" />
    <path
       d="M 271,306.68 C 261.17,308 252.17,305 242.17,308 c -7,2 -13,9 -13,16 -2,24 -1,51.13 -0.86,75.43"
       style="fill:none;stroke:#263238;stroke-miterlimit:10"
       id="path51" />
    <line
       x1="308.42001"
       y1="306.67999"
       x2="303.35001"
       y2="306.67999"
       style="fill:none;stroke:#263238;stroke-miterlimit:10"
       id="line53" />
    <polyline
       points="308 353.01 308 306.68 303.35 306.68"
       style="fill:none;stroke:#263238;stroke-miterlimit:10"
       id="polyline55" />
    <path
       d="M 271,306.68 C 260.17,307 251.17,317 250.17,327 c -1,23 0,48.71 0.39,72"
       style="fill:none;stroke:#263238;stroke-miterlimit:10"
       id="path57" />
    <line
       x1="270.98001"
       y1="306.67999"
       x2="307.98001"
       y2="306.67999"
       style="fill:none;stroke:#263238;stroke-miterlimit:10"
       id="line59" />
    <path
       d="m 402.23,242 a 19.64,19.64 0 0 1 19.64,19.65 v 45"
       style="fill:none;stroke:#263238;stroke-miterlimit:10"
       id="path61" />
    <path
       d="m 308,306.68 v -45 A 19.64,19.64 0 0 1 327.62,242 H 345"
       style="fill:none;stroke:#263238;stroke-miterlimit:10"
       id="path63" />
    <line
       x1="344.98999"
       y1="242.00999"
       x2="402.23001"
       y2="242.00999"
       style="fill:none;stroke:#263238;stroke-miterlimit:10"
       id="line65" />
    <line
       x1="307.98001"
       y1="353.01001"
       x2="308.42001"
       y2="353.01001"
       style="fill:none;stroke:#263238;stroke-miterlimit:10"
       id="line67" />
    <path
       d="m 308,353 h -38.15 c -5.61,0 -12.31,-0.42 -12.88,7.15 -0.28,3.66 0,7.45 0,11.12 v 27.88"
       style="fill:none;stroke:#263238;stroke-miterlimit:10"
       id="path69" />
    <line
       x1="325.35001"
       y1="353.01001"
       x2="330.67999"
       y2="353.01001"
       style="fill:none;stroke:#263238;stroke-miterlimit:10"
       id="line71" />
    <line
       x1="336.88"
       y1="353.01001"
       x2="330.67999"
       y2="353.01001"
       style="fill:none;stroke:#263238;stroke-miterlimit:10"
       id="line73" />
    <line
       x1="308.42001"
       y1="353.01001"
       x2="325.35001"
       y2="353.01001"
       style="fill:none;stroke:#263238;stroke-miterlimit:10"
       id="line75" />
    <line
       x1="308.42001"
       y1="380.98999"
       x2="330.67999"
       y2="380.98999"
       style="fill:none;stroke:#263238;stroke-miterlimit:10"
       id="line77" />
    <line
       x1="330.67999"
       y1="380.98999"
       x2="336.53"
       y2="380.98999"
       style="fill:none;stroke:#263238;stroke-miterlimit:10"
       id="line79" />
    <line
       x1="308.42001"
       y1="380.98999"
       x2="257"
       y2="380.98999"
       style="fill:none;stroke:#263238;stroke-miterlimit:10"
       id="line81" />
    <path
       d="m 336.88,399 c 0.29,-14.44 0.29,-29 0,-43.1"
       style="fill:none;stroke:#263238;stroke-miterlimit:10"
       id="path83" />
    <path
       d="M 379.55,306.68 H 357.29 A 20.41,20.41 0 0 0 336.88,327.1 V 353"
       style="fill:none;stroke:#263238;stroke-miterlimit:10"
       id="path85" />
    <line
       x1="336.88"
       y1="353.01001"
       x2="336.88"
       y2="355.91"
       style="fill:none;stroke:#263238;stroke-miterlimit:10"
       id="line87" />
    <line
       x1="439.25"
       y1="306.67999"
       x2="421.87"
       y2="306.67999"
       style="fill:none;stroke:#263238;stroke-miterlimit:10"
       id="line89" />
    <line
       x1="359.13"
       y1="353.01001"
       x2="359.13"
       y2="355.91"
       style="fill:none;stroke:#263238;stroke-miterlimit:10"
       id="line91" />
    <path
       d="m 359.13,399 c 0,-14.44 0,-29 0,-43.1"
       style="fill:none;stroke:#263238;stroke-miterlimit:10"
       id="path93" />
    <path
       d="M 379.55,306.68 A 20.42,20.42 0 0 0 359.13,327.1 V 353"
       style="fill:none;stroke:#263238;stroke-miterlimit:10"
       id="path95" />
    <path
       d="m 439.25,355.91 c -0.08,14.09 -0.08,28.66 0,43.1"
       style="fill:none;stroke:#263238;stroke-miterlimit:10"
       id="path97" />
    <line
       x1="416.98999"
       y1="306.67999"
       x2="421.87"
       y2="306.67999"
       style="fill:none;stroke:#263238;stroke-miterlimit:10"
       id="line99" />
    <line
       x1="439.25"
       y1="355.91"
       x2="439.25"
       y2="306.67999"
       style="fill:none;stroke:#263238;stroke-miterlimit:10"
       id="line101" />
    <line
       x1="379.54999"
       y1="306.67999"
       x2="416.98999"
       y2="306.67999"
       style="fill:none;stroke:#263238;stroke-miterlimit:10"
       id="line103" />
  </g>
  <g
     id="freepik--Notebooks--inject-223"
     transform="translate(-14.352477,-40.345824)">
    <polygon
       points="240.01,432.67 276.64,405.29 222.66,403.36 183.71,430.74 "
       style="fill:#ffffff;stroke:#263238;stroke-linecap:round;stroke-linejoin:round"
       id="polygon106" />
    <polygon
       points="240.01,436.91 240.01,432.67 183.71,430.74 184.1,433.82 "
       style="fill:#ffffff;stroke:#263238;stroke-linecap:round;stroke-linejoin:round"
       id="polygon108" />
    <polygon
       points="276.64,405.29 240.01,432.67 240.01,436.91 277.41,407.6 "
       style="fill:#263238;stroke:#263238;stroke-linecap:round;stroke-linejoin:round"
       id="polygon110" />
    <path
       d="m 223.68,404.84 c 0,0 -3,-3.41 -4.87,0.26"
       style="fill:none;stroke:#263238;stroke-linecap:round;stroke-linejoin:round"
       id="path112" />
    <path
       d="m 220.6,407.06 c 0,0 -3,-3.4 -4.87,0.27"
       style="fill:none;stroke:#263238;stroke-linecap:round;stroke-linejoin:round"
       id="path114" />
    <path
       d="m 217.52,409.29 c 0,0 -3,-3.41 -4.87,0.26"
       style="fill:none;stroke:#263238;stroke-linecap:round;stroke-linejoin:round"
       id="path116" />
    <path
       d="m 214.44,411.51 c 0,0 -3,-3.4 -4.87,0.26"
       style="fill:none;stroke:#263238;stroke-linecap:round;stroke-linejoin:round"
       id="path118" />
    <path
       d="m 211.36,413.74 c 0,0 -3,-3.41 -4.86,0.26"
       style="fill:none;stroke:#263238;stroke-linecap:round;stroke-linejoin:round"
       id="path120" />
    <path
       d="m 208.28,416 c 0,0 -3,-3.41 -4.86,0.26"
       style="fill:none;stroke:#263238;stroke-linecap:round;stroke-linejoin:round"
       id="path122" />
    <path
       d="m 205.2,418.18 c 0,0 -3,-3.4 -4.86,0.27"
       style="fill:none;stroke:#263238;stroke-linecap:round;stroke-linejoin:round"
       id="path124" />
    <path
       d="m 202.12,420.41 c 0,0 -3,-3.41 -4.86,0.26"
       style="fill:none;stroke:#263238;stroke-linecap:round;stroke-linejoin:round"
       id="path126" />
    <path
       d="m 199.05,422.63 c 0,0 -3,-3.4 -4.87,0.27"
       style="fill:none;stroke:#263238;stroke-linecap:round;stroke-linejoin:round"
       id="path128" />
    <path
       d="m 196,424.86 c 0,0 -3,-3.41 -4.87,0.26"
       style="fill:none;stroke:#263238;stroke-linecap:round;stroke-linejoin:round"
       id="path130" />
    <path
       d="m 192.89,427.08 c 0,0 -3,-3.4 -4.87,0.26"
       style="fill:none;stroke:#263238;stroke-linecap:round;stroke-linejoin:round"
       id="path132" />
    <path
       d="m 189.81,429.31 c 0,0 -3,-3.41 -4.87,0.26"
       style="fill:none;stroke:#263238;stroke-linecap:round;stroke-linejoin:round"
       id="path134" />
    <polygon
       points="176.19,454.37 176.03,451.38 182.06,452.4 "
       style="fill:#ffffff;stroke:#263238;stroke-linecap:round;stroke-linejoin:round"
       id="polygon136" />
    <path
       d="m 124.85,457.13 a 1.5005332,1.5005332 0 0 1 -0.08,-3 L 176,451.38 a 1.52,1.52 0 0 1 1.58,1.42 1.5,1.5 0 0 1 -1.42,1.57 l -51.25,2.75 z"
       style="fill:#ed7d3a;stroke:#263238;stroke-linecap:round;stroke-linejoin:round"
       id="path138" />
    <path
       d="m 179.31,451.93 a 8,8 0 0 1 0.26,1.31 l 2.49,-0.84 z"
       style="fill:#ffffff;stroke:#263238;stroke-linecap:round;stroke-linejoin:round"
       id="path140" />
    <path
       d="m 129.25,453.89 -4.48,0.24 a 1.5005332,1.5005332 0 0 0 0.08,3 h 0.09 l 4.45,-0.25 a 1.65,1.65 0 0 0 -0.14,-2.99 z"
       style="fill:#ffffff;stroke:#263238;stroke-linecap:round;stroke-linejoin:round"
       id="path142" />
    <polygon
       points="206.43,456.79 205.82,453.85 211.94,453.93 "
       style="fill:#ffffff;stroke:#263238;stroke-linecap:round;stroke-linejoin:round"
       id="polygon144" />
    <path
       d="m 156.12,467.35 a 1.5241063,1.5241063 0 0 1 -0.54,-3 l 50.24,-10.55 a 1.5013078,1.5013078 0 0 1 0.61,2.94 l -50.23,10.59 z"
       style="fill:#ed7d3a;stroke:#263238;stroke-linecap:round;stroke-linejoin:round"
       id="path146" />
    <path
       d="m 209.14,453.9 a 7.26,7.26 0 0 1 0.46,1.25 l 2.34,-1.22 z"
       style="fill:#ffffff;stroke:#263238;stroke-linecap:round;stroke-linejoin:round"
       id="path148" />
    <path
       d="m 160,463.48 -4.39,0.92 a 1.5241063,1.5241063 0 0 0 0.54,3 h 0.08 l 4.36,-0.93 A 1.65,1.65 0 0 0 160,463.48 Z"
       style="fill:#ffffff;stroke:#263238;stroke-linecap:round;stroke-linejoin:round"
       id="path150" />
    <polygon
       points="403.74,445.87 403.12,442.93 409.24,443.02 "
       style="fill:#ffffff;stroke:#263238;stroke-linecap:round;stroke-linejoin:round"
       id="polygon152" />
    <path
       d="m 353.42,456.43 a 1.5,1.5 0 0 1 -0.53,-2.95 l 50.23,-10.55 a 1.52,1.52 0 0 1 1.78,1.16 1.5,1.5 0 0 1 -1.16,1.78 l -50.24,10.55 z"
       style="fill:#ed7d3a;stroke:#263238;stroke-linecap:round;stroke-linejoin:round"
       id="path154" />
    <path
       d="m 406.45,443 a 9.09,9.09 0 0 1 0.45,1.25 l 2.34,-1.21 z"
       style="fill:#ffffff;stroke:#263238;stroke-linecap:round;stroke-linejoin:round"
       id="path156" />
    <path
       d="m 357.28,452.56 -4.39,0.92 a 1.5,1.5 0 0 0 0.53,2.95 h 0.08 l 4.36,-0.94 a 1.65,1.65 0 0 0 -0.58,-2.93 z"
       style="fill:#ffffff;stroke:#263238;stroke-linecap:round;stroke-linejoin:round"
       id="path158" />
    <polygon
       points="275.88,464.22 302.1,417.56 250.04,415.25 217.65,459.59 "
       style="fill:#ed7d3a;stroke:#263238;stroke-linecap:round;stroke-linejoin:round"
       id="polygon160" />
    <polygon
       points="275.88,466.92 275.88,464.22 217.65,459.59 219.19,462.29 "
       style="fill:#ffffff;stroke:#263238;stroke-linecap:round;stroke-linejoin:round"
       id="polygon162" />
    <polygon
       points="302.1,417.56 275.88,464.22 275.88,466.92 301.71,421.03 "
       style="fill:#263238;stroke:#263238;stroke-linecap:round;stroke-linejoin:round"
       id="polygon164" />
    <path
       d="m 250.39,418.34 c 0,0 -4,-2.25 -4.52,1.81"
       style="fill:none;stroke:#263238;stroke-linecap:round;stroke-linejoin:round"
       id="path166" />
    <path
       d="m 248.19,421.44 c 0,0 -4,-2.25 -4.52,1.81"
       style="fill:none;stroke:#263238;stroke-linecap:round;stroke-linejoin:round"
       id="path168" />
    <path
       d="m 246,424.53 c 0,0 -4,-2.24 -4.52,1.82"
       style="fill:none;stroke:#263238;stroke-linecap:round;stroke-linejoin:round"
       id="path170" />
    <path
       d="m 243.79,427.63 c 0,0 -4,-2.25 -4.52,1.81"
       style="fill:none;stroke:#263238;stroke-linecap:round;stroke-linejoin:round"
       id="path172" />
    <path
       d="m 241.59,430.73 c 0,0 -4,-2.25 -4.52,1.81"
       style="fill:none;stroke:#263238;stroke-linecap:round;stroke-linejoin:round"
       id="path174" />
    <path
       d="m 239.39,433.82 c 0,0 -4,-2.24 -4.52,1.82"
       style="fill:none;stroke:#263238;stroke-linecap:round;stroke-linejoin:round"
       id="path176" />
    <path
       d="m 237.19,436.92 c 0,0 -4,-2.25 -4.52,1.81"
       style="fill:none;stroke:#263238;stroke-linecap:round;stroke-linejoin:round"
       id="path178" />
    <path
       d="m 235,440 c 0,0 -4,-2.25 -4.53,1.81"
       style="fill:none;stroke:#263238;stroke-linecap:round;stroke-linejoin:round"
       id="path180" />
    <path
       d="m 232.8,443.11 c 0,0 -4,-2.24 -4.52,1.82"
       style="fill:none;stroke:#263238;stroke-linecap:round;stroke-linejoin:round"
       id="path182" />
    <path
       d="m 230.6,446.21 c 0,0 -4,-2.25 -4.52,1.82"
       style="fill:none;stroke:#263238;stroke-linecap:round;stroke-linejoin:round"
       id="path184" />
    <path
       d="m 228.4,449.31 c 0,0 -4,-2.25 -4.52,1.81"
       style="fill:none;stroke:#263238;stroke-linecap:round;stroke-linejoin:round"
       id="path186" />
    <path
       d="m 226.2,452.4 c 0,0 -4,-2.24 -4.52,1.82"
       style="fill:none;stroke:#263238;stroke-linecap:round;stroke-linejoin:round"
       id="path188" />
  </g>
  <g
     id="freepik--character-2--inject-223"
     transform="translate(-14.352477,-40.345824)">
    <polygon
       points="365.4,379.31 367.12,399.32 266.46,399.32 271.32,373.53 "
       style="fill:#263238;stroke:#263238;stroke-linecap:round;stroke-linejoin:round"
       id="polygon191" />
    <path
       d="m 318,221.6 c 0,0 -12.73,-4.24 -25.07,0 -12.34,4.24 -15,17.35 -18.51,25.45 -3.51,8.1 -20,41.26 -20,41.26 l 29.31,10.41 -12.34,74.81 c 0,0 20.05,5.78 37.4,8.1 17.35,2.32 57.84,-2.32 57.84,-2.32 v -99.48 l 10,27.38 c 0,0 11.18,-0.39 19.28,-5.4 a 57.78,57.78 0 0 0 13.88,-12.73 c 0,0 -34.32,-46.66 -37,-53.21 -2.68,-6.55 -18.51,-13.11 -25.06,-14.27 -6.55,-1.16 -29.73,0 -29.73,0 z"
       style="fill:#ffffff"
       id="path193" />
    <path
       d="m 368.21,284.32 40.85,3.82 -1.58,-2.14 -40,-3.74 z"
       style="fill:#263238"
       id="path195" />
    <polygon
       points="281.74,310.35 366.56,317.63 366.56,315.62 282.06,308.37 "
       style="fill:#263238"
       id="polygon197" />
    <polygon
       points="278.8,328.14 366.56,336.69 366.56,334.68 279.13,326.16 "
       style="fill:#263238"
       id="polygon199" />
    <path
       d="m 366.56,282.16 -104.32,-9.74 -0.95,1.92 105.27,9.83 z"
       style="fill:#263238"
       id="path201" />
    <polygon
       points="260.84,290.62 268.1,293.19 366.56,300.97 366.56,298.96 "
       style="fill:#263238"
       id="polygon203" />
    <path
       d="m 396.6,301.33 -22.82,-1.8 0.75,2.07 19,1.5 c 0.8,-0.39 1.59,-0.82 2.35,-1.29 z"
       style="fill:#263238"
       id="path205" />
    <path
       d="M 383.26,252.19 276,243.1 c -0.25,0.66 -0.49,1.31 -0.74,1.94 l 109.54,9.29 z"
       style="fill:#263238"
       id="path207" />
    <polygon
       points="272.86,364.18 366.56,377.41 366.56,375.39 273.18,362.21 "
       style="fill:#263238"
       id="polygon209" />
    <path
       d="m 282.24,229.83 90.75,6.6 -0.26,-0.56 a 7.52,7.52 0 0 0 -0.86,-1.52 l -88.17,-6.42 c -0.52,0.61 -1,1.25 -1.46,1.9 z"
       style="fill:#263238"
       id="path211" />
    <polygon
       points="366.56,356.94 275.99,345.19 275.67,347.16 366.56,358.96 "
       style="fill:#263238"
       id="polygon213" />
    <path
       d="m 268.51,259.6 -0.94,1.93 129.24,9.75 -1.53,-2.12 z"
       style="fill:#263238"
       id="path215" />
    <polyline
       points="283.66 298.72 292.91 252.06 280.47 294.81 283.51 295.24"
       style="fill:#263238"
       id="polyline217" />
    <polygon
       points="379.55,306.68 376.59,307.21 366.56,279.83 364.75,262.66 "
       style="fill:#263238"
       id="polygon219" />
    <path
       d="m 318,221.6 c 0,0 -12.73,-4.24 -25.07,0 -12.34,4.24 -15,17.35 -18.51,25.45 -3.51,8.1 -20,41.26 -20,41.26 l 29.31,10.41 -12.34,74.81 c 0,0 20.05,5.78 37.4,8.1 17.35,2.32 57.84,-2.32 57.84,-2.32 v -99.48 l 10,27.38 c 0,0 11.18,-0.39 19.28,-5.4 a 57.78,57.78 0 0 0 13.88,-12.73 c 0,0 -34.32,-46.66 -37,-53.21 -2.68,-6.55 -18.51,-13.11 -25.06,-14.27 -6.55,-1.16 -29.73,0 -29.73,0 z"
       style="fill:none;stroke:#263238;stroke-miterlimit:10"
       id="path221" />
    <path
       d="m 314.89,221.62 a 21.76,21.76 0 0 0 -6.56,13.49 c -0.77,8.49 -2.69,30.47 -2.69,30.47 0,0 8.86,-6.17 12.34,-7.72 3.48,-1.55 9.64,-1.54 9.64,-1.54 0,0 8.86,1.93 11.18,3.47 2.32,1.54 12.72,7.72 12.72,7.72 0,0 -2.31,-26.61 -4.62,-35.51 -2.31,-8.9 -8.49,-11.57 -18.51,-11.57 -10.02,0 -13.5,1.19 -13.5,1.19 z"
       style="fill:#263238;stroke:#263238;stroke-linecap:round;stroke-linejoin:round"
       id="path223" />
    <path
       d="m 314.89,220.06 a 21.76,21.76 0 0 0 -6.56,13.49 c -0.77,8.49 -2.69,30.47 -2.69,30.47 0,0 8.86,-6.17 12.34,-7.71 3.48,-1.54 9.64,-1.55 9.64,-1.55 0,0 8.86,1.93 11.18,3.47 2.32,1.54 12.72,7.77 12.72,7.77 0,0 -2.31,-26.61 -4.62,-35.48 -2.31,-8.87 -8.49,-11.57 -18.51,-11.57 -10.02,0 -13.5,1.11 -13.5,1.11 z"
       style="fill:#ed7d3a;stroke:#263238;stroke-linecap:round;stroke-linejoin:round"
       id="path225" />
    <path
       d="m 317.59,225.46 c 0,0 3.86,27.76 8.48,34.32 4.62,6.56 12,-25.45 12,-25.45 z"
       style="fill:#ffffff;stroke:#263238;stroke-linecap:round;stroke-linejoin:round"
       id="path227" />
    <path
       d="m 319.56,237.35 c 4.28,4 9,6.73 13.4,6.27 a 8.71,8.71 0 0 0 2.9,-0.89 c 1.31,-4.66 2.17,-8.4 2.17,-8.4 l -20.44,-8.87 c 0,0 0.74,5.34 1.97,11.89 z"
       style="fill:#263238;stroke:#263238;stroke-linecap:round;stroke-linejoin:round"
       id="path229" />
    <path
       d="m 303.71,192.68 c 0,0 -3.86,-6.17 -6.56,-2.31 -2.7,3.86 -1.15,8.87 1.93,13.88 3.08,5.01 8.87,8.48 10,5 1.13,-3.48 -5.37,-16.57 -5.37,-16.57 z"
       style="fill:#ffffff;stroke:#263238;stroke-linecap:round;stroke-linejoin:round"
       id="path231" />
    <path
       d="m 363,195.38 c 0,0 3.86,-6.17 6.56,-2.31 2.7,3.86 1.16,8.86 -1.93,13.88 -3.09,5.02 -8.87,8.48 -10,5 -1.13,-3.48 5.37,-16.57 5.37,-16.57 z"
       style="fill:#ffffff;stroke:#263238;stroke-linecap:round;stroke-linejoin:round"
       id="path233" />
    <path
       d="m 304.09,197.69 c 0,0 3.86,18.13 9.26,26.61 5.4,8.48 13.88,16.58 21.21,15.81 7.33,-0.77 15.81,-13.88 19.66,-21.21 3.85,-7.33 7.33,-11.57 8.87,-21.59 1.54,-10.02 3.09,-17 -0.38,-23.14 -3.47,-6.14 -20.44,-15.42 -40.11,-13.11 -19.67,2.31 -19.66,14.65 -19.28,18.51 0.38,3.86 -0.38,18.12 0.77,18.12 z"
       style="fill:#ffffff;stroke:#263238;stroke-linecap:round;stroke-linejoin:round"
       id="path235" />
    <path
       d="m 326.84,205.6 c 0,2 -0.77,3.66 -1.73,3.66 -0.96,0 -1.74,-1.64 -1.74,-3.66 0,-2.02 0.78,-3.67 1.74,-3.67 0.96,0 1.73,1.64 1.73,3.67 z"
       style="fill:#263238"
       id="path237" />
    <path
       d="m 343.42,206.27 c -0.11,2 -1,3.62 -1.94,3.56 -0.94,-0.06 -1.64,-1.73 -1.52,-3.75 0.12,-2.02 1,-3.62 1.94,-3.56 0.94,0.06 1.64,1.73 1.52,3.75 z"
       style="fill:#263238"
       id="path239" />
    <path
       d="m 328.77,216.2 c 0,0 4.63,6.17 8.87,-0.77"
       style="fill:none;stroke:#263238;stroke-linecap:round;stroke-linejoin:round"
       id="path241" />
    <path
       d="m 324.92,220.83 c 0,0 3.85,6.17 10,5 6.15,-1.17 8.87,-6.94 8.87,-6.94"
       style="fill:none;stroke:#263238;stroke-linecap:round;stroke-linejoin:round"
       id="path243" />
    <path
       d="m 339.18,198.08 a 6.89,6.89 0 0 1 8.1,2.7"
       style="fill:none;stroke:#263238;stroke-linecap:round;stroke-linejoin:round"
       id="path245" />
    <path
       d="m 325.69,198.46 c 0,0 -6.56,-3.85 -9.26,4.25"
       style="fill:none;stroke:#263238;stroke-linecap:round;stroke-linejoin:round"
       id="path247" />
    <path
       d="m 311,181.88 a 12,12 0 0 0 8.49,0.39 10.46,10.46 0 0 0 6.17,-5 c 0,0 -0.39,6.55 -5.4,10.41 -5.01,3.86 -9.26,5.4 -6.17,7.32 3.09,1.92 13.11,7.72 26.61,-1.15 13.5,-8.87 14.3,-14.67 14.3,-14.67 0,0 -4.62,8.87 -0.77,8.49 3.85,-0.38 6.56,-9.26 6.56,-9.26 0,0 -3.47,10.41 -1.93,13.88 1.54,3.47 3.08,8.49 3.08,8.49 0,0 -3.47,6.17 -1.15,5.78 2.32,-0.39 6.21,-17.74 6.21,-17.74 0,0 3.85,-12.34 3.85,-23.52 0,-11.18 -5.57,-20.58 -12.51,-24.44 -6.94,-3.86 -28.41,-11.1 -42.47,-2.91 -11.81,6.88 -18.28,25.42 -17.51,31.21 0.77,5.79 5.78,28.53 5.78,28.53 0,0 2.32,3.47 3.09,0.39 a 18.71,18.71 0 0 0 0,-6.94 10.88,10.88 0 0 0 3.77,-9.26 z"
       style="fill:#263238;stroke:#263238;stroke-linecap:round;stroke-linejoin:round"
       id="path249" />
    <polygon
       points="316.05,429.06 339.18,416.72 333.79,410.16 305.64,426.36 "
       style="fill:#263238;stroke:#263238;stroke-linecap:round;stroke-linejoin:round"
       id="polygon251" />
    <path
       d="m 316.05,429.06 a 49.15,49.15 0 0 0 16.58,14.65 c 10.8,5.79 12.34,5.79 12.34,5.79 l -14.27,2.69 c 0,0 -12.34,-5 -16.2,-10.41 -3.86,-5.41 -8.86,-15.42 -8.86,-15.42 z"
       style="fill:#263238;stroke:#263238;stroke-linecap:round;stroke-linejoin:round"
       id="path253" />
    <polygon
       points="442.91,401.29 425.56,403.22 427.1,397.82 446.77,395.9 "
       style="fill:#263238;stroke:#263238;stroke-linecap:round;stroke-linejoin:round"
       id="polygon255" />
    <path
       d="m 442.91,401.29 22.75,6.56 9.64,-0.39 1.16,-5.39 c 0,0 -9.25,0.38 -11.57,0.38 -2.32,0 -18.12,-6.55 -18.12,-6.55 z"
       style="fill:#263238;stroke:#263238;stroke-linecap:round;stroke-linejoin:round"
       id="path257" />
    <path
       d="m 305.25,333.81 c 0,0 -0.4,0.22 -1,0.61 -1.76,1.15 -5.28,3.74 -5.57,6.33 -0.38,3.47 -4.24,16.58 -1.15,27 3.09,10.42 33.93,40.87 39.72,49.74 5.79,8.87 22.36,19.28 43.57,11.18 21.21,-8.1 45.5,-18.51 47.43,-27.38 1.93,-8.87 -2.31,-21.2 -5.78,-26.22 -3.47,-5.02 -18.51,-15 -27,-21.59 -8.49,-6.59 -41.64,-27 -48.58,-28.54 -6.94,-1.54 -34.7,4.63 -41.64,8.87 z"
       style="fill:#ed7d3a;stroke:#263238;stroke-linecap:round;stroke-linejoin:round"
       id="path259" />
    <path
       d="m 428.26,401.29 c 1.93,-8.86 -2.31,-21.2 -5.78,-26.22 -3.3,-4.75 -17,-14 -25.65,-20.56 -11.77,4.86 -25.74,12.36 -41.16,20.82 -19.06,10.47 -26.59,21 -29.27,29.13 5,5.57 9.08,10.31 10.86,13 5.78,8.87 22.36,19.28 43.57,11.18 21.21,-8.1 45.5,-18.48 47.43,-27.35 z"
       style="fill:#788084;stroke:#000000;stroke-miterlimit:10"
       id="path261" />
    <polygon
       points="315.06,355.14 315.49,352.98 301.78,328.8 301.54,331.26 "
       style="fill:#ffffff;stroke:#263238;stroke-linecap:round;stroke-linejoin:round"
       id="polygon263" />
    <polygon
       points="355.76,311.83 376.2,350.39 325.3,370.83 301.78,328.8 "
       style="fill:#ffffff;stroke:#263238;stroke-linecap:round;stroke-linejoin:round"
       id="polygon265" />
    <path
       d="m 304.37,329.94 c 0,0 -3.57,1.37 -1.05,4.77"
       style="fill:none;stroke:#263238;stroke-linecap:round;stroke-linejoin:round"
       id="path267" />
    <path
       d="m 306,332.92 c 0,0 -3.57,1.37 -1.05,4.77"
       style="fill:none;stroke:#263238;stroke-linecap:round;stroke-linejoin:round"
       id="path269" />
    <path
       d="m 307.66,335.91 c 0,0 -3.57,1.37 -1.05,4.77"
       style="fill:none;stroke:#263238;stroke-linecap:round;stroke-linejoin:round"
       id="path271" />
    <path
       d="m 309.3,338.9 c 0,0 -3.56,1.37 -1.05,4.77"
       style="fill:none;stroke:#263238;stroke-linecap:round;stroke-linejoin:round"
       id="path273" />
    <path
       d="m 311,341.88 c 0,0 -3.57,1.37 -1.05,4.77"
       style="fill:none;stroke:#263238;stroke-linecap:round;stroke-linejoin:round"
       id="path275" />
    <path
       d="m 312.6,344.87 c 0,0 -3.57,1.37 -1.05,4.77"
       style="fill:none;stroke:#263238;stroke-linecap:round;stroke-linejoin:round"
       id="path277" />
    <path
       d="m 314.24,347.86 c 0,0 -3.57,1.37 -1.05,4.77"
       style="fill:none;stroke:#263238;stroke-linecap:round;stroke-linejoin:round"
       id="path279" />
    <path
       d="m 294.84,298.72 c 0,0 -30.46,-8.87 -36.25,-9.25 -5.79,-0.38 -5.87,7 -3.17,12.83 2.7,5.83 18.21,14.16 29.78,14.55 11.57,0.39 30.85,3.85 30.85,3.85 0,0 5.4,11.18 6.55,13.5 1.15,2.32 5,7.71 5,7.71 l 23.13,-5.4 c 0,0 -12.34,-12.72 -18.12,-20.44 -5.78,-7.72 -37.77,-17.35 -37.77,-17.35 z"
       style="fill:#ffffff;stroke:#263238;stroke-linecap:round;stroke-linejoin:round"
       id="path281" />
    <path
       d="m 359.24,330.73 c -1.16,0.38 -13.12,0.77 -27,6.55 -13.88,5.78 -17,8.1 -18.89,15.43 -1.89,7.33 -1.93,9.25 2.7,18.12 4.63,8.87 25.45,37 39.33,38.95 13.88,1.95 41.26,-5.79 50.9,-11.57 9.64,-5.78 13.5,-16.2 12,-20 -1.5,-3.8 -11.18,-17 -24.29,-29.69 -13.11,-12.69 -34.75,-17.79 -34.75,-17.79 z"
       style="fill:#ed7d3a;stroke:#263238;stroke-linecap:round;stroke-linejoin:round"
       id="path283" />
    <path
       d="m 395.87,301.81 a 36,36 0 0 1 -10.58,4.13 l -7.16,28.64 c 0,0 -19.28,-10.79 -22,-10 -2.72,0.79 -8.48,10.8 -8.87,13.49 -0.39,2.69 -0.77,5.79 0.77,6.56 1.54,0.77 15.81,4.63 18.9,4.63 a 20.21,20.21 0 0 0 6.17,-1.16 l 0.38,-3.47 c 0,0 4.63,3.86 8.1,1.54 a 15.14,15.14 0 0 0 5,-5.78 c 0,0 19.67,-36.63 21.21,-41.26 1.22,-3.67 1.47,-6.36 0.18,-7.9 a 56.33,56.33 0 0 1 -12.1,10.58 z"
       style="fill:#ffffff;stroke:#263238;stroke-linecap:round;stroke-linejoin:round"
       id="path285" />
    <path
       d="m 357.31,327.64 c 0,0 -6.17,12.34 -6.17,14.27 a 8.59,8.59 0 0 0 0.77,3.47"
       style="fill:#ffffff;stroke:#263238;stroke-linecap:round;stroke-linejoin:round"
       id="path287" />
    <path
       d="m 361.16,329.19 c 0,0 -6.17,13.49 -3.47,18.12"
       style="fill:#ffffff;stroke:#263238;stroke-linecap:round;stroke-linejoin:round"
       id="path289" />
    <path
       d="m 366.18,332.66 c 0,0 -3.47,11.18 -2.7,12.34 0.77,1.16 1.93,3.47 3.47,4.24"
       style="fill:#ffffff;stroke:#263238;stroke-linecap:round;stroke-linejoin:round"
       id="path291" />
    <path
       d="m 418.23,378.16 a 27,27 0 0 0 -2.49,-4.31 c 0.35,4.8 -1.06,8.87 -4.45,13.18 -4.24,5.4 -37.4,17.35 -50.13,16.58 -12.73,-0.77 -32,-23.91 -39.33,-34.32 -7,-9.92 -5.56,-21.93 -5.41,-23.05 a 15.54,15.54 0 0 0 -3.07,6.47 c -1.93,7.32 -1.93,9.25 2.7,18.12 4.63,8.87 25.45,37 39.33,38.95 13.88,1.95 41.26,-5.79 50.9,-11.57 9.64,-5.78 13.5,-16.21 11.95,-20.05 z"
       style="fill:#ffffff;stroke:#263238;stroke-linecap:round;stroke-linejoin:round"
       id="path293" />
  </g>
  <g
     id="freepik--character-1--inject-223"
     transform="translate(-14.352477,-40.345824)">
    <path
       d="m 186.09,170.5 c 0,0 9.5,38 25.5,58.5 16,20.5 30.5,27 30,51.5 -0.5,24.5 -17.5,25 -33,25 -15.5,0 -26,-15 -41,-16 -15,-1 -18.5,-9.5 -16,-28 2.5,-18.5 18.81,-82.95 21,-89 2.19,-6.05 11,-5 13.5,-2 z"
       style="fill:#263238;stroke:#263238;stroke-linecap:round;stroke-linejoin:round"
       id="path296" />
    <path
       d="m 150.16,237.73 c 0,0 -20.51,6.69 -23.63,10.26 -3.12,3.57 -32.53,41.48 -32.53,45.94 0,4.46 4,7.58 11.15,7.13 7.15,-0.45 29.43,-21.85 29.43,-21.85 v 72.7 c 0,4.9 -14.27,47.72 -14.27,47.72 h 107.46 l -19.18,-47.72 c 0,0 3.12,-77.61 2.68,-84.3 -0.44,-6.69 0.89,-13.82 -2.68,-18.73 -3.57,-4.91 -25.42,-11.59 -29.44,-12 -4.02,-0.41 -23.15,-1.38 -28.99,0.85 z"
       style="fill:#263238;stroke:#263238;stroke-linecap:round;stroke-linejoin:round"
       id="path298" />
    <path
       d="m 137.41,282.31 2.06,-40.77 c -5.51,2.12 -11.39,4.67 -12.94,6.45 -3.13,3.57 -32.53,41.48 -32.53,45.94 0,4.46 4,7.58 11.15,7.13 7.15,-0.45 29.43,-21.85 29.43,-21.85 v 5.58 c 1.75,-1.53 2.83,-2.48 2.83,-2.48 z"
       style="fill:#ffffff;stroke:#263238;stroke-linecap:round;stroke-linejoin:round"
       id="path300" />
    <path
       d="m 208.59,351.91 c 0,0 3.12,-77.61 2.68,-84.3 -0.44,-6.69 0.89,-13.82 -2.68,-18.73 -3.57,-4.91 -25.42,-11.59 -29.44,-12 -4.02,-0.41 -23.19,-1.34 -29,0.89 0,0 -7.65,2.5 -14.32,5.25 l -0.75,1.52 -0.54,34.71 v 72.07 c 8.5,4.6 34.87,15.56 74.43,1.61 z"
       style="fill:#ed7d3a"
       id="path302" />
    <path
       d="m 182,269.33 a 1.65,1.65 0 0 0 1.28,0.8 5.06,5.06 0 0 0 2.2,-0.39 c -0.5,0.93 -1.07,2.19 -0.87,2.82 0.33,1.06 2.06,1.24 2.79,1.27 h 0.31 c 1,0 2.42,-0.18 2.69,-0.86 a 4.45,4.45 0 0 0 -0.17,-2.19 2.32,2.32 0 0 0 2.49,0.43 3.08,3.08 0 0 0 1.73,-2.16 2.69,2.69 0 0 0 -0.32,-2.23 c -0.54,-0.67 -2.18,-0.77 -3.18,-0.77 a 5,5 0 0 0 0.83,-2.5 c 0,-0.67 -0.53,-1.26 -1.47,-1.6 -1.21,-0.45 -2.89,-0.42 -3.6,0.4 a 3.14,3.14 0 0 0 -0.45,2.89 l -0.14,0.2 c -0.8,-0.23 -3.15,-0.71 -3.93,1.15 a 3.16,3.16 0 0 0 -0.19,2.74 z m 7.72,3.37 a 4.78,4.78 0 0 1 -3,0.33 c -0.79,-0.12 -1.31,-0.38 -1.41,-0.69 -0.1,-0.31 0.6,-2 1.36,-3.17 0,0 0,0 0,0 a 2.39,2.39 0 0 0 1.54,0.57 2.48,2.48 0 0 0 0.86,-0.16 8.31,8.31 0 0 1 0.66,3.12 z m 0.19,-5.43 a 1.69,1.69 0 1 1 -1.69,-1.69 1.69,1.69 0 0 1 1.7,1.69 z m 3.64,0 a 2,2 0 0 1 0.19,1.6 2.43,2.43 0 0 1 -1.33,1.66 c -1.3,0.59 -2.46,-1.07 -2.68,-1.39 a 2.37,2.37 0 0 0 0.87,-2.36 c 1.13,-0.01 2.64,0.11 2.96,0.51 z m -6.28,-4.45 a 2.92,2.92 0 0 1 2.79,-0.19 c 0.62,0.23 1,0.57 1,0.91 a 4.5,4.5 0 0 1 -0.86,2.3 2.44,2.44 0 0 0 -2,-1 2.33,2.33 0 0 0 -1.2,0.34 v 0 a 2.48,2.48 0 0 1 0.28,-2.34 z m -4.4,4 c 0.59,-1.41 2.75,-0.82 3.18,-0.68 a 2.45,2.45 0 0 0 -0.26,1.07 2.4,2.4 0 0 0 0.43,1.37 v 0 a 6.47,6.47 0 0 1 -2.81,0.76 1,1 0 0 1 -0.74,-0.43 2.63,2.63 0 0 1 0.21,-2.03 z"
       style="fill:#ffffff"
       id="path304" />
    <path
       d="m 176.72,347.09 a 3.11,3.11 0 0 0 -0.45,2.89 l -0.15,0.2 c -0.8,-0.23 -3.15,-0.71 -3.92,1.15 a 3.12,3.12 0 0 0 -0.19,2.73 1.65,1.65 0 0 0 1.27,0.8 5.25,5.25 0 0 0 2.21,-0.39 c -0.5,0.93 -1.07,2.19 -0.88,2.82 0.33,1.06 2.07,1.24 2.79,1.27 h 0.31 c 1,0 2.42,-0.17 2.69,-0.85 a 4.33,4.33 0 0 0 -0.17,-2.19 2.31,2.31 0 0 0 2.49,0.42 3.07,3.07 0 0 0 1.74,-2.15 2.73,2.73 0 0 0 -0.33,-2.23 c -0.54,-0.67 -2.17,-0.77 -3.18,-0.78 a 5,5 0 0 0 0.84,-2.49 c 0,-0.68 -0.54,-1.26 -1.47,-1.61 -1.22,-0.45 -2.89,-0.42 -3.6,0.41 z m 3.2,4.91 a 1.69,1.69 0 1 1 -1.69,-1.69 1.69,1.69 0 0 1 1.69,1.69 z m -6.53,2.13 a 0.94,0.94 0 0 1 -0.74,-0.43 2.59,2.59 0 0 1 0.23,-2.09 c 0.59,-1.41 2.74,-0.82 3.18,-0.68 a 2.38,2.38 0 0 0 -0.26,1.07 2.43,2.43 0 0 0 0.42,1.36 v 0 a 6.55,6.55 0 0 1 -2.83,0.77 z m 6.34,3.3 a 4.9,4.9 0 0 1 -3,0.32 c -0.79,-0.11 -1.32,-0.37 -1.41,-0.68 -0.09,-0.31 0.6,-2 1.35,-3.18 a 2.42,2.42 0 0 0 1.55,0.57 2.38,2.38 0 0 0 0.85,-0.16 8.14,8.14 0 0 1 0.66,3.13 z m 3.83,-5.41 a 2,2 0 0 1 0.18,1.6 2.37,2.37 0 0 1 -1.32,1.65 c -1.3,0.59 -2.47,-1.06 -2.68,-1.38 a 2.45,2.45 0 0 0 0.92,-1.89 2.42,2.42 0 0 0 0,-0.47 c 1.07,-0.03 2.58,0.09 2.9,0.47 z m -2.51,-3.73 a 4.62,4.62 0 0 1 -0.85,2.3 2.44,2.44 0 0 0 -2,-1 2.39,2.39 0 0 0 -1.21,0.34 v 0 a 2.53,2.53 0 0 1 0.26,-2.33 c 0.42,-0.5 1.72,-0.59 2.78,-0.2 0.65,0.2 1.02,0.54 1.02,0.89 z"
       style="fill:#ffffff"
       id="path306" />
    <path
       d="m 137.45,242.33 a 2.08,2.08 0 0 0 0.22,1.06 1.65,1.65 0 0 0 1.28,0.8 5,5 0 0 0 2.21,-0.39 c -0.51,0.93 -1.08,2.19 -0.88,2.82 0.33,1.06 2.06,1.24 2.79,1.27 h 0.31 c 1,0 2.42,-0.18 2.69,-0.85 a 4.37,4.37 0 0 0 -0.17,-2.2 2.32,2.32 0 0 0 2.49,0.43 3.12,3.12 0 0 0 1.74,-2.15 2.75,2.75 0 0 0 -0.33,-2.24 c -0.54,-0.67 -2.18,-0.76 -3.18,-0.77 a 6.43,6.43 0 0 0 0.64,-1.41 l -0.89,0.31 a 5.43,5.43 0 0 1 -0.51,0.9 2.22,2.22 0 0 0 -0.53,-0.53 l -1,0.33 a 1.69,1.69 0 1 1 -2.18,1.61 1.72,1.72 0 0 1 0.28,-0.92 l -0.94,0.35 a 2.62,2.62 0 0 0 -0.07,0.57 2.39,2.39 0 0 0 0.42,1.37 v 0 a 6.47,6.47 0 0 1 -2.8,0.76 1,1 0 0 1 -0.75,-0.43 1.62,1.62 0 0 1 -0.08,-1 z m 8.87,-1 a 2.49,2.49 0 0 0 0,-0.47 c 1.11,0 2.62,0.09 2.94,0.49 a 2,2 0 0 1 0.19,1.6 2.43,2.43 0 0 1 -1.33,1.66 c -1.29,0.59 -2.46,-1.07 -2.67,-1.39 a 2.43,2.43 0 0 0 0.87,-1.89 z m -4,1.9 c 0,0 0,0 0,0 a 2.39,2.39 0 0 0 1.54,0.57 2.43,2.43 0 0 0 0.86,-0.16 8.31,8.31 0 0 1 0.64,3.16 4.76,4.76 0 0 1 -3,0.33 c -0.78,-0.12 -1.31,-0.38 -1.41,-0.69 -0.1,-0.31 0.64,-2 1.39,-3.21 z"
       style="fill:#ffffff"
       id="path308" />
    <path
       d="m 210.32,305.76 a 4.76,4.76 0 0 1 -3,0.33 c -0.78,-0.12 -1.31,-0.38 -1.41,-0.69 -0.1,-0.31 0.61,-2 1.36,-3.17 0,0 0,0 0,0 a 2.39,2.39 0 0 0 1.54,0.57 2.43,2.43 0 0 0 0.86,-0.16 13.79,13.79 0 0 1 0.66,2.6 c 0,-0.94 0.07,-1.89 0.1,-2.83 a 0.77,0.77 0 0 1 -0.1,-0.15 l 0.11,-0.1 0.06,-1.71 a 1.72,1.72 0 1 1 0,-0.11 l 0.06,-1.65 a 2.41,2.41 0 0 0 -1.75,-0.74 2.35,2.35 0 0 0 -1.2,0.33 v 0 a 2.48,2.48 0 0 1 0.25,-2.33 3,3 0 0 1 2.79,-0.19 v 0 -0.76 c -1.19,-0.37 -2.71,-0.3 -3.38,0.47 a 3.1,3.1 0 0 0 -0.44,2.89 l -0.15,0.2 c -0.8,-0.23 -3.15,-0.71 -3.92,1.15 a 3.17,3.17 0 0 0 -0.2,2.73 1.65,1.65 0 0 0 1.28,0.8 5,5 0 0 0 2.21,-0.39 c -0.51,0.93 -1.08,2.19 -0.88,2.82 0.33,1.06 2.06,1.24 2.79,1.27 h 0.31 a 6,6 0 0 0 2,-0.29 v -0.87 z m -6.34,-3.3 a 1,1 0 0 1 -0.74,-0.43 2.62,2.62 0 0 1 0.24,-2.08 c 0.58,-1.42 2.74,-0.82 3.18,-0.69 a 2.45,2.45 0 0 0 -0.26,1.07 2.39,2.39 0 0 0 0.42,1.37 v 0 a 6.47,6.47 0 0 1 -2.82,0.76 z"
       style="fill:#ffffff"
       id="path310" />
    <path
       d="m 136.85,342.78 c -0.51,0.94 -1.07,2.19 -0.88,2.82 0.33,1.06 2.06,1.24 2.79,1.27 h 0.31 c 1,0 2.42,-0.18 2.69,-0.85 a 4.33,4.33 0 0 0 -0.17,-2.19 2.34,2.34 0 0 0 2.49,0.42 3.12,3.12 0 0 0 1.74,-2.15 2.75,2.75 0 0 0 -0.33,-2.24 c -0.54,-0.67 -2.18,-0.76 -3.18,-0.77 a 5,5 0 0 0 0.84,-2.5 c 0,-0.67 -0.54,-1.26 -1.48,-1.6 -1.21,-0.45 -2.89,-0.42 -3.59,0.41 a 3.09,3.09 0 0 0 -0.45,2.88 l -0.15,0.2 a 4.42,4.42 0 0 0 -2.93,0.08 v 0.89 c 0.83,-0.79 2.49,-0.33 2.87,-0.22 a 2.46,2.46 0 0 0 -0.26,1.08 2.38,2.38 0 0 0 0.42,1.36 v 0 a 6.33,6.33 0 0 1 -2.8,0.77 l -0.2,-0.07 v 0.77 h 0.09 a 5.14,5.14 0 0 0 2.18,-0.36 z m 8.06,-2.45 a 2,2 0 0 1 0.19,1.61 2.4,2.4 0 0 1 -1.32,1.65 c -1.3,0.59 -2.47,-1.07 -2.68,-1.39 a 2.41,2.41 0 0 0 0.91,-1.88 2.52,2.52 0 0 0 0,-0.48 c 1.07,-0.02 2.59,0.1 2.9,0.49 z m -7,0 a 1.69,1.69 0 1 1 1.69,1.69 1.69,1.69 0 0 1 -1.7,-1.7 z m 0.74,-4.43 c 0.42,-0.5 1.72,-0.59 2.78,-0.2 0.62,0.23 1,0.57 1,0.91 a 4.62,4.62 0 0 1 -0.85,2.31 2.42,2.42 0 0 0 -2,-1 2.39,2.39 0 0 0 -1.21,0.33 v 0 a 2.5,2.5 0 0 1 0.27,-2.36 z m -0.61,6.32 c 0,0 0,0 0,0 a 2.37,2.37 0 0 0 2.4,0.41 8.15,8.15 0 0 1 0.64,3.16 4.76,4.76 0 0 1 -3,0.33 c -0.78,-0.12 -1.31,-0.38 -1.41,-0.69 -0.1,-0.31 0.61,-2.01 1.33,-3.22 z"
       style="fill:#ffffff"
       id="path312" />
    <path
       d="m 172.05,336.23 c 1,0 2.42,-0.18 2.69,-0.85 a 4.56,4.56 0 0 0 -0.17,-2.19 2.34,2.34 0 0 0 2.49,0.42 3.06,3.06 0 0 0 1.73,-2.15 2.69,2.69 0 0 0 -0.33,-2.24 c -0.53,-0.67 -2.17,-0.76 -3.17,-0.77 a 5.11,5.11 0 0 0 0.83,-2.5 c 0,-0.67 -0.53,-1.25 -1.47,-1.6 -1.21,-0.45 -2.89,-0.42 -3.6,0.41 a 3.09,3.09 0 0 0 -0.45,2.88 l -0.14,0.2 c -0.81,-0.22 -3.15,-0.7 -3.93,1.16 a 3.16,3.16 0 0 0 -0.19,2.73 1.68,1.68 0 0 0 1.28,0.8 5.07,5.07 0 0 0 2.2,-0.4 c -0.5,0.94 -1.07,2.19 -0.87,2.82 0.33,1.06 2.06,1.25 2.79,1.27 z m 5.84,-6.54 a 2,2 0 0 1 0.19,1.6 2.39,2.39 0 0 1 -1.33,1.65 c -1.3,0.59 -2.47,-1.06 -2.68,-1.39 a 2.39,2.39 0 0 0 0.92,-1.88 2.42,2.42 0 0 0 -0.05,-0.47 c 1.12,-0.03 2.63,0.09 2.95,0.49 z m -7,0 a 1.69,1.69 0 1 1 1.69,1.69 1.69,1.69 0 0 1 -1.71,-1.71 z m 0.74,-4.43 c 0.43,-0.5 1.73,-0.59 2.78,-0.2 0.63,0.23 1,0.57 1,0.91 a 4.53,4.53 0 0 1 -0.86,2.31 2.39,2.39 0 0 0 -3.17,-0.69 v 0 a 2.53,2.53 0 0 1 0.23,-2.35 z m -3.89,6.56 a 0.93,0.93 0 0 1 -0.74,-0.44 2.61,2.61 0 0 1 0.23,-2.08 c 0.59,-1.41 2.75,-0.82 3.18,-0.68 a 2.38,2.38 0 0 0 -0.26,1.07 2.46,2.46 0 0 0 0.42,1.36 v 0 a 6.47,6.47 0 0 1 -2.85,0.75 z m 1.93,2.94 c -0.12,-0.4 0.6,-2 1.36,-3.18 a 2.36,2.36 0 0 0 2.39,0.41 8.2,8.2 0 0 1 0.65,3.16 4.8,4.8 0 0 1 -3,0.33 c -0.8,-0.18 -1.32,-0.43 -1.42,-0.74 z"
       style="fill:#ffffff"
       id="path314" />
    <path
       d="m 139.53,258 a 3.16,3.16 0 0 0 -0.19,2.73 1.68,1.68 0 0 0 1.28,0.8 5.07,5.07 0 0 0 2.2,-0.4 c -0.5,0.94 -1.07,2.19 -0.87,2.82 0.33,1.06 2.06,1.25 2.79,1.27 h 0.31 c 1,0 2.42,-0.18 2.69,-0.85 a 4.56,4.56 0 0 0 -0.17,-2.19 2.34,2.34 0 0 0 2.49,0.42 3.06,3.06 0 0 0 1.73,-2.15 2.69,2.69 0 0 0 -0.33,-2.24 c -0.53,-0.67 -2.17,-0.76 -3.17,-0.77 a 5.11,5.11 0 0 0 0.83,-2.5 c 0,-0.67 -0.53,-1.25 -1.47,-1.6 -1.21,-0.45 -2.89,-0.42 -3.6,0.41 a 3.09,3.09 0 0 0 -0.45,2.88 l -0.14,0.2 c -0.81,-0.21 -3.15,-0.69 -3.93,1.17 z m 7.72,0.67 a 1.69,1.69 0 1 1 -1.69,-1.69 1.69,1.69 0 0 1 1.69,1.69 z m -6.53,2.13 a 0.93,0.93 0 0 1 -0.74,-0.44 2.61,2.61 0 0 1 0.23,-2.08 c 0.59,-1.41 2.75,-0.82 3.18,-0.68 a 2.38,2.38 0 0 0 -0.26,1.07 2.46,2.46 0 0 0 0.42,1.36 v 0 a 6.47,6.47 0 0 1 -2.83,0.77 z m 6.34,3.29 a 4.8,4.8 0 0 1 -3,0.33 c -0.79,-0.12 -1.31,-0.37 -1.41,-0.68 -0.1,-0.31 0.6,-2 1.36,-3.18 a 2.36,2.36 0 0 0 2.39,0.41 8.2,8.2 0 0 1 0.66,3.12 z m 3.83,-5.4 a 2,2 0 0 1 0.19,1.6 2.39,2.39 0 0 1 -1.33,1.65 c -1.3,0.59 -2.47,-1.06 -2.68,-1.39 a 2.39,2.39 0 0 0 0.92,-1.88 2.42,2.42 0 0 0 -0.05,-0.47 c 1.12,-0.03 2.63,0.09 2.95,0.49 z m -6.28,-4.45 c 0.43,-0.5 1.73,-0.59 2.78,-0.2 0.63,0.23 1,0.57 1,0.91 a 4.53,4.53 0 0 1 -0.86,2.31 2.39,2.39 0 0 0 -3.17,-0.69 v 0 a 2.53,2.53 0 0 1 0.25,-2.33 z"
       style="fill:#ffffff"
       id="path316" />
    <path
       d="m 202.06,343.61 a 3.06,3.06 0 0 0 1.73,-2.15 2.69,2.69 0 0 0 -0.33,-2.24 c -0.53,-0.67 -2.17,-0.76 -3.17,-0.77 a 5.11,5.11 0 0 0 0.83,-2.5 c 0,-0.67 -0.53,-1.25 -1.47,-1.6 -1.21,-0.45 -2.89,-0.42 -3.6,0.41 a 3.09,3.09 0 0 0 -0.45,2.88 l -0.14,0.2 c -0.81,-0.22 -3.15,-0.7 -3.93,1.16 a 3.16,3.16 0 0 0 -0.19,2.73 1.68,1.68 0 0 0 1.28,0.8 5.07,5.07 0 0 0 2.2,-0.4 c -0.5,0.94 -1.07,2.19 -0.87,2.82 0.33,1.06 2.06,1.25 2.79,1.27 h 0.31 c 1,0 2.42,-0.18 2.69,-0.85 a 4.56,4.56 0 0 0 -0.17,-2.19 2.34,2.34 0 0 0 2.49,0.43 z m -5.45,-8.37 c 0.43,-0.5 1.73,-0.59 2.78,-0.2 0.63,0.23 1,0.57 1,0.91 a 4.53,4.53 0 0 1 -0.86,2.31 2.39,2.39 0 0 0 -3.17,-0.69 v 0 a 2.53,2.53 0 0 1 0.25,-2.33 z m 0.95,6.12 a 1.69,1.69 0 1 1 1.69,-1.69 1.69,1.69 0 0 1 -1.69,1.69 z m -4.84,0.44 a 0.93,0.93 0 0 1 -0.74,-0.44 2.61,2.61 0 0 1 0.23,-2.08 c 0.59,-1.41 2.75,-0.82 3.18,-0.68 a 2.38,2.38 0 0 0 -0.26,1.07 2.46,2.46 0 0 0 0.42,1.36 v 0 a 6.47,6.47 0 0 1 -2.83,0.77 z m 6.34,3.29 a 4.8,4.8 0 0 1 -3,0.33 c -0.79,-0.12 -1.31,-0.37 -1.41,-0.68 -0.1,-0.31 0.6,-2 1.36,-3.18 a 2.36,2.36 0 0 0 2.39,0.41 8.2,8.2 0 0 1 0.66,3.12 z m 0,-3.54 a 2.39,2.39 0 0 0 0.92,-1.88 2.42,2.42 0 0 0 -0.05,-0.47 c 1.12,0 2.63,0.09 2.95,0.49 a 2,2 0 0 1 0.19,1.6 2.39,2.39 0 0 1 -1.33,1.65 c -1.29,0.59 -2.46,-1.06 -2.67,-1.39 z"
       style="fill:#ffffff"
       id="path318" />
    <path
       d="m 141.61,295.29 c 0.33,1.06 2.07,1.24 2.79,1.27 h 0.31 c 1,0 2.42,-0.17 2.69,-0.85 a 4.33,4.33 0 0 0 -0.17,-2.19 2.31,2.31 0 0 0 2.49,0.42 3.07,3.07 0 0 0 1.74,-2.15 2.73,2.73 0 0 0 -0.33,-2.23 c -0.54,-0.67 -2.17,-0.77 -3.18,-0.78 a 5,5 0 0 0 0.84,-2.49 c 0,-0.68 -0.54,-1.26 -1.47,-1.61 -1.22,-0.45 -2.89,-0.42 -3.6,0.41 a 3.11,3.11 0 0 0 -0.45,2.89 l -0.15,0.2 c -0.8,-0.23 -3.15,-0.71 -3.92,1.15 a 3.12,3.12 0 0 0 -0.19,2.73 1.65,1.65 0 0 0 1.27,0.8 5.25,5.25 0 0 0 2.21,-0.39 c -0.49,0.93 -1.07,2.19 -0.88,2.82 z m 8.95,-5.27 a 2,2 0 0 1 0.18,1.6 2.37,2.37 0 0 1 -1.32,1.65 c -1.3,0.59 -2.47,-1.06 -2.68,-1.38 a 2.45,2.45 0 0 0 0.92,-1.89 2.42,2.42 0 0 0 0,-0.47 c 1.07,-0.03 2.58,0.09 2.9,0.47 z m -7,0 a 1.69,1.69 0 1 1 1.69,1.69 1.69,1.69 0 0 1 -1.71,-1.71 z m 0.74,-4.43 c 0.42,-0.5 1.72,-0.59 2.78,-0.2 0.62,0.23 1,0.57 1,0.92 a 4.62,4.62 0 0 1 -0.85,2.3 2.44,2.44 0 0 0 -2,-1 2.39,2.39 0 0 0 -1.21,0.34 v 0 a 2.53,2.53 0 0 1 0.26,-2.38 z m -3.89,6.56 a 0.94,0.94 0 0 1 -0.74,-0.43 2.59,2.59 0 0 1 0.23,-2.09 c 0.59,-1.41 2.74,-0.82 3.18,-0.68 a 2.38,2.38 0 0 0 -0.26,1.07 2.43,2.43 0 0 0 0.42,1.36 v 0 a 6.55,6.55 0 0 1 -2.85,0.75 z m 3.28,-0.24 a 2.42,2.42 0 0 0 1.55,0.57 2.38,2.38 0 0 0 0.85,-0.16 8.14,8.14 0 0 1 0.65,3.16 4.9,4.9 0 0 1 -3,0.32 c -0.79,-0.11 -1.32,-0.37 -1.41,-0.68 -0.09,-0.31 0.59,-2.01 1.34,-3.23 z"
       style="fill:#ffffff"
       id="path320" />
    <path
       d="m 163.24,271.19 -0.15,0.2 c -0.8,-0.22 -3.15,-0.7 -3.92,1.15 a 3.19,3.19 0 0 0 -0.2,2.74 1.68,1.68 0 0 0 1.28,0.8 5.14,5.14 0 0 0 2.21,-0.4 c -0.51,0.94 -1.08,2.19 -0.88,2.82 0.33,1.06 2.06,1.24 2.79,1.27 h 0.31 c 1,0 2.42,-0.18 2.69,-0.85 a 4.33,4.33 0 0 0 -0.17,-2.19 2.34,2.34 0 0 0 2.49,0.42 3.12,3.12 0 0 0 1.74,-2.15 2.75,2.75 0 0 0 -0.33,-2.24 c -0.54,-0.67 -2.18,-0.76 -3.18,-0.77 a 5,5 0 0 0 0.84,-2.5 c 0,-0.67 -0.54,-1.26 -1.48,-1.6 -1.21,-0.45 -2.89,-0.42 -3.6,0.41 a 3.08,3.08 0 0 0 -0.44,2.89 z m 3.65,2 a 1.7,1.7 0 1 1 -1.7,-1.7 1.7,1.7 0 0 1 1.7,1.73 z m -6.54,2.13 a 1,1 0 0 1 -0.74,-0.44 2.62,2.62 0 0 1 0.24,-2.08 c 0.58,-1.41 2.74,-0.82 3.18,-0.69 a 2.46,2.46 0 0 0 -0.26,1.08 2.38,2.38 0 0 0 0.42,1.36 v 0 a 6.34,6.34 0 0 1 -2.84,0.8 z m 6.34,3.29 a 4.76,4.76 0 0 1 -3,0.33 c -0.78,-0.12 -1.31,-0.38 -1.41,-0.69 -0.1,-0.31 0.61,-1.95 1.36,-3.17 0,0 0,0 0,0 a 2.39,2.39 0 0 0 1.54,0.57 2.43,2.43 0 0 0 0.86,-0.16 8.34,8.34 0 0 1 0.65,3.15 z m 3.83,-5.41 a 2,2 0 0 1 0.19,1.61 2.39,2.39 0 0 1 -1.33,1.65 c -1.29,0.59 -2.46,-1.07 -2.67,-1.39 a 2.41,2.41 0 0 0 0.91,-1.88 2.34,2.34 0 0 0 -0.05,-0.47 c 1.12,0 2.63,0.12 2.95,0.51 z m -6.28,-4.44 c 0.43,-0.5 1.73,-0.59 2.79,-0.2 0.62,0.23 1,0.57 1,0.91 a 4.53,4.53 0 0 1 -0.86,2.31 2.4,2.4 0 0 0 -2,-1 2.35,2.35 0 0 0 -1.2,0.33 v 0 a 2.48,2.48 0 0 1 0.27,-2.32 z"
       style="fill:#ffffff"
       id="path322" />
    <path
       d="m 173.39,305.61 a 3.1,3.1 0 0 0 1.74,-2.15 2.76,2.76 0 0 0 -0.33,-2.24 c -0.54,-0.67 -2.18,-0.76 -3.18,-0.77 a 5,5 0 0 0 0.84,-2.5 c 0,-0.67 -0.54,-1.25 -1.48,-1.6 -1.21,-0.45 -2.89,-0.42 -3.6,0.41 a 3.08,3.08 0 0 0 -0.44,2.88 l -0.15,0.2 c -0.8,-0.22 -3.15,-0.7 -3.92,1.16 a 3.17,3.17 0 0 0 -0.2,2.73 1.68,1.68 0 0 0 1.28,0.8 5.14,5.14 0 0 0 2.21,-0.4 c -0.51,0.94 -1.08,2.19 -0.88,2.82 0.33,1.06 2.06,1.25 2.79,1.27 h 0.31 c 1,0 2.42,-0.18 2.69,-0.85 a 4.33,4.33 0 0 0 -0.17,-2.19 2.34,2.34 0 0 0 2.49,0.43 z m -5.45,-8.37 c 0.43,-0.5 1.73,-0.59 2.79,-0.2 0.62,0.23 1,0.57 1,0.91 a 4.53,4.53 0 0 1 -0.86,2.31 2.4,2.4 0 0 0 -2,-1 2.45,2.45 0 0 0 -1.2,0.33 v 0 a 2.48,2.48 0 0 1 0.27,-2.35 z m 0.95,6.12 a 1.69,1.69 0 1 1 1.7,-1.69 1.69,1.69 0 0 1 -1.7,1.69 z m -4.83,0.44 a 1,1 0 0 1 -0.75,-0.44 2.62,2.62 0 0 1 0.24,-2.08 c 0.59,-1.41 2.74,-0.82 3.18,-0.68 a 2.38,2.38 0 0 0 0.16,2.43 v 0 a 6.47,6.47 0 0 1 -2.83,0.77 z m 6.33,3.29 a 4.76,4.76 0 0 1 -3,0.33 c -0.78,-0.12 -1.31,-0.37 -1.41,-0.68 -0.1,-0.31 0.61,-2 1.36,-3.18 0,0 0,0 0,0 a 2.39,2.39 0 0 0 1.54,0.57 2.43,2.43 0 0 0 0.86,-0.16 8.34,8.34 0 0 1 0.65,3.12 z m 0,-3.54 a 2.45,2.45 0 0 0 0.87,-2.35 c 1.11,0 2.62,0.09 2.94,0.49 a 2,2 0 0 1 0.19,1.6 2.39,2.39 0 0 1 -1.33,1.65 c -1.27,0.59 -2.44,-1.06 -2.65,-1.39 z"
       style="fill:#ffffff"
       id="path324" />
    <path
       d="m 206.11,265.69 -0.14,0.2 c -0.81,-0.23 -3.15,-0.71 -3.93,1.15 a 3.16,3.16 0 0 0 -0.19,2.73 1.65,1.65 0 0 0 1.28,0.8 4.91,4.91 0 0 0 2.2,-0.39 c -0.5,0.93 -1.07,2.19 -0.87,2.82 0.33,1.06 2.06,1.24 2.79,1.27 h 0.31 c 1,0 2.42,-0.18 2.69,-0.86 a 4.58,4.58 0 0 0 -0.17,-2.19 2.78,2.78 0 0 0 1.22,0.59 v -0.77 a 3.66,3.66 0 0 1 -1.72,-1.45 2.41,2.41 0 0 0 0.92,-1.89 2.5,2.5 0 0 0 -0.05,-0.47 h 0.8 c 0,-0.25 0,-0.5 0,-0.74 h -0.41 c 0.12,-0.21 0.26,-0.47 0.39,-0.74 0,-0.92 0,-1.84 0,-2.76 a 2.77,2.77 0 0 0 -1,-0.6 c -1.21,-0.45 -2.89,-0.42 -3.6,0.4 a 3.14,3.14 0 0 0 -0.52,2.9 z m -2.88,4.15 a 0.92,0.92 0 0 1 -0.74,-0.43 2.61,2.61 0 0 1 0.23,-2.08 c 0.59,-1.42 2.75,-0.82 3.18,-0.69 a 2.39,2.39 0 0 0 0.16,2.44 v 0 a 6.47,6.47 0 0 1 -2.83,0.76 z m 6.34,3.3 a 4.8,4.8 0 0 1 -3,0.33 c -0.79,-0.12 -1.31,-0.38 -1.41,-0.69 -0.1,-0.31 0.6,-2 1.36,-3.17 0,0 0,0 0,0 a 2.39,2.39 0 0 0 1.54,0.57 2.48,2.48 0 0 0 0.86,-0.16 8.31,8.31 0 0 1 0.65,3.12 z m -1.5,-3.74 a 1.69,1.69 0 1 1 1.69,-1.69 1.69,1.69 0 0 1 -1.69,1.69 z m -0.95,-6.12 a 2.93,2.93 0 0 1 2.78,-0.19 c 0.63,0.23 1,0.57 1,0.91 a 4.5,4.5 0 0 1 -0.86,2.3 2.44,2.44 0 0 0 -2,-1 2.33,2.33 0 0 0 -1.2,0.34 v 0 a 2.48,2.48 0 0 1 0.28,-2.36 z"
       style="fill:#ffffff"
       id="path326" />
    <path
       d="m 193.58,280.68 c -1.21,-0.45 -2.89,-0.42 -3.6,0.41 a 3.11,3.11 0 0 0 -0.45,2.89 l -0.14,0.2 c -0.81,-0.23 -3.15,-0.71 -3.93,1.15 a 3.16,3.16 0 0 0 -0.19,2.73 1.65,1.65 0 0 0 1.28,0.8 5.21,5.21 0 0 0 2.2,-0.39 c -0.5,0.93 -1.07,2.19 -0.87,2.82 0.32,1.06 2.06,1.24 2.79,1.27 H 191 c 1,0 2.42,-0.17 2.69,-0.85 a 4.57,4.57 0 0 0 -0.17,-2.19 2.3,2.3 0 0 0 2.49,0.42 3.06,3.06 0 0 0 1.73,-2.15 2.66,2.66 0 0 0 -0.33,-2.23 c -0.53,-0.67 -2.17,-0.77 -3.17,-0.78 a 5.11,5.11 0 0 0 0.83,-2.49 c -0.02,-0.68 -0.55,-1.29 -1.49,-1.61 z m -0.4,5.32 a 1.69,1.69 0 1 1 -1.69,-1.69 1.69,1.69 0 0 1 1.69,1.69 z m -6.53,2.13 a 0.94,0.94 0 0 1 -0.74,-0.43 2.63,2.63 0 0 1 0.23,-2.09 c 0.59,-1.41 2.75,-0.82 3.18,-0.68 a 2.38,2.38 0 0 0 -0.26,1.07 2.43,2.43 0 0 0 0.42,1.36 v 0 a 6.47,6.47 0 0 1 -2.83,0.77 z m 6.34,3.3 a 4.9,4.9 0 0 1 -3,0.32 c -0.79,-0.11 -1.31,-0.37 -1.41,-0.68 -0.1,-0.31 0.6,-2 1.36,-3.18 a 2.36,2.36 0 0 0 2.39,0.41 8.14,8.14 0 0 1 0.67,3.13 z m 3.83,-5.41 a 2,2 0 0 1 0.18,1.6 2.35,2.35 0 0 1 -1.32,1.65 c -1.3,0.59 -2.47,-1.06 -2.68,-1.38 a 2.37,2.37 0 0 0 0.87,-2.36 c 1.13,-0.03 2.63,0.09 2.95,0.47 z m -3.36,-1.43 a 2.44,2.44 0 0 0 -2,-1 2.33,2.33 0 0 0 -1.2,0.34 v 0 a 2.53,2.53 0 0 1 0.26,-2.33 c 0.43,-0.5 1.73,-0.59 2.78,-0.2 0.62,0.23 1,0.57 1,0.92 a 4.53,4.53 0 0 1 -0.84,2.27 z"
       style="fill:#ffffff"
       id="path328" />
    <path
       d="m 162.94,354.78 a 3.1,3.1 0 0 0 1.74,-2.15 2.73,2.73 0 0 0 -0.33,-2.23 c -0.54,-0.68 -2.18,-0.77 -3.18,-0.78 a 5,5 0 0 0 0.84,-2.49 c 0,-0.68 -0.54,-1.26 -1.48,-1.61 -1.21,-0.45 -2.89,-0.42 -3.59,0.41 a 3.09,3.09 0 0 0 -0.45,2.88 l -0.15,0.21 c -0.8,-0.23 -3.15,-0.71 -3.92,1.15 a 3.17,3.17 0 0 0 -0.2,2.73 1.65,1.65 0 0 0 1.28,0.8 5.28,5.28 0 0 0 2.21,-0.39 c -0.51,0.93 -1.08,2.19 -0.88,2.82 0.33,1.06 2.06,1.24 2.79,1.27 h 0.31 c 1,0 2.42,-0.17 2.69,-0.85 a 4.33,4.33 0 0 0 -0.17,-2.19 2.31,2.31 0 0 0 2.49,0.42 z m -5.45,-8.37 c 0.43,-0.5 1.73,-0.59 2.79,-0.2 0.62,0.23 1,0.57 1,0.92 a 4.53,4.53 0 0 1 -0.86,2.3 2.42,2.42 0 0 0 -2,-1 2.46,2.46 0 0 0 -1.21,0.33 v 0 a 2.48,2.48 0 0 1 0.28,-2.35 z m 1,6.12 a 1.69,1.69 0 1 1 1.69,-1.69 1.7,1.7 0 0 1 -1.73,1.69 z m -4.84,0.44 a 1,1 0 0 1 -0.75,-0.43 2.65,2.65 0 0 1 0.24,-2.09 c 0.59,-1.41 2.74,-0.82 3.18,-0.68 a 2.38,2.38 0 0 0 0.16,2.43 v 0 a 6.47,6.47 0 0 1 -2.87,0.8 z m 6.33,3.3 a 4.87,4.87 0 0 1 -3,0.32 c -0.78,-0.12 -1.31,-0.37 -1.41,-0.68 -0.1,-0.31 0.61,-2 1.36,-3.18 0,0 0,0 0,0 a 2.42,2.42 0 0 0 1.55,0.57 2.22,2.22 0 0 0 0.85,-0.17 8.35,8.35 0 0 1 0.61,3.14 z m 0,-3.55 a 2.45,2.45 0 0 0 0.87,-2.35 c 1.11,0 2.63,0.09 2.94,0.49 a 2,2 0 0 1 0.19,1.6 2.39,2.39 0 0 1 -1.33,1.65 c -1.31,0.59 -2.48,-1.06 -2.65,-1.39 z"
       style="fill:#ffffff"
       id="path330" />
    <path
       d="m 187,319 c 0.33,1.06 2.06,1.25 2.79,1.27 h 0.31 c 1,0 2.42,-0.18 2.69,-0.85 a 4.56,4.56 0 0 0 -0.17,-2.19 2.34,2.34 0 0 0 2.49,0.42 3.06,3.06 0 0 0 1.73,-2.15 2.69,2.69 0 0 0 -0.33,-2.24 c -0.53,-0.67 -2.17,-0.76 -3.17,-0.77 a 5.11,5.11 0 0 0 0.83,-2.5 c 0,-0.67 -0.53,-1.25 -1.47,-1.6 -1.21,-0.45 -2.89,-0.42 -3.6,0.41 a 3.09,3.09 0 0 0 -0.45,2.88 l -0.14,0.2 c -0.81,-0.22 -3.15,-0.7 -3.93,1.16 a 3.16,3.16 0 0 0 -0.19,2.73 1.68,1.68 0 0 0 1.28,0.8 5.07,5.07 0 0 0 2.2,-0.4 c -0.55,0.9 -1.12,2.15 -0.87,2.83 z m 8.94,-5.26 a 2,2 0 0 1 0.19,1.6 2.39,2.39 0 0 1 -1.33,1.65 c -1.3,0.59 -2.47,-1.06 -2.68,-1.39 a 2.39,2.39 0 0 0 0.92,-1.88 2.42,2.42 0 0 0 -0.05,-0.47 c 1.07,-0.08 2.58,0.04 2.9,0.44 z m -7,0 a 1.69,1.69 0 1 1 1.69,1.69 1.69,1.69 0 0 1 -1.76,-1.76 z m 0.74,-4.43 c 0.43,-0.5 1.73,-0.59 2.78,-0.2 0.63,0.23 1,0.57 1,0.91 a 4.53,4.53 0 0 1 -0.86,2.31 2.39,2.39 0 0 0 -3.17,-0.69 v 0 a 2.53,2.53 0 0 1 0.18,-2.4 z m -3.89,6.56 a 0.93,0.93 0 0 1 -0.74,-0.44 2.61,2.61 0 0 1 0.23,-2.08 c 0.59,-1.41 2.75,-0.82 3.18,-0.68 a 2.38,2.38 0 0 0 -0.26,1.07 2.46,2.46 0 0 0 0.42,1.36 v 0 a 6.47,6.47 0 0 1 -2.9,0.7 z m 3.29,-0.24 a 2.36,2.36 0 0 0 2.39,0.41 8.2,8.2 0 0 1 0.65,3.16 4.8,4.8 0 0 1 -3,0.33 c -0.79,-0.12 -1.31,-0.37 -1.41,-0.68 -0.1,-0.31 0.54,-2.07 1.29,-3.29 z"
       style="fill:#ffffff"
       id="path332" />
    <path
       d="m 182.5,247.21 a 3.12,3.12 0 0 0 -0.19,2.73 1.65,1.65 0 0 0 1.27,0.8 5.13,5.13 0 0 0 2.21,-0.39 c -0.5,0.93 -1.07,2.19 -0.88,2.82 0.33,1.06 2.06,1.24 2.79,1.27 h 0.3 c 1,0 2.42,-0.18 2.69,-0.86 a 4.33,4.33 0 0 0 -0.17,-2.19 2.33,2.33 0 0 0 2.49,0.43 3.09,3.09 0 0 0 1.74,-2.16 2.73,2.73 0 0 0 -0.33,-2.23 c -0.54,-0.67 -2.17,-0.77 -3.18,-0.77 a 5,5 0 0 0 0.84,-2.5 c 0,-0.67 -0.54,-1.26 -1.47,-1.6 -1.22,-0.45 -2.89,-0.42 -3.6,0.4 a 3.11,3.11 0 0 0 -0.45,2.89 l -0.15,0.2 c -0.79,-0.22 -3.14,-0.7 -3.91,1.16 z m 7.72,0.67 a 1.69,1.69 0 1 1 -1.69,-1.69 1.69,1.69 0 0 1 1.69,1.69 z m -6.53,2.12 a 0.92,0.92 0 0 1 -0.74,-0.43 2.59,2.59 0 0 1 0.23,-2.09 c 0.59,-1.41 2.74,-0.82 3.18,-0.68 a 2.39,2.39 0 0 0 0.16,2.44 v 0 a 6.55,6.55 0 0 1 -2.83,0.76 z m 6.33,3.3 a 4.74,4.74 0 0 1 -3,0.33 c -0.79,-0.12 -1.32,-0.38 -1.41,-0.69 -0.09,-0.31 0.6,-2 1.35,-3.17 a 2.37,2.37 0 0 0 2.4,0.41 8.12,8.12 0 0 1 0.64,3.13 z m 3.84,-5.41 a 2,2 0 0 1 0.18,1.6 2.41,2.41 0 0 1 -1.32,1.66 c -1.3,0.59 -2.47,-1.07 -2.68,-1.39 a 2.37,2.37 0 0 0 0.87,-2.36 c 1.09,-0.02 2.63,0.1 2.95,0.5 z m -6.28,-4.45 c 0.42,-0.49 1.72,-0.59 2.78,-0.19 0.62,0.23 1,0.57 1,0.91 a 4.58,4.58 0 0 1 -0.85,2.3 2.44,2.44 0 0 0 -2,-1 2.39,2.39 0 0 0 -1.21,0.34 v 0 a 2.53,2.53 0 0 1 0.28,-2.35 z"
       style="fill:#ffffff"
       id="path334" />
    <path
       d="m 146.28,325 c 0.33,1.06 2.06,1.25 2.79,1.27 h 0.31 c 1,0 2.42,-0.18 2.69,-0.85 a 4.33,4.33 0 0 0 -0.17,-2.19 2.34,2.34 0 0 0 2.49,0.42 3.1,3.1 0 0 0 1.74,-2.15 2.76,2.76 0 0 0 -0.33,-2.24 c -0.54,-0.67 -2.18,-0.76 -3.18,-0.77 a 5,5 0 0 0 0.84,-2.5 c 0,-0.67 -0.54,-1.25 -1.48,-1.6 -1.21,-0.45 -2.89,-0.42 -3.6,0.41 a 3.08,3.08 0 0 0 -0.44,2.88 l -0.15,0.2 c -0.8,-0.22 -3.15,-0.7 -3.92,1.16 a 3.17,3.17 0 0 0 -0.2,2.73 1.68,1.68 0 0 0 1.28,0.8 5.14,5.14 0 0 0 2.21,-0.4 c -0.51,0.9 -1.08,2.15 -0.88,2.83 z m 8.94,-5.26 a 2,2 0 0 1 0.19,1.6 2.39,2.39 0 0 1 -1.33,1.65 c -1.29,0.59 -2.46,-1.06 -2.67,-1.39 a 2.45,2.45 0 0 0 0.87,-2.35 c 1.11,-0.08 2.62,0.04 2.94,0.44 z m -7,0 a 1.7,1.7 0 1 1 1.69,1.69 1.69,1.69 0 0 1 -1.71,-1.76 z m 0.74,-4.43 c 0.43,-0.5 1.73,-0.59 2.79,-0.2 0.62,0.23 1,0.57 1,0.91 a 4.53,4.53 0 0 1 -0.86,2.31 2.4,2.4 0 0 0 -2,-1 2.45,2.45 0 0 0 -1.2,0.33 v 0 a 2.48,2.48 0 0 1 0.25,-2.42 z m -3.88,6.56 a 1,1 0 0 1 -0.75,-0.44 2.62,2.62 0 0 1 0.24,-2.08 c 0.59,-1.41 2.74,-0.82 3.18,-0.68 a 2.38,2.38 0 0 0 0.16,2.43 v 0 a 6.47,6.47 0 0 1 -2.85,0.7 z m 3.28,-0.24 c 0,0 0,0 0,0 a 2.39,2.39 0 0 0 1.54,0.57 2.43,2.43 0 0 0 0.86,-0.16 8.34,8.34 0 0 1 0.64,3.16 4.76,4.76 0 0 1 -3,0.33 c -0.78,-0.12 -1.31,-0.37 -1.41,-0.68 -0.1,-0.31 0.6,-2.07 1.35,-3.29 z"
       style="fill:#ffffff"
       id="path336" />
    <path
       d="m 172.46,298 c 0,0 19.86,22.41 27.12,27.41 7.26,5 10,6.81 10,6.81 v -12.77 z"
       style="fill:#263238;stroke:#263238;stroke-linecap:round;stroke-linejoin:round"
       id="path338" />
    <path
       d="m 208.59,351.91 c 0,0 3.12,-77.61 2.68,-84.3 -0.44,-6.69 0.89,-13.82 -2.68,-18.73 -3.57,-4.91 -25.42,-11.59 -29.44,-12 -4.02,-0.41 -23.19,-1.34 -29,0.89 0,0 -7.65,2.5 -14.32,5.25 l -0.75,1.52 -0.54,34.71 v 72.07 c 8.5,4.6 34.87,15.56 74.43,1.61 z"
       style="fill:none;stroke:#263238;stroke-miterlimit:10"
       id="path340" />
    <path
       d="m 153.73,246.65 c 0,0 0,19.18 12,20.07 12,0.89 14.28,-27.65 14.28,-27.65 l -27.66,3.12 z"
       style="fill:#ffffff;stroke:#263238;stroke-linecap:round;stroke-linejoin:round"
       id="path342" />
    <path
       d="m 152.39,242.19 1.34,4.46 a 38.16,38.16 0 0 0 1.16,8.45 25.29,25.29 0 0 0 3,1.24 c 7.78,2.55 15.91,-1.77 20.94,-9 a 80.08,80.08 0 0 0 1.21,-8.28 z"
       style="fill:#263238;stroke:#263238;stroke-linecap:round;stroke-linejoin:round"
       id="path344" />
    <path
       d="m 203.24,248.88 c 0,0 -5.35,4.46 -5.35,13.83 0,9.37 1.78,32.11 2.67,37.91 0.89,5.8 8.92,23.19 16.95,18.73 8.03,-4.46 10.26,-7.58 8.47,-21.41 -1.79,-13.83 -4,-30.77 -7.58,-39.25 -3.58,-8.48 -10.26,-12.93 -15.16,-9.81 z"
       style="fill:#ffffff;stroke:#263238;stroke-linecap:round;stroke-linejoin:round"
       id="path346" />
    <path
       d="m 51.92,410 c 0,0 -6,8.67 -4,12.67 2,4 12,3.33 18,1.33 6,-2 25.33,-9.33 25.33,-9.33 l -4,-4 c 0,0 -10,6 -18,6.66 -8,0.66 -9.33,3.34 -12,2.67 -2.67,-0.67 2,-8 2,-8 z"
       style="fill:#263238;stroke:#263238;stroke-linecap:round;stroke-linejoin:round"
       id="path348" />
    <path
       d="m 77.92,343.33 c 0,0 -24,49.34 -29.33,56.67 -5.33,7.33 4.66,18 12.66,18 8,0 34,-58 37.34,-60.67 3.34,-2.67 -2,-22 -20.67,-14 z"
       style="fill:#ed7d3a;stroke:#263238;stroke-linecap:round;stroke-linejoin:round"
       id="path350" />
    <path
       d="m 158.88,308.52 c 0,0 11.74,5.66 16.53,13.49 4.79,7.83 10,32.62 11.31,47.85 1.31,15.23 7,28.27 8.7,37.41 1.7,9.14 -4.79,15.66 -12.62,20.88 -7.83,5.22 -11.31,5.65 -15.22,6.52 -3.91,0.87 -11.75,-7.39 -10.88,-19.14 0.87,-11.75 3,-65.83 0.87,-80 -2.13,-14.17 -3.48,-29.14 1.31,-27"
       style="fill:#ffffff;stroke:#263238;stroke-linecap:round;stroke-linejoin:round"
       id="path352" />
    <path
       d="m 115.25,299 c 0,0 -21,7 -29,17 -8,10 -7.5,16 -5.5,30 2,14 2.5,36 -1.5,51 -4,15 1,30.5 9,34.5 8,4 45.5,10.5 64.5,6.5 19,-4 28.5,-4.5 30.5,-19.5 2,-15 -5.5,-44.5 -6,-68 -0.5,-23.5 -13,-43.5 -30.5,-50.5 -17.5,-7 -31.5,-1 -31.5,-1 z"
       style="fill:#ed7d3a;stroke:#263238;stroke-linecap:round;stroke-linejoin:round"
       id="path354" />
    <path
       d="m 110.59,299 c 0,0 -21,7 -29,17 -8,10 -7.5,16 -5.5,30 2,14 2.5,36 -1.5,51 -4,15 1,30.5 9,34.5 8,4 45.5,10.5 64.5,6.5 19,-4 28.5,-4.5 30.5,-19.5 2,-15 -5.5,-44.5 -6,-68 -0.5,-23.5 -13,-43.5 -30.5,-50.5 -17.5,-7 -31.5,-1 -31.5,-1 z"
       style="fill:#ffffff;stroke:#263238;stroke-linecap:round;stroke-linejoin:round"
       id="path356" />
    <path
       d="M 148.33,303.17 A 39.78,39.78 0 0 0 142.09,300 c -17.5,-7 -31.5,-1 -31.5,-1 l -1.29,0.45 a 11.81,11.81 0 0 0 -1.71,4.05 c -1,4.5 1.5,13 1.5,13 l 36.5,5 c 0,0 -2.5,-7.5 0,-13 a 55.49,55.49 0 0 1 2.74,-5.33 z"
       style="fill:#ed7d3a;stroke:#263238;stroke-linecap:round;stroke-linejoin:round"
       id="path358" />
    <polygon
       points="134.1,234.26 133.22,235.5 75.24,248.44 79.63,246.07 "
       style="fill:#ffffff;stroke:#263238;stroke-linecap:round;stroke-linejoin:round"
       id="polygon360" />
    <polygon
       points="154.98,304.73 133.22,235.5 134.1,234.26 156.02,304.11 "
       style="fill:#263238;stroke:#263238;stroke-linecap:round;stroke-linejoin:round"
       id="polygon362" />
    <polygon
       points="155.07,304.63 133.22,235.5 75.24,248.44 97.98,319.35 "
       style="fill:#ffffff;stroke:#263238;stroke-linecap:round;stroke-linejoin:round"
       id="polygon364" />
    <path
       d="m 90.24,254.26 c 1.51,-0.32 2.56,0.43 3,2.05 l 0.1,0.31 -1.47,0.31 -0.13,-0.42 c -0.21,-0.72 -0.57,-0.93 -1.07,-0.82 -0.5,0.11 -0.69,0.43 -0.48,1.15 0.61,2.07 3.76,1.82 4.61,4.7 0.48,1.61 0,2.7 -1.57,3 -1.57,0.3 -2.59,-0.43 -3.06,-2 L 90,261.9 l 1.46,-0.31 0.22,0.72 c 0.21,0.72 0.6,0.91 1.09,0.81 0.49,-0.1 0.73,-0.43 0.52,-1.15 -0.61,-2.07 -3.76,-1.82 -4.61,-4.7 -0.46,-1.61 0.05,-2.7 1.56,-3.01 z"
       style="fill:#ed7d3a"
       id="path366" />
    <path
       d="m 98.8,255.22 0.39,1.31 c 0.47,1.61 0,2.65 -1.58,3 l -0.74,0.16 1.13,3.75 -1.56,0.33 -3,-10.07 2.29,-0.48 c 1.58,-0.33 2.6,0.39 3.07,2 z m -3.36,-0.41 1,3.41 0.73,-0.15 c 0.5,-0.11 0.7,-0.4 0.48,-1.11 l -0.44,-1.52 c -0.21,-0.71 -0.55,-0.89 -1,-0.78 z"
       style="fill:#ed7d3a"
       id="path368" />
    <path
       d="m 106.67,261.61 -1.56,0.33 -0.81,-1.77 -1.91,0.4 0.27,1.89 -1.42,0.3 -1.39,-10.41 2.27,-0.47 z m -4.48,-2.44 1.49,-0.32 -2.25,-4.93 z"
       style="fill:#ed7d3a"
       id="path370" />
    <path
       d="m 106.63,253.88 2.15,7.29 -1.4,0.3 -3,-10.08 2,-0.41 3.37,5.7 -1.77,-6 1.38,-0.29 3,10.07 -1.6,0.33 z"
       style="fill:#ed7d3a"
       id="path372" />
    <path
       d="m 110.46,250.12 1.55,-0.33 3,10.08 -1.55,0.32 z"
       style="fill:#ed7d3a"
       id="path374" />
    <path
       d="m 115.2,249 c 1.51,-0.32 2.56,0.44 3,2.05 l 0.1,0.32 -1.47,0.31 -0.13,-0.42 c -0.21,-0.72 -0.57,-0.93 -1.07,-0.83 -0.5,0.1 -0.69,0.44 -0.48,1.16 0.61,2.07 3.76,1.82 4.61,4.7 0.48,1.61 0,2.7 -1.57,3 -1.57,0.3 -2.59,-0.44 -3.06,-2.05 l -0.19,-0.62 1.47,-0.31 0.22,0.72 c 0.21,0.72 0.6,0.92 1.09,0.81 0.49,-0.11 0.73,-0.43 0.52,-1.15 -0.61,-2.07 -3.77,-1.82 -4.61,-4.69 -0.45,-1.59 0.06,-2.68 1.57,-3 z"
       style="fill:#ed7d3a"
       id="path376" />
    <path
       d="m 123,258.19 -1.56,0.33 -3,-10.08 1.56,-0.32 1.27,4.31 1.77,-0.37 -1.28,-4.31 1.58,-0.34 3,10.07 -1.58,0.34 -1.27,-4.32 -1.77,0.37 z"
       style="fill:#ed7d3a"
       id="path378" />
    <path
       d="m 215.72,298.78 c -2.94,-1.4 -9.76,-4.13 -22.29,-6.64 -14.41,-2.88 -28.23,-11.28 -33,-14.41 L 150,264.8 141.52,260.89 132,260 a 1.1808895,1.1808895 0 0 0 -0.32,2.34 l 7.84,1.46 4.24,3.58 -2,1.31 -15,-2.41 a 0.91,0.91 0 0 0 -0.94,0.81 l -0.07,0.62 A 1.27,1.27 0 0 0 127,269 l 13,3.24 -14.09,0.16 a 1.3124405,1.3124405 0 0 0 0.16,2.62 l 12.71,0.35 -5.49,1.5 -5.54,4.9 a 1.26,1.26 0 0 0 1.52,1.85 15.46,15.46 0 0 0 1.62,-0.79 l 5.34,-3 h 5.54 a 37,37 0 0 0 6.2,4.57 c 2.61,1.3 9.3,2.41 9.3,2.41 0,0 27.73,23.19 38.39,29.42 10.66,6.23 27.65,16.5 29.43,11.15 1.32,-4 1.27,-15.36 1,-20.88"
       style="fill:#ffffff;stroke:#263238;stroke-linecap:round;stroke-linejoin:round"
       id="path380" />
    <path
       d="m 80.48,263.39 c 0,0 -2.93,0.8 -1.86,3.21 1.07,2.41 7.74,7.2 8.54,5.07 0.8,-2.13 -3.74,-7.21 -6.68,-8.28 z"
       style="fill:#ffffff;stroke:#263238;stroke-linecap:round;stroke-linejoin:round"
       id="path382" />
    <path
       d="m 79.68,268.47 c 0,0 -2.13,3.2 -0.53,5.07 1.6,1.87 7.74,4.27 8.54,2.67 0.8,-1.6 -1.87,-3.47 -3.74,-4.81 -1.87,-1.34 -4.27,-2.93 -4.27,-2.93 z"
       style="fill:#ffffff;stroke:#263238;stroke-linecap:round;stroke-linejoin:round"
       id="path384" />
    <path
       d="m 80.22,274.61 c 0,0 -1.34,2.93 0.53,4.27 1.87,1.34 7.48,2.13 7.48,0.26 0,-1.87 -2.14,-2.67 -2.14,-2.67 z"
       style="fill:#ffffff;stroke:#263238;stroke-linecap:round;stroke-linejoin:round"
       id="path386" />
    <path
       d="m 82.35,279.68 a 5,5 0 0 0 2.14,3.47 c 1.87,1.07 5.07,-0.54 4.54,-1.6 -0.53,-1.06 -3.21,-1.07 -3.21,-1.07 z"
       style="fill:#ffffff;stroke:#263238;stroke-linecap:round;stroke-linejoin:round"
       id="path388" />
    <path
       d="m 167.59,398.17 c 0,0 -4.5,-53.5 -9,-66.5 -4.5,-13 -40,-21 -56.5,-15 -16.5,6 -24.5,13 -21.5,30 3,17 -5.5,53.5 2.5,65.5 8,12 26,16.5 53.5,15 27.5,-1.5 30.5,-12 31,-29 z"
       style="fill:#ed7d3a;stroke:#263238;stroke-linecap:round;stroke-linejoin:round"
       id="path390" />
    <path
       d="m 165.59,393.5 c 0,0 -4.5,-53.5 -9,-66.5 -4.5,-13 -40,-21 -56.5,-15 -16.5,6 -24.5,13 -21.5,30 3,17 -5.5,53.5 2.5,65.5 8,12 26,16.5 53.5,15 27.5,-1.5 30.5,-12 31,-29 z"
       style="fill:#ffffff;stroke:#263238;stroke-linecap:round;stroke-linejoin:round"
       id="path392" />
    <path
       d="m 142.59,320.5 c 0.26,-2.06 0.53,-3.85 0.79,-5.42 -12.61,-4.94 -29.89,-6.75 -40.39,-3.37 a 28.65,28.65 0 0 0 -1.9,11.29 c 0,10.5 0.5,22 0.5,22 l 43.5,3.5 c 0,0 -4,-16.5 -2.5,-28 z"
       style="fill:#ed7d3a;stroke:#263238;stroke-linecap:round;stroke-linejoin:round"
       id="path394" />
    <path
       d="m 179.52,189 c -0.68,-0.57 -1.39,-1.13 -2.11,-1.67 -11.14,-8.33 -28.15,-9.65 -36.64,6.85 a 68.35,68.35 0 0 0 -7.68,31.62 90.19,90.19 0 0 1 6.19,7.32 c 2.58,3.24 8.16,15.09 19.91,18.93 12.46,4.08 25.84,-9.44 25.9,-24.35 0,-8.86 -0.16,-11.33 -3,-19.66 A 61.33,61.33 0 0 1 179.52,189 Z"
       style="fill:#ffffff;stroke:#263238;stroke-linecap:round;stroke-linejoin:round"
       id="path396" />
    <path
       d="m 152.59,223.94 c 0,0 1.51,4.74 0.58,8 -0.93,3.26 3.39,5.4 6.31,3.68"
       style="fill:none;stroke:#263238;stroke-linecap:round;stroke-linejoin:round"
       id="path398" />
    <path
       d="m 157.78,239.88 c 0,0 5.86,3.74 11.2,-3.68"
       style="fill:none;stroke:#263238;stroke-linecap:round;stroke-linejoin:round"
       id="path400" />
    <path
       d="m 164.49,219 c 0.61,1.61 0.55,3.13 -0.14,3.39 -0.69,0.26 -1.75,-0.83 -2.36,-2.43 -0.61,-1.6 -0.55,-3.13 0.14,-3.39 0.69,-0.26 1.74,0.78 2.36,2.43 z"
       style="fill:#263238"
       id="path402" />
    <path
       d="m 146.39,223.61 c 0.61,1.6 0.55,3.12 -0.14,3.38 -0.69,0.26 -1.74,-0.82 -2.36,-2.43 -0.62,-1.61 -0.55,-3.13 0.14,-3.39 0.69,-0.26 1.75,0.83 2.36,2.44 z"
       style="fill:#263238"
       id="path404" />
    <path
       d="m 156.26,214 a 11.32,11.32 0 0 1 12.2,-2.91"
       style="fill:none;stroke:#263238;stroke-width:2px;stroke-linecap:round;stroke-linejoin:round"
       id="path406" />
    <path
       d="m 148.48,216.38 c 0,0 -7.74,-4.39 -9.76,4.4"
       style="fill:none;stroke:#263238;stroke-width:2px;stroke-linecap:round;stroke-linejoin:round"
       id="path408" />
    <path
       d="m 172.87,213 c 3.12,5.74 1.61,12.59 -3.36,15.3 -4.97,2.71 -11.55,0.24 -14.67,-5.5 -3.12,-5.74 -1.62,-12.6 3.36,-15.3 4.98,-2.7 11.55,-0.24 14.67,5.5 z"
       style="fill:none;stroke:#263238;stroke-linecap:round;stroke-linejoin:round"
       id="path410" />
    <path
       d="m 151.11,220.16 c 3.12,5.75 1.62,12.6 -3.36,15.3 -4.98,2.7 -11.55,0.24 -14.67,-5.5 -3.12,-5.74 -1.61,-12.59 3.37,-15.3 4.98,-2.71 11.55,-0.24 14.66,5.5 z"
       style="fill:none;stroke:#263238;stroke-linecap:round;stroke-linejoin:round"
       id="path412" />
    <line
       x1="151.97"
       y1="221.41"
       x2="153.92999"
       y2="221.16"
       style="fill:none;stroke:#263238;stroke-linecap:round;stroke-linejoin:round"
       id="line414" />
    <line
       x1="172.87"
       y1="213"
       x2="183.98"
       y2="204.17999"
       style="fill:#ffffff;stroke:#263238;stroke-linecap:round;stroke-linejoin:round"
       id="line416" />
    <path
       d="m 165.53,160.6 c 0,0 15.47,-29.6 19.36,-26.15 3.89,3.45 12,36 6,39.56 -6,3.56 -25,-8.16 -25,-8.16 0,0 -3.46,4.6 -7.3,6.39 -3.84,1.79 -9.14,-12.78 -9.63,-20.71 -0.49,-7.93 12.24,-2.45 16.57,9.07 z"
       style="fill:#ffffff;stroke:#263238;stroke-linecap:round;stroke-linejoin:round"
       id="path418" />
    <path
       d="M 189.67,176.59 A 37.44,37.44 0 0 0 156.29,154.2 c -6.07,-0.21 -12.53,0.45 -17.85,3 -14.65,7.06 -21.6,27.49 -21.6,27.49 0,0 -12.37,0 -15.13,9.52 -2.76,9.52 4.29,8.62 4.29,8.62 0,0 -7.36,14.11 2,18.5 9.36,4.39 12.16,-4.75 12.16,-4.75 0,0 1.77,16.92 14,9.77 12.23,-7.15 9.83,-26 15.6,-33.91 5.77,-7.91 12.55,-1.61 12.55,-1.61 0,0 -0.06,12 5.4,14.07 a 52.34,52.34 0 0 1 9.83,5.12 c 0,0 1.2,-6.14 5.13,-6.64 3.93,-0.5 5.64,0.48 5.64,0.48 0,0 4.93,-8.21 3.37,-20.38 a 26.22,26.22 0 0 0 -2.01,-6.89 z"
       style="fill:#263238;stroke:#263238;stroke-linecap:round;stroke-linejoin:round"
       id="path420" />
    <path
       d="m 179.69,189.47 c 6.32,-2.28 9.19,-7.39 10.5,-11.56 -0.16,-0.44 -0.33,-0.88 -0.52,-1.32 a 0.89,0.89 0 0 0 -0.08,-0.17 c -1.06,4.11 -3.69,9.75 -10.24,12.11 -10.78,3.89 -15.16,0.36 -15.22,0.31 a 0.5,0.5 0 1 0 -0.65,0.75 c 0.19,0.17 4.78,4.01 16.21,-0.12 z"
       style="fill:#92989b"
       id="path422" />
    <path
       d="m 134.66,208.32 c -0.93,-1.8 -2.81,-3.76 -6.55,-2.87 a 8.55,8.55 0 0 0 -5.91,4 c -1.82,3.32 -0.5,7.17 -0.45,7.33 a 0.5265216,0.5265216 0 1 0 1,-0.33 c 0,0 -1.22,-3.6 0.38,-6.52 a 7.58,7.58 0 0 1 5.26,-3.54 4.38,4.38 0 0 1 5.44,2.36 c 2,3.85 1,11.18 -1.17,13.06 -0.59,0.53 -1.13,0.69 -1.6,0.48 -1,-0.43 -1.63,-2.26 -1.67,-3.72 0,-0.89 0.19,-1.4 0.4,-1.5 a 0.52,0.52 0 0 0 0.22,-0.68 0.51,0.51 0 0 0 -0.67,-0.22 c -0.64,0.32 -1,1.18 -0.95,2.43 0,1.77 0.85,4 2.27,4.61 a 2,2 0 0 0 0.81,0.17 2.82,2.82 0 0 0 1.85,-0.81 c 2.44,-2.15 3.58,-9.9 1.34,-14.25 z"
       style="fill:#92989b"
       id="path424" />
    <path
       d="m 161.23,185.86 h 0.05 a 0.49,0.49 0 0 0 0.45,-0.54 c 0,-0.19 -1.76,-18.69 12.19,-23.56 a 0.50284192,0.50284192 0 0 0 -0.33,-0.95 c -14.69,5.14 -12.88,24.41 -12.86,24.61 a 0.51,0.51 0 0 0 0.5,0.44 z"
       style="fill:#92989b"
       id="path426" />
    <path
       d="m 192,188.26 c 0,-0.64 0,-1.3 -0.06,-2 -3.56,6.7 -9.57,14.41 -18.74,15.72 a 0.5012235,0.5012235 0 0 0 0.07,1 h 0.07 c 8.86,-1.25 14.87,-8.21 18.66,-14.72 z"
       style="fill:#92989b"
       id="path428" />
    <path
       d="m 178.46,212.88 c 0,0 1.16,-12.16 7.8,-13.2 6.64,-1.04 8.12,4.38 6.69,12.89 -1.43,8.51 -8.95,17.81 -10.84,9.14"
       style="fill:#ffffff;stroke:#263238;stroke-linecap:round;stroke-linejoin:round"
       id="path430" />
  </g>
</svg>
