<?xml version="1.0" encoding="UTF-8" standalone="no"?>
<svg
   viewBox="0 0 448.81 426.28"
   version="1.1"
   id="svg299"
   sodipodi:docname="kpl-service-sess-formation.svg"
   width="448.81"
   height="426.28"
   inkscape:version="1.1 (c68e22c387, 2021-05-23)"
   xmlns:inkscape="http://www.inkscape.org/namespaces/inkscape"
   xmlns:sodipodi="http://sodipodi.sourceforge.net/DTD/sodipodi-0.dtd"
   xmlns="http://www.w3.org/2000/svg"
   xmlns:svg="http://www.w3.org/2000/svg">
  <defs
     id="defs303" />
  <sodipodi:namedview
     id="namedview301"
     pagecolor="#ffffff"
     bordercolor="#666666"
     borderopacity="1.0"
     inkscape:pageshadow="2"
     inkscape:pageopacity="0.0"
     inkscape:pagecheckerboard="0"
     showgrid="false"
     inkscape:zoom="1.244"
     inkscape:cx="217.0418"
     inkscape:cy="208.19936"
     inkscape:window-width="1368"
     inkscape:window-height="850"
     inkscape:window-x="-6"
     inkscape:window-y="-6"
     inkscape:window-maximized="1"
     inkscape:current-layer="svg299" />
  <g
     id="freepik--Window--inject-257"
     transform="translate(-33.279999,-41.56)">
    <g
       style="opacity:0.2"
       id="g36">
      <polygon
         points="280.01,75.34 477.54,75.34 477.54,59.11 286.78,59.11 "
         style="fill:none;stroke:#000000;stroke-linejoin:round"
         id="polygon2" />
      <polygon
         points="280.01,91.58 477.54,91.58 477.54,75.34 286.78,75.34 "
         style="fill:none;stroke:#000000;stroke-linejoin:round"
         id="polygon4" />
      <polygon
         points="280.01,107.81 477.54,107.81 477.54,91.58 286.78,91.58 "
         style="fill:none;stroke:#000000;stroke-linejoin:round"
         id="polygon6" />
      <polygon
         points="280.01,124.05 477.54,124.05 477.54,107.81 286.78,107.81 "
         style="fill:none;stroke:#000000;stroke-linejoin:round"
         id="polygon8" />
      <polygon
         points="280.01,140.28 477.54,140.28 477.54,124.05 286.78,124.05 "
         style="fill:none;stroke:#000000;stroke-linejoin:round"
         id="polygon10" />
      <polygon
         points="280.01,156.52 477.54,156.52 477.54,140.28 286.78,140.28 "
         style="fill:none;stroke:#000000;stroke-linejoin:round"
         id="polygon12" />
      <polygon
         points="280.01,172.75 477.54,172.75 477.54,156.52 286.78,156.52 "
         style="fill:none;stroke:#000000;stroke-linejoin:round"
         id="polygon14" />
      <polygon
         points="280.01,188.99 477.54,188.99 477.54,172.75 286.78,172.75 "
         style="fill:none;stroke:#000000;stroke-linejoin:round"
         id="polygon16" />
      <polygon
         points="280.01,205.22 477.54,205.22 477.54,188.99 286.78,188.99 "
         style="fill:none;stroke:#000000;stroke-linejoin:round"
         id="polygon18" />
      <polygon
         points="280.01,221.46 477.54,221.46 477.54,205.22 286.78,205.22 "
         style="fill:none;stroke:#000000;stroke-linejoin:round"
         id="polygon20" />
      <polygon
         points="280.01,237.69 477.54,237.69 477.54,221.46 286.78,221.46 "
         style="fill:none;stroke:#000000;stroke-linejoin:round"
         id="polygon22" />
      <polygon
         points="280.01,253.93 477.54,253.93 477.54,237.69 286.78,237.69 "
         style="fill:none;stroke:#000000;stroke-linejoin:round"
         id="polygon24" />
      <polygon
         points="280.01,270.16 477.54,270.16 477.54,253.93 286.78,253.93 "
         style="fill:none;stroke:#000000;stroke-linejoin:round"
         id="polygon26" />
      <polygon
         points="280.01,286.4 477.54,286.4 477.54,270.16 286.78,270.16 "
         style="fill:none;stroke:#000000;stroke-linejoin:round"
         id="polygon28" />
      <polygon
         points="280.01,302.63 477.54,302.63 477.54,286.4 286.78,286.4 "
         style="fill:none;stroke:#000000;stroke-linejoin:round"
         id="polygon30" />
      <polygon
         points="280.01,318.87 477.54,318.87 477.54,302.63 286.78,302.63 "
         style="fill:none;stroke:#000000;stroke-linejoin:round"
         id="polygon32" />
      <rect
         x="277.98001"
         y="53.700001"
         width="203.61"
         height="270.57999"
         style="fill:none;stroke:#000000;stroke-linejoin:round"
         id="rect34" />
    </g>
  </g>
  <g
     id="freepik--Lamp--inject-257"
     transform="translate(-33.279999,-41.56)">
    <g
       style="opacity:0.2"
       id="g55">
      <rect
         x="37.290001"
         y="421.87"
         width="68.419998"
         height="36.110001"
         style="fill:none;stroke:#000000;stroke-linejoin:round"
         id="rect39" />
      <rect
         x="65.940002"
         y="435.70001"
         width="11.11"
         height="5.3800001"
         style="fill:none;stroke:#000000;stroke-linejoin:round"
         id="rect41" />
      <rect
         x="33.779999"
         y="374.94"
         width="75.43"
         height="92.389999"
         style="fill:none;stroke:#000000;stroke-linejoin:round"
         id="rect43" />
      <rect
         x="37.290001"
         y="379.62"
         width="68.419998"
         height="36.110001"
         style="fill:none;stroke:#000000;stroke-linejoin:round"
         id="rect45" />
      <rect
         x="65.940002"
         y="393.45001"
         width="11.11"
         height="5.3800001"
         style="fill:none;stroke:#000000;stroke-linejoin:round"
         id="rect47" />
      <rect
         x="52.099998"
         y="369.09"
         width="26.9"
         height="5.8499999"
         style="fill:none;stroke:#000000;stroke-linejoin:round"
         id="rect49" />
      <rect
         x="62.040001"
         y="350.97"
         width="4.6799998"
         height="18.129999"
         style="fill:none;stroke:#000000;stroke-linejoin:round"
         id="rect51" />
      <rect
         x="38.650002"
         y="308.85999"
         width="50.290001"
         height="42.099998"
         style="fill:none;stroke:#000000;stroke-linejoin:round"
         id="rect53" />
    </g>
  </g>
  <g
     id="freepik--Couch--inject-257"
     transform="translate(-33.279999,-41.56)">
    <g
       style="opacity:0.2"
       id="g72">
      <path
         d="m 388.9,423.59 v -77.2 a 11.09,11.09 0 0 0 -11.1,-11.1 H 276.38 v 89.07"
         style="fill:none;stroke:#000000;stroke-linejoin:round"
         id="path58" />
      <path
         d="M 277.23,335.29 H 173.92 a 11.09,11.09 0 0 0 -11.09,11.1 v 77.2"
         style="fill:none;stroke:#000000;stroke-linejoin:round"
         id="path60" />
      <path
         d="m 398.92,431 v 26 H 276.43 v -33.41 h 115.11 a 7.37,7.37 0 0 1 7.38,7.41 z"
         style="fill:none;stroke:#000000;stroke-linejoin:round"
         id="path62" />
      <path
         d="M 277.36,423.59 H 160.18 a 7.37,7.37 0 0 0 -7.37,7.38 v 26 h 124.55"
         style="fill:none;stroke:#000000;stroke-linejoin:round"
         id="path64" />
      <polyline
         points="152.81 467.84 152.81 456.93 399.13 456.93 399.13 467.84"
         style="fill:none;stroke:#000000;stroke-linejoin:round"
         id="polyline66" />
      <path
         d="M 162.83,379.29 A 7.45,7.45 0 0 0 157.46,377 h -22.31 a 7.43,7.43 0 0 0 -7.44,7.43 v 82.88"
         style="fill:none;stroke:#000000;stroke-linejoin:round"
         id="path68" />
      <path
         d="M 421.43,466.77 V 384.43 A 7.43,7.43 0 0 0 414,377 h -22.31 a 7.19,7.19 0 0 0 -2.79,0.55"
         style="fill:none;stroke:#000000;stroke-linejoin:round"
         id="path70" />
    </g>
  </g>
  <g
     id="freepik--Certification--inject-257"
     transform="translate(-33.279999,-41.56)">
    <path
       d="m 438.46,52.06 v 241 a 11,11 0 0 1 -11,11 h -348 a 11,11 0 0 1 -11,-11 v -241 a 10,10 0 0 1 10,-10 h 350 a 10,10 0 0 1 10,10 z"
       style="fill:#ed7d3a;stroke:#263238;stroke-miterlimit:10"
       id="path75" />
    <path
       d="m 438.46,52.06 v 20.8 h -370 v -20.8 a 10,10 0 0 1 10,-10 h 350 a 10,10 0 0 1 10,10 z"
       style="fill:#c9c9c9;stroke:#263238;stroke-miterlimit:10"
       id="path77" />
    <path
       d="M 306.92,68.83 H 109.54 a 3.36,3.36 0 0 1 -3.35,-3.36 v 0 a 3.36,3.36 0 0 1 3.35,-3.36 h 197.38 a 3.36,3.36 0 0 1 3.36,3.36 v 0 a 3.36,3.36 0 0 1 -3.36,3.36 z"
       style="fill:#ffffff;stroke:#263238;stroke-miterlimit:10"
       id="path79" />
    <line
       x1="419.70999"
       y1="62.779999"
       x2="432.47"
       y2="62.779999"
       style="fill:none;stroke:#263238;stroke-miterlimit:10"
       id="line81" />
    <line
       x1="419.70999"
       y1="65.470001"
       x2="432.47"
       y2="65.470001"
       style="fill:none;stroke:#263238;stroke-miterlimit:10"
       id="line83" />
    <line
       x1="419.70999"
       y1="68.160004"
       x2="432.47"
       y2="68.160004"
       style="fill:none;stroke:#263238;stroke-miterlimit:10"
       id="line85" />
    <path
       d="m 438.46,52.06 v 6 h -370 v -6 a 10,10 0 0 1 10,-10 h 350 a 10,10 0 0 1 10,10 z"
       style="fill:#263238;stroke:#263238;stroke-miterlimit:10"
       id="path87" />
    <path
       d="m 401.6,50.39 a 3.06,3.06 0 1 0 -3.05,3 3,3 0 0 0 3.05,-3 z"
       style="fill:#ffffff;stroke:#263238;stroke-miterlimit:10"
       id="path89" />
    <path
       d="m 414.24,50.39 a 3.05,3.05 0 1 0 -3.05,3 3,3 0 0 0 3.05,-3 z"
       style="fill:#ffffff;stroke:#263238;stroke-miterlimit:10"
       id="path91" />
    <path
       d="m 426.88,50.39 a 3.05,3.05 0 1 0 -3.05,3 3,3 0 0 0 3.05,-3 z"
       style="fill:#ffffff;stroke:#263238;stroke-miterlimit:10"
       id="path93" />
    <rect
       x="89.410004"
       y="83.129997"
       width="329.10999"
       height="205.96001"
       style="fill:#ffffff;stroke:#263238;stroke-miterlimit:10"
       id="rect95" />
    <rect
       x="97.800003"
       y="91.660004"
       width="312.32001"
       height="188.88"
       style="fill:none;stroke:#ed7d3a;stroke-width:5px;stroke-miterlimit:10"
       id="rect97" />
    <rect
       x="105.78"
       y="101.11"
       width="296.35999"
       height="170"
       style="fill:none;stroke:#ed7d3a;stroke-miterlimit:10"
       id="rect99" />
    <path
       d="m 204.4,121 v 1.75 h -2.06 v -1.86 c 0,-1.75 -0.69,-2.8 -2.27,-2.8 -1.58,0 -2.27,1 -2.27,2.8 v 10.26 c 0,1.74 0.72,2.8 2.27,2.8 1.55,0 2.27,-1.06 2.27,-2.8 v -2.53 h 2.06 V 131 c 0,2.94 -1.39,4.88 -4.39,4.88 -3,0 -4.35,-1.94 -4.35,-4.88 v -10 c 0,-2.94 1.39,-4.88 4.35,-4.88 2.96,0 4.39,1.93 4.39,4.88 z"
       style="fill:#263238"
       id="path101" />
    <path
       d="m 213.27,124.9 v 1.94 h -4.75 v 6.9 h 5.83 v 2 h -8 V 116.3 h 8 v 2 h -5.83 v 6.63 z"
       style="fill:#263238"
       id="path103" />
    <path
       d="m 220.67,116.3 c 3.05,0 4.32,1.56 4.32,4.44 v 1.58 c 0,2.14 -0.75,3.47 -2.41,4 1.77,0.53 2.44,2 2.44,4.05 v 3 a 4.86,4.86 0 0 0 0.39,2.33 h -2.19 a 5,5 0 0 1 -0.36,-2.35 v -3.05 c 0,-2.2 -1,-2.89 -2.83,-2.89 h -1.53 v 8.29 h -2.16 v -19.4 z m -0.56,9.15 c 1.72,0 2.75,-0.55 2.75,-2.66 v -1.86 c 0,-1.74 -0.64,-2.66 -2.25,-2.66 h -2.11 v 7.18 z"
       style="fill:#263238"
       id="path105" />
    <path
       d="m 230.09,135.71 v -17.44 h -3.57 v -2 h 9.31 v 2 h -3.57 v 17.44 z"
       style="fill:#263238"
       id="path107" />
    <path
       d="m 239.49,116.3 v 19.41 h -2.16 V 116.3 Z"
       style="fill:#263238"
       id="path109" />
    <path
       d="m 248.34,125.34 v 2 h -4.47 v 8.4 h -2.16 V 116.3 h 7.71 v 2 h -5.55 v 7.07 z"
       style="fill:#263238"
       id="path111" />
    <path
       d="m 253.3,116.3 v 19.41 h -2.17 V 116.3 Z"
       style="fill:#263238"
       id="path113" />
    <path
       d="m 264.08,121 v 1.75 H 262 v -1.86 c 0,-1.75 -0.69,-2.8 -2.27,-2.8 -1.58,0 -2.28,1 -2.28,2.8 v 10.26 c 0,1.74 0.72,2.8 2.28,2.8 1.56,0 2.27,-1.06 2.27,-2.8 v -2.53 h 2.05 V 131 c 0,2.94 -1.38,4.88 -4.38,4.88 -3,0 -4.35,-1.94 -4.35,-4.88 v -10 c 0,-2.94 1.38,-4.88 4.35,-4.88 2.97,0 4.41,1.93 4.41,4.88 z"
       style="fill:#263238"
       id="path115" />
    <path
       d="m 268.24,131.8 -0.75,3.91 h -2 l 3.71,-19.41 h 3.13 l 3.72,19.41 h -2.15 l -0.75,-3.91 z m 0.28,-1.86 h 4.32 l -2.19,-11.2 z"
       style="fill:#263238"
       id="path117" />
    <path
       d="M 280.58,135.71 V 118.27 H 277 v -2 h 9.32 v 2 h -3.58 v 17.44 z"
       style="fill:#263238"
       id="path119" />
    <path
       d="m 290,116.3 v 19.41 h -2.16 V 116.3 Z"
       style="fill:#263238"
       id="path121" />
    <path
       d="m 292,121 c 0,-3 1.47,-4.88 4.43,-4.88 2.96,0 4.47,1.91 4.47,4.88 v 10 c 0,2.94 -1.47,4.88 -4.47,4.88 -3,0 -4.43,-1.88 -4.43,-4.88 z m 2.13,10.15 c 0,1.77 0.75,2.8 2.3,2.8 1.55,0 2.3,-1 2.3,-2.8 v -10.27 c 0,-1.75 -0.72,-2.8 -2.3,-2.8 -1.58,0 -2.3,1 -2.3,2.8 z"
       style="fill:#263238"
       id="path123" />
    <path
       d="M 304.89,135.71 H 303 V 116.3 h 2.74 l 4.49,14 v -14 h 1.92 v 19.41 h -2.25 l -5,-15.69 z"
       style="fill:#263238"
       id="path125" />
    <line
       x1="181.25"
       y1="146.53"
       x2="330.12"
       y2="146.53"
       style="fill:none;stroke:#263238;stroke-miterlimit:10"
       id="line127" />
    <line
       x1="382.10001"
       y1="165.52"
       x2="392.39999"
       y2="165.52"
       style="fill:none;stroke:#263238;stroke-miterlimit:10"
       id="line129" />
    <line
       x1="293.97"
       y1="165.52"
       x2="376.66"
       y2="165.52"
       style="fill:none;stroke:#263238;stroke-miterlimit:10"
       id="line131" />
    <line
       x1="246.10001"
       y1="165.52"
       x2="289.25"
       y2="165.52"
       style="fill:none;stroke:#263238;stroke-miterlimit:10"
       id="line133" />
    <line
       x1="181.89999"
       y1="165.52"
       x2="241.74001"
       y2="165.52"
       style="fill:none;stroke:#263238;stroke-miterlimit:10"
       id="line135" />
    <line
       x1="143.09"
       y1="165.52"
       x2="175.73"
       y2="165.52"
       style="fill:none;stroke:#263238;stroke-miterlimit:10"
       id="line137" />
    <line
       x1="118.97"
       y1="165.52"
       x2="138.38"
       y2="165.52"
       style="fill:none;stroke:#263238;stroke-miterlimit:10"
       id="line139" />
    <line
       x1="242.83"
       y1="174.63"
       x2="392.39999"
       y2="174.63"
       style="fill:none;stroke:#263238;stroke-miterlimit:10"
       id="line141" />
    <line
       x1="126.77"
       y1="174.63"
       x2="238.12"
       y2="174.63"
       style="fill:none;stroke:#263238;stroke-miterlimit:10"
       id="line143" />
    <line
       x1="118.97"
       y1="174.63"
       x2="122.42"
       y2="174.63"
       style="fill:none;stroke:#263238;stroke-miterlimit:10"
       id="line145" />
    <line
       x1="381.01001"
       y1="183.74001"
       x2="392.39999"
       y2="183.74001"
       style="fill:none;stroke:#263238;stroke-miterlimit:10"
       id="line147" />
    <line
       x1="319.72"
       y1="183.74001"
       x2="375.57001"
       y2="183.74001"
       style="fill:none;stroke:#263238;stroke-miterlimit:10"
       id="line149" />
    <line
       x1="235.21001"
       y1="183.74001"
       x2="315.37"
       y2="183.74001"
       style="fill:none;stroke:#263238;stroke-miterlimit:10"
       id="line151" />
    <line
       x1="222.88"
       y1="183.74001"
       x2="230.5"
       y2="183.74001"
       style="fill:none;stroke:#263238;stroke-miterlimit:10"
       id="line153" />
    <line
       x1="118.97"
       y1="183.74001"
       x2="216.35001"
       y2="183.74001"
       style="fill:none;stroke:#263238;stroke-miterlimit:10"
       id="line155" />
    <line
       x1="346.92001"
       y1="192.86"
       x2="392.39999"
       y2="192.86"
       style="fill:none;stroke:#263238;stroke-miterlimit:10"
       id="line157" />
    <line
       x1="184.44"
       y1="192.86"
       x2="342.57001"
       y2="192.86"
       style="fill:none;stroke:#263238;stroke-miterlimit:10"
       id="line159" />
    <line
       x1="169.92999"
       y1="192.86"
       x2="178.64"
       y2="192.86"
       style="fill:none;stroke:#263238;stroke-miterlimit:10"
       id="line161" />
    <line
       x1="118.97"
       y1="192.86"
       x2="165.22"
       y2="192.86"
       style="fill:none;stroke:#263238;stroke-miterlimit:10"
       id="line163" />
    <line
       x1="363.97"
       y1="201.97"
       x2="392.39999"
       y2="201.97"
       style="fill:none;stroke:#263238;stroke-miterlimit:10"
       id="line165" />
    <line
       x1="242.47"
       y1="201.97"
       x2="358.17001"
       y2="201.97"
       style="fill:none;stroke:#263238;stroke-miterlimit:10"
       id="line167" />
    <line
       x1="196.03999"
       y1="201.97"
       x2="237.03"
       y2="201.97"
       style="fill:none;stroke:#263238;stroke-miterlimit:10"
       id="line169" />
    <line
       x1="131.12"
       y1="201.97"
       x2="190.60001"
       y2="201.97"
       style="fill:none;stroke:#263238;stroke-miterlimit:10"
       id="line171" />
    <line
       x1="118.97"
       y1="201.97"
       x2="127.5"
       y2="201.97"
       style="fill:none;stroke:#263238;stroke-miterlimit:10"
       id="line173" />
    <polygon
       points="143.94,255.46 154.97,259.95 144.19,237.07 130.02,242.11 139.4,266.48 "
       style="fill:#263238;stroke:#263238;stroke-linecap:round;stroke-linejoin:round"
       id="polygon175" />
    <polygon
       points="126.46,256.11 130.73,267.22 140.05,243.71 126.67,236.81 115.32,260.32 "
       style="fill:#263238;stroke:#263238;stroke-linecap:round;stroke-linejoin:round"
       id="polygon177" />
    <path
       d="m 154.94,230.89 c 0,-0.89 1.93,-1.91 1.81,-2.77 -0.12,-0.86 -2.26,-1.31 -2.51,-2.14 -0.25,-0.83 1.31,-2.37 0.95,-3.16 -0.36,-0.79 -2.54,-0.61 -3,-1.35 -0.46,-0.74 0.59,-2.64 0,-3.3 -0.59,-0.66 -2.61,0.13 -3.27,-0.45 -0.66,-0.58 -0.16,-2.69 -0.9,-3.17 -0.74,-0.48 -2.46,0.86 -3.27,0.49 -0.81,-0.37 -0.91,-2.54 -1.76,-2.79 -0.85,-0.25 -2.11,1.52 -3,1.4 -0.89,-0.12 -1.59,-2.18 -2.48,-2.18 -0.89,0 -1.62,2.06 -2.48,2.18 -0.86,0.12 -2.16,-1.64 -3,-1.4 -0.84,0.24 -1,2.43 -1.77,2.79 -0.77,0.36 -2.52,-1 -3.26,-0.49 -0.74,0.51 -0.24,2.6 -0.9,3.18 -0.66,0.58 -2.7,-0.22 -3.27,0.44 -0.57,0.66 0.49,2.56 0,3.3 -0.49,0.74 -2.65,0.55 -3,1.35 -0.35,0.8 1.2,2.31 0.95,3.16 -0.25,0.85 -2.38,1.27 -2.51,2.14 -0.13,0.87 1.81,1.88 1.81,2.77 0,0.89 -1.93,1.9 -1.81,2.76 0.12,0.86 2.26,1.31 2.51,2.15 0.25,0.84 -1.32,2.36 -0.95,3.15 0.37,0.79 2.54,0.62 3,1.35 0.46,0.73 -0.6,2.64 0,3.3 0.6,0.66 2.6,-0.13 3.27,0.45 0.67,0.58 0.16,2.69 0.9,3.17 0.74,0.48 2.46,-0.86 3.26,-0.49 0.8,0.37 0.92,2.54 1.77,2.79 0.85,0.25 2.11,-1.52 3,-1.39 0.89,0.13 1.59,2.17 2.48,2.17 0.89,0 1.62,-2.05 2.48,-2.17 0.86,-0.12 2.16,1.63 3,1.39 0.84,-0.24 1,-2.43 1.77,-2.79 0.77,-0.36 2.52,1 3.26,0.49 0.74,-0.51 0.24,-2.6 0.9,-3.17 0.66,-0.57 2.7,0.21 3.27,-0.45 0.57,-0.66 -0.49,-2.56 0,-3.3 0.49,-0.74 2.65,-0.55 3,-1.35 0.35,-0.8 -1.2,-2.31 -0.95,-3.16 0.25,-0.85 2.38,-1.26 2.51,-2.14 0.13,-0.88 -1.81,-1.87 -1.81,-2.76 z"
       style="fill:#ed7d3a;stroke:#263238;stroke-miterlimit:10"
       id="path179" />
    <circle
       cx="137.53"
       cy="230.89"
       r="12.06"
       style="fill:#263238;stroke:#263238;stroke-linecap:round;stroke-linejoin:round"
       id="circle181" />
    <polygon
       points="145.41,228.33 140.54,231.86 142.4,237.59 137.53,234.05 132.66,237.59 134.52,231.86 129.65,228.33 135.67,228.33 137.53,222.6 139.39,228.33 "
       style="fill:#ed7d3a"
       id="polygon183" />
    <line
       x1="169.13"
       y1="225.11"
       x2="215.13"
       y2="225.11"
       style="fill:none;stroke:#263238;stroke-miterlimit:10"
       id="line185" />
    <line
       x1="169.13"
       y1="236.10001"
       x2="215.13"
       y2="236.10001"
       style="fill:none;stroke:#263238;stroke-miterlimit:10"
       id="line187" />
    <circle
       cx="366.69"
       cy="234.10001"
       r="17.1"
       style="fill:none;stroke:#ed7d3a;stroke-miterlimit:10"
       id="circle189" />
    <circle
       cx="366.69"
       cy="234.10001"
       r="11.6"
       transform="rotate(-12.35,366.7983,234.13728)"
       style="fill:#ed7d3a"
       id="circle191" />
  </g>
  <g
     id="freepik--Plant--inject-257"
     transform="translate(-33.279999,-41.56)">
    <path
       d="m 423,426.5 c 0,0 -3.5,-6 -5.25,-9.25 A 69.23,69.23 0 0 1 414.5,410 c 0,0 4.25,2.5 5.5,3.5 1.25,1 6.5,7.25 6.5,7.25 l 1.5,-1.75 -1.75,-5.75 5.75,6.5 2.75,-11.75 4.25,11.25 8,-10 0.5,10 9.75,-7.75 -3.5,12.25 L 450,429 h -26.75 z"
       style="fill:#ed7d3a;stroke:#263238;stroke-miterlimit:10"
       id="path194" />
    <path
       d="m 421.5,426.5 c 0,0 -2.25,-1 -6,-5.5 a 75.42,75.42 0 0 1 -6.5,-9.25 c 0,0 8.5,4.75 11.5,7 a 52.68,52.68 0 0 1 7,7.25 c 0,0 -2.5,-6.25 -2.75,-9.25 -0.25,-3 -0.5,-9.5 -0.5,-9.5 0,0 7.25,7.25 7.75,9.25 0.5,2 3.25,8.75 3.25,8.75 a 89.56,89.56 0 0 0 2,-9.25 c 0.5,-3.75 4.5,-9.75 4.5,-9.75 0,0 0.5,4.25 0.75,8.5 0.25,4.25 -2.25,12.25 -2.25,12.25 0,0 3.25,-7.75 6.5,-11.5 a 75.2,75.2 0 0 1 8.25,-7.75 c 0,0 -2.5,7.75 -3.5,11.25 a 35.86,35.86 0 0 1 -3.75,7.75 105.64,105.64 0 0 1 7.5,-8.5 A 59,59 0 0 1 463,413 c 0,0 -2.75,5.25 -4.75,8.25 a 90.77,90.77 0 0 1 -6,7.5 H 421.5 Z"
       style="fill:#ed7d3a;stroke:#263238;stroke-miterlimit:10"
       id="path196" />
    <polygon
       points="452,467.33 420.67,467.33 417.7,441.25 415.97,426 456.7,426 454.97,441.25 "
       style="fill:#ffffff;stroke:#263238;stroke-miterlimit:10"
       id="polygon198" />
    <polygon
       points="420.67,467.33 417.7,441.25 454.97,441.25 452,467.33 "
       style="fill:#ed7d3a;stroke:#263238;stroke-miterlimit:10"
       id="polygon200" />
    <circle
       cx="423.5"
       cy="447"
       r="1.5"
       style="fill:#263238"
       id="circle202" />
    <circle
       cx="434.5"
       cy="447"
       r="1.5"
       style="fill:#263238"
       id="circle204" />
    <circle
       cx="427.75"
       cy="454.75"
       r="1.5"
       style="fill:#263238"
       id="circle206" />
    <circle
       cx="441"
       cy="454.75"
       r="1.5"
       style="fill:#263238"
       id="circle208" />
    <circle
       cx="449.75"
       cy="454.75"
       r="1.5"
       style="fill:#263238"
       id="circle210" />
    <circle
       cx="445.5"
       cy="447"
       r="1.5"
       style="fill:#263238"
       id="circle212" />
    <circle
       cx="423.5"
       cy="461"
       r="1.5"
       style="fill:#263238"
       id="circle214" />
    <circle
       cx="434.5"
       cy="461"
       r="1.5"
       style="fill:#263238"
       id="circle216" />
    <circle
       cx="445.5"
       cy="461"
       r="1.5"
       style="fill:#263238"
       id="circle218" />
  </g>
  <g
     id="freepik--Character--inject-257"
     transform="translate(-33.279999,-41.56)">
    <ellipse
       cx="262.13"
       cy="298.31"
       rx="13.8"
       ry="9.0299997"
       transform="rotate(-89.86,262.15469,298.31501)"
       style="fill:#ffffff;stroke:#263238;stroke-linecap:round;stroke-linejoin:round"
       id="ellipse221" />
    <path
       d="m 273.49,263.79 c 0,0 -4.87,2.79 -9.51,-0.23 -4.64,-3.02 -1.39,-4.4 -0.46,-6.26 0.93,-1.86 -1.39,-2.32 -1.86,-4.87 -0.47,-2.55 1.16,-4.64 2.09,-4.87 0.93,-0.23 0.7,-2.79 0.7,-5.34 0,-2.55 3,-4.87 4.4,-4.87 1.4,0 2.32,-1.85 3.25,-4.17 0.93,-2.32 2.79,-4.41 6,-3 3.21,1.41 4.87,1.39 6.5,-0.93 1.63,-2.32 5.56,-2.78 7,-1.62 1.44,1.16 2.08,3.48 4.87,1.16 2.79,-2.32 6.26,-1.85 7.88,-0.23 1.62,1.62 1.39,3.48 4,2.55 2.61,-0.93 6.72,0.46 7.65,3.25 0.93,2.79 6,5.8 7.89,5.1 1.89,-0.7 5.1,0 3.47,3.48 -1.63,3.48 0.24,5.8 1.63,5.8 1.39,0 4.41,0.93 2.78,3.94 -1.63,3.01 -2.78,5.34 -0.93,6.26 1.85,0.92 4.87,1.16 2.56,5.11 -2.31,3.95 -4.18,3.71 -3.48,6 0.7,2.29 2.08,3 0,4.64 -2.08,1.64 -4.64,2.32 -4.64,3.71 0,1.39 2.78,2.08 -0.47,3.24 a 26.43,26.43 0 0 1 -5.8,1.4 c 0,0 -4.63,-12.53 -17.86,-16.7 -13.23,-4.17 -20.87,-3.72 -23.89,-2.09 -3.02,1.63 -3.77,-0.46 -3.77,-0.46 z"
       style="fill:#263238;stroke:#263238;stroke-linecap:round;stroke-linejoin:round"
       id="path223" />
    <path
       d="m 278.16,348.83 -17,7.84 c 0,0 -8.79,48.66 -8.16,62.16 0.63,13.5 8.16,47.09 8.16,47.09 H 302 c 0,0 -6.28,-41.13 -3.14,-55.88 3.14,-14.75 10.68,-55.25 10.68,-55.25 0,0 -12.56,-3.45 -16.33,-4.08 -3.77,-0.63 -15.05,-1.88 -15.05,-1.88 z"
       style="fill:#ffffff;stroke:#263238;stroke-miterlimit:10"
       id="path225" />
    <path
       d="m 258.66,371.56 47,4.06 c -0.38,2 -0.76,4 -1.15,6 l -46.8,-4 c 0.29,-2.12 0.64,-4.15 0.95,-6.06 z M 298.88,410 c 0.36,-1.7 0.78,-3.74 1.24,-6 l -45.66,-3.94 c -0.26,2.1 -0.49,4.13 -0.7,6.06 l 45.12,3.91 z m 4,-20.22 -46.49,-4 c -0.3,2 -0.6,4 -0.88,6.06 l 46.19,4 c 0.43,-1.94 0.82,-3.96 1.22,-6.02 z m -49.85,25.24 c -0.06,1.44 -0.07,2.71 0,3.77 0,0.73 0.09,1.52 0.16,2.35 L 298,424 c 0,-2.14 0,-4.2 0,-6.12 z m 8.42,-58.52 -0.28,0.13 c 0,0 -0.4,2.24 -1,5.89 l 47.16,4.08 c 0.42,-2.27 0.81,-4.31 1.13,-6 z m 38,89.42 -42.45,-0.45 c 0.4,2.12 0.81,4.17 1.2,6.12 l 42,0.48 c -0.2,-1.92 -0.46,-3.98 -0.68,-6.07 z m -44.27,-10.08 43.57,2.56 q -0.26,-3.07 -0.45,-6.15 l -44.11,-2.59 c 0.36,2.03 0.7,4.11 1.06,6.22 z"
       style="fill:#263238"
       id="path227" />
    <path
       d="m 275.65,340 c 0,0 -3.45,13.18 -3.76,20.09 -0.31,6.91 6.9,12.55 17.26,11.61 10.36,-0.94 12.24,-12.24 12.24,-15.07 C 301.39,353.8 302,330 302,330 a 98.6,98.6 0 0 1 -11,8.16 c -5.93,3.76 -15.35,1.84 -15.35,1.84 z"
       style="fill:#b5b5b5;stroke:#263238;stroke-miterlimit:10"
       id="path229" />
    <path
       d="m 285.07,351.34 c 9.81,-4.7 14.7,-13.93 16.91,-19.79 0,-1 0,-1.56 0,-1.56 a 98.6,98.6 0 0 1 -11,8.16 c -6,3.77 -15.38,1.89 -15.38,1.89 0,0 -2.15,8.24 -3.21,15.1 a 40,40 0 0 0 12.68,-3.8 z"
       style="fill:#263238;stroke:#263238;stroke-miterlimit:10"
       id="path231" />
    <path
       d="m 318.69,289.64 c 0,0 -0.4,-13.92 -5.57,-21.88 -5.17,-7.96 -16.07,-12.83 -28.24,-10.76 -15.1,2.6 -21.88,13.92 -24.27,23.47 -2.39,9.55 0.4,23.47 0.4,33 0,9.53 11.14,26.65 14.32,29.44 3.18,2.79 8.09,3.71 13.7,0.87 5.15,-2.62 13.62,-11.53 18.79,-16.7 5.17,-5.17 8.25,-20.55 9.05,-24.13 0.8,-3.58 1.82,-13.31 1.82,-13.31 z"
       style="fill:#b5b5b5;stroke:#263238;stroke-linecap:round;stroke-linejoin:round"
       id="path233" />
    <path
       d="m 276.51,316.68 c 0,0 -0.47,3 6.49,2.55"
       style="fill:none;stroke:#263238;stroke-linecap:round;stroke-linejoin:round"
       id="path235" />
    <path
       d="m 274.42,324.56 c 0,0 8.12,5.57 16.24,0.24"
       style="fill:none;stroke:#263238;stroke-linecap:round;stroke-linejoin:round"
       id="path237" />
    <path
       d="m 290.66,306 c 0,0 2.08,-3.48 8.12,-0.47"
       style="fill:none;stroke:#263238;stroke-width:2px;stroke-linecap:round;stroke-linejoin:round"
       id="path239" />
    <path
       d="m 274.42,303.92 c 0,1.67 -0.78,3 -1.74,3 -0.96,0 -1.74,-1.35 -1.74,-3 0,-1.65 0.78,-3 1.74,-3 0.96,0 1.74,1.34 1.74,3 z"
       style="fill:#263238"
       id="path241" />
    <path
       d="m 267,294.41 c 0,0 2.09,-4.64 9,-2.32"
       style="fill:none;stroke:#263238;stroke-linecap:round;stroke-linejoin:round"
       id="path243" />
    <path
       d="m 287.64,294 c 0,0 6.5,-3.48 13.69,1.85"
       style="fill:none;stroke:#263238;stroke-linecap:round;stroke-linejoin:round"
       id="path245" />
    <path
       d="m 284.88,257 c -15.1,2.6 -21.88,13.92 -24.27,23.47 a 34,34 0 0 0 -0.88,6.46 c 0.78,-2.43 4.83,-13.09 16.31,-16 13,-3.24 24.36,0.93 28.3,6.5 3.94,5.57 3,12.76 4.41,16.24 0.88,2.2 5.3,5.52 8.43,7.66 0.72,-4.27 1.51,-11.74 1.51,-11.74 0,0 -0.4,-13.92 -5.57,-21.88 -5.17,-7.96 -16.07,-12.78 -28.24,-10.71 z"
       style="fill:#263238;stroke:#263238;stroke-linecap:round;stroke-linejoin:round"
       id="path247" />
    <path
       d="m 314.78,292.09 c 0,0 1.16,-12.29 -2.32,-20.41 -3.48,-8.12 -7.65,-11.6 -7.65,-11.6 0,0 9.74,5.11 13.22,10 3.48,4.89 3.94,16.7 3,24.82 l -7.19,-1.16 z"
       style="fill:#ed7d3a;stroke:#263238;stroke-miterlimit:10"
       id="path249" />
    <path
       d="m 324.13,304.15 c -1.4,7.49 -6.51,12.82 -11.42,11.91 -4.91,-0.91 -7.74,-7.74 -6.34,-15.23 1.4,-7.49 6.51,-12.82 11.41,-11.91 4.9,0.91 7.75,7.74 6.35,15.23 z"
       style="fill:#ffffff;stroke:#263238;stroke-linecap:round;stroke-linejoin:round"
       id="path251" />
    <ellipse
       cx="316.51999"
       cy="303.87"
       rx="10.47"
       ry="6.8499999"
       transform="rotate(-79.42,316.50525,303.8682)"
       style="fill:#ed7d3a;stroke:#263238;stroke-miterlimit:10"
       id="ellipse253" />
    <path
       d="m 266.55,435.32 c 2.34,16.6 5.22,31.49 5.22,31.49 h -17.15 c 0,0 -4.39,-22.61 -9.73,-35.16 -3,-7.14 -3.73,-10 -3.78,-11.17 -2.33,5.55 -16.85,39.84 -19.45,41 -2.83,1.25 -13.19,-1 -17,-2.2 -3.81,-1.2 -4.07,-6.59 -3.44,-8.79 0.63,-2.2 27,-65.93 29.5,-70 a 55,55 0 0 0 5.34,-13.19 c 0.31,-1.88 -0.32,-6.28 2.51,-7.84 1.71,-0.95 13.73,-3.73 23,-5.79 6.06,-1.35 10.93,-2.38 10.93,-2.38 0,0 -7.5,27.93 -8.78,47.71 -0.55,8.77 1,23.09 2.83,36.31 0.01,0 0.01,0 0,0.01 z"
       style="fill:#ed7d3a;stroke:#263238;stroke-miterlimit:10"
       id="path255" />
    <path
       d="m 266.55,435.31 c -2.16,-3.55 -10.92,-18.79 -12.09,-34.66 -1.05,-14.24 4.63,-37.61 7.13,-47 6.06,-1.35 10.93,-2.38 10.93,-2.38 0,0 -7.52,27.95 -8.8,47.73 -0.55,8.77 0.96,23.09 2.83,36.31 z"
       style="fill:#ed7d3a;stroke:#263238;stroke-miterlimit:10"
       id="path257" />
    <path
       d="m 243.53,387.58 c 0.78,-3.39 1.36,-5.22 1.36,-5.22"
       style="fill:none;stroke:#263238;stroke-miterlimit:10"
       id="path259" />
    <path
       d="m 241.44,419.72 c 0,0 -1.89,-6.6 -0.32,-18.52 0.42,-3.15 0.87,-5.95 1.32,-8.36"
       style="fill:none;stroke:#263238;stroke-miterlimit:10"
       id="path261" />
    <path
       d="m 379.56,422.47 c -7.22,-0.32 -43.32,-22.81 -43.32,-22.81 0,0 -11.31,22.16 -11.62,26.66 -0.31,4.5 8.79,40.49 8.79,40.49 H 294.8 c 0,0 -1.17,-12.63 -1.41,-26.48 -0.11,-6.39 0,-13 0.47,-18.83 1.57,-18.31 7.84,-70 7.84,-70 l 6.29,0.64 c 0,0 1.78,0.6 4.57,1.57 7.43,2.58 22,7.86 28.39,11.6 8.78,5.14 21,13.5 27,17.36 6,3.86 20.09,12.53 22.91,24.1 2.82,11.57 -4.08,16.02 -11.3,15.7 z"
       style="fill:#ed7d3a;stroke:#263238;stroke-miterlimit:10"
       id="path263" />
    <path
       d="m 312.56,353.67 c -0.85,12.86 -3.35,43.49 -8.74,58.31 -5.16,14.17 -8.87,24.16 -10.43,28.35 -0.11,-6.39 0,-13 0.47,-18.83 1.57,-18.31 7.84,-70 7.84,-70 l 6.29,0.64 c 0,0 1.78,0.56 4.57,1.53 z"
       style="fill:none;stroke:#263238;stroke-miterlimit:10"
       id="path265" />
    <line
       x1="336.23999"
       y1="399.64999"
       x2="321.79999"
       y2="395.16"
       style="fill:none;stroke:#263238;stroke-miterlimit:10"
       id="line267" />
    <path
       d="m 315.7,385.43 c 0.42,4.75 1.73,10 5.16,12.94"
       style="fill:none;stroke:#263238;stroke-miterlimit:10"
       id="path269" />
    <path
       d="m 315.83,375.56 a 49.63,49.63 0 0 0 -0.31,5.42"
       style="fill:none;stroke:#263238;stroke-miterlimit:10"
       id="path271" />
    <path
       d="m 314,392.26 c 0,0 3.45,6.43 7.53,8.68"
       style="fill:none;stroke:#263238;stroke-miterlimit:10"
       id="path273" />
    <path
       d="m 335.63,346.24 a 31,31 0 0 1 -0.9,-7.2 c 0,-3.87 0.9,-6.05 -0.51,-5.92 -1.41,0.13 -3.87,1.93 -4.64,5 -0.77,3.07 0.9,5.92 1.16,6.95 A 8.81,8.81 0 0 1 331,347 c 0,0 -11.2,0.38 -13.26,0.38 -2.06,0 -4.12,1.16 -4.12,3.09 0,1.93 2.19,3 2.19,3 l 1,0.52 c 0,0 -1.29,2.44 -0.39,3.73 a 8.38,8.38 0 0 0 1.81,1.93 2.78,2.78 0 0 0 -0.26,2.7 4.84,4.84 0 0 0 1.67,2.19 c 0,0 -1.67,1.55 0.52,3.61 2.19,2.06 6.95,2.19 10.29,2.19 3.34,0 6.18,0.12 6.18,0.12 l 1.42,0.13 11.84,17.64 11.2,-12.49 c 0,0 -16.48,-16 -18.67,-18.79 -2.19,-2.79 -6.79,-10.71 -6.79,-10.71 z"
       style="fill:#b5b5b5;stroke:#263238;stroke-miterlimit:10"
       id="path275" />
    <path
       d="m 360.72,374.25 -15.38,14.44 c 0,0 14.13,18.84 21.66,28.31 7.53,9.47 21.35,11 27.31,6.27 5.96,-4.73 6.6,-15.38 1.26,-22 -5.34,-6.62 -34.85,-27.02 -34.85,-27.02 z"
       style="fill:#ed7d3a;stroke:#263238;stroke-miterlimit:10"
       id="path277" />
    <path
       d="m 257.8,450.1 c 0,0 22.58,3.9 24.69,3.9 2.11,0 24.39,-5.72 25.89,-4.52 1.5,1.2 11.44,9.64 13.85,12.05 a 20.69,20.69 0 0 1 3.61,4.82 h -20.77 l -6.32,-1.51 c 0,0 -5.36,2.48 -8.37,2.48 -3.01,0 -13.09,-0.58 -13.09,-0.58 l -17.74,-0.29 c 0,0 -5.97,-10.03 -1.75,-16.35 z"
       style="fill:#b5b5b5;stroke:#263238;stroke-miterlimit:10"
       id="path279" />
    <path
       d="m 311.39,466.36 c 0,0 -5.12,-5.72 -7.22,-7.23 A 15.31,15.31 0 0 0 300,457"
       style="fill:none;stroke:#263238;stroke-miterlimit:10"
       id="path281" />
    <path
       d="m 318.32,466.66 c 0,0 -9.94,-10.84 -11.14,-11.75 a 18.8,18.8 0 0 0 -4.22,-1.8"
       style="fill:none;stroke:#263238;stroke-miterlimit:10"
       id="path283" />
    <path
       d="m 208.42,439.86 c 0,0 -9,7.23 -10.54,12 -1.54,4.77 0.6,10.54 5.42,12.35 4.82,1.81 58.58,2.79 58.58,2.79 -0.88,0.41 -4.82,-3.28 -2.58,-8.21 1.52,-3.34 5.72,-8.13 5.72,-8.13 l -44.86,-11.44"
       style="fill:#ed7d3a;stroke:#263238;stroke-miterlimit:10"
       id="path285" />
  </g>
  <g
     id="freepik--Device--inject-257"
     transform="translate(-33.279999,-41.56)">
    <rect
       x="99.760002"
       y="464.95999"
       width="184.5"
       height="2.3699999"
       style="fill:#263238;stroke:#263238;stroke-miterlimit:10"
       id="rect288" />
    <polygon
       points="91.62,387.31 206.69,387.31 217.33,467.33 102.26,467.33 "
       style="fill:#ffffff;stroke:#263238;stroke-miterlimit:10"
       id="polygon290" />
    <polygon
       points="89.29,387.31 204.35,387.31 214.99,467.33 99.93,467.33 "
       style="fill:#ffffff;stroke:#263238;stroke-miterlimit:10"
       id="polygon292" />
    <path
       d="m 108.82,467.33 h 105.82 l -8,-60.4 c -14.16,9 -31.41,20.65 -50.21,35 a 161.16,161.16 0 0 1 -47.61,25.4 z"
       style="fill:#263238;stroke:#263238;stroke-miterlimit:10"
       id="path294" />
    <ellipse
       cx="148.48"
       cy="426.57001"
       rx="7.5599999"
       ry="6.98"
       style="fill:#ffffff;stroke:#263238;stroke-miterlimit:10"
       id="ellipse296" />
  </g>
</svg>
