<svg xmlns="http://www.w3.org/2000/svg" viewBox="0 0 500 500"><g id="freepik--Furniture--inject-10"><rect x="334.93" y="309.74" width="145.94" height="5.5" transform="translate(815.8 624.98) rotate(180)" style="fill:none;stroke:#263238;stroke-linecap:round;stroke-linejoin:round"></rect><rect x="341.7" y="315.4" width="132.4" height="148.6" transform="translate(815.8 779.4) rotate(180)" style="fill:none;stroke:#263238;stroke-linecap:round;stroke-linejoin:round"></rect><rect x="346.46" y="322.31" width="123.03" height="32.24" transform="translate(815.96 676.87) rotate(180)" style="fill:none;stroke:#263238;stroke-linecap:round;stroke-linejoin:round"></rect><rect x="402.04" y="335.47" width="12.3" height="5.94" transform="translate(816.38 676.87) rotate(180)" style="fill:#263238;stroke:#263238;stroke-linecap:round;stroke-linejoin:round"></rect><rect x="346.46" y="363.04" width="123.03" height="32.24" transform="translate(815.96 758.33) rotate(180)" style="fill:none;stroke:#263238;stroke-linecap:round;stroke-linejoin:round"></rect><rect x="402.04" y="376.19" width="12.3" height="5.94" transform="translate(816.38 758.33) rotate(180)" style="fill:#263238;stroke:#263238;stroke-linecap:round;stroke-linejoin:round"></rect><rect x="346.46" y="403.96" width="123.03" height="32.24" transform="translate(815.96 840.16) rotate(180)" style="fill:none;stroke:#263238;stroke-linecap:round;stroke-linejoin:round"></rect><rect x="402.04" y="417.11" width="12.3" height="5.94" transform="translate(816.38 840.16) rotate(180)" style="fill:#263238;stroke:#263238;stroke-linecap:round;stroke-linejoin:round"></rect><path d="M414,244.73c1.49.65,5.14.57,5.14.57s-.78-2.39-.85-2.54c-.8-1.67-3.33-4.44-5.39-4.16a2.47,2.47,0,0,0-2,3.09A5.2,5.2,0,0,0,414,244.73Z" style="fill:#263238"></path><path d="M450.87,245.53s.66-2.42.68-2.58c.26-1.84-.33-5.54-2.2-6.45A2.46,2.46,0,0,0,446,238a5.18,5.18,0,0,0,.89,4.24C447.78,243.58,450.86,245.53,450.87,245.53Z" style="fill:#263238"></path><path d="M461.76,232.31c-2.07-.22-4.53,2.61-5.28,4.3-.07.15-.82,2.56-.78,2.56h0c-.39.44-.81.92-1.25,1.46-.81,1-1.71,2.12-2.61,3.42a42.76,42.76,0,0,0-2.71,4.31,31.47,31.47,0,0,0-2.32,5.22s0,0,0,.06c0-.61,0-2.31,0-2.44-.24-1.84-1.78-5.26-3.83-5.64a2.46,2.46,0,0,0-2.83,2.32,5.16,5.16,0,0,0,2,3.85c1.17,1,4.4,2.05,4.66,2.13a45.53,45.53,0,0,0-1.37,5.64c-.19,1.12-.36,2.24-.51,3.37,0-.52,0-1,0-1.06-.24-1.84-1.78-5.26-3.82-5.63a2.45,2.45,0,0,0-2.84,2.31,5.15,5.15,0,0,0,2,3.85,16.24,16.24,0,0,0,4.52,2.08c-.05.44-.11.87-.16,1.31-.25,2.08-.49,4.17-.79,6.2-.1.72-.23,1.42-.36,2.13,0-.47,0-.87,0-.93-.24-1.84-1.78-5.25-3.83-5.63a2.45,2.45,0,0,0-2.83,2.31,5.15,5.15,0,0,0,2,3.85,15.44,15.44,0,0,0,4.39,2c-.15.72-.3,1.44-.48,2.13-.14.46-.23.92-.39,1.38s-.3.92-.44,1.37c-.31.86-.63,1.75-1,2.58-.22.57-.44,1.12-.66,1.67.11-.71.3-2.11.3-2.23a9.57,9.57,0,0,0-1.28-4.65,2.55,2.55,0,0,0-3-2.63c-2,.54-3.28,4.06-3.38,5.92,0,.11.07,1.3.13,2.05-.11-.43-.2-.86-.31-1.31-.21-.89-.45-1.77-.7-2.71-.13-.46-.27-.92-.41-1.38s-.33-.93-.49-1.4c-.39-1.09-.85-2.17-1.33-3.25a16.24,16.24,0,0,0,4.63-1.74,5.13,5.13,0,0,0,2.26-3.69,2.46,2.46,0,0,0-2.66-2.52c-2.07.23-3.86,3.52-4.23,5.34,0,.11-.15,1.45-.2,2.18-.3-.65-.59-1.29-.91-1.94-.92-1.86-1.92-3.71-2.9-5.57-.3-.56-.59-1.13-.89-1.7.28-.07,3.57-.83,4.8-1.78a5.13,5.13,0,0,0,2.26-3.69,2.46,2.46,0,0,0-2.66-2.52c-2.06.23-3.86,3.52-4.23,5.34,0,.13-.2,2.05-.22,2.54-.65-1.25-1.29-2.5-1.87-3.77a42.82,42.82,0,0,1-2-5.24c.13,0,3.57-.81,4.83-1.78a5.13,5.13,0,0,0,2.26-3.69,2.46,2.46,0,0,0-2.66-2.52c-2.06.23-3.86,3.52-4.23,5.33,0,.12-.16,1.59-.21,2.29h-.11a30.93,30.93,0,0,1-1.06-5.55c-.12-1-.17-2-.2-3a16.54,16.54,0,0,0,4.88-1.22,5.15,5.15,0,0,0,2.65-3.43,2.46,2.46,0,0,0-2.37-2.79c-2.08,0-4.22,3.07-4.79,4.84,0,.09-.24,1.1-.38,1.84,0-.43,0-.88,0-1.3,0-1.58.1-3,.2-4.29.06-.72.13-1.38.2-2a16.47,16.47,0,0,0,3.75-3.32,5.14,5.14,0,0,0,.77-4.26,2.47,2.47,0,0,0-3.39-1.39c-1.84,1-2.33,4.67-2,6.5,0,.16.72,2.59.75,2.57l0,0c-.08.59-.16,1.22-.24,1.91-.12,1.27-.25,2.71-.29,4.29a44.58,44.58,0,0,0,.12,5.1,32.17,32.17,0,0,0,.94,5.62l0,.07c-.33-.52-1.29-1.92-1.38-2-1.21-1.4-4.39-3.4-6.3-2.59a2.46,2.46,0,0,0-1.09,3.49,5.15,5.15,0,0,0,3.77,2.13c1.55.22,4.8-.72,5.06-.8a44.47,44.47,0,0,0,2,5.47c.45,1,.93,2.06,1.43,3.09l-.61-.87c-1.22-1.41-4.39-3.4-6.3-2.59a2.45,2.45,0,0,0-1.09,3.49,5.15,5.15,0,0,0,3.77,2.13,16.35,16.35,0,0,0,4.92-.76c.2.39.39.79.58,1.18,1,1.88,1.89,3.75,2.77,5.61.31.65.59,1.31.87,2-.26-.39-.49-.71-.53-.76-1.21-1.4-4.39-3.4-6.3-2.59a2.47,2.47,0,0,0-1.09,3.5,5.17,5.17,0,0,0,3.77,2.12,15.93,15.93,0,0,0,4.79-.72c.27.68.54,1.36.77,2,.14.46.32.9.44,1.37l.39,1.38c.21.89.43,1.8.62,2.68.13.6.25,1.18.37,1.76-.3-.65-.91-1.93-1-2-1-1.57-3.82-4-5.83-3.51a2.47,2.47,0,0,0-1.61,3.29,5.16,5.16,0,0,0,3.41,2.67,16.81,16.81,0,0,0,5.09,0c.2,1,.38,1.91.53,2.8.34,1.95.6,3.7.8,5.19h-8.19v17.22h21.54V292.39h-8.33c.54-1.2,1.13-2.56,1.75-4.07.38-.93.77-1.93,1.16-2.95.39.08,3.59.73,5.08.39a5.12,5.12,0,0,0,3.59-2.4,2.45,2.45,0,0,0-1.35-3.4c-2-.67-5,1.57-6.08,3.07-.07.08-.67,1.12-1,1.78.16-.42.32-.83.47-1.26.32-.86.61-1.73.92-2.65.14-.46.27-.92.41-1.38s.25-1,.37-1.44c.27-1.13.49-2.28.68-3.45a15.86,15.86,0,0,0,4.82,1.11,5.1,5.1,0,0,0,3.92-1.83,2.46,2.46,0,0,0-.82-3.57c-1.85-.95-5.16.81-6.48,2.12-.08.08-.92,1.12-1.37,1.71.11-.71.22-1.41.31-2.12.26-2.06.45-4.16.66-6.24.06-.64.13-1.28.2-1.92.26.1,3.43,1.28,5,1.17,1.38-.1,3.12-.6,3.92-1.83a2.47,2.47,0,0,0-.83-3.57c-1.84-1-5.16.8-6.47,2.11-.1.1-1.31,1.61-1.59,2,.15-1.41.31-2.81.52-4.18a43.42,43.42,0,0,1,1.2-5.49c.12,0,3.42,1.29,5,1.18a5.14,5.14,0,0,0,3.92-1.83,2.46,2.46,0,0,0-.82-3.57c-1.85-.95-5.16.8-6.48,2.11-.09.09-1,1.24-1.43,1.79l-.1,0a31.55,31.55,0,0,1,2.18-5.22c.47-.92,1-1.78,1.48-2.6a16.72,16.72,0,0,0,4.75,1.67,5.17,5.17,0,0,0,4.1-1.4,2.46,2.46,0,0,0-.43-3.63c-1.74-1.15-5.22.23-6.67,1.39-.08.06-.81.79-1.34,1.33.24-.37.47-.76.71-1.1.86-1.31,1.74-2.46,2.53-3.47.45-.57.87-1.07,1.26-1.54a16.85,16.85,0,0,0,5-.71,5.12,5.12,0,0,0,3-3.12A2.45,2.45,0,0,0,461.76,232.31Zm-22.89,55.53c-.74,1.72-1.46,3.25-2.08,4.55H434.6c-.23-1.54-.54-3.37-1-5.42-.19-1-.42-2-.66-3.09a28.66,28.66,0,0,0,2.84-1.34,18,18,0,0,0,4.15,2.67C439.61,286.12,439.24,287,438.87,287.84Z" style="fill:#263238"></path></g><g id="freepik--Picture--inject-10"><polyline points="115.08 176.18 25.66 176.18 25.66 33.83 136.37 33.83 136.37 176.18 120.89 176.18" style="fill:none;stroke:#263238;stroke-miterlimit:10"></polyline><rect x="29.68" y="38.99" width="102.68" height="132.03" style="fill:none;stroke:#263238;stroke-miterlimit:10"></rect><path d="M50.25,75.15a48.89,48.89,0,0,0,5.81,4.61c23.23,15.76,62.63,8.3,75.9,30.69" style="fill:none;stroke:#263238;stroke-miterlimit:10"></path><path d="M36.57,39.53A42.92,42.92,0,0,0,47.35,72.22" style="fill:none;stroke:#263238;stroke-miterlimit:10"></path><path d="M45.37,112.26c11.33-6,26-10.23,33.51,1.92,8.71,14.11-31.53,39-31.53,56.82" style="fill:none;stroke:#263238;stroke-miterlimit:10"></path><path d="M29.94,122.48A98.4,98.4,0,0,1,42.24,114" style="fill:none;stroke:#263238;stroke-miterlimit:10"></path><path d="M83.44,39.53s14.93,23.23,48.94,17" style="fill:none;stroke:#263238;stroke-miterlimit:10"></path><path d="M87.9,62.34A13,13,0,0,1,88,64a13.67,13.67,0,1,1-1.58-6.4" style="fill:none;stroke:#263238;stroke-miterlimit:10"></path><path d="M122,82.46A6.43,6.43,0,1,1,115.58,76,6.42,6.42,0,0,1,122,82.46Z" style="fill:none;stroke:#263238;stroke-miterlimit:10"></path><path d="M122.09,125.83a26.28,26.28,0,0,1,9.91,5" style="fill:none;stroke:#263238;stroke-miterlimit:10"></path><path d="M97.46,171.1A26.54,26.54,0,0,1,115.37,125c.52,0,1,0,1.53,0" style="fill:none;stroke:#263238;stroke-miterlimit:10"></path></g><g id="freepik--Device--inject-10"><rect x="193.7" y="42.5" width="201.83" height="373.89" style="fill:#fff"></rect><rect x="193.7" y="352.63" width="201.83" height="63.76" style="fill:#dedede"></rect><path d="M401.59,116.06a2.49,2.49,0,0,0,2.49-2.49V88.64a2.49,2.49,0,0,0-2.49-2.49,2.42,2.42,0,0,0-.47,0V39.56a16.07,16.07,0,0,0-16.07-16.07H207.9a16.07,16.07,0,0,0-16.08,16.07V415.85a16.08,16.08,0,0,0,16.08,16.08H385.05a16.08,16.08,0,0,0,16.07-16.08V186.93a2.42,2.42,0,0,0,.47,0,2.5,2.5,0,0,0,2.49-2.5V159.55a2.49,2.49,0,0,0-2.49-2.49,2.42,2.42,0,0,0-.47.05v-5.64a2.42,2.42,0,0,0,.47.05,2.5,2.5,0,0,0,2.49-2.49V124.09a2.5,2.5,0,0,0-2.49-2.49,2.42,2.42,0,0,0-.47.05V116A2.42,2.42,0,0,0,401.59,116.06Zm-9.78,291.63H201.13V51.22H391.81Z" style="fill:#263238"></path><rect x="369.51" y="54.92" width="15.81" height="8.67" style="fill:none;stroke:#263238;stroke-linecap:round;stroke-linejoin:round;stroke-width:0.821067px"></rect><rect x="369.51" y="54.92" width="12.33" height="8.67" style="fill:#263238;stroke:#263238;stroke-linecap:round;stroke-linejoin:round;stroke-width:0.725073px"></rect><rect x="385.29" y="57.35" width="2.23" height="3.82" style="fill:#263238;stroke:#263238;stroke-linecap:round;stroke-linejoin:round;stroke-width:0.725073px"></rect><rect x="205.42" y="57.61" width="2.9" height="4.97" style="fill:#263238;stroke:#263238;stroke-linecap:round;stroke-linejoin:round;stroke-width:0.8830859999999999px"></rect><rect x="209.98" y="55.87" width="2.9" height="6.71" style="fill:#263238;stroke:#263238;stroke-linecap:round;stroke-linejoin:round;stroke-width:0.8830859999999999px"></rect><rect x="214.53" y="53.8" width="2.9" height="8.78" style="fill:#263238;stroke:#263238;stroke-linecap:round;stroke-linejoin:round;stroke-width:0.8830859999999999px"></rect><rect x="204.2" y="68.41" width="183.11" height="48.12" style="fill:#0D5F82"></rect><line x1="250.48" y1="75.34" x2="250.48" y2="110.67" style="fill:none;stroke:#fff;stroke-miterlimit:10"></line><line x1="297.14" y1="75.34" x2="297.14" y2="110.67" style="fill:none;stroke:#fff;stroke-miterlimit:10"></line><line x1="343.81" y1="75.34" x2="343.81" y2="110.67" style="fill:none;stroke:#fff;stroke-miterlimit:10"></line><path d="M399.47,186.93a2.42,2.42,0,0,0,.47,0,2.5,2.5,0,0,0,2.49-2.5v-8.93l-12.27,21.63V407.69H270.79L257,431.93H383.39a16.08,16.08,0,0,0,16.08-16.08Z" style="fill:#fff;opacity:0.15"></path></g><g id="freepik--qr-code--inject-10"><path d="M288.73,282.43V271l0,0h5.71v-5.75h-5.69c0-1.91,0-3.83,0-5.74H300.2v-5.71h5.72v5.68h5.74V248h17.2v5.71h5.69V248h-5.71v-5.76H317.37V230.86H300.16v5.72H288.75v11.47h5.68v5.72h-5.71v5.73H283v-5.74H265.81v-5.71H283V202.17h5.75v0q0,8.28,0,16.56v.62h5.73V207.92h5.71v11.45h5.76v5.71h28.66v5.72h5.74v5.77l0,0h-5.71v5.75h5.69v11.48h5.75l0,0v11.46h-5.69V276.7H346v5.73h11.45v5.72H340.33V299.6h-5.72v-5.72h-11.5l0,0v-5.73h-5.72v-5.72h11.41v-5.73H300.21v5.7H288.73Zm34.38-17.2v-5.7h-5.69v5.69h5.71v5.71h11.42v-5.7Zm-11.48,0H306v5.67h5.67Zm11.51-28.73h5.67v-5.68h-5.67Z" style="fill:#263238"></path><path d="M237.14,219.33V179.25h40.07v40.08ZM242.89,185v28.61h28.6V185Z" style="fill:#263238"></path><path d="M357.48,219.34H317.41V179.27h40.07ZM351.76,185h-28.6v28.6h28.6Z" style="fill:#263238"></path><path d="M237.15,259.51h40.08v40.08H237.15Zm34.35,5.75H242.89v28.61H271.5Z" style="fill:#263238"></path><path d="M288.72,202.17V190.7H283V179.26h28.61v11.42H306v5.74h5.67v11.44h-5.71v-5.69H300.2v-5.72h-5.72v5.7h-5.77Zm5.75-11.51h5.68V185h-5.68Z" style="fill:#263238"></path><path d="M265.78,230.82v5.73h11.45v5.72H260.06v11.46h-22.9v-11.4h5.67V248h11.5V230.82h11.46Z" style="fill:#263238"></path><path d="M288.71,282.42v5.73h5.73v5.72h5.71v5.73H283V282.43h5.69Z" style="fill:#263238"></path><path d="M254.33,230.82H242.87v5.71h-5.71v-11.4h17.15v5.7Z" style="fill:#263238"></path><path d="M357.48,242.27H351.8V230.84h-5.72v-5.72h11.4Z" style="fill:#263238"></path><path d="M265.79,230.84v-5.71h11.43v5.69H265.78Z" style="fill:#263238"></path><path d="M346.06,253.77v-5.71h5.69v5.69H346Z" style="fill:#263238"></path><path d="M351.81,259.52h5.67v5.68h-5.67Z" style="fill:#263238"></path><path d="M305.92,219.37v-5.71h5.7v5.69h-5.71Z" style="fill:#263238"></path><path d="M288.73,271H283v-5.72h5.69V271Z" style="fill:#263238"></path><path d="M346.06,276.7V271h5.69v5.69h-5.69Z" style="fill:#263238"></path><path d="M340.31,236.57H346v5.72h-5.69v-5.75Z" style="fill:#263238"></path><path d="M311.62,293.87h-5.68V288.2h5.68Z" style="fill:#263238"></path><path d="M323.11,293.88v5.71h-5.69V293.9h5.71Z" style="fill:#263238"></path><path d="M357.48,299.61h-5.67v-5.68h5.67Z" style="fill:#263238"></path><path d="M311.66,248H306v-5.69h5.7V248Z" style="fill:#263238"></path><path d="M265.75,207.87H248.61V190.73h17.14Z" style="fill:#263238"></path><path d="M328.87,207.86V190.72H346v17.14Z" style="fill:#263238"></path><path d="M248.61,288.13V271h17.14v17.14Z" style="fill:#263238"></path><polyline points="253.79 165.67 228.69 165.67 228.69 193.36" style="fill:none;stroke:#0D5F82;stroke-miterlimit:10;stroke-width:2px"></polyline><polyline points="345.07 165.67 370.16 165.67 370.16 193.36" style="fill:none;stroke:#0D5F82;stroke-miterlimit:10;stroke-width:2px"></polyline><polyline points="253.79 311.49 228.69 311.49 228.69 283.8" style="fill:none;stroke:#0D5F82;stroke-miterlimit:10;stroke-width:2px"></polyline><polyline points="345.07 311.49 370.16 311.49 370.16 283.8" style="fill:none;stroke:#0D5F82;stroke-miterlimit:10;stroke-width:2px"></polyline></g><g id="freepik--Character--inject-10"><rect x="166.42" y="171.67" width="13.67" height="28.67" rx="2.67" style="fill:#263238;stroke:#263238;stroke-miterlimit:10"></rect><rect x="167.62" y="174.2" width="11.25" height="23.6" style="fill:#fff;stroke:#263238;stroke-miterlimit:10"></rect><path d="M57.66,312.17A21.6,21.6,0,0,0,69,308.88c-.22,6.38-.39,11.21-.39,11.21s1.1,1.92,1.65,2.75,5.22,3.57,5.77,6.05,3,3.85,2.75,7.42-3.3-.28-2.75.55,2.2,3.57,2.2,6.05-5.22,2.47-7.15.82-8.24-5.5-8.79-9.07l-2.15-8Z" style="fill:#fff;stroke:#263238;stroke-miterlimit:10"></path><path d="M69.08,332l1.34,6s4.33,3.33,4.66,5.67" style="fill:#fff;stroke:#263238;stroke-miterlimit:10"></path><line x1="76.02" y1="336.86" x2="74.08" y2="333" style="fill:#fff;stroke:#263238;stroke-miterlimit:10"></line><path d="M90.69,458.77s-1.57,12.87-.35,14.44A9.17,9.17,0,0,0,96.25,477c2.78.35,7.48-1.22,7.48-1.22a28.38,28.38,0,0,0,9.74.87c5-.52,8.34-2.43,8.69-4.87s-4-3.47-6.43-6.08-6.31-7.23-6.31-7.23l-1-3.38s-5.91,3-9.73,3.13a23.11,23.11,0,0,1-6.44-.52Z" style="fill:#fff;stroke:#263238;stroke-miterlimit:10"></path><path d="M122.16,471.81a1.86,1.86,0,0,0-.08-.85c-1.15.48-2.62,1.06-4.44,1.72-5.22,1.92-7.83.35-10.43.35s-2.79,2.78-10.09.87c-4.77-1.25-6.56-2.86-7.24-3.84a6.86,6.86,0,0,0,.46,3.15A9.17,9.17,0,0,0,96.25,477c2.78.35,7.48-1.22,7.48-1.22a28.38,28.38,0,0,0,9.74.87C118.51,476.16,121.81,474.25,122.16,471.81Z" style="fill:#fff;stroke:#263238;stroke-miterlimit:10"></path><path d="M81.42,299s-7,23.5-4.5,40,14.5,47.5,14.5,47.5-1.5,11.5-1.5,15.5-3.5,11.5-1,19.5,2.5,29,2.5,30.5-1,9.5-1,9.5,2,3,9.5,3,9.5-6,9.5-6,7.5-44.5,7.5-51.5,8-33,11-43.5a89.6,89.6,0,0,1,8.65-20.68c2-3.5.85-45.82.85-45.82l-57-5Z" style="fill:#737373;stroke:#263238;stroke-miterlimit:10"></path><path d="M120.77,462.08s7.48,2.95,11.13,4.69,6.08,1.91,6.08,4.7-6.6,5.56-10.6,6.26-10.44.52-11.13.69-13.74,2.09-15.3-1.22.17-14.6.17-14.6A50.57,50.57,0,0,0,120.77,462.08Z" style="fill:#fff;stroke:#263238;stroke-miterlimit:10"></path><path d="M116.25,478.42c.69-.17,7.13,0,11.13-.69s10.6-3.48,10.6-6.26a3.56,3.56,0,0,0-.16-1.08,48.36,48.36,0,0,1-5.23,2.64c-4.87,2.09-11.3,3.48-21,3.31a44.88,44.88,0,0,1-11.14-1.43,7.34,7.34,0,0,0,.54,2.29C102.51,480.51,115.55,478.6,116.25,478.42Z" style="fill:#fff;stroke:#263238;stroke-miterlimit:10"></path><path d="M137.92,301s3,40.5-3,71-16,72-16.5,74,3.5,7.5,3.5,7.5v8s-3.5,3.5-11.5,4.5-10.5-1.5-10.5-1.5-2-13.5-2-23,2-42,2-42,4.5-33,4-38-2-20.5-2-20.5l-8-9.5" style="fill:#737373;stroke:#263238;stroke-miterlimit:10"></path><path d="M53.87,293.38l15.73-2.76c-.07,2.13.38-11.33.38-12.33,0-2.2,5.22-16,5.22-16s4.12,17.88,4.12,20.08-1.65,19,.55,21.17,9.9,6.6,26.95,6.05,29.7-1.93,33-5.23-.55-13.47-.83-14.84,4.4-37.4,4.4-37.4,18.42,19.25,29.42,16.5S178.59,223,178.59,223l.55-12.37s3.57-9.07,3.57-10.45-3.57-11.27-3.57-11.27-2.2-1.93-3.58,2.75a45.12,45.12,0,0,0-1.65,7.7s-3.3,2.47-3,6.05a23.65,23.65,0,0,0,1.37,6.32L164.84,236s-8.25-9.35-8.8-11-.28-7.7-7.15-11.28-20.9-3.85-20.9-3.85l-38.77.28S71.07,211.75,67,215.32s-16.77,48.95-16.77,55.82c0,2.15,1.12,8.81,2.69,17.05Z" style="fill:#fff;stroke:#263238;stroke-miterlimit:10"></path><path d="M179.14,188.93s-.83,6.87-.28,8.25a15.36,15.36,0,0,1,.55,7.42" style="fill:none;stroke:#263238;stroke-miterlimit:10"></path><path d="M172.81,268.67c11-2.75,5.78-45.65,5.78-45.65l.12-2.77a9.94,9.94,0,0,0-8.54-1.69L164.84,236s-8.25-9.35-8.8-11-.28-7.7-7.15-11.28-20.9-3.85-20.9-3.85l-38.77.28S71.07,211.75,67,215.32s-16.77,48.95-16.77,55.82c0,4.08,4.06,24.42,7.48,41A21.6,21.6,0,0,0,69,308.88c.4-11.89,1-29.16,1-30.59,0-2.2,5.22-16,5.22-16s4.12,17.88,4.12,20.08-1.65,19,.55,21.17,9.9,6.6,26.95,6.05,29.7-1.93,33-5.23-.55-13.47-.83-14.84,4.4-37.4,4.4-37.4S161.81,271.42,172.81,268.67Z" style="fill:#0D5F82;stroke:#263238;stroke-miterlimit:10"></path><polyline points="69.8 247.21 75.2 262.34 64.08 243.33" style="fill:none;stroke:#263238;stroke-miterlimit:10"></polyline><line x1="66.75" y1="238.67" x2="68.66" y2="244.02" style="fill:none;stroke:#263238;stroke-miterlimit:10"></line><path d="M104.83,248.28c2.43,5.46,6,12.31,10.25,16.72" style="fill:none;stroke:#263238;stroke-miterlimit:10"></path><path d="M101.42,239.67s.75,2.25,2.09,5.52" style="fill:none;stroke:#263238;stroke-miterlimit:10"></path><path d="M107.42,258s6,12,9,14.33" style="fill:none;stroke:#263238;stroke-miterlimit:10"></path><line x1="152.8" y1="243.45" x2="155.08" y2="241.33" style="fill:none;stroke:#263238;stroke-miterlimit:10"></line><polyline points="149.08 240.33 143.39 252.17 150.73 245.37" style="fill:none;stroke:#263238;stroke-miterlimit:10"></polyline><path d="M175.08,247c-.33-2.33-10.24-11.05-10.24-11.05s10.24,4.05,12.91,7.72" style="fill:none;stroke:#263238;stroke-miterlimit:10"></path><path d="M131.84,173.8s.55,6.88,1.38,8,1.37,9.62,0,12.1-2.2,5.5-3,6.32-3.85.83-5,.83-13.47-.55-13.47-.55l.28-17.33S115.07,170.23,131.84,173.8Z" style="fill:#fff;stroke:#263238;stroke-miterlimit:10"></path><path d="M109.85,154.56S98.57,158.13,96.1,168s5.5,21.17,5.5,21.17,2.2,8,4.12,9.63,9.62,0,12.1-.55,8-15.4,8-15.4,0,3.57,1.65,3.57,1.38-4.67,1.38-5.5,7.7-6.6,7.7-16.49S128,150.16,120,150.71,109.85,154.56,109.85,154.56Z" style="fill:#263238;stroke:#263238;stroke-miterlimit:10"></path><path d="M133.22,209.27s-1.65-5.77-2.48-6.59-6.05-4.13-14.57-4.68-21.17-.27-22.27.28-1.38,5.22-1.38,5.22-3.57,3.3-4.4,5.23-1.65,2.74,6,9.07,11.83,8.8,19.8,6.87,19.52-13.47,19.52-13.47Z" style="fill:#0D5F82;stroke:#263238;stroke-miterlimit:10"></path><path d="M113.55,213.17A83.29,83.29,0,0,0,129.09,206" style="fill:none;stroke:#263238;stroke-miterlimit:10"></path><path d="M92.52,204.6s5,9.9,13.75,9.9a18.92,18.92,0,0,0,3.55-.38" style="fill:none;stroke:#263238;stroke-miterlimit:10"></path></g></svg>