<?xml version="1.0" encoding="UTF-8" standalone="no"?>
<svg
   viewBox="0 0 462.62698 420.50632"
   version="1.1"
   id="svg462"
   sodipodi:docname="kpl-nous-jeux-video.svg"
   width="462.62698"
   height="420.50632"
   inkscape:version="1.1 (c68e22c387, 2021-05-23)"
   xmlns:inkscape="http://www.inkscape.org/namespaces/inkscape"
   xmlns:sodipodi="http://sodipodi.sourceforge.net/DTD/sodipodi-0.dtd"
   xmlns="http://www.w3.org/2000/svg"
   xmlns:svg="http://www.w3.org/2000/svg">
  <defs
     id="defs466" />
  <sodipodi:namedview
     id="namedview464"
     pagecolor="#ffffff"
     bordercolor="#666666"
     borderopacity="1.0"
     inkscape:pageshadow="2"
     inkscape:pageopacity="0.0"
     inkscape:pagecheckerboard="0"
     showgrid="false"
     inkscape:zoom="1.244"
     inkscape:cx="237.13826"
     inkscape:cy="197.7492"
     inkscape:window-width="1368"
     inkscape:window-height="850"
     inkscape:window-x="-6"
     inkscape:window-y="-6"
     inkscape:window-maximized="1"
     inkscape:current-layer="svg462" />
  <g
     id="freepik--background-simple--inject-2"
     transform="translate(-13.257988,-52.3)">
    <path
       d="M 402.82,122.51 A 210.4,210.4 0 0 0 345.48,82.27 C 313.86,67.48 279,60.36 244.2,59.93 142.41,58.7 134.66,178.28 103.36,194.93 c -31.3,16.65 -88,18.59 -90,85.09 -1.23,41.83 8.54,84.85 36,117.44 25.15,29.85 62.09,45 98.49,56.15 40.88,12.56 84.23,24.87 127.23,16.4 44.13,-8.69 75.13,-43.63 111.36,-67.24 22.82,-14.87 43.3,-30.52 57.39,-54.38 1.68,-2.84 3.26,-5.76 4.76,-8.71 18.86,-37.06 22.56,-79.82 12.16,-119.93 -9.32,-36.03 -30.39,-70.3 -57.93,-97.24 z"
       style="fill:#a61c3c"
       id="path2" />
    <path
       d="M 402.82,122.51 A 210.4,210.4 0 0 0 345.48,82.27 C 313.86,67.48 279,60.36 244.2,59.93 142.41,58.7 134.66,178.28 103.36,194.93 c -31.3,16.65 -88,18.59 -90,85.09 -1.23,41.83 8.54,84.85 36,117.44 25.15,29.85 62.09,45 98.49,56.15 40.88,12.56 84.23,24.87 127.23,16.4 44.13,-8.69 75.13,-43.63 111.36,-67.24 22.82,-14.87 43.3,-30.52 57.39,-54.38 1.68,-2.84 3.26,-5.76 4.76,-8.71 18.86,-37.06 22.56,-79.82 12.16,-119.93 -9.32,-36.03 -30.39,-70.3 -57.93,-97.24 z"
       style="opacity:0.7;fill:#ffffff"
       id="path4" />
  </g>
  <g
     id="freepik--Symbol--inject-2"
     transform="translate(-13.257988,-52.3)">
    <path
       d="m 402.38,139.9 a 2.45,2.45 0 0 1 0.11,0.65 q 0,0.38 0,0.69 a 6.09,6.09 0 0 1 -0.19,1.57 3.48,3.48 0 0 1 -0.6,1.29 3.08,3.08 0 0 1 -1.08,0.9 3.67,3.67 0 0 1 -1.68,0.35 4.69,4.69 0 0 1 -1.92,-0.42 23,23 0 0 1 -2.33,-1.2 L 384.8,138 a 8,8 0 0 1 -0.65,-7.15 4,4 0 0 1 1.62,-1.66 l 12.69,-7.39 a 5.71,5.71 0 0 1 3.07,1.64 3.62,3.62 0 0 1 0.8,2.24 3.65,3.65 0 0 1 -0.8,2.51 7.88,7.88 0 0 1 -2.38,1.69 L 391,134 Z"
       style="fill:none;stroke:#263238;stroke-linecap:round;stroke-linejoin:round"
       id="path7" />
    <path
       d="m 419.68,150.43 c -0.43,0.06 -0.84,0.09 -1.24,0.11 -0.4,0.02 -0.77,0 -1.11,0 a 4.66,4.66 0 0 1 -3,-0.83 3.21,3.21 0 0 1 -1,-2.67 9.24,9.24 0 0 1 0.36,-2.52 c 0.25,-0.84 0.47,-1.59 0.65,-2.24 l 8.12,-29.3 c 0.46,-0.06 0.89,-0.1 1.3,-0.12 h 1.1 a 4.85,4.85 0 0 1 2.93,0.79 2.88,2.88 0 0 1 1.09,2.53 8.76,8.76 0 0 1 -0.37,2.54 q -0.37,1.2 -0.69,2.4 z"
       style="fill:none;stroke:#263238;stroke-linecap:round;stroke-linejoin:round"
       id="path9" />
    <path
       d="m 439.8,127.26 a 2.45,2.45 0 0 1 -0.11,-0.65 c 0,-0.24 0,-0.47 0,-0.69 a 6.62,6.62 0 0 1 0.18,-1.57 3.48,3.48 0 0 1 0.6,-1.29 3.12,3.12 0 0 1 1.09,-0.9 3.61,3.61 0 0 1 1.68,-0.35 4.64,4.64 0 0 1 1.91,0.42 c 0.63,0.28 1.41,0.68 2.33,1.2 l 9.93,5.72 a 6.66,6.66 0 0 1 1.2,4.15 6.54,6.54 0 0 1 -0.56,3 4,4 0 0 1 -1.61,1.67 l -12.69,7.38 a 5.67,5.67 0 0 1 -3.07,-1.64 3.57,3.57 0 0 1 -0.81,-2.24 3.62,3.62 0 0 1 0.81,-2.51 8.13,8.13 0 0 1 2.37,-1.69 l 8.13,-4.1 z"
       style="fill:none;stroke:#263238;stroke-linecap:round;stroke-linejoin:round"
       id="path11" />
  </g>
  <g
     id="freepik--Controls--inject-2"
     transform="translate(-13.257988,-52.3)">
    <polyline
       points="252.39 135.63 252.39 148.43 288.63 148.43 288.63 118.73 318.32 118.73 318.32 82.5 301.6 82.5"
       style="fill:none;stroke:#263238;stroke-linecap:round;stroke-linejoin:round"
       id="polyline14" />
    <polyline
       points="237.63 82.5 222.69 82.5 222.69 118.73 252.39 118.73 252.39 129.36"
       style="fill:none;stroke:#263238;stroke-linecap:round;stroke-linejoin:round"
       id="polyline16" />
    <polyline
       points="296.51 82.5 288.63 82.5 288.63 52.8 252.39 52.8 252.39 82.5 244.8 82.5"
       style="fill:none;stroke:#263238;stroke-linecap:round;stroke-linejoin:round"
       id="polyline18" />
    <circle
       cx="270.51001"
       cy="100.61"
       r="7.54"
       style="fill:none;stroke:#263238;stroke-linecap:round;stroke-linejoin:round"
       id="circle20" />
    <polygon
       points="276.73,74.54 270.9,64.45 265.08,74.54 "
       style="fill:none;stroke:#263238;stroke-linecap:round;stroke-linejoin:round"
       id="polygon22" />
    <polygon
       points="265.08,129 270.9,139.1 276.73,129 "
       style="fill:none;stroke:#263238;stroke-linecap:round;stroke-linejoin:round"
       id="polygon24" />
    <polygon
       points="243.67,95.95 233.58,101.77 243.67,107.6 "
       style="fill:none;stroke:#263238;stroke-linecap:round;stroke-linejoin:round"
       id="polygon26" />
    <polygon
       points="298.13,107.6 308.23,101.77 298.13,95.95 "
       style="fill:none;stroke:#263238;stroke-linecap:round;stroke-linejoin:round"
       id="polygon28" />
  </g>
  <g
     id="freepik--Hearts--inject-2"
     transform="translate(-13.257988,-52.3)">
    <path
       d="m 405.15,211.84 a 4.88,4.88 0 0 0 -6.91,0 l -1.58,1.58 -1.58,-1.58 a 4.89,4.89 0 0 0 -6.91,6.91 l 8.33,8.34 0.16,-0.16 0.16,0.16 8.33,-8.34 a 4.88,4.88 0 0 0 0,-6.91 z"
       style="fill:none;stroke:#263238;stroke-linecap:round;stroke-linejoin:round"
       id="path31" />
    <path
       d="m 428.07,211.84 a 4.88,4.88 0 0 0 -6.91,0 l -1.58,1.58 -1.58,-1.58 a 4.89,4.89 0 1 0 -6.91,6.91 l 8.33,8.34 0.16,-0.16 0.16,0.16 8.33,-8.34 a 4.88,4.88 0 0 0 0,-6.91 z"
       style="fill:none;stroke:#263238;stroke-linecap:round;stroke-linejoin:round"
       id="path33" />
    <path
       d="m 451,211.84 a 4.88,4.88 0 0 0 -6.91,0 l -1.58,1.58 -1.58,-1.58 a 4.89,4.89 0 0 0 -6.91,6.91 l 8.33,8.34 0.16,-0.16 0.16,0.16 8.33,-8.34 a 4.88,4.88 0 0 0 0,-6.91 z"
       style="fill:none;stroke:#263238;stroke-linecap:round;stroke-linejoin:round"
       id="path35" />
    <path
       d="m 114.51,99.07 a 5.67,5.67 0 0 0 -7.5,0 l -1.71,1.57 -1.72,-1.57 a 5.67,5.67 0 0 0 -7.5,0 4.57,4.57 0 0 0 0,6.86 l 9,8.27 0.18,-0.16 0.17,0.16 9,-8.27 a 4.57,4.57 0 0 0 0.08,-6.86 z"
       style="fill:none;stroke:#263238;stroke-linecap:round;stroke-linejoin:round"
       id="path37" />
    <path
       d="m 139.37,99.07 a 5.67,5.67 0 0 0 -7.5,0 l -1.71,1.57 -1.72,-1.57 a 5.67,5.67 0 0 0 -7.5,0 4.57,4.57 0 0 0 0,6.86 l 9.06,8.27 0.17,-0.16 0.17,0.16 9,-8.27 a 4.57,4.57 0 0 0 0.03,-6.86 z"
       style="fill:none;stroke:#263238;stroke-linecap:round;stroke-linejoin:round"
       id="path39" />
    <path
       d="m 164.23,99.07 a 5.66,5.66 0 0 0 -7.49,0 l -1.74,1.57 -1.71,-1.57 a 5.67,5.67 0 0 0 -7.5,0 4.57,4.57 0 0 0 0,6.86 l 9,8.27 0.21,-0.2 0.17,0.16 9,-8.27 a 4.55,4.55 0 0 0 0.06,-6.82 z"
       style="fill:none;stroke:#263238;stroke-linecap:round;stroke-linejoin:round"
       id="path41" />
  </g>
  <g
     id="freepik--Drink--inject-2"
     transform="translate(-13.257988,-52.3)">
    <rect
       x="380.98999"
       y="263.91"
       width="20.76"
       height="7.2800002"
       style="fill:#ffffff;stroke:#263238;stroke-linecap:round;stroke-linejoin:round"
       id="rect44" />
    <polygon
       points="383.44,299.05 399.29,299.05 401.93,271.19 380.8,271.19 "
       style="fill:#a61c3c;stroke:#263238;stroke-linecap:round;stroke-linejoin:round"
       id="polygon46" />
    <rect
       x="378.72"
       y="269.91"
       width="25.290001"
       height="4.29"
       style="fill:#ffffff;stroke:#263238;stroke-linecap:round;stroke-linejoin:round"
       id="rect48" />
  </g>
  <g
     id="freepik--Desk--inject-2"
     transform="translate(-13.257988,-52.3)">
    <rect
       x="247.64999"
       y="181.57001"
       width="123.66"
       height="96.75"
       style="fill:#263238;stroke:#263238;stroke-linecap:round;stroke-linejoin:round"
       id="rect51" />
    <rect
       x="251.64"
       y="184.69"
       width="115.68"
       height="86.879997"
       style="fill:#ffffff;stroke:#263238;stroke-linecap:round;stroke-linejoin:round"
       id="rect53" />
    <rect
       x="336.87"
       y="184.69"
       width="30.450001"
       height="86.879997"
       style="fill:#263238;stroke:#263238;stroke-linecap:round;stroke-linejoin:round"
       id="rect55" />
    <rect
       x="251.64"
       y="184.69"
       width="115.68"
       height="4.75"
       style="fill:#ffffff;stroke:#263238;stroke-linecap:round;stroke-linejoin:round"
       id="rect57" />
    <rect
       x="263.95001"
       y="239.19"
       width="12.47"
       height="25.07"
       style="fill:#ffffff;stroke:#263238;stroke-linecap:round;stroke-linejoin:round"
       id="rect59" />
    <rect
       x="263.95001"
       y="252.39999"
       width="12.47"
       height="11.86"
       style="fill:#ffffff;stroke:#263238;stroke-linecap:round;stroke-linejoin:round"
       id="rect61" />
    <line
       x1="264.20001"
       y1="254.5"
       x2="276.29999"
       y2="254.5"
       style="fill:#ffffff;stroke:#263238;stroke-linecap:round;stroke-linejoin:round"
       id="line63" />
    <line
       x1="264.20001"
       y1="256.85001"
       x2="276.29999"
       y2="256.85001"
       style="fill:#ffffff;stroke:#263238;stroke-linecap:round;stroke-linejoin:round"
       id="line65" />
    <line
       x1="264.20001"
       y1="259.19"
       x2="276.29999"
       y2="259.19"
       style="fill:#ffffff;stroke:#263238;stroke-linecap:round;stroke-linejoin:round"
       id="line67" />
    <line
       x1="264.20001"
       y1="261.54001"
       x2="276.29999"
       y2="261.54001"
       style="fill:#ffffff;stroke:#263238;stroke-linecap:round;stroke-linejoin:round"
       id="line69" />
    <path
       d="m 262.87,257 h 6.39 v 7.29 h -12.47 v -1.2 a 6.08,6.08 0 0 1 6.08,-6.09 z"
       style="fill:#ffffff;stroke:#263238;stroke-linecap:round;stroke-linejoin:round"
       id="path71" />
    <rect
       x="282.72"
       y="239.19"
       width="12.47"
       height="25.07"
       transform="rotate(180,288.96,251.72)"
       style="fill:#ffffff;stroke:#263238;stroke-linecap:round;stroke-linejoin:round"
       id="rect73" />
    <rect
       x="282.72"
       y="252.39999"
       width="12.47"
       height="11.86"
       style="fill:#ffffff;stroke:#263238;stroke-linecap:round;stroke-linejoin:round"
       id="rect75" />
    <line
       x1="294.95001"
       y1="254.5"
       x2="282.85001"
       y2="254.5"
       style="fill:#ffffff;stroke:#263238;stroke-linecap:round;stroke-linejoin:round"
       id="line77" />
    <line
       x1="294.95001"
       y1="256.85001"
       x2="282.85001"
       y2="256.85001"
       style="fill:#ffffff;stroke:#263238;stroke-linecap:round;stroke-linejoin:round"
       id="line79" />
    <line
       x1="294.95001"
       y1="259.19"
       x2="282.85001"
       y2="259.19"
       style="fill:#ffffff;stroke:#263238;stroke-linecap:round;stroke-linejoin:round"
       id="line81" />
    <line
       x1="294.95001"
       y1="261.54001"
       x2="282.85001"
       y2="261.54001"
       style="fill:#ffffff;stroke:#263238;stroke-linecap:round;stroke-linejoin:round"
       id="line83" />
    <path
       d="m 289.89,257 h 12.47 v 7.29 H 296 a 6.08,6.08 0 0 1 -6.08,-6.08 V 257 Z"
       transform="rotate(180,296.125,260.615)"
       style="fill:#ffffff;stroke:#263238;stroke-linecap:round;stroke-linejoin:round"
       id="path85" />
    <polygon
       points="276.33,250.55 282.51,250.55 294.18,241.96 294.18,235.98 264.08,235.98 264.08,241.57 "
       style="fill:#a61c3c;stroke:#263238;stroke-linecap:round;stroke-linejoin:round"
       id="polygon87" />
    <rect
       x="264.07999"
       y="213.69"
       width="30.01"
       height="22.290001"
       style="fill:#ffffff;stroke:#263238;stroke-linecap:round;stroke-linejoin:round"
       id="rect89" />
    <rect
       x="264.56"
       y="228.91"
       width="29.620001"
       height="7.5300002"
       style="fill:#263238;stroke:#263238;stroke-linecap:round;stroke-linejoin:round"
       id="rect91" />
    <path
       d="m 259.07,217.74 c 0,0 -3.05,4.38 -3.05,8.09 v 21.95 a 1,1 0 0 0 1,1 h 7.83 a 1,1 0 0 0 1,-1 v 0 a 1,1 0 0 1 1,-1 H 268 a 1,1 0 0 0 1,-1 v -28.17 c 0,0 -6.88,-4.12 -9.93,0.13 z"
       style="fill:#ffffff;stroke:#263238;stroke-linecap:round;stroke-linejoin:round"
       id="path93" />
    <rect
       x="256.01999"
       y="232.59"
       width="13"
       height="8.3599997"
       style="fill:#263238;stroke:#263238;stroke-linecap:round;stroke-linejoin:round"
       id="rect95" />
    <path
       d="m 301.29,217.74 c 0,0 3,4.38 3,8.09 v 21.95 a 1,1 0 0 1 -1,1 h -7.83 a 1,1 0 0 1 -1,-1 v 0 a 1,1 0 0 0 -1,-1 h -1.2 a 1,1 0 0 1 -1,-1 v -28.17 c 0,0 6.97,-4.12 10.03,0.13 z"
       style="fill:#ffffff;stroke:#263238;stroke-linecap:round;stroke-linejoin:round"
       id="path97" />
    <rect
       x="291.34"
       y="232.59"
       width="13"
       height="8.3599997"
       style="fill:#263238;stroke:#263238;stroke-linecap:round;stroke-linejoin:round"
       id="rect99" />
    <path
       d="m 276.63,210.43 a 12.15,12.15 0 0 0 -11.42,0.53 c -5.87,3.52 -5.44,7.58 -4.48,9 0.96,1.42 3.09,1.6 5,0.75 1.91,-0.85 3,-4.16 6.94,-4.59 3.94,-0.43 6,-1.49 5.55,-4.05 -0.45,-2.56 -1.59,-1.64 -1.59,-1.64 z"
       style="fill:#ffffff;stroke:#263238;stroke-linecap:round;stroke-linejoin:round"
       id="path101" />
    <path
       d="m 283.9,210.43 a 12.15,12.15 0 0 1 11.42,0.53 c 5.87,3.52 5.44,7.58 4.48,9 -0.96,1.42 -3.09,1.6 -5,0.75 -1.91,-0.85 -3,-4.16 -6.94,-4.59 -3.94,-0.43 -6,-1.49 -5.55,-4.05 0.45,-2.56 1.59,-1.64 1.59,-1.64 z"
       style="fill:#ffffff;stroke:#263238;stroke-linecap:round;stroke-linejoin:round"
       id="path103" />
    <path
       d="m 282.71,200.16 h 5.39 l 1.38,-3.44 a 0.25,0.25 0 0 1 0.48,0.09 v 5.49 a 2.7,2.7 0 0 1 -2.7,2.7 h -4.55 z"
       style="fill:#ffffff;stroke:#263238;stroke-linecap:round;stroke-linejoin:round"
       id="path105" />
    <path
       d="m 277.76,200.16 h -5.39 L 271,196.72 a 0.25,0.25 0 0 0 -0.48,0.09 v 5.49 a 2.69,2.69 0 0 0 2.69,2.7 h 4.56 z"
       style="fill:#ffffff;stroke:#263238;stroke-linecap:round;stroke-linejoin:round"
       id="path107" />
    <path
       d="m 276.31,205.18 a 7.19,7.19 0 0 0 -0.55,2.79 c 0,3.19 2,5.77 4.38,5.77 2.38,0 4.37,-2.58 4.37,-5.77 a 7.19,7.19 0 0 0 -0.55,-2.79 z"
       style="fill:#ffffff;stroke:#263238;stroke-linecap:round;stroke-linejoin:round"
       id="path109" />
    <path
       d="m 276.31,205.18 c 0,0 0.58,-7.81 4.3,-7.62 3.72,0.19 3.35,7.62 3.35,7.62 z"
       style="fill:#263238;stroke:#263238;stroke-linecap:round;stroke-linejoin:round"
       id="path111" />
    <path
       d="m 276.31,208.06 a 7.19,7.19 0 0 0 -0.55,2.79 c 0,3.19 2,5.77 4.38,5.77 2.38,0 4.37,-2.58 4.37,-5.77 a 7.19,7.19 0 0 0 -0.55,-2.79 z"
       style="fill:#a61c3c;stroke:#263238;stroke-linecap:round;stroke-linejoin:round"
       id="path113" />
    <rect
       x="279.07999"
       y="205.09"
       width="1.92"
       height="4.3699999"
       style="fill:#ffffff;stroke:#263238;stroke-linecap:round;stroke-linejoin:round"
       id="rect115" />
    <line
       x1="280.14001"
       y1="216.62"
       x2="280.14001"
       y2="228.74001"
       style="fill:#ffffff;stroke:#263238;stroke-linecap:round;stroke-linejoin:round"
       id="line117" />
    <rect
       x="335.57001"
       y="189.42999"
       width="3.3499999"
       height="81.809998"
       style="fill:#ffffff;stroke:#263238;stroke-linecap:round;stroke-linejoin:round"
       id="rect119" />
    <rect
       x="306.20999"
       y="192.99001"
       width="5.9499998"
       height="5.9499998"
       style="fill:#a61c3c;stroke:#263238;stroke-linecap:round;stroke-linejoin:round"
       id="rect121" />
    <rect
       x="306.20999"
       y="201.17"
       width="5.9499998"
       height="5.9499998"
       style="fill:#263238;stroke:#263238;stroke-linecap:round;stroke-linejoin:round"
       id="rect123" />
    <rect
       x="306.20999"
       y="209.22"
       width="5.9499998"
       height="5.9499998"
       style="fill:#ffffff;stroke:#263238;stroke-linecap:round;stroke-linejoin:round"
       id="rect125" />
    <path
       d="m 342.9,195.37 h -1.53 A 0.37,0.37 0 0 1 341,195 a 0.38,0.38 0 0 1 0.37,-0.38 h 1.53 a 0.37,0.37 0 0 1 0.37,0.38 0.36,0.36 0 0 1 -0.37,0.37 z m 0.37,1.37 a 0.37,0.37 0 0 0 -0.37,-0.38 h -1.53 a 0.38,0.38 0 0 0 -0.37,0.38 0.37,0.37 0 0 0 0.37,0.37 h 1.53 a 0.36,0.36 0 0 0 0.37,-0.37 z m 0,1.74 a 0.37,0.37 0 0 0 -0.37,-0.38 h -1.53 a 0.38,0.38 0 0 0 0,0.76 h 1.53 a 0.37,0.37 0 0 0 0.37,-0.38 z m 0,1.74 a 0.37,0.37 0 0 0 -0.37,-0.38 h -1.53 a 0.38,0.38 0 0 0 0,0.76 h 1.53 a 0.37,0.37 0 0 0 0.37,-0.38 z m 0,1.74 a 0.36,0.36 0 0 0 -0.37,-0.37 h -1.53 a 0.37,0.37 0 0 0 -0.37,0.37 0.38,0.38 0 0 0 0.37,0.38 h 1.53 a 0.37,0.37 0 0 0 0.37,-0.34 z m 0,1.74 a 0.37,0.37 0 0 0 -0.37,-0.37 h -1.53 a 0.38,0.38 0 0 0 0,0.75 h 1.53 a 0.37,0.37 0 0 0 0.37,-0.38 z m 0,1.74 a 0.37,0.37 0 0 0 -0.37,-0.37 h -1.53 a 0.38,0.38 0 0 0 0,0.75 h 1.53 a 0.37,0.37 0 0 0 0.37,-0.38 z m 0,1.75 a 0.37,0.37 0 0 0 -0.37,-0.38 h -1.53 a 0.38,0.38 0 0 0 0,0.75 h 1.53 a 0.37,0.37 0 0 0 0.37,-0.37 z M 349,195 a 0.37,0.37 0 0 0 -0.37,-0.38 h -4 a 0.38,0.38 0 0 0 -0.38,0.38 0.37,0.37 0 0 0 0.38,0.37 h 4 A 0.36,0.36 0 0 0 349,195 Z m 0,1.74 a 0.37,0.37 0 0 0 -0.37,-0.38 h -4 a 0.38,0.38 0 0 0 -0.38,0.38 0.37,0.37 0 0 0 0.38,0.37 h 4 a 0.36,0.36 0 0 0 0.37,-0.37 z m 0,1.74 a 0.37,0.37 0 0 0 -0.37,-0.38 h -4 a 0.38,0.38 0 0 0 0,0.76 h 4 a 0.37,0.37 0 0 0 0.37,-0.38 z m 0,1.74 a 0.37,0.37 0 0 0 -0.37,-0.38 h -4 a 0.38,0.38 0 0 0 0,0.76 h 4 a 0.37,0.37 0 0 0 0.37,-0.38 z m 0,1.74 a 0.36,0.36 0 0 0 -0.37,-0.37 h -4 a 0.37,0.37 0 0 0 -0.38,0.37 0.38,0.38 0 0 0 0.38,0.38 h 4 A 0.37,0.37 0 0 0 349,202 Z m 4.79,1.74 a 0.38,0.38 0 0 0 -0.37,-0.37 h -4 a 0.38,0.38 0 1 0 0,0.75 h 4 a 0.38,0.38 0 0 0 0.34,-0.38 z m 0,1.74 a 0.38,0.38 0 0 0 -0.37,-0.37 h -4 a 0.38,0.38 0 1 0 0,0.75 h 4 a 0.38,0.38 0 0 0 0.34,-0.38 z m 0,1.75 a 0.38,0.38 0 0 0 -0.37,-0.38 h -4 a 0.38,0.38 0 1 0 0,0.75 h 4 a 0.38,0.38 0 0 0 0.34,-0.37 z m -3,-12.19 a 0.44,0.44 0 0 0 -0.43,-0.44 0.44,0.44 0 0 0 -0.44,0.44 0.44,0.44 0 0 0 0.44,0.43 0.43,0.43 0 0 0 0.37,-0.43 z m 1.31,0 a 0.44,0.44 0 0 0 -0.44,-0.44 0.44,0.44 0 0 0 -0.43,0.44 0.43,0.43 0 0 0 0.43,0.43 A 0.44,0.44 0 0 0 352,195 Z m 1.3,0 a 0.44,0.44 0 0 0 -0.43,-0.44 0.44,0.44 0 0 0 -0.44,0.44 0.44,0.44 0 0 0 0.44,0.43 0.43,0.43 0 0 0 0.37,-0.43 z m 1.31,0 a 0.44,0.44 0 1 0 -0.87,0 0.44,0.44 0 0 0 0.87,0 z m 1.31,0 a 0.44,0.44 0 0 0 -0.44,-0.44 0.44,0.44 0 0 0 -0.43,0.44 0.43,0.43 0 0 0 0.43,0.43 A 0.44,0.44 0 0 0 356,195 Z m 1.3,0 a 0.44,0.44 0 0 0 -0.43,-0.44 0.44,0.44 0 0 0 -0.44,0.44 0.44,0.44 0 0 0 0.44,0.43 0.43,0.43 0 0 0 0.37,-0.43 z m -6.53,3.48 a 0.44,0.44 0 0 0 -0.43,-0.44 0.44,0.44 0 0 0 -0.44,0.44 0.44,0.44 0 0 0 0.44,0.43 0.43,0.43 0 0 0 0.37,-0.43 z m 1.31,0 a 0.44,0.44 0 0 0 -0.44,-0.44 0.44,0.44 0 0 0 -0.43,0.44 0.43,0.43 0 0 0 0.43,0.43 0.44,0.44 0 0 0 0.34,-0.43 z m 1.3,0 a 0.44,0.44 0 0 0 -0.43,-0.44 0.44,0.44 0 0 0 -0.44,0.44 0.44,0.44 0 0 0 0.44,0.43 0.43,0.43 0 0 0 0.37,-0.43 z m 1.31,0 a 0.44,0.44 0 1 0 -0.87,0 0.44,0.44 0 0 0 0.87,0 z m 1.31,0 a 0.44,0.44 0 0 0 -0.44,-0.44 0.44,0.44 0 0 0 -0.43,0.44 0.43,0.43 0 0 0 0.43,0.43 0.44,0.44 0 0 0 0.42,-0.43 z m 1.3,0 a 0.44,0.44 0 0 0 -0.43,-0.44 0.44,0.44 0 0 0 -0.44,0.44 0.44,0.44 0 0 0 0.44,0.43 0.43,0.43 0 0 0 0.37,-0.43 z m -2.07,5 a 0.43,0.43 0 0 0 -0.43,-0.44 0.44,0.44 0 1 0 0,0.87 0.43,0.43 0 0 0 0.37,-0.42 z m 1.31,0 a 0.44,0.44 0 1 0 -0.43,0.43 0.43,0.43 0 0 0 0.37,-0.42 z m 1.31,0 a 0.44,0.44 0 0 0 -0.44,-0.44 0.44,0.44 0 0 0 0,0.87 0.44,0.44 0 0 0 0.38,-0.42 z m 1.3,0 a 0.43,0.43 0 0 0 -0.43,-0.44 0.44,0.44 0 1 0 0,0.87 0.43,0.43 0 0 0 0.37,-0.42 z m 1.31,0 a 0.44,0.44 0 0 0 -0.44,-0.44 0.44,0.44 0 0 0 0,0.87 0.44,0.44 0 0 0 0.38,-0.42 z m 1.3,0 a 0.43,0.43 0 0 0 -0.43,-0.44 0.44,0.44 0 1 0 0,0.87 0.43,0.43 0 0 0 0.37,-0.42 z m -6.53,3.59 a 0.44,0.44 0 0 0 -0.43,-0.44 0.44,0.44 0 0 0 -0.44,0.44 0.44,0.44 0 0 0 0.44,0.43 0.43,0.43 0 0 0 0.37,-0.42 z m 1.31,0 a 0.44,0.44 0 1 0 -0.87,0 0.44,0.44 0 0 0 0.87,0 z m 1.31,0 a 0.44,0.44 0 0 0 -0.44,-0.44 0.44,0.44 0 0 0 -0.43,0.44 0.43,0.43 0 0 0 0.43,0.43 0.44,0.44 0 0 0 0.38,-0.42 z m 1.3,0 a 0.44,0.44 0 0 0 -0.43,-0.44 0.44,0.44 0 0 0 -0.44,0.44 0.44,0.44 0 0 0 0.44,0.43 0.43,0.43 0 0 0 0.37,-0.42 z m 1.31,0 a 0.44,0.44 0 0 0 -0.44,-0.44 0.44,0.44 0 0 0 -0.43,0.44 0.43,0.43 0 0 0 0.43,0.43 0.44,0.44 0 0 0 0.38,-0.42 z m 1.3,0 a 0.44,0.44 0 0 0 -0.43,-0.44 0.44,0.44 0 0 0 -0.44,0.44 0.44,0.44 0 0 0 0.44,0.43 0.43,0.43 0 0 0 0.37,-0.42 z"
       style="fill:#a61c3c"
       id="path127" />
    <path
       d="m 342.9,209.64 h -1.53 a 0.38,0.38 0 0 1 0,-0.75 h 1.53 a 0.38,0.38 0 0 1 0,0.75 z m 0.37,1.37 a 0.37,0.37 0 0 0 -0.37,-0.38 h -1.53 a 0.38,0.38 0 0 0 0,0.75 h 1.53 a 0.37,0.37 0 0 0 0.37,-0.38 z m 0,1.74 a 0.37,0.37 0 0 0 -0.37,-0.38 h -1.53 a 0.38,0.38 0 0 0 -0.37,0.38 0.37,0.37 0 0 0 0.37,0.37 h 1.53 a 0.36,0.36 0 0 0 0.37,-0.37 z m 0,1.74 a 0.37,0.37 0 0 0 -0.37,-0.38 h -1.53 a 0.38,0.38 0 0 0 -0.37,0.38 0.37,0.37 0 0 0 0.37,0.37 h 1.53 a 0.36,0.36 0 0 0 0.37,-0.37 z m 0,1.74 a 0.37,0.37 0 0 0 -0.37,-0.38 h -1.53 a 0.38,0.38 0 0 0 0,0.76 h 1.53 a 0.37,0.37 0 0 0 0.37,-0.38 z m 0,1.74 a 0.36,0.36 0 0 0 -0.37,-0.37 h -1.53 a 0.37,0.37 0 0 0 -0.37,0.37 0.38,0.38 0 0 0 0.37,0.38 h 1.53 a 0.37,0.37 0 0 0 0.37,-0.35 z m 0,1.74 a 0.36,0.36 0 0 0 -0.37,-0.37 h -1.53 a 0.37,0.37 0 0 0 -0.37,0.37 0.38,0.38 0 0 0 0.37,0.38 h 1.53 a 0.37,0.37 0 0 0 0.37,-0.38 z m 0,1.74 a 0.37,0.37 0 0 0 -0.37,-0.37 h -1.53 a 0.38,0.38 0 0 0 0,0.75 h 1.53 a 0.37,0.37 0 0 0 0.37,-0.38 z m 5.7,-12.18 a 0.37,0.37 0 0 0 -0.37,-0.38 h -4 a 0.38,0.38 0 1 0 0,0.75 h 4 a 0.37,0.37 0 0 0 0.4,-0.37 z m 0,1.74 a 0.37,0.37 0 0 0 -0.37,-0.38 h -4 a 0.38,0.38 0 1 0 0,0.75 h 4 A 0.37,0.37 0 0 0 349,211 Z m 0,1.74 a 0.37,0.37 0 0 0 -0.37,-0.38 h -4 a 0.38,0.38 0 0 0 -0.38,0.38 0.37,0.37 0 0 0 0.38,0.37 h 4 a 0.36,0.36 0 0 0 0.4,-0.37 z m 0,1.74 a 0.37,0.37 0 0 0 -0.37,-0.38 h -4 a 0.38,0.38 0 0 0 -0.38,0.38 0.37,0.37 0 0 0 0.38,0.37 h 4 a 0.36,0.36 0 0 0 0.4,-0.37 z m 0,1.74 a 0.37,0.37 0 0 0 -0.37,-0.38 h -4 a 0.38,0.38 0 0 0 0,0.76 h 4 a 0.37,0.37 0 0 0 0.4,-0.38 z m 4.79,1.74 a 0.37,0.37 0 0 0 -0.37,-0.37 h -4 a 0.37,0.37 0 0 0 -0.38,0.37 0.38,0.38 0 0 0 0.38,0.38 h 4 a 0.38,0.38 0 0 0 0.37,-0.35 z m 0,1.74 a 0.37,0.37 0 0 0 -0.37,-0.37 h -4 a 0.37,0.37 0 0 0 -0.38,0.37 0.38,0.38 0 0 0 0.38,0.38 h 4 a 0.38,0.38 0 0 0 0.37,-0.38 z m 0,1.74 a 0.38,0.38 0 0 0 -0.37,-0.37 h -4 a 0.38,0.38 0 1 0 0,0.75 h 4 a 0.38,0.38 0 0 0 0.37,-0.38 z m -3,-12.18 a 0.44,0.44 0 0 0 -0.43,-0.44 0.44,0.44 0 0 0 -0.44,0.44 0.44,0.44 0 0 0 0.44,0.43 0.43,0.43 0 0 0 0.4,-0.43 z m 1.31,0 a 0.44,0.44 0 0 0 -0.44,-0.44 0.44,0.44 0 0 0 -0.43,0.44 0.43,0.43 0 0 0 0.43,0.43 0.44,0.44 0 0 0 0.37,-0.43 z m 1.3,0 a 0.44,0.44 0 0 0 -0.43,-0.44 0.44,0.44 0 0 0 -0.44,0.44 0.44,0.44 0 0 0 0.44,0.43 0.43,0.43 0 0 0 0.4,-0.43 z m 1.31,0 a 0.44,0.44 0 1 0 -0.87,0 0.44,0.44 0 0 0 0.87,0 z m 1.31,0 a 0.44,0.44 0 0 0 -0.44,-0.44 0.44,0.44 0 0 0 -0.43,0.44 0.43,0.43 0 0 0 0.43,0.43 0.44,0.44 0 0 0 0.45,-0.43 z m 1.3,0 a 0.44,0.44 0 0 0 -0.43,-0.44 0.44,0.44 0 0 0 -0.44,0.44 0.44,0.44 0 0 0 0.44,0.43 0.43,0.43 0 0 0 0.4,-0.43 z m -6.53,3.48 a 0.44,0.44 0 0 0 -0.43,-0.44 0.44,0.44 0 0 0 -0.44,0.44 0.44,0.44 0 0 0 0.44,0.43 0.43,0.43 0 0 0 0.4,-0.43 z m 1.31,0 a 0.44,0.44 0 0 0 -0.44,-0.44 0.44,0.44 0 0 0 -0.43,0.44 0.43,0.43 0 0 0 0.43,0.43 0.44,0.44 0 0 0 0.37,-0.43 z m 1.3,0 a 0.44,0.44 0 0 0 -0.43,-0.44 0.44,0.44 0 0 0 -0.44,0.44 0.44,0.44 0 0 0 0.44,0.43 0.43,0.43 0 0 0 0.4,-0.43 z m 1.31,0 a 0.44,0.44 0 1 0 -0.87,0 0.44,0.44 0 0 0 0.87,0 z m 1.31,0 a 0.44,0.44 0 0 0 -0.44,-0.44 0.44,0.44 0 0 0 -0.43,0.44 0.43,0.43 0 0 0 0.43,0.43 0.44,0.44 0 0 0 0.45,-0.43 z m 1.3,0 a 0.44,0.44 0 0 0 -0.43,-0.44 0.44,0.44 0 0 0 -0.44,0.44 0.44,0.44 0 0 0 0.44,0.43 0.43,0.43 0 0 0 0.4,-0.43 z m -2.07,5 a 0.43,0.43 0 0 0 -0.43,-0.43 0.44,0.44 0 0 0 -0.44,0.43 0.44,0.44 0 0 0 0.44,0.44 0.44,0.44 0 0 0 0.4,-0.44 z m 1.31,0 a 0.44,0.44 0 0 0 -0.87,0 0.44,0.44 0 1 0 0.87,0 z m 1.31,0 a 0.44,0.44 0 0 0 -0.44,-0.43 0.43,0.43 0 0 0 -0.43,0.43 0.44,0.44 0 0 0 0.43,0.44 0.44,0.44 0 0 0 0.41,-0.44 z m 1.3,0 a 0.43,0.43 0 0 0 -0.43,-0.43 0.44,0.44 0 0 0 -0.44,0.43 0.44,0.44 0 0 0 0.44,0.44 0.44,0.44 0 0 0 0.4,-0.44 z m 1.31,0 a 0.44,0.44 0 0 0 -0.44,-0.43 0.43,0.43 0 0 0 -0.43,0.43 0.44,0.44 0 0 0 0.43,0.44 0.44,0.44 0 0 0 0.41,-0.44 z m 1.3,0 a 0.43,0.43 0 0 0 -0.43,-0.43 0.44,0.44 0 0 0 -0.44,0.43 0.44,0.44 0 0 0 0.44,0.44 0.44,0.44 0 0 0 0.4,-0.44 z m -6.53,3.59 a 0.43,0.43 0 0 0 -0.43,-0.43 0.44,0.44 0 1 0 0,0.87 0.43,0.43 0 0 0 0.4,-0.44 z m 1.31,0 a 0.44,0.44 0 0 0 -0.87,0 0.44,0.44 0 1 0 0.87,0 z m 1.31,0 a 0.44,0.44 0 0 0 -0.44,-0.43 0.44,0.44 0 0 0 0,0.87 0.44,0.44 0 0 0 0.41,-0.44 z m 1.3,0 a 0.43,0.43 0 0 0 -0.43,-0.43 0.44,0.44 0 1 0 0,0.87 0.43,0.43 0 0 0 0.4,-0.44 z m 1.31,0 a 0.44,0.44 0 0 0 -0.44,-0.43 0.44,0.44 0 0 0 0,0.87 0.44,0.44 0 0 0 0.41,-0.44 z m 1.3,0 a 0.43,0.43 0 0 0 -0.43,-0.43 0.44,0.44 0 1 0 0,0.87 0.43,0.43 0 0 0 0.4,-0.44 z"
       style="fill:#a61c3c"
       id="path129" />
    <rect
       x="310.95999"
       y="219.77"
       width="21.620001"
       height="13.71"
       style="fill:#ffffff;stroke:#263238;stroke-linecap:round;stroke-linejoin:round"
       id="rect131" />
    <path
       d="m 321.65,252.31 v 0 a 1.63,1.63 0 0 1 -1.63,-1.63 v -30.91 h 3.26 v 30.91 a 1.63,1.63 0 0 1 -1.63,1.63 z"
       style="fill:#a61c3c;stroke:#263238;stroke-linecap:round;stroke-linejoin:round"
       id="path133" />
    <polyline
       points="320.26 235.12 322.81 235.12 320.26 238.14 323.28 238.14 320.26 241.39 323.28 241.39 320.26 244.41 323.05 244.41 320.02 247.2 322.58 247.2 320.02 249.87 323.28 249.87"
       style="fill:none;stroke:#263238;stroke-linecap:round;stroke-linejoin:round"
       id="polyline135" />
    <rect
       x="315.37"
       y="219.77"
       width="12.78"
       height="13.71"
       style="fill:#ffffff;stroke:#263238;stroke-linecap:round;stroke-linejoin:round"
       id="rect137" />
    <rect
       x="300.01999"
       y="274.59"
       width="12.56"
       height="25.690001"
       style="fill:#263238;stroke:#263238;stroke-linecap:round;stroke-linejoin:round"
       id="rect139" />
    <polygon
       points="352.96,298.72 365.79,280.48 376.62,298.72 "
       style="fill:#263238;stroke:#263238;stroke-linecap:round;stroke-linejoin:round"
       id="polygon141" />
    <polygon
       points="290.89,299.29 356.45,299.29 376.84,263.66 311.29,263.66 "
       style="fill:#263238;stroke:#263238;stroke-linecap:round;stroke-linejoin:round"
       id="polygon143" />
    <polygon
       points="300.51,295.3 351.39,295.3 367.38,267.37 316.51,267.37 "
       style="fill:#ffffff;stroke:#263238;stroke-linecap:round;stroke-linejoin:round"
       id="polygon145" />
    <polygon
       points="319.32,283.41 312.68,295.01 335.5,295.01 342.14,283.41 "
       style="fill:#ffffff;stroke:#263238;stroke-linecap:round;stroke-linejoin:round"
       id="polygon147" />
    <polygon
       points="313.06,294.98 313.04,295.01 335.57,295.01 335.59,294.98 "
       style="fill:#ffffff;stroke:#263238;stroke-linecap:round;stroke-linejoin:round"
       id="polygon149" />
    <path
       d="m 316.43,295 4.94,-8.63 a 5.88,5.88 0 0 0 -7.62,0.1 c 0,0 -4.23,3.33 -5.85,6.16 l -1.36,2.37 z"
       style="fill:#ffffff;stroke:#263238;stroke-linecap:round;stroke-linejoin:round"
       id="path151" />
    <path
       d="m 343.29,295 1.36,-2.37 a 11.12,11.12 0 0 0 1.21,-6.16 c -0.48,-3.22 -7.51,-0.1 -7.51,-0.1 l -4.94,8.63 z"
       style="fill:#ffffff;stroke:#263238;stroke-linecap:round;stroke-linejoin:round"
       id="path153" />
    <path
       d="m 330.28,280.92 c 0,0 -2.91,-2.27 -8.91,0.41 -6,2.68 -7.44,5.76 -7.31,6.82 0.13,1.06 1.66,1.21 3.49,0.56 1.83,-0.65 4.08,-3.16 7.27,-3.49 3.19,-0.33 5.2,-1.13 6,-3.08 0.8,-1.95 -0.54,-1.22 -0.54,-1.22 z"
       style="fill:#ffffff;stroke:#263238;stroke-linecap:round;stroke-linejoin:round"
       id="path155" />
    <path
       d="m 335.82,280.92 c 0,0 5.52,-2.27 8.45,0.41 2.93,2.68 0.84,5.76 -0.49,6.82 a 3.81,3.81 0 0 1 -4.14,0.56 c -1.09,-0.65 -0.46,-3.16 -3.28,-3.49 -2.82,-0.33 -3.89,-1.13 -2.46,-3.08 1.43,-1.95 1.92,-1.22 1.92,-1.22 z"
       style="fill:#ffffff;stroke:#263238;stroke-linecap:round;stroke-linejoin:round"
       id="path157" />
    <path
       d="m 339.38,273.12 h 4.1 L 346,270.5 c 0.19,-0.2 0.44,-0.14 0.32,0.07 l -2.32,4.17 a 4.19,4.19 0 0 1 -3.22,2.05 h -3.47 z"
       style="fill:#ffffff;stroke:#263238;stroke-linecap:round;stroke-linejoin:round"
       id="path159" />
    <path
       d="m 335.62,273.12 h -4.11 l 0.46,-2.62 c 0,-0.2 -0.29,-0.14 -0.41,0.07 l -2.39,4.17 c -0.65,1.14 -0.26,2.05 0.88,2.05 h 3.46 z"
       style="fill:#ffffff;stroke:#263238;stroke-linecap:round;stroke-linejoin:round"
       id="path161" />
    <path
       d="m 332.33,276.94 a 9.89,9.89 0 0 0 -1.63,2.12 c -1.39,2.42 -1,4.38 0.81,4.38 1.81,0 4.45,-2 5.84,-4.38 a 6.46,6.46 0 0 0 0.8,-2.12 z"
       style="fill:#ffffff;stroke:#263238;stroke-linecap:round;stroke-linejoin:round"
       id="path163" />
    <path
       d="m 332.33,276.94 c 0,0 3.84,-5.95 6.59,-5.8 2.75,0.15 -0.77,5.8 -0.77,5.8 z"
       style="fill:#ffffff;stroke:#263238;stroke-linecap:round;stroke-linejoin:round"
       id="path165" />
    <path
       d="m 331.07,279.13 a 10.5,10.5 0 0 0 -1.63,2.12 c -1.38,2.42 -1,4.38 0.82,4.38 1.82,0 4.45,-2 5.83,-4.38 a 6.16,6.16 0 0 0 0.8,-2.12 z"
       style="fill:#ffffff;stroke:#263238;stroke-linecap:round;stroke-linejoin:round"
       id="path167" />
    <polygon
       points="334.47,276.87 335.94,276.87 334.03,280.19 332.57,280.19 "
       style="fill:#ffffff;stroke:#263238;stroke-linecap:round;stroke-linejoin:round"
       id="polygon169" />
    <path
       d="m 330.26,285.63 q -2.31,4 -4.61,8.06"
       style="fill:#ffffff;stroke:#263238;stroke-linecap:round;stroke-linejoin:round"
       id="path171" />
    <rect
       x="175.52"
       y="273.92999"
       width="9.6099997"
       height="20.25"
       style="fill:#263238;stroke:#263238;stroke-linecap:round;stroke-linejoin:round"
       id="rect173" />
    <rect
       x="121.45"
       y="181.13"
       width="121.21"
       height="97.610001"
       style="fill:#ffffff;stroke:#263238;stroke-linecap:round;stroke-linejoin:round"
       id="rect175" />
    <rect
       x="127.93"
       y="186.21001"
       width="108.25"
       height="84.669998"
       style="fill:#263238;stroke:#263238;stroke-linecap:round;stroke-linejoin:round"
       id="rect177" />
    <path
       d="m 193.07,192 h -2.79 a 0.69,0.69 0 0 1 0,-1.38 h 2.79 a 0.69,0.69 0 0 1 0,1.38 z m 0.68,2.5 a 0.68,0.68 0 0 0 -0.68,-0.69 h -2.79 a 0.69,0.69 0 0 0 0,1.38 h 2.79 a 0.68,0.68 0 0 0 0.68,-0.66 z m 0,3.19 A 0.68,0.68 0 0 0 193.07,197 h -2.79 a 0.69,0.69 0 0 0 0,1.38 h 2.79 a 0.68,0.68 0 0 0 0.68,-0.66 z m 0,3.19 a 0.68,0.68 0 0 0 -0.68,-0.69 h -2.79 a 0.69,0.69 0 0 0 0,1.38 h 2.79 a 0.68,0.68 0 0 0 0.68,-0.66 z m 0,3.19 a 0.68,0.68 0 0 0 -0.68,-0.69 h -2.79 a 0.69,0.69 0 0 0 -0.69,0.69 0.68,0.68 0 0 0 0.69,0.68 h 2.79 a 0.67,0.67 0 0 0 0.68,-0.65 z m 0,3.19 a 0.68,0.68 0 0 0 -0.68,-0.69 h -2.79 a 0.69,0.69 0 0 0 -0.69,0.69 0.68,0.68 0 0 0 0.69,0.68 h 2.79 a 0.67,0.67 0 0 0 0.68,-0.65 z m 0,3.18 a 0.67,0.67 0 0 0 -0.68,-0.68 h -2.79 a 0.69,0.69 0 1 0 0,1.37 h 2.79 a 0.68,0.68 0 0 0 0.68,-0.66 z m 0,3.19 a 0.67,0.67 0 0 0 -0.68,-0.68 h -2.79 a 0.68,0.68 0 0 0 -0.69,0.68 0.69,0.69 0 0 0 0.69,0.69 h 2.79 a 0.68,0.68 0 0 0 0.68,-0.66 z m 10.44,-22.32 a 0.69,0.69 0 0 0 -0.69,-0.69 h -7.32 a 0.69,0.69 0 0 0 0,1.38 h 7.32 a 0.69,0.69 0 0 0 0.69,-0.66 z m 0,3.19 a 0.69,0.69 0 0 0 -0.69,-0.69 h -7.32 a 0.69,0.69 0 0 0 0,1.38 h 7.32 a 0.69,0.69 0 0 0 0.69,-0.66 z m 0,3.19 A 0.69,0.69 0 0 0 203.5,197 h -7.32 a 0.69,0.69 0 0 0 0,1.38 h 7.32 a 0.69,0.69 0 0 0 0.69,-0.66 z m 0,3.19 a 0.69,0.69 0 0 0 -0.69,-0.69 h -7.32 a 0.69,0.69 0 0 0 0,1.38 h 7.32 a 0.69,0.69 0 0 0 0.69,-0.66 z m 0,3.19 a 0.69,0.69 0 0 0 -0.69,-0.69 h -7.32 a 0.69,0.69 0 0 0 -0.69,0.69 0.68,0.68 0 0 0 0.69,0.68 h 7.32 a 0.68,0.68 0 0 0 0.69,-0.65 z m 8.77,3.19 a 0.69,0.69 0 0 0 -0.69,-0.69 H 205 a 0.69,0.69 0 0 0 -0.69,0.69 0.68,0.68 0 0 0 0.69,0.68 h 7.32 a 0.68,0.68 0 0 0 0.68,-0.65 z m 0,3.18 a 0.68,0.68 0 0 0 -0.69,-0.68 H 205 a 0.69,0.69 0 1 0 0,1.37 h 7.32 a 0.69,0.69 0 0 0 0.68,-0.66 z m 0,3.19 a 0.68,0.68 0 0 0 -0.69,-0.68 H 205 a 0.68,0.68 0 0 0 -0.69,0.68 0.69,0.69 0 0 0 0.69,0.69 h 7.32 a 0.69,0.69 0 0 0 0.68,-0.66 z m -5.54,-22.32 a 0.8,0.8 0 0 0 -1.6,0 0.8,0.8 0 0 0 1.6,0 z m 2.39,0 a 0.8,0.8 0 0 0 -1.6,0 0.8,0.8 0 0 0 1.6,0 z m 2.39,0 a 0.8,0.8 0 0 0 -1.6,0 0.8,0.8 0 0 0 1.6,0 z m 2.39,0 a 0.79,0.79 0 0 0 -0.8,-0.79 0.79,0.79 0 0 0 -0.79,0.79 0.79,0.79 0 0 0 0.79,0.8 0.8,0.8 0 0 0 0.8,-0.77 z m 2.39,0 a 0.8,0.8 0 1 0 -0.8,0.8 0.8,0.8 0 0 0 0.82,-0.77 z m 2.39,0 a 0.79,0.79 0 0 0 -0.79,-0.79 0.79,0.79 0 0 0 -0.8,0.79 0.8,0.8 0 0 0 0.8,0.8 0.79,0.79 0 0 0 0.79,-0.77 z m -12,6.38 a 0.8,0.8 0 1 0 -0.8,0.8 0.8,0.8 0 0 0 0.85,-0.77 z m 2.39,0 a 0.8,0.8 0 1 0 -0.8,0.8 0.8,0.8 0 0 0 0.85,-0.77 z m 2.39,0 a 0.8,0.8 0 1 0 -0.8,0.8 0.8,0.8 0 0 0 0.85,-0.77 z m 2.39,0 a 0.8,0.8 0 0 0 -0.8,-0.8 0.8,0.8 0 0 0 0,1.6 0.8,0.8 0 0 0 0.85,-0.77 z m 2.39,0 a 0.8,0.8 0 1 0 -0.8,0.8 0.8,0.8 0 0 0 0.87,-0.77 z m 2.39,0 a 0.79,0.79 0 0 0 -0.79,-0.8 0.8,0.8 0 0 0 0,1.6 0.79,0.79 0 0 0 0.84,-0.77 z m -3.78,9.17 a 0.8,0.8 0 1 0 -1.6,0 0.8,0.8 0 0 0 1.6,0 z m 2.39,0 a 0.8,0.8 0 0 0 -1.6,0 0.8,0.8 0 0 0 1.6,0 z m 2.39,0 a 0.8,0.8 0 0 0 -0.8,-0.8 0.79,0.79 0 0 0 -0.79,0.8 0.79,0.79 0 0 0 0.79,0.79 0.79,0.79 0 0 0 0.85,-0.76 z m 2.39,0 a 0.8,0.8 0 0 0 -0.8,-0.8 0.79,0.79 0 0 0 -0.79,0.8 0.79,0.79 0 0 0 0.79,0.79 0.79,0.79 0 0 0 0.85,-0.76 z m 2.39,0 a 0.79,0.79 0 0 0 -0.79,-0.8 0.8,0.8 0 0 0 -0.8,0.8 0.79,0.79 0 0 0 0.8,0.79 0.79,0.79 0 0 0 0.84,-0.76 z m 2.4,0 a 0.8,0.8 0 1 0 -1.6,0 0.8,0.8 0 0 0 1.6,0 z m -12,6.57 a 0.8,0.8 0 0 0 -1.6,0 0.8,0.8 0 0 0 1.6,0 z m 2.39,0 a 0.8,0.8 0 0 0 -1.6,0 0.8,0.8 0 0 0 1.6,0 z m 2.39,0 a 0.79,0.79 0 0 0 -0.8,-0.79 0.79,0.79 0 0 0 -0.79,0.79 0.79,0.79 0 0 0 0.79,0.8 0.8,0.8 0 0 0 0.89,-0.77 z m 2.39,0 a 0.79,0.79 0 0 0 -0.8,-0.79 0.79,0.79 0 0 0 -0.79,0.79 0.79,0.79 0 0 0 0.79,0.8 0.8,0.8 0 0 0 0.89,-0.77 z m 2.39,0 a 0.79,0.79 0 0 0 -0.79,-0.79 0.79,0.79 0 0 0 -0.8,0.79 0.8,0.8 0 0 0 0.8,0.8 0.79,0.79 0 0 0 0.88,-0.77 z m 2.4,0 a 0.8,0.8 0 0 0 -1.6,0 0.8,0.8 0 0 0 1.6,0 z"
       style="fill:#a61c3c"
       id="path179" />
    <path
       d="m 193.07,217.55 h -2.79 a 0.69,0.69 0 0 1 0,-1.38 h 2.79 a 0.69,0.69 0 0 1 0,1.38 z m 0.68,2.5 a 0.68,0.68 0 0 0 -0.68,-0.69 h -2.79 a 0.69,0.69 0 0 0 0,1.38 h 2.79 a 0.68,0.68 0 0 0 0.68,-0.69 z m 0,3.19 a 0.68,0.68 0 0 0 -0.68,-0.69 h -2.79 a 0.69,0.69 0 0 0 -0.69,0.69 0.68,0.68 0 0 0 0.69,0.68 h 2.79 a 0.67,0.67 0 0 0 0.68,-0.68 z m 0,3.18 a 0.67,0.67 0 0 0 -0.68,-0.68 h -2.79 a 0.69,0.69 0 1 0 0,1.37 h 2.79 a 0.68,0.68 0 0 0 0.68,-0.69 z m 0,3.19 a 0.67,0.67 0 0 0 -0.68,-0.68 h -2.79 a 0.68,0.68 0 0 0 -0.69,0.68 0.69,0.69 0 0 0 0.69,0.69 h 2.79 a 0.68,0.68 0 0 0 0.68,-0.69 z m 0,3.19 a 0.68,0.68 0 0 0 -0.68,-0.69 h -2.79 a 0.69,0.69 0 0 0 0,1.38 h 2.79 a 0.68,0.68 0 0 0 0.68,-0.69 z m 0,3.19 a 0.68,0.68 0 0 0 -0.68,-0.69 h -2.79 a 0.69,0.69 0 1 0 0,1.38 h 2.79 a 0.68,0.68 0 0 0 0.68,-0.68 z m 0,3.19 a 0.68,0.68 0 0 0 -0.68,-0.69 h -2.79 a 0.69,0.69 0 0 0 0,1.38 h 2.79 a 0.68,0.68 0 0 0 0.68,-0.69 z m 10.44,-22.32 a 0.69,0.69 0 0 0 -0.69,-0.69 h -7.32 a 0.69,0.69 0 0 0 0,1.38 h 7.32 a 0.69,0.69 0 0 0 0.69,-0.69 z m 0,3.19 a 0.69,0.69 0 0 0 -0.69,-0.69 h -7.32 a 0.69,0.69 0 0 0 0,1.38 h 7.32 a 0.69,0.69 0 0 0 0.69,-0.69 z m 0,3.19 a 0.69,0.69 0 0 0 -0.69,-0.69 h -7.32 a 0.69,0.69 0 0 0 -0.69,0.69 0.68,0.68 0 0 0 0.69,0.68 h 7.32 a 0.68,0.68 0 0 0 0.69,-0.68 z m 0,3.18 a 0.68,0.68 0 0 0 -0.69,-0.68 h -7.32 a 0.69,0.69 0 1 0 0,1.37 h 7.32 a 0.69,0.69 0 0 0 0.69,-0.69 z m 0,3.19 a 0.68,0.68 0 0 0 -0.69,-0.68 h -7.32 a 0.68,0.68 0 0 0 -0.69,0.68 0.69,0.69 0 0 0 0.69,0.69 h 7.32 a 0.69,0.69 0 0 0 0.69,-0.69 z m 8.81,3.19 a 0.69,0.69 0 0 0 -0.69,-0.69 H 205 a 0.69,0.69 0 0 0 0,1.38 h 7.32 A 0.69,0.69 0 0 0 213,232.8 Z m 0,3.19 a 0.69,0.69 0 0 0 -0.69,-0.69 H 205 a 0.69,0.69 0 0 0 0,1.38 h 7.32 A 0.69,0.69 0 0 0 213,236 Z m 0,3.19 a 0.69,0.69 0 0 0 -0.69,-0.69 H 205 a 0.69,0.69 0 0 0 0,1.38 h 7.32 a 0.69,0.69 0 0 0 0.68,-0.69 z m -5.54,-22.32 a 0.8,0.8 0 1 0 -0.8,0.8 0.8,0.8 0 0 0 0.76,-0.8 z m 2.39,0 a 0.8,0.8 0 1 0 -0.8,0.8 0.8,0.8 0 0 0 0.76,-0.8 z m 2.39,0 a 0.8,0.8 0 1 0 -0.8,0.8 0.8,0.8 0 0 0 0.76,-0.8 z m 2.39,0 a 0.8,0.8 0 0 0 -0.8,-0.8 0.8,0.8 0 0 0 0,1.6 0.8,0.8 0 0 0 0.76,-0.8 z m 2.39,0 a 0.8,0.8 0 1 0 -0.8,0.8 0.8,0.8 0 0 0 0.78,-0.8 z m 2.39,0 a 0.79,0.79 0 0 0 -0.79,-0.8 0.8,0.8 0 1 0 0,1.6 0.79,0.79 0 0 0 0.75,-0.8 z m -12,6.38 a 0.8,0.8 0 0 0 -1.6,0 0.8,0.8 0 0 0 1.6,0 z m 2.39,0 a 0.8,0.8 0 0 0 -1.6,0 0.8,0.8 0 0 0 1.6,0 z m 2.39,0 a 0.8,0.8 0 0 0 -1.6,0 0.8,0.8 0 0 0 1.6,0 z m 2.39,0 a 0.8,0.8 0 0 0 -0.8,-0.8 0.79,0.79 0 0 0 -0.79,0.8 0.79,0.79 0 0 0 0.79,0.79 0.79,0.79 0 0 0 0.81,-0.79 z m 2.39,0 a 0.8,0.8 0 1 0 -1.59,0 0.8,0.8 0 0 0 1.59,0 z m 2.39,0 a 0.79,0.79 0 0 0 -0.79,-0.8 0.8,0.8 0 0 0 -0.8,0.8 0.79,0.79 0 0 0 0.8,0.79 0.79,0.79 0 0 0 0.8,-0.79 z m -3.78,9.16 a 0.8,0.8 0 0 0 -1.6,0 0.8,0.8 0 0 0 1.6,0 z m 2.39,0 a 0.8,0.8 0 0 0 -1.6,0 0.8,0.8 0 0 0 1.6,0 z m 2.39,0 a 0.79,0.79 0 0 0 -0.8,-0.79 0.79,0.79 0 0 0 -0.79,0.79 0.79,0.79 0 0 0 0.79,0.8 0.8,0.8 0 0 0 0.81,-0.8 z m 2.39,0 a 0.79,0.79 0 0 0 -0.8,-0.79 0.79,0.79 0 0 0 -0.79,0.79 0.79,0.79 0 0 0 0.79,0.8 0.8,0.8 0 0 0 0.81,-0.8 z m 2.39,0 a 0.79,0.79 0 0 0 -0.79,-0.79 0.79,0.79 0 0 0 -0.8,0.79 0.8,0.8 0 0 0 0.8,0.8 0.79,0.79 0 0 0 0.8,-0.8 z m 2.4,0 a 0.8,0.8 0 0 0 -1.6,0 0.8,0.8 0 0 0 1.6,0 z m -12,6.58 a 0.8,0.8 0 1 0 -0.8,0.8 0.8,0.8 0 0 0 0.85,-0.78 z m 2.39,0 a 0.8,0.8 0 1 0 -0.8,0.8 A 0.8,0.8 0 0 0 218,239 Z m 2.39,0 a 0.8,0.8 0 0 0 -0.8,-0.8 0.8,0.8 0 0 0 0,1.6 0.8,0.8 0 0 0 0.85,-0.78 z m 2.39,0 a 0.8,0.8 0 0 0 -0.8,-0.8 0.8,0.8 0 0 0 0,1.6 0.8,0.8 0 0 0 0.85,-0.78 z m 2.39,0 a 0.79,0.79 0 0 0 -0.79,-0.8 0.8,0.8 0 0 0 0,1.6 0.79,0.79 0 0 0 0.84,-0.78 z m 2.4,0 a 0.8,0.8 0 1 0 -0.8,0.8 0.8,0.8 0 0 0 0.85,-0.78 z"
       style="fill:#a61c3c"
       id="path181" />
    <path
       d="m 193.07,243.68 h -2.79 a 0.69,0.69 0 1 1 0,-1.38 h 2.79 a 0.69,0.69 0 0 1 0,1.38 z m 0.68,2.5 a 0.68,0.68 0 0 0 -0.68,-0.69 h -2.79 a 0.69,0.69 0 0 0 0,1.38 h 2.79 a 0.68,0.68 0 0 0 0.68,-0.69 z m 0,3.19 a 0.68,0.68 0 0 0 -0.68,-0.69 h -2.79 a 0.69,0.69 0 1 0 0,1.38 h 2.79 a 0.68,0.68 0 0 0 0.68,-0.69 z m 0,3.19 a 0.68,0.68 0 0 0 -0.68,-0.69 h -2.79 a 0.69,0.69 0 0 0 0,1.38 h 2.79 a 0.68,0.68 0 0 0 0.68,-0.69 z m 0,3.19 a 0.68,0.68 0 0 0 -0.68,-0.69 h -2.79 a 0.69,0.69 0 0 0 -0.69,0.69 0.68,0.68 0 0 0 0.69,0.68 h 2.79 a 0.67,0.67 0 0 0 0.68,-0.68 z m 0,3.19 a 0.68,0.68 0 0 0 -0.68,-0.69 h -2.79 a 0.69,0.69 0 0 0 -0.69,0.69 0.68,0.68 0 0 0 0.69,0.68 h 2.79 a 0.67,0.67 0 0 0 0.68,-0.68 z m 0,3.18 a 0.67,0.67 0 0 0 -0.68,-0.68 h -2.79 a 0.68,0.68 0 0 0 -0.69,0.68 0.69,0.69 0 0 0 0.69,0.69 h 2.79 a 0.68,0.68 0 0 0 0.68,-0.69 z m 0,3.19 a 0.68,0.68 0 0 0 -0.68,-0.69 h -2.79 a 0.69,0.69 0 1 0 0,1.38 h 2.79 a 0.68,0.68 0 0 0 0.68,-0.69 z M 204.19,243 a 0.69,0.69 0 0 0 -0.69,-0.69 h -7.32 a 0.69,0.69 0 0 0 0,1.38 h 7.32 a 0.69,0.69 0 0 0 0.69,-0.69 z m 0,3.19 a 0.69,0.69 0 0 0 -0.69,-0.69 h -7.32 a 0.69,0.69 0 0 0 0,1.38 h 7.32 a 0.69,0.69 0 0 0 0.69,-0.7 z m 0,3.19 a 0.69,0.69 0 0 0 -0.69,-0.69 h -7.32 a 0.69,0.69 0 0 0 0,1.38 h 7.32 a 0.69,0.69 0 0 0 0.69,-0.7 z m 0,3.19 a 0.69,0.69 0 0 0 -0.69,-0.69 h -7.32 a 0.69,0.69 0 0 0 0,1.38 h 7.32 a 0.69,0.69 0 0 0 0.69,-0.7 z m 0,3.19 a 0.69,0.69 0 0 0 -0.69,-0.69 h -7.32 a 0.69,0.69 0 0 0 -0.69,0.69 0.68,0.68 0 0 0 0.69,0.68 h 7.32 a 0.68,0.68 0 0 0 0.69,-0.69 z m 8.77,3.19 a 0.69,0.69 0 0 0 -0.69,-0.69 H 205 a 0.69,0.69 0 0 0 -0.69,0.69 0.68,0.68 0 0 0 0.69,0.68 h 7.32 a 0.68,0.68 0 0 0 0.68,-0.69 z m 0,3.18 a 0.68,0.68 0 0 0 -0.69,-0.68 H 205 a 0.68,0.68 0 0 0 -0.69,0.68 0.69,0.69 0 0 0 0.69,0.69 h 7.32 a 0.69,0.69 0 0 0 0.68,-0.7 z m 0,3.19 a 0.69,0.69 0 0 0 -0.69,-0.69 H 205 a 0.69,0.69 0 0 0 0,1.38 h 7.32 a 0.69,0.69 0 0 0 0.68,-0.7 z M 207.42,243 a 0.8,0.8 0 1 0 -0.8,0.8 0.8,0.8 0 0 0 0.8,-0.8 z m 2.39,0 a 0.8,0.8 0 1 0 -0.8,0.8 0.8,0.8 0 0 0 0.8,-0.8 z m 2.39,0 a 0.8,0.8 0 1 0 -0.8,0.8 0.8,0.8 0 0 0 0.8,-0.8 z m 2.39,0 a 0.8,0.8 0 0 0 -0.8,-0.8 0.8,0.8 0 0 0 0,1.6 0.8,0.8 0 0 0 0.8,-0.8 z m 2.39,0 a 0.8,0.8 0 1 0 -0.8,0.8 0.8,0.8 0 0 0 0.82,-0.8 z m 2.39,0 a 0.79,0.79 0 0 0 -0.79,-0.8 0.8,0.8 0 1 0 0,1.6 0.79,0.79 0 0 0 0.79,-0.8 z m -12,6.38 a 0.8,0.8 0 1 0 -0.8,0.8 0.8,0.8 0 0 0 0.85,-0.81 z m 2.39,0 a 0.8,0.8 0 1 0 -0.8,0.8 0.8,0.8 0 0 0 0.85,-0.81 z m 2.39,0 a 0.8,0.8 0 1 0 -0.8,0.8 0.8,0.8 0 0 0 0.85,-0.81 z m 2.39,0 a 0.8,0.8 0 0 0 -0.8,-0.8 0.8,0.8 0 0 0 0,1.6 0.8,0.8 0 0 0 0.85,-0.81 z m 2.39,0 a 0.8,0.8 0 1 0 -0.8,0.8 0.8,0.8 0 0 0 0.87,-0.81 z m 2.39,0 a 0.79,0.79 0 0 0 -0.79,-0.8 0.8,0.8 0 1 0 0,1.6 0.79,0.79 0 0 0 0.84,-0.81 z m -3.78,9.17 a 0.8,0.8 0 0 0 -1.6,0 0.8,0.8 0 0 0 1.6,0 z m 2.39,0 a 0.8,0.8 0 0 0 -1.6,0 0.8,0.8 0 0 0 1.6,0 z m 2.39,0 a 0.8,0.8 0 0 0 -0.8,-0.8 0.79,0.79 0 0 0 -0.79,0.8 0.79,0.79 0 0 0 0.79,0.79 0.79,0.79 0 0 0 0.85,-0.8 z m 2.39,0 a 0.8,0.8 0 0 0 -0.8,-0.8 0.79,0.79 0 0 0 -0.79,0.8 0.79,0.79 0 0 0 0.79,0.79 0.79,0.79 0 0 0 0.85,-0.8 z m 2.39,0 a 0.79,0.79 0 0 0 -0.79,-0.8 0.8,0.8 0 0 0 -0.8,0.8 0.79,0.79 0 0 0 0.8,0.79 0.79,0.79 0 0 0 0.84,-0.8 z m 2.4,0 a 0.8,0.8 0 1 0 -1.6,0 0.8,0.8 0 0 0 1.6,0 z m -12,6.57 a 0.8,0.8 0 0 0 -1.6,0 0.8,0.8 0 1 0 1.6,0 z m 2.39,0 a 0.8,0.8 0 0 0 -1.6,0 0.8,0.8 0 0 0 1.6,0 z m 2.39,0 a 0.79,0.79 0 0 0 -0.8,-0.79 0.79,0.79 0 0 0 -0.79,0.79 0.79,0.79 0 0 0 0.79,0.8 0.8,0.8 0 0 0 0.89,-0.81 z m 2.39,0 a 0.79,0.79 0 0 0 -0.8,-0.79 0.79,0.79 0 0 0 -0.79,0.79 0.79,0.79 0 0 0 0.79,0.8 0.8,0.8 0 0 0 0.89,-0.81 z m 2.39,0 a 0.79,0.79 0 0 0 -0.79,-0.79 0.79,0.79 0 0 0 -0.8,0.79 0.8,0.8 0 0 0 0.8,0.8 0.79,0.79 0 0 0 0.88,-0.81 z m 2.4,0 a 0.8,0.8 0 0 0 -1.6,0 0.8,0.8 0 0 0 1.6,0 z"
       style="fill:#a61c3c"
       id="path183" />
    <path
       d="m 150,192 h -2.79 a 0.69,0.69 0 0 1 0,-1.38 H 150 a 0.69,0.69 0 0 1 0,1.38 z m 0.68,2.5 A 0.68,0.68 0 0 0 150,193.81 h -2.79 a 0.69,0.69 0 0 0 0,1.38 H 150 a 0.68,0.68 0 0 0 0.63,-0.66 z m 0,3.19 A 0.68,0.68 0 0 0 150,197 h -2.79 a 0.69,0.69 0 0 0 0,1.38 H 150 a 0.68,0.68 0 0 0 0.63,-0.66 z m 0,3.19 A 0.68,0.68 0 0 0 150,200.19 h -2.79 a 0.69,0.69 0 0 0 0,1.38 H 150 a 0.68,0.68 0 0 0 0.63,-0.66 z m 0,3.19 A 0.68,0.68 0 0 0 150,203.38 h -2.79 a 0.69,0.69 0 0 0 -0.69,0.69 0.68,0.68 0 0 0 0.69,0.68 H 150 a 0.67,0.67 0 0 0 0.63,-0.65 z m 0,3.19 A 0.68,0.68 0 0 0 150,206.57 h -2.79 a 0.69,0.69 0 0 0 -0.69,0.69 0.68,0.68 0 0 0 0.69,0.68 H 150 a 0.67,0.67 0 0 0 0.63,-0.65 z m 0,3.18 A 0.67,0.67 0 0 0 150,209.76 h -2.79 a 0.69,0.69 0 1 0 0,1.37 H 150 a 0.68,0.68 0 0 0 0.63,-0.66 z m 0,3.19 A 0.67,0.67 0 0 0 150,213 h -2.79 a 0.68,0.68 0 0 0 -0.69,0.68 0.69,0.69 0 0 0 0.69,0.69 H 150 a 0.68,0.68 0 0 0 0.63,-0.71 z m 10.44,-22.32 a 0.69,0.69 0 0 0 -0.69,-0.69 h -7.32 a 0.69,0.69 0 0 0 0,1.38 h 7.32 a 0.69,0.69 0 0 0 0.64,-0.66 z m 0,3.19 a 0.69,0.69 0 0 0 -0.69,-0.69 h -7.32 a 0.69,0.69 0 0 0 0,1.38 h 7.32 a 0.69,0.69 0 0 0 0.64,-0.66 z m 0,3.19 A 0.69,0.69 0 0 0 160.43,197 h -7.32 a 0.69,0.69 0 0 0 0,1.38 h 7.32 a 0.69,0.69 0 0 0 0.64,-0.66 z m 0,3.19 a 0.69,0.69 0 0 0 -0.69,-0.69 h -7.32 a 0.69,0.69 0 0 0 0,1.38 h 7.32 a 0.69,0.69 0 0 0 0.64,-0.66 z m 0,3.19 a 0.69,0.69 0 0 0 -0.69,-0.69 h -7.32 a 0.69,0.69 0 0 0 -0.69,0.69 0.68,0.68 0 0 0 0.69,0.68 h 7.32 a 0.68,0.68 0 0 0 0.64,-0.65 z m 8.77,3.19 a 0.69,0.69 0 0 0 -0.69,-0.69 h -7.32 a 0.69,0.69 0 0 0 -0.69,0.69 0.68,0.68 0 0 0 0.69,0.68 h 7.32 a 0.68,0.68 0 0 0 0.64,-0.65 z m 0,3.18 a 0.68,0.68 0 0 0 -0.69,-0.68 h -7.32 a 0.69,0.69 0 1 0 0,1.37 h 7.32 a 0.69,0.69 0 0 0 0.64,-0.66 z m 0,3.19 a 0.68,0.68 0 0 0 -0.69,-0.68 h -7.32 a 0.68,0.68 0 0 0 -0.69,0.68 0.69,0.69 0 0 0 0.69,0.69 h 7.32 a 0.69,0.69 0 0 0 0.64,-0.66 z m -5.54,-22.32 a 0.8,0.8 0 0 0 -1.6,0 0.8,0.8 0 0 0 1.6,0 z m 2.39,0 a 0.8,0.8 0 0 0 -1.6,0 0.8,0.8 0 0 0 1.6,0 z m 2.39,0 a 0.8,0.8 0 0 0 -1.6,0 0.8,0.8 0 0 0 1.6,0 z m 2.39,0 a 0.79,0.79 0 0 0 -0.8,-0.79 0.79,0.79 0 0 0 -0.79,0.79 0.79,0.79 0 0 0 0.79,0.8 0.8,0.8 0 0 0 0.75,-0.77 z m 2.39,0 a 0.79,0.79 0 0 0 -0.8,-0.79 0.79,0.79 0 0 0 -0.79,0.79 0.79,0.79 0 0 0 0.79,0.8 0.8,0.8 0 0 0 0.75,-0.77 z m 2.39,0 a 0.79,0.79 0 0 0 -0.79,-0.79 0.79,0.79 0 0 0 -0.8,0.79 0.8,0.8 0 0 0 0.8,0.8 0.79,0.79 0 0 0 0.74,-0.77 z m -11.95,6.38 a 0.8,0.8 0 1 0 -0.8,0.8 0.8,0.8 0 0 0 0.75,-0.77 z m 2.39,0 a 0.8,0.8 0 1 0 -0.8,0.8 0.8,0.8 0 0 0 0.75,-0.77 z m 2.39,0 a 0.8,0.8 0 1 0 -0.8,0.8 0.8,0.8 0 0 0 0.75,-0.77 z m 2.39,0 a 0.8,0.8 0 0 0 -0.8,-0.8 0.8,0.8 0 0 0 0,1.6 0.8,0.8 0 0 0 0.75,-0.77 z m 2.39,0 a 0.8,0.8 0 0 0 -0.8,-0.8 0.8,0.8 0 0 0 0,1.6 0.8,0.8 0 0 0 0.75,-0.77 z m 2.39,0 a 0.79,0.79 0 0 0 -0.79,-0.8 0.8,0.8 0 0 0 0,1.6 0.79,0.79 0 0 0 0.74,-0.77 z m -3.78,9.17 a 0.8,0.8 0 1 0 -1.6,0 0.8,0.8 0 0 0 1.6,0 z m 2.39,0 a 0.8,0.8 0 1 0 -1.6,0 0.8,0.8 0 0 0 1.6,0 z m 2.39,0 a 0.8,0.8 0 0 0 -0.8,-0.8 0.79,0.79 0 0 0 -0.79,0.8 0.79,0.79 0 0 0 0.79,0.79 0.79,0.79 0 0 0 0.75,-0.76 z m 2.39,0 a 0.8,0.8 0 0 0 -0.8,-0.8 0.79,0.79 0 0 0 -0.79,0.8 0.79,0.79 0 0 0 0.79,0.79 0.79,0.79 0 0 0 0.75,-0.76 z m 2.39,0 a 0.79,0.79 0 0 0 -0.79,-0.8 0.8,0.8 0 0 0 -0.8,0.8 0.79,0.79 0 0 0 0.8,0.79 0.79,0.79 0 0 0 0.71,-0.76 z m 2.39,0 a 0.79,0.79 0 0 0 -0.79,-0.8 0.8,0.8 0 0 0 -0.8,0.8 0.79,0.79 0 0 0 0.8,0.79 0.79,0.79 0 0 0 0.74,-0.76 z m -11.95,6.57 a 0.8,0.8 0 0 0 -1.6,0 0.8,0.8 0 0 0 1.6,0 z m 2.39,0 a 0.8,0.8 0 0 0 -1.6,0 0.8,0.8 0 0 0 1.6,0 z m 2.39,0 a 0.79,0.79 0 0 0 -0.8,-0.79 0.79,0.79 0 0 0 -0.79,0.79 0.79,0.79 0 0 0 0.79,0.8 0.8,0.8 0 0 0 0.75,-0.77 z m 2.39,0 a 0.79,0.79 0 0 0 -0.8,-0.79 0.79,0.79 0 0 0 -0.79,0.79 0.79,0.79 0 0 0 0.79,0.8 0.8,0.8 0 0 0 0.75,-0.77 z m 2.39,0 a 0.79,0.79 0 0 0 -0.79,-0.79 0.79,0.79 0 0 0 -0.8,0.79 0.8,0.8 0 0 0 0.8,0.8 0.79,0.79 0 0 0 0.71,-0.77 z m 2.39,0 a 0.79,0.79 0 0 0 -0.79,-0.79 0.79,0.79 0 0 0 -0.8,0.79 0.8,0.8 0 0 0 0.8,0.8 0.79,0.79 0 0 0 0.74,-0.77 z"
       style="fill:#a61c3c"
       id="path185" />
    <path
       d="m 150,218.16 h -2.79 a 0.69,0.69 0 1 1 0,-1.37 H 150 a 0.69,0.69 0 0 1 0,1.37 z m 0.68,2.5 A 0.67,0.67 0 0 0 150,220 h -2.79 a 0.68,0.68 0 0 0 -0.69,0.68 0.69,0.69 0 0 0 0.69,0.69 H 150 a 0.68,0.68 0 0 0 0.63,-0.71 z m 0,3.19 A 0.68,0.68 0 0 0 150,223.16 h -2.79 a 0.69,0.69 0 0 0 0,1.38 H 150 a 0.68,0.68 0 0 0 0.63,-0.69 z m 0,3.19 A 0.68,0.68 0 0 0 150,226.35 h -2.79 a 0.69,0.69 0 0 0 0,1.38 H 150 a 0.68,0.68 0 0 0 0.63,-0.73 z m 0,3.19 A 0.68,0.68 0 0 0 150,229.54 h -2.79 a 0.69,0.69 0 0 0 0,1.38 H 150 a 0.68,0.68 0 0 0 0.63,-0.69 z m 0,3.19 A 0.68,0.68 0 0 0 150,232.73 h -2.79 a 0.69,0.69 0 0 0 0,1.38 H 150 a 0.68,0.68 0 0 0 0.63,-0.69 z m 0,3.19 A 0.68,0.68 0 0 0 150,235.92 h -2.79 a 0.69,0.69 0 0 0 0,1.38 H 150 a 0.68,0.68 0 0 0 0.63,-0.69 z m 0,3.19 A 0.68,0.68 0 0 0 150,239.11 h -2.79 a 0.69,0.69 0 0 0 -0.69,0.69 0.68,0.68 0 0 0 0.69,0.68 H 150 a 0.67,0.67 0 0 0 0.63,-0.68 z m 10.44,-22.32 a 0.69,0.69 0 0 0 -0.69,-0.69 h -7.32 a 0.69,0.69 0 1 0 0,1.37 h 7.32 a 0.68,0.68 0 0 0 0.64,-0.68 z m 0,3.18 a 0.68,0.68 0 0 0 -0.69,-0.68 h -7.32 a 0.68,0.68 0 0 0 -0.69,0.68 0.69,0.69 0 0 0 0.69,0.69 h 7.32 a 0.69,0.69 0 0 0 0.64,-0.69 z m 0,3.19 a 0.69,0.69 0 0 0 -0.69,-0.69 h -7.32 a 0.69,0.69 0 0 0 0,1.38 h 7.32 a 0.69,0.69 0 0 0 0.64,-0.69 z m 0,3.19 a 0.69,0.69 0 0 0 -0.69,-0.69 h -7.32 a 0.69,0.69 0 0 0 0,1.38 h 7.32 a 0.69,0.69 0 0 0 0.64,-0.73 z m 0,3.19 a 0.69,0.69 0 0 0 -0.69,-0.69 h -7.32 a 0.69,0.69 0 0 0 0,1.38 h 7.32 a 0.69,0.69 0 0 0 0.64,-0.69 z m 8.77,3.19 a 0.69,0.69 0 0 0 -0.69,-0.69 h -7.32 a 0.69,0.69 0 1 0 0,1.38 h 7.32 a 0.69,0.69 0 0 0 0.64,-0.69 z m 0,3.19 a 0.69,0.69 0 0 0 -0.69,-0.69 h -7.32 a 0.69,0.69 0 1 0 0,1.38 h 7.32 a 0.69,0.69 0 0 0 0.64,-0.69 z m 0,3.19 a 0.69,0.69 0 0 0 -0.69,-0.69 h -7.32 a 0.69,0.69 0 0 0 -0.69,0.69 0.68,0.68 0 0 0 0.69,0.68 h 7.32 a 0.68,0.68 0 0 0 0.64,-0.68 z m -5.54,-22.33 a 0.8,0.8 0 1 0 -0.8,0.8 0.79,0.79 0 0 0 0.75,-0.8 z m 2.39,0 a 0.8,0.8 0 1 0 -0.8,0.8 0.79,0.79 0 0 0 0.75,-0.8 z m 2.39,0 a 0.8,0.8 0 1 0 -0.8,0.8 0.79,0.79 0 0 0 0.75,-0.8 z m 2.39,0 a 0.79,0.79 0 0 0 -0.8,-0.79 0.8,0.8 0 0 0 0,1.59 0.8,0.8 0 0 0 0.75,-0.8 z m 2.39,0 a 0.79,0.79 0 0 0 -0.8,-0.79 0.8,0.8 0 0 0 0,1.59 0.8,0.8 0 0 0 0.75,-0.8 z m 2.39,0 a 0.79,0.79 0 0 0 -0.79,-0.79 0.8,0.8 0 1 0 0.79,0.79 z m -11.95,6.38 a 0.8,0.8 0 0 0 -1.6,0 0.8,0.8 0 1 0 1.6,0 z m 2.39,0 a 0.8,0.8 0 0 0 -1.6,0 0.8,0.8 0 1 0 1.6,0 z m 2.39,0 a 0.8,0.8 0 0 0 -1.6,0 0.8,0.8 0 0 0 1.6,0 z m 2.39,0 a 0.79,0.79 0 0 0 -0.8,-0.79 0.79,0.79 0 0 0 -0.79,0.79 0.79,0.79 0 0 0 0.79,0.8 0.8,0.8 0 0 0 0.75,-0.8 z m 2.39,0 a 0.79,0.79 0 0 0 -0.8,-0.79 0.79,0.79 0 0 0 -0.79,0.79 0.79,0.79 0 0 0 0.79,0.8 0.8,0.8 0 0 0 0.75,-0.8 z m 2.39,0 a 0.79,0.79 0 0 0 -0.79,-0.79 0.79,0.79 0 0 0 -0.8,0.79 0.8,0.8 0 0 0 0.8,0.8 0.79,0.79 0 0 0 0.74,-0.8 z m -3.83,9.15 a 0.8,0.8 0 1 0 -0.8,0.8 0.8,0.8 0 0 0 0.8,-0.8 z m 2.39,0 a 0.8,0.8 0 1 0 -0.8,0.8 0.8,0.8 0 0 0 0.8,-0.8 z m 2.39,0 a 0.8,0.8 0 0 0 -0.8,-0.8 0.8,0.8 0 0 0 0,1.6 0.8,0.8 0 0 0 0.8,-0.8 z m 2.39,0 a 0.8,0.8 0 0 0 -0.8,-0.8 0.8,0.8 0 0 0 0,1.6 0.8,0.8 0 0 0 0.8,-0.8 z m 2.39,0 a 0.79,0.79 0 0 0 -0.79,-0.8 0.8,0.8 0 1 0 0,1.6 0.79,0.79 0 0 0 0.76,-0.8 z m 2.39,0 a 0.79,0.79 0 0 0 -0.79,-0.8 0.8,0.8 0 0 0 0,1.6 0.79,0.79 0 0 0 0.79,-0.8 z m -11.95,6.58 a 0.8,0.8 0 1 0 -1.6,0 0.8,0.8 0 0 0 1.6,0 z m 2.39,0 a 0.8,0.8 0 1 0 -1.6,0 0.8,0.8 0 0 0 1.6,0 z m 2.39,0 a 0.8,0.8 0 0 0 -0.8,-0.8 0.79,0.79 0 0 0 -0.79,0.8 0.79,0.79 0 0 0 0.79,0.79 0.79,0.79 0 0 0 0.8,-0.77 z m 2.39,0 a 0.8,0.8 0 0 0 -0.8,-0.8 0.79,0.79 0 0 0 -0.79,0.8 0.79,0.79 0 0 0 0.79,0.79 0.79,0.79 0 0 0 0.8,-0.77 z m 2.39,0 a 0.79,0.79 0 0 0 -0.79,-0.8 0.8,0.8 0 0 0 -0.8,0.8 0.79,0.79 0 0 0 0.8,0.79 0.79,0.79 0 0 0 0.76,-0.77 z m 2.39,0 a 0.79,0.79 0 0 0 -0.79,-0.8 0.8,0.8 0 0 0 -0.8,0.8 0.79,0.79 0 0 0 0.8,0.79 0.79,0.79 0 0 0 0.79,-0.77 z"
       style="fill:#a61c3c"
       id="path187" />
    <rect
       x="215.5"
       y="295.42001"
       width="4.29"
       height="1.4299999"
       style="fill:#ffffff;stroke:#263238;stroke-linecap:round;stroke-linejoin:round"
       id="rect189" />
    <rect
       x="221.53"
       y="295.42001"
       width="4.29"
       height="1.4299999"
       style="fill:#ffffff;stroke:#263238;stroke-linecap:round;stroke-linejoin:round"
       id="rect191" />
    <rect
       x="227.56"
       y="295.42001"
       width="4.29"
       height="1.4299999"
       style="fill:#ffffff;stroke:#263238;stroke-linecap:round;stroke-linejoin:round"
       id="rect193" />
    <rect
       x="233.60001"
       y="295.42001"
       width="4.29"
       height="1.4299999"
       style="fill:#ffffff;stroke:#263238;stroke-linecap:round;stroke-linejoin:round"
       id="rect195" />
    <rect
       x="239.63"
       y="295.42001"
       width="4.29"
       height="1.4299999"
       style="fill:#ffffff;stroke:#263238;stroke-linecap:round;stroke-linejoin:round"
       id="rect197" />
    <rect
       x="245.66"
       y="295.42001"
       width="4.29"
       height="1.4299999"
       style="fill:#ffffff;stroke:#263238;stroke-linecap:round;stroke-linejoin:round"
       id="rect199" />
    <rect
       x="251.7"
       y="295.42001"
       width="4.29"
       height="1.4299999"
       style="fill:#ffffff;stroke:#263238;stroke-linecap:round;stroke-linejoin:round"
       id="rect201" />
    <rect
       x="257.73001"
       y="295.42001"
       width="4.29"
       height="1.4299999"
       style="fill:#ffffff;stroke:#263238;stroke-linecap:round;stroke-linejoin:round"
       id="rect203" />
    <rect
       x="263.76001"
       y="295.42001"
       width="4.29"
       height="1.4299999"
       style="fill:#ffffff;stroke:#263238;stroke-linecap:round;stroke-linejoin:round"
       id="rect205" />
    <rect
       x="269.79999"
       y="295.42001"
       width="4.29"
       height="1.4299999"
       style="fill:#ffffff;stroke:#263238;stroke-linecap:round;stroke-linejoin:round"
       id="rect207" />
    <rect
       x="275.82999"
       y="295.42001"
       width="4.29"
       height="1.4299999"
       style="fill:#ffffff;stroke:#263238;stroke-linecap:round;stroke-linejoin:round"
       id="rect209" />
    <rect
       x="281.85999"
       y="295.42001"
       width="4.29"
       height="1.4299999"
       style="fill:#ffffff;stroke:#263238;stroke-linecap:round;stroke-linejoin:round"
       id="rect211" />
    <rect
       x="287.89999"
       y="295.42001"
       width="4.29"
       height="1.4299999"
       style="fill:#ffffff;stroke:#263238;stroke-linecap:round;stroke-linejoin:round"
       id="rect213" />
    <rect
       x="293.92999"
       y="295.42001"
       width="4.29"
       height="1.4299999"
       style="fill:none;stroke:#263238;stroke-linecap:round;stroke-linejoin:round"
       id="rect215" />
    <rect
       x="299.95999"
       y="295.42001"
       width="4.29"
       height="1.4299999"
       style="fill:none;stroke:#263238;stroke-linecap:round;stroke-linejoin:round"
       id="rect217" />
    <rect
       x="212.48"
       y="296.63"
       width="93.139999"
       height="2.5999999"
       style="fill:#263238;stroke:#263238;stroke-linecap:round;stroke-linejoin:round"
       id="rect219" />
    <rect
       x="274.39999"
       y="296.63"
       width="31.219999"
       height="2.5999999"
       style="fill:#ffffff;stroke:#263238;stroke-linecap:round;stroke-linejoin:round"
       id="rect221" />
    <path
       d="m 134.23,455.49 v 0 a 2.46,2.46 0 0 0 2.46,-2.42 l 2.48,-149.74 h -9.88 l 2.48,149.74 a 2.46,2.46 0 0 0 2.46,2.42 z"
       style="fill:#ffffff;stroke:#263238;stroke-linecap:round;stroke-linejoin:round"
       id="path223" />
    <polygon
       points="139.17,303.33 129.29,303.33 129.46,313.56 139,313.56 "
       style="fill:#263238;stroke:#263238;stroke-linecap:round;stroke-linejoin:round"
       id="polygon225" />
    <path
       d="m 213.13,455.49 v 0 a 2.46,2.46 0 0 0 2.46,-2.42 l 2.48,-149.74 h -9.88 l 2.48,149.74 a 2.46,2.46 0 0 0 2.46,2.42 z"
       style="fill:#ffffff;stroke:#263238;stroke-linecap:round;stroke-linejoin:round"
       id="path227" />
    <polygon
       points="218.07,303.33 208.19,303.33 208.36,313.56 217.9,313.56 "
       style="fill:#263238;stroke:#263238;stroke-linecap:round;stroke-linejoin:round"
       id="polygon229" />
    <path
       d="m 287.72,455.49 v 0 a 2.47,2.47 0 0 0 2.46,-2.42 l 2.48,-149.74 h -9.88 l 2.48,149.74 a 2.46,2.46 0 0 0 2.46,2.42 z"
       style="fill:#ffffff;stroke:#263238;stroke-linecap:round;stroke-linejoin:round"
       id="path231" />
    <polygon
       points="292.66,303.33 282.78,303.33 282.94,313.56 292.49,313.56 "
       style="fill:#263238;stroke:#263238;stroke-linecap:round;stroke-linejoin:round"
       id="polygon233" />
    <path
       d="m 409.46,455.49 v 0 a 2.46,2.46 0 0 0 2.46,-2.42 l 2.48,-149.74 h -9.88 L 407,453.07 a 2.47,2.47 0 0 0 2.46,2.42 z"
       style="fill:#ffffff;stroke:#263238;stroke-linecap:round;stroke-linejoin:round"
       id="path235" />
    <polygon
       points="414.4,303.33 404.52,303.33 404.69,313.56 414.24,313.56 "
       style="fill:#263238;stroke:#263238;stroke-linecap:round;stroke-linejoin:round"
       id="polygon237" />
    <rect
       x="124.35"
       y="298.88"
       width="299.85999"
       height="7.4099998"
       style="fill:#263238;stroke:#263238;stroke-linecap:round;stroke-linejoin:round"
       id="rect239" />
    <rect
       x="301.54999"
       y="298.88"
       width="122.66"
       height="7.4099998"
       style="fill:#ffffff;stroke:#263238;stroke-linecap:round;stroke-linejoin:round"
       id="rect241" />
    <rect
       x="215.5"
       y="295.42001"
       width="4.29"
       height="1.4299999"
       style="fill:#ffffff;stroke:#263238;stroke-linecap:round;stroke-linejoin:round"
       id="rect243" />
    <rect
       x="221.53"
       y="295.42001"
       width="4.29"
       height="1.4299999"
       style="fill:#ffffff;stroke:#263238;stroke-linecap:round;stroke-linejoin:round"
       id="rect245" />
    <rect
       x="227.56"
       y="295.42001"
       width="4.29"
       height="1.4299999"
       style="fill:#ffffff;stroke:#263238;stroke-linecap:round;stroke-linejoin:round"
       id="rect247" />
    <rect
       x="233.60001"
       y="295.42001"
       width="4.29"
       height="1.4299999"
       style="fill:#ffffff;stroke:#263238;stroke-linecap:round;stroke-linejoin:round"
       id="rect249" />
    <rect
       x="239.63"
       y="295.42001"
       width="4.29"
       height="1.4299999"
       style="fill:#ffffff;stroke:#263238;stroke-linecap:round;stroke-linejoin:round"
       id="rect251" />
    <rect
       x="245.66"
       y="295.42001"
       width="4.29"
       height="1.4299999"
       style="fill:#ffffff;stroke:#263238;stroke-linecap:round;stroke-linejoin:round"
       id="rect253" />
    <rect
       x="251.7"
       y="295.42001"
       width="4.29"
       height="1.4299999"
       style="fill:#ffffff;stroke:#263238;stroke-linecap:round;stroke-linejoin:round"
       id="rect255" />
    <rect
       x="257.73001"
       y="295.42001"
       width="4.29"
       height="1.4299999"
       style="fill:#ffffff;stroke:#263238;stroke-linecap:round;stroke-linejoin:round"
       id="rect257" />
    <rect
       x="263.76001"
       y="295.42001"
       width="4.29"
       height="1.4299999"
       style="fill:#ffffff;stroke:#263238;stroke-linecap:round;stroke-linejoin:round"
       id="rect259" />
    <rect
       x="269.79999"
       y="295.42001"
       width="4.29"
       height="1.4299999"
       style="fill:#ffffff;stroke:#263238;stroke-linecap:round;stroke-linejoin:round"
       id="rect261" />
    <rect
       x="275.82999"
       y="295.42001"
       width="4.29"
       height="1.4299999"
       style="fill:#ffffff;stroke:#263238;stroke-linecap:round;stroke-linejoin:round"
       id="rect263" />
    <rect
       x="281.85999"
       y="295.42001"
       width="4.29"
       height="1.4299999"
       style="fill:#ffffff;stroke:#263238;stroke-linecap:round;stroke-linejoin:round"
       id="rect265" />
    <rect
       x="287.89999"
       y="295.42001"
       width="4.29"
       height="1.4299999"
       style="fill:#ffffff;stroke:#263238;stroke-linecap:round;stroke-linejoin:round"
       id="rect267" />
    <rect
       x="293.92999"
       y="295.42001"
       width="4.29"
       height="1.4299999"
       style="fill:none;stroke:#263238;stroke-linecap:round;stroke-linejoin:round"
       id="rect269" />
    <rect
       x="299.95999"
       y="295.42001"
       width="4.29"
       height="1.4299999"
       style="fill:none;stroke:#263238;stroke-linecap:round;stroke-linejoin:round"
       id="rect271" />
    <rect
       x="212.48"
       y="296.63"
       width="93.139999"
       height="2.5999999"
       style="fill:#263238;stroke:#263238;stroke-linecap:round;stroke-linejoin:round"
       id="rect273" />
    <rect
       x="274.39999"
       y="296.63"
       width="31.219999"
       height="2.5999999"
       style="fill:#ffffff;stroke:#263238;stroke-linecap:round;stroke-linejoin:round"
       id="rect275" />
  </g>
  <g
     id="freepik--Plant--inject-2"
     transform="translate(-13.257988,-52.3)">
    <ellipse
       cx="422.62"
       cy="320.95001"
       rx="8.8800001"
       ry="23.290001"
       style="fill:#a61c3c;stroke:#263238;stroke-miterlimit:10"
       id="ellipse278" />
    <path
       d="m 395,306.59 c 2.77,8.74 8.1,14.84 11.91,13.63 3.81,-1.21 4.63,-9.27 1.86,-18 -2.77,-8.73 -8.11,-14.84 -11.91,-13.63 -3.8,1.21 -4.61,9.26 -1.86,18 z"
       style="fill:#a61c3c;stroke:#263238;stroke-miterlimit:10"
       id="path280" />
    <path
       d="m 460.18,359.27 c 9,-1.53 15.83,-6 15.16,-9.89 -0.67,-3.89 -8.53,-5.89 -17.57,-4.35 -9.04,1.54 -15.83,6 -15.16,9.89 0.67,3.89 8.53,5.88 17.57,4.35 z"
       style="fill:#a61c3c;stroke:#263238;stroke-miterlimit:10"
       id="path282" />
    <path
       d="m 386.67,337.74 c 7.55,7.49 16.47,10.73 19.92,7.25 3.45,-3.48 0.13,-12.37 -7.42,-19.86 -7.55,-7.49 -16.47,-10.73 -19.92,-7.25 -3.45,3.48 -0.13,12.37 7.42,19.86 z"
       style="fill:#a61c3c;stroke:#263238;stroke-miterlimit:10"
       id="path284" />
    <path
       d="m 438.68,317.2 c -7.29,10.59 -9.47,21.76 -4.85,24.94 4.62,3.18 14.27,-2.82 21.57,-13.41 7.3,-10.59 9.48,-21.76 4.86,-24.94 -4.62,-3.18 -14.26,2.82 -21.58,13.41 z"
       style="fill:#a61c3c;stroke:#263238;stroke-miterlimit:10"
       id="path286" />
    <line
       x1="421.98999"
       y1="343.07999"
       x2="421.31"
       y2="413.92999"
       style="fill:none;stroke:#263238;stroke-linecap:round;stroke-miterlimit:10"
       id="line288" />
    <line
       x1="422.82001"
       y1="312.29001"
       x2="421.98999"
       y2="343.07999"
       style="fill:none;stroke:#263238;stroke-linecap:round;stroke-miterlimit:10"
       id="line290" />
    <line
       x1="422.76001"
       y1="307.26999"
       x2="422.82001"
       y2="309.63"
       style="fill:none;stroke:#263238;stroke-linecap:round;stroke-miterlimit:10"
       id="line292" />
    <path
       d="m 433.86,340.63 a 89.43,89.43 0 0 0 -8.77,33.6 v 43.82"
       style="fill:none;stroke:#263238;stroke-linecap:round;stroke-miterlimit:10"
       id="path294" />
    <path
       d="m 449.11,317.29 a 105.5,105.5 0 0 0 -15.25,23.34"
       style="fill:none;stroke:#263238;stroke-linecap:round;stroke-miterlimit:10"
       id="path296" />
    <path
       d="m 453.91,312.22 c 0,0 -0.92,0.84 -2.43,2.45"
       style="fill:none;stroke:#263238;stroke-linecap:round;stroke-miterlimit:10"
       id="path298" />
    <path
       d="m 406,343.92 a 105.11,105.11 0 0 1 14.39,28.56"
       style="fill:none;stroke:#263238;stroke-linecap:round;stroke-miterlimit:10"
       id="path300" />
    <path
       d="M 395.82,332.18 A 83.9,83.9 0 0 1 406,343.92"
       style="fill:none;stroke:#263238;stroke-linecap:round;stroke-miterlimit:10"
       id="path302" />
    <path
       d="m 384.91,323.86 a 46.8,46.8 0 0 1 7.78,5.52"
       style="fill:none;stroke:#263238;stroke-linecap:round;stroke-miterlimit:10"
       id="path304" />
    <path
       d="m 406.41,318.06 c 4.92,15.48 11.52,38.35 14.6,58.21"
       style="fill:none;stroke:#263238;stroke-linecap:round;stroke-miterlimit:10"
       id="path306" />
    <path
       d="m 403.41,308.87 c 0.88,2.61 1.9,5.71 3,9.19"
       style="fill:none;stroke:#263238;stroke-linecap:round;stroke-miterlimit:10"
       id="path308" />
    <path
       d="m 400.34,300 c 0,0 0.86,2.37 2.25,6.43"
       style="fill:none;stroke:#263238;stroke-linecap:round;stroke-miterlimit:10"
       id="path310" />
    <path
       d="m 443.06,352.77 c -6.14,2.34 -14.55,8.84 -17.46,17.35"
       style="fill:none;stroke:#263238;stroke-linecap:round;stroke-miterlimit:10"
       id="path312" />
    <path
       d="m 454.42,350.47 a 38.79,38.79 0 0 0 -11.36,2.3"
       style="fill:none;stroke:#263238;stroke-linecap:round;stroke-miterlimit:10"
       id="path314" />
    <path
       d="m 461.77,350.65 c 0,0 -1.09,-0.16 -2.89,-0.23"
       style="fill:none;stroke:#263238;stroke-linecap:round;stroke-miterlimit:10"
       id="path316" />
    <path
       d="m 442.45,393.33 c 8.31,3.88 16.41,4.09 18.1,0.47 1.69,-3.62 -3.68,-9.69 -12,-13.56 -8.32,-3.87 -16.4,-4.1 -18.09,-0.48 -1.69,3.62 3.69,9.69 11.99,13.57 z"
       style="fill:#a61c3c;stroke:#263238;stroke-miterlimit:10"
       id="path318" />
    <path
       d="m 442.71,382.81 a 38.85,38.85 0 0 0 -10.65,-4.56 5.32,5.32 0 0 0 -5.71,0.11 c -1.13,0.75 -0.75,6.37 -0.75,6.37 v 29.2"
       style="fill:none;stroke:#263238;stroke-linecap:round;stroke-miterlimit:10"
       id="path320" />
    <path
       d="m 448.66,387.14 c 0,0 -0.81,-0.75 -2.25,-1.84"
       style="fill:none;stroke:#263238;stroke-linecap:round;stroke-miterlimit:10"
       id="path322" />
    <path
       d="m 382.83,359.27 c -9,-1.53 -15.82,-6 -15.16,-9.89 0.66,-3.89 8.54,-5.89 17.58,-4.35 9.04,1.54 15.82,6 15.16,9.89 -0.66,3.89 -8.54,5.88 -17.58,4.35 z"
       style="fill:#a61c3c;stroke:#263238;stroke-miterlimit:10"
       id="path324" />
    <path
       d="m 399.76,352.7 a 28.43,28.43 0 0 1 3.22,1.42 22.51,22.51 0 0 1 12,20.08 v 38.61"
       style="fill:none;stroke:#263238;stroke-linecap:round;stroke-miterlimit:10"
       id="path326" />
    <path
       d="m 387.65,350.42 a 39.76,39.76 0 0 1 12.11,2.28"
       style="fill:none;stroke:#263238;stroke-linecap:round;stroke-miterlimit:10"
       id="path328" />
    <path
       d="m 381.24,350.65 c 0,0 0.72,-0.1 2,-0.18"
       style="fill:none;stroke:#263238;stroke-linecap:round;stroke-miterlimit:10"
       id="path330" />
    <path
       d="m 391.91,385.72 c -8,4.58 -16,5.48 -18,2 -2,-3.48 2.83,-10 10.77,-14.55 7.94,-4.55 16,-5.49 18,-2 2,3.49 -2.83,9.97 -10.77,14.55 z"
       style="fill:#a61c3c;stroke:#263238;stroke-miterlimit:10"
       id="path332" />
    <path
       d="m 390,375.83 a 39.63,39.63 0 0 1 10.79,-6 c 0,0 9.85,-1.62 12.1,4.75"
       style="fill:none;stroke:#263238;stroke-linecap:round;stroke-miterlimit:10"
       id="path334" />
    <path
       d="m 385.19,380.09 c 0,0 0.49,-0.54 1.39,-1.39"
       style="fill:none;stroke:#263238;stroke-linecap:round;stroke-miterlimit:10"
       id="path336" />
    <path
       d="m 411.37,375 c 0,0 11.63,-2.26 11.63,5.61 0,7.87 -8.24,14.23 -11.61,23.21 -3.37,8.98 -9.74,9.37 -13.11,0.38 -3.37,-8.99 1.48,-25.47 13.09,-29.2 z"
       style="fill:#a61c3c;stroke:#263238;stroke-miterlimit:10"
       id="path338" />
    <path
       d="m 419.23,375.36 c 0,0 -10.11,4.12 -13.11,17.23"
       style="fill:#a61c3c;stroke:#263238;stroke-miterlimit:10"
       id="path340" />
    <line
       x1="418.48001"
       y1="392.59"
       x2="418.48001"
       y2="413.92999"
       style="fill:none;stroke:#263238;stroke-linecap:round;stroke-miterlimit:10"
       id="line342" />
    <path
       d="m 399.88,455.5 a 91.24,91.24 0 0 1 -4.19,-27.32 81.59,81.59 0 0 1 1.68,-16.71 h 47.29 a 82.3,82.3 0 0 1 1.68,16.71 90.92,90.92 0 0 1 -4.2,27.32 z"
       style="fill:#263238"
       id="path344" />
    <path
       d="m 445.88,419.28 c 0.13,1.29 0.24,2.59 0.31,3.91 h -50.35 c 0.07,-1.32 0.18,-2.62 0.31,-3.91 z"
       style="fill:#7a7a7a"
       id="path346" />
    <path
       d="m 396.37,439.24 c -0.16,-1.29 -0.29,-2.59 -0.4,-3.9 h 50.09 c -0.11,1.31 -0.25,2.61 -0.4,3.9 z"
       style="fill:#7a7a7a"
       id="path348" />
    <path
       d="m 440.23,428.4 a 2,2 0 1 0 2,-2 2,2 0 0 0 -2,2 z"
       style="fill:#8c8c8c"
       id="path350" />
    <path
       d="m 430,428.4 a 2,2 0 1 0 2,-2 2,2 0 0 0 -2,2 z"
       style="fill:#8c8c8c"
       id="path352" />
    <path
       d="m 419.85,428.4 a 2,2 0 1 0 2,-2 2,2 0 0 0 -2,2 z"
       style="fill:#8c8c8c"
       id="path354" />
    <path
       d="m 409.66,428.4 a 2,2 0 1 0 2,-2 2,2 0 0 0 -2,2 z"
       style="fill:#8c8c8c"
       id="path356" />
    <path
       d="m 399.47,428.4 a 2,2 0 1 0 2,-2 2,2 0 0 0 -2,2 z"
       style="fill:#8c8c8c"
       id="path358" />
  </g>
  <g
     id="freepik--Character--inject-2"
     transform="translate(-13.257988,-52.3)">
    <path
       d="m 137.5,220.54 c 0,0 8.28,-5.27 6,-11.79 -2.28,-6.52 -14.8,-13.29 -15.55,-27.09 -0.75,-13.8 19.32,-21.32 30.35,-21.32 11.03,0 13.05,0.75 13.55,3.51 a 10.49,10.49 0 0 1 0.25,3.76 46.51,46.51 0 0 1 5,5.52 c 2.76,3.51 5.51,8.28 4.76,10.29 a 9.68,9.68 0 0 0 -0.25,6.52 c 0.75,2.26 9.53,3.76 8,6.27 a 9.18,9.18 0 0 1 -4.27,3.51 73.71,73.71 0 0 1 -3,14.8 c -2.25,6.52 -2.25,9.28 -7,9.28 -4.75,0 -6.52,-3 -6.52,-3 l -10.79,10.79 z"
       style="fill:#ffffff;stroke:#263238;stroke-linecap:round;stroke-linejoin:round"
       id="path361" />
    <path
       d="m 175.38,223.8 c 4.77,0 4.77,-2.76 7,-9.28 a 72.34,72.34 0 0 0 3,-14.25 13,13 0 0 0 -4.46,0.69 c -4.5,1.24 -8.89,6 -12.26,9.38 -3.37,3.38 -3.61,0.48 -4.81,-7.46 a 69.31,69.31 0 0 1 -0.24,-16.11 c 0,0 5.29,-4.57 6.73,-10.1 1.44,-5.53 -7.93,-4.33 -11.06,-6 -3.13,-1.67 12.86,-3 12.86,-3 a 10.49,10.49 0 0 0 -0.25,-3.76 c -0.5,-2.76 -2.51,-3.51 -13.55,-3.51 -11.04,0 -31.1,7.52 -30.35,21.32 0.75,13.8 13.3,20.57 15.55,27.09 a 6.88,6.88 0 0 1 0.37,1.79 c 3.21,1.07 6.62,1.21 8.15,-1.4 2.41,-4.09 -1.68,-9.14 -1,-15.16 0.68,-6.02 7.7,-1 7.7,-0.24 0,0.76 0,10.11 0.24,15.16 0.24,5.05 9.84,11.89 9.84,11.89 0,0 1.77,2.95 6.54,2.95 z"
       style="fill:#263238;stroke:#263238;stroke-linecap:round;stroke-linejoin:round"
       id="path363" />
    <path
       d="m 179.46,188.81 c 0,1.53 -0.38,2.77 -0.84,2.77 -0.46,0 -0.84,-1.24 -0.84,-2.77 0,-1.53 0.38,-2.76 0.84,-2.76 0.46,0 0.84,1.24 0.84,2.76 z"
       style="fill:#263238"
       id="path365" />
    <path
       d="m 182.11,209.14 c 0,0 -4.33,0.72 -5.53,-4.33"
       style="fill:none;stroke:#ffffff;stroke-linecap:round;stroke-linejoin:round"
       id="path367" />
    <path
       d="m 180.9,184.36 c 0,0 -3.12,-3.36 -6.73,1.45"
       style="fill:none;stroke:#263238;stroke-width:2px;stroke-linecap:round;stroke-linejoin:round"
       id="path369" />
    <line
       x1="183.31"
       y1="182.44"
       x2="185.23"
       y2="194.47"
       style="fill:#ffffff;stroke:#263238;stroke-width:2px;stroke-linecap:round;stroke-linejoin:round"
       id="line371" />
    <line
       x1="183.78999"
       y1="187.00999"
       x2="157.09"
       y2="192.53999"
       style="fill:#ffffff;stroke:#263238;stroke-width:2px;stroke-linecap:round;stroke-linejoin:round"
       id="line373" />
    <path
       d="m 160,195 c 0,0 -5.53,-9.62 -9.14,-5.53 -3.61,4.09 -1.68,12.5 0.48,15.39 2.16,2.89 7.46,1.2 8.42,0"
       style="fill:#ffffff;stroke:#263238;stroke-linecap:round;stroke-linejoin:round"
       id="path375" />
    <path
       d="m 227.08,285.62 c 0,0 10.58,-3.62 14.19,-2.62 3.61,1 8.42,4.57 8.42,4.57 0,0 2.16,0.48 -2.89,1.68 -5.05,1.2 -12,0.25 -16.11,-0.48 -4.11,-0.73 -6.25,-0.99 -3.61,-3.15 z"
       style="fill:#ffffff;stroke:#263238;stroke-linecap:round;stroke-linejoin:round"
       id="path377" />
    <path
       d="m 153.29,294 10.76,2.57 c 0,0 0.25,4.87 4.87,5.63 4.62,0.76 7.47,-4.55 8.86,-4.58 1.39,-0.03 11.63,0.74 11.63,0.74 l -11,-15.63 -21,-5.64 z"
       style="fill:#ffffff;stroke:#263238;stroke-linecap:round;stroke-linejoin:round"
       id="path379" />
    <path
       d="m 263.15,286.16 5.53,0.43 a 5,5 0 0 1 3.84,3.09 l 1.19,3 c 0,0 0.22,2.91 -0.67,3.13 -0.89,0.22 -0.69,0.21 -1.35,-2.24 a 13,13 0 0 0 -1.11,-3.13 l -3.58,-0.67 1.79,1.79 0.89,4.47 a 1.84,1.84 0 0 1 -2.23,-0.44 16.11,16.11 0 0 1 -2.24,-3.36 l -6,-5.59 z"
       style="fill:#ffffff;stroke:#263238;stroke-linecap:round;stroke-linejoin:round"
       id="path381" />
    <path
       d="m 199,281.45 46.55,5.45 c 0,0 7.8,-0.19 15.37,-1.11 3.67,-0.44 8,3.72 8,3.72 0,0 4.82,0.37 5.58,1.8 0.76,1.43 3.23,5 1.08,5.27 -2.15,0.27 -2.71,-2.59 -3.92,-3 -1.21,-0.41 -4.82,-0.38 -7.7,0.17 -2.88,0.55 -7.64,2.34 -12,2.19 a 13.34,13.34 0 0 1 -7.28,-2.48 c 0,0 -42.43,6.48 -47.48,6.59 a 33.39,33.39 0 0 1 -9.41,-1.23 z"
       style="fill:#ffffff;stroke:#263238;stroke-linecap:round;stroke-linejoin:round"
       id="path383" />
    <path
       d="m 190,274.31 c 0,0 1,-1.2 2.41,0.72 1.41,1.92 2.4,3.37 3.61,4.09 1.21,0.72 4.57,-0.24 2.88,4.57 -1.69,4.81 -7,15.15 -12,17.56 -5,2.41 -8.18,-1.2 -9.14,-3.61 -0.96,-2.41 -5.77,-1.2 -5.53,-7 0.24,-5.8 17.77,-16.33 17.77,-16.33 z"
       style="fill:#ffffff;stroke:#263238;stroke-linecap:round;stroke-linejoin:round"
       id="path385" />
    <path
       d="m 188.36,435.73 a 51.33,51.33 0 0 0 7,-0.47 c 2.63,-0.46 14.12,-3.71 14.49,-1.62 0.37,2.09 0.38,2.55 -4.14,8.12 -4.52,5.57 -10.73,6 -14.12,7.2 -3.39,1.2 -5.3,2.04 -10.59,3.71 -5.29,1.67 -6.4,-9.28 -6.4,-12.77 0,-3.49 13.76,-4.17 13.76,-4.17 z"
       style="fill:#ffffff;stroke:#263238;stroke-linecap:round;stroke-linejoin:round"
       id="path387" />
    <path
       d="m 154.69,357.77 c 0,0 11.51,66.75 14.64,74.69 3.13,7.94 5,11.79 5,11.79 0,0 1.68,1.2 7,-1.21 5.32,-2.41 11.31,-7.69 11.31,-7.69 0,0 -1,-3.37 -2.65,-4.57 -1.65,-1.2 -5.29,-0.72 -5.29,-3.37 0,-2.65 2.2,-73.73 2.2,-73.73 z"
       style="fill:#263238;stroke:#263238;stroke-linecap:round;stroke-linejoin:round"
       id="path389" />
    <path
       d="m 149.13,435.59 c 0,0 6.25,6.73 7.45,7.93 1.2,1.2 17.56,8.66 16.6,10.59 -0.96,1.93 -21.41,1.68 -25.5,0.48 -2.07,-0.61 -12.26,-5.29 -16.83,-7.46 -4.57,-2.17 6.73,-12.74 6.73,-12.74 z"
       style="fill:#ffffff;stroke:#263238;stroke-linecap:round;stroke-linejoin:round"
       id="path391" />
    <path
       d="m 94.08,322.17 c 0,0 0,0.25 0,0.71 -0.27,4.32 -1.49,27.19 2.21,31.76 4.09,5.05 18.76,6.25 32.22,6.25 13.46,0 50,-3.36 50,-3.36 l -40.92,76.86 13.95,3.36 c 0,0 41.64,-54.25 47.17,-62.18 5.53,-7.93 10.1,-15.88 14,-20.45 3.9,-4.57 8.66,-15.39 7.22,-18.76 -1.44,-3.37 -16.6,-5.05 -34.4,-8.17 -17.8,-3.12 -40.88,-3.37 -40.88,-3.37 0,0 -3.85,2.4 -21.17,2.4 -17.32,0 -29.4,-5.05 -29.4,-5.05 z"
       style="fill:#263238;stroke:#263238;stroke-linecap:round;stroke-linejoin:round"
       id="path393" />
    <path
       d="m 178.5,357.53 c 0,0 20.2,-2.17 26.7,-6.26"
       style="fill:none;stroke:#7a7a7a;stroke-linecap:round;stroke-linejoin:round"
       id="path395" />
    <path
       d="m 209.28,354.16 a 157.24,157.24 0 0 1 -28.13,24.29"
       style="fill:none;stroke:#7a7a7a;stroke-linecap:round;stroke-linejoin:round"
       id="path397" />
    <path
       d="m 132.56,330.35 c 0,0 -10.1,9.38 -18,14.43"
       style="fill:none;stroke:#263238;stroke-linecap:round;stroke-linejoin:round"
       id="path399" />
    <path
       d="m 135.93,329.39 c 0,0 -5.53,9.14 -9.62,14.91"
       style="fill:none;stroke:#263238;stroke-linecap:round;stroke-linejoin:round"
       id="path401" />
    <path
       d="m 132.8,221.16 c 0,0 -14.91,9.62 -23.08,22.61 -8.17,12.99 -9.87,28.14 -10.59,30.06 -0.72,1.92 -4.33,34.39 -4.33,34.39 0,0 -5.47,8.57 -2.4,13.47 2.4,3.85 0.72,3.85 7,5.29 2.35,0.54 21.89,3.85 33.67,2.41 11.78,-1.44 15.64,-6.49 16.84,-9.86 1.2,-3.37 0.48,-10.34 1.2,-14.43 0.72,-4.09 10.34,-19.48 10.34,-19.48 0,0 11.31,8.17 13.23,8.9 1.92,0.73 7,-3.13 12.51,-10.59 5.51,-7.46 4.09,-7.45 1.44,-11.06 -2.65,-3.61 -10.82,-18.52 -12.75,-23.09 -1.93,-4.57 -7.45,-7.69 -7.45,-7.69 0,0 -21.92,-21.41 -35.63,-20.93 z"
       style="fill:#ffffff;stroke:#263238;stroke-linecap:round;stroke-linejoin:round"
       id="path403" />
    <path
       d="m 130.16,222.6 c 0,0 5.29,-0.48 13,3.13 7.71,3.61 25.25,16.36 25.25,16.36 L 167,231 c 0,0 -21.89,-13.47 -24.78,-14.67 -2.89,-1.2 -4.81,0 -7.93,2.89 a 25.08,25.08 0 0 1 -4.13,3.38 z"
       style="fill:#ffffff;stroke:#263238;stroke-linecap:round;stroke-linejoin:round"
       id="path405" />
    <line
       x1="161.42"
       y1="285.62"
       x2="145.78999"
       y2="272.14999"
       style="fill:none;stroke:#263238;stroke-linecap:round;stroke-linejoin:round"
       id="line407" />
    <path
       d="m 154.21,280.09 c 0,0 -11.79,3.12 -18.28,3.12"
       style="fill:none;stroke:#263238;stroke-linecap:round;stroke-linejoin:round"
       id="path409" />
    <path
       d="m 155.65,280.09 c 0,0 -7.93,8.41 -16.11,13"
       style="fill:none;stroke:#263238;stroke-linecap:round;stroke-linejoin:round"
       id="path411" />
    <path
       d="m 109.76,324.51 c 0,0 2.41,-9.45 -0.74,-10.93 -3.15,-1.48 -23.9,0.37 -35.94,4.08 -12.04,3.71 -16.67,11.67 -15.37,11.67 1.3,0 43.35,-7.6 52.05,-4.82 z"
       style="fill:#ffffff;stroke:#263238;stroke-linecap:round;stroke-linejoin:round"
       id="path413" />
    <path
       d="m 110.36,315.48 c -7.7,0 -21.72,1.79 -30.79,4.58 a 30.49,30.49 0 0 0 -13.41,8 c 13.06,-2 37.24,-5.55 43.6,-3.52 0,-0.03 1.48,-5.84 0.6,-9.06 z"
       style="fill:#ffffff;stroke:#263238;stroke-linecap:round;stroke-linejoin:round"
       id="path415" />
    <path
       d="m 63.63,326.73 c 0,0 -13.52,2.41 -14.45,9.08 -0.93,6.67 8.53,7.78 13.53,2 5,-5.78 24.64,-10.93 32.6,-11.12 7.96,-0.19 8.71,1.49 8.15,6.67 -0.56,5.18 -15.37,26.68 -17,32.05 -1.63,5.37 7.41,10 10.19,5.93 2.78,-4.07 11.67,-30.38 12,-39.27 0.33,-8.89 -1.85,-9.82 -8.71,-10.56 -6.86,-0.74 -27.41,1.89 -36.31,5.22 z"
       style="fill:#a1a1a1;stroke:#263238;stroke-linecap:round;stroke-linejoin:round"
       id="path417" />
    <path
       d="m 65.86,326.73 c 0,0 -13.53,2.41 -14.45,9.08 -0.92,6.67 8.52,7.78 13.52,2 5,-5.78 24.64,-10.93 32.61,-11.12 7.97,-0.19 8.7,1.49 8.15,6.67 -0.55,5.18 -15.38,26.68 -17,32.05 -1.62,5.37 7.41,10 10.19,5.93 2.78,-4.07 11.67,-30.38 12,-39.27 0.33,-8.89 -1.85,-9.82 -8.7,-10.56 -6.85,-0.74 -27.43,1.89 -36.32,5.22 z"
       style="fill:#525252;stroke:#263238;stroke-linecap:round;stroke-linejoin:round"
       id="path419" />
    <path
       d="m 118.9,412.88 c 0,0 -37.42,8.89 -49.65,17 -12.23,8.11 -12.25,15.6 -12.25,15.6 0,0 0,2.6 5.18,0 5.18,-2.6 7.41,-9.26 14.08,-11.85 6.67,-2.59 41.48,-8.91 41.48,-8.91 z"
       style="fill:#263238;stroke:#263238;stroke-linecap:round;stroke-linejoin:round"
       id="path421" />
    <path
       d="M 70,449.11 A 5.92,5.92 0 1 0 64.05,455 5.92,5.92 0 0 0 70,449.11 Z"
       style="fill:#263238;stroke:#263238;stroke-linecap:round;stroke-linejoin:round"
       id="path423" />
    <circle
       cx="64.050003"
       cy="449.10999"
       r="2.48"
       style="fill:#ffffff;stroke:#263238;stroke-linecap:round;stroke-linejoin:round"
       id="circle425" />
    <path
       d="m 126.67,412.88 c 0,0 37.42,8.89 49.65,17 12.23,8.11 12.23,15.56 12.23,15.56 0,0 0,2.6 -5.19,0 -5.19,-2.6 -7.41,-9.26 -14.08,-11.85 -6.67,-2.59 -41.48,-8.91 -41.48,-8.91 z"
       style="fill:#263238;stroke:#263238;stroke-linecap:round;stroke-linejoin:round"
       id="path427" />
    <path
       d="m 175.61,449.11 a 5.92,5.92 0 1 1 5.92,5.91 5.92,5.92 0 0 1 -5.92,-5.91 z"
       style="fill:#263238;stroke:#263238;stroke-linecap:round;stroke-linejoin:round"
       id="path429" />
    <path
       d="m 179.05,449.11 a 2.48,2.48 0 1 1 2.48,2.48 2.48,2.48 0 0 1 -2.48,-2.48 z"
       style="fill:#ffffff;stroke:#263238;stroke-linecap:round;stroke-linejoin:round"
       id="path431" />
    <rect
       x="117.77"
       y="384.07999"
       width="11.36"
       height="40.639999"
       style="fill:#263238;stroke:#263238;stroke-linecap:round;stroke-linejoin:round"
       id="rect433" />
    <rect
       x="97.620003"
       y="375.39001"
       width="54.790001"
       height="8.6099997"
       style="fill:#263238;stroke:#263238;stroke-linecap:round;stroke-linejoin:round"
       id="rect435" />
    <path
       d="m 180.78,351.74 c -4.94,-9.38 -14.82,-14.32 -25.2,-9.38 -10.38,4.94 -25.69,12.84 -25.69,12.84 0,0 0,-26.68 -4.44,-39.52 -4.44,-12.84 -9.39,-15.31 -5.45,-25.68 3.94,-10.37 9.92,-9.76 8.4,-25.69 C 127.39,253.61 118,248 118,248 118,248 102.68,237.63 96.75,220.83 90.82,204.03 94.28,200.08 76.5,197.12 58.72,194.16 53.82,208 52.33,224.29 50.84,240.58 35.54,256.89 39,271.22 c 3.46,14.33 8.39,19.27 10.86,26.68 2.47,7.41 13.34,69.16 15.32,73.6 1.98,4.44 11.36,5.44 12.84,5.44 h 99.79 c 0,0 7.91,-15.81 2.97,-25.2 z M 62.14,247 a 4.37,4.37 0 0 1 -2.79,-7.73 l 6.75,-5.61 4.7,-0.49 1.29,13.83 z m 26.35,0 h -10 l -2,-13.83 4.83,0.49 8.07,5.61 a 5.85,5.85 0 0 1 2.38,3.36 3.35,3.35 0 0 1 -3.28,4.37 z"
       style="fill:#a61c3c;stroke:#263238;stroke-linecap:round;stroke-linejoin:round"
       id="path437" />
    <path
       d="m 114.36,376.94 c 1,-17.18 -2.69,-50.56 -9.67,-82.09 -7.34,-33.19 -3.39,-57.4 -2.28,-63 -0.27,-0.4 -0.54,-0.81 -0.8,-1.23 H 51.13 c -1.58,5.7 -4.34,11.36 -6.88,16.91 0,2.34 0.07,4.89 0.25,7.64 1,15.47 4.71,40.69 4.71,40.69 0,0 0,0.18 0.1,0.51 0.19,0.5 0.38,1 0.55,1.53 2.47,7.41 13.34,69.16 15.32,73.6 1.98,4.44 11.36,5.44 12.84,5.44 z M 62.14,247 a 4.37,4.37 0 0 1 -2.79,-7.73 l 6.75,-5.61 4.7,-0.49 1.29,13.83 z m 19.24,-13.34 8.07,5.61 a 5.85,5.85 0 0 1 2.38,3.36 3.35,3.35 0 0 1 -3.34,4.37 h -10 l -2,-13.83 z"
       style="fill:#263238;stroke:#263238;stroke-linecap:round;stroke-linejoin:round"
       id="path439" />
    <rect
       x="64.68"
       y="344.62"
       width="34.639999"
       height="3.7"
       style="fill:#525252;stroke:#263238;stroke-linecap:round;stroke-linejoin:round"
       id="rect441" />
    <polygon
       points="87.92,376.49 81.5,348.27 77.02,348.27 83.44,376.49 "
       style="fill:#525252;stroke:#263238;stroke-linecap:round;stroke-linejoin:round"
       id="polygon443" />
    <circle
       cx="91.940002"
       cy="380.70999"
       r="9.1599998"
       style="fill:#525252;stroke:#263238;stroke-linecap:round;stroke-linejoin:round"
       id="circle445" />
    <circle
       cx="95.599998"
       cy="380.70999"
       r="6.23"
       style="fill:#263238;stroke:#263238;stroke-linecap:round;stroke-linejoin:round"
       id="circle447" />
    <polygon
       points="120.11,433.46 121.83,437.85 121.83,447.39 124.31,447.39 124.31,437.85 126.03,433.46 126.03,412.09 120.11,412.09 "
       style="fill:#263238;stroke:#263238;stroke-linecap:round;stroke-linejoin:round"
       id="polygon449" />
    <path
       d="m 123.07,455.21 v 0 a 1.91,1.91 0 0 1 -1.91,-1.91 v -8.2 a 1.92,1.92 0 0 1 1.91,-1.91 v 0 a 1.92,1.92 0 0 1 1.93,1.91 v 8.2 a 1.91,1.91 0 0 1 -1.93,1.91 z"
       style="fill:#263238;stroke:#263238;stroke-linecap:round;stroke-linejoin:round"
       id="path451" />
    <path
       d="m 177.44,324.51 c 0,0 2.41,-7.22 -0.74,-8.71 -3.15,-1.49 -23.9,-1.85 -35.94,1.86 -12.04,3.71 -16.67,11.67 -15.37,11.67 1.3,0 43.35,-7.6 52.05,-4.82 z"
       style="fill:#a1a1a1;stroke:#263238;stroke-linecap:round;stroke-linejoin:round"
       id="path453" />
    <path
       d="m 144.45,318.62 c -8.72,2.68 -13.56,7.6 -15.06,10.11 10.94,-1.74 40.86,-6.51 48.05,-4.22 0,0 2.15,-6.46 -0.28,-8.41 -7.06,-0.82 -22.82,-0.53 -32.71,2.52 z"
       style="fill:#525252;stroke:#263238;stroke-linecap:round;stroke-linejoin:round"
       id="path455" />
    <path
       d="m 131.31,326.73 c 0,0 -13.52,2.41 -14.45,9.08 -0.93,6.67 8.53,7.78 13.53,2 5,-5.78 24.61,-10.89 32.61,-11.08 8,-0.19 8.71,1.49 8.15,6.67 -0.56,5.18 -15.37,26.68 -17,32.05 -1.63,5.37 7.41,10 10.19,5.93 2.78,-4.07 11.67,-30.38 12,-39.27 0.33,-8.89 -1.85,-9.82 -8.71,-10.56 -6.86,-0.74 -27.42,1.85 -36.32,5.18 z"
       style="fill:#a1a1a1;stroke:#263238;stroke-linecap:round;stroke-linejoin:round"
       id="path457" />
    <path
       d="m 133.54,326.73 c 0,0 -13.53,2.41 -14.45,9.08 -0.92,6.67 8.52,7.78 13.52,2 5,-5.78 24.64,-10.93 32.61,-11.12 7.97,-0.19 8.7,1.49 8.15,6.67 -0.55,5.18 -15.37,26.72 -17.05,32.09 -1.68,5.37 7.41,10 10.19,5.93 2.78,-4.07 11.67,-30.38 12,-39.27 0.33,-8.89 -1.85,-9.82 -8.7,-10.56 -6.85,-0.74 -27.38,1.85 -36.27,5.18 z"
       style="fill:#525252;stroke:#263238;stroke-linecap:round;stroke-linejoin:round"
       id="path459" />
  </g>
</svg>
