<?xml version="1.0" encoding="UTF-8" standalone="no"?>
<svg
   viewBox="0 0 449.64383 466.31445"
   version="1.1"
   id="svg223"
   sodipodi:docname="kpl-nous-methode.svg"
   width="449.64383"
   height="466.31445"
   inkscape:version="1.1 (c68e22c387, 2021-05-23)"
   xmlns:inkscape="http://www.inkscape.org/namespaces/inkscape"
   xmlns:sodipodi="http://sodipodi.sourceforge.net/DTD/sodipodi-0.dtd"
   xmlns="http://www.w3.org/2000/svg"
   xmlns:svg="http://www.w3.org/2000/svg">
  <defs
     id="defs227" />
  <sodipodi:namedview
     id="namedview225"
     pagecolor="#ffffff"
     bordercolor="#666666"
     borderopacity="1.0"
     inkscape:pageshadow="2"
     inkscape:pageopacity="0.0"
     inkscape:pagecheckerboard="0"
     showgrid="false"
     inkscape:zoom="1.244"
     inkscape:cx="217.84566"
     inkscape:cy="239.54984"
     inkscape:window-width="1368"
     inkscape:window-height="850"
     inkscape:window-x="-6"
     inkscape:window-y="-6"
     inkscape:window-maximized="1"
     inkscape:current-layer="svg223" />
  <g
     id="freepik--background-simple--inject-25"
     transform="translate(-32.284814,-10.83)">
    <path
       d="m 465.32,267.67 c 4.34,-30.18 0.73,-61.54 -10.74,-92.65 C 434.51,120.63 393.75,71.68 340.74,47 A 166.59,166.59 0 0 0 272.65,31 c -42,-0.51 -77.49,17.32 -107,45.89 -23.09,22.33 -44.74,47.32 -73.12,63.19 -26.87,15 -51.28,35.67 -58.49,67.48 -6.38,28.16 5.29,57.32 24.37,78.1 12.45,13.56 28.88,22.67 41.44,36.09 16.83,18 14.68,34.36 16.08,57.43 2.93,48.2 45.3,81.44 89.14,92.84 54.66,14.21 105.86,-6.18 146.89,-42.65 26.52,-23.57 53.77,-47.1 75.68,-75.17 20.75,-26.62 33.29,-55.97 37.68,-86.53 z"
       style="fill:#a61c3c"
       id="path2" />
    <path
       d="m 465.32,267.67 c 4.34,-30.18 0.73,-61.54 -10.74,-92.65 C 434.51,120.63 393.75,71.68 340.74,47 A 166.59,166.59 0 0 0 272.65,31 c -42,-0.51 -77.49,17.32 -107,45.89 -23.09,22.33 -44.74,47.32 -73.12,63.19 -26.87,15 -51.28,35.67 -58.49,67.48 -6.38,28.16 5.29,57.32 24.37,78.1 12.45,13.56 28.88,22.67 41.44,36.09 16.83,18 14.68,34.36 16.08,57.43 2.93,48.2 45.3,81.44 89.14,92.84 54.66,14.21 105.86,-6.18 146.89,-42.65 26.52,-23.57 53.77,-47.1 75.68,-75.17 20.75,-26.62 33.29,-55.97 37.68,-86.53 z"
       style="opacity:0.7;fill:#ffffff"
       id="path4" />
  </g>
  <g
     id="freepik--Plants--inject-25"
     transform="translate(-32.284814,-10.83)">
    <path
       d="m 293.33,402.77 c 2.27,1 7.84,0.87 7.85,0.87 0.01,0 -1.2,-3.64 -1.31,-3.86 -1.22,-2.56 -5.08,-6.78 -8.23,-6.35 a 3.75,3.75 0 0 0 -3,4.7 c 0.51,2.18 2.75,3.8 4.69,4.64 z"
       style="fill:#a3a3a3"
       id="path7" />
    <path
       d="m 295.25,418.9 c 2.36,0.35 7.33,-1.09 7.72,-1.21 a 67.5,67.5 0 0 0 3,8.34 c 0.68,1.58 1.42,3.15 2.18,4.72 -0.45,-0.66 -0.86,-1.25 -0.93,-1.33 -1.85,-2.14 -6.7,-5.19 -9.61,-3.95 A 3.75,3.75 0 0 0 296,430.8 c 1.08,2 3.66,2.94 5.76,3.24 2.1,0.3 6.38,-0.83 7.51,-1.15 0.29,0.6 0.58,1.2 0.88,1.79 1.44,2.87 2.89,5.72 4.23,8.56 0.47,1 0.89,2 1.33,3 -0.41,-0.59 -0.75,-1.08 -0.81,-1.15 -1.86,-2.14 -6.7,-5.19 -9.62,-4 a 3.75,3.75 0 0 0 -1.66,5.33 c 1.08,2 3.66,2.93 5.75,3.24 2.09,0.31 6,-0.73 7.31,-1.1 0.41,1 0.82,2.08 1.17,3.11 0.23,0.71 0.49,1.37 0.68,2.09 0.19,0.72 0.39,1.42 0.59,2.11 0.32,1.36 0.67,2.75 0.95,4.08 0.2,0.93 0.38,1.81 0.56,2.7 -0.45,-1 -1.39,-2.94 -1.49,-3.1 -1.5,-2.4 -5.83,-6.14 -8.9,-5.36 a 3.75,3.75 0 0 0 -2.45,5 c 0.77,2.1 3.17,3.45 5.19,4.07 2.23,0.68 7.16,0.06 7.78,0 0.3,1.47 0.57,2.91 0.81,4.27 0.52,3 0.92,5.69 1.23,8 h 2.08 c -0.37,-2.35 -0.84,-5.16 -1.47,-8.31 -0.29,-1.49 -0.63,-3.09 -1,-4.72 a 41.65,41.65 0 0 0 4.33,-2 c 1.63,1.76 5.79,3.81 6.33,4.08 -0.57,1.39 -1.13,2.74 -1.69,4 -1.15,2.65 -2.24,5 -3.2,7 h 2.24 c 0.83,-1.84 1.75,-3.93 2.7,-6.26 0.58,-1.41 1.17,-2.93 1.76,-4.5 0.6,0.13 5.48,1.12 7.76,0.61 2.06,-0.47 4.56,-1.64 5.48,-3.68 a 3.75,3.75 0 0 0 -2.07,-5.19 c -3,-1 -7.59,2.41 -9.28,4.69 -0.1,0.13 -1,1.71 -1.57,2.72 0.24,-0.64 0.48,-1.26 0.72,-1.93 0.48,-1.3 0.92,-2.62 1.4,-4 q 0.3,-1 0.63,-2.1 c 0.22,-0.7 0.37,-1.46 0.56,-2.2 0.41,-1.72 0.74,-3.48 1,-5.26 1.15,0.42 5.24,1.85 7.36,1.7 2.12,-0.15 4.76,-0.93 6,-2.8 a 3.76,3.76 0 0 0 -1.26,-5.45 c -2.82,-1.45 -7.87,1.23 -9.88,3.23 -0.13,0.12 -1.4,1.72 -2.09,2.61 0.17,-1.07 0.34,-2.14 0.48,-3.23 0.39,-3.15 0.68,-6.34 1,-9.53 0.1,-1 0.21,-1.95 0.31,-2.92 0.4,0.15 5.23,2 7.61,1.78 2.11,-0.14 4.76,-0.92 6,-2.8 a 3.76,3.76 0 0 0 -1.26,-5.44 c -2.82,-1.45 -7.88,1.23 -9.89,3.23 -0.15,0.15 -2,2.44 -2.42,3 0.22,-2.14 0.47,-4.27 0.8,-6.37 A 64.59,64.59 0 0 1 344,417.1 c 0.19,0.07 5.22,2 7.66,1.8 2.11,-0.15 4.75,-0.93 6,-2.81 a 3.75,3.75 0 0 0 -1.27,-5.44 c -2.82,-1.45 -7.87,1.23 -9.88,3.23 -0.15,0.15 -2.13,2.63 -2.46,3.1 0.05,-0.16 0.08,-0.33 0.13,-0.49 a 48,48 0 0 1 3.32,-7.92 c 0.72,-1.41 1.49,-2.72 2.27,-4 0.9,0.45 5,2.46 7.24,2.55 2.24,0.09 4.83,-0.4 6.25,-2.13 a 3.76,3.76 0 0 0 -0.65,-5.55 c -2.65,-1.75 -8,0.36 -10.18,2.12 -0.12,0.1 -1.24,1.21 -2,2 0.36,-0.56 0.72,-1.15 1.08,-1.68 1.32,-2 2.66,-3.74 3.86,-5.28 0.69,-0.87 1.33,-1.65 1.93,-2.36 1.12,0 5.6,-0.16 7.57,-1.08 1.97,-0.92 4.1,-2.58 4.57,-4.77 a 3.76,3.76 0 0 0 -3.14,-4.62 c -3.16,-0.34 -6.91,4 -8.06,6.57 -0.1,0.23 -1.25,3.9 -1.19,3.9 h 0.06 c -0.59,0.68 -1.23,1.41 -1.9,2.23 -1.24,1.51 -2.62,3.24 -4,5.21 a 69.55,69.55 0 0 0 -4.14,6.59 49,49 0 0 0 -3.53,8 v 0.1 c 0,-0.93 0,-3.53 -0.05,-3.73 -0.36,-2.81 -2.72,-8 -5.84,-8.6 a 3.76,3.76 0 0 0 -4.33,3.53 c -0.18,2.23 1.44,4.47 3,5.88 1.77,1.59 6.71,3.13 7.11,3.25 a 67.22,67.22 0 0 0 -2.09,8.61 c -0.3,1.7 -0.55,3.42 -0.79,5.15 0,-0.81 0,-1.53 0,-1.63 -0.36,-2.81 -2.72,-8 -5.83,-8.6 a 3.76,3.76 0 0 0 -4.33,3.54 c -0.19,2.23 1.43,4.46 3,5.87 1.57,1.41 5.78,2.83 6.9,3.18 -0.08,0.67 -0.17,1.33 -0.25,2 -0.38,3.18 -0.75,6.36 -1.2,9.47 -0.16,1.09 -0.36,2.17 -0.55,3.24 0,-0.71 0,-1.31 0,-1.41 -0.37,-2.81 -2.72,-8 -5.84,-8.6 a 3.76,3.76 0 0 0 -4.33,3.54 c -0.18,2.23 1.44,4.46 3,5.87 1.56,1.41 5.38,2.69 6.7,3.12 -0.23,1.09 -0.46,2.19 -0.73,3.24 -0.21,0.71 -0.35,1.41 -0.6,2.11 -0.25,0.7 -0.45,1.4 -0.67,2.09 -0.48,1.31 -1,2.66 -1.46,3.93 -0.33,0.88 -0.67,1.72 -1,2.56 0.17,-1.09 0.46,-3.23 0.46,-3.41 a 14.5,14.5 0 0 0 -2,-7.09 4.63,4.63 0 0 0 0,-0.83 3.75,3.75 0 0 0 -4.59,-3.18 c -3.07,0.81 -5,6.19 -5.16,9 0,0.17 0.1,2 0.19,3.14 -0.15,-0.67 -0.3,-1.32 -0.46,-2 -0.32,-1.36 -0.69,-2.7 -1.07,-4.15 q -0.31,-1 -0.63,-2.1 c -0.2,-0.7 -0.5,-1.42 -0.74,-2.14 -0.61,-1.66 -1.31,-3.31 -2,-5 1.19,-0.28 5.38,-1.35 7.07,-2.64 1.69,-1.29 3.46,-3.4 3.44,-5.64 a 3.75,3.75 0 0 0 -4.05,-3.84 c -3.16,0.34 -5.89,5.36 -6.47,8.14 0,0.17 -0.22,2.21 -0.3,3.33 -0.45,-1 -0.89,-2 -1.38,-3 -1.41,-2.84 -2.93,-5.67 -4.43,-8.5 -0.46,-0.86 -0.9,-1.73 -1.36,-2.6 0.43,-0.1 5.45,-1.26 7.34,-2.71 1.67,-1.29 3.45,-3.39 3.44,-5.63 a 3.76,3.76 0 0 0 -4.06,-3.85 c -3.15,0.35 -5.89,5.37 -6.46,8.14 0,0.21 -0.31,3.14 -0.34,3.89 -1,-1.91 -2,-3.82 -2.84,-5.75 a 65.22,65.22 0 0 1 -3.1,-8 c 0.2,0 5.44,-1.23 7.37,-2.72 1.68,-1.29 3.46,-3.39 3.45,-5.63 a 3.77,3.77 0 0 0 -4.06,-3.85 c -3.15,0.35 -5.89,5.37 -6.46,8.14 0,0.22 -0.33,3.38 -0.34,3.95 -0.05,-0.16 -0.12,-0.32 -0.16,-0.47 a 48.23,48.23 0 0 1 -1.61,-8.45 c -0.17,-1.57 -0.26,-3.09 -0.3,-4.56 1,-0.13 5.56,-0.73 7.45,-1.88 1.89,-1.15 3.81,-3 4,-5.22 a 3.76,3.76 0 0 0 -3.61,-4.27 c -3.17,0 -6.44,4.69 -7.32,7.39 -0.05,0.14 -0.36,1.69 -0.58,2.81 0,-0.66 0,-1.35 0,-2 0,-2.4 0.16,-4.6 0.31,-6.54 0.09,-1.1 0.2,-2.1 0.31,-3 0.92,-0.63 4.58,-3.22 5.71,-5.08 1.13,-1.86 2,-4.41 1.18,-6.49 a 3.75,3.75 0 0 0 -5.16,-2.13 c -2.82,1.46 -3.56,7.13 -3.1,9.93 0,0.24 1.11,3.94 1.16,3.91 v 0 c -0.12,0.9 -0.25,1.86 -0.36,2.91 -0.19,1.95 -0.39,4.14 -0.45,6.55 a 66.92,66.92 0 0 0 0.19,7.78 48.31,48.31 0 0 0 1.44,8.59 v 0.09 c -0.5,-0.78 -2,-2.92 -2.1,-3.08 -1.85,-2.14 -6.69,-5.19 -9.61,-3.95 a 3.75,3.75 0 0 0 -1.67,5.33 c 1.03,2.01 3.62,2.98 5.71,3.28 z"
       style="fill:#a3a3a3"
       id="path9" />
    <path
       d="m 349.65,404 c 0.05,0 1,-3.7 1,-3.94 0.39,-2.81 -0.5,-8.46 -3.36,-9.84 a 3.75,3.75 0 0 0 -5.1,2.26 c -0.77,2.11 0.2,4.69 1.35,6.46 1.39,2.06 6.1,5.06 6.11,5.06 z"
       style="fill:#a3a3a3"
       id="path11" />
    <path
       d="m 167.25,426.39 c 1.54,0.67 5.3,0.59 5.3,0.59 0,0 -0.81,-2.46 -0.88,-2.61 -0.82,-1.73 -3.43,-4.58 -5.56,-4.29 a 2.52,2.52 0 0 0 -2,3.17 c 0.32,1.48 1.83,2.57 3.14,3.14 z"
       style="fill:#a3a3a3"
       id="path13" />
    <path
       d="m 168.55,437.29 c 1.59,0.23 4.95,-0.75 5.22,-0.82 a 44.8,44.8 0 0 0 2,5.63 c 0.46,1.07 1,2.13 1.47,3.19 -0.3,-0.45 -0.58,-0.85 -0.62,-0.9 -1.26,-1.45 -4.53,-3.51 -6.5,-2.67 a 2.53,2.53 0 0 0 -1.12,3.6 5.27,5.27 0 0 0 3.89,2.19 16.62,16.62 0 0 0 5.07,-0.78 l 0.6,1.22 c 1,1.93 1.95,3.86 2.85,5.78 0.32,0.68 0.61,1.35 0.9,2 -0.27,-0.4 -0.51,-0.73 -0.55,-0.78 -1.25,-1.45 -4.52,-3.51 -6.49,-2.67 a 2.54,2.54 0 0 0 -1.13,3.6 5.29,5.29 0 0 0 3.89,2.19 16.25,16.25 0 0 0 4.94,-0.74 c 0.27,0.7 0.55,1.41 0.79,2.1 0.15,0.48 0.33,0.93 0.45,1.41 0.12,0.48 0.27,1 0.4,1.43 0.22,0.91 0.45,1.86 0.65,2.76 0.13,0.62 0.25,1.22 0.38,1.82 -0.31,-0.68 -0.94,-2 -1,-2.09 -1,-1.62 -3.94,-4.16 -6,-3.63 a 2.53,2.53 0 0 0 -1.66,3.39 5.31,5.31 0 0 0 3.51,2.76 c 1.51,0.46 4.84,0 5.25,0 0.2,1 0.39,2 0.55,2.88 0.35,2 0.62,3.85 0.83,5.38 h 1.4 c -0.24,-1.59 -0.56,-3.48 -1,-5.61 -0.2,-1 -0.44,-2.09 -0.69,-3.19 a 27.63,27.63 0 0 0 2.94,-1.38 17.94,17.94 0 0 0 4.27,2.75 c -0.39,0.95 -0.77,1.86 -1.14,2.71 -0.78,1.79 -1.52,3.37 -2.17,4.72 h 1.52 c 0.56,-1.24 1.18,-2.66 1.82,-4.23 0.39,-0.95 0.79,-2 1.19,-3 0.41,0.08 3.7,0.75 5.24,0.4 a 5.31,5.31 0 0 0 3.71,-2.48 2.53,2.53 0 0 0 -1.4,-3.5 c -2,-0.69 -5.13,1.62 -6.27,3.16 -0.07,0.09 -0.68,1.16 -1.06,1.84 0.16,-0.44 0.32,-0.85 0.48,-1.3 0.33,-0.89 0.62,-1.78 0.95,-2.73 l 0.42,-1.42 c 0.15,-0.47 0.25,-1 0.38,-1.49 0.28,-1.16 0.5,-2.35 0.7,-3.55 a 16.79,16.79 0 0 0 5,1.14 c 1.43,-0.1 3.22,-0.62 4,-1.89 a 2.53,2.53 0 0 0 -0.85,-3.67 c -1.9,-1 -5.32,0.82 -6.68,2.17 -0.08,0.09 -0.94,1.17 -1.41,1.77 0.12,-0.73 0.23,-1.45 0.32,-2.18 0.27,-2.13 0.47,-4.29 0.68,-6.44 0.06,-0.66 0.13,-1.32 0.2,-2 0.28,0.1 3.54,1.31 5.14,1.2 1.43,-0.1 3.22,-0.62 4,-1.89 a 2.54,2.54 0 0 0 -0.85,-3.68 c -1.9,-1 -5.32,0.83 -6.67,2.18 -0.11,0.1 -1.35,1.66 -1.64,2.07 0.15,-1.45 0.32,-2.89 0.54,-4.31 a 44,44 0 0 1 1.23,-5.66 c 0.13,0.05 3.53,1.34 5.17,1.22 a 5.29,5.29 0 0 0 4,-1.89 2.54,2.54 0 0 0 -0.85,-3.68 c -1.91,-1 -5.32,0.83 -6.68,2.18 -0.1,0.11 -1.44,1.78 -1.66,2.1 0,-0.11 0,-0.22 0.09,-0.33 a 32,32 0 0 1 2.24,-5.36 c 0.49,-0.95 1,-1.83 1.53,-2.68 0.61,0.3 3.4,1.66 4.89,1.72 1.49,0.06 3.27,-0.27 4.23,-1.44 a 2.54,2.54 0 0 0 -0.45,-3.75 c -1.78,-1.18 -5.37,0.24 -6.87,1.44 -0.08,0.06 -0.84,0.81 -1.38,1.37 0.25,-0.38 0.49,-0.78 0.73,-1.14 0.89,-1.35 1.8,-2.53 2.61,-3.57 0.46,-0.59 0.89,-1.11 1.3,-1.59 0.76,0 3.79,-0.11 5.11,-0.73 1.32,-0.62 2.78,-1.74 3.09,-3.22 a 2.53,2.53 0 0 0 -2.12,-3.12 c -2.13,-0.23 -4.66,2.69 -5.44,4.44 -0.07,0.15 -0.85,2.63 -0.81,2.63 v 0 c -0.41,0.46 -0.83,0.95 -1.29,1.5 -0.83,1 -1.77,2.19 -2.7,3.53 a 45.09,45.09 0 0 0 -2.79,4.45 34.2,34.2 0 0 0 -2.39,5.37 0.19,0.19 0 0 1 0,0.07 c 0,-0.63 0,-2.38 0,-2.52 -0.25,-1.9 -1.84,-5.42 -3.94,-5.81 a 2.54,2.54 0 0 0 -2.93,2.39 c -0.12,1.51 1,3 2,4 1,1 4.54,2.11 4.8,2.19 a 46.65,46.65 0 0 0 -1.41,5.82 c -0.2,1.15 -0.37,2.31 -0.53,3.48 0,-0.55 0,-1 0,-1.1 -0.24,-1.9 -1.83,-5.42 -3.94,-5.81 a 2.55,2.55 0 0 0 -2.93,2.39 c -0.12,1.5 1,3 2,4 a 17,17 0 0 0 4.66,2.15 c -0.06,0.44 -0.12,0.89 -0.17,1.34 -0.26,2.15 -0.5,4.3 -0.81,6.39 -0.11,0.74 -0.24,1.47 -0.37,2.19 0,-0.48 0,-0.88 0,-0.95 -0.24,-1.89 -1.83,-5.42 -3.94,-5.81 a 2.54,2.54 0 0 0 -2.93,2.39 5.3,5.3 0 0 0 2,4 16.2,16.2 0 0 0 4.52,2.1 c -0.15,0.74 -0.31,1.48 -0.49,2.19 -0.14,0.48 -0.24,1 -0.4,1.43 -0.16,0.43 -0.31,0.94 -0.46,1.41 -0.32,0.88 -0.65,1.8 -1,2.65 -0.23,0.6 -0.46,1.17 -0.69,1.73 0.12,-0.73 0.31,-2.17 0.32,-2.3 a 10,10 0 0 0 -1.32,-4.79 3.6,3.6 0 0 0 0,-0.56 2.53,2.53 0 0 0 -3.1,-2.15 c -2.07,0.55 -3.38,4.19 -3.48,6.1 0,0.11 0.07,1.34 0.13,2.12 -0.11,-0.45 -0.2,-0.89 -0.32,-1.35 -0.21,-0.92 -0.46,-1.83 -0.72,-2.81 -0.14,-0.46 -0.28,-0.94 -0.43,-1.41 -0.15,-0.47 -0.33,-1 -0.5,-1.45 -0.41,-1.12 -0.88,-2.24 -1.37,-3.35 a 16.42,16.42 0 0 0 4.77,-1.79 c 1.14,-0.87 2.34,-2.29 2.33,-3.8 a 2.54,2.54 0 0 0 -2.74,-2.6 c -2.13,0.23 -4,3.63 -4.37,5.5 0,0.12 -0.15,1.49 -0.2,2.25 -0.3,-0.67 -0.61,-1.33 -0.94,-2 -1,-1.92 -2,-3.83 -3,-5.74 -0.31,-0.58 -0.62,-1.17 -0.92,-1.76 0.29,-0.06 3.68,-0.85 4.95,-1.83 1.27,-0.98 2.34,-2.29 2.33,-3.8 a 2.54,2.54 0 0 0 -2.74,-2.6 c -2.13,0.23 -4,3.62 -4.37,5.5 0,0.14 -0.21,2.12 -0.23,2.63 -0.67,-1.3 -1.32,-2.59 -1.92,-3.89 a 46.13,46.13 0 0 1 -2.09,-5.4 c 0.13,0 3.67,-0.84 5,-1.84 1.13,-0.87 2.34,-2.29 2.33,-3.81 a 2.53,2.53 0 0 0 -2.74,-2.59 c -2.13,0.23 -4,3.62 -4.37,5.5 0,0.14 -0.22,2.27 -0.23,2.66 0,-0.1 -0.08,-0.21 -0.11,-0.32 a 32.58,32.58 0 0 1 -1.08,-5.7 c -0.12,-1.07 -0.18,-2.09 -0.21,-3.09 0.68,-0.08 3.76,-0.49 5,-1.26 1.24,-0.77 2.58,-2 2.73,-3.53 a 2.53,2.53 0 0 0 -2.43,-2.88 c -2.15,0 -4.36,3.17 -4.95,5 0,0.09 -0.24,1.14 -0.39,1.9 0,-0.45 0,-0.92 0,-1.35 0,-1.62 0.11,-3.1 0.21,-4.42 0.06,-0.74 0.13,-1.42 0.21,-2 a 16.73,16.73 0 0 0 3.86,-3.42 c 0.74,-1.22 1.35,-3 0.8,-4.39 a 2.54,2.54 0 0 0 -3.5,-1.43 c -1.9,1 -2.4,4.81 -2.09,6.7 0,0.16 0.75,2.66 0.78,2.64 v 0 c -0.08,0.6 -0.17,1.25 -0.24,2 -0.13,1.31 -0.27,2.8 -0.3,4.43 a 42.85,42.85 0 0 0 0.12,5.25 34.26,34.26 0 0 0 1,5.8 v 0.07 c -0.34,-0.53 -1.33,-2 -1.42,-2.08 -1.26,-1.45 -4.52,-3.51 -6.5,-2.67 a 2.53,2.53 0 0 0 -1.12,3.6 c 0.94,1.12 2.68,1.78 4.1,1.99 z"
       style="fill:#a3a3a3"
       id="path15" />
    <path
       d="m 205.29,427.22 c 0,0 0.69,-2.5 0.71,-2.67 0.26,-1.89 -0.34,-5.71 -2.27,-6.64 a 2.54,2.54 0 0 0 -3.45,1.53 c -0.52,1.42 0.14,3.16 0.91,4.36 0.92,1.41 4.1,3.42 4.1,3.42 z"
       style="fill:#a3a3a3"
       id="path17" />
    <path
       d="m 427.56,423.61 c 1.63,0.71 5.6,0.62 5.61,0.62 0.01,0 -0.86,-2.6 -0.93,-2.75 -0.88,-1.83 -3.63,-4.84 -5.88,-4.54 a 2.69,2.69 0 0 0 -2.15,3.36 c 0.38,1.55 1.97,2.7 3.35,3.31 z"
       style="fill:#a3a3a3"
       id="path19" />
    <path
       d="m 428.94,435.12 c 1.68,0.25 5.23,-0.78 5.51,-0.86 a 46.77,46.77 0 0 0 2.15,5.95 c 0.49,1.13 1,2.25 1.56,3.37 -0.33,-0.47 -0.62,-0.89 -0.67,-0.95 -1.32,-1.53 -4.77,-3.7 -6.86,-2.82 a 2.69,2.69 0 0 0 -1.19,3.81 c 0.77,1.4 2.62,2.09 4.11,2.31 1.49,0.22 4.56,-0.6 5.36,-0.82 l 0.63,1.28 c 1,2 2.06,4.08 3,6.11 0.33,0.71 0.64,1.43 0.95,2.14 l -0.58,-0.82 c -1.32,-1.53 -4.78,-3.71 -6.86,-2.82 a 2.69,2.69 0 0 0 -1.19,3.81 c 0.77,1.4 2.61,2.09 4.11,2.31 a 16.93,16.93 0 0 0 5.21,-0.79 c 0.3,0.75 0.59,1.49 0.84,2.22 0.16,0.51 0.35,1 0.48,1.49 l 0.42,1.51 c 0.23,1 0.48,2 0.68,2.91 0.15,0.66 0.27,1.29 0.4,1.93 -0.32,-0.72 -1,-2.1 -1.06,-2.21 -1.08,-1.71 -4.16,-4.39 -6.35,-3.83 a 2.67,2.67 0 0 0 -1.75,3.58 c 0.54,1.5 2.26,2.47 3.71,2.91 1.45,0.44 5.1,0 5.54,0 0.22,1.05 0.41,2.08 0.58,3.05 0.38,2.14 0.66,4.06 0.88,5.68 h 1.48 c -0.26,-1.68 -0.6,-3.68 -1,-5.93 -0.21,-1.07 -0.46,-2.2 -0.72,-3.37 a 27.62,27.62 0 0 0 3.09,-1.46 19.13,19.13 0 0 0 4.52,2.91 c -0.41,1 -0.81,2 -1.2,2.86 -0.83,1.89 -1.61,3.57 -2.29,5 H 454 c 0.59,-1.31 1.24,-2.81 1.92,-4.46 0.42,-1 0.84,-2.1 1.26,-3.21 0.43,0.08 3.91,0.79 5.54,0.43 1.47,-0.34 3.25,-1.17 3.91,-2.63 a 2.67,2.67 0 0 0 -1.48,-3.7 c -2.14,-0.72 -5.42,1.72 -6.62,3.34 -0.07,0.1 -0.72,1.23 -1.12,1.94 0.17,-0.45 0.34,-0.9 0.51,-1.37 0.34,-0.93 0.66,-1.87 1,-2.89 l 0.45,-1.49 c 0.16,-0.5 0.26,-1.05 0.4,-1.57 0.29,-1.23 0.53,-2.48 0.74,-3.75 0.82,0.29 3.74,1.31 5.25,1.2 1.51,-0.11 3.4,-0.66 4.27,-2 a 2.68,2.68 0 0 0 -0.9,-3.88 c -2,-1 -5.62,0.88 -7.05,2.3 -0.09,0.09 -1,1.23 -1.5,1.86 0.12,-0.76 0.25,-1.52 0.34,-2.3 0.28,-2.24 0.5,-4.53 0.72,-6.8 0.06,-0.7 0.14,-1.39 0.21,-2.08 0.29,0.1 3.74,1.39 5.43,1.27 1.51,-0.11 3.4,-0.66 4.27,-2 a 2.67,2.67 0 0 0 -0.9,-3.88 c -2,-1 -5.62,0.87 -7.05,2.3 -0.11,0.1 -1.42,1.75 -1.73,2.18 0.16,-1.53 0.33,-3.05 0.57,-4.55 a 47.28,47.28 0 0 1 1.3,-6 c 0.14,0.06 3.73,1.41 5.46,1.29 1.51,-0.11 3.4,-0.66 4.27,-2 a 2.68,2.68 0 0 0 -0.9,-3.88 c -2,-1 -5.62,0.87 -7.05,2.3 -0.11,0.11 -1.52,1.88 -1.76,2.21 0,-0.11 0.06,-0.23 0.09,-0.34 a 34.09,34.09 0 0 1 2.37,-5.66 c 0.52,-1 1.07,-1.94 1.62,-2.84 0.64,0.32 3.6,1.76 5.17,1.82 1.57,0.06 3.45,-0.28 4.46,-1.52 a 2.68,2.68 0 0 0 -0.47,-4 c -1.88,-1.25 -5.68,0.25 -7.26,1.51 l -1.45,1.45 c 0.25,-0.4 0.51,-0.82 0.76,-1.2 0.95,-1.42 1.9,-2.67 2.76,-3.77 0.49,-0.62 0.95,-1.17 1.38,-1.68 0.79,0 4,-0.11 5.4,-0.77 1.4,-0.66 2.93,-1.84 3.26,-3.4 a 2.68,2.68 0 0 0 -2.24,-3.3 c -2.25,-0.24 -4.93,2.84 -5.75,4.69 -0.07,0.16 -0.9,2.78 -0.85,2.78 v 0 q -0.63,0.72 -1.35,1.59 c -0.89,1.08 -1.87,2.31 -2.85,3.72 a 46.45,46.45 0 0 0 -2.95,4.7 34.63,34.63 0 0 0 -2.53,5.68 0.19,0.19 0 0 1 0,0.07 c 0,-0.66 0,-2.52 0,-2.66 -0.26,-2 -1.94,-5.72 -4.17,-6.14 a 2.69,2.69 0 0 0 -3.09,2.52 c -0.13,1.6 1,3.19 2.15,4.2 1.15,1.01 4.8,2.23 5.08,2.32 a 46,46 0 0 0 -1.49,6.15 c -0.22,1.21 -0.4,2.44 -0.56,3.67 0,-0.58 0,-1.09 0,-1.16 -0.26,-2 -1.94,-5.73 -4.17,-6.14 A 2.69,2.69 0 0 0 454,438.6 c -0.13,1.59 1,3.19 2.15,4.19 1.15,1 4.13,2 4.93,2.28 -0.06,0.47 -0.13,0.94 -0.18,1.41 -0.27,2.28 -0.54,4.54 -0.86,6.76 -0.11,0.78 -0.25,1.55 -0.39,2.31 0,-0.5 0,-0.93 0,-1 -0.26,-2 -1.94,-5.72 -4.17,-6.14 a 2.69,2.69 0 0 0 -3.09,2.52 c -0.13,1.6 1,3.19 2.15,4.2 a 17,17 0 0 0 4.78,2.22 c -0.16,0.78 -0.32,1.56 -0.52,2.31 -0.14,0.51 -0.25,1 -0.42,1.51 l -0.48,1.49 c -0.34,0.94 -0.69,1.9 -1,2.81 -0.24,0.63 -0.49,1.22 -0.73,1.82 0.12,-0.77 0.33,-2.3 0.33,-2.43 a 10.42,10.42 0 0 0 -1.5,-5.06 3.9,3.9 0 0 0 0,-0.59 2.67,2.67 0 0 0 -3.27,-2.27 c -2.19,0.58 -3.58,4.42 -3.68,6.44 0,0.12 0.07,1.42 0.13,2.24 -0.11,-0.48 -0.21,-0.94 -0.33,-1.43 -0.23,-1 -0.49,-1.93 -0.76,-3 -0.15,-0.5 -0.3,-1 -0.45,-1.5 -0.15,-0.5 -0.36,-1 -0.53,-1.53 -0.43,-1.18 -0.93,-2.36 -1.46,-3.53 0.85,-0.21 3.85,-1 5.05,-1.9 1.2,-0.9 2.47,-2.42 2.46,-4 a 2.68,2.68 0 0 0 -2.9,-2.74 c -2.25,0.25 -4.2,3.83 -4.61,5.81 0,0.12 -0.16,1.58 -0.21,2.38 -0.33,-0.71 -0.64,-1.41 -1,-2.11 -1,-2 -2.09,-4 -3.16,-6.07 l -1,-1.85 c 0.3,-0.07 3.89,-0.91 5.23,-1.94 1.34,-1.03 2.47,-2.42 2.46,-4 a 2.67,2.67 0 0 0 -2.89,-2.74 c -2.25,0.24 -4.21,3.83 -4.62,5.81 0,0.15 -0.22,2.24 -0.24,2.77 -0.71,-1.36 -1.4,-2.73 -2,-4.1 a 47.9,47.9 0 0 1 -2.21,-5.71 c 0.14,0 3.88,-0.88 5.26,-1.94 1.2,-0.92 2.47,-2.42 2.46,-4 a 2.68,2.68 0 0 0 -2.89,-2.75 c -2.25,0.25 -4.21,3.83 -4.61,5.81 0,0.16 -0.24,2.41 -0.25,2.82 0,-0.11 -0.08,-0.23 -0.11,-0.34 a 33.62,33.62 0 0 1 -1.15,-6 c -0.13,-1.12 -0.18,-2.2 -0.22,-3.25 0.72,-0.09 4,-0.52 5.32,-1.34 1.32,-0.82 2.72,-2.14 2.88,-3.73 a 2.67,2.67 0 0 0 -2.57,-3 c -2.26,0 -4.6,3.34 -5.22,5.27 0,0.1 -0.26,1.2 -0.42,2 0,-0.48 0,-1 0,-1.43 0,-1.71 0.11,-3.28 0.22,-4.66 0.07,-0.79 0.14,-1.5 0.22,-2.17 0.66,-0.45 3.27,-2.3 4.08,-3.62 0.81,-1.32 1.43,-3.15 0.84,-4.63 a 2.68,2.68 0 0 0 -3.69,-1.52 c -2,1 -2.54,5.09 -2.2,7.08 0,0.17 0.78,2.82 0.82,2.8 v 0 c -0.09,0.64 -0.18,1.32 -0.26,2.07 -0.14,1.39 -0.28,3 -0.32,4.68 a 50.32,50.32 0 0 0 0.13,5.55 35.36,35.36 0 0 0 1,6.13 v 0.07 c -0.36,-0.56 -1.41,-2.09 -1.5,-2.2 -1.33,-1.53 -4.78,-3.71 -6.86,-2.82 a 2.67,2.67 0 0 0 -1.19,3.8 c 0.82,1.29 2.66,1.99 4.16,2.2 z"
       style="fill:#a3a3a3"
       id="path21" />
    <path
       d="m 467.76,424.49 c 0,0 0.72,-2.64 0.74,-2.82 0.28,-2 -0.36,-6 -2.39,-7 a 2.69,2.69 0 0 0 -3.65,1.62 c -0.55,1.5 0.15,3.34 1,4.61 0.93,1.47 4.29,3.59 4.3,3.59 z"
       style="fill:#a3a3a3"
       id="path23" />
  </g>
  <g
     id="freepik--Triangle--inject-25"
     transform="translate(-32.284814,-10.83)">
    <polygon
       points="322.75,338.17 390.43,475.55 458.12,338.17 "
       style="fill:#ffffff;stroke:#263238;stroke-linecap:round;stroke-linejoin:round"
       id="polygon26" />
    <polygon
       points="458.12,338.17 390.43,475.55 372.95,338.17 "
       style="fill:#263238;stroke:#263238;stroke-linecap:round;stroke-linejoin:round"
       id="polygon28" />
  </g>
  <g
     id="freepik--Sphere--inject-25"
     transform="translate(-32.284814,-10.83)">
    <circle
       cx="390.42999"
       cy="281.25"
       r="56.799999"
       style="fill:#ffffff;stroke:#263238;stroke-linecap:round;stroke-linejoin:round"
       id="circle31" />
    <path
       d="m 441.12,277.54 a 50.63,50.63 0 0 0 -13.5,-30.93"
       style="fill:#ffffff;stroke:#263238;stroke-linecap:round;stroke-linejoin:round"
       id="path33" />
    <path
       d="m 420,239.88 a 50.74,50.74 0 0 0 -12.2,-6.42"
       style="fill:#ffffff;stroke:#263238;stroke-linecap:round;stroke-linejoin:round"
       id="path35" />
    <path
       d="M 438,250.15 A 56.8,56.8 0 0 1 337,300.49 56.8,56.8 0 1 0 438,250.15 Z"
       style="fill:#263238;stroke:#263238;stroke-linecap:round;stroke-linejoin:round"
       id="path37" />
  </g>
  <g
     id="freepik--cube-2--inject-25"
     transform="translate(-32.284814,-10.83)">
    <rect
       x="72.900002"
       y="279.63"
       width="72.190002"
       height="72.190002"
       style="fill:#263238;stroke:#263238;stroke-linecap:round;stroke-linejoin:round"
       id="rect40" />
    <rect
       x="55.919998"
       y="279.63"
       width="57.330002"
       height="72.190002"
       style="fill:#ffffff;stroke:#263238;stroke-linecap:round;stroke-linejoin:round"
       id="rect42" />
  </g>
  <g
     id="freepik--cube-3--inject-25"
     transform="translate(-32.284814,-10.83)">
    <rect
       x="67.089996"
       y="351.76001"
       width="123.79"
       height="123.79"
       style="fill:#263238;stroke:#263238;stroke-linecap:round;stroke-linejoin:round"
       id="rect45" />
    <rect
       x="37.970001"
       y="351.76001"
       width="98.300003"
       height="123.79"
       style="fill:#ffffff;stroke:#263238;stroke-linecap:round;stroke-linejoin:round"
       id="rect47" />
  </g>
  <g
     id="freepik--cube-1--inject-25"
     transform="translate(-32.284814,-10.83)">
    <polygon
       points="207.15,148.8 248.61,184.99 302.07,154.26 260.62,119.58 "
       style="fill:#a61c3c;stroke:#263238;stroke-linecap:round;stroke-linejoin:round"
       id="polygon50" />
    <line
       x1="344.34"
       y1="55.09"
       x2="310.89999"
       y2="74.449997"
       style="fill:none;stroke:#263238;stroke-linecap:round;stroke-linejoin:round"
       id="line52" />
    <line
       x1="351.41"
       y1="51"
       x2="347.98999"
       y2="52.98"
       style="fill:none;stroke:#263238;stroke-linecap:round;stroke-linejoin:round"
       id="line54" />
    <polygon
       points="332.45,64.12 332.45,113.79 291,79.1 291,29.43 "
       style="fill:#a61c3c;stroke:#263238;stroke-linecap:round;stroke-linejoin:round"
       id="polygon56" />
    <line
       x1="177.3"
       y1="49.490002"
       x2="201.53999"
       y2="69.510002"
       style="fill:none;stroke:#263238;stroke-linecap:round;stroke-linejoin:round"
       id="line58" />
    <line
       x1="171.8"
       y1="44.950001"
       x2="174.47"
       y2="47.150002"
       style="fill:none;stroke:#263238;stroke-linecap:round;stroke-linejoin:round"
       id="line60" />
    <polygon
       points="183.88,107.67 183.88,58.01 237.34,28.79 237.34,78.45 "
       style="fill:#a61c3c;stroke:#263238;stroke-linecap:round;stroke-linejoin:round"
       id="polygon62" />
    <polygon
       points="207.15,78.69 207.15,128.36 248.61,164.56 302.07,133.83 302.07,84.16 260.62,49.47 207.15,78.69 "
       style="fill:none;stroke:#263238;stroke-linecap:round;stroke-linejoin:round;stroke-dasharray:3"
       id="polygon64" />
    <polyline
       points="207.15 78.69 248.61 114.89 301.23 84.42"
       style="fill:none;stroke:#263238;stroke-linecap:round;stroke-linejoin:round;stroke-dasharray:3"
       id="polyline66" />
    <line
       x1="248.61"
       y1="114.89"
       x2="248.61"
       y2="164.56"
       style="fill:none;stroke:#263238;stroke-linecap:round;stroke-linejoin:round;stroke-dasharray:3"
       id="line68" />
    <polyline
       points="260.62 49.47 260.62 99.14 292.81 125.76"
       style="fill:none;stroke:#263238;stroke-linecap:round;stroke-linejoin:round;stroke-dasharray:3"
       id="polyline70" />
    <line
       x1="260.62"
       y1="99.139999"
       x2="214.35001"
       y2="124.18"
       style="fill:none;stroke:#263238;stroke-linecap:round;stroke-linejoin:round;stroke-dasharray:3"
       id="line72" />
    <polygon
       points="223.4,182.66 223.4,132.99 181.94,96.79 181.94,146.46 "
       style="fill:#a61c3c;stroke:#263238;stroke-linecap:round;stroke-linejoin:round"
       id="polygon74" />
    <line
       x1="164.34"
       y1="158.82001"
       x2="161.57001"
       y2="160.42999"
       style="fill:none;stroke:#263238;stroke-linecap:round;stroke-linejoin:round"
       id="line76" />
    <line
       x1="196.73"
       y1="140.07001"
       x2="167.25999"
       y2="157.13"
       style="fill:none;stroke:#263238;stroke-linecap:round;stroke-linejoin:round"
       id="line78" />
    <line
       x1="202.08"
       y1="136.98"
       x2="199.25"
       y2="138.62"
       style="fill:none;stroke:#263238;stroke-linecap:round;stroke-linejoin:round"
       id="line80" />
    <polygon
       points="324.94,108.6 324.94,158.27 271.47,189 271.47,139.33 "
       style="fill:#a61c3c;stroke:#263238;stroke-linecap:round;stroke-linejoin:round"
       id="polygon82" />
    <line
       x1="330.44"
       y1="175.10001"
       x2="333.53"
       y2="177.66"
       style="fill:none;stroke:#263238;stroke-linecap:round;stroke-linejoin:round"
       id="line84" />
    <line
       x1="299.79999"
       y1="149.67"
       x2="328.35999"
       y2="173.37"
       style="fill:none;stroke:#263238;stroke-linecap:round;stroke-linejoin:round"
       id="line86" />
    <polygon
       points="207.15,52.19 248.61,88.39 302.07,57.66 260.62,22.97 "
       style="fill:#a61c3c;stroke:#263238;stroke-linecap:round;stroke-linejoin:round"
       id="polygon88" />
    <line
       x1="253.89999"
       y1="16.709999"
       x2="253.89999"
       y2="11.33"
       style="fill:none;stroke:#263238;stroke-linecap:round;stroke-linejoin:round"
       id="line90" />
    <line
       x1="253.89999"
       y1="53.349998"
       x2="253.89999"
       y2="20.49"
       style="fill:none;stroke:#263238;stroke-linecap:round;stroke-linejoin:round"
       id="line92" />
  </g>
  <g
     id="freepik--Character--inject-25"
     transform="translate(-32.284814,-10.83)">
    <path
       d="m 220.41,457.58 c 0,0 -5.26,8.45 -6.76,9.77 -1.5,1.32 -5.26,4.13 -6.77,5.64 -1.51,1.51 0.38,3.38 2.07,3.57 1.69,0.19 22.17,0 22.17,0 0,0 2.26,-0.38 2.45,-1.51 0.19,-1.13 1.12,-4.51 -0.19,-7.51 a 18.09,18.09 0 0 1 -1.32,-6.39 l 0.38,-0.94 -0.38,-2.26 z"
       style="fill:#ffffff;stroke:#263238;stroke-linecap:round;stroke-linejoin:round"
       id="path95" />
    <path
       d="m 209,476.56 c 1.69,0.19 22.17,0 22.17,0 0,0 2.26,-0.38 2.45,-1.51 a 19.48,19.48 0 0 0 0.49,-4.25 c -3.1,0.92 -6.24,2.19 -6.24,2.19 h -20.99 c -1.5,1.5 0.38,3.38 2.12,3.57 z"
       style="fill:#ffffff;stroke:#263238;stroke-linecap:round;stroke-linejoin:round"
       id="path97" />
    <line
       x1="228.78999"
       y1="471.07001"
       x2="227.33"
       y2="476.14999"
       style="fill:#ffffff;stroke:#263238;stroke-linecap:round;stroke-linejoin:round"
       id="line99" />
    <path
       d="m 222.74,468.77 a 0.81,0.81 0 0 1 -0.34,-0.08 c -3.9,-1.73 -6.44,-0.55 -6.55,-0.49 a 0.84300059,0.84300059 0 0 1 -0.75,-1.51 c 0.14,-0.07 3.32,-1.6 8,0.47 a 0.84,0.84 0 0 1 -0.34,1.61 z"
       style="fill:#ffffff;stroke:#263238;stroke-linecap:round;stroke-linejoin:round"
       id="path101" />
    <path
       d="m 223.46,466.59 a 0.83,0.83 0 0 1 -0.34,-0.07 c -3.9,-1.74 -6.44,-0.55 -6.54,-0.5 a 0.84300059,0.84300059 0 0 1 -0.75,-1.51 c 0.13,-0.07 3.31,-1.6 8,0.47 a 0.84,0.84 0 0 1 -0.34,1.61 z"
       style="fill:#ffffff;stroke:#263238;stroke-linecap:round;stroke-linejoin:round"
       id="path103" />
    <path
       d="m 224.19,464.41 a 0.8,0.8 0 0 1 -0.34,-0.07 c -3.9,-1.74 -6.44,-0.55 -6.55,-0.5 a 0.84300059,0.84300059 0 0 1 -0.75,-1.51 c 0.14,-0.06 3.32,-1.6 8,0.47 a 0.84,0.84 0 0 1 -0.34,1.61 z"
       style="fill:#ffffff;stroke:#263238;stroke-linecap:round;stroke-linejoin:round"
       id="path105" />
    <path
       d="m 292.56,457.58 c 0,0 5.27,8.45 6.77,9.77 1.5,1.32 5.26,4.13 6.76,5.64 1.5,1.51 -0.37,3.38 -2.06,3.57 -1.69,0.19 -22.18,0 -22.18,0 0,0 -2.25,-0.38 -2.44,-1.51 -0.19,-1.13 -1.13,-4.51 0.19,-7.51 a 18.21,18.21 0 0 0 1.31,-6.39 l -0.37,-0.94 0.37,-2.26 z"
       style="fill:#ffffff;stroke:#263238;stroke-linecap:round;stroke-linejoin:round"
       id="path107" />
    <path
       d="m 304,476.56 c -1.69,0.19 -22.18,0 -22.18,0 0,0 -2.25,-0.38 -2.44,-1.51 a 18.87,18.87 0 0 1 -0.49,-4.25 c 3.1,0.92 6.24,2.19 6.24,2.19 h 20.93 c 1.54,1.5 -0.34,3.38 -2.06,3.57 z"
       style="fill:#ffffff;stroke:#263238;stroke-linecap:round;stroke-linejoin:round"
       id="path109" />
    <line
       x1="284.19"
       y1="471.07001"
       x2="285.64001"
       y2="476.14999"
       style="fill:#ffffff;stroke:#263238;stroke-linecap:round;stroke-linejoin:round"
       id="line111" />
    <path
       d="m 290.24,468.77 a 0.84,0.84 0 0 0 0.34,-0.08 c 3.9,-1.73 6.44,-0.55 6.55,-0.49 a 0.84078832,0.84078832 0 0 0 0.74,-1.51 c -0.13,-0.07 -3.31,-1.6 -8,0.47 a 0.84,0.84 0 0 0 -0.43,1.11 0.85,0.85 0 0 0 0.8,0.5 z"
       style="fill:#ffffff;stroke:#263238;stroke-linecap:round;stroke-linejoin:round"
       id="path113" />
    <path
       d="m 289.51,466.59 a 0.8,0.8 0 0 0 0.34,-0.07 c 3.9,-1.74 6.45,-0.55 6.55,-0.5 a 0.84300059,0.84300059 0 0 0 0.75,-1.51 c -0.14,-0.07 -3.31,-1.6 -8,0.47 a 0.84,0.84 0 0 0 0.34,1.61 z"
       style="fill:#ffffff;stroke:#263238;stroke-linecap:round;stroke-linejoin:round"
       id="path115" />
    <path
       d="m 288.79,464.41 a 0.83,0.83 0 0 0 0.34,-0.07 c 3.9,-1.74 6.44,-0.55 6.55,-0.5 a 0.85,0.85 0 0 0 1.12,-0.38 0.86,0.86 0 0 0 -0.38,-1.13 c -0.13,-0.06 -3.31,-1.6 -8,0.47 a 0.84,0.84 0 0 0 0.34,1.61 z"
       style="fill:#ffffff;stroke:#263238;stroke-linecap:round;stroke-linejoin:round"
       id="path117" />
    <path
       d="m 296.17,452.2 a 72.83,72.83 0 0 0 -3.39,-6.53 31.24,31.24 0 0 0 0.73,-6.05 c 0,-2.91 -3.27,-17.18 -3.27,-17.18 l -0.16,0.19 c -0.54,-5.51 -1.23,-10.1 -1.38,-10.71 -0.26,-1 -7.15,-72.27 -7.15,-72.27 l -2.3,-18.13 -22.74,1.12 -22.73,-1.12 -2.3,18.13 c 0,0 -6.9,71.25 -7.15,72.27 -0.19,0.74 -1.18,7.38 -1.71,14.38 -0.78,4.18 -2.06,11.31 -2.06,13.32 a 31.12,31.12 0 0 0 0.7,5.93 2.23,2.23 0 0 1 0,0.23 69.66,69.66 0 0 0 -3.32,6.42 c -0.49,1.45 0.66,8.28 0.66,8.28 h 0.1 v 0.18 l 4.24,0.15 c 0.93,0.09 2,0.2 3,0.33 a 23.39,23.39 0 0 1 6.78,1.94 l 4.84,-8.71 -1.7,-3.87 1.94,-11.38 -0.17,-0.18 11.27,-45.42 7.67,-35.47 7.67,35.47 12.91,50.05 1.18,6.93 -1.7,3.87 4.84,8.71 a 23.26,23.26 0 0 1 6.78,-1.94 c 3.87,-0.48 7.31,-0.67 7.31,-0.67 0,0 1.09,-6.82 0.61,-8.27 z"
       style="fill:#263238;stroke:#263238;stroke-linecap:round;stroke-linejoin:round"
       id="path119" />
    <rect
       x="240.73"
       y="324.57001"
       width="30.43"
       height="3.29"
       style="fill:#575757;stroke:#263238;stroke-linecap:round;stroke-linejoin:round"
       id="rect121" />
    <rect
       x="273.92001"
       y="324.57001"
       width="5.8800001"
       height="3.29"
       style="fill:#575757;stroke:#263238;stroke-linecap:round;stroke-linejoin:round"
       id="rect123" />
    <rect
       x="233.28999"
       y="324.57001"
       width="4.6700001"
       height="3.29"
       style="fill:#575757;stroke:#263238;stroke-linecap:round;stroke-linejoin:round"
       id="rect125" />
    <rect
       x="252.48"
       y="324.92001"
       width="7.6100001"
       height="2.77"
       style="fill:#ffffff;stroke:#263238;stroke-linecap:round;stroke-linejoin:round"
       id="rect127" />
    <path
       d="m 222.74,264.09 c 0,0 -14,48.75 -14.63,50 -0.63,1.25 3,0.61 6.5,1.22 3.5,0.61 8.33,-2 8.94,-3 0.61,-1 5.69,-16.86 5.69,-16.86 z"
       style="fill:#ffffff;stroke:#263238;stroke-linecap:round;stroke-linejoin:round"
       id="path129" />
    <line
       x1="223.38"
       y1="279.89001"
       x2="222.78999"
       y2="278.48001"
       style="fill:#ffffff;stroke:#263238;stroke-linecap:round;stroke-linejoin:round"
       id="line131" />
    <line
       x1="227.97"
       y1="291.01001"
       x2="224.05"
       y2="281.51999"
       style="fill:#ffffff;stroke:#263238;stroke-linecap:round;stroke-linejoin:round"
       id="line133" />
    <path
       d="m 223.05,305.82 1.11,0.8"
       style="fill:#ffffff;stroke:#263238;stroke-linecap:round;stroke-linejoin:round"
       id="path135" />
    <path
       d="m 212.68,303.62 a 33.35,33.35 0 0 1 4.65,-1.37 c 0.47,0 2.65,1.44 4.42,2.67"
       style="fill:#ffffff;stroke:#263238;stroke-linecap:round;stroke-linejoin:round"
       id="path137" />
    <path
       d="m 287.74,261.25 c 0,0 16.05,42.86 16.46,44.48 a 11.05,11.05 0 0 1 0.61,4.47 c -0.21,1.83 -3.05,3.05 -3.66,3.05 -0.61,0 -5.08,-2.84 -6.91,-3.66 -1.83,-0.82 -7.31,-3.45 -7.31,-3.45 L 284.09,297 Z"
       style="fill:#ffffff;stroke:#263238;stroke-linecap:round;stroke-linejoin:round"
       id="path139" />
    <line
       x1="288.64001"
       y1="275.16"
       x2="288.91"
       y2="274.10999"
       style="fill:#ffffff;stroke:#263238;stroke-linecap:round;stroke-linejoin:round"
       id="line141" />
    <line
       x1="284.81"
       y1="290.23001"
       x2="288.20999"
       y2="276.85999"
       style="fill:#ffffff;stroke:#263238;stroke-linecap:round;stroke-linejoin:round"
       id="line143" />
    <line
       x1="294.64001"
       y1="297.88"
       x2="288.09"
       y2="301.98001"
       style="fill:#ffffff;stroke:#263238;stroke-linecap:round;stroke-linejoin:round"
       id="line145" />
    <path
       d="m 245.69,251.9 -22.95,12.19 9.95,52.82 c 0,0 -0.81,4.87 -0.2,5.89 a 5.39,5.39 0 0 0 1.62,1.62 H 279 c 0,0 3,-2.84 3,-3.45 v -2.64 l 5.69,-57.08 -22.69,-9.06 z"
       style="fill:#ffffff;stroke:#263238;stroke-linecap:round;stroke-linejoin:round"
       id="path147" />
    <polygon
       points="249.78,314.54 256.15,324.64 261.64,313.66 255.97,262.82 259.52,255.2 254.38,249.53 250.84,254.31 253.85,262.82 "
       style="fill:#263238;stroke:#263238;stroke-linecap:round;stroke-linejoin:round"
       id="polygon149" />
    <polygon
       points="249.6,260.87 253.14,252.36 245.35,247.4 244.81,253.07 "
       style="fill:#ffffff;stroke:#263238;stroke-linecap:round;stroke-linejoin:round"
       id="polygon151" />
    <polygon
       points="265.01,252.19 262.35,246.69 256.33,252.54 259.16,261.58 "
       style="fill:#ffffff;stroke:#263238;stroke-linecap:round;stroke-linejoin:round"
       id="polygon153" />
    <polygon
       points="275.55,307.16 270.88,312.44 270.07,306.14 "
       style="fill:#ffffff;stroke:#263238;stroke-linecap:round;stroke-linejoin:round"
       id="polygon155" />
    <path
       d="m 255.85,293.34 a 34.25,34.25 0 0 1 -5.08,-1 c -1.83,-0.61 -3.05,0.2 -1.62,2 1.43,1.8 6.5,2.64 7.11,2.64 0,0 1,5.28 3.86,6.3 a 14.9,14.9 0 0 0 4.46,1 c 0,0 1.43,2 3.25,2.24 1.82,0.24 6.1,3.25 6.1,3.25 l 2,-4.67 -4.47,-3.66 -4.46,-7.69 -4.26,-1.42 -3.66,-1.22 z"
       style="fill:#ffffff;stroke:#263238;stroke-linecap:round;stroke-linejoin:round"
       id="path157" />
    <path
       d="m 267.23,298.83 -1.83,1.83 a 7.75,7.75 0 0 1 0.2,1.62 c 0,0.81 -1.42,0.81 -2.44,0.81 a 5.27,5.27 0 0 1 -3,-0.81 c -0.82,-0.61 -4.07,-3.45 -4.07,-3.45 l 3.46,-6.1 -3.05,2 a 20.93,20.93 0 0 1 -2.64,3.86 c -1.22,1.22 -1.63,-0.2 -1.63,-0.2 0,0 1.22,-3.86 2,-4.87 a 45.8,45.8 0 0 1 3.66,-3.46 8.09,8.09 0 0 1 2.44,0 c 1.42,0.21 4.26,1.83 5.48,2.64 a 6.87,6.87 0 0 1 2.44,3.25 6.68,6.68 0 0 1 0.2,1.43"
       style="fill:#ffffff;stroke:#263238;stroke-linecap:round;stroke-linejoin:round"
       id="path159" />
    <path
       d="m 261.94,302.89 a 3.8,3.8 0 0 1 -0.2,-2.44 57.25,57.25 0 0 1 3.05,-4.87"
       style="fill:none;stroke:#263238;stroke-linecap:round;stroke-linejoin:round"
       id="path161" />
    <path
       d="m 260.12,302.28 a 11,11 0 0 1 -0.69,-0.88 c -0.44,-0.63 -0.07,-1.43 -0.07,-2.1 0,-1.22 3,-6.16 3,-6.16"
       style="fill:none;stroke:#263238;stroke-linecap:round;stroke-linejoin:round"
       id="path163" />
    <path
       d="m 300.13,301.27 c 0,0 5.08,7.73 4.87,9.73 -0.21,2 -1.42,6.5 -3.25,6.5 -1.83,0 -10,-1 -15.64,-2 -5.64,-1 -9.55,-1.43 -9.55,-1.43 l -5.69,-1.62 3.86,-9.35 3.7,0.78 a 37.18,37.18 0 0 1 5.36,-0.9 c 2.64,-0.2 11.46,-2.31 11.46,-2.31"
       style="fill:#ffffff;stroke:#263238;stroke-linecap:round;stroke-linejoin:round"
       id="path165" />
    <path
       d="m 278.47,304.79 a 11.78,11.78 0 0 1 -1.63,6.5"
       style="fill:none;stroke:#263238;stroke-linecap:round;stroke-linejoin:round"
       id="path167" />
    <path
       d="m 210.75,307.56 c 0,0 -3.45,8.33 -3.65,8.94 -0.2,0.61 0.61,4.47 3.86,3.66 3.25,-0.81 20.51,-2.64 22.75,-3.05 2.24,-0.41 5.69,-1 5.69,-1 h 4.46 c 2,0 7.72,0 8.94,-0.4 l 4.88,-1.63 c 1.22,-0.4 3.86,-2 4.06,-2.64 0.2,-0.64 -0.61,-1.22 -2.64,-1 -2.03,0.22 -8.33,0.4 -8.33,0.4 0,0 5.69,-2.23 7.52,-3 1.83,-0.77 1.22,-1.63 1.22,-1.63 a 10.5,10.5 0 0 0 -3.46,0.61 c -1.42,0.61 -15.44,2.44 -15.44,2.44 L 239,307.77 a 12.12,12.12 0 0 0 0.81,-3.66 c 0,-1.63 -0.81,-2.84 -1.83,-2.44 -1.02,0.4 -1.42,2.85 -1.62,3.66 -0.2,0.81 -1.22,4.06 -1.22,4.06 l -0.41,1.83 c 0,0 -8.32,-1.63 -10.76,-2.64 -2.44,-1.01 -7.52,-2.44 -8.33,-2.24 -0.81,0.2 -2.44,2.44 -2.85,3.46"
       style="fill:#ffffff;stroke:#263238;stroke-linecap:round;stroke-linejoin:round"
       id="path169" />
    <path
       d="m 228.9,310.47 c 0,0 -1.35,3 0.27,4.88"
       style="fill:none;stroke:#263238;stroke-linecap:round;stroke-linejoin:round"
       id="path171" />
    <path
       d="m 231.8,299.77 6.2,12.57 a 1.35,1.35 0 0 0 1.21,0.76 l 22.55,0.23 a 1.36,1.36 0 0 0 1.28,-1.85 l -4.9,-12.8 a 1.36,1.36 0 0 0 -1.28,-0.87 H 233 a 1.37,1.37 0 0 0 -1.2,1.96 z"
       style="fill:#a61c3c;stroke:#263238;stroke-linecap:round;stroke-linejoin:round"
       id="path173" />
    <path
       d="m 259.1,310.41 c -2,0.2 -8.33,0.4 -8.33,0.4 0,0 5.69,-2.23 7.52,-3 1.83,-0.77 1.22,-1.63 1.22,-1.63 a 10.5,10.5 0 0 0 -3.46,0.61 c -1.42,0.61 -15.44,2.44 -15.44,2.44 L 239,307.77 a 12.12,12.12 0 0 0 0.81,-3.66 c 0,-1.63 -0.81,-2.84 -1.83,-2.44 -1.02,0.4 -1.42,2.85 -1.62,3.66 -0.2,0.81 -1.22,4.06 -1.22,4.06 l -0.41,1.83 -2.14,-0.44 a 7.22,7.22 0 0 0 0.11,4.3 21.73,21.73 0 0 0 0.8,2.07 h 0.22 c 2.23,-0.41 5.69,-1 5.69,-1 h 4.46 c 2,0 7.72,0 8.94,-0.4 l 4.88,-1.63 c 1.22,-0.4 3.86,-2 4.06,-2.64 0.2,-0.64 -0.62,-1.28 -2.65,-1.07 z"
       style="fill:#ffffff;stroke:#263238;stroke-linecap:round;stroke-linejoin:round"
       id="path175" />
    <path
       d="m 261,311.74 a 39.16,39.16 0 0 1 -4.82,2 c -0.6,0 -7.82,0.8 -7.82,0.8"
       style="fill:none;stroke:#263238;stroke-linecap:round;stroke-linejoin:round"
       id="path177" />
    <path
       d="m 218.62,460.67 a 4.1,4.1 0 0 1 0.2,-0.58 c -0.08,0.13 -0.17,0.26 -0.26,0.39 z"
       style="fill:#ffffff;stroke:#263238;stroke-linecap:round;stroke-linejoin:round"
       id="path179" />
    <path
       d="m 242.22,228.76 c 0,0 -1.06,-4.43 -2.66,-1.6 -1.6,2.83 0.18,7.27 0.89,8 0.71,0.73 2.13,-1.59 2.13,-1.59"
       style="fill:#ffffff;stroke:#263238;stroke-linecap:round;stroke-linejoin:round"
       id="path181" />
    <path
       d="m 266.92,228.76 c 0,0 1.06,-4.43 2.66,-1.6 1.6,2.83 -0.18,7.27 -0.89,8 -0.71,0.73 -2.12,-1.59 -2.12,-1.59"
       style="fill:#ffffff;stroke:#263238;stroke-linecap:round;stroke-linejoin:round"
       id="path183" />
    <path
       d="m 260.68,212.39 c -6.06,-2.88 -15.52,-0.52 -17.63,6.5 -1.57,5.22 -1.33,12.11 -1.33,18 0,2.91 3.78,6.69 3.78,6.69 l 0.29,5.52 9,5.52 7.56,-5.23 0.29,-5.23 c 0,0 4.06,-3.49 4.65,-6.1 0.59,-2.61 -0.51,-17.47 -1.55,-20.34 a 9.5,9.5 0 0 0 -5.06,-5.33 z"
       style="fill:#ffffff;stroke:#263238;stroke-linecap:round;stroke-linejoin:round"
       id="path185" />
    <path
       d="m 251.79,219.51 c 0,0 -3,-2.3 -6.38,0.89"
       style="fill:#ffffff;stroke:#263238;stroke-width:2px;stroke-linecap:round;stroke-linejoin:round"
       id="path187" />
    <path
       d="m 257.64,219.76 a 5.08,5.08 0 0 1 6.38,0.17"
       style="fill:#ffffff;stroke:#263238;stroke-width:2px;stroke-linecap:round;stroke-linejoin:round"
       id="path189" />
    <path
       d="m 256.4,227 a 3.12,3.12 0 0 1 -2.3,2.66"
       style="fill:#ffffff;stroke:#263238;stroke-linecap:round;stroke-linejoin:round"
       id="path191" />
    <path
       d="m 250.2,232 c 0,0 3.19,1.24 8.68,0"
       style="fill:#ffffff;stroke:#263238;stroke-linecap:round;stroke-linejoin:round"
       id="path193" />
    <path
       d="m 257.85,244.14 c -0.92,0.32 -1.94,0.66 -2.87,0.93 -2.48,0.7 -7.44,-1.6 -7.44,-1.6"
       style="fill:#ffffff;stroke:#263238;stroke-linecap:round;stroke-linejoin:round"
       id="path195" />
    <path
       d="m 260.65,243.12 -1.24,0.47"
       style="fill:#ffffff;stroke:#263238;stroke-linecap:round;stroke-linejoin:round"
       id="path197" />
    <path
       d="m 261.29,222.33 c 0,0.55 -0.33,1 -0.73,1 -0.4,0 -0.73,-0.45 -0.73,-1 0,-0.55 0.33,-1 0.73,-1 0.4,0 0.73,0.45 0.73,1 z"
       style="fill:#263238"
       id="path199" />
    <ellipse
       cx="249.00999"
       cy="222.33"
       rx="0.73000002"
       ry="1"
       style="fill:#263238"
       id="ellipse201" />
    <path
       d="m 257.19,220.79 a 9.77,9.77 0 0 0 -0.81,2.72 4,4 0 0 0 0.18,1.82"
       style="fill:none;stroke:#263238;stroke-linecap:round;stroke-linejoin:round"
       id="path203" />
    <path
       d="m 248.57,212.58 c 0,0 -0.73,-2.3 2.55,-4.12 3.28,-1.82 4.24,-1.46 7.76,-2.79 3.52,-1.33 4.25,-0.49 3.88,1 a 6.89,6.89 0 0 1 -1.82,2.79 c 0,0 2.67,-2.31 3.64,-1.82 0.97,0.49 0.13,4 -0.12,4.49 -0.25,0.49 2.19,-0.37 3.4,2.55 1.21,2.92 -0.61,12.86 -0.61,12.86 0,0 -1,-3.89 -1.21,-5.34 -0.21,-1.45 -1.11,-6.69 -3.28,-7.52 a 21.69,21.69 0 0 0 -9.34,-1.46 11.34,11.34 0 0 1 -4.85,-0.64 z"
       style="fill:#263238"
       id="path205" />
    <path
       d="m 248.57,211.73 c 0,0 -2.79,-1.21 -4.73,0.49 -1.94,1.7 -0.49,2.43 -0.73,3.15 -0.24,0.72 -1.58,0.12 -2.67,3.52 -1.09,3.4 1.45,6.43 1.45,6.43 l 0.37,1.46 c 0,0 0.73,-4.25 0.73,-5.22 0,-0.97 1.82,-2.06 2.18,-3.27 0.36,-1.21 1.09,-4.25 3.88,-5.46 0,0 0.13,-0.83 -0.48,-1.1 z"
       style="fill:#263238"
       id="path207" />
  </g>
  <g
     id="freepik--Rhombuses--inject-25"
     transform="translate(-32.284814,-10.83)">
    <rect
       x="86"
       y="90"
       width="21"
       height="21"
       transform="rotate(-45,96.498119,100.49917)"
       style="fill:none;stroke:#263238;stroke-linecap:round;stroke-linejoin:round"
       id="rect210" />
    <rect
       x="139.53999"
       y="221.97"
       width="11.91"
       height="11.91"
       transform="rotate(-45,145.49859,227.92251)"
       style="fill:none;stroke:#263238;stroke-linecap:round;stroke-linejoin:round"
       id="rect212" />
    <rect
       x="445.78"
       y="149.85001"
       width="11.91"
       height="11.91"
       transform="rotate(-45,451.7364,155.80466)"
       style="fill:none;stroke:#263238;stroke-linecap:round;stroke-linejoin:round"
       id="rect214" />
    <rect
       x="391.69"
       y="190.03999"
       width="7.7800002"
       height="7.7800002"
       transform="rotate(-45,395.5735,193.91809)"
       style="fill:none;stroke:#263238;stroke-linecap:round;stroke-linejoin:round"
       id="rect216" />
    <rect
       x="49.779999"
       y="144.66"
       width="7.7800002"
       height="7.7800002"
       transform="rotate(-45,53.670918,148.54878)"
       style="fill:none;stroke:#263238;stroke-linecap:round;stroke-linejoin:round"
       id="rect218" />
    <rect
       x="416.98999"
       y="41.91"
       width="7.7800002"
       height="7.7800002"
       transform="rotate(-45,420.87435,45.808136)"
       style="fill:none;stroke:#263238;stroke-linecap:round;stroke-linejoin:round"
       id="rect220" />
  </g>
</svg>
