<?xml version="1.0" encoding="UTF-8" standalone="no"?>
<svg
   viewBox="0 0 452.20111 456.99081"
   version="1.1"
   id="svg304"
   sodipodi:docname="Project Stages-bro.svg"
   width="452.20111"
   height="456.99081"
   inkscape:version="1.1 (c68e22c387, 2021-05-23)"
   xmlns:inkscape="http://www.inkscape.org/namespaces/inkscape"
   xmlns:sodipodi="http://sodipodi.sourceforge.net/DTD/sodipodi-0.dtd"
   xmlns="http://www.w3.org/2000/svg"
   xmlns:svg="http://www.w3.org/2000/svg">
  <defs
     id="defs308" />
  <sodipodi:namedview
     id="namedview306"
     pagecolor="#ffffff"
     bordercolor="#666666"
     borderopacity="1.0"
     inkscape:pageshadow="2"
     inkscape:pageopacity="0.0"
     inkscape:pagecheckerboard="0"
     showgrid="false"
     inkscape:zoom="1.244"
     inkscape:cx="231.91318"
     inkscape:cy="220.25723"
     inkscape:window-width="1368"
     inkscape:window-height="850"
     inkscape:window-x="-6"
     inkscape:window-y="-6"
     inkscape:window-maximized="1"
     inkscape:current-layer="svg304" />
  <g
     id="freepik--background-simple--inject-221"
     transform="translate(-17.392087,-29.769199)">
    <path
       d="m 466,255.68 c -7.79,41.36 -30.17,88.54 -69.73,108.2 -59.78,29.7 -58.53,81.81 -172.23,96.6 a 230.91,230.91 0 0 1 -50,1.27 190.56,190.56 0 0 1 -24.27,-3.67 C 79.15,442.76 34.59,389.92 21.11,328.89 3.37,248.64 53.11,200.33 85.94,171.41 118.77,142.49 147.83,47.36 259.49,32 a 223.64,223.64 0 0 1 51.45,-1.34 c 39.1,3.66 80.93,19.46 108.64,48.33 q 3.12,3.25 6.05,6.71 c 38.19,44.95 51,113.59 40.37,169.98 z"
       style="fill:#a61c3c"
       id="path2" />
    <path
       d="m 466,255.68 c -7.79,41.36 -30.17,88.54 -69.73,108.2 -59.78,29.7 -58.53,81.81 -172.23,96.6 a 230.91,230.91 0 0 1 -50,1.27 190.56,190.56 0 0 1 -24.27,-3.67 C 79.15,442.76 34.59,389.92 21.11,328.89 3.37,248.64 53.11,200.33 85.94,171.41 118.77,142.49 147.83,47.36 259.49,32 a 223.64,223.64 0 0 1 51.45,-1.34 c 39.1,3.66 80.93,19.46 108.64,48.33 q 3.12,3.25 6.05,6.71 c 38.19,44.95 51,113.59 40.37,169.98 z"
       style="opacity:0.7;fill:#ffffff"
       id="path4" />
  </g>
  <g
     id="freepik--Clouds--inject-221"
     transform="translate(-17.392087,-29.769199)">
    <path
       d="m 362,217.24 c 0.29,-0.91 -0.37,-2.68 -0.61,-3.21 -1.24,-2.76 -4.3,-4 -7.2,-3.77 a 8.35,8.35 0 0 1 -3.15,0 5.13,5.13 0 0 1 -2.73,-2.73 26.26,26.26 0 0 0 -4.29,-6 c -2.61,-2.72 -6.14,-4.72 -10,-4.59 -10.43,0.36 -9.36,9 -12.24,11.52 -1.6,1.4 -2.75,-0.6 -4.11,-1.28 a 4.77,4.77 0 0 0 -5.38,0.57 c -1.49,1.25 -2.37,3.07 -3.54,4.63 -1.17,1.56 -2.93,3 -4.87,2.75 -1.62,-0.17 -2.91,-1.43 -4.46,-1.95 A 6.68,6.68 0 0 0 294,214 a 14.26,14.26 0 0 0 -3.62,3.27 z"
       style="fill:#ffffff;stroke:#263238;stroke-miterlimit:10"
       id="path7" />
    <path
       d="m 463.78,106.12 c 0.45,-1.39 -0.56,-4.1 -0.93,-4.92 -1.9,-4.23 -6.6,-6.15 -11.05,-5.78 -1.62,0.13 -3.28,0.51 -4.83,0 -1.94,-0.6 -3.25,-2.39 -4.2,-4.19 A 40.23,40.23 0 0 0 436.19,82 c -4,-4.18 -9.42,-7.25 -15.38,-7 -16,0.56 -14.36,13.81 -18.78,17.68 -2.46,2.16 -4.23,-0.91 -6.32,-2 a 7.3,7.3 0 0 0 -8.25,0.87 c -2.29,1.93 -3.64,4.72 -5.44,7.11 -1.8,2.39 -4.49,4.55 -7.47,4.22 -2.49,-0.27 -4.47,-2.19 -6.85,-3 a 10.27,10.27 0 0 0 -8.27,1.21 22.27,22.27 0 0 0 -5.56,5 z"
       style="fill:#ffffff;stroke:#263238;stroke-miterlimit:10"
       id="path9" />
    <path
       d="m 128.22,59.23 c 0.29,-0.92 -0.37,-2.68 -0.61,-3.21 -1.24,-2.76 -4.3,-4 -7.2,-3.77 a 8.35,8.35 0 0 1 -3.15,0 5.13,5.13 0 0 1 -2.73,-2.73 26.26,26.26 0 0 0 -4.29,-6 c -2.61,-2.72 -6.14,-4.72 -10,-4.59 -10.43,0.36 -9.36,9 -12.24,11.52 -1.6,1.4 -2.75,-0.6 -4.11,-1.28 a 4.77,4.77 0 0 0 -5.38,0.57 C 77,51 76.12,52.81 75,54.37 c -1.12,1.56 -2.93,3 -4.87,2.75 -1.62,-0.18 -2.91,-1.43 -4.46,-1.95 a 6.65,6.65 0 0 0 -5.39,0.79 14.26,14.26 0 0 0 -3.62,3.27 z"
       style="fill:#ffffff;stroke:#263238;stroke-miterlimit:10"
       id="path11" />
  </g>
  <g
     id="freepik--Smoke--inject-221"
     transform="translate(-17.392087,-29.769199)">
    <path
       d="m 445.15,431.36 a 11,11 0 0 0 1.11,-4.82 10.62,10.62 0 0 0 -10.36,-10.85 9.93,9.93 0 0 0 -5.31,1.55 9.82,9.82 0 0 0 0.14,-1.55 8.63,8.63 0 1 0 -17.24,-0.57 h -0.6 a 19.31,19.31 0 0 0 -10.12,2.88 20.82,20.82 0 0 0 -12,-9.32 9.41,9.41 0 0 0 4.88,-8.33 8.92,8.92 0 1 0 -17.83,0 9.43,9.43 0 0 0 4.09,7.85 19.9,19.9 0 0 0 -6.18,2.15 16.47,16.47 0 0 0 -15.46,-11.51 15.87,15.87 0 0 0 -10.72,4.2 c -1.4,-12.78 -11.76,-22.72 -24.34,-22.72 a 23.94,23.94 0 0 0 -18.2,8.5 C 302.85,376.74 291.82,368.1 278.86,368.1 a 28.8,28.8 0 0 0 -16.1,4.9 17.77,17.77 0 0 0 -16.12,1.42 17.77,17.77 0 0 0 -16.12,-1.42 28.8,28.8 0 0 0 -16.08,-4.92 c -13,0 -24,8.64 -28.15,20.72 a 24,24 0 0 0 -18.21,-8.5 c -12.58,0 -22.94,9.94 -24.33,22.72 a 15.89,15.89 0 0 0 -10.72,-4.2 16.46,16.46 0 0 0 -15.46,11.51 20.08,20.08 0 0 0 -6.18,-2.15 9.43,9.43 0 0 0 4.09,-7.85 8.92,8.92 0 1 0 -17.83,0 9.39,9.39 0 0 0 4.88,8.33 20.82,20.82 0 0 0 -12,9.32 19.34,19.34 0 0 0 -10.12,-2.88 c -0.21,0 -0.4,0 -0.61,0 a 8.62,8.62 0 1 0 -17.09,2.12 9.94,9.94 0 0 0 -5.32,-1.55 10.61,10.61 0 0 0 -10.39,10.87 11,11 0 0 0 1.11,4.82 z"
       style="fill:#ffffff;stroke:#263238;stroke-miterlimit:10"
       id="path14" />
  </g>
  <g
     id="freepik--Platform--inject-221"
     transform="translate(-17.392087,-29.769199)">
    <rect
       x="322.54001"
       y="79.849998"
       width="19.99"
       height="350.06"
       style="fill:none;stroke:#263238;stroke-miterlimit:10"
       id="rect17" />
    <line
       x1="322.53"
       y1="184.09"
       x2="307.17001"
       y2="184.09"
       style="fill:none;stroke:#263238;stroke-miterlimit:10"
       id="line19" />
    <line
       x1="322.53"
       y1="276.94"
       x2="302.57001"
       y2="276.94"
       style="fill:none;stroke:#263238;stroke-miterlimit:10"
       id="line21" />
    <polyline
       points="342.53 79.85 323.28 104.29 342.31 104.29 322.54 79.85"
       style="fill:none;stroke:#263238;stroke-miterlimit:10"
       id="polyline23" />
    <polyline
       points="342.53 104.9 323.28 129.33 342.31 129.33 322.54 104.9"
       style="fill:none;stroke:#263238;stroke-miterlimit:10"
       id="polyline25" />
    <polyline
       points="342.53 129.94 323.28 154.38 342.31 154.38 322.54 129.94"
       style="fill:none;stroke:#263238;stroke-miterlimit:10"
       id="polyline27" />
    <polyline
       points="342.53 154.99 323.28 179.42 342.31 179.42 322.54 154.99"
       style="fill:none;stroke:#263238;stroke-miterlimit:10"
       id="polyline29" />
    <polyline
       points="342.53 180.03 323.28 204.46 342.31 204.46 322.54 180.03 307.21 180.03"
       style="fill:none;stroke:#263238;stroke-miterlimit:10"
       id="polyline31" />
    <polyline
       points="342.53 205.07 323.28 229.5 342.31 229.5 322.54 205.07"
       style="fill:none;stroke:#263238;stroke-miterlimit:10"
       id="polyline33" />
    <polyline
       points="342.53 230.12 323.28 254.55 342.31 254.55 322.54 230.12"
       style="fill:none;stroke:#263238;stroke-miterlimit:10"
       id="polyline35" />
    <polyline
       points="342.53 255.16 323.28 279.59 342.31 279.59 322.54 255.16"
       style="fill:none;stroke:#263238;stroke-miterlimit:10"
       id="polyline37" />
    <polyline
       points="342.53 280.2 323.28 304.64 342.31 304.64 322.54 280.2 302.6 280.2"
       style="fill:none;stroke:#263238;stroke-miterlimit:10"
       id="polyline39" />
    <polyline
       points="342.53 305.25 323.28 329.68 342.31 329.68 322.54 305.25"
       style="fill:none;stroke:#263238;stroke-miterlimit:10"
       id="polyline41" />
    <polyline
       points="342.53 330.29 323.28 354.72 342.31 354.72 322.54 330.29"
       style="fill:none;stroke:#263238;stroke-miterlimit:10"
       id="polyline43" />
    <polyline
       points="342.53 355.33 323.28 379.77 342.31 379.77 322.54 355.33"
       style="fill:none;stroke:#263238;stroke-miterlimit:10"
       id="polyline45" />
    <polyline
       points="342.53 380.38 323.28 404.81 342.31 404.81 322.54 380.38"
       style="fill:none;stroke:#263238;stroke-miterlimit:10"
       id="polyline47" />
    <polyline
       points="342.53 405.42 323.28 429.85 342.31 429.85 322.54 405.42"
       style="fill:none;stroke:#263238;stroke-miterlimit:10"
       id="polyline49" />
    <polygon
       points="177.76,400.94 314.73,400.94 342.13,430.56 150.36,430.56 "
       style="fill:#ffffff;stroke:#263238;stroke-miterlimit:10"
       id="polygon51" />
    <circle
       cx="187.42999"
       cy="416.39001"
       r="7.54"
       style="fill:#263238;stroke:#263238;stroke-linecap:round;stroke-linejoin:round"
       id="circle53" />
    <circle
       cx="217.58"
       cy="416.39001"
       r="7.54"
       style="fill:#263238;stroke:#263238;stroke-linecap:round;stroke-linejoin:round"
       id="circle55" />
    <circle
       cx="247.73"
       cy="416.39001"
       r="7.54"
       style="fill:#263238;stroke:#263238;stroke-linecap:round;stroke-linejoin:round"
       id="circle57" />
    <circle
       cx="277.88"
       cy="416.39001"
       r="7.54"
       style="fill:#263238;stroke:#263238;stroke-linecap:round;stroke-linejoin:round"
       id="circle59" />
    <circle
       cx="308.03"
       cy="416.39001"
       r="7.54"
       style="fill:#263238;stroke:#263238;stroke-linecap:round;stroke-linejoin:round"
       id="circle61" />
    <rect
       x="24.93"
       y="429.94"
       width="442.62"
       height="12.91"
       style="fill:#263238;stroke:#263238;stroke-linecap:round;stroke-linejoin:round"
       id="rect63" />
  </g>
  <g
     id="freepik--Rocket--inject-221"
     transform="translate(-17.392087,-29.769199)">
    <path
       d="m 307.56,167.55 -10,219.24 H 194.83 l -10,-219.24 c 0,-29.9 12.51,-57.25 26.1,-78.53 12.41,-19.43 25.72,-33.8 31.24,-40.48 a 4.69,4.69 0 0 1 7.19,0 c 5.64,6.64 19.15,21.03 31.73,40.46 13.79,21.3 26.47,48.64 26.47,78.55 z"
       style="fill:#ffffff;stroke:#263238;stroke-miterlimit:10"
       id="path66" />
    <line
       x1="300.09"
       y1="190.12"
       x2="291.75"
       y2="378.85999"
       style="fill:#ffffff;stroke:#263238;stroke-miterlimit:10"
       id="line68" />
    <path
       d="m 281.56,103.41 c 10.18,18 18.66,39.77 19.38,63.27"
       style="fill:#ffffff;stroke:#263238;stroke-miterlimit:10"
       id="path70" />
    <path
       d="m 281.09,89 h -70.16 c 12.41,-19.43 25.72,-33.8 31.24,-40.48 a 4.69,4.69 0 0 1 7.19,0 C 255,55.18 268.51,69.57 281.09,89 Z"
       style="fill:#a61c3c;stroke:#263238;stroke-linecap:round;stroke-linejoin:round"
       id="path72" />
    <path
       d="m 189.68,275.11 c 0,0 -26.06,9 -35.86,33.47 -7.68,19.21 -9.71,56.15 -10.23,71.15 a 6.36,6.36 0 0 0 6.36,6.58 v 0 a 6.34,6.34 0 0 0 5.59,-3.33 c 5.1,-9.46 21,-35.88 37.58,-31.86 z"
       style="fill:#a61c3c;stroke:#263238;stroke-linecap:round;stroke-linejoin:round"
       id="path74" />
    <path
       d="m 302.74,274.89 c 0,0 26.14,9.2 35.93,33.69 7.69,19.21 9.72,56.15 10.23,71.15 a 6.36,6.36 0 0 1 -6.36,6.58 v 0 A 6.34,6.34 0 0 1 337,383 c -5.1,-9.46 -21.19,-35.73 -37.78,-31.71 z"
       style="fill:#a61c3c;stroke:#263238;stroke-linecap:round;stroke-linejoin:round"
       id="path76" />
    <path
       d="m 310,278.27 a 59.29,59.29 0 0 0 -7.29,-3.38 l -3.57,76.38 a 14.76,14.76 0 0 1 5.24,-0.3 z"
       style="fill:#263238;stroke:#263238;stroke-linecap:round;stroke-linejoin:round"
       id="path78" />
    <rect
       x="204.50999"
       y="386.63"
       width="84.629997"
       height="15.01"
       style="fill:#263238;stroke:#263238;stroke-linecap:round;stroke-linejoin:round"
       id="rect80" />
  </g>
  <g
     id="freepik--icon-4--inject-221"
     transform="translate(-17.392087,-29.769199)">
    <circle
       cx="245.33"
       cy="328.22"
       r="22.809999"
       transform="rotate(-13.54,245.40712,328.29023)"
       style="fill:#ffffff;stroke:#263238;stroke-miterlimit:10"
       id="circle83" />
    <circle
       cx="245.33"
       cy="328.22"
       r="17.959999"
       transform="rotate(-13.18,245.31656,328.19464)"
       style="fill:#a61c3c;stroke:#263238;stroke-miterlimit:10"
       id="circle85" />
    <circle
       cx="245.33"
       cy="328.22"
       r="14.76"
       transform="rotate(-13.2,245.27645,328.18125)"
       style="fill:#ffffff;stroke:#263238;stroke-miterlimit:10"
       id="circle87" />
    <circle
       cx="245.33"
       cy="328.22"
       r="10.75"
       transform="rotate(-13.22,245.31761,328.22117)"
       style="fill:#a61c3c;stroke:#263238;stroke-miterlimit:10"
       id="circle89" />
    <circle
       cx="245.33"
       cy="328.22"
       r="6.79"
       style="fill:#ffffff;stroke:#263238;stroke-miterlimit:10"
       id="circle91" />
    <path
       d="m 248.47,328.22 a 3.15,3.15 0 1 0 -3.14,3.14 3.14,3.14 0 0 0 3.14,-3.14 z"
       style="fill:#a61c3c;stroke:#263238;stroke-miterlimit:10"
       id="path93" />
    <polygon
       points="249.98,329.24 246.62,323.29 245.33,328.22 "
       style="fill:#ffffff;stroke:#263238;stroke-miterlimit:10"
       id="polygon95" />
    <line
       x1="248.61"
       y1="326.04001"
       x2="269.04001"
       y2="314.91"
       style="fill:#ffffff;stroke:#263238;stroke-miterlimit:10"
       id="line97" />
    <polygon
       points="272.39,307.74 272.39,313.84 262.48,318.57 262.79,313.23 "
       style="fill:#ffffff;stroke:#263238;stroke-miterlimit:10"
       id="polygon99" />
    <polygon
       points="262.44,318.82 267.19,321.57 276.51,316.74 272.3,313.63 "
       style="fill:#ffffff;stroke:#263238;stroke-miterlimit:10"
       id="polygon101" />
  </g>
  <g
     id="freepik--icon-3--inject-221"
     transform="translate(-17.392087,-29.769199)">
    <circle
       cx="245.33"
       cy="262.07999"
       r="22.809999"
       style="fill:none;stroke:#263238;stroke-miterlimit:10"
       id="circle104" />
    <rect
       x="231.67999"
       y="258.88"
       width="6.8600001"
       height="13.87"
       style="fill:#a61c3c;stroke:#263238;stroke-miterlimit:10"
       id="rect106" />
    <rect
       x="241.96001"
       y="254.47"
       width="6.8600001"
       height="18.280001"
       style="fill:#a61c3c;stroke:#263238;stroke-miterlimit:10"
       id="rect108" />
    <rect
       x="252.24001"
       y="250.37"
       width="6.8600001"
       height="22.379999"
       style="fill:#a61c3c;stroke:#263238;stroke-miterlimit:10"
       id="rect110" />
  </g>
  <g
     id="freepik--icon-2--inject-221"
     transform="translate(-17.392087,-29.769199)">
    <circle
       cx="245.33"
       cy="197.57001"
       r="22.809999"
       style="fill:none;stroke:#263238;stroke-miterlimit:10"
       id="circle113" />
    <path
       d="m 261.86,200.67 v -5.92 h -3.93 a 12.56,12.56 0 0 0 -1.56,-3.84 l 2.84,-2.85 -4.21,-4.18 -2.83,2.83 a 12.49,12.49 0 0 0 -3.78,-1.57 V 181 h -5.91 v 4.11 a 12.31,12.31 0 0 0 -3.7,1.53 l -3,-3 -4.18,4.19 3,3 a 12.85,12.85 0 0 0 -1.54,3.63 h -4.28 v 5.92 H 233 a 12.58,12.58 0 0 0 1.46,3.66 l -3,3 4.18,4.18 2.94,-2.93 a 12.85,12.85 0 0 0 3.67,1.61 v 4.18 h 5.91 v -4 a 12.77,12.77 0 0 0 3.81,-1.49 l 2.88,2.87 4.18,-4.18 -2.79,-2.8 a 12.65,12.65 0 0 0 1.64,-3.8 z m -16.39,3.64 a 6.75,6.75 0 1 1 6.74,-6.74 6.75,6.75 0 0 1 -6.74,6.74 z"
       style="fill:#a61c3c;stroke:#263238;stroke-miterlimit:10"
       id="path115" />
  </g>
  <g
     id="freepik--icon-1--inject-221"
     transform="translate(-17.392087,-29.769199)">
    <circle
       cx="245.33"
       cy="133.06"
       r="22.809999"
       style="fill:none;stroke:#263238;stroke-miterlimit:10"
       id="circle118" />
    <path
       d="m 257.12,127.86 a 12,12 0 0 0 -23.94,-0.51 11.85,11.85 0 0 0 2.49,7.82 13.58,13.58 0 0 1 3,8.26 v 0.64 h 13 v -0.64 a 13.18,13.18 0 0 1 2.91,-8.17 11.86,11.86 0 0 0 2.54,-7.4 z"
       style="fill:#a61c3c;stroke:#263238;stroke-miterlimit:10"
       id="path120" />
    <rect
       x="240.7"
       y="146.17"
       width="9.0100002"
       height="6.3400002"
       rx="1.9"
       style="fill:#ffffff;stroke:#263238;stroke-linecap:round;stroke-linejoin:round"
       id="rect122" />
    <rect
       x="238.64999"
       y="144.07001"
       width="13.08"
       height="2.97"
       style="fill:#ffffff;stroke:#263238;stroke-linecap:round;stroke-linejoin:round"
       id="rect124" />
    <polygon
       points="238.65,147.27 251.72,147.27 250.41,150.25 239.95,150.25 "
       style="fill:#ffffff;stroke:#263238;stroke-linecap:round;stroke-linejoin:round"
       id="polygon126" />
  </g>
  <g
     id="freepik--stage-4--inject-221"
     transform="translate(-17.392087,-29.769199)">
    <path
       d="M 68.49,286.36 A 3,3 0 0 1 67,286 a 2,2 0 0 1 -0.9,-1 4.42,4.42 0 0 1 -0.36,-1.7 l 1.71,-0.29 a 4.58,4.58 0 0 0 0.12,1 1.31,1.31 0 0 0 0.31,0.6 0.75,0.75 0 0 0 0.53,0.19 0.55,0.55 0 0 0 0.52,-0.24 1.1,1.1 0 0 0 0.14,-0.55 1.72,1.72 0 0 0 -0.3,-1 4.83,4.83 0 0 0 -0.77,-0.83 l -1,-0.87 a 4.13,4.13 0 0 1 -0.88,-1 2.68,2.68 0 0 1 -0.34,-1.41 2.38,2.38 0 0 1 0.7,-1.85 2.78,2.78 0 0 1 1.92,-0.64 2.61,2.61 0 0 1 1.2,0.24 1.78,1.78 0 0 1 0.73,0.65 2.67,2.67 0 0 1 0.36,0.87 6.24,6.24 0 0 1 0.13,0.94 l -1.7,0.26 a 7.51,7.51 0 0 0 -0.07,-0.78 1.08,1.08 0 0 0 -0.22,-0.53 0.6,0.6 0 0 0 -0.49,-0.19 0.56,0.56 0 0 0 -0.51,0.25 1.08,1.08 0 0 0 -0.17,0.57 1.47,1.47 0 0 0 0.23,0.85 4.06,4.06 0 0 0 0.65,0.69 l 1,0.86 a 5.75,5.75 0 0 1 1,1.21 3,3 0 0 1 0.44,1.67 2.56,2.56 0 0 1 -0.31,1.24 2.18,2.18 0 0 1 -0.87,0.86 2.66,2.66 0 0 1 -1.31,0.29 z"
       style="fill:#263238"
       id="path129" />
    <path
       d="M 72.94,286.22 V 278 h -1.5 v -1.5 h 5 v 1.5 h -1.5 v 8.24 z"
       style="fill:#263238"
       id="path131" />
    <path
       d="m 76.46,286.22 1.88,-9.72 h 2.2 l 1.87,9.72 h -1.83 l -0.35,-2.13 h -1.54 l -0.37,2.13 z m 2.41,-3.34 H 80 L 79.45,279 Z"
       style="fill:#263238"
       id="path133" />
    <path
       d="m 85.75,286.37 a 2.58,2.58 0 0 1 -1.56,-0.42 2.15,2.15 0 0 1 -0.82,-1.17 5.6,5.6 0 0 1 -0.25,-1.77 v -3.25 a 5.63,5.63 0 0 1 0.25,-1.8 2.14,2.14 0 0 1 0.88,-1.17 3.13,3.13 0 0 1 1.71,-0.41 3.32,3.32 0 0 1 1.65,0.35 1.91,1.91 0 0 1 0.87,1 3.81,3.81 0 0 1 0.27,1.51 v 0.56 h -1.93 v -0.68 a 4.5,4.5 0 0 0 0,-0.68 0.8,0.8 0 0 0 -0.22,-0.46 0.81,0.81 0 0 0 -0.56,-0.17 0.75,0.75 0 0 0 -0.58,0.2 1.08,1.08 0 0 0 -0.23,0.52 5,5 0 0 0 0,0.68 v 4.31 a 3.23,3.23 0 0 0 0.07,0.73 1,1 0 0 0 0.27,0.51 1,1 0 0 0 1.14,0 1.09,1.09 0 0 0 0.29,-0.53 3.42,3.42 0 0 0 0.07,-0.75 v -1 H 86 v -1.2 h 2.73 v 5 h -1.25 l -0.12,-0.87 a 1.8,1.8 0 0 1 -0.58,0.73 1.7,1.7 0 0 1 -1.03,0.23 z"
       style="fill:#263238"
       id="path135" />
    <path
       d="m 90.13,286.22 v -9.72 h 4.23 v 1.37 h -2.25 v 2.58 h 1.74 v 1.38 h -1.74 v 3.05 h 2.28 v 1.34 z"
       style="fill:#263238"
       id="path137" />
    <path
       d="M 100.94,286.22 V 284 H 98 v -1.5 l 2.53,-6 h 2.16 v 6 h 0.94 v 1.5 h -0.94 v 2.26 z m -1.49,-3.68 h 1.49 v -4.13 z"
       style="fill:#263238"
       id="path139" />
    <line
       x1="65.360001"
       y1="295.17001"
       x2="114.12"
       y2="295.17001"
       style="fill:none;stroke:#263238;stroke-miterlimit:10"
       id="line141" />
    <line
       x1="65.360001"
       y1="301.95999"
       x2="114.12"
       y2="301.95999"
       style="fill:none;stroke:#263238;stroke-miterlimit:10"
       id="line143" />
    <line
       x1="65.360001"
       y1="308.73999"
       x2="114.12"
       y2="308.73999"
       style="fill:none;stroke:#263238;stroke-miterlimit:10"
       id="line145" />
    <line
       x1="65.360001"
       y1="315.51999"
       x2="114.12"
       y2="315.51999"
       style="fill:none;stroke:#263238;stroke-miterlimit:10"
       id="line147" />
    <polyline
       points="222.52 327.75 164.32 327.75 164.32 281.1 113.08 281.1"
       style="fill:none;stroke:#263238;stroke-miterlimit:10"
       id="polyline149" />
  </g>
  <g
     id="freepik--stage-3--inject-221"
     transform="translate(-17.392087,-29.769199)">
    <path
       d="m 68.49,224.25 a 3.08,3.08 0 0 1 -1.5,-0.33 2.07,2.07 0 0 1 -0.9,-1 4.47,4.47 0 0 1 -0.36,-1.7 l 1.71,-0.29 a 4.48,4.48 0 0 0 0.12,1 1.21,1.21 0 0 0 0.31,0.6 0.76,0.76 0 0 0 0.53,0.2 0.55,0.55 0 0 0 0.52,-0.24 1.1,1.1 0 0 0 0.14,-0.55 1.72,1.72 0 0 0 -0.3,-1 4.83,4.83 0 0 0 -0.77,-0.83 l -1,-0.88 a 4.08,4.08 0 0 1 -0.88,-1 2.72,2.72 0 0 1 -0.34,-1.42 2.36,2.36 0 0 1 0.7,-1.84 2.73,2.73 0 0 1 1.92,-0.64 2.61,2.61 0 0 1 1.2,0.24 1.76,1.76 0 0 1 0.73,0.64 2.72,2.72 0 0 1 0.36,0.88 6.07,6.07 0 0 1 0.13,0.94 l -1.7,0.25 c 0,-0.29 0,-0.55 -0.07,-0.78 a 1.12,1.12 0 0 0 -0.22,-0.53 0.63,0.63 0 0 0 -0.49,-0.19 0.57,0.57 0 0 0 -0.51,0.26 1,1 0 0 0 -0.17,0.57 1.49,1.49 0 0 0 0.23,0.85 4.06,4.06 0 0 0 0.65,0.69 l 1,0.86 a 5.29,5.29 0 0 1 1,1.21 3,3 0 0 1 0.44,1.67 2.56,2.56 0 0 1 -0.31,1.24 2.32,2.32 0 0 1 -0.87,0.86 2.66,2.66 0 0 1 -1.3,0.26 z"
       style="fill:#263238"
       id="path152" />
    <path
       d="m 72.94,224.12 v -8.24 h -1.5 v -1.48 h 5 v 1.48 h -1.5 v 8.24 z"
       style="fill:#263238"
       id="path154" />
    <path
       d="m 76.46,224.12 1.88,-9.72 h 2.2 l 1.87,9.72 H 80.58 L 80.23,222 h -1.54 l -0.37,2.14 z m 2.41,-3.35 H 80 l -0.59,-3.92 z"
       style="fill:#263238"
       id="path156" />
    <path
       d="m 85.75,224.26 a 2.58,2.58 0 0 1 -1.56,-0.41 2.21,2.21 0 0 1 -0.82,-1.18 5.52,5.52 0 0 1 -0.25,-1.77 v -3.25 a 5.71,5.71 0 0 1 0.25,-1.8 2.15,2.15 0 0 1 0.88,-1.16 3.13,3.13 0 0 1 1.71,-0.41 3.32,3.32 0 0 1 1.65,0.35 1.93,1.93 0 0 1 0.87,1 3.88,3.88 0 0 1 0.27,1.51 v 0.57 H 86.82 V 217 a 4.36,4.36 0 0 0 0,-0.67 0.86,0.86 0 0 0 -0.22,-0.47 0.81,0.81 0 0 0 -0.56,-0.16 0.72,0.72 0 0 0 -0.58,0.2 1.08,1.08 0 0 0 -0.23,0.52 4.88,4.88 0 0 0 0,0.68 v 4.31 a 3.29,3.29 0 0 0 0.07,0.73 0.93,0.93 0 0 0 0.27,0.5 0.81,0.81 0 0 0 0.57,0.18 0.77,0.77 0 0 0 0.57,-0.19 1,1 0 0 0 0.29,-0.52 3.42,3.42 0 0 0 0.07,-0.75 v -1 H 86 v -1.2 h 2.73 v 5 h -1.25 l -0.12,-0.88 a 1.83,1.83 0 0 1 -0.58,0.74 1.7,1.7 0 0 1 -1.03,0.24 z"
       style="fill:#263238"
       id="path158" />
    <path
       d="m 90.13,224.12 v -9.72 h 4.23 v 1.37 h -2.25 v 2.58 h 1.74 v 1.38 h -1.74 v 3.05 h 2.28 v 1.34 z"
       style="fill:#263238"
       id="path160" />
    <path
       d="m 100.72,224.29 a 2.79,2.79 0 0 1 -1.54,-0.37 2.05,2.05 0 0 1 -0.82,-1 4.23,4.23 0 0 1 -0.25,-1.53 V 221 H 100 v 0.33 a 4,4 0 0 0 0.07,0.77 0.91,0.91 0 0 0 0.24,0.46 0.65,0.65 0 0 0 0.48,0.16 0.69,0.69 0 0 0 0.48,-0.16 1,1 0 0 0 0.21,-0.48 4.15,4.15 0 0 0 0.06,-0.77 2.5,2.5 0 0 0 -0.21,-1.13 0.9,0.9 0 0 0 -0.87,-0.41 h -0.32 v -1.37 h 0.29 a 1,1 0 0 0 0.88,-0.35 2,2 0 0 0 0.23,-1.09 2,2 0 0 0 -0.16,-0.9 0.65,0.65 0 0 0 -0.63,-0.33 0.59,0.59 0 0 0 -0.6,0.36 2.66,2.66 0 0 0 -0.15,0.93 v 0.43 h -1.89 v -0.53 a 3,3 0 0 1 0.31,-1.44 2.11,2.11 0 0 1 0.89,-0.91 2.87,2.87 0 0 1 1.4,-0.31 3.1,3.1 0 0 1 1.42,0.3 2,2 0 0 1 0.89,0.87 3,3 0 0 1 0.31,1.43 2.6,2.6 0 0 1 -0.36,1.42 1.58,1.58 0 0 1 -0.87,0.72 1.63,1.63 0 0 1 0.64,0.39 2,2 0 0 1 0.43,0.74 3.47,3.47 0 0 1 0.16,1.15 4.62,4.62 0 0 1 -0.25,1.55 2.15,2.15 0 0 1 -0.83,1.06 2.69,2.69 0 0 1 -1.53,0.4 z"
       style="fill:#263238"
       id="path162" />
    <line
       x1="65.360001"
       y1="233.07001"
       x2="114.12"
       y2="233.07001"
       style="fill:none;stroke:#263238;stroke-miterlimit:10"
       id="line164" />
    <line
       x1="65.360001"
       y1="239.85001"
       x2="114.12"
       y2="239.85001"
       style="fill:none;stroke:#263238;stroke-miterlimit:10"
       id="line166" />
    <line
       x1="65.360001"
       y1="246.64"
       x2="114.12"
       y2="246.64"
       style="fill:none;stroke:#263238;stroke-miterlimit:10"
       id="line168" />
    <line
       x1="65.360001"
       y1="253.42"
       x2="114.12"
       y2="253.42"
       style="fill:none;stroke:#263238;stroke-miterlimit:10"
       id="line170" />
    <polyline
       points="222.52 263.57 164.32 263.57 164.32 216.91 113.08 216.91"
       style="fill:none;stroke:#263238;stroke-miterlimit:10"
       id="polyline172" />
  </g>
  <g
     id="freepik--stage-2--inject-221"
     transform="translate(-17.392087,-29.769199)">
    <path
       d="m 68.49,162.15 a 3.08,3.08 0 0 1 -1.5,-0.33 2.05,2.05 0 0 1 -0.9,-1 4.41,4.41 0 0 1 -0.36,-1.69 l 1.71,-0.29 a 4.48,4.48 0 0 0 0.12,1 1.21,1.21 0 0 0 0.31,0.6 0.76,0.76 0 0 0 0.53,0.2 0.55,0.55 0 0 0 0.52,-0.24 1.12,1.12 0 0 0 0.14,-0.55 1.72,1.72 0 0 0 -0.3,-1 A 4.49,4.49 0 0 0 68,158 l -1,-0.88 a 4.08,4.08 0 0 1 -0.88,-1 2.74,2.74 0 0 1 -0.34,-1.42 2.36,2.36 0 0 1 0.7,-1.84 2.73,2.73 0 0 1 1.92,-0.64 2.61,2.61 0 0 1 1.2,0.24 1.76,1.76 0 0 1 0.73,0.64 2.72,2.72 0 0 1 0.36,0.88 6.07,6.07 0 0 1 0.13,0.94 l -1.7,0.25 a 7.51,7.51 0 0 0 -0.07,-0.78 1.12,1.12 0 0 0 -0.22,-0.53 0.6,0.6 0 0 0 -0.49,-0.19 0.57,0.57 0 0 0 -0.51,0.26 1,1 0 0 0 -0.17,0.57 1.46,1.46 0 0 0 0.23,0.84 4.06,4.06 0 0 0 0.65,0.69 l 1,0.87 a 5.46,5.46 0 0 1 1,1.2 3.07,3.07 0 0 1 0.44,1.68 2.52,2.52 0 0 1 -0.31,1.23 2.27,2.27 0 0 1 -0.87,0.87 2.66,2.66 0 0 1 -1.31,0.27 z"
       style="fill:#263238"
       id="path175" />
    <path
       d="m 72.94,162 v -8.25 h -1.5 v -1.45 h 5 v 1.47 h -1.5 V 162 Z"
       style="fill:#263238"
       id="path177" />
    <path
       d="m 76.46,162 1.88,-9.72 h 2.2 l 1.87,9.72 h -1.83 l -0.35,-2.14 H 78.69 L 78.32,162 Z m 2.41,-3.35 H 80 l -0.59,-3.92 z"
       style="fill:#263238"
       id="path179" />
    <path
       d="m 85.75,162.16 a 2.65,2.65 0 0 1 -1.56,-0.41 2.21,2.21 0 0 1 -0.82,-1.18 5.6,5.6 0 0 1 -0.25,-1.77 v -3.25 a 5.63,5.63 0 0 1 0.25,-1.8 2.15,2.15 0 0 1 0.88,-1.16 3,3 0 0 1 1.71,-0.41 3.21,3.21 0 0 1 1.65,0.35 1.93,1.93 0 0 1 0.87,1 3.84,3.84 0 0 1 0.27,1.51 v 0.57 h -1.93 v -0.69 a 4.61,4.61 0 0 0 0,-0.68 0.83,0.83 0 0 0 -0.22,-0.46 0.81,0.81 0 0 0 -0.56,-0.17 0.72,0.72 0 0 0 -0.58,0.21 1,1 0 0 0 -0.23,0.52 4.88,4.88 0 0 0 0,0.68 v 4.31 a 3.29,3.29 0 0 0 0.07,0.73 1,1 0 0 0 0.27,0.5 0.81,0.81 0 0 0 0.57,0.18 0.77,0.77 0 0 0 0.57,-0.19 1.06,1.06 0 0 0 0.29,-0.52 3.42,3.42 0 0 0 0.07,-0.75 v -1 H 86 V 157 h 2.73 v 5 h -1.25 l -0.12,-0.88 a 1.73,1.73 0 0 1 -0.58,0.73 1.64,1.64 0 0 1 -1.03,0.31 z"
       style="fill:#263238"
       id="path181" />
    <path
       d="m 90.13,162 v -9.7 h 4.23 v 1.37 h -2.25 v 2.58 h 1.74 v 1.38 h -1.74 v 3 h 2.28 V 162 Z"
       style="fill:#263238"
       id="path183" />
    <path
       d="m 98.14,162 v -1.31 l 2.37,-3.64 0.5,-0.78 a 4.49,4.49 0 0 0 0.38,-0.76 2.31,2.31 0 0 0 0.15,-0.83 1.24,1.24 0 0 0 -0.18,-0.72 0.61,0.61 0 0 0 -0.52,-0.24 0.7,0.7 0 0 0 -0.55,0.2 1,1 0 0 0 -0.26,0.52 3.11,3.11 0 0 0 -0.07,0.71 v 0.45 h -1.82 v -0.48 a 4.05,4.05 0 0 1 0.27,-1.53 2.18,2.18 0 0 1 0.86,-1.05 2.67,2.67 0 0 1 1.53,-0.38 2.56,2.56 0 0 1 1.93,0.67 2.62,2.62 0 0 1 0.65,1.88 3.16,3.16 0 0 1 -0.18,1.09 4.78,4.78 0 0 1 -0.48,1 c -0.19,0.31 -0.4,0.63 -0.63,0.95 l -1.87,2.82 h 2.89 V 162 Z"
       style="fill:#263238"
       id="path185" />
    <line
       x1="65.360001"
       y1="170.97"
       x2="114.12"
       y2="170.97"
       style="fill:none;stroke:#263238;stroke-miterlimit:10"
       id="line187" />
    <line
       x1="65.360001"
       y1="177.75"
       x2="114.12"
       y2="177.75"
       style="fill:none;stroke:#263238;stroke-miterlimit:10"
       id="line189" />
    <line
       x1="65.360001"
       y1="184.53"
       x2="114.12"
       y2="184.53"
       style="fill:none;stroke:#263238;stroke-miterlimit:10"
       id="line191" />
    <line
       x1="65.360001"
       y1="191.32001"
       x2="114.12"
       y2="191.32001"
       style="fill:none;stroke:#263238;stroke-miterlimit:10"
       id="line193" />
    <polyline
       points="222.52 199.39 164.32 199.39 164.32 152.73 113.08 152.73"
       style="fill:none;stroke:#263238;stroke-miterlimit:10"
       id="polyline195" />
  </g>
  <g
     id="freepik--stage-1--inject-221"
     transform="translate(-17.392087,-29.769199)">
    <path
       d="m 68.49,89 a 3.08,3.08 0 0 1 -1.5,-0.33 2.07,2.07 0 0 1 -0.9,-1 4.47,4.47 0 0 1 -0.36,-1.7 l 1.71,-0.29 a 4.48,4.48 0 0 0 0.12,1 1.21,1.21 0 0 0 0.31,0.6 0.76,0.76 0 0 0 0.53,0.2 0.55,0.55 0 0 0 0.52,-0.24 1.1,1.1 0 0 0 0.14,-0.55 1.72,1.72 0 0 0 -0.3,-1 4.83,4.83 0 0 0 -0.77,-0.83 L 67,84 a 4.08,4.08 0 0 1 -0.88,-1 2.72,2.72 0 0 1 -0.34,-1.42 2.36,2.36 0 0 1 0.7,-1.84 2.73,2.73 0 0 1 1.9,-0.74 2.61,2.61 0 0 1 1.2,0.24 1.76,1.76 0 0 1 0.73,0.64 2.72,2.72 0 0 1 0.36,0.88 6.07,6.07 0 0 1 0.13,0.94 L 69.1,82 c 0,-0.29 0,-0.55 -0.07,-0.78 a 1.12,1.12 0 0 0 -0.22,-0.53 0.63,0.63 0 0 0 -0.49,-0.19 0.57,0.57 0 0 0 -0.51,0.26 1,1 0 0 0 -0.17,0.57 1.49,1.49 0 0 0 0.23,0.85 4.06,4.06 0 0 0 0.65,0.69 l 1,0.86 a 5.29,5.29 0 0 1 1,1.21 3,3 0 0 1 0.48,1.64 2.56,2.56 0 0 1 -0.31,1.24 2.32,2.32 0 0 1 -0.87,0.86 2.66,2.66 0 0 1 -1.33,0.32 z"
       style="fill:#263238"
       id="path198" />
    <path
       d="m 72.94,88.86 v -8.24 h -1.5 v -1.48 h 5 v 1.48 h -1.5 v 8.24 z"
       style="fill:#263238"
       id="path200" />
    <path
       d="m 76.46,88.86 1.88,-9.72 h 2.2 l 1.87,9.72 h -1.83 l -0.35,-2.14 h -1.54 l -0.37,2.14 z m 2.41,-3.35 H 80 l -0.59,-3.92 z"
       style="fill:#263238"
       id="path202" />
    <path
       d="m 85.75,89 a 2.58,2.58 0 0 1 -1.56,-0.41 2.21,2.21 0 0 1 -0.82,-1.18 5.52,5.52 0 0 1 -0.25,-1.77 v -3.25 a 5.71,5.71 0 0 1 0.25,-1.8 2.15,2.15 0 0 1 0.88,-1.16 A 3.13,3.13 0 0 1 86,79 a 3.32,3.32 0 0 1 1.65,0.35 1.93,1.93 0 0 1 0.87,1 3.88,3.88 0 0 1 0.27,1.51 v 0.57 h -1.97 v -0.69 a 4.36,4.36 0 0 0 0,-0.67 0.86,0.86 0 0 0 -0.22,-0.47 0.81,0.81 0 0 0 -0.56,-0.16 0.72,0.72 0 0 0 -0.58,0.2 1.08,1.08 0 0 0 -0.23,0.52 4.88,4.88 0 0 0 0,0.68 v 4.31 a 3.29,3.29 0 0 0 0.07,0.73 0.93,0.93 0 0 0 0.27,0.5 0.81,0.81 0 0 0 0.57,0.18 0.77,0.77 0 0 0 0.57,-0.19 1.06,1.06 0 0 0 0.29,-0.52 3.42,3.42 0 0 0 0,-0.75 v -1 h -1 v -1.2 h 2.73 v 5 H 87.48 L 87.36,88 A 1.83,1.83 0 0 1 86.78,88.74 1.7,1.7 0 0 1 85.75,89 Z"
       style="fill:#263238"
       id="path204" />
    <path
       d="m 90.13,88.86 v -9.72 h 4.23 v 1.37 h -2.25 v 2.58 h 1.74 v 1.38 h -1.74 v 3 h 2.28 v 1.34 z"
       style="fill:#263238"
       id="path206" />
    <path
       d="m 99.34,88.86 v -7.8 l -0.29,0.13 -0.4,0.14 -0.41,0.14 -0.3,0.12 v -1.37 l 0.39,-0.19 0.52,-0.27 a 3.76,3.76 0 0 0 0.52,-0.31 1.86,1.86 0 0 0 0.38,-0.31 h 1.44 v 9.72 z"
       style="fill:#263238"
       id="path208" />
    <line
       x1="65.360001"
       y1="97.809998"
       x2="114.12"
       y2="97.809998"
       style="fill:none;stroke:#263238;stroke-miterlimit:10"
       id="line210" />
    <line
       x1="65.360001"
       y1="104.59"
       x2="114.12"
       y2="104.59"
       style="fill:none;stroke:#263238;stroke-miterlimit:10"
       id="line212" />
    <line
       x1="65.360001"
       y1="111.38"
       x2="114.12"
       y2="111.38"
       style="fill:none;stroke:#263238;stroke-miterlimit:10"
       id="line214" />
    <line
       x1="65.360001"
       y1="118.16"
       x2="114.12"
       y2="118.16"
       style="fill:none;stroke:#263238;stroke-miterlimit:10"
       id="line216" />
    <polyline
       points="222.52 133.06 164.32 133.06 164.32 84.25 113.08 84.25"
       style="fill:none;stroke:#263238;stroke-miterlimit:10"
       id="polyline218" />
  </g>
  <g
     id="freepik--Character--inject-221"
     transform="translate(-17.392087,-29.769199)">
    <path
       d="m 412.54,465.13 a 20,20 0 0 1 -4.48,5.92 c -2.72,2.24 -7.68,5.93 -8.8,6.89 -1.12,0.96 -1,1.92 2.88,3 3.88,1.08 9.44,1.12 12.32,0 2.88,-1.12 5.61,-1 7.05,-1.6 1.44,-0.6 2.24,-1.28 2.4,-2.88 0.16,-1.6 -1.28,-11.46 -1.28,-11.46 z"
       style="fill:#a61c3c;stroke:#263238;stroke-linecap:round;stroke-linejoin:round"
       id="path221" />
    <path
       d="m 423.89,475.36 a 40.44,40.44 0 0 0 -5.58,2.1 c -4.65,2.08 -5.45,2.72 -11.21,2.72 a 11.34,11.34 0 0 1 -7.49,-2.53 l -0.35,0.29 c -1.12,1 -1,1.92 2.88,3 3.88,1.08 9.44,1.12 12.32,0 2.88,-1.12 5.61,-1 7.05,-1.6 1.44,-0.6 2.24,-1.28 2.4,-2.88 a 9.29,9.29 0 0 0 -0.02,-1.1 z"
       style="fill:#ffffff;stroke:#263238;stroke-linecap:round;stroke-linejoin:round"
       id="path223" />
    <path
       d="m 431.27,466.89 c 0,0 -2.88,9 -4.16,11.21 -1.28,2.21 -4.16,4.48 -4,6.08 0.16,1.6 3,2.08 8,2.08 5,0 8.33,-1 9.77,-3.52 1.44,-2.52 1.6,-3.2 2.4,-4.8 0.8,-1.6 -0.48,-11.21 -0.48,-11.21 0,0 -10.09,0.32 -11.53,0.16 z"
       style="fill:#a61c3c;stroke:#263238;stroke-linecap:round;stroke-linejoin:round"
       id="path225" />
    <path
       d="m 440.88,482.74 c 1.44,-2.56 1.6,-3.2 2.4,-4.8 a 8.91,8.91 0 0 0 0.24,-3.17 c -0.59,1 -1.26,2.28 -2,3.65 -1.92,3.52 -3,5.12 -9.61,5.44 a 25.81,25.81 0 0 1 -8.57,-0.71 2,2 0 0 0 -0.23,1 c 0.16,1.6 3,2.08 8,2.08 5,0 8.33,-0.93 9.77,-3.49 z"
       style="fill:#ffffff;stroke:#263238;stroke-linecap:round;stroke-linejoin:round"
       id="path227" />
    <path
       d="m 398,355.64 c 0,0 -0.8,15.85 -0.16,28 0.64,12.15 7.36,35.22 7.36,35.22 0,0 3.2,19.53 4.16,25.13 0.96,5.6 3,18.25 3,18.25 l 10.89,-0.64 v -18.4 c 0,-3.36 -0.48,-24.49 -0.48,-24.49 0,0 5.6,28.81 6.08,32 0.48,3.19 1.6,12.65 1.6,12.65 a 24.83,24.83 0 0 0 5.6,1.12 c 2.08,0 7.21,-1.44 7.21,-1.44 0,0 1.92,-19.21 1.76,-25 -0.16,-5.79 -2.72,-14.41 -3.52,-17 -0.8,-2.59 -3.21,-10.08 -3,-10.72 0.21,-0.64 1.93,-21.77 1.93,-26.1 v -11.45 l -3.37,-17 -1.44,-2.56 c 0,0 -18.73,3.2 -27.21,1 -8.48,-2.2 -10.72,-2.88 -10.72,-2.88 z"
       style="fill:#263238;stroke:#263238;stroke-linecap:round;stroke-linejoin:round"
       id="path229" />
    <path
       d="m 409.5,377.09 5.92,4.48 c 0,0 3.53,24.17 5.61,31.7"
       style="fill:none;stroke:#949494;stroke-linecap:round;stroke-linejoin:round"
       id="path231" />
    <path
       d="m 410.62,457.61 c 0,0 5.76,-0.16 9.77,-0.16 4.01,0 4.64,0.16 4.64,1.12 0,0.96 0.48,6.72 0,7.36 -0.48,0.64 -5.12,0.64 -7.52,0.64 -2.4,0 -5.61,0.48 -5.93,-1 a 37.21,37.21 0 0 0 -0.8,-4.48 c -0.48,-1.24 -1.12,-2.36 -0.16,-3.48 z"
       style="fill:#707070;stroke:#263238;stroke-linecap:round;stroke-linejoin:round"
       id="path233" />
    <path
       d="m 429,458.73 a 6.34,6.34 0 0 0 -0.32,2.4 49.16,49.16 0 0 1 0.48,5.44 c 0,1.44 -0.32,1.12 3,2.24 3.32,1.12 10.57,0 11.37,-1 0.8,-1 0.8,-6.08 0.8,-7.2 0,-1.12 -0.32,-1.6 -1.44,-1.28 -1.12,0.32 -6.89,1.28 -9,0.8 a 21.4,21.4 0 0 1 -3.52,-1.12 c 0,0 -1.02,-1.24 -1.37,-0.28 z"
       style="fill:#707070;stroke:#263238;stroke-linecap:round;stroke-linejoin:round"
       id="path235" />
    <path
       d="m 430.63,285.69 -6.08,-3.2 -15.21,4.16 c 0,0 -4.32,7.52 -5.12,13.93 -0.8,6.41 -1.92,38.73 -1.92,44.66 0,5.93 -0.32,10.4 -0.32,10.4 0,0 4,2.88 11,3.2 a 78.9,78.9 0 0 0 13.13,-0.32 c 1.6,-0.16 6.88,-3.2 6.88,-3.2 0,0 -1,-30.41 -1,-34.74 0,-4.33 3,-24.81 3.68,-27.69 0.68,-2.88 -5.04,-7.2 -5.04,-7.2 z"
       style="fill:#707070;stroke:#263238;stroke-linecap:round;stroke-linejoin:round"
       id="path237" />
    <path
       d="m 421.44,288.54 c 1.12,3.07 -0.93,6.63 -4.57,8 -3.64,1.37 -7.5,-0.08 -8.62,-3.15 -1.12,-3.07 0.93,-6.63 4.57,-8 3.64,-1.37 7.5,0.08 8.62,3.15 z"
       style="fill:#ffffff;stroke:#263238;stroke-linecap:round;stroke-linejoin:round"
       id="path239" />
    <path
       d="m 412.86,290.65 c 0,0 5.93,6.56 6.41,6.24 0.48,-0.32 9.12,-12.16 9.12,-12.16 l -2.24,-3.68 z"
       style="fill:#ffffff;stroke:#263238;stroke-linecap:round;stroke-linejoin:round"
       id="path241" />
    <path
       d="m 412.38,283.45 a 18.16,18.16 0 0 1 -1.76,3 c -0.8,1 -2.88,8.32 -2.88,8.32 l 5.12,-4.16 c 0,0 0.32,-4.64 0.48,-5.76 a 1.33,1.33 0 0 0 -0.96,-1.4 z"
       style="fill:#ffffff;stroke:#263238;stroke-linecap:round;stroke-linejoin:round"
       id="path243" />
    <path
       d="m 411.42,275.12 a 18.21,18.21 0 0 1 1,3.37 c 0,0.8 -0.64,12.64 0.48,12.16 1.12,-0.48 12.81,-8.32 13.29,-9.6 0.48,-1.28 -0.32,-9 0,-10.89 0.32,-1.89 1,-4.8 1,-4.8 0,0 -4.64,4.8 -8.32,6.88 a 29.72,29.72 0 0 1 -7.45,2.88 z"
       style="fill:#b5b5b5;stroke:#263238;stroke-linecap:round;stroke-linejoin:round"
       id="path245" />
    <path
       d="m 412.38,278.49 c 0,0.39 -0.15,3.43 -0.18,6.38 l 10.57,-10.8 -11.21,1.44 a 14.11,14.11 0 0 1 0.82,2.98 z"
       style="fill:#263238;stroke:#263238;stroke-linecap:round;stroke-linejoin:round"
       id="path247" />
    <path
       d="m 440.24,336.27 3.2,-11.68 c 0,0 1,-15.55 2.62,-22.21 a 21.91,21.91 0 0 1 5.7,-10.29 c -0.8,-1.44 -10.72,-4.16 -13.77,-5.28 -3.05,-1.12 -10.72,-3.81 -10.72,-3.81 0,0 -5.44,20.65 -5.76,29.45 -0.32,8.8 -0.8,14.25 0.48,22.73 1.28,8.48 -5.59,28.7 -2.23,33.83 3.36,5.13 10.19,5 13.32,5.66 6,1.33 14.16,-2.21 14.32,-3.33 0.16,-1.12 -2.68,-7 -5.08,-17.27 a 72.59,72.59 0 0 1 -2.08,-17.8 z"
       style="fill:#a61c3c;stroke:#263238;stroke-linecap:round;stroke-linejoin:round"
       id="path249" />
    <polyline
       points="437.95 353.15 424.5 351.51 423.84 355.78 438.28 358.41"
       style="fill:none;stroke:#263238;stroke-linecap:round;stroke-linejoin:round"
       id="polyline251" />
    <path
       d="m 396.27,292.83 a 8,8 0 0 0 -4.8,3.11 c -1.7,2.54 -15,36.73 -15.26,38.71 -0.26,1.98 1.41,5.08 4,6.21 2.59,1.13 3.39,3.39 4.24,2 0.85,-1.39 9.33,-13 9.33,-13 l 3.67,-32.77 z"
       style="fill:#a61c3c;stroke:#263238;stroke-linecap:round;stroke-linejoin:round"
       id="path253" />
    <path
       d="m 382.71,323.91 c 0,0 -7.91,9.89 -8.2,12.15 -0.29,2.26 -0.56,4.8 0.57,6.5 1.13,1.7 6.21,2.82 8.19,2 1.98,-0.82 5.65,-11.3 5.65,-11.3 z"
       style="fill:#a61c3c;stroke:#263238;stroke-linecap:round;stroke-linejoin:round"
       id="path255" />
    <path
       d="m 411.9,284.09 a 81.86,81.86 0 0 0 -4.64,13.44 166.36,166.36 0 0 0 -3,26.42 c -0.16,7.68 -1.28,39.85 -1.44,42.58 -0.16,2.73 -2.24,4.16 -5.28,4.8 a 21,21 0 0 1 -6.73,0 c 0,0 3.36,-22.89 3.52,-26.57 0.16,-3.68 0.16,-9.13 0.16,-12.17 0,-3.04 -1.49,-18.59 -1.61,-22.24 -0.12,-3.65 2.91,-16.72 3.39,-17.52 0.48,-0.8 8.75,-4.1 9.39,-4.58 0.64,-0.48 4.48,-2.88 6.24,-4.16 z"
       style="fill:#a61c3c;stroke:#263238;stroke-linecap:round;stroke-linejoin:round"
       id="path257" />
    <polyline
       points="394.29 354.47 399.87 353.81 400.86 350.86 394.95 351.51"
       style="fill:none;stroke:#263238;stroke-linecap:round;stroke-linejoin:round"
       id="polyline259" />
    <path
       d="m 424.87,337.55 c -0.16,2.88 -0.16,4.48 -0.16,4.48"
       style="fill:none;stroke:#263238;stroke-linecap:round;stroke-linejoin:round"
       id="path261" />
    <path
       d="m 432.11,291.07 c 0.05,5.4 0.12,13.19 0.12,13.19 l -5.92,2.74 3.52,6.24 c 0,0 -2.93,13.09 -4.29,20.19"
       style="fill:none;stroke:#263238;stroke-linecap:round;stroke-linejoin:round"
       id="path263" />
    <path
       d="m 432.07,286 c 0,0.12 0,1.4 0,3.23"
       style="fill:none;stroke:#263238;stroke-linecap:round;stroke-linejoin:round"
       id="path265" />
    <path
       d="m 401.21,331.29 c -1.32,-7.75 -3.55,-20.47 -3.55,-20.47 l 5.28,-5.6 -3.68,-2.88 c 0,0 1.12,-2.24 2.08,-4 0.96,-1.76 5.12,-9.28 5.12,-9.28"
       style="fill:none;stroke:#263238;stroke-linecap:round;stroke-linejoin:round"
       id="path267" />
    <path
       d="m 402,336 c -0.1,-0.65 -0.25,-1.55 -0.43,-2.63"
       style="fill:none;stroke:#263238;stroke-linecap:round;stroke-linejoin:round"
       id="path269" />
    <path
       d="m 406.16,256.33 c -0.5,0 -6.74,0.4 -7.07,-4.66 a 5.9,5.9 0 0 1 4.1,-6.27 c 0,0 -3.9,-4.28 1.12,-6.63 5.02,-2.35 11,-1.12 11,-1.12 0,0 -0.58,-3.9 4.05,-2.75 4.63,1.15 7.79,6.39 7.92,6.9 0.13,0.51 6.54,2.62 8.67,5.95 2.13,3.33 1.5,7.64 -0.2,10.55 a 77.21,77.21 0 0 1 -5.36,7.36 4.2,4.2 0 0 1 -4.23,0.56 c -2.45,-1 -4.07,-1.78 -3.94,-3.79 0.13,-2.01 -0.51,-7.41 -1.14,-8.12 -0.63,-0.71 -2.11,-1 -5.17,-0.35 -3.06,0.65 -9.75,2.37 -9.75,2.37 z"
       style="fill:#263238;stroke:#263238;stroke-linecap:round;stroke-linejoin:round"
       id="path271" />
    <path
       d="m 406.09,254.82 a 45.69,45.69 0 0 1 -0.73,6 132,132 0 0 0 -2.27,13.94 c -0.2,3 3,5.4 4.66,5.51 1.66,0.11 4.46,-1.38 7,-1.88 2.54,-0.5 9.41,-2.9 10.53,-4.5 1.12,-1.6 1.48,-2.08 1.48,-2.08 0,0 5.26,-1 6.05,-5.3 0.79,-4.3 -2,-4.84 -4.1,-3.8 a 16.24,16.24 0 0 0 -3.16,2 c 0,0 -1.5,-0.1 -1.25,-1.26 a 13.59,13.59 0 0 0 0.47,-2.15 c 0.06,-0.83 -0.41,-1.37 -0.95,-3.25 -0.54,-1.88 -0.89,-1.73 -0.12,-3.36 0.77,-1.63 2.32,-4.54 2.32,-4.54 0,0 -14.45,0.51 -19.93,4.67 z"
       style="fill:#b5b5b5;stroke:#263238;stroke-linecap:round;stroke-linejoin:round"
       id="path273" />
    <path
       d="m 413.11,255.93 a 7,7 0 0 1 4.1,0.76"
       style="fill:none;stroke:#263238;stroke-linecap:round;stroke-linejoin:round"
       id="path275" />
    <path
       d="m 408.81,255.65 a 3.15,3.15 0 0 0 -2.6,-0.09"
       style="fill:none;stroke:#263238;stroke-linecap:round;stroke-linejoin:round"
       id="path277" />
    <path
       d="m 407.08,270.15 c 0,0 2.11,1.15 4.92,-0.85"
       style="fill:none;stroke:#263238;stroke-linecap:round;stroke-linejoin:round"
       id="path279" />
    <path
       d="m 415.35,259.29 a 1,1 0 0 1 -1.06,0.94 1.0021103,1.0021103 0 1 1 0.13,-2 1,1 0 0 1 0.93,1.06 z"
       style="fill:#263238"
       id="path281" />
    <path
       d="m 408,258.3 a 0.84,0.84 0 1 1 -0.78,-0.89 0.83,0.83 0 0 1 0.78,0.89 z"
       style="fill:#263238"
       id="path283" />
    <path
       d="m 409.43,258.54 c 0,0 -6.62,5.29 -6.08,7.17 0.54,1.88 6.09,1.75 6.09,1.75"
       style="fill:#b5b5b5;stroke:#263238;stroke-linecap:round;stroke-linejoin:round"
       id="path285" />
    <path
       d="m 386.1,314.3 3.67,-3.39 c 0,0 4.24,2 4,4 -0.24,2 -7.67,-0.61 -7.67,-0.61 z"
       style="fill:#b5b5b5;stroke:#263238;stroke-linecap:round;stroke-linejoin:round"
       id="path287" />
    <path
       d="m 384.39,315.88 3.68,-3.39 c 0,0 4.24,2 3.95,4 -0.29,2 -7.63,-0.61 -7.63,-0.61 z"
       style="fill:#b5b5b5;stroke:#263238;stroke-linecap:round;stroke-linejoin:round"
       id="path289" />
    <path
       d="m 398.33,314.86 c 0,0 0.36,-3 1.7,-3 1.34,0 2.55,0.85 2.19,2.43 a 17.92,17.92 0 0 1 -1.22,3.29 z"
       style="fill:#b5b5b5;stroke:#263238;stroke-linecap:round;stroke-linejoin:round"
       id="path291" />
    <path
       d="m 389.77,310.91 c 0,0 0,-1.41 3.11,-0.56 3.11,0.85 4.8,4.24 3.95,5.65 -0.85,1.41 -3.1,-1.13 -3.1,-1.13 0,0 -1.13,-3.11 -3.96,-3.96 z"
       style="fill:#b5b5b5;stroke:#263238;stroke-linecap:round;stroke-linejoin:round"
       id="path293" />
    <polygon
       points="412.48,346.27 400.83,314.97 374.19,313.64 387.84,344.28 "
       style="fill:#263238;stroke:#263238;stroke-linecap:round;stroke-linejoin:round"
       id="polygon295" />
    <path
       d="m 445.73,289.5 c 0,0 -5.18,2.06 -6.19,5.71 -1.01,3.65 0,38.31 0,38.31 l -23.45,-1.13 -0.85,10.73 28.86,7.35 c 0,0 4.2,0.9 6.26,-1.8 2.06,-2.7 4.91,-41 5.26,-45.09 0.35,-4.09 0.64,-9.92 -2.9,-11.81 a 15.31,15.31 0 0 0 -6.99,-2.27 z"
       style="fill:#a61c3c;stroke:#263238;stroke-linecap:round;stroke-linejoin:round"
       id="path297" />
    <path
       d="m 439.5,333.52 c 0,0 4.36,0.92 6.66,2.89"
       style="fill:none;stroke:#263238;stroke-linecap:round;stroke-linejoin:round"
       id="path299" />
    <path
       d="m 416.05,332.39 c 0,0 -1.13,0.56 -4.24,-1.7 a 13.12,13.12 0 0 0 -5.65,-2.54 l 0.56,3.11 c 0,0 -9.32,1.13 -10.17,2 -0.85,0.87 -1.69,3.11 0.57,4 2.26,0.89 2.82,0 3.67,1.41 a 14.36,14.36 0 0 0 5.65,4.24 c 1.7,0.56 9,-2.26 9,-2.26 z"
       style="fill:#b5b5b5;stroke:#263238;stroke-linecap:round;stroke-linejoin:round"
       id="path301" />
  </g>
</svg>
