<?xml version="1.0" encoding="UTF-8" standalone="no"?>
<svg
   viewBox="0 0 416.52176 336.79999"
   version="1.1"
   id="svg298"
   sodipodi:docname="Business deal-bro.svg"
   width="416.52176"
   height="336.79999"
   inkscape:version="1.1 (c68e22c387, 2021-05-23)"
   xmlns:inkscape="http://www.inkscape.org/namespaces/inkscape"
   xmlns:sodipodi="http://sodipodi.sourceforge.net/DTD/sodipodi-0.dtd"
   xmlns="http://www.w3.org/2000/svg"
   xmlns:svg="http://www.w3.org/2000/svg">
  <sodipodi:namedview
     id="namedview300"
     pagecolor="#ffffff"
     bordercolor="#666666"
     borderopacity="1.0"
     inkscape:pageshadow="2"
     inkscape:pageopacity="0.0"
     inkscape:pagecheckerboard="0"
     showgrid="false"
     inkscape:zoom="1.244"
     inkscape:cx="204.98392"
     inkscape:cy="150.32154"
     inkscape:window-width="1368"
     inkscape:window-height="850"
     inkscape:window-x="-6"
     inkscape:window-y="-6"
     inkscape:window-maximized="1"
     inkscape:current-layer="svg298" />
  <defs
     id="defs29">
    <clipPath
       id="freepik--clip-path--inject-9">
      <rect
         x="115.8"
         y="106.4"
         width="134.28999"
         height="115.22"
         style="fill:#ffffff"
         id="rect2" />
    </clipPath>
    <clipPath
       id="freepik--clip-path-2--inject-9">
      <path
         d="m 197.66,285.64 c 0,0 2.8,12.51 2.64,16 -0.16,3.49 -6.75,12.84 -6.92,10.7 a 14.6,14.6 0 0 1 1.16,-5.27 c 0,0 -2.31,3.13 -3.13,3 -0.82,-0.13 0.66,-4.45 0.66,-4.45 0,0 -2.47,2.47 -3.3,2 -0.83,-0.47 1.81,-4.12 1.81,-4.12 0,0 -3,3.13 -3.12,2.14 -0.12,-0.99 2.63,-5.1 2.63,-5.1 0,0 -2.8,-5.93 -3,-8.4 a 8,8 0 0 1 1.64,-4.77 z"
         style="fill:#ffffff;stroke:#263238;stroke-linecap:round;stroke-linejoin:round"
         id="path5" />
    </clipPath>
    <clipPath
       id="freepik--clip-path-3--inject-9">
      <path
         d="m 197,285.64 c 0,0 2,8.73 1.82,11.2 -0.18,2.47 -2.64,9.71 -4.45,8.39 -1.81,-1.32 1.15,-6.25 1.15,-6.25 0,0 -5.08,-3.57 -6.25,-6.92 -1.17,-3.35 -0.5,-4.77 -0.5,-4.77 z"
         style="fill:#ffffff;stroke:#263238;stroke-linecap:round;stroke-linejoin:round"
         id="path8" />
    </clipPath>
    <clipPath
       id="freepik--clip-path-4--inject-9">
      <path
         d="m 156.5,164.91 c 0,0 -5.45,4.88 -6.39,6.57 -0.94,1.69 -12.38,18 -12.57,29.66 -0.19,11.66 8.46,46.92 8.46,46.92 l -13,33.07 3.76,1.5 3.75,-4.13 v 6.2 c 0,0 4.32,3.94 15.58,7.69 11.26,3.75 25.72,-0.56 25.72,-0.56 l 4.31,-27.44 v 27.07 l 5.07,-3.38 0.41,-45.08 c 0,0 4.13,-24.21 4.13,-31 0,-6.79 -11.45,-28 -16.52,-34.16 -5.07,-6.16 -13.52,-11.26 -16,-13.14 -2.48,-1.88 -6.71,0.21 -6.71,0.21 z"
         style="fill:#263238;stroke:#263238;stroke-linecap:round;stroke-linejoin:round"
         id="path11" />
    </clipPath>
    <clipPath
       id="freepik--clip-path-5--inject-9">
      <path
         d="m 186.91,132.62 c 0,0 4.56,3.5 5.13,6.88 0.57,3.38 -1.13,7.14 -0.94,8.45 0.19,1.31 3.56,4.32 3.38,5.82 -0.18,1.5 -3,2.06 -3,2.06 0,0 -3.06,11.14 -3.81,13 -0.75,1.86 -4.51,1.31 -7.32,0.94 l -5.07,15 -16.72,-19.67 2.63,-7.89 c 0,0 -7.13,-8.63 -7.7,-17.83 -0.57,-9.2 6.76,-15.58 17.27,-16.89 10.51,-1.31 19.34,3.75 20.46,5.82 1.12,2.07 -4.31,4.31 -4.31,4.31 z"
         style="fill:#ffffff;stroke:#263238;stroke-linecap:round;stroke-linejoin:round"
         id="path14" />
    </clipPath>
    <clipPath
       id="freepik--clip-path-6--inject-9">
      <path
         d="m 217,238.88 c 0,0 6.4,-3.6 7.4,-3.6 1,0 6.8,5.2 6.8,5.2 l -2.4,3.6 c 0,0 7.6,3.8 6.8,5.2 -0.8,1.4 -3.8,3.6 -7,4 -3.2,0.4 -12.2,-5.4 -12.2,-5.4 z"
         style="fill:#ffffff;stroke:#263238;stroke-linecap:round;stroke-linejoin:round"
         id="path17" />
    </clipPath>
    <clipPath
       id="freepik--clip-path-7--inject-9">
      <path
         d="m 147.57,181.48 c 0,0 -5.4,10.4 -6,15.6 -0.6,5.2 21.4,46.6 23,48 1.6,1.4 48.39,2.8 48.39,2.8 l 2,-10.2 -40,-11.4 -13.6,-41.8"
         style="fill:#263238;stroke:#263238;stroke-linecap:round;stroke-linejoin:round"
         id="path20" />
    </clipPath>
    <clipPath
       id="freepik--clip-path-8--inject-9">
      <path
         d="m 315,178 a 37.14,37.14 0 0 0 -3.34,-5.26 20,20 0 0 0 -4.94,-3.67 c -6.36,-2.51 -14.68,1.13 -19.51,5.73 -0.64,1.42 -5.68,12.92 -8.07,22.32 -2.55,10 -2.23,22.64 -2.23,22.64 0,0 8.45,-10.84 19.92,-23.59 a 152.09,152.09 0 0 1 18.7,-17.57 z"
         style="fill:#263238;stroke:#263238;stroke-linecap:round;stroke-linejoin:round"
         id="path23" />
    </clipPath>
    <clipPath
       id="freepik--clip-path-9--inject-9">
      <path
         d="m 275,135.63 c 0,0 -3.83,10.88 -3.47,12.44 0.36,1.56 0.72,3.94 0.72,3.94 0,0 -6,7.41 -5.26,8.25 0.74,0.84 4.06,1.79 4.06,1.79 0,0 2.75,11.48 3.83,12.55 1.08,1.07 7.77,-1.31 7.77,-1.31 l 7.17,9.08 14.7,-14.1 -1.79,-7.41 c 0,0 7.77,-13.63 7.65,-20.09 -0.12,-6.46 -13.38,-15.06 -22.83,-14.94 -9.45,0.12 -18.29,3.59 -16.5,6.1 a 13.54,13.54 0 0 0 3.95,3.7 z"
         style="fill:#ffffff;stroke:#263238;stroke-linecap:round;stroke-linejoin:round"
         id="path26" />
    </clipPath>
  </defs>
  <g
     id="freepik--Window--inject-9"
     transform="translate(-44.918227,-100)">
    <polygon
       points="268.42,100.58 340.64,100.58 339.91,111.11 267.69,111.11 "
       style="fill:#cccccc"
       id="polygon31" />
    <polygon
       points="268.42,115.33 340.64,115.33 339.91,125.86 267.69,125.86 "
       style="fill:#cccccc"
       id="polygon33" />
    <polygon
       points="268.42,130.08 340.64,130.08 339.91,140.62 267.69,140.62 "
       style="fill:#cccccc"
       id="polygon35" />
    <polygon
       points="268.42,144.83 340.64,144.83 339.91,155.37 267.69,155.37 "
       style="fill:#cccccc"
       id="polygon37" />
    <polygon
       points="268.42,159.58 340.64,159.58 339.91,170.12 267.69,170.12 "
       style="fill:#cccccc"
       id="polygon39" />
    <polygon
       points="268.42,174.34 340.64,174.34 339.91,184.87 267.69,184.87 "
       style="fill:#cccccc"
       id="polygon41" />
    <polygon
       points="268.42,189.09 340.64,189.09 339.91,199.62 267.69,199.62 "
       style="fill:#cccccc"
       id="polygon43" />
    <polygon
       points="268.42,203.84 340.64,203.84 339.91,214.38 267.69,214.38 "
       style="fill:#cccccc"
       id="polygon45" />
    <polygon
       points="268.42,218.59 340.64,218.59 339.91,229.13 267.69,229.13 "
       style="fill:#cccccc"
       id="polygon47" />
    <polygon
       points="268.42,233.34 340.64,233.34 339.91,243.88 267.69,243.88 "
       style="fill:#cccccc"
       id="polygon49" />
    <polygon
       points="268.42,248.09 340.64,248.09 339.91,258.63 267.69,258.63 "
       style="fill:#cccccc"
       id="polygon51" />
    <polygon
       points="344.78,100.58 417.01,100.58 416.28,111.11 344.05,111.11 "
       style="fill:#cccccc"
       id="polygon53" />
    <polygon
       points="344.78,115.33 417.01,115.33 416.28,125.86 344.05,125.86 "
       style="fill:#cccccc"
       id="polygon55" />
    <polygon
       points="344.78,130.08 417.01,130.08 416.28,140.62 344.05,140.62 "
       style="fill:#cccccc"
       id="polygon57" />
    <polygon
       points="344.78,144.83 417.01,144.83 416.28,155.37 344.05,155.37 "
       style="fill:#cccccc"
       id="polygon59" />
    <polygon
       points="344.78,159.58 417.01,159.58 416.28,170.12 344.05,170.12 "
       style="fill:#cccccc"
       id="polygon61" />
    <polygon
       points="344.78,174.34 417.01,174.34 416.28,184.87 344.05,184.87 "
       style="fill:#cccccc"
       id="polygon63" />
    <polygon
       points="344.78,189.09 417.01,189.09 416.28,199.62 344.05,199.62 "
       style="fill:#cccccc"
       id="polygon65" />
    <polygon
       points="344.78,203.84 417.01,203.84 416.28,214.38 344.05,214.38 "
       style="fill:#cccccc"
       id="polygon67" />
    <polygon
       points="344.78,218.59 417.01,218.59 416.28,229.13 344.05,229.13 "
       style="fill:#cccccc"
       id="polygon69" />
    <polygon
       points="344.78,233.34 417.01,233.34 416.28,243.88 344.05,243.88 "
       style="fill:#cccccc"
       id="polygon71" />
    <polygon
       points="344.78,248.09 417.01,248.09 416.28,258.63 344.05,258.63 "
       style="fill:#cccccc"
       id="polygon73" />
  </g>
  <g
     id="freepik--Picture--inject-9"
     transform="translate(-44.918227,-100)">
    <rect
       x="108.34"
       y="100"
       width="149.22"
       height="128.02"
       style="fill:#a61c3c"
       id="rect76" />
    <rect
       x="115.8"
       y="106.4"
       width="134.28999"
       height="115.22"
       style="fill:#ffffff"
       id="rect78" />
    <g
       clip-path="url(#freepik--clip-path--inject-9)"
       id="g98">
      <path
         d="m 250.09,141.33 c -24.15,17.18 -58.74,28.58 -98.87,46.49 A 165.3,165.3 0 0 0 115.8,209 v 12.63 h 134.29 z"
         style="fill:#a61c3c"
         id="path80" />
      <path
         d="M 250.09,106.4 H 196.2 c -6,5.13 -13.09,10.86 -21.47,17 -30.67,22.49 -17.38,45 19.43,28.62 18.89,-8.39 39.92,-27.82 55.93,-44.75 z"
         style="fill:#a61c3c"
         id="path82" />
      <path
         d="m 139,119.32 c 0,-9.39 -11.69,-2 -23.15,7.44 v 23.71 C 127,139.53 139,127.72 139,119.32 Z"
         style="fill:#a61c3c"
         id="path84" />
      <path
         d="M 150.2,156.64 A 10.74,10.74 0 1 1 139.46,145.9 10.74,10.74 0 0 1 150.2,156.64 Z"
         style="fill:#a61c3c"
         id="path86" />
      <path
         d="m 250.09,141.33 c -24.15,17.18 -58.74,28.58 -98.87,46.49 A 165.3,165.3 0 0 0 115.8,209 v 12.63 h 134.29 z"
         style="opacity:0.75;fill:#ffffff"
         id="path88" />
      <path
         d="M 250.09,106.4 H 196.2 c -6,5.13 -13.09,10.86 -21.47,17 -30.67,22.49 -17.38,45 19.43,28.62 18.89,-8.39 39.92,-27.82 55.93,-44.75 z"
         style="opacity:0.75;fill:#ffffff"
         id="path90" />
      <g
         style="opacity:0.75"
         id="g94">
        <path
           d="m 139,119.32 c 0,-9.39 -11.69,-2 -23.15,7.44 v 23.71 C 127,139.53 139,127.72 139,119.32 Z"
           style="fill:#ffffff"
           id="path92" />
      </g>
      <path
         d="M 150.2,156.64 A 10.74,10.74 0 1 1 139.46,145.9 10.74,10.74 0 0 1 150.2,156.64 Z"
         style="opacity:0.75;fill:#ffffff"
         id="path96" />
    </g>
    <path
       d="m 226.88,190.89 a 14.32,14.32 0 1 1 -14.31,-14.32 14.31,14.31 0 0 1 14.31,14.32 z"
       style="fill:#ffffff"
       id="path100" />
  </g>
  <g
     id="freepik--Plants--inject-9"
     transform="translate(-44.918227,-100)">
    <path
       d="m 428.74,363.88 a 22.52,22.52 0 0 0 -5.08,10.56 l -10.19,5.71 v -27 l 0.2,0.27 16.23,-11.88 c 2.05,0.32 9.93,1.22 17.11,-2.65 8.34,-4.49 14.43,-19.87 14.43,-19.87 0,0 -19.88,-2.25 -26.61,6.09 -5.46,6.76 -5.65,13.31 -5.52,15.54 l -15.84,11.59 v -19.95 a 22.06,22.06 0 0 0 12.07,-14.57 c 2.88,-11.22 -12.5,-33.33 -12.5,-33.33 0,0 -16,22.76 -12.83,34.3 2.72,9.77 10,12.87 12.19,13.59 v 43.25 L 401,366 c 0.26,-2.28 0.47,-9.41 -5.88,-16.55 -7.7,-8.66 -28.21,-8 -28.21,-8 0,0 8.65,17.31 16,23.08 6.44,5 15.33,3 17.47,2.39 l 12,10 v 13.15 h -17.85 l 7.29,45.56 h 21.87 L 431,390.08 h -17.53 v -8.7 l 11.2,-6.28 c 2.72,0.76 10.33,2.32 17.53,-1.28 9,-4.49 16.35,-14.11 16.35,-14.11 0,0 -21.47,-5.45 -29.81,4.17 z"
       style="fill:#a61c3c"
       id="path103" />
    <path
       d="m 428.74,363.88 a 22.52,22.52 0 0 0 -5.08,10.56 l -10.19,5.71 v -27 l 0.2,0.27 16.23,-11.88 c 2.05,0.32 9.93,1.22 17.11,-2.65 8.34,-4.49 14.43,-19.87 14.43,-19.87 0,0 -19.88,-2.25 -26.61,6.09 -5.46,6.76 -5.65,13.31 -5.52,15.54 l -15.84,11.59 v -19.95 a 22.06,22.06 0 0 0 12.07,-14.57 c 2.88,-11.22 -12.5,-33.33 -12.5,-33.33 0,0 -16,22.76 -12.83,34.3 2.72,9.77 10,12.87 12.19,13.59 v 43.25 L 401,366 c 0.26,-2.28 0.47,-9.41 -5.88,-16.55 -7.7,-8.66 -28.21,-8 -28.21,-8 0,0 8.65,17.31 16,23.08 6.44,5 15.33,3 17.47,2.39 l 12,10 v 13.15 h -17.85 l 7.29,45.56 h 21.87 L 431,390.08 h -17.53 v -8.7 l 11.2,-6.28 c 2.72,0.76 10.33,2.32 17.53,-1.28 9,-4.49 16.35,-14.11 16.35,-14.11 0,0 -21.47,-5.45 -29.81,4.17 z"
       style="opacity:0.5;fill:#ffffff"
       id="path105" />
  </g>
  <g
     id="freepik--Desk--inject-9"
     transform="translate(-44.918227,-100)">
    <path
       d="m 408.53,226.23 -29.43,0.25 c 0,0 -2,-0.25 -2.43,1.21 0,0 -5.11,12.9 -5.35,17.52 -0.24,4.62 1,3.89 -1,10 -2,6.11 -7.54,20.43 -10.7,32.11 -4.25,15.69 -5.36,32.35 -5.63,48.55 0,2.6 -1.6,25 2.45,25 3.36,0 34.33,4.11 34.7,-1.86 1.49,-23.8 -2.81,-47.05 5.45,-70.19 3.21,-9 6.89,-18.48 9.62,-27.88 2.73,-9.4 3.2,-19.18 5,-28.8 1.21,-6.64 -2.68,-5.91 -2.68,-5.91 z"
       style="fill:#263238"
       id="path108" />
    <path
       d="m 411.42,229.15 c -0.29,-3.4 -2.89,-2.92 -2.89,-2.92 l -29.43,0.25 c 0,0 -2,-0.25 -2.43,1.21 0,0 -5.11,12.9 -5.35,17.52 a 21.2,21.2 0 0 0 0.1,3.66 l 0.62,1 c 0,0 1,8.51 12.65,9 11.65,0.49 18.25,-4.87 20.68,-10 2.43,-5.13 3.41,-13.38 5.35,-18.25 a 16.16,16.16 0 0 1 0.7,-1.47 z"
       style="fill:#a61c3c"
       id="path110" />
    <path
       d="m 404.59,238.65 c -2,7.11 -0.79,9.08 -2.76,21.32 -1.97,12.24 -9.08,26 -11.85,38.69 -2.77,12.69 -1.57,57.24 -1.18,59.22 a 17.12,17.12 0 0 1 0.17,3.17 c 1.33,-0.5 2.13,-1.18 2.19,-2.11 1.49,-23.8 -2.81,-47.05 5.45,-70.19 3.21,-9 6.89,-18.48 9.62,-27.88 2.73,-9.4 3.2,-19.18 5,-28.8 0.75,-4 -0.43,-5.31 -1.46,-5.7 v 0 a 53,53 0 0 0 -5.18,12.28 z"
       style="fill:#a61c3c"
       id="path112" />
    <path
       d="m 347.74,418.28 -0.2,-0.16 v -27.48 h 3.95 v -17.37 h -14.6 v 17.37 h 3.94 v 27.95 l -34.94,11.14 v 2.76 a 3.16,3.16 0 1 0 6.32,0 v -0.39 l 29.22,-3.4 v 4.19 a 2.76,2.76 0 0 0 5.52,0 v -4.33 l 30.4,3.54 v 0.39 a 3.16,3.16 0 1 0 6.32,0 v -2.76 z"
       style="fill:#263238"
       id="path114" />
    <rect
       x="298.63"
       y="356.32999"
       width="94.769997"
       height="20.15"
       rx="4"
       style="fill:#263238"
       id="rect116" />
    <path
       d="m 47.84,226.23 29.43,0.25 c 0,0 2,-0.25 2.44,1.21 0,0 5.11,12.9 5.35,17.52 0.24,4.62 -1,3.89 1,10 2,6.11 7.54,20.43 10.7,32.11 4.26,15.69 5.36,32.35 5.63,48.55 0,2.6 1.6,25 -2.45,25 -3.35,0 -34.32,4.11 -34.7,-1.86 -1.48,-23.8 2.81,-47.05 -5.45,-70.19 -3.21,-9 -6.89,-18.48 -9.61,-27.88 -2.72,-9.4 -3.2,-19.18 -5,-28.8 -1.18,-6.64 2.66,-5.91 2.66,-5.91 z"
       style="fill:#263238"
       id="path118" />
    <path
       d="m 45,229.15 c 0.29,-3.4 2.88,-2.92 2.88,-2.92 l 29.43,0.25 c 0,0 2,-0.25 2.44,1.21 0,0 5.11,12.9 5.35,17.52 a 22,22 0 0 1 -0.11,3.66 l -0.62,1 c 0,0 -1,8.51 -12.65,9 C 60.07,259.36 53.44,254 51,248.86 48.56,243.72 47.6,235.48 45.65,230.61 A 13.74,13.74 0 0 0 45,229.15 Z"
       style="fill:#a61c3c"
       id="path120" />
    <path
       d="m 51.78,238.65 c 2,7.11 0.79,9.08 2.76,21.32 1.97,12.24 9.09,26 11.85,38.69 2.76,12.69 1.61,57.24 1.18,59.22 a 18,18 0 0 0 -0.17,3.17 c -1.32,-0.5 -2.13,-1.18 -2.19,-2.11 -1.48,-23.8 2.81,-47.05 -5.45,-70.19 -3.21,-9 -6.89,-18.48 -9.61,-27.88 -2.72,-9.4 -3.2,-19.18 -5,-28.8 -0.74,-4 0.44,-5.31 1.46,-5.7 v 0 a 52.5,52.5 0 0 1 5.17,12.28 z"
       style="fill:#a61c3c"
       id="path122" />
    <path
       d="m 108.63,418.28 0.2,-0.16 v -27.48 h -4 v -17.37 h 14.61 v 17.37 h -3.95 v 27.95 l 34.94,11.14 v 2.76 a 3.16,3.16 0 0 1 -6.32,0 V 432.1 L 115,428.7 v 4.19 a 2.77,2.77 0 0 1 -5.53,0 v -4.33 L 79,432.1 v 0.39 a 3.16,3.16 0 1 1 -6.31,0 v -2.76 z"
       style="fill:#263238"
       id="path124" />
    <rect
       x="62.98"
       y="356.32999"
       width="94.769997"
       height="20.15"
       rx="4"
       transform="rotate(180,110.36,366.4)"
       style="fill:#263238"
       id="rect126" />
    <rect
       x="134.39999"
       y="299.73999"
       width="237.60001"
       height="136.56"
       style="fill:#cccccc"
       id="rect128" />
    <rect
       x="134.52"
       y="303.01999"
       width="237.3"
       height="3.78"
       style="fill:#263238"
       id="rect130" />
    <rect
       x="129.11"
       y="297.5"
       width="244.64999"
       height="5.9699998"
       style="fill:#cccccc"
       id="rect132" />
  </g>
  <g
     id="freepik--Characters--inject-9"
     transform="translate(-44.918227,-100)">
    <path
       d="m 197.66,285.64 c 0,0 2.8,12.51 2.64,16 -0.16,3.49 -6.75,12.84 -6.92,10.7 a 14.6,14.6 0 0 1 1.16,-5.27 c 0,0 -2.31,3.13 -3.13,3 -0.82,-0.13 0.66,-4.45 0.66,-4.45 0,0 -2.47,2.47 -3.3,2 -0.83,-0.47 1.81,-4.12 1.81,-4.12 0,0 -3,3.13 -3.12,2.14 -0.12,-0.99 2.63,-5.1 2.63,-5.1 0,0 -2.8,-5.93 -3,-8.4 a 8,8 0 0 1 1.64,-4.77 z"
       style="fill:#ffffff"
       id="path135" />
    <g
       clip-path="url(#freepik--clip-path-2--inject-9)"
       id="g139">
      <path
         d="m 197.66,285.64 c 0,0 2.8,12.51 2.64,16 -0.16,3.49 -6.75,12.84 -6.92,10.7 a 14.6,14.6 0 0 1 1.16,-5.27 c 0,0 -2.31,3.13 -3.13,3 -0.82,-0.13 0.66,-4.45 0.66,-4.45 0,0 -2.47,2.47 -3.3,2 -0.83,-0.47 1.81,-4.12 1.81,-4.12 0,0 -3,3.13 -3.12,2.14 -0.12,-0.99 2.63,-5.1 2.63,-5.1 0,0 -2.8,-5.93 -3,-8.4 a 8,8 0 0 1 1.64,-4.77 z"
         style="fill:#d9d9d9"
         id="path137" />
    </g>
    <path
       d="m 197.66,285.64 c 0,0 2.8,12.51 2.64,16 -0.16,3.49 -6.75,12.84 -6.92,10.7 a 14.6,14.6 0 0 1 1.16,-5.27 c 0,0 -2.31,3.13 -3.13,3 -0.82,-0.13 0.66,-4.45 0.66,-4.45 0,0 -2.47,2.47 -3.3,2 -0.83,-0.47 1.81,-4.12 1.81,-4.12 0,0 -3,3.13 -3.12,2.14 -0.12,-0.99 2.63,-5.1 2.63,-5.1 0,0 -2.8,-5.93 -3,-8.4 a 8,8 0 0 1 1.64,-4.77 z"
       style="fill:none;stroke:#263238;stroke-linecap:round;stroke-linejoin:round"
       id="path141" />
    <path
       d="m 197,285.64 c 0,0 2,8.73 1.82,11.2 -0.18,2.47 -2.64,9.71 -4.45,8.39 -1.81,-1.32 1.15,-6.25 1.15,-6.25 0,0 -5.08,-3.57 -6.25,-6.92 -1.17,-3.35 -0.5,-4.77 -0.5,-4.77 z"
       style="fill:#ffffff"
       id="path143" />
    <g
       clip-path="url(#freepik--clip-path-3--inject-9)"
       id="g147">
      <path
         d="m 197,285.64 c 0,0 2,8.73 1.82,11.2 -0.18,2.47 -2.64,9.71 -4.45,8.39 -1.81,-1.32 1.15,-6.25 1.15,-6.25 0,0 -5.08,-3.57 -6.25,-6.92 -1.17,-3.35 -0.5,-4.77 -0.5,-4.77 z"
         style="fill:#d9d9d9"
         id="path145" />
    </g>
    <path
       d="m 197,285.64 c 0,0 2,8.73 1.82,11.2 -0.18,2.47 -2.64,9.71 -4.45,8.39 -1.81,-1.32 1.15,-6.25 1.15,-6.25 0,0 -5.08,-3.57 -6.25,-6.92 -1.17,-3.35 -0.5,-4.77 -0.5,-4.77 z"
       style="fill:none;stroke:#263238;stroke-linecap:round;stroke-linejoin:round"
       id="path149" />
    <polygon
       points="188.1,288.71 178.22,256.52 190.97,244.73 197.98,286.48 "
       style="fill:#263238;stroke:#263238;stroke-linecap:round;stroke-linejoin:round"
       id="polygon151" />
    <path
       d="m 188.1,265.13 c 0,0 0.64,49.72 1.59,63.11 0.95,13.39 -2.55,31.24 -5.73,36.34 -3.18,5.1 -17.22,37 -16.58,38.89 0.64,1.89 3.51,7.65 3.51,9.24 v 6.69 c 0,0 15.93,10.52 17.21,10.52 1.28,0 2.87,2.55 -0.32,4.47 -3.19,1.92 -38.89,1.91 -40.48,0.63 a 7.72,7.72 0 0 1 -2.23,-3.5 c 0,0 -5.1,1.91 -4.78,-2.87 0.32,-4.78 6.05,-25.18 6.05,-25.18 0,0 -3.5,-22.32 -2.23,-36.66 1.27,-14.34 5.74,-31.56 5.74,-35.06 0,-3.5 -4.46,-26.78 -5.1,-30.6 -0.64,-3.82 -9.88,-14.67 -5.74,-23.27 4.14,-8.6 7.33,-22.32 8.61,-23.27 1.28,-0.95 18.49,-1.6 25.5,0 7.01,1.6 14.66,1.59 14.98,10.52 z"
       style="fill:#263238;stroke:#263238;stroke-linecap:round;stroke-linejoin:round"
       id="path153" />
    <path
       d="m 156.5,164.91 c 0,0 -5.45,4.88 -6.39,6.57 -0.94,1.69 -12.38,18 -12.57,29.66 -0.19,11.66 8.46,46.92 8.46,46.92 l -13,33.07 3.76,1.5 3.75,-4.13 v 6.2 c 0,0 4.32,3.94 15.58,7.69 11.26,3.75 25.72,-0.56 25.72,-0.56 l 4.31,-27.44 v 27.07 l 5.07,-3.38 0.41,-45.08 c 0,0 4.13,-24.21 4.13,-31 0,-6.79 -11.45,-28 -16.52,-34.16 -5.07,-6.16 -13.52,-11.26 -16,-13.14 -2.48,-1.88 -6.71,0.21 -6.71,0.21 z"
       style="fill:#263238"
       id="path155" />
    <g
       clip-path="url(#freepik--clip-path-4--inject-9)"
       id="g165">
      <path
         d="m 156.5,164.91 c 0,0 -5.45,4.88 -6.39,6.57 -0.94,1.69 -12.38,18 -12.57,29.66 -0.19,11.66 8.46,46.92 8.46,46.92 l -13,33.07 3.76,1.5 3.75,-4.13 v 6.2 c 0,0 4.32,3.94 15.58,7.69 11.26,3.75 25.72,-0.56 25.72,-0.56 l 4.31,-27.44 v 27.07 l 5.07,-3.38 0.41,-45.08 c 0,0 4.13,-24.21 4.13,-31 0,-6.79 -11.45,-28 -16.52,-34.16 -5.07,-6.16 -13.52,-11.26 -16,-13.14 -2.48,-1.88 -6.71,0.21 -6.71,0.21 z"
         style="opacity:0.17;fill:#ffffff"
         id="path157" />
      <path
         d="m 140.46,204.88 c 0,0 6.82,4.83 11.36,6.53"
         style="fill:none;stroke:#263238;stroke-linecap:round;stroke-linejoin:round"
         id="path159" />
      <path
         d="m 142.45,210 c 0,0 7.67,2 11.64,2"
         style="fill:none;stroke:#263238;stroke-linecap:round;stroke-linejoin:round"
         id="path161" />
      <polyline
         points="153.53 255.42 175.11 257.98 173.69 262.52 153.81 260.25"
         style="fill:none;stroke:#263238;stroke-linecap:round;stroke-linejoin:round"
         id="polyline163" />
    </g>
    <path
       d="m 156.5,164.91 c 0,0 -5.45,4.88 -6.39,6.57 -0.94,1.69 -12.38,18 -12.57,29.66 -0.19,11.66 8.46,46.92 8.46,46.92 l -13,33.07 3.76,1.5 3.75,-4.13 v 6.2 c 0,0 4.32,3.94 15.58,7.69 11.26,3.75 25.72,-0.56 25.72,-0.56 l 4.31,-27.44 v 27.07 l 5.07,-3.38 0.41,-45.08 c 0,0 4.13,-24.21 4.13,-31 0,-6.79 -11.45,-28 -16.52,-34.16 -5.07,-6.16 -13.52,-11.26 -16,-13.14 -2.48,-1.88 -6.71,0.21 -6.71,0.21 z"
       style="fill:none;stroke:#263238;stroke-linecap:round;stroke-linejoin:round"
       id="path167" />
    <path
       d="m 155.37,166 20.84,22.53 12.2,23.28 c 0,0 -2.63,-17.27 -4.88,-22 C 181.28,185.08 171.14,173.36 170,170.73 168.86,168.1 155.37,166 155.37,166 Z"
       style="fill:#ffffff;stroke:#263238;stroke-linecap:round;stroke-linejoin:round"
       id="path169" />
    <path
       d="m 182.64,200.83 5.77,11 c 0,0 -1.79,-11.77 -3.69,-18.52 l -1.19,-3.45 a 62.49,62.49 0 0 0 -5.42,-8 l -3.27,-0.65 1.37,7.36 4.22,3.45 z"
       style="fill:#263238;stroke:#263238;stroke-linecap:round;stroke-linejoin:round"
       id="path171" />
    <path
       d="m 177.08,174.49 1.08,1.25 3.39,4 2,10.16 -8.69,-8.67 c 0,0 1.14,-5.23 2.22,-6.74 z"
       style="fill:#ffffff;stroke:#263238;stroke-linecap:round;stroke-linejoin:round"
       id="path173" />
    <path
       d="m 186.91,132.62 c 0,0 4.56,3.5 5.13,6.88 0.57,3.38 -1.13,7.14 -0.94,8.45 0.19,1.31 3.56,4.32 3.38,5.82 -0.18,1.5 -3,2.06 -3,2.06 0,0 -3.06,11.14 -3.81,13 -0.75,1.86 -4.51,1.31 -7.32,0.94 l -5.07,15 -16.72,-19.67 2.63,-7.89 c 0,0 -7.13,-8.63 -7.7,-17.83 -0.57,-9.2 6.76,-15.58 17.27,-16.89 10.51,-1.31 19.34,3.75 20.46,5.82 1.12,2.07 -4.31,4.31 -4.31,4.31 z"
       style="fill:#ffffff"
       id="path175" />
    <g
       clip-path="url(#freepik--clip-path-5--inject-9)"
       id="g181">
      <path
         d="m 186.91,132.62 c 0,0 4.56,3.5 5.13,6.88 0.57,3.38 -1.13,7.14 -0.94,8.45 0.19,1.31 3.56,4.32 3.38,5.82 -0.18,1.5 -3,2.06 -3,2.06 0,0 -3.06,11.14 -3.81,13 -0.75,1.86 -4.51,1.31 -7.32,0.94 l -5.07,15 -16.72,-19.67 2.63,-7.89 c 0,0 -7.13,-8.63 -7.7,-17.83 -0.57,-9.2 6.76,-15.58 17.27,-16.89 10.51,-1.31 19.34,3.75 20.46,5.82 1.12,2.07 -4.31,4.31 -4.31,4.31 z"
         style="fill:#d9d9d9"
         id="path177" />
      <path
         d="m 167.43,175.56 c 2.82,-0.57 7.55,-1.55 11.81,-2.51 l 1.1,-3.26 c 2.34,0.31 5.34,0.75 6.7,-0.2 -3.2,-1.32 -11.12,-3.63 -12.74,-6.6 -2,-3.69 5,-14.43 5,-19.8 0,-5.37 -6.71,-11.41 -6.71,-11.41 -3.23,-3.07 -9.12,-4 -14.35,-4 a 14.08,14.08 0 0 0 -4.78,11.65 c 0.57,9.2 7.7,17.83 7.7,17.83 l -2.63,7.89 z"
         style="fill:#b8b8b8"
         id="path179" />
    </g>
    <path
       d="m 186.91,132.62 c 0,0 4.56,3.5 5.13,6.88 0.57,3.38 -1.13,7.14 -0.94,8.45 0.19,1.31 3.56,4.32 3.38,5.82 -0.18,1.5 -3,2.06 -3,2.06 0,0 -3.06,11.14 -3.81,13 -0.75,1.86 -4.51,1.31 -7.32,0.94 l -5.07,15 -16.72,-19.67 2.63,-7.89 c 0,0 -7.13,-8.63 -7.7,-17.83 -0.57,-9.2 6.76,-15.58 17.27,-16.89 10.51,-1.31 19.34,3.75 20.46,5.82 1.12,2.07 -4.31,4.31 -4.31,4.31 z"
       style="fill:none;stroke:#263238;stroke-linecap:round;stroke-linejoin:round"
       id="path183" />
    <path
       d="m 186.91,132.62 c 0,0 5.44,-2.25 4.31,-4.31 -1.13,-2.06 -9.95,-7.14 -20.46,-5.82 -10.51,1.32 -17.83,7.69 -17.27,16.89 0.56,9.2 7.7,17.83 7.7,17.83 l -0.4,1.2 c 3.89,1.9 7.91,-1.2 7.91,-1.2 a 3.87,3.87 0 0 1 -4.51,-0.75 c -2.25,-2.06 -2.44,-8.63 0.38,-9.2 2.82,-0.57 4.69,0.57 4.69,2.63 0,2.06 0.56,0.75 2.07,0.56 1.51,-0.19 0.18,-4.69 1.12,-5.44 a 14.69,14.69 0 0 0 3.94,-3.57 c 1.69,-2.25 -3.19,-4.12 -3.75,-6.19 -0.56,-2.07 14.27,-2.63 14.27,-2.63 z"
       style="fill:#263238;stroke:#263238;stroke-linecap:round;stroke-linejoin:round"
       id="path185" />
    <polyline
       points="188.25 147.28 184.77 148.44 187.92 148.44"
       style="fill:none;stroke:#263238;stroke-linecap:round;stroke-linejoin:round"
       id="polyline187" />
    <path
       d="m 189.58,143.8 c 0,0 -1.49,-2.15 -3.15,-1.16 -1.66,0.99 -1.82,1.66 -1.82,1.66"
       style="fill:none;stroke:#263238;stroke-linecap:round;stroke-linejoin:round"
       id="path189" />
    <path
       d="m 186,158.88 a 4.89,4.89 0 0 0 3.48,0.8"
       style="fill:none;stroke:#263238;stroke-linecap:round;stroke-linejoin:round"
       id="path191" />
    <polygon
       points="176.96,191 154.62,166.97 157.81,161.53 178.83,182.18 "
       style="fill:#ffffff;stroke:#263238;stroke-linecap:round;stroke-linejoin:round"
       id="polygon193" />
    <path
       d="m 238.56,240.48 c 0,0 -7.4,-4.4 -8.6,-4 -1.2,0.4 -12.8,8.8 -12,10.8 0.8,2 7,4.6 10.6,6 3.6,1.4 11,-1.6 11,-1.6 z"
       style="fill:#ffffff;stroke:#263238;stroke-linecap:round;stroke-linejoin:round"
       id="path195" />
    <path
       d="m 217,238.88 c 0,0 6.4,-3.6 7.4,-3.6 1,0 6.8,5.2 6.8,5.2 l -2.4,3.6 c 0,0 7.6,3.8 6.8,5.2 -0.8,1.4 -3.8,3.6 -7,4 -3.2,0.4 -12.2,-5.4 -12.2,-5.4 z"
       style="fill:#ffffff"
       id="path197" />
    <g
       clip-path="url(#freepik--clip-path-6--inject-9)"
       id="g201">
      <path
         d="m 217,238.88 c 0,0 6.4,-3.6 7.4,-3.6 1,0 6.8,5.2 6.8,5.2 l -2.4,3.6 c 0,0 7.6,3.8 6.8,5.2 -0.8,1.4 -3.8,3.6 -7,4 -3.2,0.4 -12.2,-5.4 -12.2,-5.4 z"
         style="fill:#d9d9d9"
         id="path199" />
    </g>
    <path
       d="m 217,238.88 c 0,0 6.4,-3.6 7.4,-3.6 1,0 6.8,5.2 6.8,5.2 l -2.4,3.6 c 0,0 7.6,3.8 6.8,5.2 -0.8,1.4 -3.8,3.6 -7,4 -3.2,0.4 -12.2,-5.4 -12.2,-5.4 z"
       style="fill:none;stroke:#263238;stroke-linecap:round;stroke-linejoin:round"
       id="path203" />
    <polygon
       points="216.36,247.88 211.56,246.28 212.56,237.28 218.16,238.28 "
       style="fill:#ffffff;stroke:#263238;stroke-linecap:round;stroke-linejoin:round"
       id="polygon205" />
    <path
       d="m 147.57,181.48 c 0,0 -5.4,10.4 -6,15.6 -0.6,5.2 21.4,46.6 23,48 1.6,1.4 48.39,2.8 48.39,2.8 l 2,-10.2 -40,-11.4 -13.6,-41.8"
       style="fill:#263238"
       id="path207" />
    <g
       clip-path="url(#freepik--clip-path-7--inject-9)"
       id="g211">
      <path
         d="m 147.57,181.48 c 0,0 -5.4,10.4 -6,15.6 -0.6,5.2 21.4,46.6 23,48 1.6,1.4 48.39,2.8 48.39,2.8 l 2,-10.2 -40,-11.4 -13.6,-41.8"
         style="opacity:0.17;fill:#ffffff"
         id="path209" />
    </g>
    <path
       d="m 147.57,181.48 c 0,0 -5.4,10.4 -6,15.6 -0.6,5.2 21.4,46.6 23,48 1.6,1.4 48.39,2.8 48.39,2.8 l 2,-10.2 -40,-11.4 -13.6,-41.8"
       style="fill:none;stroke:#263238;stroke-linecap:round;stroke-linejoin:round"
       id="path213" />
    <path
       d="m 231.56,237.48 c 0,0 -2.8,-2.4 -3.8,0.4 -1,2.8 -7.2,9.6 -4.4,9.8 2.8,0.2 8,-5.6 8,-5.6"
       style="fill:#ffffff;stroke:#263238;stroke-linecap:round;stroke-linejoin:round"
       id="path215" />
    <path
       d="m 219.16,248.68 c 0,0 -0.72,3.37 1,4.8 1.21,1 1.89,-1.8 1.6,-3.8 -0.29,-2 -2,-2.6 -2.6,-1 z"
       style="fill:#ffffff;stroke:#263238;stroke-linecap:round;stroke-linejoin:round"
       id="path217" />
    <path
       d="m 222,249.48 c 0,0 -0.72,3.37 1,4.8 1.21,1 1.89,-1.8 1.6,-3.8 -0.29,-2 -2.04,-2.6 -2.6,-1 z"
       style="fill:#ffffff;stroke:#263238;stroke-linecap:round;stroke-linejoin:round"
       id="path219" />
    <path
       d="m 224.76,250.68 c 0,0 -0.72,3.37 1,4.8 1.21,1 1.89,-1.8 1.6,-3.8 -0.29,-2 -2,-2.6 -2.6,-1 z"
       style="fill:#ffffff;stroke:#263238;stroke-linecap:round;stroke-linejoin:round"
       id="path221" />
    <path
       d="m 227.53,252.31 c 0,0 -0.66,2.27 0.92,3.23 1.11,0.68 1.74,-1.21 1.47,-2.56 -0.27,-1.35 -1.84,-1.75 -2.39,-0.67 z"
       style="fill:#ffffff;stroke:#263238;stroke-linecap:round;stroke-linejoin:round"
       id="path223" />
    <polygon
       points="243.56,252.08 242.56,240.28 238.56,240.48 239.16,253.28 "
       style="fill:none;stroke:#263238;stroke-linecap:round;stroke-linejoin:round"
       id="polygon225" />
    <polygon
       points="276.96,250.88 277.76,231.08 241.56,239.28 243.56,254.48 "
       style="fill:#263238;stroke:#263238;stroke-linecap:round;stroke-linejoin:round"
       id="polygon227" />
    <path
       d="m 183,299.87 c 0,0 -6.06,40.48 -6.06,54.19 0,13.71 -9.24,36.66 -9.56,49.41"
       style="fill:none;stroke:#ffffff;stroke-linecap:round;stroke-linejoin:round"
       id="path229" />
    <path
       d="m 147.3,435 c 1.59,1.28 37.29,1.28 40.48,-0.63 3.19,-1.91 1.59,-4.47 0.32,-4.47 -1.27,0 -17.21,-10.52 -17.21,-10.52 0,0 -8.61,6.7 -13.39,8.29 -4.78,1.59 -12.43,1.91 -12.43,1.91 v 1.92 a 7.72,7.72 0 0 0 2.23,3.5 z"
       style="fill:#ffffff;stroke:#263238;stroke-linecap:round;stroke-linejoin:round"
       id="path231" />
    <path
       d="m 187.78,434.39 c 1.68,-1 2,-2.2 1.8,-3.09 a 78.85,78.85 0 0 1 -14.23,1.49 c -9.63,0.26 -24.78,-0.33 -30,-0.55 a 7.17,7.17 0 0 0 2,2.78 c 1.54,1.28 37.24,1.28 40.43,-0.63 z"
       style="fill:#ffffff;stroke:#263238;stroke-linecap:round;stroke-linejoin:round"
       id="path233" />
    <path
       d="m 144.14,431.77 0.93,-2.17 1.27,-26.13 c 0,0 -5.74,20.4 -6.05,25.18 -0.24,3.48 2.4,3.41 3.85,3.12 z"
       style="fill:#263238;stroke:#263238;stroke-linecap:round;stroke-linejoin:round"
       id="path235" />
    <path
       d="m 281.81,291.9 c 0,0 -3.18,47.5 0,66.62 3.18,19.12 11.19,52.28 12.43,56.42 a 22,22 0 0 1 1,7.65 l 17.85,2.55 c 0,0 -5.42,-62.79 -5.42,-70.12 0,-7.33 6.06,-62.16 6.06,-62.16 z"
       style="fill:#263238;stroke:#263238;stroke-linecap:round;stroke-linejoin:round"
       id="path237" />
    <path
       d="m 295.2,422.59 c 0,0 -19.44,8.29 -21.68,9.88 -2.24,1.59 4.79,3.83 13.39,3.83 8.6,0 17.22,-1 17.22,-1 l 3.5,-1.91 0.32,2.23 h 9.24 c 0,0 1.6,-7.65 1,-9.56 a 35.26,35.26 0 0 0 -1.59,-3.83 z"
       style="fill:#263238;stroke:#263238;stroke-linecap:round;stroke-linejoin:round"
       id="path239" />
    <path
       d="m 278.94,288.08 c 0,0 1.6,45.58 5.42,61.84 3.82,16.26 10.52,55.78 10.52,59.92 a 24.39,24.39 0 0 1 -0.95,7 l -1.28,4.16 a 12.83,12.83 0 0 0 1,2.87 c 0,0 8.28,1.91 13.7,1.91 a 36,36 0 0 0 10,-1.51 c 0,0 0.17,-10 0.49,-14.75 0.32,-4.75 -1.27,-35.38 -1.27,-42.71 0,-7.33 -1.92,-11.48 -1.92,-20.4 0,-8.92 -1.59,-32.83 -1.27,-36.66 0.32,-3.83 4.78,-8 5.74,-12.75 0.96,-4.75 1.91,-9.88 1.91,-9.88 z"
       style="fill:#263238;stroke:#263238;stroke-linecap:round;stroke-linejoin:round"
       id="path241" />
    <path
       d="m 282.76,336 c 0,0 8.91,61.81 11.14,65.71 a 11.36,11.36 0 0 1 1,8.12"
       style="fill:none;stroke:#ffffff;stroke-linecap:round;stroke-linejoin:round"
       id="path243" />
    <path
       d="m 271.29,252.06 c 0,0 -1.19,12.19 -1.19,21.51 0,5.2 -0.05,12 -0.1,16.92 a 8.72,8.72 0 0 0 7,8.61 33.43,33.43 0 0 0 6.37,0.77 l -7.49,-46.38 c 0,0 -3.39,-5.73 -4.59,-1.43 z"
       style="fill:#263238;stroke:#263238;stroke-linecap:round;stroke-linejoin:round"
       id="path245" />
    <path
       d="m 306.68,169 a 20,20 0 0 1 4.94,3.67 37.14,37.14 0 0 1 3.38,5.33 c 0,0 13.55,15.62 13.87,17.21 0.32,1.59 -7.65,51.8 -7.65,51.8 l 9.08,47.49 c 0,0 -14.66,8.13 -25.82,8.61 -7.85,0.34 -19.66,-2.17 -26,-3.69 a 6.18,6.18 0 0 1 -4.73,-5.46 c -0.62,-6.68 -1.78,-20 -2.46,-32.61 -0.78,-14.65 1.44,-43.67 3,-53.87 1.56,-10.2 6.54,-24.06 10.36,-29.8 C 288.47,171.94 299,166 306.68,169 Z"
       style="fill:#263238;stroke:#263238;stroke-linecap:round;stroke-linejoin:round"
       id="path247" />
    <path
       d="m 315,178 a 37.14,37.14 0 0 0 -3.34,-5.26 20,20 0 0 0 -4.94,-3.67 c -6.36,-2.51 -14.68,1.13 -19.51,5.73 -0.64,1.42 -5.68,12.92 -8.07,22.32 -2.55,10 -2.23,22.64 -2.23,22.64 0,0 8.45,-10.84 19.92,-23.59 a 152.09,152.09 0 0 1 18.7,-17.57 z"
       style="fill:#263238"
       id="path249" />
    <g
       clip-path="url(#freepik--clip-path-8--inject-9)"
       id="g253">
      <path
         d="m 315,178 a 37.14,37.14 0 0 0 -3.34,-5.26 20,20 0 0 0 -4.94,-3.67 c -6.36,-2.51 -14.68,1.13 -19.51,5.73 -0.64,1.42 -5.68,12.92 -8.07,22.32 -2.55,10 -2.23,22.64 -2.23,22.64 0,0 8.45,-10.84 19.92,-23.59 a 152.09,152.09 0 0 1 18.7,-17.57 z"
         style="opacity:0.17;fill:#ffffff"
         id="path251" />
    </g>
    <path
       d="m 315,178 a 37.14,37.14 0 0 0 -3.34,-5.26 20,20 0 0 0 -4.94,-3.67 c -6.36,-2.51 -14.68,1.13 -19.51,5.73 -0.64,1.42 -5.68,12.92 -8.07,22.32 -2.55,10 -2.23,22.64 -2.23,22.64 0,0 8.45,-10.84 19.92,-23.59 a 152.09,152.09 0 0 1 18.7,-17.57 z"
       style="fill:none;stroke:#263238;stroke-linecap:round;stroke-linejoin:round"
       id="path255" />
    <path
       d="m 286.12,182.13 c 0,0 -4.31,13.51 -5.62,17.33 -1.31,3.82 -1.44,9.81 -1.44,9.81 0,0 16.14,-24.15 20.08,-28.21 3.94,-4.06 9.09,-10.4 9.09,-10.4 l -3.47,-1 z"
       style="fill:#ffffff;stroke:#263238;stroke-linecap:round;stroke-linejoin:round"
       id="path257" />
    <path
       d="m 287.31,177.23 c 0,0 -1.91,5.62 -1.91,6 0,0.38 -0.48,5.74 -0.48,5.74 l 6.81,-9.21 z"
       style="fill:#ffffff;stroke:#263238;stroke-linecap:round;stroke-linejoin:round"
       id="path259" />
    <polygon
       points="288.87,189.54 307.99,170.06 304.64,166 286,181.18 "
       style="fill:#ffffff;stroke:#263238;stroke-linecap:round;stroke-linejoin:round"
       id="polygon261" />
    <path
       d="m 302.23,286.4 c 0,0 -2.65,6.59 -3.44,8.75 -0.79,2.16 -0.39,10.62 -0.29,11.51 0.1,0.89 1.67,1.08 1.67,1.08 0,0 0.49,6.78 1.08,7 a 10.5,10.5 0 0 0 1.87,0.29 c 0,0 1.08,3.45 2.46,3.15 a 2.24,2.24 0 0 0 1.57,-1.87 2.6,2.6 0 0 0 2.36,-1.08 12.8,12.8 0 0 0 1.38,-2.65 c 0,0 2.36,-1.18 2.55,-2.07 0.19,-0.89 0.79,-4 0.79,-4 0,0 0.69,-0.2 0.69,-2.26 0,-2.06 -1.57,-14.75 -1.57,-14.75 z"
       style="fill:#ffffff;stroke:#263238;stroke-linecap:round;stroke-linejoin:round"
       id="path263" />
    <line
       x1="300.17001"
       y1="307.73999"
       x2="300.45999"
       y2="301.76001"
       style="fill:none;stroke:#263238;stroke-linecap:round;stroke-linejoin:round"
       id="line265" />
    <line
       x1="303.12"
       y1="315.01001"
       x2="303.76001"
       y2="306.16"
       style="fill:none;stroke:#263238;stroke-linecap:round;stroke-linejoin:round"
       id="line267" />
    <line
       x1="307.14999"
       y1="316.29001"
       x2="307.60999"
       y2="306.70999"
       style="fill:none;stroke:#263238;stroke-linecap:round;stroke-linejoin:round"
       id="line269" />
    <line
       x1="310.89001"
       y1="312.56"
       x2="311.45999"
       y2="305.89001"
       style="fill:none;stroke:#263238;stroke-linecap:round;stroke-linejoin:round"
       id="line271" />
    <path
       d="m 321.66,190.86 7.17,4.3 -2.39,49.57 -12.75,46.85 -12.11,-3.18 3.82,-37 -1.91,-37.29 c 0,0 2.71,-8.69 8.92,-13.47"
       style="fill:#263238;stroke:#263238;stroke-linecap:round;stroke-linejoin:round"
       id="path273" />
    <path
       d="m 306.91,199.23 c 0,0 -3.26,8.28 -3.42,14.9"
       style="fill:none;stroke:#ffffff;stroke-linecap:round;stroke-linejoin:round"
       id="path275" />
    <path
       d="m 309.63,203.17 c 0,0 -5.58,9.11 -5.58,13.23 0,4.12 1.47,38.5 1.47,38.5 l -3.82,29.68"
       style="fill:none;stroke:#ffffff;stroke-linecap:round;stroke-linejoin:round"
       id="path277" />
    <path
       d="m 275,135.63 c 0,0 -3.83,10.88 -3.47,12.44 0.36,1.56 0.72,3.94 0.72,3.94 0,0 -6,7.41 -5.26,8.25 0.74,0.84 4.06,1.79 4.06,1.79 0,0 2.75,11.48 3.83,12.55 1.08,1.07 7.77,-1.31 7.77,-1.31 l 7.17,9.08 14.7,-14.1 -1.79,-7.41 c 0,0 7.77,-13.63 7.65,-20.09 -0.12,-6.46 -13.38,-15.06 -22.83,-14.94 -9.45,0.12 -18.29,3.59 -16.5,6.1 a 13.54,13.54 0 0 0 3.95,3.7 z"
       style="fill:#ffffff"
       id="path279" />
    <g
       clip-path="url(#freepik--clip-path-9--inject-9)"
       id="g283">
      <path
         d="m 305.74,133.3 a 21,21 0 0 0 -5.29,1.5 l -14.09,5.71 c 0,0 -6.71,5.7 -6,10.06 0.71,4.36 6.71,10.4 5.37,14.76 -1.34,4.36 -9.73,9.06 -9.73,9.06 l 2.63,0.1 c 2,-0.47 4.06,-1.2 4.06,-1.2 l 1.1,1.39 13.58,0.49 7.19,-6.9 -1.79,-7.41 c 0,0 7.77,-13.63 7.65,-20.09 -0.08,-2.38 -1.92,-5.05 -4.68,-7.47 z"
         style="fill:#b8b8b8"
         id="path281" />
    </g>
    <path
       d="m 275,135.63 c 0,0 -3.83,10.88 -3.47,12.44 0.36,1.56 0.72,3.94 0.72,3.94 0,0 -6,7.41 -5.26,8.25 0.74,0.84 4.06,1.79 4.06,1.79 0,0 2.75,11.48 3.83,12.55 1.08,1.07 7.77,-1.31 7.77,-1.31 l 7.17,9.08 14.7,-14.1 -1.79,-7.41 c 0,0 7.77,-13.63 7.65,-20.09 -0.12,-6.46 -13.38,-15.06 -22.83,-14.94 -9.45,0.12 -18.29,3.59 -16.5,6.1 a 13.54,13.54 0 0 0 3.95,3.7 z"
       style="fill:none;stroke:#263238;stroke-linecap:round;stroke-linejoin:round"
       id="path285" />
    <path
       d="m 302.73,160.86 c 0,0 7.77,-13.63 7.65,-20.09 -0.12,-6.46 -13.38,-15.06 -22.83,-14.94 -9.45,0.12 -18.29,3.59 -16.5,6.1 a 13.54,13.54 0 0 0 3.95,3.7 c 0,0 5.86,2.75 5.86,3.47 0,0.72 -3.47,4.54 -2.27,6.22 1.2,1.68 6.93,3.7 6.93,3.7 0,0 -1,3.23 0.48,3.59 1.48,0.36 2.15,-1.08 3.1,-2 0.95,-0.92 4.31,-2.28 4.79,1.79 a 12.35,12.35 0 0 1 -2.16,8.25 c -0.47,0.35 6.1,4.78 9,3.46 0.75,-0.34 1.63,-0.79 2.51,-1.26 z"
       style="fill:#263238;stroke:#263238;stroke-linecap:round;stroke-linejoin:round"
       id="path287" />
    <ellipse
       cx="274.04001"
       cy="151.77"
       rx="0.83999997"
       ry="3.23"
       style="fill:none;stroke:#263238;stroke-linecap:round;stroke-linejoin:round"
       id="ellipse289" />
    <line
       x1="275"
       y1="150.46001"
       x2="289.10001"
       y2="150.58"
       style="fill:none;stroke:#263238;stroke-linecap:round;stroke-linejoin:round"
       id="line291" />
    <path
       d="m 272.68,146.57 c 0,0 1.34,-2.14 2.68,0.53"
       style="fill:none;stroke:#263238;stroke-linecap:round;stroke-linejoin:round"
       id="path293" />
    <path
       d="m 272.41,164 a 15.09,15.09 0 0 0 4,-2.41"
       style="fill:none;stroke:#263238;stroke-linecap:round;stroke-linejoin:round"
       id="path295" />
  </g>
</svg>
