<?xml version="1.0" encoding="UTF-8" standalone="no"?>
<svg
   viewBox="0 0 457.91 388.65701"
   version="1.1"
   id="svg337"
   sodipodi:docname="kpl-accueil-intro.svg"
   width="457.91"
   height="388.65701"
   inkscape:version="1.1 (c68e22c387, 2021-05-23)"
   xmlns:inkscape="http://www.inkscape.org/namespaces/inkscape"
   xmlns:sodipodi="http://sodipodi.sourceforge.net/DTD/sodipodi-0.dtd"
   xmlns="http://www.w3.org/2000/svg"
   xmlns:svg="http://www.w3.org/2000/svg">
  <defs
     id="defs341" />
  <sodipodi:namedview
     id="namedview339"
     pagecolor="#ffffff"
     bordercolor="#666666"
     borderopacity="1.0"
     inkscape:pageshadow="2"
     inkscape:pageopacity="0.0"
     inkscape:pagecheckerboard="0"
     showgrid="false"
     inkscape:zoom="1.244"
     inkscape:cx="224.67846"
     inkscape:cy="191.31833"
     inkscape:window-width="1368"
     inkscape:window-height="850"
     inkscape:window-x="-6"
     inkscape:window-y="-6"
     inkscape:window-maximized="1"
     inkscape:current-layer="svg337" />
  <g
     id="freepik--geometric-shapes--inject-2"
     transform="translate(-24.720001,-58.46005)">
    <rect
       x="250.10001"
       y="116.24"
       width="14.81"
       height="14.81"
       style="fill:#a61c3c;stroke:#263238;stroke-linecap:round;stroke-linejoin:round"
       id="rect2" />
    <rect
       x="283.44"
       y="140.91"
       width="14.81"
       height="14.81"
       transform="rotate(-41.11,290.87186,148.32524)"
       style="fill:#a61c3c;stroke:#263238;stroke-linecap:round;stroke-linejoin:round"
       id="rect4" />
    <rect
       x="200.10001"
       y="74.910004"
       width="14.81"
       height="14.81"
       transform="rotate(-41.11,207.5316,82.321886)"
       style="fill:#263238;stroke:#263238;stroke-linecap:round;stroke-linejoin:round"
       id="rect6" />
    <rect
       x="200.10001"
       y="134.91"
       width="14.81"
       height="14.81"
       transform="rotate(-41.11,207.52769,142.3198)"
       style="fill:#ffffff;stroke:#263238;stroke-linecap:round;stroke-linejoin:round"
       id="rect8" />
    <rect
       x="266.10001"
       y="74.239998"
       width="14.81"
       height="14.81"
       transform="rotate(-41.11,273.5298,81.655649)"
       style="fill:#a61c3c;stroke:#263238;stroke-linecap:round;stroke-linejoin:round"
       id="rect10" />
    <polygon
       points="273.56,148.51 268.48,153.46 269.68,160.45 263.39,157.15 257.12,160.45 258.31,153.46 253.24,148.51 260.25,147.49 263.39,141.13 266.54,147.49 "
       style="fill:#263238;stroke:#263238;stroke-linecap:round;stroke-linejoin:round"
       id="polygon12" />
    <polygon
       points="220.08,103.38 215,108.33 216.2,115.33 209.92,112.02 203.64,115.33 204.84,108.33 199.76,103.38 206.78,102.36 209.92,96 213.06,102.36 "
       style="fill:#a61c3c;stroke:#263238;stroke-linecap:round;stroke-linejoin:round"
       id="polygon14" />
    <polygon
       points="304.81,73.08 297.72,73.11 293.72,78.97 291.5,72.24 284.69,70.25 290.41,66.05 290.2,58.96 295.96,63.11 302.63,60.71 300.47,67.47 "
       style="fill:#ffffff;stroke:#263238;stroke-linecap:round;stroke-linejoin:round"
       id="polygon16" />
    <polygon
       points="267.07,168.38 268.42,175.34 274.92,178.19 268.71,181.62 268.02,188.68 262.83,183.83 255.91,185.36 258.91,178.93 255.32,172.81 262.36,173.68 "
       style="fill:#a61c3c;stroke:#263238;stroke-linecap:round;stroke-linejoin:round"
       id="polygon18" />
    <circle
       cx="284.75"
       cy="121.41"
       r="10.41"
       transform="rotate(-76.66,284.73954,121.41794)"
       style="fill:#ffffff;stroke:#263238;stroke-linecap:round;stroke-linejoin:round"
       id="circle20" />
    <circle
       cx="244.33"
       cy="187.67"
       r="10.41"
       transform="rotate(-45,244.3365,187.67251)"
       style="fill:#ffffff;stroke:#263238;stroke-linecap:round;stroke-linejoin:round"
       id="circle22" />
    <circle
       cx="317"
       cy="89.25"
       r="10.41"
       transform="rotate(-20.51,316.98426,89.257706)"
       style="fill:#263238;stroke:#263238;stroke-linecap:round;stroke-linejoin:round"
       id="circle24" />
    <circle
       cx="239.42"
       cy="102.75"
       r="10.41"
       transform="rotate(-76.66,239.40644,102.75083)"
       style="fill:#ffffff;stroke:#263238;stroke-linecap:round;stroke-linejoin:round"
       id="circle26" />
    <polygon
       points="222.58,143.7 239.95,134.52 223.31,124.06 "
       style="fill:#263238;stroke:#263238;stroke-linecap:round;stroke-linejoin:round"
       id="polygon28" />
    <polygon
       points="299.49,120.54 317.87,127.48 314.69,108.09 "
       style="fill:#263238;stroke:#263238;stroke-linecap:round;stroke-linejoin:round"
       id="polygon30" />
    <polygon
       points="229.66,160.6 246.27,171.1 247.06,151.47 "
       style="fill:#a61c3c;stroke:#263238;stroke-linecap:round;stroke-linejoin:round"
       id="polygon32" />
    <polygon
       points="280.42,94.57 297.03,105.07 297.82,85.43 "
       style="fill:#a61c3c;stroke:#263238;stroke-linecap:round;stroke-linejoin:round"
       id="polygon34" />
    <polygon
       points="248.74,66.99 229.09,67.48 239.34,84.25 "
       style="fill:#a61c3c;stroke:#263238;stroke-linecap:round;stroke-linejoin:round"
       id="polygon36" />
  </g>
  <g
     id="freepik--Graphics--inject-2"
     transform="translate(-24.720001,-58.46005)">
    <g
       style="opacity:0.3"
       id="g53">
      <path
         d="m 392.56,153.1 a 0.5,0.5 0 0 1 -0.5,-0.5 v -6.49 c 0,-3.32 -0.31,-15 -0.32,-15.14 a 0.5,0.5 0 0 1 0.47,-0.51 c 0.08,0 8.05,-0.48 14.67,-0.24 6.62,0.24 10.07,0 10.11,0 a 0.56,0.56 0 0 1 0.37,0.13 0.46,0.46 0 0 1 0.16,0.35 l 1,21.64 a 0.55,0.55 0 0 1 -0.14,0.37 0.51,0.51 0 0 1 -0.36,0.15 h -11.48 c -4.39,0 -13.87,0.24 -14,0.24 z m 0.2,-21.67 c 0.06,2.26 0.3,11.74 0.3,14.68 v 6 c 2,-0.05 9.67,-0.23 13.48,-0.23 h 10.92 l -0.91,-20.61 c -1.21,0.05 -4.52,0.16 -9.71,0 -5.64,-0.27 -12.26,0.06 -14.08,0.16 z"
         id="path39" />
      <path
         d="m 408.75,132.53 a 1.66,1.66 0 1 0 -1.66,1.67 1.66,1.66 0 0 0 1.66,-1.67 z"
         id="path41" />
      <circle
         cx="409.03"
         cy="131.39"
         r="1.66"
         id="circle43" />
      <path
         d="m 405,134.61 a 0.49,0.49 0 0 1 -0.37,-0.16 0.5,0.5 0 0 1 0,-0.71 l 1.14,-1 a 0.5,0.5 0 0 1 0.71,0 0.5,0.5 0 0 1 0,0.71 l -1.14,1 a 0.5,0.5 0 0 1 -0.34,0.16 z"
         id="path45" />
      <path
         d="m 410.75,139.13 h -12.89 a 0.5,0.5 0 0 1 0,-1 h 12.89 a 0.5,0.5 0 0 1 0,1 z"
         id="path47" />
      <path
         d="m 411.51,143.43 h -13.65 a 0.5,0.5 0 0 1 0,-1 h 13.65 a 0.5,0.5 0 0 1 0,1 z"
         id="path49" />
      <path
         d="m 411.77,147.48 h -13.91 a 0.5,0.5 0 0 1 -0.5,-0.5 0.5,0.5 0 0 1 0.5,-0.5 h 13.91 a 0.5,0.5 0 0 1 0.5,0.5 0.51,0.51 0 0 1 -0.5,0.5 z"
         id="path51" />
    </g>
    <g
       style="opacity:0.3"
       id="g69">
      <path
         d="m 456.05,226.39 a 0.5,0.5 0 0 1 -0.35,-0.14 0.51,0.51 0 0 1 -0.15,-0.36 v -6.49 c 0,-3.33 -0.31,-15 -0.32,-15.14 a 0.51,0.51 0 0 1 0.47,-0.52 c 0.08,0 8.05,-0.48 14.66,-0.24 6.61,0.24 10.08,0 10.12,0 a 0.56,0.56 0 0 1 0.37,0.13 0.48,0.48 0 0 1 0.16,0.35 l 1,21.65 a 0.52,0.52 0 0 1 -0.14,0.36 0.52,0.52 0 0 1 -0.36,0.16 H 470 c -4.39,0 -13.87,0.24 -14,0.24 z m 0.2,-21.67 c 0.06,2.25 0.3,11.73 0.3,14.68 v 6 c 2,0 9.67,-0.23 13.48,-0.23 h 10.91 l -0.9,-20.62 c -1.21,0.06 -4.52,0.16 -9.71,0 -5.64,-0.25 -12.27,0.07 -14.08,0.17 z"
         id="path55" />
      <path
         d="m 472.24,205.82 a 1.66,1.66 0 1 0 -1.66,1.66 1.66,1.66 0 0 0 1.66,-1.66 z"
         id="path57" />
      <path
         d="m 474.18,204.68 a 1.66,1.66 0 1 0 -1.66,1.66 1.66,1.66 0 0 0 1.66,-1.66 z"
         id="path59" />
      <path
         d="m 468.53,207.9 a 0.5,0.5 0 0 1 -0.34,-0.87 l 1.14,-1 a 0.5,0.5 0 1 1 0.67,0.74 l -1.14,1 a 0.46,0.46 0 0 1 -0.33,0.13 z"
         id="path61" />
      <path
         d="m 474.24,212.41 h -12.9 a 0.5,0.5 0 0 1 -0.5,-0.5 0.51,0.51 0 0 1 0.5,-0.5 h 12.9 a 0.5,0.5 0 0 1 0.5,0.5 0.5,0.5 0 0 1 -0.5,0.5 z"
         id="path63" />
      <path
         d="m 475,216.71 h -13.66 a 0.5,0.5 0 0 1 -0.5,-0.5 0.51,0.51 0 0 1 0.5,-0.5 H 475 a 0.5,0.5 0 0 1 0.5,0.5 0.5,0.5 0 0 1 -0.5,0.5 z"
         id="path65" />
      <path
         d="m 475.25,220.76 h -13.91 a 0.5,0.5 0 1 1 0,-1 h 13.91 a 0.5,0.5 0 0 1 0,1 z"
         id="path67" />
    </g>
    <g
       style="opacity:0.3"
       id="g85">
      <path
         d="m 161,190.35 a 0.5,0.5 0 0 1 -0.35,-0.14 0.53,0.53 0 0 1 -0.15,-0.36 v -6.49 c 0,-3.32 -0.31,-15 -0.32,-15.14 a 0.5,0.5 0 0 1 0.47,-0.51 c 0.08,0 8.05,-0.49 14.66,-0.24 6.61,0.25 10.08,0 10.12,0 a 0.5,0.5 0 0 1 0.37,0.12 0.48,0.48 0 0 1 0.16,0.35 l 1,21.65 a 0.55,0.55 0 0 1 -0.14,0.37 0.51,0.51 0 0 1 -0.36,0.15 H 175 c -4.39,0 -13.87,0.24 -14,0.24 z m 0.2,-21.67 c 0.06,2.26 0.3,11.73 0.3,14.68 v 6 c 2,-0.05 9.67,-0.23 13.48,-0.23 H 185.9 L 185,168.51 c -1.21,0.06 -4.52,0.16 -9.71,0 -5.64,-0.25 -12.29,0.07 -14.08,0.17 z"
         id="path71" />
      <path
         d="m 177.2,169.78 a 1.66,1.66 0 1 0 -1.66,1.66 1.66,1.66 0 0 0 1.66,-1.66 z"
         id="path73" />
      <path
         d="m 179.14,168.64 a 1.66,1.66 0 1 0 -1.66,1.66 1.66,1.66 0 0 0 1.66,-1.66 z"
         id="path75" />
      <path
         d="m 173.49,171.86 a 0.49,0.49 0 0 1 -0.37,-0.16 0.5,0.5 0 0 1 0,-0.71 l 1.14,-1 a 0.5,0.5 0 0 1 0.71,0 0.5,0.5 0 0 1 0,0.71 l -1.14,1 a 0.46,0.46 0 0 1 -0.34,0.16 z"
         id="path77" />
      <path
         d="m 179.2,176.38 h -12.9 a 0.51,0.51 0 0 1 -0.5,-0.5 0.5,0.5 0 0 1 0.5,-0.5 h 12.9 a 0.5,0.5 0 0 1 0.5,0.5 0.5,0.5 0 0 1 -0.5,0.5 z"
         id="path79" />
      <path
         d="m 180,180.68 h -13.7 a 0.51,0.51 0 0 1 -0.5,-0.5 0.5,0.5 0 0 1 0.5,-0.5 H 180 a 0.5,0.5 0 0 1 0.5,0.5 0.5,0.5 0 0 1 -0.5,0.5 z"
         id="path81" />
      <path
         d="M 180.21,184.72 H 166.3 a 0.5,0.5 0 0 1 -0.5,-0.5 0.51,0.51 0 0 1 0.5,-0.5 h 13.91 a 0.5,0.5 0 0 1 0.5,0.5 0.5,0.5 0 0 1 -0.5,0.5 z"
         id="path83" />
    </g>
    <g
       style="opacity:0.3"
       id="g101">
      <path
         d="m 357.86,186 a 0.49,0.49 0 0 1 -0.34,-0.14 0.48,0.48 0 0 1 -0.16,-0.36 v -6.49 c 0,-3.32 -0.31,-15 -0.31,-15.14 a 0.5,0.5 0 0 1 0.47,-0.51 c 0.08,0 8,-0.48 14.66,-0.24 6.66,0.24 10.08,0 10.11,0 a 0.56,0.56 0 0 1 0.37,0.13 0.51,0.51 0 0 1 0.17,0.35 l 0.95,21.64 a 0.47,0.47 0 0 1 -0.14,0.37 0.48,0.48 0 0 1 -0.36,0.15 h -11.44 c -4.39,0 -13.87,0.24 -14,0.24 z m 0.2,-21.67 c 0.06,2.26 0.3,11.74 0.3,14.68 v 6 c 2.05,-0.05 9.67,-0.23 13.48,-0.23 h 10.92 l -0.91,-20.61 c -1.2,0.05 -4.52,0.16 -9.71,0 -5.64,-0.17 -12.26,0.1 -14.08,0.2 z"
         id="path87" />
      <path
         d="m 374.06,165.47 a 1.67,1.67 0 1 0 -1.67,1.67 1.67,1.67 0 0 0 1.67,-1.67 z"
         id="path89" />
      <path
         d="M 376,164.33 A 1.67,1.67 0 1 0 374.33,166 1.66,1.66 0 0 0 376,164.33 Z"
         id="path91" />
      <path
         d="m 370.34,167.56 a 0.51,0.51 0 0 1 -0.37,-0.17 0.51,0.51 0 0 1 0,-0.71 l 1.14,-1 a 0.49,0.49 0 0 1 0.7,0 0.5,0.5 0 0 1 0,0.71 l -1.14,1 a 0.55,0.55 0 0 1 -0.33,0.17 z"
         id="path93" />
      <path
         d="m 376.06,172.07 h -12.9 a 0.5,0.5 0 0 1 0,-1 h 12.9 a 0.5,0.5 0 0 1 0,1 z"
         id="path95" />
      <path
         d="m 376.82,176.37 h -13.66 a 0.5,0.5 0 1 1 0,-1 h 13.66 a 0.5,0.5 0 1 1 0,1 z"
         id="path97" />
      <path
         d="m 377.07,180.42 h -13.91 a 0.5,0.5 0 0 1 -0.5,-0.5 0.5,0.5 0 0 1 0.5,-0.5 h 13.91 a 0.5,0.5 0 0 1 0.5,0.5 0.5,0.5 0 0 1 -0.5,0.5 z"
         id="path99" />
    </g>
    <g
       style="opacity:0.3"
       id="g117">
      <path
         d="m 419.2,186 a 0.5,0.5 0 0 1 -0.35,-0.14 0.48,0.48 0 0 1 -0.15,-0.36 v -6.49 c 0,-3.32 -0.32,-15 -0.32,-15.14 a 0.5,0.5 0 0 1 0.47,-0.51 c 0.08,0 8,-0.48 14.66,-0.24 6.66,0.24 10.08,0 10.12,0 a 0.53,0.53 0 0 1 0.36,0.13 0.51,0.51 0 0 1 0.17,0.35 l 0.95,21.64 a 0.5,0.5 0 0 1 -0.13,0.37 0.51,0.51 0 0 1 -0.37,0.15 h -11.43 c -4.39,0 -13.87,0.24 -14,0.24 z m 0.19,-21.67 c 0.06,2.26 0.31,11.74 0.31,14.68 v 6 c 2,-0.05 9.67,-0.23 13.48,-0.23 h 10.91 l -0.91,-20.61 c -1.2,0.05 -4.51,0.16 -9.7,0 -5.64,-0.17 -12.27,0.1 -14.09,0.2 z"
         id="path103" />
      <path
         d="m 435.39,165.47 a 1.67,1.67 0 1 0 -1.66,1.67 1.67,1.67 0 0 0 1.66,-1.67 z"
         id="path105" />
      <path
         d="m 437.33,164.33 a 1.67,1.67 0 1 0 -1.66,1.67 1.66,1.66 0 0 0 1.66,-1.67 z"
         id="path107" />
      <path
         d="m 431.68,167.56 a 0.5,0.5 0 0 1 -0.34,-0.88 l 1.14,-1 a 0.5,0.5 0 1 1 0.67,0.74 l -1.14,1 a 0.53,0.53 0 0 1 -0.33,0.14 z"
         id="path109" />
      <path
         d="m 437.39,172.07 h -12.9 a 0.5,0.5 0 0 1 0,-1 h 12.9 a 0.5,0.5 0 0 1 0,1 z"
         id="path111" />
      <path
         d="m 438.15,176.37 h -13.66 a 0.5,0.5 0 0 1 0,-1 h 13.66 a 0.5,0.5 0 0 1 0,1 z"
         id="path113" />
      <path
         d="m 438.4,180.42 h -13.91 a 0.51,0.51 0 0 1 -0.5,-0.5 0.5,0.5 0 0 1 0.5,-0.5 h 13.91 a 0.5,0.5 0 0 1 0.5,0.5 0.5,0.5 0 0 1 -0.5,0.5 z"
         id="path115" />
    </g>
    <g
       style="opacity:0.3"
       id="g133">
      <path
         d="m 430.38,134.65 a 0.51,0.51 0 0 1 -0.35,-0.15 0.47,0.47 0 0 1 -0.15,-0.35 v -6.5 c 0,-3.32 -0.31,-15 -0.32,-15.14 A 0.5,0.5 0 0 1 430,112 c 0.08,0 8.05,-0.48 14.66,-0.24 6.61,0.24 10.08,0 10.12,0 a 0.56,0.56 0 0 1 0.37,0.13 0.46,0.46 0 0 1 0.16,0.35 l 1,21.64 a 0.55,0.55 0 0 1 -0.14,0.37 0.51,0.51 0 0 1 -0.36,0.15 h -11.45 c -4.39,0 -13.87,0.24 -14,0.25 z m 0.2,-21.68 c 0.06,2.26 0.3,11.74 0.3,14.68 v 6 c 2,0 9.67,-0.23 13.48,-0.23 h 10.91 l -0.9,-20.61 c -1.21,0 -4.52,0.16 -9.71,0 -5.66,-0.25 -12.27,0.06 -14.08,0.19 z"
         id="path119" />
      <path
         d="m 446.57,114.07 a 1.66,1.66 0 1 0 -1.66,1.67 1.66,1.66 0 0 0 1.66,-1.67 z"
         id="path121" />
      <circle
         cx="446.85001"
         cy="112.93"
         r="1.66"
         id="circle123" />
      <path
         d="m 442.86,116.16 a 0.5,0.5 0 0 1 -0.37,-0.17 0.5,0.5 0 0 1 0,-0.71 l 1.14,-1 a 0.5,0.5 0 0 1 0.71,0 0.5,0.5 0 0 1 0,0.71 l -1.14,1 a 0.51,0.51 0 0 1 -0.34,0.17 z"
         id="path125" />
      <path
         d="m 448.57,120.67 h -12.9 a 0.5,0.5 0 0 1 0,-1 h 12.9 a 0.5,0.5 0 0 1 0,1 z"
         id="path127" />
      <path
         d="m 449.33,125 h -13.66 a 0.5,0.5 0 0 1 0,-1 h 13.66 a 0.5,0.5 0 0 1 0,1 z"
         id="path129" />
      <path
         d="m 449.58,129 h -13.91 a 0.51,0.51 0 0 1 -0.5,-0.5 0.5,0.5 0 0 1 0.5,-0.5 h 13.91 a 0.5,0.5 0 0 1 0.5,0.5 0.5,0.5 0 0 1 -0.5,0.5 z"
         id="path131" />
    </g>
    <g
       style="opacity:0.3"
       id="g149">
      <path
         d="m 353.71,129.31 a 0.5,0.5 0 0 1 -0.5,-0.5 v -6.49 c 0,-3.32 -0.31,-15 -0.31,-15.14 a 0.49,0.49 0 0 1 0.47,-0.51 c 0.07,0 8,-0.48 14.66,-0.24 6.66,0.24 10.08,0 10.11,0 a 0.5,0.5 0 0 1 0.37,0.12 0.53,0.53 0 0 1 0.17,0.35 l 0.95,21.65 a 0.47,0.47 0 0 1 -0.14,0.37 0.48,0.48 0 0 1 -0.36,0.15 h -11.44 c -4.39,0 -13.87,0.24 -14,0.24 z m 0.2,-21.67 c 0.06,2.26 0.3,11.73 0.3,14.68 v 6 c 2.05,-0.05 9.67,-0.23 13.48,-0.23 h 10.92 l -0.91,-20.62 c -1.21,0.06 -4.52,0.16 -9.71,0 -5.64,-0.25 -12.26,0.07 -14.08,0.17 z"
         id="path135" />
      <circle
         cx="368.23999"
         cy="108.74"
         r="1.66"
         id="circle137" />
      <path
         d="m 371.84,107.6 a 1.66,1.66 0 1 0 -1.66,1.66 1.66,1.66 0 0 0 1.66,-1.66 z"
         id="path139" />
      <path
         d="m 366.19,110.82 a 0.49,0.49 0 0 1 -0.37,-0.16 0.5,0.5 0 0 1 0,-0.71 l 1.14,-1 a 0.50284192,0.50284192 0 0 1 0.67,0.75 l -1.14,1 a 0.5,0.5 0 0 1 -0.3,0.12 z"
         id="path141" />
      <path
         d="M 371.91,115.34 H 359 a 0.5,0.5 0 0 1 -0.5,-0.5 0.5,0.5 0 0 1 0.5,-0.5 h 12.9 a 0.5,0.5 0 0 1 0.5,0.5 0.51,0.51 0 0 1 -0.49,0.5 z"
         id="path143" />
      <path
         d="M 372.66,119.64 H 359 a 0.5,0.5 0 0 1 -0.5,-0.5 0.5,0.5 0 0 1 0.5,-0.5 h 13.65 a 0.5,0.5 0 0 1 0.5,0.5 0.5,0.5 0 0 1 -0.49,0.5 z"
         id="path145" />
      <path
         d="M 372.92,123.68 H 359 a 0.5,0.5 0 0 1 -0.5,-0.5 0.5,0.5 0 0 1 0.5,-0.5 h 13.91 a 0.51,0.51 0 0 1 0.5,0.5 0.5,0.5 0 0 1 -0.49,0.5 z"
         id="path147" />
    </g>
    <g
       style="opacity:0.3"
       id="g171">
      <rect
         x="60.330002"
         y="129.33"
         width="13.1"
         height="13.1"
         style="fill:none;stroke:#000000;stroke-linecap:round;stroke-linejoin:round"
         id="rect151" />
      <line
         x1="79.440002"
         y1="135.89"
         x2="117.67"
         y2="135.89"
         style="fill:none;stroke:#000000;stroke-linecap:round;stroke-linejoin:round"
         id="line153" />
      <rect
         x="60.330002"
         y="149.33"
         width="13.1"
         height="13.1"
         style="fill:none;stroke:#000000;stroke-linecap:round;stroke-linejoin:round"
         id="rect155" />
      <line
         x1="79.440002"
         y1="155.89"
         x2="117.67"
         y2="155.89"
         style="fill:none;stroke:#000000;stroke-linecap:round;stroke-linejoin:round"
         id="line157" />
      <rect
         x="60.330002"
         y="169.33"
         width="13.1"
         height="13.1"
         style="fill:none;stroke:#000000;stroke-linecap:round;stroke-linejoin:round"
         id="rect159" />
      <line
         x1="79.440002"
         y1="175.89"
         x2="117.67"
         y2="175.89"
         style="fill:none;stroke:#000000;stroke-linecap:round;stroke-linejoin:round"
         id="line161" />
      <rect
         x="60.330002"
         y="189.33"
         width="13.1"
         height="13.1"
         style="fill:none;stroke:#000000;stroke-linecap:round;stroke-linejoin:round"
         id="rect163" />
      <line
         x1="79.440002"
         y1="195.89"
         x2="117.67"
         y2="195.89"
         style="fill:none;stroke:#000000;stroke-linecap:round;stroke-linejoin:round"
         id="line165" />
      <polyline
         points="63.67 173.33 65.67 178.67 79.67 169.33"
         style="fill:none;stroke:#000000;stroke-linecap:round;stroke-linejoin:round"
         id="polyline167" />
      <polyline
         points="63.67 132.67 65.67 138 79.67 128.67"
         style="fill:none;stroke:#000000;stroke-linecap:round;stroke-linejoin:round"
         id="polyline169" />
    </g>
    <g
       style="opacity:0.3"
       id="g193">
      <rect
         x="125.67"
         y="226.46001"
         width="8.96"
         height="8.96"
         style="fill:none;stroke:#000000;stroke-linecap:round;stroke-linejoin:round"
         id="rect173" />
      <line
         x1="138.73"
         y1="230.94"
         x2="164.87"
         y2="230.94"
         style="fill:none;stroke:#000000;stroke-linecap:round;stroke-linejoin:round"
         id="line175" />
      <rect
         x="125.67"
         y="240.13"
         width="8.96"
         height="8.96"
         style="fill:none;stroke:#000000;stroke-linecap:round;stroke-linejoin:round"
         id="rect177" />
      <line
         x1="138.73"
         y1="244.61"
         x2="164.87"
         y2="244.61"
         style="fill:none;stroke:#000000;stroke-linecap:round;stroke-linejoin:round"
         id="line179" />
      <rect
         x="125.67"
         y="253.8"
         width="8.96"
         height="8.96"
         style="fill:none;stroke:#000000;stroke-linecap:round;stroke-linejoin:round"
         id="rect181" />
      <line
         x1="138.73"
         y1="258.28"
         x2="164.87"
         y2="258.28"
         style="fill:none;stroke:#000000;stroke-linecap:round;stroke-linejoin:round"
         id="line183" />
      <rect
         x="125.67"
         y="267.48001"
         width="8.96"
         height="8.96"
         style="fill:none;stroke:#000000;stroke-linecap:round;stroke-linejoin:round"
         id="rect185" />
      <line
         x1="138.73"
         y1="271.95999"
         x2="164.87"
         y2="271.95999"
         style="fill:none;stroke:#000000;stroke-linecap:round;stroke-linejoin:round"
         id="line187" />
      <polyline
         points="127.95 256.54 129.31 260.19 138.88 253.8"
         style="fill:none;stroke:#000000;stroke-linecap:round;stroke-linejoin:round"
         id="polyline189" />
      <polyline
         points="127.95 228.74 129.31 232.38 138.88 226"
         style="fill:none;stroke:#000000;stroke-linecap:round;stroke-linejoin:round"
         id="polyline191" />
    </g>
    <path
       d="M 174.11,94.73 V 89.67 L 168.5,88.79 A 13.09,13.09 0 0 0 167.34,86 l 3.35,-4.58 -3.58,-3.58 -4.58,3.35 A 12.22,12.22 0 0 0 159.71,80 l -0.87,-5.62 h -5.06 L 152.91,80 a 12,12 0 0 0 -2.82,1.16 l -4.58,-3.35 -3.58,3.58 3.35,4.61 a 12.15,12.15 0 0 0 -1.16,2.81 l -5.61,0.88 v 5.06 l 5.61,0.87 a 12,12 0 0 0 1.16,2.81 l -3.35,4.57 3.58,3.57 4.58,-3.34 a 13,13 0 0 0 2.82,1.16 l 0.87,5.61 h 5.06 l 0.87,-5.61 a 13.17,13.17 0 0 0 2.82,-1.16 l 4.58,3.34 3.58,-3.57 -3.35,-4.59 a 12.89,12.89 0 0 0 1.16,-2.81 z m -17.8,5.47 a 8,8 0 1 1 8,-8 8,8 0 0 1 -8,8 z"
       style="opacity:0.3;fill:none;stroke:#000000;stroke-linecap:round;stroke-linejoin:round"
       id="path195" />
    <path
       d="m 141,110.2 v -3.39 l -3.76,-0.58 a 8.24,8.24 0 0 0 -0.77,-1.89 l 2.24,-3.06 -2.4,-2.4 -3.06,2.24 a 8.24,8.24 0 0 0 -1.89,-0.77 l -0.58,-3.76 h -3.39 l -0.58,3.76 a 8.17,8.17 0 0 0 -1.88,0.77 l -3.07,-2.24 -2.39,2.4 2.24,3.06 a 7.84,7.84 0 0 0 -0.78,1.89 l -3.76,0.58 v 3.39 l 3.76,0.58 a 7.77,7.77 0 0 0 0.78,1.88 l -2.24,3.07 2.39,2.39 3.07,-2.24 a 7.77,7.77 0 0 0 1.88,0.78 l 0.58,3.76 h 3.39 l 0.58,-3.76 a 7.84,7.84 0 0 0 1.89,-0.78 l 3.06,2.24 2.4,-2.39 -2.24,-3.07 a 8.17,8.17 0 0 0 0.77,-1.88 z m -11.91,3.66 a 5.36,5.36 0 1 1 5.35,-5.36 5.36,5.36 0 0 1 -5.35,5.36 z"
       style="opacity:0.3;fill:none;stroke:#000000;stroke-linecap:round;stroke-linejoin:round"
       id="path197" />
    <path
       d="m 319.32,321.55 -2.69,4.29 4.29,3.72 a 12.91,12.91 0 0 0 -0.51,3 l -5.27,2.1 1.13,4.93 5.66,-0.4 a 12.6,12.6 0 0 0 1.77,2.48 l -2.24,5.22 4.28,2.69 3.72,-4.29 a 13,13 0 0 0 3,0.51 l 2.1,5.27 4.93,-1.13 -0.4,-5.66 a 12.2,12.2 0 0 0 2.48,-1.77 l 5.22,2.24 2.69,-4.28 -4.3,-3.72 a 12.5,12.5 0 0 0 0.52,-3 l 5.27,-2.1 -1.13,-4.93 -5.66,0.4 a 12.9,12.9 0 0 0 -1.77,-2.48 l 2.24,-5.22 -4.29,-2.68 -3.71,4.26 a 11.86,11.86 0 0 0 -3,-0.51 l -2.1,-5.28 -4.93,1.13 0.38,5.66 a 12.55,12.55 0 0 0 -2.48,1.76 z m 18,4.82 a 8,8 0 1 1 -11,2.53 8,8 0 0 1 10.99,-2.53 z"
       style="opacity:0.3;fill:none;stroke:#000000;stroke-linecap:round;stroke-linejoin:round"
       id="path199" />
    <path
       d="m 355.59,326 -1.8,2.87 2.87,2.49 a 8.64,8.64 0 0 0 -0.34,2 l -3.53,1.41 0.76,3.3 3.79,-0.27 a 8.35,8.35 0 0 0 1.18,1.66 L 357,343 l 2.87,1.8 2.49,-2.87 a 8.13,8.13 0 0 0 2,0.34 l 1.41,3.53 3.3,-0.76 -0.27,-3.78 a 8.28,8.28 0 0 0 1.66,-1.19 l 3.49,1.5 1.8,-2.86 -2.87,-2.49 a 8.81,8.81 0 0 0 0.34,-2 l 3.53,-1.41 -0.76,-3.3 -3.79,0.27 a 8.35,8.35 0 0 0 -1.18,-1.66 l 1.5,-3.49 -2.87,-1.8 -2.49,2.87 a 8.13,8.13 0 0 0 -2,-0.34 l -1.41,-3.53 -3.3,0.76 0.27,3.78 a 8.7,8.7 0 0 0 -1.66,1.19 z m 12,3.22 a 5.36,5.36 0 1 1 -7.38,1.7 5.36,5.36 0 0 1 7.42,-1.66 z"
       style="opacity:0.3;fill:none;stroke:#000000;stroke-linecap:round;stroke-linejoin:round"
       id="path201" />
  </g>
  <g
     id="freepik--drawers-2--inject-2"
     transform="translate(-24.720001,-58.46005)">
    <rect
       x="25.23"
       y="257.87"
       width="84.379997"
       height="46.75"
       transform="rotate(180,67.42,281.25)"
       style="fill:#ffffff;stroke:#263238;stroke-linecap:round;stroke-linejoin:round"
       id="rect204" />
    <rect
       x="27.790001"
       y="257.87"
       width="84.379997"
       height="46.75"
       transform="rotate(180,69.985,281.25)"
       style="fill:#ffffff;stroke:#263238;stroke-linecap:round;stroke-linejoin:round"
       id="rect206" />
    <polygon
       points="84.33,289.35 70.33,265.09 56.33,289.35 "
       style="fill:#a61c3c;stroke:#263238;stroke-linecap:round;stroke-linejoin:round"
       id="polygon208" />
    <rect
       x="397.73999"
       y="341.87"
       width="84.379997"
       height="46.75"
       style="fill:#ffffff;stroke:#263238;stroke-linecap:round;stroke-linejoin:round"
       id="rect210" />
    <rect
       x="395.17001"
       y="341.87"
       width="84.379997"
       height="46.75"
       style="fill:#ffffff;stroke:#263238;stroke-linecap:round;stroke-linejoin:round"
       id="rect212" />
    <polygon
       points="450.33,361.27 443.09,368.33 444.8,378.29 435.86,373.59 426.91,378.29 428.62,368.33 421.38,361.27 431.38,359.82 435.86,350.75 440.33,359.82 "
       style="fill:#a61c3c;stroke:#263238;stroke-linecap:round;stroke-linejoin:round"
       id="polygon214" />
  </g>
  <g
     id="freepik--Character--inject-2"
     transform="translate(-24.720001,-58.46005)">
    <path
       d="m 236.64,258.77 c 0,0 -32.62,9.08 -34,12.2 -1.38,3.12 -19.86,36.59 -19.86,36.59 l 16.45,23.83 14.15,-18.39 5.1,43.69 c 0,0 -6.24,10.21 -4,14.75 a 13.88,13.88 0 0 0 6.24,6.24 h 74.33 c 0,0 4.54,-5.39 3.4,-12.48 -1.14,-7.09 -3.12,-15.89 -3.12,-15.89 l -0.28,-25 8.51,-26.1 41.7,-0.28 -7.06,-29.23 c 0,0 -28.94,-6.24 -30.92,-7.38 -1.98,-1.14 -11.92,-3.12 -16.74,-3.12 h -13.62 l -37.73,-0.28 z"
       style="fill:#a61c3c;stroke:#263238;stroke-linecap:round;stroke-linejoin:round"
       id="path217" />
    <polyline
       points="207.32 289.54 213.38 312.95 202.03 292.52"
       style="fill:none;stroke:#263238;stroke-linecap:round;stroke-linejoin:round"
       id="polyline219" />
    <line
       x1="205.14999"
       y1="281.17999"
       x2="206.14999"
       y2="285.01999"
       style="fill:none;stroke:#263238;stroke-linecap:round;stroke-linejoin:round"
       id="line221" />
    <line
       x1="196.33"
       y1="303.42999"
       x2="191.53999"
       y2="300.75"
       style="fill:none;stroke:#263238;stroke-linecap:round;stroke-linejoin:round"
       id="line223" />
    <line
       x1="213.38"
       y1="312.95001"
       x2="198.89"
       y2="304.85999"
       style="fill:none;stroke:#263238;stroke-linecap:round;stroke-linejoin:round"
       id="line225" />
    <polyline
       points="309.83 274.94 303.59 298.2 316.07 274.94"
       style="fill:none;stroke:#263238;stroke-linecap:round;stroke-linejoin:round"
       id="polyline227" />
    <line
       x1="326.70999"
       y1="284.09"
       x2="330.54001"
       y2="281.75"
       style="fill:none;stroke:#263238;stroke-linecap:round;stroke-linejoin:round"
       id="line229" />
    <line
       x1="303.59"
       y1="298.20001"
       x2="322.54999"
       y2="286.62"
       style="fill:none;stroke:#263238;stroke-linecap:round;stroke-linejoin:round"
       id="line231" />
    <line
       x1="272.57999"
       y1="334.67999"
       x2="276.07001"
       y2="331.95999"
       style="fill:none;stroke:#263238;stroke-linecap:round;stroke-linejoin:round"
       id="line233" />
    <line
       x1="233.52"
       y1="365.14999"
       x2="269.87"
       y2="336.79001"
       style="fill:none;stroke:#263238;stroke-linecap:round;stroke-linejoin:round"
       id="line235" />
    <line
       x1="253.94"
       y1="345.57001"
       x2="233.52"
       y2="360.04001"
       style="fill:none;stroke:#263238;stroke-linecap:round;stroke-linejoin:round"
       id="line237" />
    <polygon
       points="258.48,279.48 272.95,261.6 268.41,239.48 243.45,238.34 241.75,260.75 "
       style="fill:#ffffff;stroke:#263238;stroke-linecap:round;stroke-linejoin:round"
       id="polygon239" />
    <path
       d="m 268.41,239.48 -25,-1.14 L 243,244 c 3.73,4.33 11.2,13.8 14.22,14.56 2.53,0.63 9,-6.64 12.65,-11.87 z"
       style="fill:#263238;stroke:#263238;stroke-linecap:round;stroke-linejoin:round"
       id="path241" />
    <polygon
       points="243.73,287.7 233.8,259.05 238.91,247.14 254.51,266.99 "
       style="fill:#ffffff;stroke:#263238;stroke-linecap:round;stroke-linejoin:round"
       id="polygon243" />
    <polygon
       points="270.68,287.7 280.61,259.05 275.5,247.14 259.9,266.99 "
       style="fill:#ffffff;stroke:#263238;stroke-linecap:round;stroke-linejoin:round"
       id="polygon245" />
    <path
       d="m 233.53,209.12 c 0,0 -3.12,-6.52 -5.95,-1.42 -2.83,5.1 6.24,15.3 7.42,15.3 1.18,0 -1.47,-13.88 -1.47,-13.88 z"
       style="fill:#ffffff;stroke:#263238;stroke-linecap:round;stroke-linejoin:round"
       id="path247" />
    <path
       d="m 278.64,209.12 c 0,0 3.12,-6.52 6,-1.42 2.88,5.1 -6.28,15.3 -7.42,15.3 -1.14,0 1.42,-13.88 1.42,-13.88 z"
       style="fill:#ffffff;stroke:#263238;stroke-linecap:round;stroke-linejoin:round"
       id="path249" />
    <path
       d="m 231.58,187.56 c 0.22,4.65 1.87,37.41 4.51,44.26 2.83,7.37 15.88,19.29 22.12,18.72 6.24,-0.57 17.31,-14.47 18.73,-19.57 1.27,-4.59 2.32,-36.93 2.52,-43.41 z"
       style="fill:#ffffff;stroke:#263238;stroke-linecap:round;stroke-linejoin:round"
       id="path251" />
    <path
       d="m 238.92,213.66 c 0,0 4,4.26 11.35,-0.28"
       style="fill:none;stroke:#263238;stroke-linecap:round;stroke-linejoin:round"
       id="path253" />
    <path
       d="m 274.1,213.66 c 0,0 -4,4.26 -11.35,-0.28"
       style="fill:none;stroke:#263238;stroke-linecap:round;stroke-linejoin:round"
       id="path255" />
    <path
       d="m 253.11,224.73 c 0,0 2.83,5.39 9.08,0"
       style="fill:none;stroke:#263238;stroke-linecap:round;stroke-linejoin:round"
       id="path257" />
    <line
       x1="254.81"
       y1="234.37"
       x2="259.92001"
       y2="234.37"
       style="fill:none;stroke:#263238;stroke-linecap:round;stroke-linejoin:round"
       id="line259" />
    <path
       d="m 237.22,206 c 0,0 2,-2 12.2,-0.28"
       style="fill:none;stroke:#263238;stroke-width:2px;stroke-linecap:round;stroke-linejoin:round"
       id="path261" />
    <path
       d="m 274.38,206 c 0,0 -2,-2 -12.19,-0.28"
       style="fill:none;stroke:#263238;stroke-width:2px;stroke-linecap:round;stroke-linejoin:round"
       id="path263" />
    <path
       d="m 345,267.85 c 0,0 30.63,-64.4 33.75,-64.68 3.12,-0.28 6.81,4 5.68,9.64 -1.13,5.64 -16.73,60.19 -20.13,71.49 -3.4,11.3 -7.95,15.88 -11.63,14.47 -3.68,-1.41 -7.67,-30.92 -7.67,-30.92 z"
       style="fill:#ffffff;stroke:#263238;stroke-linecap:round;stroke-linejoin:round"
       id="path265" />
    <path
       d="m 171.22,307.5 c 0,0 15.66,35.57 19.3,34.94 3.64,-0.63 14.48,-11.44 14.93,-13.52 0.45,-2.08 -6.72,-13.81 -14,-19.17 -7.28,-5.36 -9.61,-7.26 -10.73,-7.07 -1.12,0.19 -7.72,3.64 -9.5,4.82 z"
       style="fill:#ffffff;stroke:#263238;stroke-linecap:round;stroke-linejoin:round"
       id="path267" />
    <path
       d="m 335.64,265.86 c 0,0 -2.83,19 -0.28,26.67 2.55,7.67 5.11,8.79 9.36,9.07 4.25,0.28 10.5,-0.85 11.63,-3.68 1.13,-2.83 -9.07,-30.64 -10.21,-32.63 -1.14,-1.99 -6.81,-1.7 -10.5,0.57 z"
       style="fill:#ffffff;stroke:#263238;stroke-linecap:round;stroke-linejoin:round"
       id="path269" />
    <path
       d="m 117.62,298.94 a 68,68 0 0 0 -7.07,-4.25 c 0,0 -4.53,-1.23 -5.54,-5.37 -1.01,-4.14 4.82,-5.44 4.82,-5.44 3.73,-0.07 67.19,27.22 67.19,27.22 10.76,12.24 12.67,26.59 13,28.55 a 2.57,2.57 0 0 1 -2.36,3 c -1.12,0.19 -20.17,-8.27 -25.86,-11.35 -12.08,-6.55 -40.63,-30.1 -40.63,-30.1 z"
       style="fill:#ffffff;stroke:#263238;stroke-linecap:round;stroke-linejoin:round"
       id="path271" />
    <path
       d="m 88.87,308.12 c 0,0 -2.72,4.17 -5.57,6 -2.85,1.83 -6.61,3 -5.41,3.84 1.2,0.84 2.62,1.4 5.56,0.09 2.94,-1.31 6.4,-2.69 6.4,-2.69 0,0 3.08,-8.2 -0.98,-7.24 z"
       style="fill:#ffffff;stroke:#263238;stroke-linecap:round;stroke-linejoin:round"
       id="path273" />
    <path
       d="m 88.32,309.54 c 0,0 -2.56,8.1 -5.79,10.78 -3.23,2.68 -7.89,4.8 -4.89,5.33 3,0.53 4.87,-0.84 8.92,-3.39 4.05,-2.55 5.28,-4.61 4.69,-9.53 -0.59,-4.92 -1.25,-5.6 -2.93,-3.19 z"
       style="fill:#ffffff;stroke:#263238;stroke-linecap:round;stroke-linejoin:round"
       id="path275" />
    <path
       d="m 88.6,306.58 c 0,0 -0.24,9.29 -0.86,13.36 -0.62,4.07 -8.26,11.74 -5,12 3.26,0.26 8.89,-8.14 10.19,-11.27 1.3,-3.13 2.25,-3.83 1.25,-6.56 -1,-2.73 -4.79,-10.57 -5.58,-7.53 z"
       style="fill:#ffffff;stroke:#263238;stroke-linecap:round;stroke-linejoin:round"
       id="path277" />
    <circle
       cx="105.14"
       cy="331.01999"
       r="13.69"
       transform="rotate(-47.38,105.11698,330.99851)"
       style="fill:#263238;stroke:#263238;stroke-linecap:round;stroke-linejoin:round"
       id="circle279" />
    <path
       d="m 115.73,286.3 c 0,0 -8.46,-4.61 -12.42,-1.55 -3.96,3.06 -12.86,17.25 -15.79,20.17 -2.93,2.92 2.55,10.13 4.43,16.41 1.88,6.28 0.37,11.29 3.61,10.2 3.24,-1.09 1.9,-4.29 2.12,-10.67 0.22,-6.38 -2.35,-12 -2.22,-12.82 0.13,-0.82 6.51,-5.09 10.67,-4 4.16,1.09 6.23,3.93 6,7.15 -0.23,3.22 -2.61,12.34 -1.4,14.77 1.21,2.43 3.44,3.1 4.78,-1.36 1.34,-4.46 4.93,-12.74 5.68,-16 0.75,-3.26 -6.58,-18.14 -6.58,-18.14"
       style="fill:#ffffff;stroke:#263238;stroke-linecap:round;stroke-linejoin:round"
       id="path281" />
    <path
       d="m 98,342.7 a 13.7,13.7 0 0 1 6.67,-25.37"
       style="fill:#263238;stroke:#263238;stroke-linecap:round;stroke-linejoin:round"
       id="path283" />
    <path
       d="m 409.59,213.38 c 0,0 4.35,2.4 7.73,2.65 3.38,0.25 7.24,-0.48 6.58,0.84 -0.66,1.32 -1.65,2.46 -4.86,2.71 -3.21,0.25 -6.92,0.64 -6.92,0.64 0,0 -6.57,-5.77 -2.53,-6.84 z"
       style="fill:#ffffff;stroke:#263238;stroke-linecap:round;stroke-linejoin:round"
       id="path285" />
    <path
       d="m 410.74,214.37 c 0,0 6.08,5.94 10.19,6.77 4.11,0.83 9.22,0.51 6.83,2.4 -2.39,1.89 -4.7,1.56 -9.47,1.22 -4.77,-0.34 -6.83,-1.58 -8.63,-6.19 -1.8,-4.61 -1.56,-5.52 1.08,-4.2 z"
       style="fill:#ffffff;stroke:#263238;stroke-linecap:round;stroke-linejoin:round"
       id="path287" />
    <path
       d="m 409.09,211.9 c 0,0 4.6,8.08 7.06,11.37 2.46,3.29 12.83,6.45 10.11,8.17 -2.72,1.72 -11.68,-3 -14.31,-5.13 -2.63,-2.13 -3.78,-2.31 -4.19,-5.19 -0.41,-2.88 -0.76,-11.53 1.33,-9.22 z"
       style="fill:#ffffff;stroke:#263238;stroke-linecap:round;stroke-linejoin:round"
       id="path289" />
    <rect
       x="392.92999"
       y="231.89999"
       width="21.110001"
       height="21.110001"
       style="fill:#a61c3c;stroke:#263238;stroke-linecap:round;stroke-linejoin:round"
       id="rect291" />
    <path
       d="m 375.6,206.82 c 0,0 5.29,-8.06 10.22,-7.22 4.93,0.84 19.49,9.17 23.44,10.33 3.95,1.16 2.54,10.13 3.84,16.55 1.3,6.42 5,10.13 1.63,10.7 -3.37,0.57 -3.7,-2.89 -6.9,-8.41 -3.2,-5.52 -3.6,-11.69 -4.09,-12.35 -0.49,-0.66 -8.15,-1.42 -11.28,1.58 -3.13,3 -3.64,6.42 -1.91,9.14 1.73,2.72 8.13,9.64 8.2,12.36 0.07,2.72 -1.57,4.36 -4.85,1.06 -3.28,-3.3 -10.36,-8.91 -12.58,-11.47 -2.22,-2.56 -2.76,-19.1 -2.76,-19.1"
       style="fill:#ffffff;stroke:#263238;stroke-linecap:round;stroke-linejoin:round"
       id="path293" />
    <polyline
       points="403.53 231.91 414.04 231.91 414.04 242.57"
       style="fill:#a61c3c;stroke:#263238;stroke-linecap:round;stroke-linejoin:round"
       id="polyline295" />
    <path
       d="m 220.75,377.63 -5,18.76 -53.66,-2.32 c 0,0 32.43,26.64 48.25,32 15.82,5.36 37.45,11.2 55.59,9.65 18.14,-1.55 35.9,-5 54,-13.9 18.1,-8.9 29,-26.25 29,-26.25 h -51.37 l -2.48,-18 z"
       style="fill:#263238;stroke:#263238;stroke-linecap:round;stroke-linejoin:round"
       id="path297" />
    <path
       d="m 297.23,420.81 c 0,0 12.34,0.91 21.23,-1.38 8.89,-2.29 15.3,2.09 16.11,10.38 0.81,8.29 -3.34,15.91 -14.37,16.74 -11.03,0.83 -26.79,-6.39 -26.79,-6.39 0,0 -4.32,-11.11 3.82,-19.35 z"
       style="fill:#ffffff;stroke:#263238;stroke-linecap:round;stroke-linejoin:round"
       id="path299" />
    <path
       d="m 309.72,445.2 c 0,0 10.21,2.45 15.12,-2.58 4.91,-5.03 5.9,-12.27 4.36,-18 a 8.15,8.15 0 0 0 -6.06,-5.82 c 6.39,0.07 10.77,4.23 11.43,11 0.81,8.3 -3.34,15.91 -14.37,16.74 a 41.19,41.19 0 0 1 -12.59,-1.47 z"
       style="fill:#ffffff;stroke:#263238;stroke-linecap:round;stroke-linejoin:round"
       id="path301" />
    <path
       d="m 293.81,424.25 c 0,0 6.17,2.74 11.25,2.59 5.08,-0.15 7.21,4.36 4,7.51 -3.21,3.15 -16.38,-0.55 -17.54,-1.34 -1.16,-0.79 -0.77,-6.44 2.29,-8.76 z"
       style="fill:#ffffff;stroke:#263238;stroke-linecap:round;stroke-linejoin:round"
       id="path303" />
    <path
       d="m 236.19,391.92 a 391.81,391.81 0 0 1 -55.93,-30 c -9.19,-6.06 -18.39,-8.36 -26.33,-1.88 -7.94,6.48 -7.52,20.69 -1.05,28 6.47,7.31 26.55,14.63 45.57,22.58 19.02,7.95 57.47,17.13 68.55,20.06 11.08,2.93 14.21,4.81 16.93,7.32 2.72,2.51 9.48,2.19 9.48,2.19 0,0 -0.07,-8.46 1.81,-12.44 1.88,-3.98 3.13,-6.68 3.13,-6.68 0,0 -3.34,-2.51 -6.48,-4.81 -3.14,-2.3 -4,-0.63 -10.45,-4.81 -7.16,-4.62 -15.94,-7.39 -23.81,-10.51 -7.12,-2.85 -14.28,-5.85 -21.42,-9.02 z"
       style="fill:#263238;stroke:#263238;stroke-linecap:round;stroke-linejoin:round"
       id="path305" />
    <path
       d="m 202.22,423 c 0,0 -12.36,-0.77 -20.85,-4.24 -8.49,-3.47 -15.44,0 -17.37,8.1 -1.93,8.1 1.16,16.22 12,18.53 10.84,2.31 27.4,-2.7 27.4,-2.7 0,0 5.76,-10.4 -1.18,-19.69 z"
       style="fill:#ffffff;stroke:#263238;stroke-linecap:round;stroke-linejoin:round"
       id="path307" />
    <path
       d="m 186.53,445.49 c 0,0 -10.45,1 -14.63,-4.6 -4.18,-5.6 -4.18,-13 -1.88,-18.39 a 8.13,8.13 0 0 1 6.79,-4.95 c -6.34,-0.79 -11.24,2.73 -12.81,9.33 -1.93,8.11 1.16,16.22 12,18.53 a 41.43,41.43 0 0 0 12.67,0.25 z"
       style="fill:#ffffff;stroke:#263238;stroke-linecap:round;stroke-linejoin:round"
       id="path309" />
    <path
       d="m 205.14,426.89 c 0,0 -6.48,1.88 -11.5,1 -5.02,-0.88 -7.73,3.35 -5,6.9 2.73,3.55 16.31,1.67 17.56,1.05 1.25,-0.62 1.65,-6.23 -1.06,-8.95 z"
       style="fill:none;stroke:#263238;stroke-linecap:round;stroke-linejoin:round"
       id="path311" />
    <path
       d="m 217.27,419.93 c 0,0 71.42,-29.33 96.89,-43.23 25.47,-13.9 44,-9.65 44,5.4 0,15.05 -20.85,25.1 -37.44,32.43 -16.59,7.33 -81.07,22.39 -88.4,23.55 -7.33,1.16 -8.5,1.54 -8.5,1.54 0,0 -3.86,4.25 -5,4.63 -1.14,0.38 -17,-2.31 -17,-2.31 0,0 3.86,-8.11 2.7,-11.58 -1.16,-3.47 -2.31,-7.34 -2.31,-7.34 0,0 8.88,-6.56 15.06,-3.09 z"
       style="fill:#263238;stroke:#263238;stroke-linecap:round;stroke-linejoin:round"
       id="path313" />
  </g>
  <g
     id="freepik--drawers-1--inject-2"
     transform="translate(-24.720001,-58.46005)">
    <rect
       x="439.64999"
       y="262.72"
       width="42.48"
       height="36.490002"
       style="fill:#263238;stroke:#263238;stroke-linecap:round;stroke-linejoin:round"
       id="rect316" />
    <rect
       x="439.64999"
       y="270.07001"
       width="42.48"
       height="29.139999"
       style="fill:#b0b0b0;stroke:#263238;stroke-linecap:round;stroke-linejoin:round"
       id="rect318" />
    <rect
       x="363.53"
       y="257.87"
       width="84.379997"
       height="46.75"
       style="fill:#ffffff;stroke:#263238;stroke-linecap:round;stroke-linejoin:round"
       id="rect320" />
    <rect
       x="360.95999"
       y="257.87"
       width="84.379997"
       height="46.75"
       style="fill:#ffffff;stroke:#263238;stroke-linecap:round;stroke-linejoin:round"
       id="rect322" />
    <rect
       x="389.26001"
       y="269.13"
       width="21.110001"
       height="21.110001"
       style="fill:#a61c3c;stroke:#263238;stroke-linecap:round;stroke-linejoin:round"
       id="rect324" />
    <rect
       x="25.23"
       y="346.72"
       width="42.48"
       height="36.490002"
       transform="rotate(180,46.465,364.96)"
       style="fill:#263238;stroke:#263238;stroke-linecap:round;stroke-linejoin:round"
       id="rect326" />
    <rect
       x="25.23"
       y="354.07001"
       width="42.48"
       height="29.139999"
       transform="rotate(180,46.465,368.64)"
       style="fill:#b0b0b0;stroke:#263238;stroke-linecap:round;stroke-linejoin:round"
       id="rect328" />
    <rect
       x="59.439999"
       y="341.87"
       width="84.379997"
       height="46.75"
       transform="rotate(180,101.63,365.25)"
       style="fill:#ffffff;stroke:#263238;stroke-linecap:round;stroke-linejoin:round"
       id="rect330" />
    <rect
       x="62"
       y="341.87"
       width="84.379997"
       height="46.75"
       transform="rotate(180,104.195,365.25)"
       style="fill:#ffffff;stroke:#263238;stroke-linecap:round;stroke-linejoin:round"
       id="rect332" />
    <circle
       cx="106.28"
       cy="365.66"
       r="13.49"
       transform="rotate(-42.6,106.28313,365.6629)"
       style="fill:#a61c3c;stroke:#263238;stroke-linecap:round;stroke-linejoin:round"
       id="circle334" />
  </g>
</svg>
