<?xml version="1.0" encoding="UTF-8" standalone="no"?>
<svg
   xmlns:dc="http://purl.org/dc/elements/1.1/"
   xmlns:cc="http://creativecommons.org/ns#"
   xmlns:rdf="http://www.w3.org/1999/02/22-rdf-syntax-ns#"
   xmlns:svg="http://www.w3.org/2000/svg"
   xmlns="http://www.w3.org/2000/svg"
   xmlns:sodipodi="http://sodipodi.sourceforge.net/DTD/sodipodi-0.dtd"
   xmlns:inkscape="http://www.inkscape.org/namespaces/inkscape"
   viewBox="0 0 463.55499 445.18002"
   version="1.1"
   id="svg198"
   sodipodi:docname="kpl-accueil-gaming.svg"
   width="463.55499"
   height="445.18002"
   inkscape:version="1.0 (4035a4fb49, 2020-05-01)">
  <metadata
     id="metadata204">
    <rdf:RDF>
      <cc:Work
         rdf:about="">
        <dc:format>image/svg+xml</dc:format>
        <dc:type
           rdf:resource="http://purl.org/dc/dcmitype/StillImage" />
      </cc:Work>
    </rdf:RDF>
  </metadata>
  <defs
     id="defs202" />
  <sodipodi:namedview
     inkscape:document-rotation="0"
     pagecolor="#ffffff"
     bordercolor="#666666"
     borderopacity="1"
     objecttolerance="10"
     gridtolerance="10"
     guidetolerance="10"
     inkscape:pageopacity="0"
     inkscape:pageshadow="2"
     inkscape:window-width="1920"
     inkscape:window-height="1057"
     id="namedview200"
     showgrid="false"
     inkscape:zoom="1.852"
     inkscape:cx="481.36722"
     inkscape:cy="266.08208"
     inkscape:window-x="-8"
     inkscape:window-y="-8"
     inkscape:window-maximized="1"
     inkscape:current-layer="svg198" />
  <g
     transform="translate(61.393159)"
     id="g1029">
    <g
       transform="matrix(1.1475395,0,0,1.1475395,-139.66022,-71.384114)"
       id="freepik--arcade-machine--inject-18">
      <path
         id="path2"
         style="fill:#263238;stroke:#263238;stroke-linecap:round;stroke-linejoin:round"
         d="m 184.12,248.5 30.48,-20.28 39,-112.19 -12.89,-50.51 c -0.45,-1.8 4.85,-3.35 6.56,-2.63 l 50.86,22.65 v 354.79 h -91.45 v -160.9 z" />
      <path
         id="path4"
         style="fill:#a61c3c;stroke:#263238;stroke-linecap:round;stroke-linejoin:round"
         d="m 187.63,248.5 30.48,-20.28 39,-112.19 -12.9,-50.51 a 2.24,2.24 0 0 1 3,-2.63 l 54.37,22.65 v 354.79 h -91.39 v -160.9 z" />
      <polygon
         id="polygon6"
         style="fill:#9c9c9c;stroke:#263238;stroke-linecap:round;stroke-linejoin:round"
         points="374.58,113.33 261.21,113.33 277.46,116.71 373.69,116.71 " />
      <polygon
         id="polygon8"
         style="fill:#263238;stroke:#263238;stroke-linecap:round;stroke-linejoin:round"
         points="334.67,228.22 222.15,228.85 277.46,116.71 378.85,116.71 " />
      <polygon
         id="polygon10"
         style="fill:#787878"
         points="323.57,209.9 242.07,210.37 282.13,129.13 355.57,129.13 " />
      <polygon
         id="polygon12"
         style="fill:#595959"
         points="334.31,182.79 255.67,182.79 242.07,210.37 323.57,209.9 " />
      <polygon
         id="polygon14"
         style="fill:#969696"
         points="271.76,150.17 347.24,150.17 355.57,129.13 282.13,129.13 " />
      <rect
         id="rect16"
         style="fill:#263238"
         rx="1.58"
         height="3.6600001"
         width="27.440001"
         y="165.72"
         x="291.39999" />
      <path
         id="path18"
         style="fill:#263238"
         d="m 286.83,143.6 -10.8,22 a 1.9,1.9 0 0 1 -2.45,0.94 v 0 a 1.78,1.78 0 0 1 -0.78,-2.44 l 10.8,-22 a 1.9,1.9 0 0 1 2.45,-0.94 v 0 a 1.79,1.79 0 0 1 0.78,2.44 z" />
      <path
         id="path20"
         style="fill:#263238"
         d="m 326.46,130.19 -18.9,36.42 a 1.88,1.88 0 0 1 -2.44,0.94 v 0 a 1.79,1.79 0 0 1 -0.78,-2.44 l 18.89,-36.42 a 1.9,1.9 0 0 1 2.45,-0.94 v 0 a 1.78,1.78 0 0 1 0.78,2.44 z" />
      <path
         id="path22"
         style="fill:#263238"
         d="m 333.55,165.94 -9,22.74 a 1.89,1.89 0 0 1 -2.36,1.13 v 0 a 1.79,1.79 0 0 1 -1,-2.37 l 9,-22.74 a 1.89,1.89 0 0 1 2.36,-1.13 v 0 a 1.79,1.79 0 0 1 1,2.37 z" />
      <rect
         id="rect24"
         style="fill:#263238"
         rx="1.58"
         height="3.6600001"
         width="27.440001"
         y="157.78999"
         x="276.16" />
      <rect
         id="rect26"
         style="fill:#263238"
         rx="1.58"
         height="3.6600001"
         width="27.440001"
         y="175.17"
         x="301.45999" />
      <path
         id="path28"
         style="fill:#a61c3c"
         d="m 302.45,159.89 a 2.1,2.1 0 1 0 -2.09,2.09 2.1,2.1 0 0 0 2.09,-2.09 z" />
      <path
         id="path30"
         style="fill:#a61c3c"
         d="m 285.85,214.47 a 2.1,2.1 0 1 0 -2.1,2.1 2.1,2.1 0 0 0 2.1,-2.1 z" />
      <path
         id="path32"
         style="fill:#a61c3c"
         d="m 298.61,214.47 a 2.1,2.1 0 1 0 -2.1,2.1 2.1,2.1 0 0 0 2.1,-2.1 z" />
      <path
         id="path34"
         style="fill:#a61c3c"
         d="m 311.37,214.47 a 2.1,2.1 0 1 0 -2.09,2.1 2.1,2.1 0 0 0 2.09,-2.1 z" />
      <path
         id="path36"
         style="fill:#ffffff"
         d="m 331.3,171.51 a 2.1,2.1 0 1 0 -2.1,2.1 2.1,2.1 0 0 0 2.1,-2.1 z" />
      <path
         id="path38"
         style="fill:#a61c3c"
         d="m 265.2,198.1 c -0.63,-0.87 -2.05,-0.87 -3.18,0 l -0.74,0.58 -0.41,-0.58 a 1.66,1.66 0 0 0 -1.39,-0.65 3,3 0 0 0 -1.79,0.65 c -1.13,0.88 -1.55,2.31 -0.93,3.19 l 0.41,0.57 2.25,3.18 4.11,-3.18 0.74,-0.57 a 3.21,3.21 0 0 0 1.12,-1.59 1.85,1.85 0 0 0 -0.19,-1.6 z" />
      <path
         id="path40"
         style="fill:#a61c3c"
         d="m 275.87,198.1 c -0.63,-0.87 -2.05,-0.87 -3.18,0 l -0.74,0.58 -0.41,-0.58 a 1.66,1.66 0 0 0 -1.39,-0.65 3,3 0 0 0 -1.79,0.65 c -1.13,0.88 -1.55,2.31 -0.93,3.19 l 0.41,0.57 2.25,3.18 4.11,-3.18 0.74,-0.57 a 3.21,3.21 0 0 0 1.12,-1.59 1.85,1.85 0 0 0 -0.19,-1.6 z" />
      <line
         id="line42"
         style="fill:none;stroke:#ffffff;stroke-miterlimit:10"
         y2="123.88"
         x2="344.25"
         y1="123.88"
         x1="333.98999" />
      <line
         id="line44"
         style="fill:none;stroke:#ffffff;stroke-miterlimit:10"
         y2="124.23"
         x2="298.26001"
         y1="124.23"
         x1="289.06" />
      <polygon
         id="polygon46"
         style="fill:#a61c3c;stroke:#263238;stroke-linecap:round;stroke-linejoin:round"
         points="191.3,249.14 222.15,228.85 334.67,228.22 304.18,248.5 " />
      <path
         id="path48"
         style="fill:#a61c3c;stroke:#263238;stroke-linecap:round;stroke-linejoin:round"
         d="m 300.26,236.38 c 0,1.32 -2.15,2.39 -4.79,2.39 -2.64,0 -4.79,-1.07 -4.79,-2.39 0,-1.32 2.14,-2.4 4.79,-2.4 2.65,0 4.79,1.08 4.79,2.4 z" />
      <path
         id="path50"
         style="fill:#a61c3c;stroke:#263238;stroke-linecap:round;stroke-linejoin:round"
         d="m 283.05,239.09 c 0,1.32 -2.14,2.39 -4.79,2.39 -2.65,0 -4.79,-1.07 -4.79,-2.39 0,-1.32 2.15,-2.4 4.79,-2.4 2.64,0 4.79,1.07 4.79,2.4 z" />
      <path
         id="path52"
         style="fill:#263238;stroke:#263238;stroke-linecap:round;stroke-linejoin:round"
         d="m 315.16,234 c 0,1.33 -2.15,2.4 -4.79,2.4 -2.64,0 -4.79,-1.07 -4.79,-2.4 0,-1.33 2.14,-2.39 4.79,-2.39 2.65,0 4.79,1.05 4.79,2.39 z" />
      <rect
         id="rect54"
         style="fill:#263238;stroke:#263238;stroke-linecap:round;stroke-linejoin:round"
         height="160.96001"
         width="113.42"
         y="279.42999"
         x="209.82001" />
      <rect
         id="rect56"
         style="fill:#595959"
         height="58.529999"
         width="41.240002"
         y="304.39999"
         x="245.89999" />
      <polygon
         id="polygon58"
         style="fill:#263238;stroke:#263238;stroke-linecap:round;stroke-linejoin:round"
         points="323.23,279.43 300.67,248.5 187.26,248.5 209.81,279.43 " />
      <polygon
         id="polygon60"
         style="fill:#a61c3c;stroke:#263238;stroke-linecap:round;stroke-linejoin:round"
         points="261.21,113.33 248.47,67.47 359.93,67.47 374.58,113.33 " />
      <path
         id="path62"
         style="fill:#ffffff"
         d="m 278.68,80 h -4.56 l -3.93,20.2 h 3.87 l 0.78,-4.44 H 278 l 0.72,4.44 h 3.82 z m -3.47,13.24 1.2,-8.16 1.22,8.16 z" />
      <path
         id="path64"
         style="fill:#ffffff"
         d="m 293.77,90.36 a 3.61,3.61 0 0 0 1.5,-1.14 4.21,4.21 0 0 0 0.76,-1.66 10.53,10.53 0 0 0 0.21,-2.22 c 0,-0.23 0,-0.45 0,-0.66 a 6.68,6.68 0 0 0 -0.26,-1.51 3.65,3.65 0 0 0 -0.5,-1.07 4,4 0 0 0 -2.24,-1.63 A 11.63,11.63 0 0 0 289.7,80 h -5.23 v 20.2 h 4.11 V 91.05 H 290 l 2.31,9.16 h 4.22 z m -1.61,-3.06 a 1.82,1.82 0 0 1 -0.81,1 3.16,3.16 0 0 1 -1.58,0.32 h -1.19 V 82.8 H 290 a 2.12,2.12 0 0 1 1.9,0.74 3.6,3.6 0 0 1 0.52,2.13 4.79,4.79 0 0 1 -0.26,1.63 z" />
      <path
         id="path66"
         style="fill:#ffffff"
         d="m 310.13,87.29 v -1.7 a 8.55,8.55 0 0 0 -0.51,-3.07 3.85,3.85 0 0 0 -1.75,-2 6.63,6.63 0 0 0 -3.4,-0.73 6.77,6.77 0 0 0 -3.56,0.82 4.46,4.46 0 0 0 -1.83,2.34 8.31,8.31 0 0 0 -0.34,1.41 12.44,12.44 0 0 0 -0.18,2.19 v 7.26 a 10.9,10.9 0 0 0 0.52,3.51 4.48,4.48 0 0 0 1.83,2.35 4.16,4.16 0 0 0 0.73,0.37 7.21,7.21 0 0 0 2.83,0.49 6.37,6.37 0 0 0 3.44,-0.79 4.19,4.19 0 0 0 1.72,-2.15 8.86,8.86 0 0 0 0.5,-3.13 v -1.7 h -4 v 2 a 11.67,11.67 0 0 1 -0.09,1.37 1.9,1.9 0 0 1 -0.43,1 1.44,1.44 0 0 1 -1.14,0.38 1.71,1.71 0 0 1 -1.11,-0.33 1.75,1.75 0 0 1 -0.52,-1 7.26,7.26 0 0 1 -0.14,-1.49 v -9.15 a 10.16,10.16 0 0 1 0.1,-1.41 1.84,1.84 0 0 1 0.48,-1 1.54,1.54 0 0 1 1.19,-0.4 1.45,1.45 0 0 1 1.16,0.39 1.76,1.76 0 0 1 0.42,1 c 0,0.41 0.08,0.85 0.08,1.31 v 1.9 z" />
      <path
         id="path68"
         style="fill:#ffffff"
         d="m 320.14,80 h -4.57 l -3.91,20.2 h 3.86 l 0.77,-4.44 h 3.2 l 0.72,4.44 H 324 Z m -3.47,13.24 1.2,-8.16 1.22,8.16 z" />
      <path
         id="path70"
         style="fill:#ffffff"
         d="m 336.9,82.74 a 3.88,3.88 0 0 0 -2,-2.07 9.86,9.86 0 0 0 -4,-0.66 h -4.93 v 20.2 h 5 a 9.28,9.28 0 0 0 3.93,-0.68 4,4 0 0 0 2,-2.14 9.68,9.68 0 0 0 0.6,-3.69 v -7.36 a 9.26,9.26 0 0 0 -0.6,-3.6 z m -3.62,11.4 a 9.7,9.7 0 0 1 -0.12,1.76 1.67,1.67 0 0 1 -0.61,1.08 2.81,2.81 0 0 1 -1.63,0.36 H 330 V 82.9 h 0.85 a 3,3 0 0 1 1.58,0.3 1.49,1.49 0 0 1 0.65,0.93 7.05,7.05 0 0 1 0.16,1.69 z" />
      <path
         id="path72"
         style="fill:#ffffff"
         d="M 344.34,97.42 V 91.08 H 348 v -2.86 h -3.61 V 82.84 H 349 V 80 h -8.81 v 20.2 h 8.86 v -2.78 z" />
      <path
         id="path74"
         style="fill:#263238;stroke:#263238;stroke-linecap:round;stroke-linejoin:round"
         d="m 300.67,248.5 30.49,-20.28 39,-112.19 -12.89,-50.51 c -0.46,-1.8 4.84,-3.35 6.55,-2.63 l 46,20.64 a 7.86,7.86 0 0 1 4.84,7.26 v 349.54 h -91.43 v -160.9 z" />
      <path
         id="path76"
         style="fill:#a61c3c"
         d="m 418.2,90.79 v 349.54 h -91.46 v -160.9 l -22.56,-30.92 30.49,-20.29 0.3,-0.86 2.36,-6.8 36.13,-103.86 0.23,-0.67 -0.69,-2.7 -6.31,-24.71 v -0.06 l -5.9,-23 a 2.25,2.25 0 0 1 2,-2.8 v 0 a 1.57,1.57 0 0 1 0.48,0 0.88,0.88 0 0 1 0.26,0.06 1.23,1.23 0 0 1 0.25,0.08 l 49.53,20.64 a 7.86,7.86 0 0 1 4.89,7.25 z" />
      <path
         id="path78"
         style="fill:#263238"
         d="m 376.94,251.54 a 3.49,3.49 0 0 1 -3.69,-0.06 l -33.74,-21.92 a 3.4740934,3.4740934 0 0 1 3.78,-5.83 L 377,245.65 a 3.47,3.47 0 0 1 1,4.81 3.6,3.6 0 0 1 -1.06,1.08 z" />
      <path
         id="path80"
         style="fill:#263238"
         d="m 418.32,188.25 -0.54,-5.93 a 3.47,3.47 0 0 0 -6.91,0.63 l 3.75,41.26 a 3.46,3.46 0 0 0 3.7,3.14 z" />
      <path
         id="path82"
         style="fill:#ffffff"
         d="m 418.32,213.35 a 49,49 0 1 0 0,97.63 z" />
      <path
         id="path84"
         style="fill:#263238"
         d="m 418.32,233.08 -39.4,23.78 a 8,8 0 0 0 -2.71,11 l 9.61,15.94 a 8,8 0 0 0 11,2.71 l 21.52,-13 z" />
      <path
         id="path86"
         style="fill:#ffffff"
         d="m 418.32,176.36 a 7.45,7.45 0 1 0 -0.14,12.66 l 0.14,-0.1 z" />
      <path
         id="path88"
         style="fill:#ffffff"
         d="m 349.57,227.81 a 7.46,7.46 0 0 1 -3.4,4.67 7.85,7.85 0 0 1 -1.24,0.6 7.46,7.46 0 0 1 -9,-3.14 7.23,7.23 0 0 1 -1,-2.58 l 2.36,-6.8 a 6.85,6.85 0 0 1 1.14,-0.84 7.45,7.45 0 0 1 11.1,8.09 z" />
      <path
         id="path90"
         style="fill:#ffffff"
         d="m 400.47,263.74 a 6.39,6.39 0 1 1 -8.77,-2.16 6.38,6.38 0 0 1 8.77,2.16 z" />
      <path
         id="path92"
         style="fill:#263238"
         d="m 418.32,284.06 -9.79,5.94 a 2.4,2.4 0 0 0 2.48,4.1 l 7.31,-4.41 z" />
      <path
         id="path94"
         style="fill:#263238"
         d="m 358.37,344.32 a 1.92,1.92 0 0 1 -2.06,0 l -18.85,-12.24 a 1.9416295,1.9416295 0 0 1 2.11,-3.26 L 358.42,341 a 2,2 0 0 1 0.57,2.69 1.87,1.87 0 0 1 -0.62,0.63 z" />
      <path
         id="path96"
         style="fill:#263238"
         d="m 382.35,330.54 a 1.77,1.77 0 0 1 -0.83,0.27 1.93,1.93 0 0 1 -2.1,-1.75 L 377.32,306 a 1.94,1.94 0 1 1 3.86,-0.35 l 2.1,23 a 1.93,1.93 0 0 1 -0.93,1.89 z" />
      <circle
         id="circle98"
         style="fill:#ffffff"
         transform="rotate(-79.15,379.28841,350.2531)"
         r="27.360001"
         cy="350.25"
         cx="379.31" />
      <rect
         id="rect100"
         style="fill:#263238"
         transform="rotate(-31.11,377.0843,347.97643)"
         rx="6.9000001"
         height="19.33"
         width="38.360001"
         y="338.29999"
         x="357.88" />
      <path
         id="path102"
         style="fill:#ffffff"
         d="m 382.81,303.68 a 4.17,4.17 0 1 0 -1.41,5.72 4.16,4.16 0 0 0 1.41,-5.72 z" />
      <path
         id="path104"
         style="fill:#ffffff"
         d="m 342.59,328 a 4.16,4.16 0 1 0 -1.42,5.72 4.16,4.16 0 0 0 1.42,-5.72 z" />
      <path
         id="path106"
         style="fill:#ffffff"
         d="m 389.08,340.54 a 3.57,3.57 0 1 1 -4.9,-1.21 3.57,3.57 0 0 1 4.9,1.21 z" />
      <path
         id="path108"
         style="fill:#ffffff"
         d="m 371.51,351.14 a 3.57,3.57 0 1 1 -4.9,-1.21 3.57,3.57 0 0 1 4.9,1.21 z" />
      <rect
         id="rect110"
         style="fill:#263238"
         transform="matrix(0.86,-0.52,0.52,0.86,-131.18,251.42)"
         rx="1.16"
         height="2.6800001"
         width="24.379999"
         y="359.98999"
         x="373.79999" />
      <path
         id="path112"
         style="fill:none;stroke:#263238;stroke-linecap:round;stroke-linejoin:round"
         d="m 304.18,248.5 30.49,-20.28 39,-112.19 -12.89,-50.51 a 2.24,2.24 0 0 1 3,-2.63 l 49.54,20.64 a 7.86,7.86 0 0 1 4.84,7.26 v 349.54 h -91.42 v -160.9 z" />
      <path
         id="path114"
         style="fill:#263238"
         d="m 418.2,107.45 v 32.85 l -3.51,4.28 -32.48,39.59 a 0.2,0.2 0 0 0 -0.06,0.07 l -7.34,8.94 A 10.43,10.43 0 0 1 358.69,180 l 7.31,-9 0.08,-0.09 48.58,-59.2 z" />
      <path
         id="path116"
         style="fill:#ffffff"
         d="m 366.74,197 a 10.41,10.41 0 0 1 -8.05,-17 l 7.34,-9 a 10.423804,10.423804 0 0 1 16.12,13.22 l -7.35,9 a 10.4,10.4 0 0 1 -8.06,3.78 z" />
      <path
         id="path118"
         style="fill:#263238"
         d="m 418.2,374.72 v 29.47 l -3.51,3.51 -9.43,9.42 a 1.71,1.71 0 0 1 -0.18,0.2 l -11.85,11.84 A 10.422756,10.422756 0 0 1 378.5,414.41 l 11.83,-11.83 c 0.13,-0.13 0.26,-0.26 0.39,-0.37 l 24,-24 z" />
      <path
         id="path120"
         style="fill:#ffffff"
         d="m 385.87,432.21 a 10.43,10.43 0 0 1 -7.37,-17.8 l 11.83,-11.83 a 10.422754,10.422754 0 0 1 14.74,14.74 l -11.83,11.83 a 10.4,10.4 0 0 1 -7.37,3.06 z" />
      <rect
         id="rect122"
         style="fill:#c7c7c7"
         height="14.67"
         width="10.04"
         y="339.95999"
         x="251.19" />
      <rect
         id="rect124"
         style="fill:#c7c7c7"
         height="14.67"
         width="10.04"
         y="339.95999"
         x="268.17001" />
      <rect
         id="rect126"
         style="fill:#919191"
         height="14.67"
         width="10.04"
         y="314.87"
         x="251.19" />
      <rect
         id="rect128"
         style="fill:#919191"
         height="14.67"
         width="10.04"
         y="314.87"
         x="268.17001" />
      <polygon
         id="polygon130"
         style="fill:#a61c3c"
         points="268.17,314.87 278.21,314.87 274.21,329.55 264.88,329.55 " />
      <polygon
         id="polygon132"
         style="fill:#a61c3c"
         points="250.53,314.87 260.56,314.87 256.56,329.55 247.24,329.55 " />
    </g>
    <g
       transform="matrix(1.1475395,0,0,1.1475395,-139.66022,-71.384114)"
       id="freepik--Character--inject-18">
      <path
         id="path135"
         style="fill:#ffffff;stroke:#263238;stroke-linecap:round;stroke-linejoin:round"
         d="m 203.76,425.78 c 0,0 10.48,7.05 15.82,7.48 5.34,0.43 8.77,1.71 8.12,4.06 -0.65,2.35 -5.13,5.13 -13.68,6 -8.55,0.87 -13,-0.64 -19.23,-0.86 -6.23,-0.22 -11.55,2.57 -15.18,-0.64 -3.63,-3.21 -3.21,-5.56 -3,-7.69 0.21,-2.13 4.7,-1.93 12,-4.28 7.3,-2.35 15.15,-4.07 15.15,-4.07 z" />
      <path
         id="path137"
         style="fill:#ffffff;stroke:#263238;stroke-linecap:round;stroke-linejoin:round"
         d="m 227.7,437.32 a 1.81,1.81 0 0 0 -0.41,-1.77 c -3.09,2.67 -10.61,6.23 -15.62,6.05 -6,-0.22 -11.54,-1.71 -22.87,-1.5 l -10.66,0.21 a 12.78,12.78 0 0 0 1.47,1.5 c 3.63,3.21 9,0.43 15.17,0.64 6.17,0.21 10.69,1.71 19.24,0.86 8.55,-0.85 13.04,-3.64 13.68,-5.99 z" />
      <path
         id="path139"
         style="fill:#9c9c9c;stroke:#263238;stroke-linecap:round;stroke-linejoin:round"
         d="m 197.68,315.51 c 0,0 16.37,39.84 15.44,46.32 -0.93,6.48 -11.73,33.66 -12.66,38.29 -0.93,4.63 0.62,13.28 0.62,13.28 a 4.85,4.85 0 0 1 3.09,4 c 0.31,3.09 1.54,9.26 1.54,9.26 a 44.66,44.66 0 0 1 -13,6.49 81.3,81.3 0 0 1 -15.71,2.49 c -1.23,0 -2.47,-4.94 -3.08,-8.34 -0.61,-3.4 5.24,-10.81 7.41,-15.13 2.17,-4.32 7.67,-24.4 11.41,-31.17 3.74,-6.77 9,-26.87 8.34,-34.59 -0.66,-7.72 -6.48,-23.16 -6.48,-28.1 0,-4.94 3.08,-5.89 3.08,-2.8 z" />
      <path
         id="path141"
         style="fill:none;stroke:#263238;stroke-linecap:round;stroke-linejoin:round"
         d="m 176.19,424.07 c 0,0 3.85,1.92 11.11,0.43 7.26,-1.49 10.48,-4.92 6.63,-4.71 a 39.43,39.43 0 0 0 -8.76,1.93" />
      <path
         id="path143"
         style="fill:#ffffff;stroke:#263238;stroke-linecap:round;stroke-linejoin:round"
         d="m 179.18,430.81 c 0,0 11.33,7.06 14.54,7.27 3.21,0.21 5.34,2.78 4.27,6.2 -1.07,3.42 -9.19,5.13 -21.37,5.34 -12.18,0.21 -25.44,-0.85 -28.86,-1.49 -3.42,-0.64 -6.63,-0.64 -6.84,-2.78 a 46.59,46.59 0 0 1 0,-5.77 c 0,0 5.34,-1.5 10,-3.42 4.66,-1.92 18.17,-4.49 20.53,-5.13 2.36,-0.64 7.73,-0.22 7.73,-0.22 z" />
      <path
         id="path145"
         style="fill:#ffffff;stroke:#263238;stroke-linecap:round;stroke-linejoin:round"
         d="m 175.55,447.7 c -12.31,0.18 -29.43,-3.06 -34.71,-3.77 0,0.51 0,1 0.08,1.42 0.21,2.14 3.42,2.14 6.84,2.78 3.42,0.64 16.67,1.71 28.86,1.49 12.19,-0.22 20.3,-1.92 21.37,-5.34 a 4.83,4.83 0 0 0 -0.27,-3.89 25,25 0 0 1 -1.87,2.82 c -2.56,3.42 -5.55,4.28 -20.3,4.49 z" />
      <path
         id="path147"
         style="fill:#9c9c9c;stroke:#263238;stroke-linecap:round;stroke-linejoin:round"
         d="m 147.66,308.22 c 0,0 9.57,23.47 9.88,30.57 0.31,7.1 2.47,17.29 4.63,19.15 l 2.16,1.85 c 0,0 -6.17,4.32 -5.87,9.88 0.3,5.56 -6.17,21.93 -9.88,29.34 -3.71,7.41 -8.64,28.41 -9.26,32.11 -0.62,3.7 0.31,11.12 0.31,11.12 0,0 7.41,0.93 11.42,1.55 4.01,0.62 9,0.92 9,0.92 l 2.47,-4.94 2.78,5.25 c 0,0 7.1,-2.16 10.5,-5.25 a 61.59,61.59 0 0 0 5.87,-6.18 l -4.95,-7.1 c 0,0 25.28,-56.82 26.83,-64.49 1.55,-7.67 0.31,-16.37 0.31,-22.54 0,-6.17 -7.72,-35.51 -7.72,-35.51 z" />
      <path
         id="path149"
         style="fill:none;stroke:#263238;stroke-linecap:round;stroke-linejoin:round"
         d="m 192.43,326.44 c 0,0 -7.1,1.54 -13,3.4 a 76.3,76.3 0 0 1 -14.2,2.47 l 1.54,6.79 c 0,0 8.65,0.62 14.83,-0.62 6.18,-1.24 14.82,-3.39 14.82,-3.39 l -1.85,-6.8" />
      <path
         id="path151"
         style="fill:none;stroke:#263238;stroke-linecap:round;stroke-linejoin:round"
         d="m 168.35,341.57 c 0,0 3.39,11.12 3.7,12.35 0.31,1.23 -2.47,5.87 -0.92,7.41 1.55,1.54 13,2.17 18.52,1.55 5.52,-0.62 10.5,-3.09 10.81,-6.18 0.31,-3.09 -3.39,-16.06 -3.39,-16.06" />
      <line
         id="line153"
         style="fill:none;stroke:#263238;stroke-linecap:round;stroke-linejoin:round"
         y2="326.13"
         x2="177.92"
         y1="314.09"
         x1="175.45" />
      <path
         id="path155"
         style="fill:none;stroke:#263238;stroke-linecap:round;stroke-linejoin:round"
         d="m 181,365.35 -15.13,45.08 c 0,0 -11.43,9.58 -12,11.74 -0.57,2.16 7.37,10.83 7.37,10.83" />
      <path
         id="path157"
         style="fill:none;stroke:#263238;stroke-linecap:round;stroke-linejoin:round"
         d="m 146.73,416.61 c 0,0 29.34,-6.79 35.82,-17" />
      <path
         id="path159"
         style="fill:#ffffff;stroke:#263238;stroke-linecap:round;stroke-linejoin:round"
         d="m 199.32,144 c 0,0 -3.67,2.56 -2.93,5.86 0.74,3.3 6.59,7 4.39,8.43 -2.2,1.43 -4,2.2 -4,3.3 0,1.1 -4,15 -7.32,15.39 -3.32,0.39 -11.36,-2.2 -11.36,-2.2 a 21.26,21.26 0 0 0 -5.87,11 l -25.65,-7 a 14.14,14.14 0 0 0 0.37,-12.09 68.7,68.7 0 0 0 -5.87,-10.26 c 0,0 10.27,-23.45 29.69,-28.22 19.42,-4.77 28.55,15.79 28.55,15.79 z" />
      <path
         id="path161"
         style="fill:none;stroke:#263238;stroke-linecap:round;stroke-linejoin:round"
         d="m 193.94,165 c 0,0 -6.84,-1 -7.25,-5.44" />
      <line
         id="line163"
         style="fill:none;stroke:#263238;stroke-linecap:round;stroke-linejoin:round"
         y2="161.19"
         x2="183.88"
         y1="158.77"
         x1="188.31" />
      <path
         id="path165"
         style="fill:#263238;stroke:#263238;stroke-linecap:round;stroke-linejoin:round"
         d="m 167.77,165.42 c 0,0 5.89,7.75 10.3,9.31 0,0 -3.66,4.18 -4.26,5.59 0,0 -5.44,-8.66 -6.04,-14.9 z" />
      <path
         id="path167"
         style="fill:#ffffff;stroke:#263238;stroke-linecap:round;stroke-linejoin:round"
         d="m 138.83,300.5 c 0,0 -0.33,8.43 2.36,9.78 2.69,1.35 6.41,4.38 28.67,2.36 22.26,-2.02 31,-7.42 32.38,-9.78 1.38,-2.36 0.68,-8.77 0.68,-8.77 0,0 -19.9,5.73 -36.77,5.73 -16.87,0 -27.32,0.68 -27.32,0.68 z" />
      <path
         id="path169"
         style="fill:#ffffff;stroke:#263238;stroke-linecap:round;stroke-linejoin:round"
         d="m 247.89,226.69 2.93,7.74 a 13.11,13.11 0 0 1 -3,3 c -2.45,2 -6.36,3.75 -9.65,2 a 9.5,9.5 0 0 1 -4.36,-4.85 c 0,0 4.92,-7 7,-8.07 2.08,-1.07 7.08,0.18 7.08,0.18 z" />
      <line
         id="line171"
         style="fill:#ffffff;stroke:#263238;stroke-width:2px;stroke-linecap:round;stroke-linejoin:round"
         y2="243.42"
         x2="252.61"
         y1="230.22"
         x1="245.85001" />
      <path
         id="path173"
         style="fill:#ffffff;stroke:#263238;stroke-linecap:round;stroke-linejoin:round"
         d="m 250.37,226.69 c 0,0 4.57,2.62 3.86,4.46 -0.71,1.84 -4,4.47 -6.67,4.93 -2.67,0.46 -3.45,-2.13 -2.13,-2.36 1.32,-0.23 4.68,-4.59 4.94,-7.03 z" />
      <path
         id="path175"
         style="fill:#ffffff;stroke:#263238;stroke-linecap:round;stroke-linejoin:round"
         d="m 253.79,232.33 c 0,0 1.78,2.15 1,3.69 -0.78,1.54 -5.8,4 -7.48,3.42 -1.68,-0.58 0.25,-3.36 0.25,-3.36 0,0 4.99,-2.83 6.23,-3.75 z" />
      <path
         id="path177"
         style="fill:#ffffff;stroke:#263238;stroke-linecap:round;stroke-linejoin:round"
         d="m 253.74,237.08 a 3.37,3.37 0 0 1 -0.85,3.13 c -1.36,1.29 -5.75,2.24 -6.82,1.2 -1.07,-1.04 1.24,-2 1.24,-2 a 38.9,38.9 0 0 0 6.43,-2.33 z" />
      <path
         id="path179"
         style="fill:#ffffff;stroke:#263238;stroke-linecap:round;stroke-linejoin:round"
         d="m 250.37,226.69 a 6.07,6.07 0 1 0 -4.94,7 6.07,6.07 0 0 0 4.94,-7 z" />
      <path
         id="path181"
         style="fill:#ffffff;stroke:#263238;stroke-linecap:round;stroke-linejoin:round"
         d="m 229.73,230.05 c 0,0 6.52,-7.74 6.89,-9.51 0.37,-1.77 4.36,-2.48 5.3,-3 0.94,-0.52 6.67,-4.93 7,-2.94 0.33,1.99 0.15,4.77 -1.95,6.51 -2.1,1.74 -6.13,2.1 -6.13,2.1 0,0 1.81,4.48 0.83,6.7 -0.98,2.22 -7.16,6.05 -7.16,6.05 z" />
      <path
         id="path183"
         style="fill:#ffffff;stroke:#263238;stroke-linecap:round;stroke-linejoin:round"
         d="m 219.59,241.25 c 0,0 -11.73,4.17 -16.39,4.63 -4.66,0.46 -17.48,-2.55 -17.48,-2.55 l 0.91,-10.87 v -5.09 a 91.21,91.21 0 0 0 13.73,6.2 c 7.64,2.69 19.23,7.68 19.23,7.68 z" />
      <path
         id="path185"
         style="fill:#a61c3c;stroke:#263238;stroke-linecap:round;stroke-linejoin:round"
         d="m 128,212.47 c 0,0 7.76,29.68 8.77,38.11 1.01,8.43 -4.39,47.22 -1,50.26 3.39,3.04 17.54,7.42 36.76,4.72 19.22,-2.7 30,-7.08 30.36,-11.47 0.36,-4.39 -5.06,-24.62 -7.76,-35.08 -2.7,-10.46 -3.37,-29.68 -4.72,-42.5 -1.35,-12.82 -1,-18.88 -5.06,-23.27 -4.06,-4.39 -7.08,-5.39 -11.13,-5.73 -4.05,-0.34 -14.84,1 -22.94,7.42 -8.1,6.42 -13.49,14.16 -16.86,15.85 a 15.85,15.85 0 0 1 -6.42,1.69 z" />
      <path
         id="path187"
         style="fill:#ffffff;stroke:#263238;stroke-linecap:round;stroke-linejoin:round"
         d="m 180,186.5 c 0,0 -4.72,-2 -7.76,-3.38 -3.04,-1.38 -23.94,-6.07 -27.32,-6.74 -3.38,-0.67 -11.46,-1.35 -13.49,1.35 -2.03,2.7 -2.7,8.43 -2.7,8.43 0,0 -9.78,11.8 -5.39,21.25 4.39,9.45 7.75,14.84 12.48,13.15 4.73,-1.69 10.79,-8.09 20.91,-19.56 10.12,-11.47 21.59,-11.47 21.59,-11.47 0,0 5.03,0 1.68,-3.03 z" />
      <path
         id="path189"
         style="fill:#a61c3c;stroke:#263238;stroke-linecap:round;stroke-linejoin:round"
         d="m 172.69,190.3 c 0,0 9.15,-2.68 15.6,4.23 6.45,6.91 20.25,19.91 22.15,21.34 1.9,1.43 7.88,5 7.88,5 0,0 6.87,2.76 12.65,5 5.78,2.24 26.44,13.23 28.54,13.61 2.1,0.38 2.91,1.28 7.44,-0.39 4.53,-1.67 10.68,-3.92 11.77,-3.4 1.09,0.52 8.07,3.95 9.12,4.14 1.05,0.19 8.68,1.14 8.16,2.23 a 4.84,4.84 0 0 1 -3.43,2.2 c -1.34,0.19 -6.16,-0.13 -9.45,0.68 -3.29,0.81 -5.48,4.54 -12.15,5.5 -6.67,0.96 -18.42,-2.44 -18.42,-2.44 0,0 -23.85,-2.36 -35.06,-4.5 -11.21,-2.14 -41.81,-18.17 -44.29,-18.84 -2.48,-0.67 -9.16,-2.09 -9.16,-2.09" />
      <path
         id="path191"
         style="fill:none;stroke:#263238;stroke-linecap:round;stroke-linejoin:round"
         d="m 160,232.34 c 8.53,0.13 21.17,-4.41 21.17,-4.41 0,0 -4.43,7.11 -11,10.79" />
      <path
         id="path193"
         style="fill:#ffffff;stroke:#263238;stroke-linecap:round;stroke-linejoin:round"
         d="m 296,242.06 c 0.52,-1.09 -7.11,-2 -8.16,-2.23 -1.05,-0.23 -8,-3.62 -9.12,-4.14 -1.12,-0.52 -7.24,1.73 -11.77,3.4 -4.53,1.67 -5.35,0.77 -7.44,0.39 -1.78,-0.32 -16.79,-8.21 -24.9,-12 0.84,2.92 1.38,6.48 0.33,9.41 a 19.86,19.86 0 0 1 -6.27,8.34 c 11.21,1.5 23.88,2.76 23.88,2.76 0,0 11.74,3.42 18.42,2.46 6.68,-0.96 8.86,-4.69 12.15,-5.5 3.29,-0.81 8.11,-0.49 9.45,-0.68 a 4.84,4.84 0 0 0 3.43,-2.21 z" />
      <path
         id="path195"
         style="fill:#263238;stroke:#263238;stroke-linecap:round;stroke-linejoin:round"
         d="m 161.52,158.27 3.89,12.93 c 0,0 -6,0.7 -20.19,-4.19 -14.19,-4.89 -18.56,-22 -15.73,-33.23 2.83,-11.23 15.38,-28.63 34.5,-30 19.12,-1.37 31.88,15.38 35.77,22.72 3.89,7.34 3.9,16.08 2.48,18.17 a 45.15,45.15 0 0 1 -5.31,5.6 l -4.25,-6.3 c 0,0 -1.42,6.64 -3.19,7.34 a 22.49,22.49 0 0 1 -4.25,1.05 l -5,-7.34 0.36,7.69 a 52.19,52.19 0 0 0 -6.38,3.15 c -1.41,1 -7.43,4.54 -7.43,4.54 a 5.49,5.49 0 0 1 -5.27,-2.13 z" />
    </g>
  </g>
  <rect
     ry="6.1340231e-16"
     rx="444.48508"
     y="1.204038e-05"
     x="0"
     height="445.17999"
     width="463.55499"
     id="rect928"
     style="fill:none;stroke-width:8.29254;paint-order:stroke fill markers" />
</svg>
