<?xml version="1.0" encoding="UTF-8" standalone="no"?>
<svg
   viewBox="0 0 422.83307 466.09998"
   version="1.1"
   id="svg216"
   sodipodi:docname="Success factors-bro.svg"
   width="422.83307"
   height="466.09998"
   inkscape:version="1.1 (c68e22c387, 2021-05-23)"
   xmlns:inkscape="http://www.inkscape.org/namespaces/inkscape"
   xmlns:sodipodi="http://sodipodi.sourceforge.net/DTD/sodipodi-0.dtd"
   xmlns="http://www.w3.org/2000/svg"
   xmlns:svg="http://www.w3.org/2000/svg">
  <defs
     id="defs220" />
  <sodipodi:namedview
     id="namedview218"
     pagecolor="#ffffff"
     bordercolor="#666666"
     borderopacity="1.0"
     inkscape:pageshadow="2"
     inkscape:pageopacity="0.0"
     inkscape:pagecheckerboard="0"
     showgrid="false"
     inkscape:zoom="1.244"
     inkscape:cx="198.55305"
     inkscape:cy="228.29582"
     inkscape:window-width="1368"
     inkscape:window-height="850"
     inkscape:window-x="-6"
     inkscape:window-y="-6"
     inkscape:window-maximized="1"
     inkscape:current-layer="svg216" />
  <g
     id="freepik--Plant--inject-23"
     transform="translate(-51.771018,-22.059999)">
    <path
       d="m 288.36,317.53 c 1.77,1.23 6.54,2.07 6.55,2.07 0.01,0 -0.4,-3.31 -0.46,-3.52 -0.6,-2.38 -3.18,-6.64 -5.94,-6.81 a 3.26,3.26 0 0 0 -3.37,3.5 c 0.08,1.94 1.71,3.7 3.22,4.76 z"
       style="fill:#263238"
       id="path2" />
    <path
       d="m 287.25,331.61 c 2,0.7 6.44,0.32 6.8,0.28 a 58.66,58.66 0 0 0 1.15,7.63 c 0.32,1.47 0.68,2.93 1.06,4.4 -0.27,-0.64 -0.52,-1.22 -0.57,-1.29 -1.21,-2.15 -4.82,-5.57 -7.53,-5 a 3.26,3.26 0 0 0 -2.32,4.27 c 0.58,1.85 2.62,3.12 4.35,3.74 1.73,0.62 5.59,0.37 6.61,0.29 0.15,0.57 0.29,1.13 0.45,1.69 0.74,2.69 1.49,5.37 2.14,8 0.24,0.93 0.43,1.86 0.63,2.79 -0.25,-0.57 -0.46,-1.05 -0.5,-1.12 -1.21,-2.14 -4.82,-5.57 -7.53,-5 a 3.27,3.27 0 0 0 -2.32,4.27 c 0.58,1.86 2.62,3.12 4.36,3.74 1.74,0.62 5.21,0.4 6.42,0.31 0.17,1 0.34,1.91 0.47,2.85 0.07,0.64 0.18,1.25 0.22,1.9 0.04,0.65 0.09,1.27 0.14,1.9 0.05,1.21 0.1,2.46 0.12,3.64 0,0.83 0,1.61 0,2.4 -0.22,-0.93 -0.69,-2.75 -0.74,-2.9 -0.88,-2.3 -3.93,-6.23 -6.69,-6.09 a 3.26,3.26 0 0 0 -2.94,3.87 c 0.29,1.92 2.12,3.49 3.74,4.36 1.78,1 6.1,1.27 6.63,1.3 0,1.31 0,2.58 0,3.78 -0.05,2.44 -0.15,4.63 -0.27,6.52 l 1.77,0.35 c 0.08,-2 0.14,-4.27 0.14,-6.85 0,-1.33 0,-2.75 0,-4.2 a 37.16,37.16 0 0 0 4,-1 c 1.09,1.77 4.29,4.24 4.7,4.55 -0.72,1.09 -1.43,2.15 -2.11,3.13 -1.31,1.88 -2.52,3.54 -3.61,5 l 1.9,0.38 c 0.94,-1.32 2,-2.81 3.06,-4.45 0.73,-1.11 1.5,-2.3 2.27,-3.54 0.49,0.21 4.49,1.89 6.51,1.84 1.84,0 4.18,-0.62 5.31,-2.2 a 3.27,3.27 0 0 0 -0.88,-4.78 c -2.4,-1.38 -6.89,0.76 -8.72,2.42 -0.1,0.09 -1.15,1.28 -1.8,2.05 l 0.94,-1.52 c 0.63,-1 1.23,-2.09 1.88,-3.22 l 0.89,-1.68 c 0.31,-0.56 0.57,-1.18 0.86,-1.78 0.64,-1.39 1.22,-2.84 1.78,-4.31 0.9,0.55 4.15,2.47 6,2.7 1.85,0.23 4.21,0 5.57,-1.37 a 3.26,3.26 0 0 0 -0.15,-4.86 c -2.15,-1.72 -6.92,-0.29 -9,1.07 -0.13,0.08 -1.5,1.23 -2.23,1.87 0.32,-0.89 0.65,-1.77 0.95,-2.67 0.87,-2.62 1.67,-5.3 2.48,-8 0.24,-0.82 0.5,-1.63 0.75,-2.44 0.32,0.2 4.14,2.55 6.19,2.81 1.83,0.24 4.22,0 5.58,-1.37 a 3.26,3.26 0 0 0 -0.15,-4.85 c -2.16,-1.73 -6.93,-0.3 -9,1.06 -0.15,0.11 -2.11,1.75 -2.59,2.2 0.56,-1.79 1.13,-3.57 1.76,-5.3 a 59.58,59.58 0 0 1 3,-6.84 c 0.15,0.1 4.12,2.57 6.22,2.84 1.83,0.24 4.22,0 5.58,-1.37 a 3.27,3.27 0 0 0 -0.15,-4.86 c -2.16,-1.72 -6.93,-0.29 -9,1.07 -0.16,0.11 -2.27,1.88 -2.63,2.23 0.07,-0.12 0.13,-0.26 0.2,-0.39 a 41.45,41.45 0 0 1 4.18,-6.2 c 0.85,-1.08 1.73,-2.07 2.61,-3 0.69,0.54 3.88,3 5.74,3.41 1.86,0.41 4.19,0.48 5.7,-0.75 a 3.26,3.26 0 0 0 0.38,-4.84 c -1.95,-1.95 -6.85,-1.06 -9,0.07 -0.12,0.06 -1.26,0.82 -2.08,1.39 0.4,-0.42 0.81,-0.86 1.2,-1.25 1.47,-1.48 2.91,-2.75 4.19,-3.86 0.74,-0.62 1.42,-1.17 2.06,-1.68 0.95,0.17 4.8,0.82 6.63,0.37 1.83,-0.45 3.94,-1.5 4.71,-3.29 a 3.27,3.27 0 0 0 -1.89,-4.48 c -2.63,-0.82 -6.57,2.22 -8,4.24 -0.12,0.17 -1.73,3.11 -1.68,3.12 h 0.05 c -0.62,0.48 -1.29,1 -2,1.58 -1.31,1.08 -2.78,2.31 -4.29,3.77 a 57.18,57.18 0 0 0 -4.65,4.92 42,42 0 0 0 -4.37,6.18 0.59,0.59 0 0 1 0,0.08 c 0.17,-0.79 0.58,-3 0.59,-3.19 0.17,-2.46 -0.95,-7.31 -3.52,-8.33 a 3.26,3.26 0 0 0 -4.29,2.28 c -0.54,1.87 0.46,4.05 1.57,5.52 1.25,1.66 5.2,3.82 5.51,4 a 56.57,56.57 0 0 0 -3.24,7 c -0.55,1.4 -1.06,2.82 -1.55,4.26 0.13,-0.69 0.24,-1.31 0.24,-1.4 0.17,-2.45 -0.95,-7.3 -3.52,-8.33 a 3.26,3.26 0 0 0 -4.29,2.28 c -0.54,1.87 0.46,4.05 1.57,5.52 1.11,1.47 4.46,3.4 5.34,3.89 -0.18,0.55 -0.37,1.1 -0.55,1.66 -0.86,2.65 -1.72,5.3 -2.63,7.87 -0.33,0.91 -0.68,1.79 -1,2.67 0.11,-0.61 0.2,-1.13 0.2,-1.21 0.17,-2.45 -0.95,-7.3 -3.51,-8.33 a 3.28,3.28 0 0 0 -4.3,2.28 c -0.53,1.87 0.47,4.05 1.57,5.52 1.1,1.47 4.13,3.21 5.19,3.8 -0.39,0.9 -0.77,1.79 -1.18,2.64 -0.3,0.57 -0.54,1.15 -0.87,1.71 l -0.93,1.66 c -0.63,1 -1.27,2.11 -1.91,3.11 l -1.3,2 c 0.33,-0.9 0.94,-2.68 1,-2.83 a 12.75,12.75 0 0 0 -0.47,-6.38 3.57,3.57 0 0 0 0.1,-0.72 3.27,3.27 0 0 0 -3.37,-3.5 c -2.76,0.18 -5.33,4.44 -5.94,6.83 0,0.14 -0.25,1.71 -0.37,2.7 0,-0.59 0,-1.17 -0.05,-1.78 -0.05,-1.21 -0.13,-2.42 -0.21,-3.72 l -0.18,-1.9 c -0.05,-0.63 -0.18,-1.3 -0.27,-1.95 -0.23,-1.52 -0.55,-3.05 -0.89,-4.58 1.06,0 4.82,-0.24 6.48,-1 1.66,-0.76 3.53,-2.31 3.9,-4.22 a 3.26,3.26 0 0 0 -2.81,-4 c -2.75,-0.25 -5.94,3.57 -6.9,5.84 -0.06,0.14 -0.56,1.85 -0.82,2.79 -0.22,-0.92 -0.43,-1.84 -0.68,-2.76 -0.72,-2.66 -1.53,-5.33 -2.33,-8 l -0.72,-2.45 c 0.38,0 4.86,-0.15 6.72,-1.07 1.65,-0.81 3.53,-2.3 3.9,-4.22 a 3.27,3.27 0 0 0 -2.81,-4 c -2.75,-0.24 -5.94,3.58 -6.9,5.85 -0.07,0.17 -0.8,2.63 -0.95,3.26 -0.52,-1.8 -1,-3.6 -1.45,-5.39 a 57.5,57.5 0 0 1 -1.28,-7.35 c 0.18,0 4.85,-0.13 6.76,-1.07 1.65,-0.81 3.52,-2.31 3.89,-4.22 a 3.27,3.27 0 0 0 -2.8,-4 c -2.75,-0.24 -5.94,3.58 -6.9,5.85 -0.08,0.18 -0.86,2.82 -1,3.31 0,-0.15 -0.05,-0.29 -0.06,-0.44 a 41.22,41.22 0 0 1 0.07,-7.47 c 0.11,-1.38 0.3,-2.68 0.51,-3.95 0.88,0.06 4.87,0.32 6.68,-0.33 1.81,-0.65 3.76,-1.91 4.33,-3.77 a 3.26,3.26 0 0 0 -2.35,-4.25 c -2.7,-0.55 -6.29,2.9 -7.5,5.05 -0.06,0.12 -0.6,1.38 -1,2.3 0.1,-0.57 0.2,-1.16 0.31,-1.7 0.41,-2 0.92,-3.9 1.37,-5.53 0.27,-0.93 0.53,-1.76 0.79,-2.53 0.89,-0.39 4.46,-2 5.74,-3.36 1.28,-1.36 2.46,-3.42 2.11,-5.34 a 3.27,3.27 0 0 0 -4,-2.69 c -2.65,0.76 -4.25,5.48 -4.33,7.94 0,0.21 0.27,3.55 0.32,3.53 h 0.05 c -0.25,0.74 -0.52,1.54 -0.8,2.42 -0.49,1.63 -1,3.47 -1.5,5.51 a 59.83,59.83 0 0 0 -1.16,6.67 42.86,42.86 0 0 0 -0.23,7.57 c 0,0 0,0.06 0,0.09 -0.29,-0.75 -1.18,-2.84 -1.27,-3 -1.22,-2.14 -4.83,-5.57 -7.53,-5 a 3.27,3.27 0 0 0 -2.32,4.27 c 0.52,1.9 2.56,3.17 4.29,3.78 z"
       style="fill:#263238"
       id="path4" />
    <path
       d="m 336.2,328.16 c 0,0 1.49,-3 1.56,-3.19 0.81,-2.33 1,-7.3 -1.19,-9 a 3.26,3.26 0 0 0 -4.74,1.06 c -1,1.66 -0.63,4 0.05,5.74 0.8,2.05 4.32,5.38 4.32,5.39 z"
       style="fill:#263238"
       id="path6" />
    <path
       d="m 185.75,129.52 c 1.89,0.27 6,-1 6,-1 0,0 -1.63,-2.46 -1.75,-2.6 -1.43,-1.64 -5.15,-4 -7.39,-3 a 2.89,2.89 0 0 0 -1.27,4.1 c 0.82,1.52 2.81,2.26 4.41,2.5 z"
       style="fill:#263238"
       id="path8" />
    <path
       d="m 190.47,141.06 c 1.81,-0.23 5.2,-2.31 5.47,-2.47 a 49.66,49.66 0 0 0 3.93,5.55 c 0.83,1 1.69,2.05 2.57,3.05 -0.47,-0.4 -0.89,-0.75 -1,-0.79 -1.8,-1.21 -6,-2.48 -7.92,-1 a 2.89,2.89 0 0 0 -0.14,4.29 c 1.2,1.23 3.31,1.42 4.92,1.22 1.61,-0.2 4.56,-1.92 5.32,-2.38 0.34,0.38 0.68,0.77 1,1.15 1.65,1.82 3.3,3.64 4.87,5.47 0.55,0.65 1.07,1.3 1.59,2 -0.42,-0.36 -0.77,-0.65 -0.83,-0.69 -1.81,-1.21 -6,-2.48 -7.92,-1 a 2.88,2.88 0 0 0 -0.14,4.29 c 1.19,1.23 3.3,1.42 4.92,1.22 1.62,-0.2 4.27,-1.75 5.18,-2.3 0.51,0.69 1,1.37 1.5,2.06 0.31,0.48 0.64,0.92 0.93,1.41 l 0.86,1.44 c 0.52,0.94 1.06,1.9 1.54,2.83 0.34,0.64 0.65,1.26 1,1.88 -0.55,-0.65 -1.63,-1.89 -1.74,-2 -1.6,-1.47 -5.56,-3.36 -7.68,-2.15 a 2.88,2.88 0 0 0 -0.79,4.21 c 1,1.4 3.05,1.91 4.68,2 1.78,0 5.31,-1.42 5.75,-1.6 0.51,1 1,2 1.46,3 0.93,1.94 1.71,3.71 2.37,5.25 l 1.53,-0.43 c -0.72,-1.58 -1.58,-3.42 -2.6,-5.45 -0.52,-1 -1.1,-2.16 -1.71,-3.29 a 32.78,32.78 0 0 0 2.79,-2.4 20.92,20.92 0 0 0 5.52,1.73 c -0.14,1.15 -0.28,2.26 -0.43,3.31 -0.29,2 -0.59,3.79 -0.87,5.36 l 1.65,-0.46 c 0.22,-1.41 0.44,-3 0.65,-4.71 0.14,-1.17 0.27,-2.41 0.39,-3.69 0.46,0 4.28,-0.29 5.86,-1.14 1.43,-0.77 3,-2.14 3.31,-3.84 a 2.87,2.87 0 0 0 -2.59,-3.41 c -2.43,-0.14 -5.13,3.33 -5.91,5.35 -0.05,0.12 -0.4,1.48 -0.61,2.34 0,-0.53 0.1,-1 0.14,-1.57 0.08,-1.07 0.14,-2.13 0.21,-3.28 v -1.68 c 0,-0.56 0,-1.16 0,-1.74 0,-1.36 -0.16,-2.73 -0.3,-4.11 0.93,0.08 4.25,0.3 5.79,-0.24 1.54,-0.54 3.33,-1.66 3.85,-3.3 a 2.88,2.88 0 0 0 -2,-3.77 c -2.39,-0.5 -5.58,2.52 -6.66,4.4 -0.06,0.12 -0.69,1.56 -1,2.36 -0.1,-0.82 -0.19,-1.65 -0.31,-2.48 -0.35,-2.41 -0.78,-4.84 -1.2,-7.26 -0.13,-0.74 -0.25,-1.48 -0.37,-2.22 0.33,0 4.27,0.37 6,-0.23 1.53,-0.54 3.33,-1.66 3.86,-3.3 a 2.88,2.88 0 0 0 -2,-3.77 c -2.38,-0.5 -5.57,2.52 -6.65,4.4 -0.08,0.15 -1,2.22 -1.18,2.76 -0.27,-1.63 -0.52,-3.26 -0.7,-4.87 a 50.9,50.9 0 0 1 -0.36,-6.58 c 0.16,0 4.27,0.4 6,-0.23 1.53,-0.54 3.33,-1.65 3.86,-3.29 a 2.88,2.88 0 0 0 -2.05,-3.77 c -2.38,-0.5 -5.58,2.51 -6.65,4.4 -0.09,0.15 -1,2.39 -1.19,2.8 0,-0.12 0,-0.26 0,-0.38 a 38.54,38.54 0 0 1 0.84,-6.55 c 0.25,-1.19 0.55,-2.31 0.87,-3.4 0.76,0.15 4.23,0.79 5.88,0.4 1.65,-0.39 3.49,-1.27 4.19,-2.84 a 2.89,2.89 0 0 0 -1.61,-4 c -2.32,-0.76 -5.82,1.89 -7.1,3.65 -0.07,0.09 -0.67,1.14 -1.1,1.92 0.15,-0.49 0.3,-1 0.45,-1.47 0.58,-1.75 1.21,-3.31 1.79,-4.7 0.33,-0.78 0.64,-1.48 0.95,-2.14 0.82,-0.24 4.11,-1.25 5.37,-2.34 1.26,-1.09 2.52,-2.74 2.41,-4.46 a 2.88,2.88 0 0 0 -3.26,-2.78 c -2.41,0.4 -4.3,4.36 -4.62,6.51 0,0.19 -0.14,3.14 -0.09,3.13 h 0.05 c -0.31,0.63 -0.63,1.3 -1,2 -0.6,1.37 -1.27,2.93 -1.89,4.68 a 49.86,49.86 0 0 0 -1.71,5.72 37.81,37.81 0 0 0 -1,6.6 v 0.08 c -0.18,-0.69 -0.74,-2.6 -0.8,-2.75 -0.84,-2 -3.64,-5.38 -6.07,-5.17 a 2.87,2.87 0 0 0 -2.48,3.5 c 0.32,1.69 2,3 3.42,3.73 1.65,0.81 5.62,1 5.93,1 a 52.13,52.13 0 0 0 0.21,6.81 c 0.13,1.32 0.29,2.64 0.47,4 -0.17,-0.59 -0.33,-1.12 -0.36,-1.19 -0.84,-2 -3.65,-5.38 -6.07,-5.17 a 2.88,2.88 0 0 0 -2.49,3.49 c 0.32,1.69 2,3 3.43,3.74 1.43,0.74 4.86,0.91 5.75,0.95 0.08,0.5 0.15,1 0.22,1.52 0.37,2.43 0.75,4.86 1.05,7.25 0.1,0.84 0.17,1.68 0.25,2.51 -0.15,-0.53 -0.29,-1 -0.32,-1 -0.84,-2 -3.64,-5.39 -6.07,-5.18 a 2.88,2.88 0 0 0 -2.48,3.5 c 0.32,1.69 2,3 3.42,3.73 1.42,0.73 4.53,0.9 5.6,0.94 0.05,0.86 0.1,1.72 0.11,2.55 0,0.57 0,1.12 0,1.69 0,0.57 -0.05,1.12 -0.08,1.68 -0.08,1.06 -0.16,2.16 -0.27,3.2 -0.07,0.73 -0.15,1.41 -0.23,2.11 -0.1,-0.84 -0.32,-2.48 -0.35,-2.62 a 11.2,11.2 0 0 0 -2.89,-4.85 3.86,3.86 0 0 0 -0.21,-0.6 2.88,2.88 0 0 0 -4.05,-1.42 c -2.1,1.23 -2.44,5.6 -2,7.73 0,0.12 0.48,1.45 0.78,2.28 -0.25,-0.46 -0.49,-0.91 -0.76,-1.39 -0.51,-0.93 -1.05,-1.85 -1.63,-2.85 l -0.9,-1.42 c -0.29,-0.48 -0.65,-0.95 -1,-1.44 -0.79,-1.1 -1.64,-2.18 -2.52,-3.25 0.82,-0.45 3.71,-2.1 4.69,-3.4 0.98,-1.3 1.87,-3.22 1.4,-4.87 a 2.88,2.88 0 0 0 -3.78,-2 c -2.27,0.9 -3.27,5.17 -3.13,7.34 0,0.14 0.29,1.68 0.46,2.53 -0.54,-0.64 -1.07,-1.28 -1.63,-1.91 -1.62,-1.81 -3.32,-3.59 -5,-5.38 l -1.53,-1.65 c 0.29,-0.16 3.77,-2 4.87,-3.5 1,-1.3 1.87,-3.22 1.4,-4.87 a 2.88,2.88 0 0 0 -3.79,-2 c -2.26,0.89 -3.26,5.17 -3.12,7.34 0,0.16 0.41,2.39 0.54,2.95 -1.12,-1.21 -2.23,-2.43 -3.28,-3.68 a 51.92,51.92 0 0 1 -3.92,-5.29 c 0.14,-0.07 3.78,-2 4.9,-3.51 1,-1.3 1.87,-3.22 1.4,-4.87 a 2.88,2.88 0 0 0 -3.78,-2 c -2.26,0.89 -3.27,5.17 -3.12,7.34 0,0.17 0.44,2.56 0.55,3 l -0.22,-0.32 a 37.22,37.22 0 0 1 -2.91,-5.92 c -0.45,-1.13 -0.82,-2.23 -1.15,-3.32 0.71,-0.29 4,-1.67 5.13,-2.9 1.13,-1.23 2.21,-3 1.92,-4.69 a 2.88,2.88 0 0 0 -3.54,-2.42 c -2.35,0.64 -3.81,4.78 -3.91,7 0,0.12 0.08,1.33 0.15,2.21 -0.15,-0.49 -0.3,-1 -0.43,-1.47 -0.49,-1.78 -0.82,-3.43 -1.11,-4.9 -0.16,-0.84 -0.28,-1.6 -0.39,-2.31 0.55,-0.66 2.74,-3.32 3.2,-4.92 0.46,-1.6 0.58,-3.68 -0.45,-5 a 2.88,2.88 0 0 0 -4.26,-0.52 c -1.79,1.65 -1.18,6 -0.27,8 0.08,0.17 1.63,2.69 1.65,2.66 v 0 c 0.09,0.69 0.19,1.42 0.33,2.22 0.25,1.48 0.55,3.15 1,4.94 a 51.12,51.12 0 0 0 1.72,5.72 37.39,37.39 0 0 0 2.82,6.06 0.43,0.43 0 0 1 0,0.07 c -0.53,-0.48 -2,-1.77 -2.18,-1.85 -1.81,-1.21 -6,-2.48 -7.92,-1 a 2.88,2.88 0 0 0 -0.14,4.29 c 1.31,0.93 3.41,1.12 5.03,0.92 z"
       style="fill:#263238"
       id="path10" />
    <path
       d="m 227.68,118.94 c 0,0 0,-3 0,-3.14 -0.28,-2.15 -2.09,-6.15 -4.49,-6.59 a 2.89,2.89 0 0 0 -3.32,2.72 c -0.14,1.71 1.11,3.42 2.32,4.5 1.4,1.27 5.49,2.51 5.49,2.51 z"
       style="fill:#263238"
       id="path12" />
    <path
       d="m 58.54,413.62 c 1.78,-0.58 4.85,-3.44 4.85,-3.44 0,0 -2.5,-1.45 -2.67,-1.52 -2,-0.83 -6.25,-1.27 -7.81,0.54 a 2.84,2.84 0 0 0 0.66,4.16 c 1.43,0.96 3.43,0.75 4.97,0.26 z"
       style="fill:#263238"
       id="path14" />
    <path
       d="m 67.7,421.74 c 1.5,-1 3.58,-4.29 3.74,-4.56 a 49.13,49.13 0 0 0 5.87,3.19 c 1.18,0.55 2.38,1.06 3.59,1.57 l -1.19,-0.29 c -2.11,-0.28 -6.36,0.43 -7.39,2.59 a 2.84,2.84 0 0 0 1.74,3.84 c 1.59,0.56 3.53,-0.19 4.86,-1.06 1.33,-0.87 3.18,-3.67 3.65,-4.41 l 1.4,0.56 c 2.24,0.9 4.49,1.78 6.66,2.71 0.77,0.33 1.51,0.68 2.26,1 l -1,-0.25 c -2.11,-0.28 -6.36,0.43 -7.39,2.59 a 2.84,2.84 0 0 0 1.74,3.84 c 1.59,0.56 3.53,-0.19 4.86,-1.06 1.33,-0.87 3,-3.4 3.56,-4.28 0.75,0.38 1.51,0.76 2.22,1.16 0.48,0.29 1,0.53 1.43,0.84 l 1.38,0.9 c 0.87,0.6 1.76,1.21 2.58,1.82 0.58,0.41 1.12,0.82 1.67,1.23 -0.76,-0.33 -2.26,-1 -2.39,-1 -2.05,-0.59 -6.36,-0.54 -7.7,1.44 A 2.84,2.84 0 0 0 95,438.2 c 1.48,0.8 3.51,0.35 5,-0.31 1.6,-0.74 4.06,-3.56 4.37,-3.91 0.9,0.68 1.78,1.35 2.59,2 1.66,1.31 3.11,2.52 4.36,3.59 l 1.16,-1 c -1.31,-1.08 -2.88,-2.32 -4.65,-3.67 -0.92,-0.7 -1.91,-1.42 -2.94,-2.16 a 27.58,27.58 0 0 0 1.42,-3.32 20.21,20.21 0 0 0 5.6,-0.87 c 0.38,1.07 0.74,2.11 1.06,3.1 0.62,1.88 1.14,3.59 1.57,5.09 l 1.25,-1.11 c -0.42,-1.34 -0.91,-2.83 -1.48,-4.43 -0.38,-1.09 -0.8,-2.24 -1.25,-3.42 0.39,-0.23 3.64,-2.12 4.66,-3.55 1.02,-1.43 1.75,-3.2 1.25,-4.81 a 2.82,2.82 0 0 0 -3.76,-1.88 c -2.2,0.93 -3.08,5.15 -2.88,7.28 0,0.12 0.29,1.47 0.48,2.32 l -0.56,-1.44 c -0.39,-1 -0.8,-1.94 -1.24,-3 -0.23,-0.5 -0.47,-1 -0.7,-1.5 -0.23,-0.5 -0.52,-1 -0.78,-1.52 -0.63,-1.17 -1.33,-2.33 -2,-3.47 0.85,-0.34 3.87,-1.59 5,-2.74 1.13,-1.15 2.21,-2.9 2,-4.57 a 2.83,2.83 0 0 0 -3.44,-2.43 c -2.31,0.59 -3.81,4.63 -3.94,6.76 0,0.14 0.07,1.68 0.13,2.52 -0.44,-0.69 -0.88,-1.38 -1.35,-2.06 -1.36,-2 -2.79,-3.91 -4.21,-5.86 -0.44,-0.6 -0.86,-1.2 -1.29,-1.8 0.3,-0.11 3.92,-1.52 5.17,-2.8 1.25,-1.28 2.22,-2.9 2,-4.57 a 2.83,2.83 0 0 0 -3.44,-2.43 c -2.31,0.59 -3.82,4.63 -4,6.76 0,0.16 0.11,2.37 0.17,2.94 -1,-1.32 -1.88,-2.65 -2.74,-4 a 48.71,48.71 0 0 1 -3.17,-5.63 c 0.14,-0.06 3.93,-1.51 5.21,-2.82 1.11,-1.14 2.22,-2.9 2,-4.57 A 2.82,2.82 0 0 0 98,386.47 c -2.32,0.59 -3.82,4.63 -3.95,6.76 0,0.17 0.12,2.55 0.17,3 0,-0.11 -0.12,-0.22 -0.17,-0.34 a 35.79,35.79 0 0 1 -2.1,-6.12 c -0.3,-1.16 -0.53,-2.28 -0.72,-3.37 0.73,-0.2 4.07,-1.14 5.36,-2.2 1.29,-1.06 2.52,-2.64 2.45,-4.33 a 2.83,2.83 0 0 0 -3.15,-2.79 c -2.36,0.33 -4.3,4.19 -4.66,6.29 0,0.11 -0.1,1.3 -0.14,2.16 -0.07,-0.49 -0.17,-1 -0.23,-1.48 -0.26,-1.79 -0.38,-3.45 -0.47,-4.91 0,-0.84 -0.08,-1.59 -0.1,-2.3 0.62,-0.57 3.08,-2.89 3.72,-4.39 0.64,-1.5 1,-3.51 0.18,-5 a 2.82,2.82 0 0 0 -4.08,-1 c -1.94,1.39 -1.89,5.7 -1.24,7.73 0.06,0.17 1.25,2.82 1.28,2.79 v 0 c 0,0.68 0,1.41 0,2.21 0.06,1.47 0.15,3.13 0.37,4.93 a 50.15,50.15 0 0 0 1,5.78 37.89,37.89 0 0 0 2,6.25 0.43,0.43 0 0 1 0,0.07 c -0.46,-0.53 -1.78,-2 -1.9,-2.08 -1.61,-1.39 -5.55,-3.15 -7.59,-1.91 a 2.83,2.83 0 0 0 -0.67,4.15 c 1,1.35 3,1.8 4.64,1.8 1.8,0 5.35,-1.6 5.63,-1.73 a 49.26,49.26 0 0 0 3.14,5.89 c 0.68,1.11 1.4,2.2 2.13,3.29 -0.41,-0.44 -0.77,-0.84 -0.83,-0.89 -1.61,-1.4 -5.55,-3.15 -7.59,-1.92 a 2.82,2.82 0 0 0 -0.67,4.16 c 1,1.35 3,1.79 4.63,1.8 1.63,0.01 4.68,-1.31 5.48,-1.67 l 0.86,1.25 c 1.38,2 2.76,3.95 4.06,5.93 0.46,0.69 0.89,1.4 1.31,2.1 -0.36,-0.4 -0.67,-0.73 -0.72,-0.77 -1.61,-1.4 -5.55,-3.16 -7.59,-1.92 a 2.81,2.81 0 0 0 -0.67,4.15 c 1,1.35 3,1.8 4.64,1.8 1.64,0 4.37,-1.18 5.33,-1.6 0.41,0.73 0.83,1.46 1.2,2.19 0.25,0.5 0.52,1 0.73,1.49 0.21,0.49 0.45,1 0.67,1.51 0.38,1 0.79,2 1.14,2.94 0.26,0.67 0.48,1.31 0.71,1.95 -0.44,-0.69 -1.35,-2 -1.44,-2.15 a 10.93,10.93 0 0 0 -4.65,-3 2.68,2.68 0 0 0 -0.45,-0.44 A 2.81,2.81 0 0 0 101,423 c -1.32,2 0.28,6 1.61,7.66 0.08,0.09 1.06,1.07 1.68,1.67 l -1.26,-0.9 c -0.86,-0.6 -1.74,-1.17 -2.68,-1.8 l -1.4,-0.86 c -0.47,-0.3 -1,-0.55 -1.5,-0.84 -1.17,-0.63 -2.38,-1.21 -3.62,-1.76 0.52,-0.76 2.35,-3.46 2.65,-5 0.3,-1.54 0.25,-3.64 -0.88,-4.89 a 2.83,2.83 0 0 0 -4.21,-0.13 c -1.6,1.77 -0.63,6 0.44,7.81 0.06,0.12 1,1.36 1.5,2 -0.75,-0.33 -1.5,-0.66 -2.26,-1 -2.22,-0.89 -4.49,-1.73 -6.75,-2.57 l -2.07,-0.78 c 0.19,-0.27 2.43,-3.44 2.77,-5.2 0.3,-1.57 0.25,-3.64 -0.88,-4.9 a 2.84,2.84 0 0 0 -4.21,-0.13 c -1.6,1.77 -0.63,6 0.44,7.82 0.08,0.14 1.4,1.92 1.76,2.36 -1.52,-0.58 -3,-1.17 -4.49,-1.81 A 52.44,52.44 0 0 1 71.9,416.8 c 0.08,-0.13 2.44,-3.42 2.78,-5.23 0.3,-1.56 0.25,-3.64 -0.88,-4.89 a 2.83,2.83 0 0 0 -4.21,-0.14 c -1.6,1.78 -0.62,6 0.44,7.82 0.09,0.15 1.51,2.06 1.79,2.39 l -0.33,-0.18 a 36,36 0 0 1 -5.13,-3.95 c -0.89,-0.8 -1.7,-1.61 -2.46,-2.42 0.5,-0.57 2.76,-3.19 3.25,-4.78 0.49,-1.59 0.65,-3.6 -0.34,-5 a 2.82,2.82 0 0 0 -4.16,-0.59 c -1.79,1.58 -1.28,5.86 -0.43,7.82 0,0.1 0.64,1.13 1.09,1.88 -0.34,-0.38 -0.7,-0.75 -1,-1.11 -1.2,-1.35 -2.21,-2.67 -3.1,-3.84 -0.5,-0.66 -0.94,-1.28 -1.34,-1.86 0.2,-0.81 1,-4.11 0.67,-5.72 -0.33,-1.61 -1.08,-3.48 -2.59,-4.24 a 2.82,2.82 0 0 0 -4,1.39 c -0.86,2.23 1.57,5.79 3.23,7.13 0.14,0.12 2.6,1.67 2.61,1.63 v -0.05 c 0.38,0.56 0.79,1.17 1.25,1.82 0.87,1.19 1.86,2.52 3,3.91 a 50.07,50.07 0 0 0 4,4.28 36.58,36.58 0 0 0 5.11,4.13 h 0.07 c -0.67,-0.19 -2.58,-0.66 -2.73,-0.68 -2.11,-0.28 -6.36,0.43 -7.39,2.59 a 2.84,2.84 0 0 0 1.74,3.84 c 1.59,0.61 3.53,-0.14 4.86,-1.01 z"
       style="fill:#263238"
       id="path16" />
    <path
       d="m 90.85,386.11 c 0.05,0 -1.28,-2.59 -1.38,-2.75 -1.19,-1.77 -4.52,-4.5 -6.82,-3.85 a 2.82,2.82 0 0 0 -1.74,3.83 c 0.62,1.57 2.46,2.54 4,3 1.8,0.46 5.94,-0.23 5.94,-0.23 z"
       style="fill:#263238"
       id="path18" />
  </g>
  <g
     id="freepik--Shine--inject-23"
     transform="translate(-51.771018,-22.059999)">
    <line
       x1="229.99001"
       y1="136.75999"
       x2="221.03999"
       y2="144.63"
       style="fill:none;stroke:#263238;stroke-linecap:round;stroke-linejoin:round"
       id="line21" />
    <line
       x1="309.64001"
       y1="66.739998"
       x2="257.57001"
       y2="112.51"
       style="fill:none;stroke:#263238;stroke-linecap:round;stroke-linejoin:round"
       id="line23" />
    <line
       x1="301.85001"
       y1="64.790001"
       x2="251.22"
       y2="83.290001"
       style="fill:none;stroke:#263238;stroke-linecap:round;stroke-linejoin:round"
       id="line25" />
    <line
       x1="255.48"
       y1="57.220001"
       x2="222.98"
       y2="59.919998"
       style="fill:none;stroke:#263238;stroke-linecap:round;stroke-linejoin:round"
       id="line27" />
    <line
       x1="293.07999"
       y1="54.080002"
       x2="259.10999"
       y2="56.91"
       style="fill:none;stroke:#263238;stroke-linecap:round;stroke-linejoin:round"
       id="line29" />
    <line
       x1="278.67999"
       y1="33.900002"
       x2="244.82001"
       y2="22.559999"
       style="fill:none;stroke:#263238;stroke-linecap:round;stroke-linejoin:round"
       id="line31" />
    <line
       x1="290.16"
       y1="37.529999"
       x2="283.39001"
       y2="35.389999"
       style="fill:none;stroke:#263238;stroke-linecap:round;stroke-linejoin:round"
       id="line33" />
    <line
       x1="426.28"
       y1="136.75999"
       x2="435.23001"
       y2="144.63"
       style="fill:none;stroke:#263238;stroke-linecap:round;stroke-linejoin:round"
       id="line35" />
    <line
       x1="346.63"
       y1="66.739998"
       x2="420.76999"
       y2="131.92"
       style="fill:none;stroke:#263238;stroke-linecap:round;stroke-linejoin:round"
       id="line37" />
    <line
       x1="354.42001"
       y1="64.790001"
       x2="405.04999"
       y2="83.290001"
       style="fill:none;stroke:#263238;stroke-linecap:round;stroke-linejoin:round"
       id="line39" />
    <line
       x1="400.78"
       y1="57.220001"
       x2="433.28"
       y2="59.919998"
       style="fill:none;stroke:#263238;stroke-linecap:round;stroke-linejoin:round"
       id="line41" />
    <line
       x1="363.17999"
       y1="54.080002"
       x2="397.16"
       y2="56.91"
       style="fill:none;stroke:#263238;stroke-linecap:round;stroke-linejoin:round"
       id="line43" />
    <line
       x1="377.59"
       y1="33.900002"
       x2="403.45999"
       y2="25.700001"
       style="fill:none;stroke:#263238;stroke-linecap:round;stroke-linejoin:round"
       id="line45" />
    <line
       x1="366.10001"
       y1="37.529999"
       x2="372.88"
       y2="35.389999"
       style="fill:none;stroke:#263238;stroke-linecap:round;stroke-linejoin:round"
       id="line47" />
  </g>
  <g
     id="freepik--Trophy--inject-23"
     transform="translate(-51.771018,-22.059999)">
    <rect
       x="323.75"
       y="58.310001"
       width="5.3600001"
       height="22.82"
       style="fill:#a61c3c;stroke:#263238;stroke-linecap:round;stroke-linejoin:round"
       id="rect50" />
    <polygon
       points="320.38,77.17 332.48,77.17 334.35,86.02 318.51,86.02 "
       style="fill:#a61c3c;stroke:#263238;stroke-linecap:round;stroke-linejoin:round"
       id="polygon52" />
    <polygon
       points="312.69,81.59 340.17,81.59 343.89,89.74 308.97,89.74 "
       style="fill:#a61c3c;stroke:#263238;stroke-linecap:round;stroke-linejoin:round"
       id="polygon54" />
    <path
       d="m 308.73,34.15 a 12.58,12.58 0 1 0 12.34,12.58 12.46,12.46 0 0 0 -12.34,-12.58 z m 0,22 a 9.38,9.38 0 1 1 9.21,-9.37 9.29,9.29 0 0 1 -9.21,9.32 z"
       style="fill:#a61c3c;stroke:#263238;stroke-linecap:round;stroke-linejoin:round"
       id="path56" />
    <path
       d="M 346,34.15 A 12.58,12.58 0 1 0 358.34,46.73 12.46,12.46 0 0 0 346,34.15 Z m 0,22 a 9.38,9.38 0 1 1 9.2,-9.37 9.29,9.29 0 0 1 -9.2,9.32 z"
       style="fill:#a61c3c;stroke:#263238;stroke-linecap:round;stroke-linejoin:round"
       id="path58" />
    <path
       d="m 326.43,64.59 v 0 A 15.59,15.59 0 0 1 310.83,49 V 32.93 H 342 V 49 a 15.59,15.59 0 0 1 -15.57,15.59 z"
       style="fill:#a61c3c;stroke:#263238;stroke-linecap:round;stroke-linejoin:round"
       id="path60" />
    <polygon
       points="334.51,44.24 329.25,48.06 331.26,54.24 326,50.42 320.74,54.24 322.75,48.06 317.49,44.24 323.99,44.24 326,38.06 328.01,44.24 "
       style="fill:#263238"
       id="polygon62" />
  </g>
  <g
     id="freepik--Factors--inject-23"
     transform="translate(-51.771018,-22.059999)">
    <rect
       x="275.56"
       y="89.82"
       width="102.4"
       height="93.360001"
       style="fill:#263238;stroke:#263238;stroke-linejoin:round"
       id="rect65" />
    <rect
       x="275.56"
       y="89.82"
       width="68.059998"
       height="93.360001"
       style="fill:#ffffff;stroke:#263238;stroke-linejoin:round"
       id="rect67" />
    <rect
       x="196.73"
       y="136.2"
       width="102.4"
       height="93.360001"
       style="fill:#263238;stroke:#263238;stroke-linejoin:round"
       id="rect69" />
    <rect
       x="196.73"
       y="136.2"
       width="68.059998"
       height="93.360001"
       style="fill:#ffffff;stroke:#263238;stroke-linejoin:round"
       id="rect71" />
    <path
       d="m 243,162.65 v -7.46 h -4.67 a 14.92,14.92 0 0 0 -1.58,-3.71 l 2.89,-2.9 -5.28,-5.28 -2.88,2.88 a 15,15 0 0 0 -4.16,-1.73 V 141 h -7.47 v 3.45 a 15.22,15.22 0 0 0 -4.54,2 l -2.06,-2.06 -5.25,5.25 2.23,2.23 a 15,15 0 0 0 -1.69,4.81 h -2.84 v 7.47 h 3.4 a 15.34,15.34 0 0 0 2.25,4.3 l -2.3,2.3 5.25,5.25 2.85,-2.85 a 15.25,15.25 0 0 0 4.2,1.26 v 3.89 h 7.46 v -4.65 a 15.27,15.27 0 0 0 3.5,-1.81 l 3.11,3.11 5.28,-5.28 -3.47,-3.47 a 15.13,15.13 0 0 0 1.29,-3.58 z m -19.41,6 a 9.34,9.34 0 1 1 9.33,-9.34 9.34,9.34 0 0 1 -9.33,9.32 z"
       style="fill:#a61c3c"
       id="path73" />
    <path
       d="m 249.83,192.25 v -5.49 h -3.43 a 11.42,11.42 0 0 0 -1.17,-2.73 l 2.13,-2.13 -3.88,-3.9 -2.12,2.12 a 11,11 0 0 0 -3.06,-1.27 v -2.54 h -5.49 v 2.54 a 11.07,11.07 0 0 0 -3.34,1.45 l -1.47,-1.5 -3.88,3.88 1.64,1.64 a 11.31,11.31 0 0 0 -1.25,3.54 h -2.08 v 5.49 h 2.5 a 11.21,11.21 0 0 0 1.65,3.16 l -1.69,1.69 3.88,3.88 2.1,-2.09 a 11.44,11.44 0 0 0 3.08,0.92 v 2.86 h 5.49 v -3.41 A 11.41,11.41 0 0 0 242,199 l 2.29,2.29 3.88,-3.88 -2.55,-2.55 a 11,11 0 0 0 0.94,-2.63 z m -14.27,4.39 a 6.86,6.86 0 1 1 6.86,-6.86 6.86,6.86 0 0 1 -6.86,6.86 z"
       style="fill:#a61c3c"
       id="path75" />
    <rect
       x="253.35001"
       y="196.44"
       width="102.4"
       height="93.360001"
       style="fill:#263238;stroke:#263238;stroke-linejoin:round"
       id="rect77" />
    <rect
       x="253.35001"
       y="196.44"
       width="68.059998"
       height="93.360001"
       style="fill:#ffffff;stroke:#263238;stroke-linejoin:round"
       id="rect79" />
    <path
       d="m 304.73,212.7 -5.91,-4.36 a 6.84,6.84 0 0 0 -7.77,-0.25 l -11.72,7 a 2.9,2.9 0 0 0 2.58,5.17 l 10.95,-3.76 13.14,13.6 8.17,-2.85 v -16.63 z"
       style="fill:#a61c3c"
       id="path81" />
    <path
       d="m 291.41,218.34 -10.91,3.76 c -2,0.86 -4.17,-2.46 -4.17,-4.62 v 0 c 0,-2.79 2.66,-3.56 4.75,-5.41 l 2,-1.76 a 7.28,7.28 0 0 0 -8.09,-1.16 v 0 a 13.63,13.63 0 0 1 -10.09,0.76 L 262,209 v 18.48 l 3.7,0.46 0.35,-0.3 a 6.16,6.16 0 0 1 8.53,0.49 l 13.12,14.11 a 1.72,1.72 0 0 0 2.34,0.16 v 0 a 1.71,1.71 0 0 0 0.19,-2.46 l -3.28,-3.68 4.55,3 a 2.14,2.14 0 0 0 2.7,-3.26 l -2.64,-2.74 4,2.53 a 2.36,2.36 0 0 0 3,-3.57 l -2.37,-2.65 4.34,2.63 a 1.85,1.85 0 0 0 2.13,-0.15 v 0 a 1.85,1.85 0 0 0 0.11,-2.77 z"
       style="fill:#a61c3c"
       id="path83" />
    <path
       d="m 271,234.63 1.68,-2.12 a 2.19,2.19 0 0 0 -3.43,-2.72 l -1.68,2.12 a 2.19,2.19 0 0 0 3.43,2.72 z"
       style="fill:#a61c3c"
       id="path85" />
    <path
       d="m 274.24,237.72 1.68,-2.12 a 2.19,2.19 0 0 0 -3.43,-2.71 l -1.68,2.11 a 2.19,2.19 0 0 0 3.43,2.71 z"
       style="fill:#a61c3c"
       id="path87" />
    <path
       d="m 277.45,240.81 1.67,-2.11 a 2.19,2.19 0 0 0 -3.43,-2.72 L 274,238.1 a 2.19,2.19 0 0 0 0.35,3.07 v 0 a 2.19,2.19 0 0 0 3.1,-0.36 z"
       style="fill:#a61c3c"
       id="path89" />
    <path
       d="m 282,238.72 a 2.18,2.18 0 0 0 -3.07,0.36 l -1.68,2.11 a 2.19,2.19 0 1 0 3.43,2.72 l 1.68,-2.12 A 2.18,2.18 0 0 0 282,238.72 Z"
       style="fill:#a61c3c"
       id="path91" />
    <rect
       x="164.2"
       y="256.07001"
       width="102.4"
       height="93.360001"
       style="fill:#263238;stroke:#263238;stroke-linejoin:round"
       id="rect93" />
    <rect
       x="164.2"
       y="256.07001"
       width="68.059998"
       height="93.360001"
       style="fill:#ffffff;stroke:#263238;stroke-linejoin:round"
       id="rect95" />
    <rect
       x="174.49001"
       y="302.84"
       width="7.5300002"
       height="12.49"
       style="fill:#a61c3c"
       id="rect97" />
    <rect
       x="183.63"
       y="297.5"
       width="7.5300002"
       height="17.84"
       style="fill:#a61c3c"
       id="rect99" />
    <rect
       x="192.78"
       y="293.85001"
       width="7.5300002"
       height="21.48"
       style="fill:#a61c3c"
       id="rect101" />
    <rect
       x="201.92"
       y="288.98999"
       width="7.5300002"
       height="26.35"
       style="fill:#a61c3c"
       id="rect103" />
    <path
       d="m 205,281.15 -6.07,1.9 1.61,1.48 -4.31,4.7 -10.12,1.92 -10.64,8.17 a 1,1 0 0 0 -0.19,1.4 1,1 0 0 0 1.4,0.18 L 187,293 l 10.3,-2 4.76,-5.18 1.61,1.48 z"
       style="fill:#a61c3c"
       id="path105" />
    <rect
       x="226.25"
       y="326.94"
       width="102.4"
       height="93.360001"
       style="fill:#263238;stroke:#263238;stroke-linejoin:round"
       id="rect107" />
    <rect
       x="226.25"
       y="326.94"
       width="68.059998"
       height="93.360001"
       style="fill:#ffffff;stroke:#263238;stroke-linejoin:round"
       id="rect109" />
    <path
       d="M 271.26,359.89 265,355.76 v -1.18 a 10.51,10.51 0 0 0 2.11,-6.1 c 0,-5.41 -2.21,-6 -4.95,-6 -2.74,0 -4.95,1.18 -4.95,6 a 10.56,10.56 0 0 0 2.2,6.21 v 0.69 l -6.86,4.51 a 4.15,4.15 0 0 0 -1.87,3.47 v 1.48 l 10.9,4.78 11.58,-4.78 v -1.48 a 4.15,4.15 0 0 0 -1.9,-3.47 z"
       style="fill:#a61c3c"
       id="path111" />
    <path
       d="m 278.13,353.8 a 16.21,16.21 0 1 0 -18.58,16 v 12.79 a 3.49,3.49 0 0 0 -1.5,2.86 v 21.7 a 3.5,3.5 0 0 0 7,0 v -21.7 a 3.46,3.46 0 0 0 -1.5,-2.86 v -12.66 a 16.23,16.23 0 0 0 14.58,-16.13 z m -29.42,0 a 13.21,13.21 0 1 1 13.21,13.2 13.23,13.23 0 0 1 -13.21,-13.2 z"
       style="fill:#a61c3c"
       id="path113" />
    <rect
       x="103.67"
       y="394.29999"
       width="102.4"
       height="93.360001"
       style="fill:#263238;stroke:#263238;stroke-linejoin:round"
       id="rect115" />
    <rect
       x="103.67"
       y="394.29999"
       width="68.059998"
       height="93.360001"
       style="fill:#ffffff;stroke:#263238;stroke-linejoin:round"
       id="rect117" />
    <path
       d="m 161.51,451.63 a 4.17,4.17 0 0 0 -1.88,-3.48 L 153.34,444 v -1.18 a 10.52,10.52 0 0 0 2.12,-6.1 c 0,-5.4 -2.22,-6 -5,-6 -2.78,0 -4.95,1.18 -4.95,6 a 10.45,10.45 0 0 0 2.2,6.21 v 0.7 l -6.86,4.5 a 4.17,4.17 0 0 0 -1.88,3.48 v 3.78 a 8.44,8.44 0 0 0 -1.78,-0.15 6.85,6.85 0 0 0 -1.53,0.15 v -3.78 a 4.17,4.17 0 0 0 -1.88,-3.48 L 127.54,444 v -1.18 a 10.52,10.52 0 0 0 2.12,-6.1 c 0,-4.15 -1.31,-5.47 -3.17,-5.86 l 3.21,-3.66 h 5.45 l 1.46,20.91 h 0.65 l 2.1,-20.92 h 7.4 l 2.81,3.24 -0.19,-3.24 H 153 v -27.32 h -30.61 v 27.35 h 4.46 l -0.41,3.65 a 9.55,9.55 0 0 0 -1.73,-0.14 c -2.74,0 -4.95,1.18 -4.95,6 A 10.45,10.45 0 0 0 122,443 v 0.7 l -6.86,4.5 a 4.17,4.17 0 0 0 -1.88,3.48 V 458 h 19.57 a 9.25,9.25 0 0 0 -0.5,3.29 10.5,10.5 0 0 0 2.2,6.21 v 0.69 l -6.86,4.51 a 4.14,4.14 0 0 0 -1.88,3.47 v 6.35 h 22.49 v -6.35 a 4.14,4.14 0 0 0 -1.88,-3.47 l -6.29,-4.13 v -1.18 a 10.52,10.52 0 0 0 2.12,-6.1 11,11 0 0 0 -0.41,-3.29 h 19.73 z m -38.46,-25.07 v -26 h 29.31 v 26 h -3.67 l 0.11,2 -1.74,-2 h -8.3 l -1.76,17.67 -1.23,-17.67 h -6.37 l -2.08,2.44 0.26,-2.39 z"
       style="fill:#a61c3c"
       id="path119" />
    <polygon
       points="140.96,420.61 134.25,420.61 134.24,421.63 140.96,421.63 "
       style="fill:#a61c3c"
       id="polygon121" />
    <path
       d="m 134.7,423.42 h 5.8 a 1.65,1.65 0 0 0 0.46,-1.14 h -6.72 a 1.65,1.65 0 0 0 0.46,1.14 z"
       style="fill:#a61c3c"
       id="path123" />
    <path
       d="m 136.74,425.6 h 1.7 a 1.66,1.66 0 0 0 1.67,-1.66 h -5 a 1.65,1.65 0 0 0 1.63,1.66 z"
       style="fill:#a61c3c"
       id="path125" />
    <path
       d="m 133.26,415.51 a 6.65,6.65 0 0 1 1.53,4.25 v 0.31 h 5.64 v -0.31 a 6.62,6.62 0 0 1 1.54,-4.25 5.65,5.65 0 0 0 1.33,-3.64 5.67,5.67 0 0 0 -6.06,-5.66 5.68,5.68 0 0 0 -4,9.3 z"
       style="fill:#a61c3c"
       id="path127" />
    <path
       d="m 144.18,411.91 a 0.54,0.54 0 0 0 0.54,0.54 h 2.85 a 0.54,0.54 0 0 0 0,-1.08 h -2.85 a 0.54,0.54 0 0 0 -0.54,0.54 z"
       style="fill:#a61c3c"
       id="path129" />
    <path
       d="m 130.84,411.91 a 0.54,0.54 0 0 0 -0.54,-0.54 h -2.88 a 0.54,0.54 0 1 0 0,1.08 h 2.88 a 0.54,0.54 0 0 0 0.54,-0.54 z"
       style="fill:#a61c3c"
       id="path131" />
    <path
       d="m 137.51,405.23 v 0 a 0.54,0.54 0 0 0 0.54,-0.54 v -2.86 a 0.53,0.53 0 0 0 -0.53,-0.54 v 0 a 0.54,0.54 0 0 0 -0.53,0.54 v 2.85 a 0.55,0.55 0 0 0 0.52,0.55 z"
       style="fill:#a61c3c"
       id="path133" />
    <path
       d="m 142.66,407.29 a 0.55,0.55 0 0 0 0.38,-0.16 l 2,-2 a 0.53,0.53 0 0 0 0,-0.76 0.55,0.55 0 0 0 -0.77,0 l -2,2 a 0.54,0.54 0 0 0 0,0.76 0.59,0.59 0 0 0 0.39,0.16 z"
       style="fill:#a61c3c"
       id="path135" />
    <path
       d="m 132,416.66 -2,2 a 0.54,0.54 0 0 0 0,0.76 0.53,0.53 0 0 0 0.76,0 l 2,-2 A 0.54,0.54 0 0 0 132,416.66 Z"
       style="fill:#a61c3c"
       id="path137" />
    <path
       d="m 131.9,407.07 a 0.54,0.54 0 0 0 0.39,0.16 0.54,0.54 0 0 0 0.38,-0.92 l -1.91,-1.91 a 0.54,0.54 0 1 0 -0.76,0.76 z"
       style="fill:#a61c3c"
       id="path139" />
    <path
       d="m 143.09,416.75 a 0.55,0.55 0 0 0 -0.77,0 0.54,0.54 0 0 0 0,0.76 l 1.9,1.9 a 0.53,0.53 0 0 0 0.76,0 0.54,0.54 0 0 0 0,-0.76 z"
       style="fill:#a61c3c"
       id="path141" />
  </g>
  <g
     id="freepik--Character--inject-23"
     transform="translate(-51.771018,-22.059999)">
    <path
       d="m 178.24,183.94 c 0,0 3.27,3.75 2.78,5.06 a 15.07,15.07 0 0 0 -0.49,3.92 c 0,0 4.24,2.29 4.24,3.43 a 9.68,9.68 0 0 1 -1,3.1 c 0,0 1,6.53 0.33,8.16 -0.67,1.63 -7.68,2.78 -7.68,2.78 l -2.61,8 -15,-4.57 2.45,-8 c 0,0 -3.75,-9.47 -4.41,-12.57 -0.66,-3.1 4.08,-9.15 10,-10.62 a 18.4,18.4 0 0 1 11.39,1.31 z"
       style="fill:#ffffff;stroke:#263238;stroke-linejoin:round"
       id="path144" />
    <path
       d="m 173.18,198.8 c 0,0 2.61,0.16 2.29,-1.15 -0.32,-1.31 -1.31,-2 -0.82,-2.61 0.49,-0.61 3.59,-2.61 2.61,-3.92 -0.98,-1.31 -3.92,-2.28 -2.61,-3.75 1.31,-1.47 8.82,-4.74 8.82,-4.74 0,0 -7.68,-3.59 -8.82,-3.59 -1.14,0 4.57,-1.79 2.61,-3.26 -1.96,-1.47 -14.53,-1.47 -19.59,5.22 -5.06,6.69 -4.41,10.61 -2.45,16.16 1.96,5.55 5.71,12.09 7.67,12.58 1.96,0.49 8.49,0.81 8.82,-1.47 0.33,-2.28 1.47,-9.47 1.47,-9.47 z"
       style="fill:#263238;stroke:#263238;stroke-linejoin:round"
       id="path146" />
    <path
       d="m 175.3,200.27 c 0,0 -4.62,-5.71 -4.9,-3.53 -0.28,2.18 1.36,10 4.35,8.15"
       style="fill:#ffffff;stroke:#263238;stroke-linejoin:round"
       id="path148" />
    <path
       d="m 149.67,216.92 c 0,0 3.59,1.14 12.24,2.94 8.65,1.8 16,3.59 16,3.59 0,0 -2.28,-6.86 -4.73,-8.16 -2.45,-1.3 -15.51,-3.92 -17.14,-3.76 -1.63,0.16 -6.37,5.39 -6.37,5.39 z"
       style="fill:#ffffff;stroke:#263238;stroke-linejoin:round"
       id="path150" />
    <path
       d="m 205,262.47 c 0,0 14.86,-13.38 15.67,-14.2 0.81,-0.82 -1,-7.18 -1,-8.16 0,-0.98 3.43,-2.62 3.43,-2.62 0,0 0.49,-2.61 2.12,-2.61 1.63,0 4.41,2.12 4.41,2.12 l 0.33,1.8 c 0,0 2.28,5.06 2.28,5.88 a 7.82,7.82 0 0 1 -2.28,4.57 c -1.63,1.63 -5.39,5.06 -5.39,5.06 0,0 -13.06,17.63 -16,20.08 -2.94,2.45 -6.86,5.06 -8.33,2.13 -1.47,-2.93 4.76,-14.05 4.76,-14.05 z"
       style="fill:#ffffff;stroke:#263238;stroke-linejoin:round"
       id="path152" />
    <polyline
       points="223.14 237.49 223.63 238.8 222.32 239.78"
       style="fill:none;stroke:#263238;stroke-linejoin:round"
       id="polyline154" />
    <path
       d="m 111.14,243.37 c 0,0 -5.72,5.88 -5.39,8.33 0.33,2.45 13.55,29.71 13.55,29.71 0,0 1,4.09 1.63,4.41 0.63,0.32 2.12,2.78 2.12,2.78 0,0 0,2.12 2.45,-0.17 2.45,-2.29 5.88,-4.89 5.72,-7 a 6.77,6.77 0 0 0 -1.8,-3.75 c 0,0 -0.81,-2 -1.63,-2.12 -0.82,-0.12 -4.57,-0.17 -4.57,-0.17 L 119,253.17 Z"
       style="fill:#ffffff;stroke:#263238;stroke-linejoin:round"
       id="path156" />
    <path
       d="m 124.52,279.29 2.13,1.14 c 0,0 -2.62,3.92 -1.64,4.74 0.98,0.82 3.92,-5.06 4.25,-5.88 0.33,-0.82 -0.49,-1.63 -0.49,-1.63"
       style="fill:#ffffff;stroke:#263238;stroke-linejoin:round"
       id="path158" />
    <line
       x1="125.83"
       y1="280.76001"
       x2="121.58"
       y2="284.51999"
       style="fill:#ffffff;stroke:#263238;stroke-linejoin:round"
       id="line160" />
    <path
       d="m 132.8,363.11 -10.59,9.18 a 5.25,5.25 0 0 0 2.12,2.59 c 1.41,0.71 7.53,6.6 9.41,7.77 a 22.75,22.75 0 0 0 11.3,3.53 c 5,0 5.89,-1.88 5.89,-2.59 0,-0.71 -9.65,-7.06 -9.65,-7.06 l -2.12,-8.47 z"
       style="fill:#ffffff;stroke:#263238;stroke-linejoin:round"
       id="path162" />
    <path
       d="m 124.34,370.45 -2.13,1.84 a 5.25,5.25 0 0 0 2.12,2.59 c 1.41,0.71 7.53,6.6 9.41,7.77 a 22.75,22.75 0 0 0 11.3,3.53 c 2.9,0 4.41,-0.64 5.18,-1.32 a 45.22,45.22 0 0 0 -6.49,-1.06 c -3.24,0 -6.81,-2.91 -6.81,-2.91 z"
       style="fill:#ffffff;stroke:#263238;stroke-linejoin:round"
       id="path164" />
    <path
       d="m 129.42,271.45 c 0,0 -2.3,12 -0.23,15.79 a 77.83,77.83 0 0 0 5.52,8.28 l 29.34,37.62 -31.75,30.72 7.33,7.49 c 0,0 40,-33 42.37,-34.41 2.37,-1.41 0,-13.12 -0.69,-14.15 -0.69,-1.03 -14.48,-31.2 -14.48,-31.2 l 1.29,-13.44 z"
       style="fill:#263238;stroke:#263238;stroke-linejoin:round"
       id="path166" />
    <path
       d="m 150.7,379.43 c 0,0 7.13,7.94 8.27,8.75 1.14,0.81 9.23,5.51 9.23,5.51 0,0 -0.16,1.13 -0.81,1.3 -0.65,0.17 -16.69,0.32 -17.82,0.16 C 148.44,394.99 139,390 137.9,389.47 a 51.63,51.63 0 0 1 -4.7,-2.91 l 7.13,-11.51 z"
       style="fill:#ffffff;stroke:#263238;stroke-linejoin:round"
       id="path168" />
    <path
       d="m 138.63,293 6.8,4.87 9.73,31.84 -16.53,46.68 14.38,4 0.93,-5.22 2.86,-5.48 c 0,0 17.56,-38.52 17.8,-41.68 0.24,-3.16 -7.77,-36.46 -7.77,-36.46 l -1.46,-14.1 -25.29,-2.44"
       style="fill:#263238;stroke:#263238;stroke-linejoin:round"
       id="path170" />
    <path
       d="m 167.39,395 c 0.65,-0.17 0.81,-1.3 0.81,-1.3 l -1.43,-0.84 c -6.17,-0.47 -16.52,-1.27 -17.2,-1.27 -0.68,0 -10.77,-5.9 -14.46,-8.11 l -1.91,3.09 a 51.63,51.63 0 0 0 4.7,2.91 c 1.13,0.49 10.53,5.52 11.67,5.68 1.14,0.16 17.17,-0.01 17.82,-0.16 z"
       style="fill:#ffffff;stroke:#263238;stroke-linejoin:round"
       id="path172" />
    <path
       d="m 151.79,216.43 c 0,0 -16.16,1.63 -16.33,2.29 -0.17,0.66 -21.55,23.83 -21.55,23.83 l 5.72,10.94 13.71,-5.87 -3.92,23.83 c 0,0 -2.61,1 2.12,3.43 4.73,2.43 15.68,5.55 23.19,5.55 7.51,0 11.75,0 13.39,-2.28 a 8.07,8.07 0 0 0 1.63,-4.9 c 0.16,-1.31 7.84,-21.23 7.84,-21.23 0,0 17.14,22 17.79,22.54 0.65,0.54 3.76,1 6.37,-2.13 2.61,-3.13 2.12,-10.28 2.12,-10.28 0,0 -9.63,-17.47 -10.12,-19.92 -0.49,-2.45 -2,-10 -2.94,-11.92 -0.94,-1.92 -2.28,-2.12 -4.9,-3.43 -2.62,-1.31 -9.79,-3.75 -9.79,-3.75 z"
       style="fill:#ffffff;stroke:#263238;stroke-linejoin:round"
       id="path174" />
    <polyline
       points="137.1 223.62 133.34 247.62 134.97 224.92"
       style="fill:none;stroke:#263238;stroke-linejoin:round"
       id="polyline176" />
    <line
       x1="132.85001"
       y1="246.96001"
       x2="128.61"
       y2="236.50999"
       style="fill:none;stroke:#263238;stroke-linejoin:round"
       id="line178" />
    <line
       x1="122.31"
       y1="240.97"
       x2="119.79"
       y2="239.45"
       style="fill:none;stroke:#263238;stroke-linejoin:round"
       id="line180" />
    <line
       x1="133.34"
       y1="247.62"
       x2="124.44"
       y2="242.25999"
       style="fill:none;stroke:#263238;stroke-linejoin:round"
       id="line182" />
    <line
       x1="185.23"
       y1="240.14"
       x2="189.34"
       y2="233.74001"
       style="fill:none;stroke:#263238;stroke-linejoin:round"
       id="line184" />
    <line
       x1="177.59"
       y1="252.02"
       x2="183.92999"
       y2="242.16"
       style="fill:none;stroke:#263238;stroke-linejoin:round"
       id="line186" />
    <line
       x1="189.95"
       y1="244.16"
       x2="191.78999"
       y2="243.03999"
       style="fill:none;stroke:#263238;stroke-linejoin:round"
       id="line188" />
    <line
       x1="178.57001"
       y1="251.05"
       x2="187.72"
       y2="245.50999"
       style="fill:none;stroke:#263238;stroke-linejoin:round"
       id="line190" />
    <line
       x1="177.75"
       y1="250.88"
       x2="193.75"
       y2="248.11"
       style="fill:none;stroke:#263238;stroke-linejoin:round"
       id="line192" />
    <line
       x1="131.53999"
       y1="272.10999"
       x2="147.55"
       y2="268.19"
       style="fill:none;stroke:#263238;stroke-linejoin:round"
       id="line194" />
    <path
       d="m 158.46,262.74 a 24.25,24.25 0 0 0 3,-1.41"
       style="fill:none;stroke:#263238;stroke-linejoin:round"
       id="path196" />
    <path
       d="M 138.24,268.19 A 149,149 0 0 0 156,263.67"
       style="fill:none;stroke:#263238;stroke-linejoin:round"
       id="path198" />
    <path
       d="m 203.71,261 a 11.94,11.94 0 0 1 -3.43,7 13,13 0 0 1 -7,3.91 c 0,0 1.47,5.56 3.27,5.56 1.8,0 4.9,1 7.67,-2.78 2.77,-3.78 3.43,-10.12 2.61,-11.76 -0.82,-1.64 -1.32,-2.42 -3.12,-1.93 z"
       style="fill:#ffffff;stroke:#263238;stroke-linejoin:round"
       id="path200" />
    <path
       d="m 116.36,238.8 c 0,0 7.84,14.69 7.18,15 -0.66,0.31 -3.42,2.78 -4.4,2.94 -0.98,0.16 -5.39,-4.25 -7,-8 -1.61,-3.75 -2.12,-5.23 -1.63,-5.88 0.49,-0.65 4.87,-4.06 5.85,-4.06 z"
       style="fill:#ffffff;stroke:#263238;stroke-linejoin:round"
       id="path202" />
  </g>
  <g
     id="freepik--Clouds--inject-23"
     transform="translate(-51.771018,-22.059999)">
    <path
       d="m 473.43,161.09 c 0.88,-5 2.15,-17.35 -5.38,-23.42 -9.55,-7.7 -16.33,6.16 -24.65,-4.62 -8.32,-10.78 -10.78,-34.2 -35.4,-33.9 -24.62,0.3 -26.5,14.18 -26.5,18.8 0,4.62 -7.39,8 -8.93,8 -1.54,0 -10.17,-4 -13.25,4.93 -3.08,8.93 -1,14.1 -5.89,14.29 -4.89,0.19 -11,-6.49 -17.64,-3.15 -6.64,3.34 -6.67,10.43 -9.44,12.89 -2.77,2.46 -7.4,-1.84 -13.56,0.62 -3.73,1.49 -4.86,3.89 -5.17,5.55 z"
       style="fill:#ffffff;stroke:#000000;stroke-miterlimit:10"
       id="path205" />
    <path
       d="m 203.67,64.46 c 0.53,-3 1.29,-10.49 -3.26,-14.16 -5.77,-4.66 -9.87,3.72 -14.91,-2.8 -5.04,-6.52 -6.5,-20.68 -21.43,-20.5 -14.93,0.18 -16,8.57 -16,11.37 0,2.8 -4.48,4.85 -5.41,4.85 -0.93,0 -6.15,-2.43 -8,3 -1.85,5.43 -0.6,8.53 -3.56,8.64 -2.96,0.11 -6.64,-3.92 -10.67,-1.9 -4.03,2.02 -4,6.3 -5.71,7.79 -1.71,1.49 -4.47,-1.12 -8.2,0.38 a 4.54,4.54 0 0 0 -3.13,3.35 z"
       style="fill:#ffffff;stroke:#000000;stroke-miterlimit:10"
       id="path207" />
    <path
       d="m 124.5,104.46 c 0.32,-1.81 0.78,-6.29 -2,-8.49 -3.46,-2.8 -5.92,2.23 -8.94,-1.68 -3.02,-3.91 -3.86,-12.4 -12.8,-12.29 -8.94,0.11 -9.61,5.14 -9.61,6.82 0,1.68 -2.68,2.9 -3.24,2.9 -0.56,0 -3.68,-1.45 -4.8,1.79 -1.12,3.24 -0.36,5.11 -2.14,5.18 -1.78,0.07 -4,-2.35 -6.4,-1.14 -2.4,1.21 -2.41,3.78 -3.42,4.68 -1.01,0.9 -2.68,-0.68 -4.91,0.22 a 2.71,2.71 0 0 0 -1.88,2 z"
       style="fill:#ffffff;stroke:#000000;stroke-miterlimit:10"
       id="path209" />
    <path
       d="m 439.5,278.46 c 0.32,-1.81 0.78,-6.29 -1.95,-8.49 -3.46,-2.8 -5.92,2.23 -8.94,-1.68 -3.02,-3.91 -3.91,-12.4 -12.85,-12.29 -8.94,0.11 -9.61,5.14 -9.61,6.82 0,1.68 -2.68,2.9 -3.24,2.9 -0.56,0 -3.68,-1.45 -4.8,1.79 -1.12,3.24 -0.36,5.11 -2.14,5.18 -1.78,0.07 -4,-2.35 -6.4,-1.14 -2.4,1.21 -2.41,3.78 -3.42,4.68 -1.01,0.9 -2.68,-0.68 -4.91,0.22 a 2.71,2.71 0 0 0 -1.88,2 z"
       style="fill:#ffffff;stroke:#000000;stroke-miterlimit:10"
       id="path211" />
    <path
       d="m 411.36,110.61 c 0.28,-1.58 0.68,-5.49 -1.7,-7.41 -3,-2.44 -5.17,2 -7.81,-1.47 -2.64,-3.47 -3.41,-10.83 -11.22,-10.73 -7.81,0.1 -8.39,4.49 -8.39,6 0,1.51 -2.34,2.54 -2.83,2.54 -0.49,0 -3.22,-1.27 -4.19,1.56 -0.97,2.83 -0.32,4.47 -1.87,4.53 -1.55,0.06 -3.47,-2.06 -5.58,-1 -2.11,1.06 -2.11,3.3 -3,4.08 -0.89,0.78 -2.34,-0.58 -4.3,0.2 a 2.35,2.35 0 0 0 -1.63,1.75 z"
       style="fill:#ffffff;stroke:#000000;stroke-miterlimit:10"
       id="path213" />
  </g>
</svg>
