<?xml version="1.0" encoding="UTF-8" standalone="no"?>
<svg
   xmlns:dc="http://purl.org/dc/elements/1.1/"
   xmlns:cc="http://creativecommons.org/ns#"
   xmlns:rdf="http://www.w3.org/1999/02/22-rdf-syntax-ns#"
   xmlns:svg="http://www.w3.org/2000/svg"
   xmlns="http://www.w3.org/2000/svg"
   xmlns:sodipodi="http://sodipodi.sourceforge.net/DTD/sodipodi-0.dtd"
   xmlns:inkscape="http://www.inkscape.org/namespaces/inkscape"
   inkscape:version="1.0 (4035a4fb49, 2020-05-01)"
   height="445.18011"
   width="463.55481"
   sodipodi:docname="kpl-accueil-orientation.svg"
   id="svg179"
   version="1.1"
   viewBox="0 0 463.55481 445.18011">
  <metadata
     id="metadata185">
    <rdf:RDF>
      <cc:Work
         rdf:about="">
        <dc:format>image/svg+xml</dc:format>
        <dc:type
           rdf:resource="http://purl.org/dc/dcmitype/StillImage" />
      </cc:Work>
    </rdf:RDF>
  </metadata>
  <defs
     id="defs183" />
  <sodipodi:namedview
     inkscape:current-layer="svg179"
     inkscape:window-maximized="0"
     inkscape:window-y="0"
     inkscape:window-x="0"
     inkscape:cy="202.24"
     inkscape:cx="226.48301"
     inkscape:zoom="1.852"
     showgrid="false"
     id="namedview181"
     inkscape:window-height="480"
     inkscape:window-width="836"
     inkscape:pageshadow="2"
     inkscape:pageopacity="0"
     guidetolerance="10"
     gridtolerance="10"
     objecttolerance="10"
     borderopacity="1"
     bordercolor="#666666"
     pagecolor="#ffffff" />
  <g
     transform="translate(-23.516988,-47.76)"
     id="freepik--Floor--inject-2">
    <path
       id="path2"
       style="fill:#263238"
       d="m 347.58,282.72 a 0.56,0.56 0 0 1 -0.27,-0.08 c -83,-51.91 -156.21,-55 -203,-48.39 -50.75,7.12 -82.29,26.77 -82.6,27 a 0.49,0.49 0 0 1 -0.69,-0.16 0.5,0.5 0 0 1 0.15,-0.69 c 0.32,-0.19 32,-20 83,-27.11 a 274.35,274.35 0 0 1 91,2.65 c 38.07,7.45 76,22.89 112.76,45.88 a 0.49,0.49 0 0 1 0.16,0.69 0.5,0.5 0 0 1 -0.51,0.21 z" />
    <path
       id="path4"
       style="fill:#a61c3c"
       d="m 211.47,269.78 c -8.59,-7.06 17,-34.26 17,-34.26 -11.2,-2 -9.68,-1.6 -9.68,-1.6 0,0 -29.12,28.08 -29.42,44.08 -0.3,16 44.39,30.9 44.39,30.9 l 16.77,-7.36 14.65,-5.43 c 0,0 -45.11,-19.27 -53.71,-26.33 z" />
    <path
       id="path6"
       style="fill:#263238"
       d="m 233.76,309.38 h -0.16 c -1.84,-0.61 -45,-15.24 -44.73,-31.38 0.29,-15.46 26.53,-41.47 29.35,-44.21 0.05,-0.21 0.1,-0.34 0.67,-0.32 v 0 c 1,0 3.4,0.48 9.63,1.59 a 0.51,0.51 0 0 1 0.27,0.84 c -0.19,0.2 -19.21,20.55 -18.59,30.22 a 4.42,4.42 0 0 0 1.57,3.3 c 8.44,6.94 53.13,26 53.58,26.24 a 0.5,0.5 0 0 1 0.31,0.47 0.53,0.53 0 0 1 -0.33,0.46 L 250.71,302 234,309.34 a 0.45,0.45 0 0 1 -0.24,0.04 z m -14.78,-75 c -2.16,2.12 -28.82,28.56 -29.11,43.58 -0.29,15.02 40.77,29.29 43.87,30.35 l 16.59,-7.28 13.5,-5 c -7.25,-3.11 -44.79,-19.41 -52.67,-25.88 a 5.38,5.38 0 0 1 -1.93,-4 c -0.6,-9.19 14.85,-26.6 18.23,-30.29 -5.99,-1.07 -7.88,-1.37 -8.46,-1.45 z" />
    <path
       id="path8"
       style="fill:#263238"
       d="m 187.65,339.63 a 0.49,0.49 0 0 1 -0.36,-0.15 0.5,0.5 0 0 1 0,-0.71 c 0.27,-0.25 27.51,-25.79 76.09,-42.73 a 274,274 0 0 1 89.77,-15.1 h 0.73 c 38.57,0 78.54,7.76 118.81,23.07 a 0.50152268,0.50152268 0 0 1 -0.35,0.94 c -91.49,-34.78 -163.92,-23.53 -208.58,-8 -48.4,16.86 -75.51,42.27 -75.78,42.53 a 0.48,0.48 0 0 1 -0.33,0.15 z" />
    <path
       id="path10"
       style="fill:#263238"
       d="m 477,435 a 0.51,0.51 0 0 1 -0.36,-0.15 c -0.51,-0.53 -52.36,-53.44 -137.38,-83.12 -89.28,-31.15 -232.76,-6.53 -292,34.63 a 0.50343818,0.50343818 0 0 1 -0.57,-0.83 c 30.18,-21 81.61,-37.76 137.58,-44.95 58.57,-7.53 115.2,-3.8 155.35,10.21 85.26,29.75 137.25,82.83 137.77,83.36 a 0.5,0.5 0 0 1 0,0.71 A 0.52,0.52 0 0 1 477,435 Z" />
    <path
       id="path12"
       style="fill:#a61c3c"
       d="m 146.57,410 c -10.46,3.68 -19.74,6.85 -28,9.59 29.62,13.85 67.1,23.07 114.3,28.05 10.42,1.1 20.16,1.87 29.29,2.33 60.24,-44 87.81,-95 87.81,-95 2.05,0.67 -33.55,-15 -73.71,-16.38 -0.03,0.01 -50.26,43.5 -129.69,71.41 z" />
    <path
       id="path14"
       style="fill:#263238"
       d="m 183.07,492.94 a 0.49,0.49 0 0 1 -0.47,-0.32 0.5,0.5 0 0 1 0.29,-0.65 c 59.61,-22 101.74,-58.11 126.58,-84.56 24.84,-26.45 37.86,-48.81 39.78,-52.22 -4.3,-1.83 -36.32,-14.78 -72.84,-16.08 -3.12,2.64 -53.18,44.49 -129.67,71.36 -77.8,27.33 -90.89,27 -107.45,26.5 -2.19,-0.06 -4.45,-0.12 -6.93,-0.12 a 0.5,0.5 0 0 1 0,-1 c 2.49,0 4.76,0.06 7,0.12 16.47,0.46 29.47,0.82 107.1,-26.45 78.43,-27.55 129,-70.86 129.49,-71.29 a 0.53,0.53 0 0 1 0.35,-0.13 c 36.64,1.27 69.14,14.11 73.69,16.38 h 0.15 v 0 c 0.25,0.13 0.39,0.22 0.4,0.26 a 0.49,0.49 0 0 1 -0.09,0.53 0.3,0.3 0 0 1 -0.13,0.09 c -1.35,2.42 -14.4,25.34 -40.06,52.66 -24.92,26.54 -67.17,62.8 -127,84.82 z" />
    <path
       id="path16"
       style="fill:#a61c3c"
       d="m 374.68,365.27 c 18.72,7.57 39.77,-10.79 38.27,-30.35 -1.45,-19 -25.25,-29.29 -40.19,-35.57 -39.63,-16.65 -65.47,-13.78 -65.47,-13.78 0,0 40.19,-7.46 82.12,-2.3 36.29,4.47 74.06,26.43 89.42,60.73 8.26,18.44 8.59,38.92 7,58.73 -1.78,22.41 -8.84,31.74 -8.84,31.74 0,0 -50.56,-40.68 -102.31,-69.2 z" />
    <path
       id="path18"
       style="fill:#263238"
       d="m 477,435 a 0.51,0.51 0 0 1 -0.31,-0.11 c -0.51,-0.41 -51.13,-41 -102.25,-69.15 a 0.5,0.5 0 0 1 0.43,-0.9 c 8,3.24 17,1.84 24.8,-3.83 8.63,-6.32 13.53,-16.29 12.79,-26 C 411,316 387,305.86 372.57,299.82 c -39,-16.41 -65,-13.78 -65.23,-13.75 a 0.51,0.51 0 0 1 -0.55,-0.43 0.5,0.5 0 0 1 0.41,-0.56 c 0.4,-0.08 40.75,-7.42 82.27,-2.3 A 127.15,127.15 0 0 1 442.24,302 c 16.93,11 29.74,25.44 37.05,41.76 8.84,19.75 8.41,41.89 7,59 -1.78,22.3 -8.65,31.62 -8.94,32 a 0.5,0.5 0 0 1 -0.34,0.2 z m -98.1,-67.91 c 47.34,26.67 93.12,62.81 98,66.68 1.34,-2.06 6.91,-11.66 8.45,-31.05 1.36,-17 1.79,-38.95 -7,-58.49 -14,-31.31 -49.81,-55.6 -89,-60.43 -30.92,-3.81 -61.21,-0.68 -74.68,1.17 10.44,0.31 31.27,2.59 58.3,13.95 14.58,6.13 39,16.4 40.49,36 0.77,10.08 -4.28,20.39 -13.19,26.9 -6.66,4.83 -14.27,6.65 -21.37,5.24 z" />
  </g>
  <g
     transform="translate(-23.516988,-47.76)"
     id="freepik--Flags--inject-2">
    <path
       id="path21"
       style="fill:#263238"
       d="m 308,292.89 a 1.5,1.5 0 0 1 -1.5,-1.47 l -3.86,-192.1 a 1.5003,1.5003 0 0 1 3,-0.06 l 3.86,192.1 a 1.49,1.49 0 0 1 -1.47,1.53 z" />
    <polygon
       id="polygon23"
       style="fill:#a61c3c"
       points="341.52,142.62 345.99,153.94 322.1,146.45 329.69,123.68 347.64,133.88 " />
    <path
       id="path25"
       style="fill:#263238"
       d="m 346,154.44 a 0.39,0.39 0 0 1 -0.15,0 L 322,146.93 a 0.48,0.48 0 0 1 -0.29,-0.25 0.45,0.45 0 0 1 0,-0.39 l 7.59,-22.77 a 0.52,0.52 0 0 1 0.29,-0.31 0.54,0.54 0 0 1 0.43,0 l 17.95,10.2 a 0.51,0.51 0 0 1 0.24,0.33 0.49,0.49 0 0 1 -0.08,0.39 l -6,8.52 4.37,11.08 a 0.5,0.5 0 0 1 -0.1,0.52 0.49,0.49 0 0 1 -0.4,0.19 z m -23.25,-8.31 22.4,7 -4.08,-10.35 a 0.52,0.52 0 0 1 0.05,-0.47 l 5.81,-8.29 -16.93,-9.61 z" />
    <polygon
       id="polygon27"
       style="fill:#263238"
       points="329.69,123.68 328.79,143.94 322.1,146.45 " />
    <path
       id="path29"
       style="fill:#263238"
       d="m 322.1,147 a 0.49,0.49 0 0 1 -0.47,-0.66 l 7.59,-22.77 a 0.50803543,0.50803543 0 0 1 1,0.18 l -0.9,20.27 a 0.49,0.49 0 0 1 -0.32,0.44 l -6.69,2.51 A 0.57,0.57 0 0 1 322.1,147 Z m 6.9,-19.77 -6.12,18.39 5.4,-2 z m -0.24,16.71 z" />
    <polygon
       id="polygon31"
       style="fill:#a61c3c"
       points="328.79,143.94 305.5,135.51 304.85,102.36 330.95,113.47 " />
    <path
       id="path33"
       style="fill:#263238"
       d="m 328.79,144.44 h -0.17 L 305.32,136 a 0.52,0.52 0 0 1 -0.33,-0.46 l -0.64,-33.15 a 0.5,0.5 0 0 1 0.22,-0.42 0.51,0.51 0 0 1 0.48,0 l 26.1,11.03 a 0.48,0.48 0 0 1 0.3,0.5 l -2.16,30.5 a 0.47,0.47 0 0 1 -0.22,0.38 0.48,0.48 0 0 1 -0.28,0.06 z m -22.79,-9.29 22.35,8.1 2.09,-29.46 -25.07,-10.66 z" />
    <path
       id="path35"
       style="fill:#263238"
       d="m 210.26,238.43 a 1,1 0 0 1 -1,-1 L 207,156.82 a 1.0004499,1.0004499 0 1 1 2,-0.06 l 2.24,80.64 a 1,1 0 0 1 -1,1 z" />
    <polygon
       id="polygon37"
       style="fill:#a61c3c"
       points="223.87,174.86 226.72,179.15 215.73,176.53 218.84,166.95 226.61,172.14 " />
    <path
       id="path39"
       style="fill:#263238"
       d="m 226.73,179.65 h -0.12 l -11,-2.61 a 0.5,0.5 0 0 1 -0.36,-0.64 l 3.11,-9.59 a 0.48,0.48 0 0 1 0.31,-0.31 0.52,0.52 0 0 1 0.44,0.05 l 7.76,5.19 a 0.51,0.51 0 0 1 0.08,0.77 l -2.44,2.43 2.62,4 a 0.5,0.5 0 0 1 0,0.56 0.5,0.5 0 0 1 -0.4,0.15 z m -10.35,-3.48 9.23,2.2 -2.15,-3.23 a 0.5,0.5 0 0 1 0.06,-0.64 l 2.3,-2.29 -6.7,-4.48 z" />
    <polygon
       id="polygon41"
       style="fill:#263238"
       points="218.84,166.95 218.53,175.46 215.73,176.53 " />
    <path
       id="path43"
       style="fill:#263238"
       d="m 215.73,177 a 0.48,0.48 0 0 1 -0.34,-0.13 0.51,0.51 0 0 1 -0.13,-0.52 l 3.11,-9.59 a 0.5,0.5 0 0 1 0.56,-0.33 0.49,0.49 0 0 1 0.41,0.51 l -0.31,8.51 a 0.49,0.49 0 0 1 -0.32,0.45 l -2.8,1.07 a 0.57,0.57 0 0 1 -0.18,0.03 z m 2.48,-6.52 -1.68,5.18 1.52,-0.58 z m 0.32,5 z" />
    <polygon
       id="polygon45"
       style="fill:#a61c3c"
       points="218.53,175.46 208.72,171.99 208.35,158.08 219.43,162.89 " />
    <path
       id="path47"
       style="fill:#263238"
       d="m 218.53,176 a 0.45,0.45 0 0 1 -0.16,0 l -9.81,-3.47 a 0.48,0.48 0 0 1 -0.33,-0.45 l -0.38,-13.92 a 0.47,0.47 0 0 1 0.22,-0.42 0.49,0.49 0 0 1 0.48,0 l 11.08,4.81 a 0.48,0.48 0 0 1 0.3,0.49 l -0.9,12.57 a 0.51,0.51 0 0 1 -0.22,0.39 0.54,0.54 0 0 1 -0.28,0 z m -9.31,-4.32 8.86,3.13 0.83,-11.56 -10,-4.36 z" />
    <path
       id="path49"
       style="fill:#263238"
       d="m 277.61,248.61 a 0.51,0.51 0 0 1 -0.5,-0.49 l -1.65,-52.28 a 0.5,0.5 0 0 1 0.48,-0.51 0.48,0.48 0 0 1 0.52,0.48 l 1.65,52.28 a 0.5,0.5 0 0 1 -0.48,0.52 z" />
    <polygon
       id="polygon51"
       style="fill:#a61c3c"
       points="287.63,209.13 289.73,212.28 281.64,210.36 283.93,203.31 289.64,207.13 " />
    <path
       id="path53"
       style="fill:#263238"
       d="m 289.73,212.79 h -0.11 l -8.1,-1.92 a 0.55,0.55 0 0 1 -0.32,-0.24 0.51,0.51 0 0 1 0,-0.4 l 2.29,-7.06 a 0.51,0.51 0 0 1 0.32,-0.32 0.5,0.5 0 0 1 0.44,0.06 l 5.71,3.82 a 0.47,0.47 0 0 1 0.22,0.37 0.53,0.53 0 0 1 -0.14,0.4 l -1.72,1.71 1.87,2.82 a 0.5,0.5 0 0 1 0,0.56 0.49,0.49 0 0 1 -0.46,0.2 z m -7.45,-2.79 6.33,1.5 -1.4,-2.09 a 0.51,0.51 0 0 1 0.07,-0.64 l 1.58,-1.57 -4.66,-3.11 z" />
    <polygon
       id="polygon55"
       style="fill:#a61c3c"
       points="283.93,203.31 283.7,209.57 281.64,210.36 " />
    <path
       id="path57"
       style="fill:#263238"
       d="m 281.64,210.86 a 0.52,0.52 0 0 1 -0.35,-0.14 0.49,0.49 0 0 1 -0.13,-0.51 l 2.29,-7.06 a 0.50717354,0.50717354 0 0 1 1,0.17 l -0.23,6.27 a 0.51,0.51 0 0 1 -0.32,0.45 l -2.06,0.79 z m 2.06,-1.29 z m -0.4,-2.7 -0.86,2.65 0.77,-0.3 z" />
    <polygon
       id="polygon59"
       style="fill:#a61c3c"
       points="283.7,209.57 276.48,207.02 276.2,196.78 284.36,200.32 " />
    <path
       id="path61"
       style="fill:#263238"
       d="m 283.7,210.07 h -0.17 l -7.22,-2.55 A 0.51,0.51 0 0 1 276,207 l -0.28,-10.24 a 0.53,0.53 0 0 1 0.22,-0.43 0.51,0.51 0 0 1 0.48,0 l 8.16,3.54 a 0.48,0.48 0 0 1 0.3,0.49 l -0.66,9.26 A 0.5,0.5 0 0 1 284,210 a 0.57,0.57 0 0 1 -0.3,0.07 z m -6.7,-3.41 6.28,2.22 0.59,-8.25 -7.12,-3.08 z" />
    <path
       id="path63"
       style="fill:#263238"
       d="m 354.82,371.71 v 0 a 2,2 0 0 1 -2,-2 l 2.24,-319.95 a 2,2 0 0 1 2,-2 v 0 a 2,2 0 0 1 2,2 l -2.24,320 a 2,2 0 0 1 -2,1.95 z" />
    <polygon
       id="polygon65"
       style="fill:#a61c3c"
       points="405.82,109.28 414.48,123.31 383.69,119.32 390.6,83.43 414.86,100.87 " />
    <path
       id="path67"
       style="fill:#263238"
       d="m 414.48,123.8 h -0.06 l -30.79,-4 a 0.47,0.47 0 0 1 -0.34,-0.2 0.53,0.53 0 0 1 -0.09,-0.39 l 6.9,-35.89 a 0.51,0.51 0 0 1 0.31,-0.37 0.51,0.51 0 0 1 0.48,0.06 l 24.26,17.45 a 0.49,0.49 0 0 1 0.21,0.37 0.5,0.5 0 0 1 -0.16,0.4 l -8.74,8.13 8.45,13.64 a 0.5,0.5 0 0 1 0,0.54 0.5,0.5 0 0 1 -0.43,0.26 z m -30.19,-4.91 29.22,3.78 -8.11,-13.13 a 0.5,0.5 0 0 1 0.08,-0.63 l 8.59,-8 -23.13,-16.62 z" />
    <polygon
       id="polygon69"
       style="fill:#263238"
       points="390.6,83.43 400.96,117.73 383.69,119.32 " />
    <path
       id="path71"
       style="fill:#263238"
       d="m 383.69,119.82 a 0.5,0.5 0 0 1 -0.37,-0.17 0.5,0.5 0 0 1 -0.12,-0.43 l 6.9,-35.89 a 0.51,0.51 0 0 1 0.47,-0.4 0.5,0.5 0 0 1 0.5,0.35 l 10.37,34.3 a 0.51,0.51 0 0 1 -0.07,0.43 0.53,0.53 0 0 1 -0.37,0.22 l -17.26,1.59 z m 7,-34.31 -6.39,33.25 16,-1.47 z" />
    <polygon
       id="polygon73"
       style="fill:#a61c3c"
       points="400.96,117.73 357.67,98.47 357.97,53.92 404.16,77.06 " />
    <path
       id="path75"
       style="fill:#263238"
       d="m 401,118.23 a 0.54,0.54 0 0 1 -0.21,0 L 357.47,98.92 a 0.51,0.51 0 0 1 -0.3,-0.46 l 0.3,-44.54 a 0.5,0.5 0 0 1 0.24,-0.43 0.51,0.51 0 0 1 0.48,0 l 46.2,23.14 a 0.49,0.49 0 0 1 0.27,0.49 l -3.2,40.67 a 0.54,0.54 0 0 1 -0.25,0.39 0.55,0.55 0 0 1 -0.21,0.05 z M 358.18,98.14 400.51,117 403.64,77.37 358.46,54.73 Z" />
  </g>
  <g
     transform="translate(-23.516988,-47.76)"
     id="freepik--Character--inject-2">
    <path
       id="path78"
       style="fill:#ffffff"
       d="m 152.78,106 a 64.19,64.19 0 0 1 2.74,9.13 c 0.45,3.08 1.74,4.75 1.39,5.66 -0.35,0.91 -1.48,3 -1.48,3.65 a 56.54,56.54 0 0 0 2.94,8 c 0.91,1.94 -1.71,2.51 -2.51,3.65 -0.8,1.14 -1,3.77 -1.37,7.08 -0.37,3.31 0.68,5.14 -0.11,6.85 -0.79,1.71 -5.94,1.94 -8.11,1.37 a 7.43,7.43 0 0 1 -3.2,-1.6 l -0.68,2.86 a 58.4,58.4 0 0 0 -10.84,-6.65 128,128 0 0 0 -14.5,-4.8 l 0.57,-6.39 c 0,0 -6.05,-9 -8.45,-16.55 -2.4,-7.55 1.94,-16.1 4.45,-19.41 2.51,-3.31 15,-5.82 21.35,-5.93 6.35,-0.11 16.55,4.79 17,4.9 0.45,0.11 4.34,-0.91 4.45,0.58 a 7.93,7.93 0 0 1 -0.91,3.42 c 0,0 4.91,-2.28 4.45,0.34 -0.46,2.62 -6.16,4.13 -7.18,3.84 z" />
    <path
       id="path80"
       style="fill:#263238"
       d="m 142.39,153.14 a 0.51,0.51 0 0 1 -0.31,-0.11 58.72,58.72 0 0 0 -10.74,-6.56 127.58,127.58 0 0 0 -14.42,-4.76 0.51,0.51 0 0 1 -0.37,-0.53 l 0.56,-6.22 c -0.8,-1.21 -6.19,-9.54 -8.42,-16.53 -2.46,-7.74 1.89,-16.38 4.54,-19.86 2.65,-3.48 15.63,-6 21.73,-6.13 5.54,-0.11 13.75,3.45 16.44,4.62 0.38,0.17 0.63,0.28 0.71,0.3 l 0.7,-0.09 c 1.52,-0.2 2.94,-0.33 3.68,0.27 a 1.18,1.18 0 0 1 0.44,0.84 6.49,6.49 0 0 1 -0.47,2.54 c 1.13,-0.4 2.73,-0.79 3.53,-0.17 a 1.43,1.43 0 0 1 0.47,1.52 4.14,4.14 0 0 1 -2.22,2.65 12.21,12.21 0 0 1 -4.73,1.56 57.37,57.37 0 0 1 2.49,8.52 17.53,17.53 0 0 0 1,3.54 3.6,3.6 0 0 1 0.4,2.37 c -0.12,0.32 -0.34,0.79 -0.57,1.28 a 10.64,10.64 0 0 0 -0.88,2.2 61.08,61.08 0 0 0 2.89,7.82 c 0.8,1.69 -0.53,2.61 -1.51,3.28 a 4.57,4.57 0 0 0 -1,0.87 c -0.68,1 -0.93,3.43 -1.22,6.28 l -0.06,0.56 a 16.29,16.29 0 0 0 0.08,3.64 6,6 0 0 1 -0.24,3.37 c -1,2.14 -6.59,2.2 -8.69,1.64 a 9,9 0 0 1 -2.76,-1.21 l -0.5,2.1 a 0.52,0.52 0 0 1 -0.33,0.36 0.45,0.45 0 0 1 -0.22,0.04 z m -24.81,-12.29 a 123.72,123.72 0 0 1 14.17,4.71 57.43,57.43 0 0 1 10.33,6.22 l 0.51,-2.11 a 0.49,0.49 0 0 1 0.35,-0.37 0.5,0.5 0 0 1 0.49,0.13 7.17,7.17 0 0 0 3,1.47 c 2.18,0.57 6.9,0.23 7.52,-1.1 a 5.24,5.24 0 0 0 0.16,-2.84 17.34,17.34 0 0 1 -0.09,-3.85 l 0.06,-0.57 c 0.33,-3.23 0.57,-5.56 1.4,-6.74 a 4.75,4.75 0 0 1 1.3,-1.12 c 1.11,-0.77 1.56,-1.2 1.17,-2 -0.85,-1.8 -3,-7.39 -3,-8.25 a 8.08,8.08 0 0 1 1,-2.62 c 0.22,-0.47 0.43,-0.91 0.54,-1.21 a 3.5,3.5 0 0 0 -0.4,-1.68 18.62,18.62 0 0 1 -1,-3.74 63.52,63.52 0 0 0 -2.71,-9 0.5,0.5 0 0 1 0.11,-0.53 0.52,0.52 0 0 1 0.52,-0.13 9.53,9.53 0 0 0 4.79,-1.41 3.43,3.43 0 0 0 1.75,-2 c 0.05,-0.29 0,-0.47 -0.09,-0.56 -0.48,-0.36 -2.27,0.11 -3.66,0.75 a 0.5,0.5 0 0 1 -0.66,-0.68 7.46,7.46 0 0 0 0.86,-3.16 0.16,0.16 0 0 0 -0.07,-0.14 c -0.46,-0.37 -2.12,-0.15 -2.92,0 A 3.37,3.37 0 0 1 151.93,98.38 8.22,8.22 0 0 1 151,98 c -2.64,-1.15 -10.68,-4.67 -16,-4.54 -6.65,0.11 -18.68,2.73 -21,5.73 -2,2.69 -6.8,11.33 -4.37,19 2.37,7.31 8.37,16.27 8.37,16.36 a 0.48,0.48 0 0 1 0.09,0.32 z" />
    <ellipse
       id="ellipse82"
       style="fill:#263238"
       ry="1.95"
       rx="0.64999998"
       cy="124.46"
       cx="153.95" />
    <path
       id="path84"
       style="fill:#263238"
       d="m 153.22,121.12 a 0.48,0.48 0 0 1 -0.34,-0.13 0.5,0.5 0 0 1 0,-0.71 2.65,2.65 0 0 1 2.13,-1.07 1.73,1.73 0 0 1 1.26,0.75 0.5,0.5 0 0 1 -0.15,0.69 0.51,0.51 0 0 1 -0.69,-0.14 0.72,0.72 0 0 0 -0.52,-0.31 1.88,1.88 0 0 0 -1.3,0.76 0.46,0.46 0 0 1 -0.39,0.16 z" />
    <path
       id="path86"
       style="fill:#263238"
       d="m 154.38,150 c 0.79,-1.71 -0.23,-3.54 0.11,-6.85 0.34,-3.31 0.57,-5.93 1.37,-7.08 -2.28,-0.79 -7,2.63 -7.53,1.83 -0.53,-0.8 -1,-15.07 -0.69,-17.24 0.31,-2.17 3.31,-2.16 4.57,-4.9 1.26,-2.74 -3,-5.83 -3.2,-7.65 -0.2,-1.82 3.77,-2.17 3.77,-2.17 1,0.34 6.73,-1.14 7.19,-3.77 0.46,-2.63 -4.45,-0.34 -4.45,-0.34 a 7.93,7.93 0 0 0 0.91,-3.42 c -0.11,-1.49 -4,-0.46 -4.45,-0.58 -0.45,-0.12 -10.62,-5 -17,-4.9 -6.38,0.1 -18.84,2.62 -21.35,5.93 -2.51,3.31 -6.85,11.87 -4.45,19.41 2,6.42 6.73,13.9 8.07,16 a 5.43,5.43 0 0 0 1.29,0.68 27.58,27.58 0 0 0 12.44,0.8 c 5.71,-1 10.28,-3.08 9.48,-4.68 -0.8,-1.6 -1.26,-8.22 0.57,-11.3 1.83,-3.08 3.88,1.6 3.42,7.19 -0.46,5.59 -1.71,9.13 -2.05,12.67 -0.34,3.54 0.68,10.16 0.68,10.16 a 7.43,7.43 0 0 0 3.2,1.6 c 2.16,0.61 7.3,0.33 8.1,-1.39 z" />
    <path
       id="path88"
       style="fill:#263238"
       d="m 149,152.16 a 12.31,12.31 0 0 1 -2.89,-0.3 8,8 0 0 1 -3.42,-1.72 0.62,0.62 0 0 1 -0.14,-0.28 c 0,-0.27 -1,-6.72 -0.69,-10.28 a 45.86,45.86 0 0 1 0.81,-4.75 59.91,59.91 0 0 0 1.25,-7.92 c 0.34,-4.16 -0.76,-7.34 -1.63,-7.61 -0.34,-0.11 -0.72,0.46 -0.87,0.72 -1.7,2.86 -1.3,9.32 -0.55,10.82 a 1.36,1.36 0 0 1 0,1.27 c -1,1.91 -5.88,3.42 -9.81,4.12 a 28,28 0 0 1 -12.52,-0.77 h -0.14 a 6,6 0 0 1 -1.43,-0.76 0.4,0.4 0 0 1 -0.15,-0.14 c -1.38,-2.15 -6.07,-9.65 -8.13,-16.1 -2.46,-7.74 1.89,-16.38 4.54,-19.86 2.65,-3.48 15.63,-6 21.73,-6.13 5.58,-0.08 13.75,3.45 16.44,4.62 0.38,0.17 0.63,0.28 0.71,0.3 l 0.7,-0.09 c 1.52,-0.2 2.94,-0.33 3.68,0.27 a 1.18,1.18 0 0 1 0.44,0.84 6.49,6.49 0 0 1 -0.47,2.54 c 1.13,-0.4 2.73,-0.79 3.53,-0.17 a 1.43,1.43 0 0 1 0.47,1.52 4.14,4.14 0 0 1 -2.22,2.65 c -1.84,1.1 -4.51,1.74 -5.5,1.54 -0.74,0.07 -2.51,0.39 -3.08,1.1 a 0.58,0.58 0 0 0 -0.15,0.5 6.55,6.55 0 0 0 1.31,2.22 c 1.23,1.65 2.76,3.7 1.84,5.69 a 6.89,6.89 0 0 1 -2.8,2.88 c -0.89,0.58 -1.59,1 -1.73,1.9 -0.34,2.21 0.11,15.08 0.58,16.78 a 10.77,10.77 0 0 0 1.94,-0.73 c 1.73,-0.76 3.9,-1.71 5.37,-1.19 a 0.51,0.51 0 0 1 0.32,0.32 0.53,0.53 0 0 1 -0.07,0.44 c -0.68,1 -0.93,3.43 -1.22,6.28 l -0.06,0.56 a 16.29,16.29 0 0 0 0.08,3.64 6,6 0 0 1 -0.24,3.37 v 0 c -0.67,1.42 -3.44,1.91 -5.83,1.91 z m -5.49,-2.63 a 7.43,7.43 0 0 0 2.86,1.37 c 2.18,0.57 6.9,0.23 7.52,-1.1 v 0 a 5.24,5.24 0 0 0 0.16,-2.84 17.34,17.34 0 0 1 -0.09,-3.85 l 0.06,-0.57 a 24.69,24.69 0 0 1 1,-6.08 11.22,11.22 0 0 0 -4,1.26 c -1.65,0.72 -2.65,1.16 -3.13,0.48 -0.76,-1 -1.08,-15.65 -0.77,-17.6 0.2,-1.31 1.2,-2 2.17,-2.59 a 5.8,5.8 0 0 0 2.43,-2.45 c 0.67,-1.46 -0.6,-3.17 -1.73,-4.69 a 6.76,6.76 0 0 1 -1.51,-2.69 1.64,1.64 0 0 1 0.37,-1.25 c 1,-1.2 3.56,-1.45 3.85,-1.48 a 0.5,0.5 0 0 1 0.21,0 9.53,9.53 0 0 0 4.79,-1.41 3.43,3.43 0 0 0 1.75,-2 c 0.05,-0.29 0,-0.47 -0.09,-0.56 -0.48,-0.36 -2.27,0.11 -3.66,0.75 a 0.5,0.5 0 0 1 -0.66,-0.68 7.46,7.46 0 0 0 0.86,-3.16 0.16,0.16 0 0 0 -0.07,-0.14 c -0.46,-0.37 -2.12,-0.15 -2.92,0 A 3.37,3.37 0 0 1 151.83,98.31 8.22,8.22 0 0 1 151,98 c -2.64,-1.15 -10.68,-4.67 -16,-4.54 -6.65,0.11 -18.68,2.73 -21,5.73 -2,2.69 -6.8,11.33 -4.37,19 2,6.24 6.52,13.53 8,15.76 a 4.21,4.21 0 0 0 1,0.57 h 0.13 a 27,27 0 0 0 12.1,0.76 c 5.2,-0.94 8.57,-2.55 9.09,-3.59 a 0.37,0.37 0 0 0 0,-0.37 c -0.82,-1.65 -1.37,-8.48 0.59,-11.78 0.79,-1.33 1.61,-1.3 2,-1.17 1.63,0.52 2.67,4.4 2.32,8.65 a 60.8,60.8 0 0 1 -1.26,8 43,43 0 0 0 -0.79,4.64 53.64,53.64 0 0 0 0.73,9.87 z m 10.84,0.48 z" />
    <path
       id="path90"
       style="fill:#ffffff"
       d="m 143.85,151.58 c 0,0 0.52,-2.34 -8.58,-6.63 -9.1,-4.29 -18.73,-6.12 -19.9,-5.6 -1.17,0.52 -2.47,3 -2.47,3 a 69.55,69.55 0 0 1 17.56,5.6 c 7.93,4 14.69,7.54 14.69,7.54 z" />
    <path
       id="path92"
       style="fill:#263238"
       d="m 145.15,156 a 0.64,0.64 0 0 1 -0.23,0 c -0.06,0 -6.85,-3.56 -14.69,-7.55 a 69.32,69.32 0 0 0 -17.41,-5.54 0.52,0.52 0 0 1 -0.37,-0.27 0.53,0.53 0 0 1 0,-0.46 c 0.14,-0.27 1.42,-2.64 2.71,-3.21 1.46,-0.65 11.26,1.32 20.32,5.59 8.22,3.88 8.9,6.29 8.88,7 l 1.27,3.8 a 0.51,0.51 0 0 1 -0.15,0.54 0.5,0.5 0 0 1 -0.33,0.1 z m -31.47,-14 a 69.36,69.36 0 0 1 17,5.51 c 6,3 11.38,5.83 13.61,7 l -0.91,-2.73 a 0.46,0.46 0 0 1 0,-0.23 c 0,-0.11 -0.15,-2.27 -8.31,-6.11 -9.17,-4.33 -18.46,-6 -19.48,-5.59 a 6.2,6.2 0 0 0 -1.91,2.15 z" />
    <path
       id="path94"
       style="fill:#a61c3c"
       d="m 148.93,158 a 11,11 0 0 0 -5.34,-5.07 c -4.16,-2.08 -8.53,-6.65 -25.49,-10.41 -3.22,-0.71 -4.29,-0.52 -5.2,-0.13 a 17.56,17.56 0 0 0 -4.69,4.69 l -1.21,1.77 c 0,0 11.06,-0.13 18.73,2.21 7.67,2.34 25.5,9.23 25.5,9.23 z" />
    <path
       id="path96"
       style="fill:#263238"
       d="m 151.27,160.79 a 0.57,0.57 0 0 1 -0.18,0 c -0.18,-0.07 -17.89,-6.91 -25.46,-9.22 -7.57,-2.31 -18.48,-2.19 -18.58,-2.19 a 0.54,0.54 0 0 1 -0.44,-0.26 0.49,0.49 0 0 1 0,-0.51 l 1.17,-1.82 a 17.41,17.41 0 0 1 4.91,-4.87 c 1.09,-0.47 2.34,-0.6 5.51,0.1 13.41,3 19.07,6.48 22.82,8.81 1,0.64 1.91,1.2 2.79,1.63 a 11.63,11.63 0 0 1 5.53,5.24 l 2.27,2.27 a 0.51,0.51 0 0 1 0.07,0.63 0.52,0.52 0 0 1 -0.41,0.19 z M 108,148.35 c 2.83,0 11.59,0.29 18,2.23 6,1.83 18.31,6.49 23.33,8.41 l -0.68,-0.68 a 0.62,0.62 0 0 1 -0.11,-0.17 10.56,10.56 0 0 0 -5.09,-4.81 c -0.92,-0.46 -1.82,-1 -2.87,-1.68 -3.69,-2.29 -9.27,-5.76 -22.51,-8.69 -3.21,-0.71 -4.15,-0.48 -4.9,-0.16 a 17.72,17.72 0 0 0 -4.46,4.5 z" />
    <path
       id="path98"
       style="fill:#263238"
       d="m 186,286.66 c 0,0 -4,3.39 -2.93,6 a 63.45,63.45 0 0 0 3.39,6.46 l 1.69,-1.85 c 0,0 -2.31,-5.23 -1.85,-6 0.46,-0.77 11.54,-7.23 11.54,-7.23 l 3.24,6.77 1.69,-1.39 c 0,0 -2.77,-7.07 -3.85,-7.69 -1.08,-0.62 -10.2,1.86 -12.92,4.93 z" />
    <path
       id="path100"
       style="fill:#263238"
       d="m 186.41,299.63 v 0 a 0.52,0.52 0 0 1 -0.38,-0.24 61.6,61.6 0 0 1 -3.42,-6.53 c -1.17,-2.83 2.65,-6.22 3,-6.55 2.9,-3.2 12.17,-5.78 13.52,-5 1.14,0.65 3.4,6.24 4.06,7.94 a 0.51,0.51 0 0 1 -0.14,0.57 l -1.7,1.39 a 0.5,0.5 0 0 1 -0.76,-0.17 l -3,-6.29 c -5.05,3 -10.47,6.27 -10.91,6.81 -0.11,0.45 0.88,3.24 1.89,5.52 a 0.51,0.51 0 0 1 -0.09,0.54 l -1.69,1.85 a 0.52,0.52 0 0 1 -0.38,0.16 z m 11.9,-17.5 c -1.79,0 -9.46,2.06 -12,4.87 v 0.05 c -1,0.87 -3.55,3.56 -2.79,5.43 a 58.09,58.09 0 0 0 3,5.81 l 1,-1.11 c -1.06,-2.44 -2.16,-5.37 -1.68,-6.16 0.48,-0.79 8.35,-5.44 11.71,-7.4 a 0.51,0.51 0 0 1 0.4,-0.05 0.51,0.51 0 0 1 0.31,0.26 l 2.95,6.2 0.92,-0.75 c -1.28,-3.23 -2.94,-6.78 -3.5,-7.11 a 1,1 0 0 0 -0.32,-0.04 z M 186,286.67 Z" />
    <path
       id="path102"
       style="fill:#ffffff"
       d="m 188.41,269.89 10.77,10.62 a 5.25,5.25 0 0 1 0.62,4.15 c -0.47,1.24 -9.08,8 -10.78,8.78 -1.7,0.78 -2.61,-1.54 -2.77,-2.16 -0.16,-0.62 -0.92,-2.31 -1.07,-2.77 -0.15,-0.46 -4.31,-5.08 -5.54,-8.62 a 27.6,27.6 0 0 1 -1.39,-4.92 z" />
    <path
       id="path104"
       style="fill:#263238"
       d="m 188.36,294.09 a 1.83,1.83 0 0 1 -0.82,-0.19 4.18,4.18 0 0 1 -1.77,-2.5 c -0.09,-0.34 -0.43,-1.16 -0.68,-1.76 -0.17,-0.42 -0.33,-0.79 -0.39,-1 -0.06,-0.21 -0.41,-0.56 -0.77,-1 -1.34,-1.72 -3.84,-4.92 -4.76,-7.59 a 26.25,26.25 0 0 1 -1.41,-5 0.5,0.5 0 0 1 0.27,-0.51 l 10.15,-5.08 a 0.52,0.52 0 0 1 0.58,0.1 c 0,0 10.16,10 10.77,10.62 a 5.62,5.62 0 0 1 0.73,4.68 c -0.57,1.53 -9.55,8.38 -11,9.05 a 2.16,2.16 0 0 1 -0.9,0.18 z m -9.55,-18.84 a 32.68,32.68 0 0 0 1.3,4.48 c 0.87,2.51 3.3,5.63 4.61,7.31 a 6.5,6.5 0 0 1 0.93,1.31 c 0.06,0.17 0.2,0.51 0.36,0.9 a 20.16,20.16 0 0 1 0.73,1.91 3.2,3.2 0 0 0 1.26,1.84 0.94,0.94 0 0 0 0.85,0 c 1.87,-0.85 10.12,-7.52 10.51,-8.49 a 4.88,4.88 0 0 0 -0.5,-3.63 L 188.31,270.5 Z" />
    <path
       id="path106"
       style="fill:#ffffff"
       d="m 67.11,277 a 51.38,51.38 0 0 0 2.56,5.3 c 0.49,0.48 5.14,5.46 5.62,6.74 0.48,1.28 0,5.62 1.77,8.83 1.77,3.21 0.64,4.49 -1.29,3.85 -1.93,-0.64 -3.37,-4.49 -3.37,-4.49 0,0 1.77,6.42 2.09,7.54 0.32,1.12 5.14,2.41 4.33,3.53 -0.81,1.12 -9.31,1.61 -11.23,1.45 -1.92,-0.16 -5.46,-4.66 -6.58,-5.3 -1.12,-0.64 -4,-12.84 -4.82,-15.09 -0.82,-2.25 -2.09,-12 -2.09,-12 z" />
    <path
       id="path108"
       style="fill:#263238"
       d="m 68.4,310.31 h -0.85 c -1.34,-0.12 -3,-1.7 -5,-3.75 a 14.59,14.59 0 0 0 -1.75,-1.62 c -0.82,-0.46 -1.84,-3.79 -3.82,-11.07 -0.52,-1.93 -1,-3.6 -1.22,-4.28 -0.81,-2.27 -2.06,-11.74 -2.11,-12.14 a 0.5,0.5 0 0 1 0.11,-0.39 0.55,0.55 0 0 1 0.37,-0.18 l 13,-0.32 a 0.49,0.49 0 0 1 0.47,0.3 48.59,48.59 0 0 0 2.4,5.14 c 0,0.05 5.17,5.42 5.73,6.92 a 9.32,9.32 0 0 1 0.31,2.3 15.84,15.84 0 0 0 1.43,6.46 c 1.31,2.4 1,3.59 0.53,4.17 a 2.14,2.14 0 0 1 -2.42,0.4 A 4.12,4.12 0 0 1 74,301 c 0.44,1.58 0.87,3.17 1,3.67 0.09,0.3 1.24,0.89 1.93,1.25 1.24,0.64 2.31,1.2 2.49,1.94 a 0.93,0.93 0 0 1 -0.16,0.77 c -0.97,1.37 -8.18,1.68 -10.86,1.68 z M 54.67,277.85 c 0.29,2.09 1.32,9.52 2,11.38 0.26,0.72 0.69,2.33 1.25,4.36 0.94,3.46 2.68,9.89 3.37,10.48 a 12.67,12.67 0 0 1 1.93,1.77 c 1.33,1.34 3.34,3.36 4.42,3.45 2.32,0.19 10.11,-0.42 10.79,-1.24 a 7.58,7.58 0 0 0 -2,-1.24 c -1.2,-0.62 -2.23,-1.16 -2.43,-1.86 -0.32,-1.13 -2.09,-7.55 -2.09,-7.55 a 0.52347397,0.52347397 0 0 1 1,-0.31 c 0.38,1 1.67,3.73 3.06,4.2 0.62,0.2 1.12,0.17 1.33,-0.09 0.21,-0.26 0.29,-1.35 -0.64,-3.05 a 16.61,16.61 0 0 1 -1.55,-6.87 9.24,9.24 0 0 0 -0.25,-2 c -0.4,-1.09 -4.74,-5.8 -5.5,-6.57 a 37.19,37.19 0 0 1 -2.54,-5.14 z" />
    <path
       id="path110"
       style="fill:#263238"
       d="m 73,307.88 a 0.5,0.5 0 0 1 -0.46,-0.69 18.66,18.66 0 0 0 -3.81,-0.87 8,8 0 0 1 -2.61,-0.63 c -0.68,-0.51 -2,-3.8 -2.57,-5.19 a 0.41,0.41 0 0 1 0,-0.16 15.54,15.54 0 0 1 0.83,-5.66 c 0.91,-2.43 0.46,-7.27 0.45,-7.32 a 0.50202092,0.50202092 0 0 1 1,-0.09 c 0,0.21 0.48,5.12 -0.51,7.77 a 14.94,14.94 0 0 0 -0.78,5.17 25.59,25.59 0 0 0 2.22,4.69 17.72,17.72 0 0 0 2.17,0.43 c 3,0.5 4.45,0.82 4.69,1.59 a 0.79,0.79 0 0 1 -0.23,0.81 0.51,0.51 0 0 1 -0.39,0.15 z m -0.33,-0.6 z" />
    <path
       id="path112"
       style="fill:#ffffff"
       d="m 145.1,446.26 c 0,0 4.16,3.16 6.14,4.35 1.98,1.19 10.48,2 11.08,3.56 0.6,1.56 -0.9,3.07 -1.73,3.81 -0.83,0.74 -6.78,3 -11.33,2.52 a 17.88,17.88 0 0 0 -4.75,0.4 c -1.38,0.2 -11.08,1.38 -15.23,1.78 -4.15,0.4 -5.15,-3 -5.35,-7.12 -0.2,-4.12 0,-8.91 0,-8.91 l 16.62,-2.37 z" />
    <path
       id="path114"
       style="fill:#263238"
       d="m 128.64,463.21 a 4.42,4.42 0 0 1 -3,-1 c -1.34,-1.16 -2,-3.19 -2.18,-6.6 -0.19,-4.13 0,-8.9 0,-8.95 a 0.5,0.5 0 0 1 0.43,-0.47 l 16.62,-2.38 a 0.5,0.5 0 0 1 0.27,0 l 4.55,2 0.11,0.06 c 0,0 4.15,3.16 6.09,4.32 a 21.68,21.68 0 0 0 4.71,1.31 c 3.82,0.83 6.16,1.41 6.58,2.51 0.75,2 -1.22,3.78 -1.87,4.36 -1,0.89 -7,3.14 -11.71,2.64 a 13.23,13.23 0 0 0 -3.73,0.25 l -0.9,0.14 c -1.48,0.22 -11.2,1.4 -15.26,1.79 z m -4.22,-16.12 c 0,1.24 -0.15,5.06 0,8.44 0.15,3.07 0.73,4.94 1.83,5.9 a 3.74,3.74 0 0 0 3,0.75 c 4.05,-0.38 13.74,-1.57 15.21,-1.78 0.28,0 0.57,-0.08 0.87,-0.14 a 14.09,14.09 0 0 1 4,-0.25 c 4.53,0.48 10.23,-1.76 10.95,-2.4 1.42,-1.27 1.94,-2.33 1.59,-3.26 -0.25,-0.67 -3.76,-1.42 -5.85,-1.88 a 21.56,21.56 0 0 1 -5,-1.43 c -1.89,-1.13 -5.64,-4 -6.13,-4.35 l -4.37,-1.9 z" />
    <path
       id="path116"
       style="fill:#ffffff"
       d="m 150.67,457.87 c -3.57,-0.23 -6.11,0.69 -15.91,1.15 a 48.65,48.65 0 0 1 -10.44,-0.34 c 0.58,2.57 1.92,4.29 5,4 4.15,-0.4 13.85,-1.58 15.23,-1.78 a 17.88,17.88 0 0 1 4.75,-0.4 c 4.55,0.49 10.42,-1.7 11.33,-2.52 a 5.06,5.06 0 0 0 1.83,-2.81 c -3.12,2.04 -8.94,2.88 -11.79,2.7 z" />
    <path
       id="path118"
       style="fill:#263238"
       d="m 128.62,463.21 c -2.55,0 -4.12,-1.45 -4.79,-4.42 a 0.47,0.47 0 0 1 0.13,-0.45 0.49,0.49 0 0 1 0.44,-0.15 48.34,48.34 0 0 0 10.34,0.33 c 4.9,-0.23 8,-0.58 10.28,-0.84 a 30.65,30.65 0 0 1 5.69,-0.31 v 0 c 2.78,0.17 8.46,-0.65 11.44,-2.61 a 0.5,0.5 0 0 1 0.77,0.47 5.26,5.26 0 0 1 -2,3.13 c -1,0.89 -7,3.14 -11.71,2.64 a 13.23,13.23 0 0 0 -3.73,0.25 l -0.9,0.14 c -1.48,0.22 -11.2,1.4 -15.26,1.79 z M 125,459.3 c 0.69,2.2 2,3.1 4.23,2.88 4.05,-0.38 13.74,-1.57 15.21,-1.78 0.28,0 0.57,-0.08 0.87,-0.14 a 14.09,14.09 0 0 1 4,-0.25 c 4.53,0.48 10.23,-1.76 10.95,-2.4 a 7.29,7.29 0 0 0 1.19,-1.32 25.86,25.86 0 0 1 -10.81,2.08 28.94,28.94 0 0 0 -5.51,0.31 c -2.28,0.26 -5.41,0.61 -10.34,0.84 A 55.29,55.29 0 0 1 125,459.3 Z" />
    <path
       id="path120"
       style="fill:#263238"
       d="m 80.4,283.49 c 0,0 4.35,15.83 9.7,29.68 5.35,13.85 12.26,34.62 12.26,34.62 l 5,30.08 c 0,0 0.79,15 3.56,26.11 2.77,11.11 13.46,44.65 13.46,44.65 A 22.26,22.26 0 0 0 133,450 c 4.94,-0.2 12.06,-3.76 12.06,-3.76 0,0 0.6,-4.55 0.2,-6.53 -0.4,-1.98 -2.77,-3 -3.36,-4.55 -0.59,-1.55 -8.12,-47.82 -8.12,-47.82 0,0 -2.37,-32.84 -3.16,-39.17 -0.79,-6.33 -2.77,-59.75 -2.77,-59.75 z" />
    <path
       id="path122"
       style="fill:#263238"
       d="m 132.17,450.54 a 22.13,22.13 0 0 1 -8,-1.45 0.5,0.5 0 0 1 -0.29,-0.31 c -0.1,-0.33 -10.72,-33.71 -13.46,-44.67 -2.74,-10.96 -3.57,-26.07 -3.58,-26.22 l -4.94,-30 c -0.05,-0.14 -7,-20.85 -12.24,-34.53 C 84.42,299.68 80,283.78 79.92,283.62 a 0.49,0.49 0 0 1 0.1,-0.45 0.48,0.48 0 0 1 0.43,-0.17 l 47.49,4.94 a 0.5,0.5 0 0 1 0.45,0.48 c 0,0.53 2,53.47 2.76,59.71 0.76,6.24 3.15,38.87 3.17,39.2 3,18.5 7.66,46.52 8.09,47.67 a 5.19,5.19 0 0 0 1.39,1.71 5.81,5.81 0 0 1 2,2.92 c 0.41,2 -0.17,6.5 -0.19,6.69 a 0.5,0.5 0 0 1 -0.27,0.39 c -0.3,0.14 -7.28,3.61 -12.27,3.81 z m -7.44,-2.29 a 22.2,22.2 0 0 0 8.29,1.27 c 4.28,-0.17 10.35,-3 11.62,-3.59 a 27.11,27.11 0 0 0 0.17,-6.1 5,5 0 0 0 -1.7,-2.4 5.91,5.91 0 0 1 -1.64,-2.08 c -0.59,-1.58 -7.37,-43.17 -8.14,-47.9 0,-0.38 -2.39,-32.95 -3.17,-39.2 -0.76,-6.05 -2.55,-53.91 -2.76,-59.36 l -46.32,-4.82 c 0.92,3.22 4.85,16.93 9.48,28.93 5.29,13.7 12.21,34.44 12.28,34.65 l 5,30.15 c 0,0.2 0.83,15.17 3.56,26.07 2.6,10.45 12.39,41.41 13.33,44.38 z" />
    <path
       id="path124"
       style="fill:#ffffff"
       d="m 46.22,421.23 c 0,0 -15.09,2.92 -18.86,4.12 -3.77,1.2 -3.77,3.42 -2.91,7.54 0.86,4.12 2.57,6.17 3.26,6.68 0.69,0.51 1.2,7 3.08,11.14 1.88,4.14 6.21,12.35 10.11,14.4 3.9,2.05 8.23,2.06 8.75,1.37 0.52,-0.69 -1,-5.48 -1,-5.48 l -3.94,-12.69 c 0,0 4.59,-12.51 5.29,-13.19 0.7,-0.68 4.11,-4.29 4.11,-4.29 z" />
    <path
       id="path126"
       style="fill:#263238"
       d="m 47.7,467.39 a 16.21,16.21 0 0 1 -7,-1.83 c -4.42,-2.31 -9,-11.79 -10.33,-14.64 a 38.35,38.35 0 0 1 -2.22,-8 15.46,15.46 0 0 0 -0.75,-3 c -0.84,-0.63 -2.55,-2.84 -3.41,-6.95 -0.81,-3.89 -1.05,-6.75 3.25,-8.12 3.76,-1.2 18.3,-4 18.91,-4.13 a 0.5,0.5 0 0 1 0.48,0.17 l 7.89,9.6 a 0.5,0.5 0 0 1 0,0.66 c -0.15,0.15 -3.44,3.62 -4.13,4.3 -0.5,0.61 -3.39,8.14 -5.14,12.86 l 3.9,12.52 c 0.73,2.3 1.5,5.2 0.95,5.93 a 3.21,3.21 0 0 1 -2.4,0.63 z M 46,421.78 c -2.12,0.41 -15.09,3 -18.51,4 -3.23,1 -3.47,2.64 -2.57,7 0.8,3.83 2.35,5.85 3.07,6.38 0.41,0.31 0.6,1.13 1.09,3.57 a 37.91,37.91 0 0 0 2.15,7.77 c 2.62,5.72 6.59,12.44 9.89,14.16 3.9,2 7.7,1.86 8.12,1.5 0.15,-0.41 -0.45,-2.94 -1.12,-5 l -3.92,-12.7 a 0.5,0.5 0 0 1 0,-0.32 c 1.09,-3 4.72,-12.67 5.43,-13.38 0.55,-0.55 2.94,-3.06 3.8,-3.95 z" />
    <path
       id="path128"
       style="fill:#ffffff"
       d="m 40.9,465.11 c 4,2.06 8.23,2.06 8.75,1.37 a 2.45,2.45 0 0 0 0,-1.42 c -3.5,-0.17 -9.41,-1 -11.84,-4.75 -3.09,-4.8 -6.17,-15.08 -7.54,-20.74 -1.07,-4.4 -2.24,-11.4 -2.71,-14.29 l -0.21,0.07 c -3.77,1.2 -3.77,3.42 -2.91,7.54 0.86,4.12 2.57,6.17 3.26,6.68 0.69,0.51 1.2,7 3.08,11.14 1.88,4.14 6.22,12.35 10.12,14.4 z" />
    <path
       id="path130"
       style="fill:#263238"
       d="m 47.7,467.39 a 16.21,16.21 0 0 1 -7,-1.83 c -4.42,-2.31 -9,-11.79 -10.33,-14.64 a 38.35,38.35 0 0 1 -2.22,-8 15.46,15.46 0 0 0 -0.75,-3 c -0.84,-0.63 -2.55,-2.84 -3.41,-6.95 -0.81,-3.89 -1.05,-6.75 3.25,-8.12 l 0.22,-0.07 a 0.49,0.49 0 0 1 0.41,0.06 0.54,0.54 0 0 1 0.23,0.34 c 0.45,2.82 1.63,9.86 2.69,14.25 1.21,5 4.32,15.68 7.48,20.59 2.17,3.38 7.42,4.32 11.44,4.52 a 0.5,0.5 0 0 1 0.47,0.42 c 0.16,1 0.13,1.49 -0.1,1.8 -0.23,0.31 -1.19,0.63 -2.38,0.63 z M 27.17,425.94 c -2.9,1 -3.1,2.68 -2.23,6.85 0.8,3.83 2.35,5.85 3.07,6.38 0.41,0.31 0.6,1.13 1.09,3.57 a 37.91,37.91 0 0 0 2.15,7.77 c 2.62,5.72 6.59,12.44 9.89,14.16 3.88,2 7.66,1.86 8.12,1.5 0,0 0,-0.16 0,-0.63 -4.2,-0.26 -9.5,-1.34 -11.82,-5 -3.23,-5 -6.39,-15.86 -7.61,-20.89 -1.05,-4.11 -2.15,-10.59 -2.66,-13.71 z" />
    <path
       id="path132"
       style="fill:#263238"
       d="m 95.83,287.84 c 0,0 5.74,7.52 6.34,8.51 0.6,0.99 4.74,38.58 5.14,42.34 a 62.47,62.47 0 0 1 0,9.1 c 0,0 -13.91,13.88 -23.01,25.21 -9.1,11.33 -38.72,47.72 -38.72,47.72 l 13,20.24 c 0,0 16.25,-13 27.9,-24.13 18.44,-17.57 35.79,-36.15 37,-37.14 1.21,-0.99 9.19,-9.47 9.78,-11.84 0.59,-2.37 6.94,-35.64 9.12,-46.32 2.18,-10.68 5.14,-39.57 5.14,-39.57 l -54.41,1.38" />
    <path
       id="path134"
       style="fill:#263238"
       d="m 58.55,441.41 h -0.08 a 0.54,0.54 0 0 1 -0.34,-0.23 l -13,-20.24 a 0.48,0.48 0 0 1 0,-0.58 c 0.3,-0.37 29.72,-36.58 38.72,-47.73 8.54,-10.58 21.46,-23.6 22.91,-25.06 a 59.81,59.81 0 0 0 0,-8.82 c -0.68,-6.49 -4.51,-40.68 -5.09,-42.18 -0.44,-0.72 -4.3,-5.83 -6.28,-8.42 a 0.5,0.5 0 1 1 0.79,-0.61 c 0.24,0.31 5.76,7.55 6.36,8.56 0.72,1.19 5.17,42.13 5.22,42.54 a 64.59,64.59 0 0 1 0,9.19 0.5,0.5 0 0 1 -0.15,0.32 c -0.14,0.14 -14,14 -23,25.11 -8.58,10.63 -35.72,44 -38.5,47.45 l 12.48,19.46 c 2.66,-2.15 17,-13.81 27.43,-23.76 13.21,-12.57 25.69,-25.5 32.4,-32.45 2.74,-2.84 4.25,-4.4 4.61,-4.7 1.4,-1.17 9.08,-9.45 9.62,-11.58 0.31,-1.26 2.28,-11.39 4.36,-22.12 1.84,-9.44 3.74,-19.21 4.75,-24.18 2,-9.71 4.65,-34.86 5.08,-39 L 93,283.75 a 0.5,0.5 0 0 1 -0.52,-0.48 0.52,0.52 0 0 1 0.49,-0.52 l 54.41,-1.38 a 0.46,0.46 0 0 1 0.38,0.16 0.47,0.47 0 0 1 0.13,0.39 c 0,0.29 -3,29 -5.15,39.62 -1,5 -2.91,14.73 -4.74,24.17 -2.09,10.74 -4.06,20.89 -4.39,22.17 -0.65,2.61 -9,11.31 -9.94,12.11 -0.32,0.26 -2.09,2.09 -4.53,4.62 -6.71,7 -19.21,19.9 -32.43,32.49 -11.53,11 -27.76,24 -27.93,24.16 a 0.44,0.44 0 0 1 -0.23,0.15 z m 48.76,-93.62 z" />
    <path
       id="path136"
       style="fill:#a61c3c"
       d="m 108.21,147 c 0,0 -9.62,5.07 -14.69,7.54 -5.07,2.47 -22,7.55 -23.68,10.28 -1.68,2.73 -1.43,7 -1.43,7 0,0 -16.6,45.7 -17,53.67 -0.4,7.97 1.22,53.32 1.22,53.32 0,0 1.23,1.83 7.77,1.63 6.54,-0.2 9.19,-1.43 9.19,-1.43 0,0 3.27,-45.76 3.88,-48.42 a 28.73,28.73 0 0 1 1.64,-4.9 l 7.14,-14.3 c 0,0 2.46,14.71 2.46,15.32 0,0.61 -13.49,55.77 -13.49,55.77 0,0 0,3.68 23.9,7 23.9,3.32 44.74,5.31 45.76,5.31 1.02,0 6.54,-9.19 6.54,-9.19 0,0 1.43,5.1 1,5.72 -0.43,0.62 4.09,-1 5.11,-1.84 l 4.08,-3.27 c 0,0 -6.33,-35.14 -6.33,-37.79 0,-2.65 1.64,-12.26 1.64,-12.26 l 23.69,43.31 c 0,0 0,0.61 5.72,-2.66 a 35.92,35.92 0 0 0 8.58,-6.53 l -19.2,-47.19 c 0,0 -4.49,-52.1 -4.9,-54.75 -0.41,-2.65 0.61,-3.27 -1.84,-4.5 -2.45,-1.23 -13.71,-3.55 -13.71,-3.55 0,0 -18.54,-7.1 -25.5,-9.23 C 118.8,148.93 108.21,147 108.21,147 Z" />
    <path
       id="path138"
       style="fill:#263238"
       d="m 140.87,295.29 c -1.19,0 -22.57,-2.14 -45.82,-5.32 -23.25,-3.18 -24.34,-6.75 -24.34,-7.44 a 0.5,0.5 0 0 1 0,-0.12 c 4.59,-18.79 13.32,-54.63 13.47,-55.69 0,-0.46 -1.24,-7.95 -2.2,-13.68 L 75.54,226 A 28.89,28.89 0 0 0 74,230.76 c -0.6,2.58 -3.84,47.88 -3.87,48.33 a 0.49,0.49 0 0 1 -0.29,0.42 c -0.11,0.06 -2.82,1.27 -9.39,1.48 -6.57,0.21 -8,-1.65 -8.19,-1.86 a 0.54,0.54 0 0 1 -0.09,-0.26 c 0,-0.45 -1.63,-45.46 -1.22,-53.36 0.41,-7.9 15.95,-50.8 17,-53.71 0,-0.71 -0.12,-4.59 1.51,-7.22 1.1,-1.78 7.09,-4.08 15.42,-7.14 3.45,-1.27 6.71,-2.47 8.46,-3.32 5,-2.44 14.58,-7.48 14.68,-7.54 a 0.45,0.45 0 0 1 0.32,0 c 0.11,0 10.71,1.93 17.62,4 6.91,2.07 25.34,9.18 25.53,9.25 0.38,0.07 11.27,2.33 13.75,3.57 1.92,1 2,1.71 2,3.07 a 11.24,11.24 0 0 0 0.11,1.79 c 0.4,2.62 4.64,51.69 4.9,54.71 l 19.18,47.12 a 0.5,0.5 0 0 1 -0.09,0.51 36,36 0 0 1 -8.71,6.65 c -5.45,3.11 -5.92,2.84 -6.2,2.68 a 0.61,0.61 0 0 1 -0.2,-0.22 v 0 l -23,-42 c -0.45,2.77 -1.39,8.77 -1.39,10.75 0,1.98 4.14,25.56 6.33,37.7 a 0.52,0.52 0 0 1 -0.18,0.48 l -4.09,3.27 c -0.59,0.47 -5,2.58 -5.77,1.92 A 0.57,0.57 0 0 1 148,291 a 19.79,19.79 0 0 0 -0.79,-4.18 c -3.38,5.64 -5.52,8.47 -6.34,8.47 z M 71.72,282.55 c 0.15,0.28 2.19,3.52 23.46,6.43 24.11,3.3 44.77,5.31 45.69,5.31 0.61,-0.3 3.62,-4.79 6.11,-9 a 0.51,0.51 0 0 1 0.5,-0.24 0.49,0.49 0 0 1 0.41,0.36 24.19,24.19 0 0 1 1.1,5.42 17.62,17.62 0 0 0 4.24,-1.79 l 3.85,-3.09 c -0.65,-3.62 -6.29,-35 -6.29,-37.58 0,-2.58 1.58,-11.95 1.64,-12.34 a 0.5,0.5 0 0 1 0.41,-0.41 0.48,0.48 0 0 1 0.52,0.25 L 176.92,279 a 29.73,29.73 0 0 0 5.17,-2.6 37.51,37.51 0 0 0 8.25,-6.21 l -19.08,-46.9 a 0.57,0.57 0 0 1 0,-0.14 c 0,-0.52 -4.5,-52.11 -4.9,-54.71 a 12.58,12.58 0 0 1 -0.12,-2 c 0,-1.14 0,-1.44 -1.44,-2.17 -2.37,-1.18 -13.48,-3.48 -13.59,-3.51 -0.27,-0.09 -18.68,-7.14 -25.54,-9.24 -6.38,-1.95 -15.95,-3.74 -17.34,-4 -1.25,0.66 -9.88,5.19 -14.56,7.47 -1.79,0.88 -5.07,2.08 -8.55,3.36 -5.87,2.15 -13.9,5.1 -14.91,6.73 -1.59,2.57 -1.36,6.69 -1.36,6.73 a 0.64,0.64 0 0 1 0,0.2 c -0.16,0.46 -16.58,45.72 -17,53.52 -0.39,7.6 1.11,49.95 1.22,53.1 0.35,0.31 2,1.5 7.25,1.33 a 29.51,29.51 0 0 0 8.73,-1.28 c 0.32,-4.38 3.28,-45.6 3.87,-48.18 a 29.58,29.58 0 0 1 1.67,-5 l 7.16,-14.32 a 0.5,0.5 0 0 1 0.52,-0.27 0.51,0.51 0 0 1 0.42,0.41 c 0.41,2.46 2.46,14.78 2.46,15.4 0,0.62 -10.33,42.76 -13.53,55.83 z" />
    <polygon
       id="polygon140"
       style="fill:#263238"
       points="78.36,218.39 82.25,211.44 75.5,175.28 " />
    <path
       id="path142"
       style="fill:#263238"
       d="m 78.36,218.89 h -0.11 a 0.52,0.52 0 0 1 -0.39,-0.46 L 75,175.32 a 0.51,0.51 0 0 1 0.44,-0.53 0.51,0.51 0 0 1 0.56,0.4 l 6.74,36.16 a 0.51,0.51 0 0 1 -0.06,0.34 l -3.88,6.94 a 0.51,0.51 0 0 1 -0.44,0.26 z m -1.8,-35.2 2.19,33 3,-5.31 z" />
    <path
       id="path144"
       style="fill:#263238"
       d="m 116.56,201.32 a 0.49,0.49 0 0 1 -0.38,-0.18 23.18,23.18 0 0 1 -2.78,-4.2 0.5,0.5 0 0 1 0.88,-0.46 22.43,22.43 0 0 0 2.66,4 0.49,0.49 0 0 1 0,0.7 0.52,0.52 0 0 1 -0.38,0.14 z" />
    <path
       id="path146"
       style="fill:#263238"
       d="m 112.88,195.21 a 0.5,0.5 0 0 1 -0.46,-0.3 c -4.67,-10.55 -5.14,-25.39 -5.14,-25.54 a 0.5,0.5 0 0 1 0.49,-0.51 0.52,0.52 0 0 1 0.51,0.49 c 0,0.14 0.47,14.78 5,25.16 a 0.49,0.49 0 0 1 -0.25,0.66 0.51,0.51 0 0 1 -0.15,0.04 z" />
    <path
       id="path148"
       style="fill:#263238"
       d="m 109.82,194.58 a 0.5,0.5 0 0 1 -0.43,-0.25 51.29,51.29 0 0 1 -5.16,-13 0.5,0.5 0 0 1 0.38,-0.6 0.49,0.49 0 0 1 0.59,0.38 50.29,50.29 0 0 0 5.06,12.73 0.51,0.51 0 0 1 -0.19,0.68 0.45,0.45 0 0 1 -0.25,0.06 z" />
    <path
       id="path150"
       style="fill:#263238"
       d="m 104.87,243.05 a 0.52,0.52 0 0 1 -0.49,-0.38 0.51,0.51 0 0 1 0.37,-0.61 c 7.93,-2 18.08,-4.46 23.6,-5.65 -2.57,0.12 -6.16,0.38 -9.5,0.66 a 0.50159745,0.50159745 0 1 1 -0.08,-1 c 13.64,-1.15 13.7,-0.71 13.78,-0.16 0.08,0.55 -0.41,0.75 -2.4,1.15 -4.9,1 -16.39,3.79 -25.16,6 z" />
    <path
       id="path152"
       style="fill:#263238"
       d="m 95.32,245.44 a 0.50358713,0.50358713 0 0 1 -0.12,-1 l 4.31,-1.09 a 0.5,0.5 0 0 1 0.6,0.37 0.49,0.49 0 0 1 -0.36,0.6 l -4.31,1.09 z" />
    <path
       id="path154"
       style="fill:#263238"
       d="m 152.93,236.16 c 0,0 -4.7,-7.76 -5.11,-9.6 -0.41,-1.84 -3.68,-21.86 -3.68,-21.86 0,0 2.25,31.87 3.07,36.16 a 16.44,16.44 0 0 0 4.08,7.56 z" />
    <path
       id="path156"
       style="fill:#263238"
       d="m 151.29,248.92 a 0.47,0.47 0 0 1 -0.35,-0.15 16.79,16.79 0 0 1 -4.22,-7.82 c -0.82,-4.27 -3,-34.91 -3.08,-36.21 a 0.50358713,0.50358713 0 0 1 1,-0.12 c 0,0.2 3.27,20 3.67,21.83 0.32,1.44 3.75,7.31 5,9.45 a 0.48,0.48 0 0 1 0.07,0.33 l -1.63,12.25 a 0.51,0.51 0 0 1 -0.34,0.41 0.41,0.41 0 0 1 -0.12,0.03 z m -5.84,-33.18 c 0.73,9.64 1.76,22.45 2.25,25 a 15.27,15.27 0 0 0 3.24,6.49 l 1.47,-11 c -0.68,-1.13 -4.68,-7.83 -5.08,-9.6 -0.2,-0.85 -1.04,-5.88 -1.88,-10.89 z" />
    <path
       id="path158"
       style="fill:#263238"
       d="m 142.92,200.71 a 0.5,0.5 0 0 1 -0.49,-0.39 c 0,0 -0.39,-1.69 -0.83,-4.24 a 0.50717354,0.50717354 0 1 1 1,-0.17 c 0.44,2.52 0.82,4.17 0.82,4.18 a 0.49,0.49 0 0 1 -0.37,0.6 z" />
    <path
       id="path160"
       style="fill:#263238"
       d="m 141.61,193.48 a 0.51,0.51 0 0 1 -0.5,-0.43 70.31,70.31 0 0 1 -0.73,-16.18 c 1,-10.24 9.27,-12.47 9.36,-12.49 a 0.5,0.5 0 0 1 0.61,0.36 0.51,0.51 0 0 1 -0.36,0.61 c -0.31,0.08 -7.65,2.09 -8.62,11.62 a 70,70 0 0 0 0.73,15.94 0.51,0.51 0 0 1 -0.42,0.57 z" />
    <path
       id="path162"
       style="fill:#263238"
       d="M 140.46,191.31 A 0.51,0.51 0 0 1 140,191 a 68,68 0 0 1 -2.06,-14.43 0.5,0.5 0 0 1 1,0 67.17,67.17 0 0 0 2,14.17 0.49,0.49 0 0 1 -0.34,0.62 z" />
    <path
       id="path164"
       style="fill:#969696"
       d="m 214.57,282.66 c 0,0 -40.32,21.09 -41.57,22.62 -1.25,1.53 -0.46,4 -0.15,5.08 0.31,1.08 10,40.63 11.23,41.24 1.23,0.61 5.08,-1.38 5.08,-1.38 0,0 4.31,2.61 5.38,2.15 1.07,-0.46 37.55,-23.08 39.55,-24.93 2,-1.85 1.85,-3.23 1.23,-4.61 -0.62,-1.38 -10,-22.47 -10,-22.47 a 3.76,3.76 0 0 0 0.46,-3.08 c -0.61,-1.38 -5.69,-11.54 -6.77,-13.08 -1.08,-1.54 -0.44,-3.2 -4.44,-1.54 z" />
    <path
       id="path166"
       style="fill:#263238"
       d="m 194.27,352.92 c -1.35,0 -3.82,-1.36 -5.11,-2.13 -1,0.52 -4,1.89 -5.28,1.26 -0.63,-0.32 -2,-3.55 -10.72,-38.47 -0.44,-1.78 -0.73,-2.91 -0.77,-3.08 v -0.12 c -0.35,-1.21 -1.07,-3.72 0.28,-5.41 1.35,-1.69 37.57,-20.59 41.71,-22.75 v 0 c 3.07,-1.29 3.86,-0.83 4.58,0.78 a 5.29,5.29 0 0 0 0.49,0.94 c 1.11,1.58 6.19,11.75 6.82,13.16 a 4,4 0 0 1 -0.36,3.31 l 9.9,22.23 c 0.61,1.38 0.93,3.08 -1.35,5.19 -2,1.82 -38.27,24.41 -39.69,25 a 1.26,1.26 0 0 1 -0.5,0.09 z m -5.09,-3.2 a 0.48,0.48 0 0 1 0.26,0.07 c 2.18,1.32 4.48,2.32 4.93,2.12 1.48,-0.67 37.6,-23.17 39.4,-24.83 1.8,-1.66 1.62,-2.92 1.11,-4.05 -0.61,-1.39 -10,-22.47 -10,-22.47 a 0.49,0.49 0 0 1 0,-0.47 3.28,3.28 0 0 0 0.42,-2.6 c -0.61,-1.38 -5.67,-11.5 -6.72,-13 a 6,6 0 0 1 -0.59,-1.1 c -0.42,-0.95 -0.61,-1.39 -3.25,-0.27 -16.05,8.39 -40.29,21.29 -41.37,22.48 -1.08,1.19 -0.4,3.46 -0.1,4.5 v 0.12 c 0.05,0.18 0.33,1.32 0.78,3.11 6,23.85 9.42,36.58 10.26,37.85 0.7,0.23 2.87,-0.53 4.56,-1.41 a 0.46,0.46 0 0 1 0.31,-0.05 z" />
    <path
       id="path168"
       style="fill:#263238"
       d="m 172.87,310.36 c 0.3,1.08 10,40.63 11.23,41.24 1.23,0.61 5.08,-1.38 5.08,-1.38 0,0 4.09,2.48 5.29,2.17 -3,-7.9 -14.65,-38.89 -16.68,-44 -1.72,-4.36 -3.53,-3.93 -4.34,-3.43 l -0.33,0.26 h -0.05 v 0 c -1.28,1.6 -0.51,4.06 -0.2,5.14 z" />
    <path
       id="path170"
       style="fill:#263238"
       d="m 194.26,352.91 c -1.37,0 -4,-1.46 -5.1,-2.12 -1,0.52 -4,1.89 -5.28,1.26 -0.63,-0.32 -2,-3.55 -10.72,-38.47 -0.44,-1.78 -0.73,-2.91 -0.77,-3.08 v -0.12 c -0.35,-1.21 -1.07,-3.72 0.28,-5.41 l 0.08,-0.09 0.08,-0.07 c 0.09,-0.08 0.22,-0.17 0.38,-0.29 a 2.32,2.32 0 0 1 2,-0.27 c 1.16,0.38 2.2,1.7 3.08,3.93 1.24,3.14 6.06,15.93 10.32,27.22 2.71,7.18 5.18,13.74 6.36,16.81 a 0.52,0.52 0 0 1 -0.35,0.67 1.69,1.69 0 0 1 -0.36,0.03 z m -5.08,-3.19 a 0.48,0.48 0 0 1 0.26,0.07 20.38,20.38 0 0 0 4.28,2 c -1.25,-3.3 -3.57,-9.43 -6.08,-16.09 -4.25,-11.28 -9.08,-24.07 -10.31,-27.21 -1,-2.41 -1.87,-3.15 -2.46,-3.35 a 1.33,1.33 0 0 0 -1.15,0.17 1.7,1.7 0 0 0 -0.27,0.21 c -1.06,1.31 -0.44,3.49 -0.14,4.53 v 0.12 c 0.05,0.18 0.33,1.32 0.78,3.11 6,23.85 9.42,36.58 10.26,37.85 0.7,0.23 2.87,-0.53 4.56,-1.41 a 0.46,0.46 0 0 1 0.27,0 z" />
    <path
       id="path172"
       style="fill:#263238"
       d="m 185.18,326.71 a 0.5,0.5 0 0 1 -0.27,-0.92 l 39.24,-24.62 a 0.49,0.49 0 0 1 0.69,0.16 0.48,0.48 0 0 1 -0.16,0.68 l -39.24,24.62 a 0.42,0.42 0 0 1 -0.26,0.08 z" />
    <polygon
       id="polygon174"
       style="fill:#ffffff"
       points="210.1,314.52 207.49,310.05 203.33,312.67 206.1,317.44 " />
    <path
       id="path176"
       style="fill:#263238"
       d="M 206.1,317.94 H 206 a 0.51,0.51 0 0 1 -0.33,-0.24 l -2.77,-4.77 a 0.5,0.5 0 0 1 0.17,-0.67 l 4.15,-2.62 a 0.54,0.54 0 0 1 0.39,-0.06 0.48,0.48 0 0 1 0.31,0.23 l 2.62,4.46 a 0.5,0.5 0 0 1 -0.14,0.66 l -4,2.92 a 0.47,0.47 0 0 1 -0.3,0.09 z m -2.09,-5.1 2.25,3.87 3.19,-2.33 -2.13,-3.63 z" />
  </g>
</svg>
