<?xml version="1.0" encoding="UTF-8" standalone="no"?>
<svg
   viewBox="0 0 377.37637 338.0047"
   version="1.1"
   id="svg199"
   sodipodi:docname="Mailbox-bro.svg"
   width="377.37637"
   height="338.0047"
   inkscape:version="1.1 (c68e22c387, 2021-05-23)"
   xmlns:inkscape="http://www.inkscape.org/namespaces/inkscape"
   xmlns:sodipodi="http://sodipodi.sourceforge.net/DTD/sodipodi-0.dtd"
   xmlns="http://www.w3.org/2000/svg"
   xmlns:svg="http://www.w3.org/2000/svg">
  <defs
     id="defs203" />
  <sodipodi:namedview
     id="namedview201"
     pagecolor="#ffffff"
     bordercolor="#666666"
     borderopacity="1.0"
     inkscape:pageshadow="2"
     inkscape:pageopacity="0.0"
     inkscape:pagecheckerboard="0"
     showgrid="false"
     inkscape:zoom="1.244"
     inkscape:cx="183.68167"
     inkscape:cy="173.63344"
     inkscape:window-width="1368"
     inkscape:window-height="850"
     inkscape:window-x="-6"
     inkscape:window-y="-6"
     inkscape:window-maximized="1"
     inkscape:current-layer="svg199" />
  <!--Mailbox-->
  <g
     id="freepik--Clouds--inject-1--inject-293"
     transform="translate(-66.123633,-76.055289)">
    <path
       d="m 391.65,114.17 c -6.35,-3.47 -9.23,-0.58 -11.54,-3.47 -2.31,-2.89 6.35,-10.39 -11,-17.89 0,0 -1.15,-16.16 -24.82,-16.74 -23.67,-0.58 -17.29,16.16 -23.64,20.2 -6.35,4.04 -8.08,-2.27 -14.43,1.73 -6.35,4 -3.46,12.12 -8.65,13.27 -5.19,1.15 -12.13,-5.19 -18.48,-1.15 -6.35,4.04 -6.35,7.5 -9.23,7.5 -2.88,0 -8.66,-2.31 -12.12,0 -3.46,2.31 -7.51,5.2 -7.51,5.2 h 146 c 0,0 1.77,-5.19 -4.58,-8.65 z"
       style="fill:#a61c3c"
       id="path2" />
    <path
       d="m 391.65,114.17 c -6.35,-3.47 -9.23,-0.58 -11.54,-3.47 -2.31,-2.89 6.35,-10.39 -11,-17.89 0,0 -1.15,-16.16 -24.82,-16.74 -23.67,-0.58 -17.29,16.16 -23.64,20.2 -6.35,4.04 -8.08,-2.27 -14.43,1.73 -6.35,4 -3.46,12.12 -8.65,13.27 -5.19,1.15 -12.13,-5.19 -18.48,-1.15 -6.35,4.04 -6.35,7.5 -9.23,7.5 -2.88,0 -8.66,-2.31 -12.12,0 -3.46,2.31 -7.51,5.2 -7.51,5.2 h 146 c 0,0 1.77,-5.19 -4.58,-8.65 z"
       style="opacity:0.5;fill:#ffffff"
       id="path4" />
    <path
       d="m 226.08,243.9 c -4.46,-2.43 -6.49,-0.41 -8.11,-2.43 -1.62,-2.02 4.46,-7.3 -7.7,-12.57 0,0 -0.81,-11.35 -17.44,-11.76 -16.63,-0.41 -12.16,11.35 -16.62,14.19 -4.46,2.84 -5.67,-1.62 -10.13,1.22 -4.46,2.84 -2.44,8.51 -6.08,9.32 -3.64,0.81 -8.52,-3.65 -13,-0.81 -4.48,2.84 -4.46,5.27 -6.48,5.27 -2.02,0 -6.09,-1.62 -8.52,0 -2.43,1.62 -5.27,3.65 -5.27,3.65 h 102.59 c 0,0 1.22,-3.65 -3.24,-6.08 z"
       style="fill:#ffffff"
       id="path6" />
    <path
       d="m 226.08,243.9 c -4.46,-2.43 -6.49,-0.41 -8.11,-2.43 -1.62,-2.02 4.46,-7.3 -7.7,-12.57 0,0 -0.81,-11.35 -17.44,-11.76 -16.63,-0.41 -12.16,11.35 -16.62,14.19 -4.46,2.84 -5.67,-1.62 -10.13,1.22 -4.46,2.84 -2.44,8.51 -6.08,9.32 -3.64,0.81 -8.52,-3.65 -13,-0.81 -4.48,2.84 -4.46,5.27 -6.48,5.27 -2.02,0 -6.09,-1.62 -8.52,0 -2.43,1.62 -5.27,3.65 -5.27,3.65 h 102.59 c 0,0 1.22,-3.65 -3.24,-6.08 z"
       style="opacity:0.5;fill:#ffffff"
       id="path8" />
  </g>
  <g
     id="freepik--Plants--inject-1--inject-293"
     transform="translate(-66.123633,-76.055289)">
    <path
       d="m 352.87,412.87 h 63.2 c -1.21,-7.73 -6.18,-6.37 -6.84,-18.35 -0.33,-6 5.26,-13.5 4.77,-21.42 -0.4,-6.53 -6.83,-13.22 -7.33,-20.69 -0.45,-6.74 5,-14.22 4.51,-21.48 -0.51,-6.86 -7,-13.45 -7.61,-20.59 -0.56,-7 4.82,-14.51 4.18,-21.55 -0.64,-7.04 -7.27,-13.51 -8,-20.45 -0.73,-7.13 4.48,-14.81 3.68,-21.63 -0.84,-7.25 -7.68,-13.51 -8.61,-20.19 -1,-7.43 3.81,-15.37 2.68,-21.79 -1.39,-7.86 -8.71,-13.55 -10.25,-19.35 -2.87,-10.81 -2.51,-21.22 -5.9,-21.9 -3.61,-0.72 -4.44,9.49 -7.18,20.9 -1.38,5.73 -8.53,11.54 -9.71,19.41 -0.95,6.37 4.11,14.12 3.28,21.52 -0.74,6.63 -7.41,13 -8.06,20.21 -0.61,6.78 4.8,14.25 4.27,21.34 -0.52,6.89 -7,13.46 -7.43,20.46 -0.43,7 5.13,14.32 4.75,21.23 -0.39,7.08 -6.74,13.77 -7.07,20.58 -0.34,7.21 5.35,14.48 5.07,21.16 -0.31,7.41 -6.57,14.19 -6.8,20.67 -0.28,7.86 5.49,15.11 5.31,21.1 -0.38,13 -6.33,10.29 -6.54,20.75 z"
       style="fill:#a61c3c"
       id="path11" />
    <line
       x1="380"
       y1="184.25"
       x2="380"
       y2="409.95001"
       style="fill:none;stroke:#000000;stroke-miterlimit:10"
       id="line13" />
    <polyline
       points="389.87 207.91 379.58 216.8 371.16 205.57"
       style="fill:none;stroke:#000000;stroke-miterlimit:10"
       id="polyline15" />
    <polyline
       points="389.87 247.2 379.58 256.08 371.16 244.86"
       style="fill:none;stroke:#000000;stroke-miterlimit:10"
       id="polyline17" />
    <polyline
       points="389.87 284.14 379.58 293.03 371.16 281.8"
       style="fill:none;stroke:#000000;stroke-miterlimit:10"
       id="polyline19" />
    <polyline
       points="389.87 328.11 379.58 336.99 371.16 325.77"
       style="fill:none;stroke:#000000;stroke-miterlimit:10"
       id="polyline21" />
    <polyline
       points="389.87 372.54 379.58 381.42 371.16 370.2"
       style="fill:none;stroke:#000000;stroke-miterlimit:10"
       id="polyline23" />
    <path
       d="m 309.82,412.87 h 48.79 c -0.94,-6 -4.77,-4.92 -5.28,-14.16 -0.26,-4.66 4.05,-10.42 3.68,-16.54 -0.31,-5 -5.27,-10.21 -5.66,-16 -0.35,-5.2 3.89,-11 3.48,-16.58 -0.39,-5.3 -5.42,-10.38 -5.87,-15.89 -0.45,-5.51 3.72,-11.21 3.23,-16.64 -0.49,-5.43 -5.62,-10.43 -6.16,-15.78 -0.56,-5.51 3.46,-11.43 2.84,-16.71 -0.65,-5.59 -5.93,-10.42 -6.64,-15.57 -0.8,-5.74 2.94,-11.87 2.06,-16.82 -1.07,-6.07 -6.72,-10.47 -7.9,-14.94 -2.22,-8.34 -1.94,-16.39 -4.56,-16.91 -2.79,-0.56 -3.43,7.32 -5.54,16.14 -1.06,4.42 -6.59,8.91 -7.5,15 -0.73,4.92 3.17,10.9 2.53,16.61 -0.57,5.12 -5.71,10 -6.22,15.6 -0.47,5.23 3.71,11 3.3,16.47 -0.4,5.32 -5.39,10.39 -5.74,15.79 -0.35,5.4 4,11.06 3.67,16.39 -0.33,5.33 -5.2,10.63 -5.45,15.89 -0.27,5.56 4.12,11.17 3.91,16.33 -0.24,5.72 -5.07,11 -5.25,16 -0.22,6.06 4.24,11.67 4.1,16.28 -0.3,10 -4.89,7.95 -5.05,16 z"
       style="fill:#a61c3c"
       id="path25" />
    <line
       x1="330.76999"
       y1="236.39999"
       x2="330.76999"
       y2="410.62"
       style="fill:none;stroke:#000000;stroke-miterlimit:10"
       id="line27" />
    <polyline
       points="338.38 254.66 330.44 261.52 323.94 252.85"
       style="fill:none;stroke:#000000;stroke-miterlimit:10"
       id="polyline29" />
    <polyline
       points="338.38 284.98 330.44 291.84 323.94 283.18"
       style="fill:none;stroke:#000000;stroke-miterlimit:10"
       id="polyline31" />
    <polyline
       points="338.38 313.5 330.44 320.36 323.94 311.7"
       style="fill:none;stroke:#000000;stroke-miterlimit:10"
       id="polyline33" />
    <polyline
       points="338.38 347.44 330.44 354.3 323.94 345.63"
       style="fill:none;stroke:#000000;stroke-miterlimit:10"
       id="polyline35" />
    <polyline
       points="338.38 381.74 330.44 388.59 323.94 379.93"
       style="fill:none;stroke:#000000;stroke-miterlimit:10"
       id="polyline37" />
  </g>
  <g
     id="freepik--Mailbox--inject-1--inject-293"
     transform="translate(-66.123633,-76.055289)">
    <polyline
       points="266.33 412.4 266.33 210.22 277 210.22 277 412.4"
       style="fill:#2e353a;stroke:#2e353a;stroke-linecap:round;stroke-linejoin:round"
       id="polyline40" />
    <polyline
       points="261 412.4 261 210.22 271.67 210.22 271.67 412.4"
       style="fill:#a61c3c;stroke:#2e353a;stroke-linecap:round;stroke-linejoin:round"
       id="polyline42" />
    <rect
       x="261"
       y="210.22"
       width="10.67"
       height="24"
       style="opacity:0.3;mix-blend-mode:multiply;fill:#2e353a"
       id="rect44" />
    <path
       d="m 306.53,131.29 h -79.06 l 34.46,84.64 H 341 v -50.18 a 34.46,34.46 0 0 0 -34.47,-34.46 z"
       style="fill:#a61c3c;stroke:#2e353a;stroke-linecap:round;stroke-linejoin:round"
       id="path46" />
    <path
       d="m 255.9,201.11 6,14.82 H 341 v -50.18 c 0,-0.76 0,-1.52 -0.08,-2.27 h -85 z"
       style="opacity:0.3;mix-blend-mode:multiply"
       id="path48" />
    <line
       x1="305.95001"
       y1="163.48"
       x2="297.63"
       y2="163.48"
       style="fill:none;stroke:#2e353a;stroke-linecap:round;stroke-linejoin:round"
       id="line50" />
    <line
       x1="340.92001"
       y1="163.48"
       x2="315.73999"
       y2="163.48"
       style="fill:none;stroke:#2e353a;stroke-linecap:round;stroke-linejoin:round"
       id="line52" />
    <path
       d="m 227.47,131.29 v 0 a 34.47,34.47 0 0 1 34.47,34.47 v 50.18 H 193 v -50.19 a 34.47,34.47 0 0 1 34.47,-34.46 z"
       style="fill:#2e353a;stroke:#2e353a;stroke-linecap:round;stroke-linejoin:round"
       id="path54" />
    <rect
       x="202.53"
       y="210.22"
       width="59.400002"
       height="5.71"
       style="fill:#a61c3c;stroke:#2e353a;stroke-linecap:round;stroke-linejoin:round"
       id="rect56" />
    <rect
       x="139"
       y="210.22"
       width="122.93"
       height="5.71"
       style="fill:#a61c3c;stroke:#2e353a;stroke-linecap:round;stroke-linejoin:round"
       id="rect58" />
    <rect
       x="202.53"
       y="210.22"
       width="59.400002"
       height="5.71"
       style="opacity:0.3"
       id="rect60" />
    <rect
       x="287"
       y="110.89"
       width="24.67"
       height="17.33"
       style="fill:#2e353a;stroke:#2e353a;stroke-linecap:round;stroke-linejoin:round"
       id="rect62" />
    <rect
       x="283.67001"
       y="110.89"
       width="5.3299999"
       height="54"
       style="fill:#ffffff;stroke:#2e353a;stroke-linecap:round;stroke-linejoin:round"
       id="rect64" />
    <circle
       cx="286.32999"
       cy="166.22"
       r="6"
       style="fill:#2e353a;stroke:#2e353a;stroke-linecap:round;stroke-linejoin:round"
       id="circle66" />
  </g>
  <g
     id="freepik--paper-planes--inject-1--inject-293"
     transform="translate(-66.123633,-76.055289)">
    <path
       d="m 198.34,145.15 c 13.92,7.07 38.12,18.4 60.44,24.1"
       style="fill:none;stroke:#ffffff;stroke-linecap:round;stroke-linejoin:round;stroke-dasharray:2, 4"
       id="path69" />
    <path
       d="m 186.66,139 c 0,0 4.46,2.52 11.68,6.19"
       style="fill:none;stroke:#2e353a;stroke-linecap:round;stroke-linejoin:round;stroke-dasharray:2, 4"
       id="path71" />
    <polygon
       points="119.07,97.14 181.65,138.63 191.66,114.85 "
       style="fill:#ffffff;stroke:#2e353a;stroke-width:1.2629px;stroke-linecap:round;stroke-linejoin:round"
       id="polygon73" />
    <polygon
       points="119.07,97.14 186.53,117.73 181.65,138.63 "
       style="fill:#a61c3c;stroke:#2e353a;stroke-width:1.2629px;stroke-linecap:round;stroke-linejoin:round"
       id="polygon75" />
    <polygon
       points="119.07,97.14 186.53,117.73 175.14,127.49 "
       style="fill:#ffffff;stroke:#2e353a;stroke-width:1.2629px;stroke-linecap:round;stroke-linejoin:round"
       id="polygon77" />
    <polygon
       points="119.07,97.14 191.66,114.85 201.8,110.73 "
       style="fill:#ffffff;stroke:#2e353a;stroke-width:1.2629px;stroke-linecap:round;stroke-linejoin:round"
       id="polygon79" />
    <line
       x1="167.55"
       y1="134.92999"
       x2="169.89999"
       y2="136.37"
       style="fill:none;stroke:#2e353a;stroke-linecap:round;stroke-linejoin:round"
       id="line81" />
    <line
       x1="154.73"
       y1="127.07"
       x2="162.60001"
       y2="131.89"
       style="fill:none;stroke:#2e353a;stroke-linecap:round;stroke-linejoin:round"
       id="line83" />
    <polygon
       points="219.67,170.22 145.89,184.15 145.89,158.36 "
       style="fill:#ffffff;stroke:#2e353a;stroke-width:1.2629px;stroke-linecap:round;stroke-linejoin:round"
       id="polygon85" />
    <polygon
       points="219.67,170.22 149.5,163 145.89,184.15 "
       style="fill:#a61c3c;stroke:#2e353a;stroke-width:1.2629px;stroke-linecap:round;stroke-linejoin:round"
       id="polygon87" />
    <polygon
       points="219.67,170.22 149.5,163 156.21,176.41 "
       style="fill:#ffffff;stroke:#2e353a;stroke-width:1.2629px;stroke-linecap:round;stroke-linejoin:round"
       id="polygon89" />
    <polygon
       points="219.67,170.22 145.89,158.36 138.15,150.62 "
       style="fill:#ffffff;stroke:#2e353a;stroke-width:1.2629px;stroke-linecap:round;stroke-linejoin:round"
       id="polygon91" />
    <line
       x1="172.31"
       y1="183.67"
       x2="178.71001"
       y2="182.37"
       style="fill:none;stroke:#2e353a;stroke-linecap:round;stroke-linejoin:round"
       id="line93" />
    <line
       x1="149.83"
       y1="188.24001"
       x2="165.92"
       y2="184.97"
       style="fill:none;stroke:#2e353a;stroke-linecap:round;stroke-linejoin:round"
       id="line95" />
    <path
       d="m 137,182.56 c 0,0 -58,10 -69,62 -11,52 47,55 57,30 10,-25 -34,-35 -44,-11 -10,24 20,65 61,67 34.07,1.66 129.59,-38.11 189,-48.16 0,0 44,-12.18 112,-9.51"
       style="fill:none;stroke:#2e353a;stroke-linecap:round;stroke-linejoin:round;stroke-dasharray:2, 4"
       id="path97" />
  </g>
  <g
     id="freepik--Fence--inject-1--inject-293"
     transform="translate(-66.123633,-76.055289)">
    <line
       x1="423.32999"
       y1="345.56"
       x2="440"
       y2="345.56"
       style="fill:#ffffff;stroke:#2e353a;stroke-linecap:round;stroke-linejoin:round"
       id="line100" />
    <line
       x1="423.32999"
       y1="370.22"
       x2="440"
       y2="370.22"
       style="fill:#ffffff;stroke:#2e353a;stroke-linecap:round;stroke-linejoin:round"
       id="line102" />
    <polyline
       points="72.33 369.56 421.33 369.56 421.33 346.22 72.33 346.22"
       style="fill:#ffffff;stroke:#2e353a;stroke-linecap:round;stroke-linejoin:round"
       id="polyline104" />
    <path
       d="M 96.59,412.56 V 295.14 a 2.13,2.13 0 0 1 0.66,-1.54 l 9.12,-8.59 a 2.13,2.13 0 0 1 3,0.09 l 8,8.51 a 2.17,2.17 0 0 1 0.57,1.45 v 117.5"
       style="fill:#2e353a;stroke:#2e353a;stroke-linecap:round;stroke-linejoin:round"
       id="path106" />
    <path
       d="M 94,413.56 V 295.14 a 2.1,2.1 0 0 1 0.67,-1.54 l 9.12,-8.59 a 2.12,2.12 0 0 1 3,0.09 l 8,8.51 a 2.12,2.12 0 0 1 0.57,1.45 v 118.5"
       style="fill:#ffffff;stroke:#2e353a;stroke-linecap:round;stroke-linejoin:round"
       id="path108" />
    <path
       d="M 173.49,412.56 V 295.14 a 2.13,2.13 0 0 1 0.66,-1.54 l 9.13,-8.59 a 2.12,2.12 0 0 1 3,0.09 l 8,8.51 a 2.12,2.12 0 0 1 0.57,1.45 v 117.5"
       style="fill:#2e353a;stroke:#2e353a;stroke-linecap:round;stroke-linejoin:round"
       id="path110" />
    <path
       d="M 171.33,413.56 V 295.14 A 2.1,2.1 0 0 1 172,293.6 l 9.12,-8.59 a 2.13,2.13 0 0 1 3,0.09 l 8,8.51 a 2.13,2.13 0 0 1 0.58,1.45 v 118.5"
       style="fill:#ffffff;stroke:#2e353a;stroke-linecap:round;stroke-linejoin:round"
       id="path112" />
    <path
       d="M 250.82,412.56 V 295.14 a 2.1,2.1 0 0 1 0.67,-1.54 l 9.12,-8.59 a 2.13,2.13 0 0 1 3,0.09 l 8,8.51 a 2.13,2.13 0 0 1 0.58,1.45 v 118.5"
       style="fill:#2e353a;stroke:#2e353a;stroke-linecap:round;stroke-linejoin:round"
       id="path114" />
    <path
       d="M 248.67,413.56 V 295.14 a 2.13,2.13 0 0 1 0.66,-1.54 l 9.13,-8.59 a 2.12,2.12 0 0 1 3,0.09 l 8,8.51 a 2.12,2.12 0 0 1 0.57,1.45 v 118.5"
       style="fill:#ffffff;stroke:#2e353a;stroke-linecap:round;stroke-linejoin:round"
       id="path116" />
    <path
       d="M 328.16,412.56 V 295.14 a 2.13,2.13 0 0 1 0.66,-1.54 l 9.12,-8.59 a 2.13,2.13 0 0 1 3,0.09 l 8,8.51 a 2.17,2.17 0 0 1 0.57,1.45 v 117.5"
       style="fill:#2e353a;stroke:#2e353a;stroke-linecap:round;stroke-linejoin:round"
       id="path118" />
    <path
       d="M 326,413.56 V 295.14 a 2.1,2.1 0 0 1 0.67,-1.54 l 9.12,-8.59 a 2.12,2.12 0 0 1 3,0.09 l 8,8.51 a 2.12,2.12 0 0 1 0.57,1.45 v 118.5"
       style="fill:#ffffff;stroke:#2e353a;stroke-linecap:round;stroke-linejoin:round"
       id="path120" />
    <path
       d="M 405.49,412.56 V 295.14 a 2.13,2.13 0 0 1 0.66,-1.54 l 9.13,-8.59 a 2.12,2.12 0 0 1 3,0.09 l 8,8.51 a 2.12,2.12 0 0 1 0.57,1.45 v 117.5"
       style="fill:#2e353a;stroke:#2e353a;stroke-linecap:round;stroke-linejoin:round"
       id="path122" />
    <path
       d="M 403.33,413.56 V 295.14 A 2.1,2.1 0 0 1 404,293.6 l 9.12,-8.59 a 2.13,2.13 0 0 1 3,0.09 l 8,8.51 a 2.13,2.13 0 0 1 0.58,1.45 v 118.5"
       style="fill:#ffffff;stroke:#2e353a;stroke-linecap:round;stroke-linejoin:round"
       id="path124" />
    <line
       x1="106.78"
       y1="285.10001"
       x2="106.78"
       y2="293.66"
       style="fill:none;stroke:#2e353a;stroke-linecap:round;stroke-linejoin:round"
       id="line126" />
    <line
       x1="110.21"
       y1="289.51999"
       x2="110.21"
       y2="309.78"
       style="fill:none;stroke:#2e353a;stroke-linecap:round;stroke-linejoin:round"
       id="line128" />
    <line
       x1="175.53999"
       y1="291.17999"
       x2="175.53999"
       y2="316.81"
       style="fill:none;stroke:#2e353a;stroke-linecap:round;stroke-linejoin:round"
       id="line130" />
    <line
       x1="178.85001"
       y1="287.87"
       x2="178.85001"
       y2="299.03"
       style="fill:none;stroke:#2e353a;stroke-linecap:round;stroke-linejoin:round"
       id="line132" />
    <line
       x1="258.45999"
       y1="285.01001"
       x2="258.45999"
       y2="310.20001"
       style="fill:none;stroke:#2e353a;stroke-linecap:round;stroke-linejoin:round"
       id="line134" />
    <line
       x1="263.20999"
       y1="287.04001"
       x2="263.20999"
       y2="324.26001"
       style="fill:none;stroke:#2e353a;stroke-linecap:round;stroke-linejoin:round"
       id="line136" />
    <line
       x1="329.78"
       y1="291.17999"
       x2="329.78"
       y2="319.29001"
       style="fill:none;stroke:#2e353a;stroke-linecap:round;stroke-linejoin:round"
       id="line138" />
    <line
       x1="340.53"
       y1="287.87"
       x2="340.53"
       y2="294.89999"
       style="fill:none;stroke:#2e353a;stroke-linecap:round;stroke-linejoin:round"
       id="line140" />
    <line
       x1="410.41"
       y1="287.45001"
       x2="410.41"
       y2="302.34"
       style="fill:none;stroke:#2e353a;stroke-linecap:round;stroke-linejoin:round"
       id="line142" />
    <line
       x1="419.51001"
       y1="289.10999"
       x2="419.51001"
       y2="332.10999"
       style="fill:none;stroke:#2e353a;stroke-linecap:round;stroke-linejoin:round"
       id="line144" />
    <line
       x1="402.97"
       y1="351.95999"
       x2="393.87"
       y2="351.95999"
       style="fill:none;stroke:#2e353a;stroke-linecap:round;stroke-linejoin:round"
       id="line146" />
    <line
       x1="402.97"
       y1="358.98999"
       x2="371.13"
       y2="358.98999"
       style="fill:none;stroke:#2e353a;stroke-linecap:round;stroke-linejoin:round"
       id="line148" />
    <line
       x1="284.29001"
       y1="358.98999"
       x2="269.82001"
       y2="358.98999"
       style="fill:none;stroke:#2e353a;stroke-linecap:round;stroke-linejoin:round"
       id="line150" />
    <line
       x1="208.21001"
       y1="358.98999"
       x2="193.74001"
       y2="358.98999"
       style="fill:none;stroke:#2e353a;stroke-linecap:round;stroke-linejoin:round"
       id="line152" />
    <line
       x1="93.669998"
       y1="355.26999"
       x2="79.199997"
       y2="355.26999"
       style="fill:none;stroke:#2e353a;stroke-linecap:round;stroke-linejoin:round"
       id="line154" />
    <line
       x1="93.669998"
       y1="361.88"
       x2="87.879997"
       y2="361.88"
       style="fill:none;stroke:#2e353a;stroke-linecap:round;stroke-linejoin:round"
       id="line156" />
    <line
       x1="276.85001"
       y1="355.26999"
       x2="269.82001"
       y2="355.26999"
       style="fill:none;stroke:#2e353a;stroke-linecap:round;stroke-linejoin:round"
       id="line158" />
    <line
       x1="199.94"
       y1="363.12"
       x2="192.91"
       y2="363.12"
       style="fill:none;stroke:#2e353a;stroke-linecap:round;stroke-linejoin:round"
       id="line160" />
    <line
       x1="170.58"
       y1="363.12"
       x2="163.55"
       y2="363.12"
       style="fill:none;stroke:#2e353a;stroke-linecap:round;stroke-linejoin:round"
       id="line162" />
    <line
       x1="431.07999"
       y1="358.98999"
       x2="424.88"
       y2="358.98999"
       style="fill:none;stroke:#2e353a;stroke-linecap:round;stroke-linejoin:round"
       id="line164" />
    <line
       x1="439.35001"
       y1="358.98999"
       x2="435.63"
       y2="358.98999"
       style="fill:none;stroke:#2e353a;stroke-linecap:round;stroke-linejoin:round"
       id="line166" />
    <path
       d="m 115,316 c 0,0 -2.5,21.49 -5.5,43.48 -3,21.99 2.5,44.49 4,46.49"
       style="fill:none;stroke:#2e353a;stroke-linecap:round;stroke-linejoin:round"
       id="path168" />
    <path
       d="m 105.11,359.5 c 0.48,-4.29 0.88,-7 0.88,-7"
       style="fill:none;stroke:#2e353a;stroke-linecap:round;stroke-linejoin:round"
       id="path170" />
    <path
       d="m 112.49,403.47 c 0,0 -9,-2 -9,-18 0,-6.57 0.42,-13.3 0.92,-19"
       style="fill:none;stroke:#2e353a;stroke-linecap:round;stroke-linejoin:round"
       id="path172" />
    <path
       d="m 188,290.5 c 0,0 2,1.5 -1.5,18.5 -3.5,17 -3,42 1.5,56"
       style="fill:none;stroke:#2e353a;stroke-linecap:round;stroke-linejoin:round"
       id="path174" />
    <path
       d="m 193,322 c 0,0 -5,15 -1.5,36"
       style="fill:none;stroke:#2e353a;stroke-linecap:round;stroke-linejoin:round"
       id="path176" />
    <path
       d="m 250,331.49 c 0,0 2.5,14.5 5,29.49 2.5,14.99 0.5,36 -1.5,41.49 -2,5.49 -4,10 -4,10"
       style="fill:none;stroke:#2e353a;stroke-linecap:round;stroke-linejoin:round"
       id="path178" />
    <path
       d="m 259.42,405.12 c -2.23,6.84 -5,-1.15 -5,-1.15"
       style="fill:none;stroke:#2e353a;stroke-linecap:round;stroke-linejoin:round"
       id="path180" />
    <path
       d="m 259.33,354 c 0,0 4.71,24.31 2.05,42.61"
       style="fill:none;stroke:#2e353a;stroke-linecap:round;stroke-linejoin:round"
       id="path182" />
    <path
       d="m 249,362 c 0,0 5,10.5 0.5,20.5"
       style="fill:none;stroke:#2e353a;stroke-linecap:round;stroke-linejoin:round"
       id="path184" />
    <path
       d="m 342.3,363.48 a 68.23,68.23 0 0 0 2.63,9"
       style="fill:none;stroke:#2e353a;stroke-linecap:round;stroke-linejoin:round"
       id="path186" />
    <path
       d="m 346.43,311.5 a 138.77,138.77 0 0 0 -6,31 71.49,71.49 0 0 0 0.89,15.93"
       style="fill:none;stroke:#2e353a;stroke-linecap:round;stroke-linejoin:round"
       id="path188" />
    <path
       d="m 336.93,357.48 c 0,0 4.5,17 7,23 2.5,6 1.5,20.49 -1.5,27.49"
       style="fill:none;stroke:#2e353a;stroke-linecap:round;stroke-linejoin:round"
       id="path190" />
    <path
       d="m 404.41,319 c 0,0 10,18 0.5,47.49"
       style="fill:none;stroke:#2e353a;stroke-linecap:round;stroke-linejoin:round"
       id="path192" />
    <path
       d="m 413.6,349.74 c 0.06,5.62 -0.44,12.74 -2.69,18.74 -4.5,12 -6.5,16 -6.5,16"
       style="fill:none;stroke:#2e353a;stroke-linecap:round;stroke-linejoin:round"
       id="path194" />
    <path
       d="m 412.91,340 c 0,0 0.33,2.15 0.53,5.46"
       style="fill:none;stroke:#2e353a;stroke-linecap:round;stroke-linejoin:round"
       id="path196" />
  </g>
</svg>
