<?xml version="1.0" encoding="UTF-8" standalone="no"?>
<svg
   viewBox="0 0 459.16098 413.3526"
   version="1.1"
   id="svg270"
   sodipodi:docname="International Day of families-bro.svg"
   width="459.16098"
   height="413.3526"
   inkscape:version="1.1 (c68e22c387, 2021-05-23)"
   xmlns:inkscape="http://www.inkscape.org/namespaces/inkscape"
   xmlns:sodipodi="http://sodipodi.sourceforge.net/DTD/sodipodi-0.dtd"
   xmlns="http://www.w3.org/2000/svg"
   xmlns:svg="http://www.w3.org/2000/svg">
  <defs
     id="defs274" />
  <sodipodi:namedview
     id="namedview272"
     pagecolor="#ffffff"
     bordercolor="#666666"
     borderopacity="1.0"
     inkscape:pageshadow="2"
     inkscape:pageopacity="0.0"
     inkscape:pagecheckerboard="0"
     showgrid="false"
     inkscape:zoom="1.244"
     inkscape:cx="226.28617"
     inkscape:cy="197.7492"
     inkscape:window-width="1368"
     inkscape:window-height="850"
     inkscape:window-x="-6"
     inkscape:window-y="-6"
     inkscape:window-maximized="1"
     inkscape:current-layer="svg270" />
  <g
     id="freepik--Frame--inject-8"
     transform="translate(-23.690164,-52.27358)">
    <rect
       x="32"
       y="64"
       width="436"
       height="309"
       transform="rotate(-3,249.93579,218.44501)"
       style="fill:none;stroke:#263238;stroke-miterlimit:10"
       id="rect2" />
    <rect
       x="47"
       y="77"
       width="406"
       height="283"
       transform="rotate(-3,249.93579,218.44501)"
       style="fill:none;stroke:#263238;stroke-miterlimit:10"
       id="rect4" />
  </g>
  <g
     id="freepik--Plants--inject-8"
     transform="translate(-23.690164,-52.27358)">
    <path
       d="m 465.54,401.1 c 0,0 1.18,-2.83 1.23,-3 0.6,-2.18 0.46,-6.75 -1.66,-8.13 a 3,3 0 0 0 -4.27,1.28 c -0.82,1.58 -0.31,3.72 0.42,5.25 0.85,1.77 4.28,4.6 4.28,4.6 z"
       style="fill:#263238"
       id="path7" />
    <path
       d="m 421.1,394.43 c 1.7,1 6.12,1.48 6.12,1.48 0,0 -0.57,-3 -0.64,-3.19 -0.7,-2.15 -3.33,-5.88 -5.86,-5.86 a 3,3 0 0 0 -2.86,3.42 c 0.19,1.78 1.79,3.28 3.24,4.15 z"
       style="fill:#263238"
       id="path9" />
    <path
       d="m 421,407.39 c 1.83,0.51 5.91,-0.13 6.23,-0.18 a 52.91,52.91 0 0 0 1.55,6.9 c 0.38,1.32 0.8,2.64 1.24,4 -0.29,-0.57 -0.55,-1.08 -0.6,-1.15 -1.25,-1.88 -4.77,-4.78 -7.21,-4.1 a 3,3 0 0 0 -1.85,4.05 c 0.65,1.67 2.6,2.7 4.22,3.15 1.62,0.45 5.14,0 6.06,-0.15 0.18,0.5 0.35,1 0.52,1.51 0.85,2.41 1.71,4.82 2.48,7.2 0.27,0.84 0.51,1.68 0.75,2.52 -0.26,-0.51 -0.49,-0.94 -0.53,-1 -1.25,-1.88 -4.77,-4.78 -7.2,-4.1 a 3,3 0 0 0 -1.86,4.05 c 0.65,1.67 2.6,2.69 4.22,3.15 1.62,0.46 4.8,0 5.9,-0.13 0.22,0.87 0.44,1.73 0.61,2.58 0.11,0.58 0.25,1.13 0.32,1.72 0.07,0.59 0.17,1.16 0.26,1.73 0.12,1.11 0.25,2.25 0.34,3.33 0.06,0.75 0.12,1.47 0.17,2.19 -0.26,-0.84 -0.81,-2.47 -0.87,-2.6 -0.95,-2 -4,-5.46 -6.5,-5.15 a 3,3 0 0 0 -2.45,3.73 c 0.4,1.74 2.16,3 3.7,3.74 1.7,0.77 5.66,0.78 6.16,0.77 0.08,1.2 0.15,2.36 0.2,3.46 0.18,3.81 0.19,7 0.16,9.2 l 1.7,0.22 v -0.2 c 0,-2.25 -0.09,-5.46 -0.36,-9.3 -0.08,-1.22 -0.19,-2.51 -0.32,-3.84 a 32.09,32.09 0 0 0 3.64,-1.18 21.85,21.85 0 0 0 4.59,3.87 c -0.59,1 -1.17,2.05 -1.74,3 -1.95,3.27 -3.69,5.92 -4.94,7.76 l 1.87,0.24 c 1.17,-1.84 2.7,-4.3 4.37,-7.25 0.6,-1.06 1.23,-2.2 1.85,-3.38 0.46,0.16 4.23,1.44 6.08,1.26 1.68,-0.16 3.78,-0.83 4.71,-2.35 a 3,3 0 0 0 -1.11,-4.31 c -2.28,-1.11 -6.26,1.13 -7.82,2.76 -0.09,0.1 -1,1.26 -1.52,2 0.26,-0.49 0.51,-0.95 0.76,-1.45 0.52,-1 1,-2 1.52,-3.06 0.24,-0.53 0.47,-1.06 0.71,-1.6 0.24,-0.54 0.44,-1.12 0.67,-1.68 0.5,-1.32 0.94,-2.68 1.35,-4.06 0.87,0.45 4,2 5.65,2.09 1.65,0.09 3.86,-0.25 5,-1.62 a 3,3 0 0 0 -0.45,-4.43 c -2.08,-1.44 -6.35,0.17 -8.14,1.55 -0.12,0.09 -1.29,1.22 -1.92,1.86 0.24,-0.84 0.48,-1.66 0.7,-2.51 0.63,-2.45 1.19,-5 1.76,-7.44 0.17,-0.76 0.35,-1.52 0.53,-2.28 0.31,0.16 3.95,2.07 5.84,2.18 1.69,0.1 3.86,-0.25 5,-1.61 a 3,3 0 0 0 -0.45,-4.43 c -2.08,-1.44 -6.35,0.17 -8.15,1.55 -0.13,0.1 -1.82,1.73 -2.23,2.17 0.4,-1.67 0.81,-3.34 1.28,-5 a 53.2,53.2 0 0 1 2.3,-6.44 c 0.14,0.07 3.93,2.08 5.87,2.2 1.69,0.09 3.86,-0.25 5,-1.62 a 3,3 0 0 0 -0.45,-4.43 c -2.09,-1.44 -6.36,0.17 -8.15,1.55 -0.12,0.09 -1.4,1.33 -2,1.94 l -0.12,-0.08 a 38.08,38.08 0 0 1 3.44,-6 c 0.71,-1 1.45,-2 2.2,-2.92 0.66,0.45 3.74,2.46 5.47,2.75 1.73,0.29 3.86,0.18 5.16,-1.05 a 3,3 0 0 0 0,-4.46 c -1.92,-1.65 -6.34,-0.52 -8.27,0.65 -0.11,0.07 -1.1,0.83 -1.82,1.4 0.34,-0.41 0.69,-0.84 1,-1.22 1.25,-1.45 2.49,-2.69 3.59,-3.79 0.64,-0.62 1.22,-1.17 1.77,-1.67 0.89,0.1 4.45,0.44 6.1,-0.09 1.65,-0.53 3.51,-1.62 4.1,-3.31 a 3,3 0 0 0 -2,-4 c -2.46,-0.59 -5.87,2.45 -7,4.38 -0.1,0.17 -1.39,3 -1.34,3 h 0.05 c -0.54,0.48 -1.11,1 -1.73,1.57 -1.13,1.07 -2.4,2.3 -3.69,3.72 a 56.26,56.26 0 0 0 -3.94,4.8 39.53,39.53 0 0 0 -3.6,5.94 v 0.07 c 0.11,-0.73 0.34,-2.79 0.34,-2.95 0,-2.26 -1.34,-6.63 -3.75,-7.4 a 3,3 0 0 0 -3.79,2.36 c -0.37,1.75 0.69,3.68 1.79,5 1.25,1.44 5,3.16 5.3,3.29 a 54.77,54.77 0 0 0 -2.52,6.61 c -0.41,1.31 -0.79,2.65 -1.14,4 0.07,-0.64 0.13,-1.21 0.13,-1.29 0,-2.26 -1.34,-6.62 -3.75,-7.39 a 3,3 0 0 0 -3.79,2.35 c -0.37,1.75 0.69,3.68 1.79,5 1.1,1.32 4.3,2.82 5.14,3.21 -0.13,0.52 -0.27,1 -0.4,1.55 -0.62,2.48 -1.23,5 -1.91,7.37 -0.23,0.85 -0.5,1.68 -0.76,2.51 0.06,-0.56 0.11,-1 0.11,-1.11 0,-2.26 -1.34,-6.63 -3.75,-7.4 a 3,3 0 0 0 -3.78,2.35 c -0.37,1.75 0.68,3.68 1.79,5 1.11,1.32 4,2.67 5,3.14 -0.29,0.85 -0.58,1.69 -0.91,2.49 -0.23,0.55 -0.42,1.08 -0.68,1.62 l -0.74,1.58 c -0.51,1 -1,2 -1.55,3 -0.36,0.67 -0.71,1.29 -1.07,1.93 0.25,-0.85 0.69,-2.51 0.72,-2.65 a 11.72,11.72 0 0 0 -0.83,-5.81 3.71,3.71 0 0 0 0,-0.67 3,3 0 0 0 -3.31,-3 c -2.51,0.34 -4.59,4.4 -5,6.62 0,0.13 -0.13,1.58 -0.17,2.5 -0.06,-0.54 -0.1,-1.07 -0.17,-1.63 -0.11,-1.1 -0.26,-2.2 -0.42,-3.39 -0.09,-0.57 -0.19,-1.14 -0.29,-1.72 -0.1,-0.58 -0.25,-1.18 -0.37,-1.77 -0.31,-1.38 -0.69,-2.75 -1.11,-4.13 1,-0.11 4.4,-0.53 5.87,-1.38 1.47,-0.85 3.08,-2.34 3.29,-4.11 a 3,3 0 0 0 -2.82,-3.45 c -2.53,0 -5.2,3.65 -5.94,5.78 0,0.14 -0.4,1.73 -0.58,2.61 -0.25,-0.83 -0.5,-1.65 -0.79,-2.48 -0.83,-2.39 -1.74,-4.78 -2.64,-7.17 -0.28,-0.74 -0.54,-1.47 -0.81,-2.2 0.34,0 4.43,-0.45 6.07,-1.4 1.46,-0.85 3.08,-2.34 3.3,-4.11 a 3,3 0 0 0 -2.82,-3.46 c -2.53,0 -5.21,3.65 -5.94,5.79 -0.06,0.16 -0.56,2.46 -0.66,3.05 -0.59,-1.62 -1.17,-3.23 -1.67,-4.85 a 51,51 0 0 1 -1.64,-6.64 c 0.16,0 4.43,-0.42 6.11,-1.4 1.46,-0.85 3.08,-2.34 3.29,-4.11 a 3,3 0 0 0 -2.82,-3.46 c -2.53,0 -5.2,3.65 -5.93,5.79 -0.05,0.14 -0.44,1.89 -0.61,2.72 h -0.14 a 38.63,38.63 0 0 1 -0.42,-6.87 c 0,-1.26 0.11,-2.47 0.22,-3.64 0.81,0 4.48,0 6.09,-0.73 1.61,-0.73 3.32,-2 3.72,-3.72 a 3,3 0 0 0 -2.42,-3.74 c -2.51,-0.33 -5.57,3 -6.54,5.1 -0.05,0.11 -0.46,1.3 -0.74,2.17 0.06,-0.53 0.11,-1.08 0.18,-1.58 0.24,-1.9 0.58,-3.62 0.9,-5.15 0.19,-0.86 0.37,-1.64 0.55,-2.37 0.79,-0.4 4,-2.08 5,-3.43 1,-1.35 2,-3.29 1.59,-5 a 3,3 0 0 0 -3.87,-2.21 c -2.38,0.87 -3.54,5.29 -3.46,7.54 0,0.2 0.48,3.24 0.52,3.22 h 0.05 c -0.19,0.7 -0.38,1.45 -0.58,2.27 -0.35,1.52 -0.73,3.24 -1,5.14 a 53,53 0 0 0 -0.64,6.17 39.06,39.06 0 0 0 0.27,6.94 0.24,0.24 0 0 0 0,0.08 c -0.32,-0.67 -1.26,-2.52 -1.35,-2.65 -1.25,-1.88 -4.77,-4.79 -7.21,-4.1 a 3,3 0 0 0 -1.86,4.05 c 0.76,1.49 2.7,2.52 4.34,2.98 z"
       style="fill:#263238"
       id="path11" />
    <path
       d="m 421.1,394.43 c 1.7,1 6.12,1.48 6.12,1.48 0,0 -0.57,-3 -0.64,-3.19 -0.7,-2.15 -3.33,-5.88 -5.86,-5.86 a 3,3 0 0 0 -2.86,3.42 c 0.19,1.78 1.79,3.28 3.24,4.15 z"
       style="opacity:0.3;fill:#263238"
       id="path13" />
    <path
       d="m 465.54,401.1 c 0,0 1.18,-2.83 1.23,-3 0.6,-2.18 0.46,-6.75 -1.66,-8.13 a 3,3 0 0 0 -4.27,1.28 c -0.82,1.58 -0.31,3.72 0.42,5.25 0.85,1.77 4.28,4.6 4.28,4.6 z"
       style="opacity:0.3;fill:#263238"
       id="path15" />
    <path
       d="m 421,407.39 c 1.83,0.51 5.91,-0.13 6.23,-0.18 a 52.91,52.91 0 0 0 1.55,6.9 c 0.38,1.32 0.8,2.64 1.24,4 -0.29,-0.57 -0.55,-1.08 -0.6,-1.15 -1.25,-1.88 -4.77,-4.78 -7.21,-4.1 a 3,3 0 0 0 -1.85,4.05 c 0.65,1.67 2.6,2.7 4.22,3.15 1.62,0.45 5.14,0 6.06,-0.15 0.18,0.5 0.35,1 0.52,1.51 0.85,2.41 1.71,4.82 2.48,7.2 0.27,0.84 0.51,1.68 0.75,2.52 -0.26,-0.51 -0.49,-0.94 -0.53,-1 -1.25,-1.88 -4.77,-4.78 -7.2,-4.1 a 3,3 0 0 0 -1.86,4.05 c 0.65,1.67 2.6,2.69 4.22,3.15 1.62,0.46 4.8,0 5.9,-0.13 0.22,0.87 0.44,1.73 0.61,2.58 0.11,0.58 0.25,1.13 0.32,1.72 0.07,0.59 0.17,1.16 0.26,1.73 0.12,1.11 0.25,2.25 0.34,3.33 0.06,0.75 0.12,1.47 0.17,2.19 -0.26,-0.84 -0.81,-2.47 -0.87,-2.6 -0.95,-2 -4,-5.46 -6.5,-5.15 a 3,3 0 0 0 -2.45,3.73 c 0.4,1.74 2.16,3 3.7,3.74 1.7,0.77 5.66,0.78 6.16,0.77 0.08,1.2 0.15,2.36 0.2,3.46 0.18,3.81 0.19,7 0.16,9.2 l 1.7,0.22 v -0.2 c 0,-2.25 -0.09,-5.46 -0.36,-9.3 -0.08,-1.22 -0.19,-2.51 -0.32,-3.84 a 32.09,32.09 0 0 0 3.64,-1.18 21.85,21.85 0 0 0 4.59,3.87 c -0.59,1 -1.17,2.05 -1.74,3 -1.95,3.27 -3.69,5.92 -4.94,7.76 l 1.87,0.24 c 1.17,-1.84 2.7,-4.3 4.37,-7.25 0.6,-1.06 1.23,-2.2 1.85,-3.38 0.46,0.16 4.23,1.44 6.08,1.26 1.68,-0.16 3.78,-0.83 4.71,-2.35 a 3,3 0 0 0 -1.11,-4.31 c -2.28,-1.11 -6.26,1.13 -7.82,2.76 -0.09,0.1 -1,1.26 -1.52,2 0.26,-0.49 0.51,-0.95 0.76,-1.45 0.52,-1 1,-2 1.52,-3.06 0.24,-0.53 0.47,-1.06 0.71,-1.6 0.24,-0.54 0.44,-1.12 0.67,-1.68 0.5,-1.32 0.94,-2.68 1.35,-4.06 0.87,0.45 4,2 5.65,2.09 1.65,0.09 3.86,-0.25 5,-1.62 a 3,3 0 0 0 -0.45,-4.43 c -2.08,-1.44 -6.35,0.17 -8.14,1.55 -0.12,0.09 -1.29,1.22 -1.92,1.86 0.24,-0.84 0.48,-1.66 0.7,-2.51 0.63,-2.45 1.19,-5 1.76,-7.44 0.17,-0.76 0.35,-1.52 0.53,-2.28 0.31,0.16 3.95,2.07 5.84,2.18 1.69,0.1 3.86,-0.25 5,-1.61 a 3,3 0 0 0 -0.45,-4.43 c -2.08,-1.44 -6.35,0.17 -8.15,1.55 -0.13,0.1 -1.82,1.73 -2.23,2.17 0.4,-1.67 0.81,-3.34 1.28,-5 a 53.2,53.2 0 0 1 2.3,-6.44 c 0.14,0.07 3.93,2.08 5.87,2.2 1.69,0.09 3.86,-0.25 5,-1.62 a 3,3 0 0 0 -0.45,-4.43 c -2.09,-1.44 -6.36,0.17 -8.15,1.55 -0.12,0.09 -1.4,1.33 -2,1.94 l -0.12,-0.08 a 38.08,38.08 0 0 1 3.44,-6 c 0.71,-1 1.45,-2 2.2,-2.92 0.66,0.45 3.74,2.46 5.47,2.75 1.73,0.29 3.86,0.18 5.16,-1.05 a 3,3 0 0 0 0,-4.46 c -1.92,-1.65 -6.34,-0.52 -8.27,0.65 -0.11,0.07 -1.1,0.83 -1.82,1.4 0.34,-0.41 0.69,-0.84 1,-1.22 1.25,-1.45 2.49,-2.69 3.59,-3.79 0.64,-0.62 1.22,-1.17 1.77,-1.67 0.89,0.1 4.45,0.44 6.1,-0.09 1.65,-0.53 3.51,-1.62 4.1,-3.31 a 3,3 0 0 0 -2,-4 c -2.46,-0.59 -5.87,2.45 -7,4.38 -0.1,0.17 -1.39,3 -1.34,3 h 0.05 c -0.54,0.48 -1.11,1 -1.73,1.57 -1.13,1.07 -2.4,2.3 -3.69,3.72 a 56.26,56.26 0 0 0 -3.94,4.8 39.53,39.53 0 0 0 -3.6,5.94 v 0.07 c 0.11,-0.73 0.34,-2.79 0.34,-2.95 0,-2.26 -1.34,-6.63 -3.75,-7.4 a 3,3 0 0 0 -3.79,2.36 c -0.37,1.75 0.69,3.68 1.79,5 1.25,1.44 5,3.16 5.3,3.29 a 54.77,54.77 0 0 0 -2.52,6.61 c -0.41,1.31 -0.79,2.65 -1.14,4 0.07,-0.64 0.13,-1.21 0.13,-1.29 0,-2.26 -1.34,-6.62 -3.75,-7.39 a 3,3 0 0 0 -3.79,2.35 c -0.37,1.75 0.69,3.68 1.79,5 1.1,1.32 4.3,2.82 5.14,3.21 -0.13,0.52 -0.27,1 -0.4,1.55 -0.62,2.48 -1.23,5 -1.91,7.37 -0.23,0.85 -0.5,1.68 -0.76,2.51 0.06,-0.56 0.11,-1 0.11,-1.11 0,-2.26 -1.34,-6.63 -3.75,-7.4 a 3,3 0 0 0 -3.78,2.35 c -0.37,1.75 0.68,3.68 1.79,5 1.11,1.32 4,2.67 5,3.14 -0.29,0.85 -0.58,1.69 -0.91,2.49 -0.23,0.55 -0.42,1.08 -0.68,1.62 l -0.74,1.58 c -0.51,1 -1,2 -1.55,3 -0.36,0.67 -0.71,1.29 -1.07,1.93 0.25,-0.85 0.69,-2.51 0.72,-2.65 a 11.72,11.72 0 0 0 -0.83,-5.81 3.71,3.71 0 0 0 0,-0.67 3,3 0 0 0 -3.31,-3 c -2.51,0.34 -4.59,4.4 -5,6.62 0,0.13 -0.13,1.58 -0.17,2.5 -0.06,-0.54 -0.1,-1.07 -0.17,-1.63 -0.11,-1.1 -0.26,-2.2 -0.42,-3.39 -0.09,-0.57 -0.19,-1.14 -0.29,-1.72 -0.1,-0.58 -0.25,-1.18 -0.37,-1.77 -0.31,-1.38 -0.69,-2.75 -1.11,-4.13 1,-0.11 4.4,-0.53 5.87,-1.38 1.47,-0.85 3.08,-2.34 3.29,-4.11 a 3,3 0 0 0 -2.82,-3.45 c -2.53,0 -5.2,3.65 -5.94,5.78 0,0.14 -0.4,1.73 -0.58,2.61 -0.25,-0.83 -0.5,-1.65 -0.79,-2.48 -0.83,-2.39 -1.74,-4.78 -2.64,-7.17 -0.28,-0.74 -0.54,-1.47 -0.81,-2.2 0.34,0 4.43,-0.45 6.07,-1.4 1.46,-0.85 3.08,-2.34 3.3,-4.11 a 3,3 0 0 0 -2.82,-3.46 c -2.53,0 -5.21,3.65 -5.94,5.79 -0.06,0.16 -0.56,2.46 -0.66,3.05 -0.59,-1.62 -1.17,-3.23 -1.67,-4.85 a 51,51 0 0 1 -1.64,-6.64 c 0.16,0 4.43,-0.42 6.11,-1.4 1.46,-0.85 3.08,-2.34 3.29,-4.11 a 3,3 0 0 0 -2.82,-3.46 c -2.53,0 -5.2,3.65 -5.93,5.79 -0.05,0.14 -0.44,1.89 -0.61,2.72 h -0.14 a 38.63,38.63 0 0 1 -0.42,-6.87 c 0,-1.26 0.11,-2.47 0.22,-3.64 0.81,0 4.48,0 6.09,-0.73 1.61,-0.73 3.32,-2 3.72,-3.72 a 3,3 0 0 0 -2.42,-3.74 c -2.51,-0.33 -5.57,3 -6.54,5.1 -0.05,0.11 -0.46,1.3 -0.74,2.17 0.06,-0.53 0.11,-1.08 0.18,-1.58 0.24,-1.9 0.58,-3.62 0.9,-5.15 0.19,-0.86 0.37,-1.64 0.55,-2.37 0.79,-0.4 4,-2.08 5,-3.43 1,-1.35 2,-3.29 1.59,-5 a 3,3 0 0 0 -3.87,-2.21 c -2.38,0.87 -3.54,5.29 -3.46,7.54 0,0.2 0.48,3.24 0.52,3.22 h 0.05 c -0.19,0.7 -0.38,1.45 -0.58,2.27 -0.35,1.52 -0.73,3.24 -1,5.14 a 53,53 0 0 0 -0.64,6.17 39.06,39.06 0 0 0 0.27,6.94 0.24,0.24 0 0 0 0,0.08 c -0.32,-0.67 -1.26,-2.52 -1.35,-2.65 -1.25,-1.88 -4.77,-4.79 -7.21,-4.1 a 3,3 0 0 0 -1.86,4.05 c 0.76,1.49 2.7,2.52 4.34,2.98 z"
       style="opacity:0.3;fill:#263238"
       id="path17" />
    <path
       d="m 40.9,410.93 c 0,0 -1,-2.32 -1,-2.48 -0.49,-1.79 -0.38,-5.54 1.36,-6.67 a 2.46,2.46 0 0 1 3.51,1 5.13,5.13 0 0 1 -0.34,4.32 c -0.71,1.51 -3.53,3.83 -3.53,3.83 z"
       style="fill:#263238"
       id="path19" />
    <path
       d="m 77.41,405.45 c -1.4,0.83 -5,1.22 -5,1.22 0,0 0.47,-2.47 0.52,-2.63 0.59,-1.76 2.75,-4.82 4.82,-4.81 a 2.46,2.46 0 0 1 2.32,2.77 5.11,5.11 0 0 1 -2.66,3.45 z"
       style="fill:#263238"
       id="path21" />
    <path
       d="m 77.5,416.09 c -1.51,0.42 -4.86,-0.1 -5.12,-0.14 a 43.85,43.85 0 0 1 -1.27,5.67 c -0.31,1.08 -0.66,2.17 -1,3.25 0.24,-0.47 0.45,-0.89 0.49,-0.94 1,-1.55 3.92,-3.93 5.92,-3.37 a 2.47,2.47 0 0 1 1.48,3.33 5.16,5.16 0 0 1 -3.47,2.58 16.36,16.36 0 0 1 -5,-0.12 c -0.15,0.41 -0.29,0.83 -0.43,1.24 -0.7,2 -1.4,4 -2,5.92 -0.23,0.69 -0.42,1.37 -0.62,2.06 l 0.43,-0.81 c 1,-1.55 3.92,-3.94 5.92,-3.37 a 2.45,2.45 0 0 1 1.53,3.33 5.16,5.16 0 0 1 -3.47,2.58 15.7,15.7 0 0 1 -4.84,-0.11 c -0.18,0.71 -0.37,1.43 -0.51,2.12 -0.09,0.48 -0.2,0.93 -0.26,1.42 l -0.21,1.42 c -0.1,0.91 -0.21,1.84 -0.28,2.73 -0.06,0.62 -0.1,1.21 -0.14,1.8 0.21,-0.69 0.66,-2 0.71,-2.14 0.78,-1.68 3.28,-4.48 5.34,-4.22 a 2.46,2.46 0 0 1 2,3.06 5.12,5.12 0 0 1 -3,3.08 c -1.39,0.62 -4.65,0.63 -5,0.63 -0.07,1 -0.13,1.94 -0.17,2.84 -0.15,3.12 -0.15,5.73 -0.13,7.56 l -1.4,0.18 v -0.16 c 0,-1.85 0.08,-4.49 0.3,-7.65 0.06,-1 0.16,-2.06 0.26,-3.16 a 26,26 0 0 1 -3,-1 18.13,18.13 0 0 1 -3.77,3.18 c 0.48,0.85 1,1.68 1.43,2.46 1.6,2.69 3,4.87 4.06,6.38 l -1.54,0.19 c -1,-1.5 -2.22,-3.52 -3.59,-5.95 -0.49,-0.87 -1,-1.81 -1.52,-2.78 -0.38,0.13 -3.47,1.18 -5,1 a 5.15,5.15 0 0 1 -3.88,-1.93 2.47,2.47 0 0 1 0.92,-3.55 c 1.87,-0.91 5.14,0.93 6.42,2.28 0.08,0.07 0.8,1 1.25,1.63 -0.21,-0.39 -0.42,-0.78 -0.63,-1.19 -0.42,-0.81 -0.81,-1.63 -1.24,-2.51 l -0.59,-1.32 c -0.2,-0.43 -0.36,-0.91 -0.55,-1.38 -0.4,-1.08 -0.77,-2.2 -1.11,-3.33 a 16.06,16.06 0 0 1 -4.64,1.71 5.14,5.14 0 0 1 -4.12,-1.32 2.45,2.45 0 0 1 0.37,-3.64 c 1.71,-1.18 5.22,0.14 6.69,1.27 0.09,0.07 1.06,1 1.58,1.52 -0.2,-0.68 -0.4,-1.36 -0.58,-2.06 -0.52,-2 -1,-4.06 -1.44,-6.11 -0.15,-0.62 -0.3,-1.25 -0.44,-1.87 -0.26,0.13 -3.25,1.7 -4.8,1.79 a 5.12,5.12 0 0 1 -4.12,-1.32 2.46,2.46 0 0 1 0.36,-3.64 c 1.72,-1.18 5.23,0.14 6.7,1.27 0.11,0.09 1.49,1.43 1.83,1.79 -0.33,-1.38 -0.66,-2.75 -1,-4.08 A 42.88,42.88 0 0 0 45.63,419 c -0.11,0.06 -3.23,1.71 -4.82,1.8 a 5.12,5.12 0 0 1 -4.12,-1.32 2.45,2.45 0 0 1 0.37,-3.64 c 1.71,-1.18 5.22,0.14 6.69,1.27 0.09,0.08 1.15,1.1 1.64,1.59 l 0.1,-0.06 a 31.7,31.7 0 0 0 -2.82,-4.9 c -0.59,-0.86 -1.2,-1.64 -1.81,-2.4 a 16.44,16.44 0 0 1 -4.5,2.26 5.14,5.14 0 0 1 -4.24,-0.86 2.46,2.46 0 0 1 0,-3.66 c 1.57,-1.36 5.2,-0.43 6.79,0.53 0.08,0.05 0.9,0.68 1.49,1.15 -0.28,-0.34 -0.56,-0.69 -0.84,-1 -1,-1.19 -2,-2.22 -3,-3.12 -0.52,-0.51 -1,-0.95 -1.45,-1.37 a 16.64,16.64 0 0 1 -5,-0.07 5.13,5.13 0 0 1 -3.36,-2.72 2.46,2.46 0 0 1 1.65,-3.27 c 2,-0.48 4.82,2 5.79,3.61 0.08,0.13 1.14,2.43 1.1,2.43 v 0 c 0.45,0.39 0.92,0.81 1.43,1.29 0.92,0.88 2,1.88 3,3.06 a 39.65,39.65 0 0 1 3.24,3.94 32.16,32.16 0 0 1 3,4.87 v 0.07 c -0.09,-0.61 -0.28,-2.3 -0.28,-2.43 0,-1.86 1.1,-5.44 3.08,-6.08 a 2.46,2.46 0 0 1 3.11,1.94 5.16,5.16 0 0 1 -1.5,4.09 c -1,1.18 -4.11,2.59 -4.35,2.7 a 43.88,43.88 0 0 1 2.07,5.43 c 0.34,1.08 0.64,2.17 0.94,3.28 -0.06,-0.53 -0.11,-1 -0.11,-1.06 0,-1.86 1.1,-5.44 3.08,-6.08 a 2.47,2.47 0 0 1 3.11,1.94 5.16,5.16 0 0 1 -1.47,4.07 16.31,16.31 0 0 1 -4.22,2.64 l 0.33,1.27 c 0.51,2 1,4.08 1.56,6.06 0.2,0.7 0.42,1.38 0.63,2.06 0,-0.46 -0.09,-0.86 -0.09,-0.92 0,-1.85 1.1,-5.44 3.08,-6.07 a 2.46,2.46 0 0 1 3.07,1.9 5.15,5.15 0 0 1 -1.47,4.07 15.7,15.7 0 0 1 -4.1,2.59 c 0.24,0.69 0.48,1.38 0.75,2 0.19,0.45 0.34,0.89 0.56,1.33 0.22,0.44 0.41,0.87 0.61,1.3 0.42,0.81 0.85,1.65 1.28,2.43 0.29,0.55 0.58,1.06 0.87,1.58 -0.2,-0.69 -0.57,-2.06 -0.59,-2.18 a 9.66,9.66 0 0 1 0.68,-4.77 3.26,3.26 0 0 1 0,-0.54 2.46,2.46 0 0 1 2.72,-2.45 c 2.06,0.27 3.77,3.61 4.1,5.43 0,0.11 0.1,1.3 0.14,2.06 0,-0.45 0.08,-0.88 0.13,-1.34 0.1,-0.91 0.22,-1.81 0.35,-2.78 l 0.24,-1.42 c 0.07,-0.48 0.2,-1 0.3,-1.46 0.26,-1.13 0.57,-2.26 0.92,-3.39 a 15.94,15.94 0 0 1 -4.82,-1.13 5.16,5.16 0 0 1 -2.67,-3.34 2.45,2.45 0 0 1 2.32,-2.83 c 2.08,0 4.27,3 4.88,4.75 0,0.11 0.32,1.42 0.47,2.14 0.21,-0.68 0.42,-1.36 0.65,-2 0.68,-2 1.43,-3.93 2.17,-5.89 0.23,-0.6 0.45,-1.2 0.67,-1.81 -0.28,0 -3.64,-0.36 -5,-1.15 a 5.14,5.14 0 0 1 -2.73,-3.42 2.47,2.47 0 0 1 2.32,-2.84 c 2.08,0 4.27,3 4.88,4.75 0,0.14 0.46,2 0.54,2.5 0.49,-1.32 1,-2.65 1.37,-4 A 41.41,41.41 0 0 0 71.89,416 c -0.13,0 -3.64,-0.35 -5,-1.15 a 5.16,5.16 0 0 1 -2.71,-3.38 2.47,2.47 0 0 1 2.32,-2.84 c 2.08,0 4.28,3 4.88,4.76 0,0.11 0.36,1.55 0.49,2.24 H 72 a 31.26,31.26 0 0 0 0.34,-5.64 c 0,-1 -0.09,-2 -0.18,-3 a 16.93,16.93 0 0 1 -5,-0.6 5.17,5.17 0 0 1 -3.06,-3.06 2.46,2.46 0 0 1 2,-3.07 c 2.06,-0.27 4.58,2.51 5.37,4.19 0,0.09 0.38,1.06 0.62,1.78 0,-0.43 -0.09,-0.88 -0.15,-1.3 -0.2,-1.56 -0.48,-3 -0.74,-4.23 -0.16,-0.71 -0.31,-1.35 -0.46,-1.94 a 16.63,16.63 0 0 1 -4.14,-2.82 5.18,5.18 0 0 1 -1.3,-4.13 2.46,2.46 0 0 1 3.14,-1.81 c 2,0.71 2.91,4.34 2.84,6.19 0,0.17 -0.39,2.66 -0.43,2.64 v 0 c 0.16,0.58 0.32,1.19 0.48,1.86 0.29,1.25 0.6,2.67 0.84,4.23 a 42.32,42.32 0 0 1 0.52,5.07 32.52,32.52 0 0 1 -0.22,5.7 c 0,0 0,0 0,0.07 0.26,-0.55 1,-2.07 1.11,-2.18 1,-1.55 3.92,-3.93 5.92,-3.37 a 2.46,2.46 0 0 1 1.5,3.3 5.14,5.14 0 0 1 -3.5,2.58 z"
       style="fill:#263238"
       id="path23" />
    <path
       d="m 77.41,405.45 c -1.4,0.83 -5,1.22 -5,1.22 0,0 0.47,-2.47 0.52,-2.63 0.59,-1.76 2.75,-4.82 4.82,-4.81 a 2.46,2.46 0 0 1 2.32,2.77 5.11,5.11 0 0 1 -2.66,3.45 z"
       style="opacity:0.3;fill:#263238"
       id="path25" />
    <path
       d="m 40.9,410.93 c 0,0 -1,-2.32 -1,-2.48 -0.49,-1.79 -0.38,-5.54 1.36,-6.67 a 2.46,2.46 0 0 1 3.51,1 5.13,5.13 0 0 1 -0.34,4.32 c -0.71,1.51 -3.53,3.83 -3.53,3.83 z"
       style="opacity:0.3;fill:#263238"
       id="path27" />
    <path
       d="m 77.5,416.09 c -1.51,0.42 -4.86,-0.1 -5.12,-0.14 a 43.85,43.85 0 0 1 -1.27,5.67 c -0.31,1.08 -0.66,2.17 -1,3.25 0.24,-0.47 0.45,-0.89 0.49,-0.94 1,-1.55 3.92,-3.93 5.92,-3.37 a 2.47,2.47 0 0 1 1.48,3.33 5.16,5.16 0 0 1 -3.47,2.58 16.36,16.36 0 0 1 -5,-0.12 c -0.15,0.41 -0.29,0.83 -0.43,1.24 -0.7,2 -1.4,4 -2,5.92 -0.23,0.69 -0.42,1.37 -0.62,2.06 l 0.43,-0.81 c 1,-1.55 3.92,-3.94 5.92,-3.37 a 2.45,2.45 0 0 1 1.53,3.33 5.16,5.16 0 0 1 -3.47,2.58 15.7,15.7 0 0 1 -4.84,-0.11 c -0.18,0.71 -0.37,1.43 -0.51,2.12 -0.09,0.48 -0.2,0.93 -0.26,1.42 l -0.21,1.42 c -0.1,0.91 -0.21,1.84 -0.28,2.73 -0.06,0.62 -0.1,1.21 -0.14,1.8 0.21,-0.69 0.66,-2 0.71,-2.14 0.78,-1.68 3.28,-4.48 5.34,-4.22 a 2.46,2.46 0 0 1 2,3.06 5.12,5.12 0 0 1 -3,3.08 c -1.39,0.62 -4.65,0.63 -5,0.63 -0.07,1 -0.13,1.94 -0.17,2.84 -0.15,3.12 -0.15,5.73 -0.13,7.56 l -1.4,0.18 v -0.16 c 0,-1.85 0.08,-4.49 0.3,-7.65 0.06,-1 0.16,-2.06 0.26,-3.16 a 26,26 0 0 1 -3,-1 18.13,18.13 0 0 1 -3.77,3.18 c 0.48,0.85 1,1.68 1.43,2.46 1.6,2.69 3,4.87 4.06,6.38 l -1.54,0.19 c -1,-1.5 -2.22,-3.52 -3.59,-5.95 -0.49,-0.87 -1,-1.81 -1.52,-2.78 -0.38,0.13 -3.47,1.18 -5,1 a 5.15,5.15 0 0 1 -3.88,-1.93 2.47,2.47 0 0 1 0.92,-3.55 c 1.87,-0.91 5.14,0.93 6.42,2.28 0.08,0.07 0.8,1 1.25,1.63 -0.21,-0.39 -0.42,-0.78 -0.63,-1.19 -0.42,-0.81 -0.81,-1.63 -1.24,-2.51 l -0.59,-1.32 c -0.2,-0.43 -0.36,-0.91 -0.55,-1.38 -0.4,-1.08 -0.77,-2.2 -1.11,-3.33 a 16.06,16.06 0 0 1 -4.64,1.71 5.14,5.14 0 0 1 -4.12,-1.32 2.45,2.45 0 0 1 0.37,-3.64 c 1.71,-1.18 5.22,0.14 6.69,1.27 0.09,0.07 1.06,1 1.58,1.52 -0.2,-0.68 -0.4,-1.36 -0.58,-2.06 -0.52,-2 -1,-4.06 -1.44,-6.11 -0.15,-0.62 -0.3,-1.25 -0.44,-1.87 -0.26,0.13 -3.25,1.7 -4.8,1.79 a 5.12,5.12 0 0 1 -4.12,-1.32 2.46,2.46 0 0 1 0.36,-3.64 c 1.72,-1.18 5.23,0.14 6.7,1.27 0.11,0.09 1.49,1.43 1.83,1.79 -0.33,-1.38 -0.66,-2.75 -1,-4.08 A 42.88,42.88 0 0 0 45.63,419 c -0.11,0.06 -3.23,1.71 -4.82,1.8 a 5.12,5.12 0 0 1 -4.12,-1.32 2.45,2.45 0 0 1 0.37,-3.64 c 1.71,-1.18 5.22,0.14 6.69,1.27 0.09,0.08 1.15,1.1 1.64,1.59 l 0.1,-0.06 a 31.7,31.7 0 0 0 -2.82,-4.9 c -0.59,-0.86 -1.2,-1.64 -1.81,-2.4 a 16.44,16.44 0 0 1 -4.5,2.26 5.14,5.14 0 0 1 -4.24,-0.86 2.46,2.46 0 0 1 0,-3.66 c 1.57,-1.36 5.2,-0.43 6.79,0.53 0.08,0.05 0.9,0.68 1.49,1.15 -0.28,-0.34 -0.56,-0.69 -0.84,-1 -1,-1.19 -2,-2.22 -3,-3.12 -0.52,-0.51 -1,-0.95 -1.45,-1.37 a 16.64,16.64 0 0 1 -5,-0.07 5.13,5.13 0 0 1 -3.36,-2.72 2.46,2.46 0 0 1 1.65,-3.27 c 2,-0.48 4.82,2 5.79,3.61 0.08,0.13 1.14,2.43 1.1,2.43 v 0 c 0.45,0.39 0.92,0.81 1.43,1.29 0.92,0.88 2,1.88 3,3.06 a 39.65,39.65 0 0 1 3.24,3.94 32.16,32.16 0 0 1 3,4.87 v 0.07 c -0.09,-0.61 -0.28,-2.3 -0.28,-2.43 0,-1.86 1.1,-5.44 3.08,-6.08 a 2.46,2.46 0 0 1 3.11,1.94 5.16,5.16 0 0 1 -1.5,4.09 c -1,1.18 -4.11,2.59 -4.35,2.7 a 43.88,43.88 0 0 1 2.07,5.43 c 0.34,1.08 0.64,2.17 0.94,3.28 -0.06,-0.53 -0.11,-1 -0.11,-1.06 0,-1.86 1.1,-5.44 3.08,-6.08 a 2.47,2.47 0 0 1 3.11,1.94 5.16,5.16 0 0 1 -1.47,4.07 16.31,16.31 0 0 1 -4.22,2.64 l 0.33,1.27 c 0.51,2 1,4.08 1.56,6.06 0.2,0.7 0.42,1.38 0.63,2.06 0,-0.46 -0.09,-0.86 -0.09,-0.92 0,-1.85 1.1,-5.44 3.08,-6.07 a 2.46,2.46 0 0 1 3.07,1.9 5.15,5.15 0 0 1 -1.47,4.07 15.7,15.7 0 0 1 -4.1,2.59 c 0.24,0.69 0.48,1.38 0.75,2 0.19,0.45 0.34,0.89 0.56,1.33 0.22,0.44 0.41,0.87 0.61,1.3 0.42,0.81 0.85,1.65 1.28,2.43 0.29,0.55 0.58,1.06 0.87,1.58 -0.2,-0.69 -0.57,-2.06 -0.59,-2.18 a 9.66,9.66 0 0 1 0.68,-4.77 3.26,3.26 0 0 1 0,-0.54 2.46,2.46 0 0 1 2.72,-2.45 c 2.06,0.27 3.77,3.61 4.1,5.43 0,0.11 0.1,1.3 0.14,2.06 0,-0.45 0.08,-0.88 0.13,-1.34 0.1,-0.91 0.22,-1.81 0.35,-2.78 l 0.24,-1.42 c 0.07,-0.48 0.2,-1 0.3,-1.46 0.26,-1.13 0.57,-2.26 0.92,-3.39 a 15.94,15.94 0 0 1 -4.82,-1.13 5.16,5.16 0 0 1 -2.67,-3.34 2.45,2.45 0 0 1 2.32,-2.83 c 2.08,0 4.27,3 4.88,4.75 0,0.11 0.32,1.42 0.47,2.14 0.21,-0.68 0.42,-1.36 0.65,-2 0.68,-2 1.43,-3.93 2.17,-5.89 0.23,-0.6 0.45,-1.2 0.67,-1.81 -0.28,0 -3.64,-0.36 -5,-1.15 a 5.14,5.14 0 0 1 -2.73,-3.42 2.47,2.47 0 0 1 2.32,-2.84 c 2.08,0 4.27,3 4.88,4.75 0,0.14 0.46,2 0.54,2.5 0.49,-1.32 1,-2.65 1.37,-4 A 41.41,41.41 0 0 0 71.89,416 c -0.13,0 -3.64,-0.35 -5,-1.15 a 5.16,5.16 0 0 1 -2.71,-3.38 2.47,2.47 0 0 1 2.32,-2.84 c 2.08,0 4.28,3 4.88,4.76 0,0.11 0.36,1.55 0.49,2.24 H 72 a 31.26,31.26 0 0 0 0.34,-5.64 c 0,-1 -0.09,-2 -0.18,-3 a 16.93,16.93 0 0 1 -5,-0.6 5.17,5.17 0 0 1 -3.06,-3.06 2.46,2.46 0 0 1 2,-3.07 c 2.06,-0.27 4.58,2.51 5.37,4.19 0,0.09 0.38,1.06 0.62,1.78 0,-0.43 -0.09,-0.88 -0.15,-1.3 -0.2,-1.56 -0.48,-3 -0.74,-4.23 -0.16,-0.71 -0.31,-1.35 -0.46,-1.94 a 16.63,16.63 0 0 1 -4.14,-2.82 5.18,5.18 0 0 1 -1.3,-4.13 2.46,2.46 0 0 1 3.14,-1.81 c 2,0.71 2.91,4.34 2.84,6.19 0,0.17 -0.39,2.66 -0.43,2.64 v 0 c 0.16,0.58 0.32,1.19 0.48,1.86 0.29,1.25 0.6,2.67 0.84,4.23 a 42.32,42.32 0 0 1 0.52,5.07 32.52,32.52 0 0 1 -0.22,5.7 c 0,0 0,0 0,0.07 0.26,-0.55 1,-2.07 1.11,-2.18 1,-1.55 3.92,-3.93 5.92,-3.37 a 2.46,2.46 0 0 1 1.5,3.3 5.14,5.14 0 0 1 -3.5,2.58 z"
       style="opacity:0.3;fill:#263238"
       id="path29" />
  </g>
  <g
     id="freepik--character-3--inject-8"
     transform="translate(-23.690164,-52.27358)">
    <ellipse
       cx="280.25"
       cy="134.25"
       rx="9"
       ry="9.5"
       style="fill:#263238;stroke:#263238;stroke-linecap:round;stroke-linejoin:round"
       id="ellipse32" />
    <path
       d="m 278.92,355.67 c 0,0 0.33,30 3.66,47 3.33,17 6.67,38 6.67,38 0,0 -3.33,13 -4.33,13.66 -1,0.66 -7.67,4.67 -5.67,6.34 2,1.67 21.33,0 21.33,0 0,0 2.34,-2.34 1.67,-7 -0.67,-4.66 -0.33,-20.34 -0.33,-20.34 0,0 2,-54.66 2,-63 v -17 l -25.67,-2 z"
       style="fill:#ffffff;stroke:#263238;stroke-linecap:round;stroke-linejoin:round"
       id="path34" />
    <path
       d="m 302.25,453.67 a 106.94,106.94 0 0 1 -0.42,-11.12 c -1.13,3.55 -3.44,9.71 -6.25,11.12 -4,2 -10.66,0.66 -10.66,0.66 -1,0.67 -7.67,4.67 -5.67,6.34 2,1.67 21.33,0 21.33,0 0,0 2.34,-2.34 1.67,-7 z"
       style="fill:#263238;stroke:#263238;stroke-linecap:round;stroke-linejoin:round"
       id="path36" />
    <path
       d="m 335.58,355.67 c 0,0 -0.33,30 -3.66,47 -3.33,17 -6.67,38 -6.67,38 0,0 3.33,13 4.33,13.66 1,0.66 7.67,4.67 5.67,6.34 -2,1.67 -21.33,0 -21.33,0 0,0 -2.34,-2.34 -1.67,-7 0.67,-4.66 0.33,-20.34 0.33,-20.34 0,0 -2,-54.66 -2,-63 v -17 l 25.67,-2 z"
       style="fill:#ffffff;stroke:#263238;stroke-linecap:round;stroke-linejoin:round"
       id="path38" />
    <path
       d="m 312.25,453.67 a 106.94,106.94 0 0 0 0.42,-11.12 c 1.13,3.55 3.44,9.71 6.25,11.12 4,2 10.66,0.66 10.66,0.66 1,0.67 7.67,4.67 5.67,6.34 -2,1.67 -21.33,0 -21.33,0 0,0 -2.34,-2.34 -1.67,-7 z"
       style="fill:#263238;stroke:#263238;stroke-linecap:round;stroke-linejoin:round"
       id="path40" />
    <path
       d="m 276.92,239 c 0,0 -10,26 -13,45.67 -3,19.67 -12.67,57.66 -10.67,60.33 2,2.67 7.67,3.33 7.67,3.33 l -0.34,5.34 c 0,0 11,4.66 21.67,5 10.67,0.34 19.33,-2.67 25.33,-1.34 6,1.33 24.34,2.67 29,0 4.66,-2.67 10,-5 10.34,-6.33 a 21.09,21.09 0 0 0 0,-4.67 l 5,-2.33 c 0,0 -1.34,-34.67 -4.67,-54.67 -3.33,-20 -8.33,-36.66 -10.67,-42.66 -2.34,-6 -11,-7.34 -11,-7.34 z"
       style="fill:#263238;stroke:#263238;stroke-linecap:round;stroke-linejoin:round"
       id="path42" />
    <line
       x1="260.92001"
       y1="348.32999"
       x2="263.57999"
       y2="313.32999"
       style="fill:none;stroke:#263238;stroke-linecap:round;stroke-linejoin:round"
       id="line44" />
    <line
       x1="346.92001"
       y1="346.32999"
       x2="340.92001"
       y2="300.67001"
       style="fill:none;stroke:#263238;stroke-linecap:round;stroke-linejoin:round"
       id="line46" />
    <path
       d="M 292.5,152.25 291,166.5 c 0,0 -28.25,11.5 -29.25,13 -1,1.5 17.25,62 17.25,62 0,0 9,6.5 25.25,6.25 16.25,-0.25 25.5,-8.5 25.5,-8.5 0,0 10.25,-59.75 8.5,-63.25 -1.75,-3.5 -28,-11 -28,-11 l -0.5,-10.75 z"
       style="fill:#0b4f6c;stroke:#263238;stroke-linecap:round;stroke-linejoin:round"
       id="path48" />
    <path
       d="m 301,200 16.73,-32.73 c -4.26,-1.35 -7.48,-2.27 -7.48,-2.27 l -0.5,-10.75 -19.36,-3.76 0.61,16 c 0,0 -2.21,0.9 -5.41,2.23 z"
       style="fill:#ffffff;stroke:#263238;stroke-linecap:round;stroke-linejoin:round"
       id="path50" />
    <path
       d="m 310.07,161.21 -0.32,-7 -19.36,-3.76 0.15,4 c 2.14,2.78 7.2,8.88 11.23,10 2.7,0.79 5.87,-1.16 8.3,-3.24 z"
       style="fill:#263238;stroke:#263238;stroke-linecap:round;stroke-linejoin:round"
       id="path52" />
    <path
       d="m 284.25,137.25 c 0,0 -0.14,-0.34 -0.37,-0.81 -0.81,-1.66 -2.77,-5 -4.13,-1.69 -1.75,4.25 0.25,7.5 2,9.5 a 3.53,3.53 0 0 0 4,1 c 0,0 4.75,8.25 8.5,12.5 3.75,4.25 11,5 14,1.75 3,-3.25 6.6,-5.68 8.1,-13.68 0.34,-1.79 0.27,-5.32 0.51,-7.34 a 105.15,105.15 0 0 0 0.64,-18.73 c -0.5,-5.25 -3.75,-13 -9.75,-16.25 -6,-3.25 -17.75,-1.5 -23.25,5.5 -5.5,7 -7,14.5 -4.75,18 a 33,33 0 0 1 3,5.5 z"
       style="fill:#ffffff;stroke:#263238;stroke-linecap:round;stroke-linejoin:round"
       id="path54" />
    <path
       d="m 280.3,133.79 3.95,3.46 c 0,0 -0.14,-0.34 -0.37,-0.81 -0.71,-1.44 -2.29,-4.16 -3.58,-2.65 z"
       style="fill:#ffffff;stroke:#263238;stroke-linecap:round;stroke-linejoin:round"
       id="path56" />
    <path
       d="m 307.75,103.5 c -6,-3.25 -17.75,-1.5 -23.25,5.5 -5.5,7 -7,14.5 -4.75,18 a 33,33 0 0 1 3,5.5 l 1.5,4.75 c 0,0 0,-6.25 1,-8.75 1,-2.5 5.5,-14.25 18,-14.5 12.5,-0.25 12.25,11.75 13.5,14.75 a 4.72,4.72 0 0 0 0.8,1.25 78.85,78.85 0 0 0 -0.05,-10.25 c -0.5,-5.25 -3.75,-13 -9.75,-16.25 z"
       style="fill:#263238;stroke:#263238;stroke-linecap:round;stroke-linejoin:round"
       id="path58" />
    <path
       d="m 307,133.75 c 0,0 -0.5,5 0.5,5.5 1,0.5 3.25,0.75 2.75,2.5 -0.5,1.75 -2.75,2.25 -2.75,2.25"
       style="fill:none;stroke:#263238;stroke-linecap:round;stroke-linejoin:round"
       id="path60" />
    <path
       d="m 297.75,146.25 c 0,0 1.75,3.75 9,3.5"
       style="fill:none;stroke:#263238;stroke-linecap:round;stroke-linejoin:round"
       id="path62" />
    <path
       d="m 292.25,136.25 a 7.65,7.65 0 0 1 7,0.25"
       style="fill:none;stroke:#263238;stroke-linecap:round;stroke-linejoin:round"
       id="path64" />
    <path
       d="m 308.75,136.25 c 0,0 3.75,-1.75 6,0.75"
       style="fill:none;stroke:#263238;stroke-linecap:round;stroke-linejoin:round"
       id="path66" />
    <path
       d="M 291.75,130.5 A 7.14,7.14 0 0 1 301,129.25"
       style="fill:none;stroke:#263238;stroke-linecap:round;stroke-linejoin:round"
       id="path68" />
    <path
       d="m 308.25,130.25 c 0,0 5,-3.75 8,0.25"
       style="fill:none;stroke:#263238;stroke-linecap:round;stroke-linejoin:round"
       id="path70" />
    <path
       d="m 268.5,176.75 c 0,0 -9.5,2.75 -9.75,4.25 -0.25,1.5 6,47.25 6,47.25 0,0 -3.25,3 -2,4.75 1.25,1.75 4,5.25 4,5.25 a 3.64,3.64 0 0 0 1,3.75 c 1.75,1.5 6.75,20.5 11.75,29.5 a 109.48,109.48 0 0 0 11.25,16.25 c 0,0 3.5,6.5 6,8.25 2.5,1.75 4.25,3.25 5.75,2.5 1.5,-0.75 3,-6.75 3.25,-10.5 0.25,-3.75 -7.75,-8.5 -8.75,-9 a 25.36,25.36 0 0 1 -3.5,-3 c 0,0 -6.75,-14.25 -8,-21.25 -1.25,-7 -4.5,-17.75 -4.5,-17.75 0,0 1.75,-4.25 1.75,-5.25 0,-1 -2.75,-3.5 -2.75,-4.5 v -7.5 l -2.25,-26"
       style="fill:#0b4f6c;stroke:#263238;stroke-linecap:round;stroke-linejoin:round"
       id="path72" />
    <path
       d="m 297,279 a 25.36,25.36 0 0 1 -3.5,-3 c 0,0 -6.75,-14.25 -8,-21.25 -0.55,-3.07 -1.48,-6.86 -2.36,-10.15 -6.47,-2.06 -10.87,0.48 -13.12,2.47 2.39,6.63 5.93,18 9.48,24.43 a 109.48,109.48 0 0 0 11.25,16.25 c 0,0 3.5,6.5 6,8.25 2.5,1.75 4.25,3.25 5.75,2.5 1.5,-0.75 3,-6.75 3.25,-10.5 0.25,-3.75 -7.75,-8.5 -8.75,-9 z"
       style="fill:#ffffff;stroke:#263238;stroke-linecap:round;stroke-linejoin:round"
       id="path74" />
    <path
       d="m 269,236.5 c 0,0 6.25,-4.25 10.5,-2.5"
       style="fill:none;stroke:#263238;stroke-linecap:round;stroke-linejoin:round"
       id="path76" />
    <path
       d="m 265,234 c 0,0 8,-5.75 13,-3.25"
       style="fill:none;stroke:#263238;stroke-linecap:round;stroke-linejoin:round"
       id="path78" />
    <path
       d="m 328.5,194.75 -2,34.75 c 0,0 -4,5.5 -3.5,7 a 11.9,11.9 0 0 1 0.5,3.25 l -2.25,2.75 -14,37.25 c 0,0 -6,4.25 -6.25,5.25 -0.25,1 -2.5,7.75 -2.5,9.25 0,1.5 -0.5,1.5 1.25,1.5 1.75,0 3.75,-5.5 3.75,-5.5 l -0.75,6.5 a 31.87,31.87 0 0 1 -4.5,1 c -1,0 1.5,3.5 5.5,3 4,-0.5 6.5,-2.25 7.75,-6.25 1.25,-4 3,-16 3,-16 0,0 23.25,-30.5 25.5,-34.25 2.25,-3.75 3,-7.25 2.75,-9 a 10.06,10.06 0 0 1 0.5,-5.25 c 0.75,-2.5 1,-4.75 0.5,-5.5 -0.5,-0.75 1,-25.25 0.25,-33.75 -0.75,-8.5 -3,-12.75 -5.75,-14.75 -2.75,-2 -7.5,-2.75 -7.5,-2.75"
       style="fill:#0b4f6c;stroke:#263238;stroke-linecap:round;stroke-linejoin:round"
       id="path80" />
    <path
       d="m 321,243.1 -13.78,36.65 c 0,0 -6,4.25 -6.25,5.25 -0.25,1 -2.5,7.75 -2.5,9.25 0,1.5 -0.5,1.5 1.25,1.5 1.75,0 3.75,-5.5 3.75,-5.5 l -0.75,6.5 a 31.87,31.87 0 0 1 -4.5,1 c -1,0 1.5,3.5 5.5,3 4,-0.5 6.5,-2.25 7.75,-6.25 1.25,-4 3,-16 3,-16 0,0 14.67,-19.24 21.83,-29 -4.11,-6.73 -11.54,-6.84 -15.3,-6.4 z"
       style="fill:#ffffff;stroke:#263238;stroke-linecap:round;stroke-linejoin:round"
       id="path82" />
    <path
       d="m 326.25,238 c 0,0 7,-3.75 12,1"
       style="fill:none;stroke:#263238;stroke-linecap:round;stroke-linejoin:round"
       id="path84" />
    <path
       d="m 338.5,232.75 c 0,0 -7.25,-1 -11.75,3"
       style="fill:none;stroke:#263238;stroke-linecap:round;stroke-linejoin:round"
       id="path86" />
  </g>
  <g
     id="freepik--character-4--inject-8"
     transform="translate(-23.690164,-52.27358)">
    <path
       d="m 357.58,416.67 -2,27.66 c 0,0 -9.33,9 -11.33,10.34 -2,1.34 -10.67,2.33 -9.33,5 1.34,2.67 7,2.33 7,2.33 h 26 a 12.38,12.38 0 0 0 1,-7.33 c -0.67,-4.34 -1.34,-12.34 -1.34,-12.34 l 5,-25 z"
       style="fill:#ffffff;stroke:#263238;stroke-linecap:round;stroke-linejoin:round"
       id="path89" />
    <path
       d="m 341.92,462 h 26 a 12.38,12.38 0 0 0 1,-7.33 c -0.17,-1.06 -0.33,-2.34 -0.48,-3.67 h -9.86 c 0,0 -0.66,-3.33 -1,-7 -0.16,-1.77 -1,-1.9 -1.86,-1.58 l -0.14,1.91 c 0,0 -9.33,9 -11.33,10.34 -2,1.34 -10.67,2.33 -9.33,5 1.34,2.67 7,2.33 7,2.33 z"
       style="fill:#ffffff;stroke:#263238;stroke-linecap:round;stroke-linejoin:round"
       id="path91" />
    <path
       d="m 404.92,418 3.33,36.33 c 0,0 1.67,10 3.67,10.34 2,0.34 10,1.66 11.33,-2.67 1.33,-4.33 -5.33,-17.67 -5.33,-17.67 L 420.58,418 Z"
       style="fill:#ffffff;stroke:#263238;stroke-linecap:round;stroke-linejoin:round"
       id="path93" />
    <path
       d="m 408.25,454.33 c 0,0 1.67,10 3.67,10.34 2,0.34 10,1.66 11.33,-2.67 1.33,-4.33 -5.33,-17.67 -5.33,-17.67 0,0 -3.34,-2.66 -5,-0.66 a 18,18 0 0 0 -2.67,5 l -2.62,-1.09 z"
       style="fill:#ffffff;stroke:#263238;stroke-linecap:round;stroke-linejoin:round"
       id="path95" />
    <path
       d="m 355.58,276 a 250.68,250.68 0 0 0 -2,33.67 c 0,20.33 1.67,104.33 1.67,104.33 l 19.33,-0.67 10.34,-90.66 2.33,3.33 13.67,87.33 c 0,0 5,2.67 8.33,2.67 3.33,0 13,-3 13,-3 0,0 -1.33,-100 -1,-105.67 0.33,-5.67 -1.67,-22.33 -1.67,-22.33 0,0 -9.33,2.67 -25.33,0.33 -16,-2.34 -25.33,-5.66 -28,-7 -2.67,-1.34 -10.67,-2.33 -10.67,-2.33 z"
       style="fill:#263238;stroke:#263238;stroke-linecap:round;stroke-linejoin:round"
       id="path97" />
    <line
       x1="379.75"
       y1="323.5"
       x2="393.25"
       y2="318"
       style="fill:none;stroke:#808080;stroke-linecap:round;stroke-linejoin:round"
       id="line99" />
    <path
       d="m 362.75,287 c 0,0 -1,6.5 -6.5,14.5"
       style="fill:none;stroke:#808080;stroke-linecap:round;stroke-linejoin:round"
       id="path101" />
    <path
       d="m 409.75,291.5 a 27.15,27.15 0 0 0 9,12.5"
       style="fill:none;stroke:#808080;stroke-linecap:round;stroke-linejoin:round"
       id="path103" />
    <path
       d="m 393.45,172.73 c 0,0 -31.12,9.64 -31.93,11.65 -0.81,2.01 -26.62,49.8 -24.82,51.21 1.8,1.41 18.8,0.39 19.6,0 0.8,-0.39 7.83,-18.27 7.83,-18.27 0,0 -0.4,18.87 -0.4,20.27 0,1.4 0,11 -3.61,18.28 -3.61,7.28 -6.23,21.28 -6.23,22.88 v 2.61 c 0,0 21.29,13.64 37.55,11.44 a 182.77,182.77 0 0 0 29.11,-6.43 c 0,0 -0.6,-12.44 -2.21,-18.27 -1.61,-5.83 -5,-24.69 -5,-26.7 0,-2.01 2.61,-5.82 2.81,-6.43 0.2,-0.61 9.24,-31.92 9.24,-31.92 l 7.63,25.7 13.05,-2 c 0,0 -4.22,-39.75 -6.83,-42 -2.61,-2.25 -33.93,-10.44 -33.93,-10.44 z"
       style="fill:#ffffff"
       id="path105" />
    <path
       d="m 356.3,235.58 a 15.13,15.13 0 0 0 1.69,-3.32 h -20.46 c -0.76,1.91 -1.09,3.12 -0.83,3.33 1.81,1.41 18.8,0.41 19.6,-0.01 z"
       style="fill:#0b4f6c"
       id="path107" />
    <path
       d="m 361.54,252.38 a 28.51,28.51 0 0 1 -1.42,3.48 48.16,48.16 0 0 0 -2.66,6.9 h 59.63 c -0.66,-3.12 -1.39,-6.88 -2,-10.38 z"
       style="fill:#0b4f6c"
       id="path109" />
    <path
       d="M 419.23,272.5 H 355 a 52.37,52.37 0 0 0 -1.06,6.24 v 2.61 c 0,0 0.95,0.61 2.57,1.53 h 63.87 c -0.25,-2.81 -0.61,-6.88 -1.15,-10.38 z"
       style="fill:#0b4f6c"
       id="path111" />
    <path
       d="m 416.93,232.26 h -53.1 c -0.06,2.74 -0.1,4.89 -0.1,5.32 0,0.43 0,2.5 -0.24,5.07 h 49.95 c -0.07,-0.59 -0.12,-1 -0.12,-1.25 0,-2 2.61,-5.82 2.81,-6.43 0.04,-0.1 0.34,-1.12 0.8,-2.71 z"
       style="fill:#0b4f6c"
       id="path113" />
    <path
       d="m 419.75,222.53 c 1,-3.46 2.06,-7.15 3,-10.38 h -75.6 c -1.84,3.61 -3.63,7.17 -5.18,10.38 h 20.08 c 1.19,-2.94 2.08,-5.22 2.08,-5.22 0,0 0,2.23 -0.11,5.22 z"
       style="fill:#0b4f6c"
       id="path115" />
    <path
       d="m 393.45,172.73 c 0,0 -19.54,6.06 -28.05,9.57 h 67.66 c -9.86,-3.25 -27.77,-8 -27.77,-8 z"
       style="fill:#0b4f6c"
       id="path117" />
    <path
       d="m 357.58,192 c -1.55,3 -3.43,6.54 -5.42,10.38 H 443 c -0.54,-3.77 -1.12,-7.4 -1.68,-10.38 z"
       style="fill:#0b4f6c"
       id="path119" />
    <path
       d="m 428.07,212.15 3.08,10.38 h 14.43 c -0.3,-2.66 -0.73,-6.34 -1.24,-10.38 z"
       style="fill:#0b4f6c"
       id="path121" />
    <path
       d="m 393.45,172.73 c 0,0 -31.12,9.64 -31.93,11.65 -0.81,2.01 -26.62,49.8 -24.82,51.21 1.8,1.41 18.8,0.39 19.6,0 0.8,-0.39 7.83,-18.27 7.83,-18.27 0,0 -0.4,18.87 -0.4,20.27 0,1.4 0,11 -3.61,18.28 -3.61,7.28 -6.23,21.28 -6.23,22.88 v 2.61 c 0,0 21.29,13.64 37.55,11.44 a 182.77,182.77 0 0 0 29.11,-6.43 c 0,0 -0.6,-12.44 -2.21,-18.27 -1.61,-5.83 -5,-24.69 -5,-26.7 0,-2.01 2.61,-5.82 2.81,-6.43 0.2,-0.61 9.24,-31.92 9.24,-31.92 l 7.63,25.7 13.05,-2 c 0,0 -4.22,-39.75 -6.83,-42 -2.61,-2.25 -33.93,-10.44 -33.93,-10.44 z"
       style="fill:none;stroke:#263238;stroke-linecap:round;stroke-linejoin:round"
       id="path123" />
    <polygon
       points="397.06,193.01 408.5,176.75 413.52,167.72 396.06,158.28 391.44,174.54 "
       style="fill:#ffffff;stroke:#263238;stroke-linecap:round;stroke-linejoin:round"
       id="polygon125" />
    <path
       d="m 395.37,160.71 -1.4,4.93 0.53,2.83 a 22.47,22.47 0 0 0 5.78,8.91 14.85,14.85 0 0 0 5.78,2.85 l 2.45,-3.48 4.51,-8.12 z"
       style="fill:#263238;stroke:#263238;stroke-linecap:round;stroke-linejoin:round"
       id="path127" />
    <path
       d="m 393.9,142.66 c 0,0 -1.06,-3 -1.27,-9.31 -0.21,-6.31 1.06,-12.07 3.18,-11 2.12,1.07 1.69,4.44 1.69,4.44 a 14.29,14.29 0 0 1 12.7,-9.31 c 9.95,-0.63 7.19,3.39 7.19,3.39 0,0 15.88,-1.27 21.38,5.5 5.5,6.77 4.44,13.33 3,13.33 h -3.17 c 0,0 4.87,14.19 1.27,16.94 -3.6,2.75 -10.16,-7 -10.16,-7 0,0 -0.85,3.39 -2.54,4.24 a 20.48,20.48 0 0 1 -3.18,1.26 c 0,0 -6.56,-1.9 -9.94,-4.44 -3.38,-2.54 -8.68,-10.16 -8.68,-10.16 0,0 -5.71,7 -7.83,7.83 a 31.57,31.57 0 0 0 -3.6,1.7 z"
       style="fill:#263238;stroke:#263238;stroke-linecap:round;stroke-linejoin:round"
       id="path129" />
    <path
       d="m 395.51,146.71 c 0,0 0,-8.08 -2.81,-5.27 -2.81,2.81 -3.86,7.73 -2.1,10.19 l 1.75,2.46 1.76,1.41 c 0,0 -1.41,6.32 0,10.19 1.41,3.87 3.86,9.13 9.84,8.43 5.98,-0.7 11,-3.47 13.44,-8.39 C 419.83,160.81 425,153 425,153 c 0,0 -8.78,-0.35 -13.7,-7.38 -4.92,-7.03 -6,-11.24 -6,-11.24 0,0 -4.87,10.23 -9.79,12.33 z"
       style="fill:#ffffff;stroke:#263238;stroke-linecap:round;stroke-linejoin:round"
       id="path131" />
    <path
       d="m 399.62,151.12 a 5,5 0 0 0 5.5,2.54"
       style="fill:none;stroke:#263238;stroke-linecap:round;stroke-linejoin:round"
       id="path133" />
    <path
       d="m 410.62,156 a 4.92,4.92 0 0 0 6.35,3.18"
       style="fill:none;stroke:#263238;stroke-linecap:round;stroke-linejoin:round"
       id="path135" />
    <path
       d="m 402.16,161.49 c 0,0 0.63,2.33 4.65,1.49"
       style="fill:none;stroke:#263238;stroke-linecap:round;stroke-linejoin:round"
       id="path137" />
    <path
       d="m 399.4,162.55 c 0,0 0.43,4.66 7.84,4.66"
       style="fill:none;stroke:#263238;stroke-linecap:round;stroke-linejoin:round"
       id="path139" />
    <path
       d="m 401.1,147.74 a 7,7 0 0 1 5.92,2.54"
       style="fill:none;stroke:#263238;stroke-linecap:round;stroke-linejoin:round"
       id="path141" />
    <path
       d="m 412.31,153.24 c 0,0 3.39,-0.42 5.93,4"
       style="fill:none;stroke:#263238;stroke-linecap:round;stroke-linejoin:round"
       id="path143" />
    <path
       d="m 393.05,147.24 c 0,0 -3.22,0 -3.42,1.4 -0.2,1.4 0,20.88 1.61,31.52 1.61,10.64 3.61,21.49 4.21,21.69 0.6,0.2 18.28,-31.12 19.08,-32.33"
       style="fill:none;stroke:#263238;stroke-linecap:round;stroke-linejoin:round"
       id="path145" />
    <polygon
       points="376.88,235.58 374.47,206.66 362.63,207.47 365.44,236.18 "
       style="fill:#263238;stroke:#263238;stroke-miterlimit:10"
       id="polygon147" />
    <path
       d="m 357.91,233.77 2.21,-12.85 3.41,-5.82 0.2,5 c 0,0 10.44,-7 10.64,-5.42 0.2,1.58 -7.63,7.83 -7.63,7.83 v 1.8 c 0,0 7.23,-4 8,-4.21 0.77,-0.21 2.82,-2 2.62,-0.2 -0.2,1.8 -2.82,3.41 -3.82,4.21 -1,0.8 -5.22,3.42 -5.22,3.42 0,0 8,-4.42 8,-3 0,1.42 -2,3.22 -2.61,3.82 -0.61,0.6 -2.61,3.41 -3.81,4.82 -1.2,1.41 -9.64,4.41 -9.64,4.41 0,0 -20.26,8.42 -23.83,9.24 -3.57,0.82 -3.88,-8.22 -1.47,-11.23 2.41,-3.01 4.68,-3.43 7.89,-4.23 3.21,-0.8 15.06,2.41 15.06,2.41 z"
       style="fill:#ffffff;stroke:#263238;stroke-miterlimit:10"
       id="path149" />
    <path
       d="m 373.57,236 c 0,0 1.2,9.84 4,14.45 2.8,4.61 10.44,6.83 14.05,3.22 3.61,-3.61 5.64,-11.67 5.44,-21.67 -0.2,-10 -1.61,-30.11 -1.61,-30.11"
       style="fill:none;stroke:#263238;stroke-linecap:round;stroke-linejoin:round"
       id="path151" />
    <polygon
       points="376.58,420.33 377.25,407 352.92,406.67 354.25,420.33 "
       style="fill:#ffffff;stroke:#263238;stroke-linecap:round;stroke-linejoin:round"
       id="polygon153" />
    <polygon
       points="423.58,420.67 424.25,407.33 398.92,409 400.58,420.33 "
       style="fill:#ffffff;stroke:#263238;stroke-linecap:round;stroke-linejoin:round"
       id="polygon155" />
    <path
       d="m 420.15,159.08 -1.61,6.83 c 0,0 -8.63,5 -9,7.23 -0.37,2.23 19.47,50.59 21.28,53.8 1.81,3.21 4,8.64 9.44,7.43 5.44,-1.21 7.63,-9 5.82,-12.65 -1.81,-3.65 -29.92,-46 -29.92,-46 l 11.25,-10.24 c 0,0 0.2,-9.24 -0.2,-11.25 -0.4,-2.01 -0.61,-2.81 -0.61,-2.81 0,0 -5.25,6.46 -6.45,7.66 z"
       style="fill:#ffffff;stroke:#263238;stroke-linecap:round;stroke-linejoin:round"
       id="path157" />
    <polyline
       points="421.63 157.98 421.63 166.7 419.86 169.7"
       style="fill:none;stroke:#263238;stroke-linecap:round;stroke-linejoin:round"
       id="polyline159" />
    <path
       d="m 424,155.14 c 0,0 0.27,9.25 0.27,10.34 a 6.67,6.67 0 0 1 -1.09,2.72"
       style="fill:none;stroke:#263238;stroke-linecap:round;stroke-linejoin:round"
       id="path161" />
    <path
       d="m 425.45,153.35 c 0,0 0.81,10.49 0.81,11.58 a 4,4 0 0 1 -0.95,2.18"
       style="fill:none;stroke:#263238;stroke-linecap:round;stroke-linejoin:round"
       id="path163" />
  </g>
  <g
     id="freepik--character-2--inject-8"
     transform="translate(-23.690164,-52.27358)">
    <path
       d="m 234.5,439.33 5.75,8.42 c 0,0 18.86,10.4 19.59,10.64 0.73,0.24 0.73,2.18 -0.48,2.42 -1.21,0.24 -5.57,0.72 -5.57,0.72 h -39.65 c 0,0 -1,-3.86 -1.46,-6 -0.46,-2.14 0.73,-9.19 0.73,-9.19 l 0.24,-6.29 z"
       style="fill:#ffffff;stroke:#263238;stroke-linecap:round;stroke-linejoin:round"
       id="path166" />
    <path
       d="m 170.5,253.67 1.33,39.33 5.67,131 -2.33,7 3.33,10.67 c 0,0 4,-4 9,-1.67 a 30.5,30.5 0 0 1 8,5.33 50.18,50.18 0 0 0 2.67,-5.66 23.27,23.27 0 0 0 1,-7.34 c 0,-1 4.66,-5.66 4.66,-7.33 0,-1.67 -4,-8.67 -4,-8.67 L 206.17,292 213.5,423.33 c 0,0 -2,2.34 -2,3.34 0,1 2.67,17 2.67,17 0,0 0.33,0.33 4.33,0.33 4,0 9.33,-1 11,-2.67 1.67,-1.67 5,-2 5,-2 l 0.67,-7.33 -1.34,-5.33 4.34,-80.67 v -81.33 l 0.33,-12.34 -68.67,-1 z"
       style="fill:#263238;stroke:#263238;stroke-linecap:round;stroke-linejoin:round"
       id="path168" />
    <path
       d="m 183.17,152 -24.34,13 -14.66,55.33 -19.34,29.67 7,5.67 26,-25.34 7.34,-9.33 2.66,17 c 0,0 -5,12 -2.33,14.33 a 22.89,22.89 0 0 0 6.33,3.67 h 66.67 a 42.7,42.7 0 0 0 1.33,-6 c 0,-1.33 -1.66,-12.67 -1.66,-12.67 l 1,-23.33 3.66,20.67 3.34,36.33 10,-0.33 2,-48.67 -14,-57 -28,-11.67 z"
       style="fill:#ffffff;stroke:#263238;stroke-linecap:round;stroke-linejoin:round"
       id="path170" />
    <polygon
       points="180,151.75 183.25,172.5 198.5,161.75 213.75,173 219,151.5 212.75,142.5 189.25,142.75 184.5,143.25 "
       style="fill:#ffffff;stroke:#263238;stroke-linecap:round;stroke-linejoin:round"
       id="polygon172" />
    <path
       d="m 187.75,135 -0.75,12.75 12.5,15 11.25,-15.5 -1,-12.5 c 0,0 -13,3.5 -22,0.25 z"
       style="fill:#ffffff;stroke:#263238;stroke-linecap:round;stroke-linejoin:round"
       id="path174" />
    <path
       d="m 210.14,139.6 -0.39,-4.85 c 0,0 -13,3.5 -22,0.25 l -0.19,3.22 c 1.9,3.5 6.24,10.38 11.23,10.81 4.21,0.36 8.62,-5.21 11.35,-9.43 z"
       style="fill:#263238;stroke:#263238;stroke-linecap:round;stroke-linejoin:round"
       id="path176" />
    <path
       d="m 181.5,114.75 c 0,0 -1.75,-3.75 -2.75,-0.75 -1,3 3,9.25 3,9.25 L 182.5,115 Z"
       style="fill:#ffffff;stroke:#263238;stroke-linecap:round;stroke-linejoin:round"
       id="path178" />
    <path
       d="m 214.84,114.75 c 0,0 1.75,-3.75 2.75,-0.75 1,3 -3,9.25 -3,9.25 L 213.84,115 Z"
       style="fill:#ffffff;stroke:#263238;stroke-linecap:round;stroke-linejoin:round"
       id="path180" />
    <path
       d="m 213.5,119 c 0,0 0.5,0.25 1.25,-1.5 0.75,-1.75 1.25,-11.75 1.25,-11.75 0,0 5,-7.5 2.25,-12.75 -2.75,-5.25 -12,-7.5 -18.75,-9 -6.75,-1.5 -17,1.25 -20.25,5 -3.25,3.75 -6.5,8.25 -4.5,10.75 a 42.58,42.58 0 0 0 6.5,5.75 c 0,0 -0.75,7.75 0.25,9.25 l 1,1.5 1.25,-10.25 c 0,0 8.75,-1 14,-2.75 5.25,-1.75 7.75,-2.5 7.75,-2.5 0,0 2.25,4.25 4,5.5 a 12.14,12.14 0 0 1 2.5,2.25 z"
       style="fill:#263238;stroke:#263238;stroke-linecap:round;stroke-linejoin:round"
       id="path182" />
    <path
       d="m 182.75,104 c 0,0 -1.75,21.75 -0.25,25 1.5,3.25 7.75,15.25 17.5,14.25 9.75,-1 13.5,-10.75 14,-16.5 0.5,-5.75 -0.5,-21.25 -0.5,-21.25 0,0 -4.75,-2 -5.25,-4 a 27.63,27.63 0 0 1 -0.5,-5.25 c 0,0 -14.75,9 -25,7.75 z"
       style="fill:#ffffff;stroke:#263238;stroke-linecap:round;stroke-linejoin:round"
       id="path184" />
    <path
       d="m 199,122.75 a 14.51,14.51 0 0 0 -7.25,3 c -3.5,2.75 -5.5,3 -5.5,3 0,0 4.5,5.5 11.25,5.5 6.75,0 11,-3.25 11.75,-5.5 L 210,126.5 a 24.1,24.1 0 0 1 -7.25,-2 19.81,19.81 0 0 0 -3.75,-1.75 z"
       style="fill:#263238;stroke:#263238;stroke-linecap:round;stroke-linejoin:round"
       id="path186" />
    <path
       d="m 196.5,117.5 c 0,0 -0.5,5.5 0,6.5 0.5,1 4.25,3 4.75,0.75 0.5,-2.25 0,-7.25 0,-7.25"
       style="fill:#ffffff;stroke:#263238;stroke-linecap:round;stroke-linejoin:round"
       id="path188" />
    <ellipse
       cx="190.88"
       cy="115.5"
       rx="1.38"
       ry="1.75"
       style="fill:#263238"
       id="ellipse190" />
    <ellipse
       cx="205.75"
       cy="115.5"
       rx="1.38"
       ry="1.75"
       style="fill:#263238"
       id="ellipse192" />
    <path
       d="m 186.75,110.75 c 0,0 1.25,-4 7.5,-1.75"
       style="fill:none;stroke:#263238;stroke-linecap:round;stroke-linejoin:round"
       id="path194" />
    <path
       d="m 201.5,108.75 c 0,0 3.5,-3.25 7.75,1"
       style="fill:none;stroke:#263238;stroke-linecap:round;stroke-linejoin:round"
       id="path196" />
    <polyline
       points="160.17 183.33 165.17 221 155.83 193.67"
       style="fill:none;stroke:#263238;stroke-linecap:round;stroke-linejoin:round"
       id="polyline198" />
    <line
       x1="199.5"
       y1="166.33"
       x2="202.83"
       y2="236.67"
       style="fill:none;stroke:#263238;stroke-linecap:round;stroke-linejoin:round"
       id="line200" />
    <line
       x1="239.17"
       y1="214"
       x2="239.5"
       y2="180.33"
       style="fill:none;stroke:#263238;stroke-linecap:round;stroke-linejoin:round"
       id="line202" />
    <line
       x1="200.5"
       y1="293"
       x2="213.83"
       y2="284.67001"
       style="fill:none;stroke:#808080;stroke-linecap:round;stroke-linejoin:round"
       id="line204" />
    <path
       d="m 179.31,440.56 -2.9,9.19 c 0,0 -6.77,10.88 -6.53,11.85 0.24,0.97 26.84,0 26.84,0 0,0 1.94,0 1.7,-4.11 a 121.52,121.52 0 0 0 -1.94,-12.33 c 0,0 -2.9,-7.5 -8.46,-8.71 -5.56,-1.21 -8.71,2.66 -8.71,4.11 z"
       style="fill:#ffffff;stroke:#263238;stroke-linecap:round;stroke-linejoin:round"
       id="path206" />
    <polygon
       points="253.65,298.05 256.69,286.31 254.75,298.6 "
       style="fill:none;stroke:#263238;stroke-linecap:round;stroke-linejoin:round"
       id="polygon208" />
    <path
       d="m 246.17,271 -2.29,10.88 1,11.23 1.64,0.18 0.62,-7.92 1.16,12.63 4.89,0.93 c 0,0 3.26,-10.71 3.5,-12.57 0.24,-1.86 -0.52,-15.64 -0.52,-15.64 z"
       style="fill:#ffffff;stroke:#263238;stroke-linecap:round;stroke-linejoin:round"
       id="path210" />
    <line
       x1="249.63"
       y1="297.85999"
       x2="251.46001"
       y2="284.34"
       style="fill:none;stroke:#263238;stroke-linecap:round;stroke-linejoin:round"
       id="line212" />
    <line
       x1="251.09"
       y1="298.41"
       x2="254.38"
       y2="285.42999"
       style="fill:none;stroke:#263238;stroke-linecap:round;stroke-linejoin:round"
       id="line214" />
    <path
       d="m 124.83,250 c 0,0 -8,3.67 -10,4.33 -2,0.66 -2.66,3 -5,4.67 -2.34,1.67 -5.33,3.67 -3.66,4.33 a 7.82,7.82 0 0 0 3.66,0.34 l 3,-3.67 -5.33,11.67 -0.33,4.33 4,1.67 9.33,-5 11.33,-17 z"
       style="fill:#ffffff;stroke:#263238;stroke-linecap:round;stroke-linejoin:round"
       id="path216" />
    <path
       d="m 112.83,260 c 0,0 3.92,3.29 6.35,2.6 2.43,-0.69 4.34,-5.73 4.34,-5.73"
       style="fill:#ffffff;stroke:#263238;stroke-linecap:round;stroke-linejoin:round"
       id="path218" />
    <line
       x1="107.55"
       y1="274.23001"
       x2="113.11"
       y2="266.07001"
       style="fill:#ffffff;stroke:#263238;stroke-linecap:round;stroke-linejoin:round"
       id="line220" />
    <line
       x1="109.12"
       y1="276.48001"
       x2="115.54"
       y2="267.28"
       style="fill:#ffffff;stroke:#263238;stroke-linecap:round;stroke-linejoin:round"
       id="line222" />
    <line
       x1="111.17"
       y1="277.67001"
       x2="118.66"
       y2="268.67001"
       style="fill:#ffffff;stroke:#263238;stroke-linecap:round;stroke-linejoin:round"
       id="line224" />
  </g>
  <g
     id="freepik--character-1--inject-8"
     transform="translate(-23.690164,-52.27358)">
    <path
       d="m 135.75,438.65 a 31.46,31.46 0 0 0 2,5.25 c 1,1.75 2.5,7.75 4.5,8.75 2,1 2.75,4 2.75,6 0,2 -0.5,2.5 -1.75,2.5 h -25 c 0,0 -0.25,-3.25 -0.25,-6.25 0,-3 0.5,-7.75 0.5,-9 v -8 a 106.69,106.69 0 0 1 11.25,-0.75 c 5.25,0 6,1.5 6,1.5 z"
       style="fill:#ffffff;stroke:#263238;stroke-linecap:round;stroke-linejoin:round"
       id="path227" />
    <path
       d="m 92,437.9 -4.5,11.5 c 0,0 -5.75,5.5 -5.75,7.75 0,2.25 1.25,3.25 2,3.25 h 25.5 a 21.84,21.84 0 0 0 0.25,-8 c -0.75,-3.75 -2.25,-9.5 -2.25,-9.5 l -10,-5.25 z"
       style="fill:#ffffff;stroke:#263238;stroke-linecap:round;stroke-linejoin:round"
       id="path229" />
    <path
       d="m 87.25,337.15 4.75,88.5 c 0,0 -3.25,5.5 -2.5,7 a 45,45 0 0 1 1.75,6.75 l 9.25,5.5 c 0,0 6.5,-1 6.75,-2 0.25,-1 1,-6.5 1.25,-10 0.25,-3.5 -1.25,-6.75 -1,-10.25 0.25,-3.5 5.5,-71.25 5.5,-71.25 l 1.75,-0.5 3.75,81 a 18.71,18.71 0 0 0 -1.25,4 c -0.25,1.75 2.25,5.25 2.25,5.25 0,0 0,3 1.5,3.5 1.5,0.5 4.75,-0.5 5.75,-1.5 1,-1 0.5,-4 2.75,-4.5 2.25,-0.5 6.75,1.75 6.75,1.75 a 66.34,66.34 0 0 0 0,-7.25 C 136,430.9 133.5,427.4 133.5,427.4 l 3.25,-65.25 -1,-25 z"
       style="fill:#263238;stroke:#263238;stroke-linecap:round;stroke-linejoin:round"
       id="path231" />
    <path
       d="m 150.25,296.4 -2,48 c 0,0 2,11.5 2,12.25 0,0.75 -1,5.75 -2.75,7.25 a 1.66,1.66 0 0 1 -2.75,-0.5 l 0.5,-2.75 -1.25,-6 -1.75,6.75 c 0,0 -2.25,0.25 -1.75,-2.75 0.5,-3 0.25,-8.25 0.75,-10 a 18.89,18.89 0 0 0 0.5,-4.25 c 0,0 -5,-25.75 -5,-26.5 0,-0.75 -1.25,-19.75 -1.25,-19.75 z"
       style="fill:#ffffff;stroke:#263238;stroke-linecap:round;stroke-linejoin:round"
       id="path233" />
    <circle
       cx="68.879997"
       cy="321.01999"
       r="18.879999"
       style="fill:#ffffff;stroke:#263238;stroke-linecap:round;stroke-linejoin:round"
       id="circle235" />
    <path
       d="m 60.5,283.65 c 0,0 -8.25,10.25 -8.75,11.5 -0.5,1.25 -8.75,29 -8,31.75 0.75,2.75 3.75,8.75 4.5,10.75 0.75,2 9,6.25 11.75,6.25 1.58,0 3.58,-1.16 5,-2.15 a 1.34,1.34 0 0 0 -0.15,-2.29 28.53,28.53 0 0 1 -3.09,-1.81 c -1.75,-1.25 -3.25,-2.5 -3.25,-2.5 0,0 3.5,2.75 3.75,0.75 0.25,-2 -2,-3.5 -2.75,-5 a 27.35,27.35 0 0 0 -5,-5.5 l -3,-2 c 0,0 -1,-8 1.25,-11.75 A 19.57,19.57 0 0 1 58,305.9 l 5,-7.5 4.75,-4 z"
       style="fill:#ffffff;stroke:#263238;stroke-linecap:round;stroke-linejoin:round"
       id="path237" />
    <line
       x1="58.5"
       y1="335.14999"
       x2="52"
       y2="331.64999"
       style="fill:#ffffff;stroke:#263238;stroke-linecap:round;stroke-linejoin:round"
       id="line239" />
    <path
       d="m 105.75,248.15 -24.5,8.5 -24.25,28 11.25,14.5 17,-11.75 0.5,51.5 a 101.47,101.47 0 0 0 24,5 c 13,1 27,-5 27,-5 l 2,-35.75 17.25,-5.25 c 0,0 -12,-33.25 -14.25,-37.25 -2.25,-4 -22.25,-11.25 -22.25,-11.25 0,0 -8.25,-2.25 -13.75,-1.25 z"
       style="fill:#0b4f6c;stroke:#263238;stroke-linecap:round;stroke-linejoin:round"
       id="path241" />
    <line
       x1="138.75"
       y1="303.14999"
       x2="139.5"
       y2="269.14999"
       style="fill:#ffffff;stroke:#263238;stroke-linecap:round;stroke-linejoin:round"
       id="line243" />
    <line
       x1="85.25"
       y1="287.39999"
       x2="82.5"
       y2="272.64999"
       style="fill:#ffffff;stroke:#263238;stroke-linecap:round;stroke-linejoin:round"
       id="line245" />
    <path
       d="m 104.25,238.4 c 0,0 0.75,11 0.5,13 -0.25,2 1,9 6,9.75 5,0.75 9.75,-8.25 10.25,-9 0.5,-0.75 -0.5,-7.5 -0.5,-7.5 z"
       style="fill:#ffffff;stroke:#263238;stroke-linecap:round;stroke-linejoin:round"
       id="path247" />
    <path
       d="m 121.14,251 c 0,-2.14 -0.64,-6.35 -0.64,-6.35 l -16.25,-6.25 c 0,0 0.1,1.47 0.21,3.43 a 20.83,20.83 0 0 0 9.33,7 56.36,56.36 0 0 0 7.35,2.17 z"
       style="fill:#263238;stroke:#263238;stroke-linecap:round;stroke-linejoin:round"
       id="path249" />
    <path
       d="m 127.25,210.15 c 0,0 -2.75,-6.25 -12.5,-8 -9.75,-1.75 -20.5,2.75 -24.25,11.75 -3.75,9 4.5,18.25 4.5,18.25 0,0 8.5,8.25 10.25,10 1.75,1.75 4,4.25 8.5,4.75 4.5,0.5 11.25,1.25 13.75,0 2.5,-1.25 3.5,-6 4,-7 0.5,-1 2.5,-8.75 1,-12.5 a 16.33,16.33 0 0 0 -3.75,-5.75 c 0,0 0.25,-7.25 -1.5,-11.5 z"
       style="fill:#ffffff;stroke:#263238;stroke-linecap:round;stroke-linejoin:round"
       id="path251" />
    <path
       d="m 126.25,212.15 a 11.24,11.24 0 0 0 1.22,-1.41 c -0.07,-0.2 -0.14,-0.4 -0.22,-0.59 0,0 -2.75,-6.25 -12.5,-8 -9.75,-1.75 -20.5,2.75 -24.25,11.75 -3.75,9 4.5,18.25 4.5,18.25 l 2.91,2.85 a 4.06,4.06 0 0 1 1.34,-1.33 c 1.75,-1 3.75,2.5 3.75,2.5 a 3.17,3.17 0 0 0 2,-1.75 c 0.75,-1.5 -2.5,-6.25 -2.5,-6.25 a 17.73,17.73 0 0 1 3.5,-4.75 c 2.5,-2.5 6.75,-10 6.75,-10 l 0.5,3.75 a 11.46,11.46 0 0 0 4,-1.5 c 1.25,-1 3.5,-3 3.5,-3 l -0.5,4 a 37.64,37.64 0 0 0 6,-4.52 z"
       style="fill:#263238;stroke:#263238;stroke-linecap:round;stroke-linejoin:round"
       id="path253" />
    <path
       d="m 126.75,228.15 c 0,0 4.25,3.25 3,4.75 a 4.23,4.23 0 0 1 -3,1.5"
       style="fill:none;stroke:#263238;stroke-linecap:round;stroke-linejoin:round"
       id="path255" />
    <path
       d="m 119.5,237.65 a 6.49,6.49 0 0 0 7.25,1"
       style="fill:none;stroke:#263238;stroke-linecap:round;stroke-linejoin:round"
       id="path257" />
    <path
       d="m 119,228.46 c 0.15,0.95 -0.28,1.81 -1,1.92 -0.72,0.11 -1.36,-0.58 -1.5,-1.54 -0.14,-0.96 0.28,-1.81 1,-1.92 0.72,-0.11 1.34,0.58 1.5,1.54 z"
       style="fill:#263238"
       id="path259" />
    <path
       d="m 128,225 c 0.15,0.95 -0.28,1.81 -1,1.92 -0.72,0.11 -1.36,-0.58 -1.5,-1.54 -0.14,-0.96 0.28,-1.81 1,-1.92 0.72,-0.11 1.34,0.54 1.5,1.54 z"
       style="fill:#263238"
       id="path261" />
    <path
       d="m 114,225.65 a 5.22,5.22 0 0 1 4.75,-3"
       style="fill:none;stroke:#263238;stroke-linecap:round;stroke-linejoin:round"
       id="path263" />
    <path
       d="m 124.25,221.4 c 0,0 2.5,-2.25 4,-2"
       style="fill:none;stroke:#263238;stroke-linecap:round;stroke-linejoin:round"
       id="path265" />
    <path
       d="m 105.75,236.4 c 0,0 -3.25,-7 -6.75,-6.5 -3.5,0.5 -3.75,6 -0.75,9 3,3 7,1.25 7,1.25"
       style="fill:#ffffff;stroke:#263238;stroke-linecap:round;stroke-linejoin:round"
       id="path267" />
  </g>
</svg>
