<?xml version="1.0" encoding="UTF-8" standalone="no"?>
<svg
   viewBox="0 0 200.39 386.33017"
   version="1.1"
   id="svg155"
   sodipodi:docname="kpl-application.svg"
   width="200.39"
   height="386.33017"
   inkscape:version="1.1 (c68e22c387, 2021-05-23)"
   xmlns:inkscape="http://www.inkscape.org/namespaces/inkscape"
   xmlns:sodipodi="http://sodipodi.sourceforge.net/DTD/sodipodi-0.dtd"
   xmlns="http://www.w3.org/2000/svg"
   xmlns:svg="http://www.w3.org/2000/svg">
  <defs
     id="defs159" />
  <sodipodi:namedview
     id="namedview157"
     pagecolor="#ffffff"
     bordercolor="#666666"
     borderopacity="1.0"
     inkscape:pageshadow="2"
     inkscape:pageopacity="0.0"
     inkscape:pagecheckerboard="0"
     showgrid="false"
     inkscape:zoom="1.244"
     inkscape:cx="217.44373"
     inkscape:cy="196.14148"
     inkscape:window-width="1368"
     inkscape:window-height="850"
     inkscape:window-x="-6"
     inkscape:window-y="-6"
     inkscape:window-maximized="1"
     inkscape:current-layer="svg155" />
  <g
     id="freepik--Device--inject-8"
     transform="translate(-31.84,-53.499845)">
    <path
       d="m 193.67,60.07 h -52.82 v 0.19 c -1.56,5.63 -5.16,9.28 -9.15,9.28 h -2.29 c -4,0 -7.59,-3.65 -9.15,-9.28 V 60.07 H 67.34 A 26.63,26.63 0 0 0 40.71,86.7 v 322 A 15.29,15.29 0 0 0 56,424 h 149 a 15.29,15.29 0 0 0 15.28,-15.29 V 86.7 A 26.63,26.63 0 0 0 193.67,60.07 Z"
       style="fill:#ffffff;stroke:#263238;stroke-linecap:round;stroke-linejoin:round"
       id="path2" />
    <path
       d="M 220.3,219 V 86.7 A 26.63,26.63 0 0 0 193.67,60.07 h -52.82 v 0.19 c -1.56,5.63 -5.16,9.28 -9.15,9.28 h -2.29 c -4,0 -7.59,-3.65 -9.15,-9.28 V 60.07 H 67.34 A 26.63,26.63 0 0 0 40.71,86.7 V 219 Z"
       style="fill:#0b4f6c;stroke:#263238;stroke-linecap:round;stroke-linejoin:round"
       id="path4" />
    <circle
       cx="68"
       cy="142"
       r="12"
       style="fill:#ffffff;stroke:#263238;stroke-linecap:round;stroke-linejoin:round"
       id="circle6" />
    <polygon
       points="159,174 120,155 40.71,219 220.3,219 220.3,141.99 204,132 "
       style="fill:#ffffff;stroke:#263238;stroke-linecap:round;stroke-linejoin:round"
       id="polygon8" />
    <path
       d="M 220.3,108.62 V 86.7 A 26.63,26.63 0 0 0 193.67,60.07 h -52.82 v 0.19 c -1.56,5.63 -5.16,9.28 -9.15,9.28 h -2.29 c -4,0 -7.59,-3.65 -9.15,-9.28 V 60.07 H 67.34 A 26.63,26.63 0 0 0 40.71,86.7 v 21.92 z"
       style="fill:#c2c2c2;stroke:#263238;stroke-linecap:round;stroke-linejoin:round"
       id="path10" />
    <path
       d="M 220.3,94.46 V 86.7 A 26.63,26.63 0 0 0 193.67,60.07 h -52.82 v 0.19 c -1.56,5.63 -5.16,9.28 -9.15,9.28 h -2.29 c -4,0 -7.59,-3.65 -9.15,-9.28 V 60.07 H 67.34 A 26.63,26.63 0 0 0 40.71,86.7 v 7.76 z"
       style="fill:#ffffff;stroke:#263238;stroke-linecap:round;stroke-linejoin:round"
       id="path12" />
    <path
       d="m 231.73,157.58 v -33.76 h -3 V 80.61 A 26.64,26.64 0 0 0 202,54 H 59 A 26.63,26.63 0 0 0 32.34,80.61 V 412.7 A 26.63,26.63 0 0 0 59,439.33 H 202 A 26.64,26.64 0 0 0 228.64,412.7 V 186.34 h 3 V 166.4 h -3 v -8.82 z M 220.3,393.67 a 26.64,26.64 0 0 1 -26.63,26.64 H 67.34 A 26.64,26.64 0 0 1 40.71,393.67 V 86.7 A 26.63,26.63 0 0 1 67.34,60.07 h 52.82 v 0.19 c 1.56,5.63 5.16,9.28 9.15,9.28 h 2.29 c 4,0 7.59,-3.65 9.15,-9.28 v -0.19 h 52.82 A 26.63,26.63 0 0 1 220.3,86.7 Z"
       style="fill:#0b4f6c;stroke:#263238;stroke-linecap:round;stroke-linejoin:round"
       id="path14" />
    <path
       d="M 197.37,57.65 H 63.64 A 28.21,28.21 0 0 0 35.42,85.87 v 321.58 a 28.22,28.22 0 0 0 28.22,28.22 h 133.73 a 28.22,28.22 0 0 0 28.22,-28.22 V 85.87 A 28.21,28.21 0 0 0 197.37,57.65 Z m 22.93,336 a 26.64,26.64 0 0 1 -26.63,26.64 H 67.34 A 26.64,26.64 0 0 1 40.71,393.65 V 86.7 A 26.63,26.63 0 0 1 67.34,60.07 h 52.82 v 0.19 c 1.56,5.63 5.16,9.28 9.15,9.28 h 2.29 c 4,0 7.59,-3.65 9.15,-9.28 v -0.19 h 52.82 A 26.63,26.63 0 0 1 220.3,86.7 Z"
       style="fill:#263238;stroke:#263238;stroke-linecap:round;stroke-linejoin:round"
       id="path16" />
    <path
       d="m 132.46,61.34 a 2.5,2.5 0 1 0 -2.5,2.5 2.5,2.5 0 0 0 2.5,-2.5 z"
       style="fill:#707070"
       id="path18" />
    <path
       d="m 56.67,70.93 c 0,2.53 -2.84,3.44 -2.86,5.37 v 0.13 h 2.76 v 0.85 h -3.68 v -0.72 c 0,-2.71 2.84,-3.24 2.84,-5.6 0,-0.86 -0.29,-1.32 -1,-1.32 -0.71,0 -1,0.49 -1,1.24 v 0.74 h -0.88 v -0.68 c 0,-1.29 0.59,-2.14 1.88,-2.14 1.29,0 1.94,0.84 1.94,2.13 z"
       style="fill:#263238"
       id="path20" />
    <path
       d="m 61.26,70.91 v 0.22 a 1.68,1.68 0 0 1 -1,1.73 1.66,1.66 0 0 1 1,1.73 v 0.65 c 0,1.28 -0.6,2.12 -1.89,2.12 -1.29,0 -1.89,-0.84 -1.89,-2.12 v -0.57 h 0.88 v 0.63 c 0,0.76 0.31,1.21 1,1.21 0.69,0 1,-0.44 1,-1.29 v -0.65 c 0,-0.83 -0.35,-1.22 -1.06,-1.25 h -0.5 v -0.84 h 0.55 a 1,1 0 0 0 1,-1.15 V 71 c 0,-0.86 -0.3,-1.31 -1,-1.31 -0.7,0 -1,0.47 -1,1.23 v 0.43 h -0.88 v -0.39 c 0,-1.28 0.6,-2.11 1.89,-2.11 1.29,0 1.9,0.78 1.9,2.06 z"
       style="fill:#263238"
       id="path22" />
    <path
       d="m 63.07,71.55 v 1.16 h -0.9 v -1.16 z m 0,4.57 v 1.16 h -0.9 v -1.16 z"
       style="fill:#263238"
       id="path24" />
    <path
       d="m 65,72.3 a 1.35,1.35 0 0 1 1.24,-0.69 c 1.08,0 1.56,0.79 1.56,2 v 1.64 c 0,1.28 -0.61,2.12 -1.89,2.12 -1.28,0 -1.91,-0.85 -1.91,-2.13 v -0.56 h 0.87 v 0.62 c 0,0.76 0.31,1.21 1,1.21 0.69,0 1,-0.45 1,-1.21 v -1.63 c 0,-0.75 -0.31,-1.21 -1,-1.21 a 0.9,0.9 0 0 0 -0.94,0.9 v 0.19 H 64 l 0.23,-4.66 h 3.31 v 0.84 H 65.1 Z"
       style="fill:#263238"
       id="path26" />
    <path
       d="m 72.44,70.9 v 0.16 h -0.88 v -0.22 c 0,-0.75 -0.31,-1.2 -1,-1.2 -0.69,0 -1,0.46 -1,1.36 v 1.88 A 1.34,1.34 0 0 1 70.9,72 c 1.08,0 1.56,0.78 1.56,2 v 1.27 c 0,1.28 -0.63,2.12 -1.92,2.12 -1.29,0 -1.93,-0.84 -1.93,-2.12 V 71 c 0,-1.33 0.6,-2.16 1.93,-2.16 1.33,0 1.9,0.78 1.9,2.06 z M 69.55,74 v 1.3 c 0,0.76 0.31,1.21 1,1.21 0.69,0 1,-0.45 1,-1.21 V 74 c 0,-0.75 -0.33,-1.21 -1,-1.21 -0.67,0 -1,0.5 -1,1.21 z"
       style="fill:#263238"
       id="path28" />
    <rect
       x="161.69"
       y="71.269997"
       width="2.3699999"
       height="5.9200001"
       style="fill:#263238"
       id="rect30" />
    <rect
       x="164.85001"
       y="70.080002"
       width="2.3699999"
       height="7.1100001"
       style="fill:#263238"
       id="rect32" />
    <rect
       x="168.00999"
       y="69.239998"
       width="2.3699999"
       height="7.9499998"
       style="fill:#263238"
       id="rect34" />
    <rect
       x="171.17"
       y="67.779999"
       width="2.3699999"
       height="9.4200001"
       style="fill:#263238"
       id="rect36" />
    <path
       d="m 202.86,77 h -14.22 v -8.66 h 14.22 z m -13.43,-0.79 h 12.64 v -7.08 h -12.64 z"
       style="fill:#263238"
       id="path38" />
    <rect
       x="190.62"
       y="69.989998"
       width="7.5"
       height="5.3899999"
       style="fill:#263238"
       id="rect40" />
    <rect
       x="202.37"
       y="71.660004"
       width="1.79"
       height="2.05"
       style="fill:#263238"
       id="rect42" />
    <path
       d="m 183.43,75.14 a 0.52,0.52 0 0 1 -0.27,-0.07 c -2.9,-1.72 -4.81,-0.13 -4.89,-0.06 a 0.53150729,0.53150729 0 1 1 -0.7,-0.8 c 0.11,-0.09 2.55,-2.18 6.13,-0.06 a 0.54,0.54 0 0 1 0.19,0.73 0.53,0.53 0 0 1 -0.46,0.26 z"
       style="fill:#263238"
       id="path44" />
    <path
       d="m 184.5,73.36 a 0.53,0.53 0 0 1 -0.27,-0.08 c -4.19,-2.49 -7,-0.08 -7,-0.06 a 0.53,0.53 0 0 1 -0.75,0 0.54,0.54 0 0 1 0.05,-0.75 c 0,0 3.43,-2.94 8.27,-0.06 a 0.54,0.54 0 0 1 0.19,0.73 0.55,0.55 0 0 1 -0.49,0.22 z"
       style="fill:#263238"
       id="path46" />
    <path
       d="m 185.47,71.29 a 0.52,0.52 0 0 1 -0.27,-0.07 c -5.3,-3.15 -8.82,-0.19 -9,-0.06 a 0.53150729,0.53150729 0 1 1 -0.7,-0.8 c 0,0 4.23,-3.62 10.21,-0.06 a 0.54,0.54 0 0 1 0.19,0.73 0.53,0.53 0 0 1 -0.43,0.26 z"
       style="fill:#263238"
       id="path48" />
    <path
       d="M 181.83,76 A 1.33,1.33 0 1 1 180.5,74.67 1.33,1.33 0 0 1 181.83,76 Z"
       style="fill:#263238"
       id="path50" />
    <line
       x1="176.25999"
       y1="76.5"
       x2="184.92999"
       y2="68.010002"
       style="fill:none;stroke:#0b4f6c;stroke-linecap:round;stroke-linejoin:round"
       id="line52" />
    <line
       x1="109.04"
       y1="236"
       x2="123"
       y2="236"
       style="fill:none;stroke:#263238;stroke-linecap:round;stroke-linejoin:round"
       id="line54" />
    <line
       x1="72.529999"
       y1="236"
       x2="105.46"
       y2="236"
       style="fill:none;stroke:#263238;stroke-linecap:round;stroke-linejoin:round"
       id="line56" />
    <line
       x1="47"
       y1="236"
       x2="67.519997"
       y2="236"
       style="fill:none;stroke:#263238;stroke-linecap:round;stroke-linejoin:round"
       id="line58" />
    <line
       x1="110.11"
       y1="245"
       x2="123"
       y2="245"
       style="fill:none;stroke:#263238;stroke-linecap:round;stroke-linejoin:round"
       id="line60" />
    <line
       x1="47"
       y1="245"
       x2="106.17"
       y2="245"
       style="fill:none;stroke:#263238;stroke-linecap:round;stroke-linejoin:round"
       id="line62" />
    <line
       x1="75.389999"
       y1="254"
       x2="123"
       y2="254"
       style="fill:none;stroke:#263238;stroke-linecap:round;stroke-linejoin:round"
       id="line64" />
    <line
       x1="47"
       y1="254"
       x2="71.809998"
       y2="254"
       style="fill:none;stroke:#263238;stroke-linecap:round;stroke-linejoin:round"
       id="line66" />
    <line
       x1="114.41"
       y1="263"
       x2="123"
       y2="263"
       style="fill:none;stroke:#263238;stroke-linecap:round;stroke-linejoin:round"
       id="line68" />
    <line
       x1="47"
       y1="263"
       x2="110.47"
       y2="263"
       style="fill:none;stroke:#263238;stroke-linecap:round;stroke-linejoin:round"
       id="line70" />
    <line
       x1="90.07"
       y1="272"
       x2="123"
       y2="272"
       style="fill:none;stroke:#263238;stroke-linecap:round;stroke-linejoin:round"
       id="line72" />
    <line
       x1="47"
       y1="272"
       x2="86.489998"
       y2="272"
       style="fill:none;stroke:#263238;stroke-linecap:round;stroke-linejoin:round"
       id="line74" />
    <line
       x1="86.849998"
       y1="281"
       x2="123"
       y2="281"
       style="fill:none;stroke:#263238;stroke-linecap:round;stroke-linejoin:round"
       id="line76" />
    <line
       x1="58.209999"
       y1="281"
       x2="82.550003"
       y2="281"
       style="fill:none;stroke:#263238;stroke-linecap:round;stroke-linejoin:round"
       id="line78" />
    <line
       x1="47"
       y1="281"
       x2="55.349998"
       y2="281"
       style="fill:none;stroke:#263238;stroke-linecap:round;stroke-linejoin:round"
       id="line80" />
    <line
       x1="81.839996"
       y1="290"
       x2="123"
       y2="290"
       style="fill:none;stroke:#263238;stroke-linecap:round;stroke-linejoin:round"
       id="line82" />
    <line
       x1="47"
       y1="290"
       x2="78.610001"
       y2="290"
       style="fill:none;stroke:#263238;stroke-linecap:round;stroke-linejoin:round"
       id="line84" />
    <line
       x1="117.63"
       y1="299"
       x2="123"
       y2="299"
       style="fill:none;stroke:#263238;stroke-linecap:round;stroke-linejoin:round"
       id="line86" />
    <line
       x1="47"
       y1="299"
       x2="112.62"
       y2="299"
       style="fill:none;stroke:#263238;stroke-linecap:round;stroke-linejoin:round"
       id="line88" />
    <line
       x1="67.879997"
       y1="308"
       x2="123"
       y2="308"
       style="fill:none;stroke:#263238;stroke-linecap:round;stroke-linejoin:round"
       id="line90" />
    <line
       x1="47"
       y1="308"
       x2="63.580002"
       y2="308"
       style="fill:none;stroke:#263238;stroke-linecap:round;stroke-linejoin:round"
       id="line92" />
    <line
       x1="94.720001"
       y1="317"
       x2="123"
       y2="317"
       style="fill:none;stroke:#263238;stroke-linecap:round;stroke-linejoin:round"
       id="line94" />
    <line
       x1="47"
       y1="317"
       x2="91.5"
       y2="317"
       style="fill:none;stroke:#263238;stroke-linecap:round;stroke-linejoin:round"
       id="line96" />
    <line
       x1="76.82"
       y1="326"
       x2="123"
       y2="326"
       style="fill:none;stroke:#263238;stroke-linecap:round;stroke-linejoin:round"
       id="line98" />
    <line
       x1="47"
       y1="326"
       x2="70.739998"
       y2="326"
       style="fill:none;stroke:#263238;stroke-linecap:round;stroke-linejoin:round"
       id="line100" />
    <line
       x1="88.989998"
       y1="335"
       x2="123"
       y2="335"
       style="fill:none;stroke:#263238;stroke-linecap:round;stroke-linejoin:round"
       id="line102" />
    <line
       x1="47"
       y1="335"
       x2="84.339996"
       y2="335"
       style="fill:none;stroke:#263238;stroke-linecap:round;stroke-linejoin:round"
       id="line104" />
    <line
       x1="110.47"
       y1="344"
       x2="123"
       y2="344"
       style="fill:none;stroke:#263238;stroke-linecap:round;stroke-linejoin:round"
       id="line106" />
    <line
       x1="65.010002"
       y1="344"
       x2="107.25"
       y2="344"
       style="fill:none;stroke:#263238;stroke-linecap:round;stroke-linejoin:round"
       id="line108" />
    <line
       x1="47"
       y1="344"
       x2="61.43"
       y2="344"
       style="fill:none;stroke:#263238;stroke-linecap:round;stroke-linejoin:round"
       id="line110" />
    <rect
       x="134.09"
       y="237.89"
       width="11.1"
       height="89.839996"
       style="fill:#0b4f6c;stroke:#263238;stroke-linecap:round;stroke-linejoin:round"
       id="rect112" />
    <rect
       x="151.99001"
       y="273.67999"
       width="11.1"
       height="54.049999"
       style="fill:#263238;stroke:#263238;stroke-linecap:round;stroke-linejoin:round"
       id="rect114" />
    <rect
       x="169.88"
       y="290.85999"
       width="11.1"
       height="36.869999"
       style="fill:#0b4f6c;stroke:#263238;stroke-linecap:round;stroke-linejoin:round"
       id="rect116" />
    <rect
       x="187.78"
       y="256.5"
       width="11.1"
       height="71.230003"
       style="fill:#263238;stroke:#263238;stroke-linecap:round;stroke-linejoin:round"
       id="rect118" />
    <rect
       x="205.67999"
       y="310.19"
       width="11.1"
       height="17.540001"
       style="fill:#0b4f6c;stroke:#263238;stroke-linecap:round;stroke-linejoin:round"
       id="rect120" />
    <line
       x1="134.5"
       y1="337"
       x2="215.5"
       y2="337"
       style="fill:none;stroke:#263238;stroke-linecap:round;stroke-linejoin:round"
       id="line122" />
    <line
       x1="134.5"
       y1="231.5"
       x2="215.5"
       y2="231.5"
       style="fill:none;stroke:#263238;stroke-linecap:round;stroke-linejoin:round"
       id="line124" />
    <line
       x1="134.5"
       y1="344"
       x2="215.5"
       y2="344"
       style="fill:none;stroke:#263238;stroke-linecap:round;stroke-linejoin:round"
       id="line126" />
    <line
       x1="47.029999"
       y1="366.34"
       x2="214.42"
       y2="366.34"
       style="fill:none;stroke:#263238;stroke-linecap:round;stroke-linejoin:round"
       id="line128" />
    <line
       x1="57.119999"
       y1="376.42001"
       x2="95.709999"
       y2="376.42001"
       style="fill:none;stroke:#263238;stroke-linecap:round;stroke-linejoin:round"
       id="line130" />
    <line
       x1="57.119999"
       y1="382.47"
       x2="82.660004"
       y2="382.47"
       style="fill:none;stroke:#263238;stroke-linecap:round;stroke-linejoin:round"
       id="line132" />
    <line
       x1="57.119999"
       y1="388.51999"
       x2="95.709999"
       y2="388.51999"
       style="fill:none;stroke:#263238;stroke-linecap:round;stroke-linejoin:round"
       id="line134" />
    <line
       x1="57.119999"
       y1="394.57001"
       x2="79.970001"
       y2="394.57001"
       style="fill:none;stroke:#263238;stroke-linecap:round;stroke-linejoin:round"
       id="line136" />
    <line
       x1="112.78"
       y1="376.42001"
       x2="135.77"
       y2="376.42001"
       style="fill:none;stroke:#263238;stroke-linecap:round;stroke-linejoin:round"
       id="line138" />
    <line
       x1="112.78"
       y1="382.47"
       x2="151.37"
       y2="382.47"
       style="fill:none;stroke:#263238;stroke-linecap:round;stroke-linejoin:round"
       id="line140" />
    <line
       x1="112.78"
       y1="388.51999"
       x2="140.47"
       y2="388.51999"
       style="fill:none;stroke:#263238;stroke-linecap:round;stroke-linejoin:round"
       id="line142" />
    <line
       x1="112.78"
       y1="394.57001"
       x2="151.37"
       y2="394.57001"
       style="fill:none;stroke:#263238;stroke-linecap:round;stroke-linejoin:round"
       id="line144" />
    <line
       x1="168.42999"
       y1="376.42001"
       x2="207.02"
       y2="376.42001"
       style="fill:none;stroke:#263238;stroke-linecap:round;stroke-linejoin:round"
       id="line146" />
    <line
       x1="168.42999"
       y1="382.47"
       x2="187.53"
       y2="382.47"
       style="fill:none;stroke:#263238;stroke-linecap:round;stroke-linejoin:round"
       id="line148" />
    <line
       x1="168.42999"
       y1="388.51999"
       x2="207.02"
       y2="388.51999"
       style="fill:none;stroke:#263238;stroke-linecap:round;stroke-linejoin:round"
       id="line150" />
    <line
       x1="168.42999"
       y1="394.57001"
       x2="196.27"
       y2="394.57001"
       style="fill:none;stroke:#263238;stroke-linecap:round;stroke-linejoin:round"
       id="line152" />
  </g>
</svg>
