<?xml version="1.0" encoding="UTF-8" standalone="no"?>
<svg
   viewBox="0 0 403.62793 353.58621"
   version="1.1"
   id="svg217"
   sodipodi:docname="kpl-accueil-approche.svg"
   width="403.62793"
   height="353.58621"
   inkscape:version="1.1 (c68e22c387, 2021-05-23)"
   xmlns:inkscape="http://www.inkscape.org/namespaces/inkscape"
   xmlns:sodipodi="http://sodipodi.sourceforge.net/DTD/sodipodi-0.dtd"
   xmlns="http://www.w3.org/2000/svg"
   xmlns:svg="http://www.w3.org/2000/svg">
  <defs
     id="defs221" />
  <sodipodi:namedview
     id="namedview219"
     pagecolor="#ffffff"
     bordercolor="#666666"
     borderopacity="1.0"
     inkscape:pageshadow="2"
     inkscape:pageopacity="0.0"
     inkscape:pagecheckerboard="0"
     showgrid="false"
     inkscape:zoom="1.244"
     inkscape:cx="198.95498"
     inkscape:cy="168.81029"
     inkscape:window-width="1368"
     inkscape:window-height="850"
     inkscape:window-x="-6"
     inkscape:window-y="-6"
     inkscape:window-maximized="1"
     inkscape:current-layer="svg217" />
  <g
     id="freepik--Asteroids--inject-12"
     transform="translate(-50.506034,-81.313793)">
    <path
       d="m 336.13,158.19 -5.42,5.71 A 14.21,14.21 0 0 0 327,176 c 0.69,4.31 1.84,9.22 3.62,10.69 2.1,1.76 8.39,2 12.79,1.89 a 14.14,14.14 0 0 0 8,-2.64 l 8.56,-6.11 a 14.18,14.18 0 0 0 5.6,-14.61 l -0.86,-3.88 a 14.22,14.22 0 0 0 -8.32,-10 v 0 a 14.18,14.18 0 0 0 -14.44,2 l -4.43,3.59 a 14.71,14.71 0 0 0 -1.39,1.26 z"
       style="fill:#263238"
       id="path2" />
    <path
       d="m 147.33,226.21 6.56,4.36 a 14.2,14.2 0 0 0 12.5,1.59 c 4.13,-1.42 8.77,-3.4 9.92,-5.4 1.37,-2.38 0.5,-8.61 -0.34,-12.93 a 14.22,14.22 0 0 0 -4,-7.4 l -7.5,-7.38 a 14.17,14.17 0 0 0 -15.35,-3 l -3.67,1.52 a 14.12,14.12 0 0 0 -8.4,9.9 v 0 a 14.17,14.17 0 0 0 4.49,13.88 l 4.29,3.75 a 15.83,15.83 0 0 0 1.5,1.11 z"
       style="fill:#263238"
       id="path4" />
    <path
       d="m 199.46,168.38 c 0,0 -6.52,0 -6.52,3.43 0,3.43 0.34,6.18 2.4,6.52 a 7.76,7.76 0 0 0 1.82,0 7,7 0 0 0 6.41,-6.65 1.77,1.77 0 0 0 0,-0.22 c 0.01,-1.37 -1.71,-3.77 -4.11,-3.08 z"
       style="fill:#263238"
       id="path6" />
    <path
       d="m 334.63,215.82 c 0,0 -10.64,0 -10.64,5.6 0,5.6 0.56,10.08 3.92,10.64 a 12.7,12.7 0 0 0 3,0 11.43,11.43 0 0 0 10.46,-10.84 c 0,-0.13 0,-0.26 0,-0.37 -0.01,-2.23 -2.82,-6.15 -6.74,-5.03 z"
       style="fill:#263238"
       id="path8" />
    <path
       d="m 309.25,101.42 c 0,0 2.75,10.28 8.16,8.84 5.41,-1.44 9.6,-3.15 9.27,-6.54 a 13,13 0 0 0 -0.76,-2.87 11.41,11.41 0 0 0 -13.17,-7.31 l -0.36,0.09 c -2.17,0.58 -5.23,4.29 -3.14,7.79 z"
       style="fill:#263238"
       id="path10" />
    <path
       d="m 155.92,136.09 c 0,0 2.75,10.28 8.16,8.83 5.41,-1.45 9.59,-3.14 9.27,-6.53 a 13.62,13.62 0 0 0 -0.76,-2.88 11.43,11.43 0 0 0 -13.18,-7.3 l -0.36,0.08 c -2.16,0.58 -5.23,4.3 -3.13,7.8 z"
       style="fill:#263238"
       id="path12" />
    <path
       d="m 111,170.62 c 0,0 -6.52,0 -6.52,3.43 0,3.43 0.34,6.18 2.4,6.52 a 7.76,7.76 0 0 0 1.82,0 7,7 0 0 0 6.41,-6.65 1.77,1.77 0 0 0 0,-0.22 c -0.02,-1.37 -1.74,-3.77 -4.11,-3.08 z"
       style="fill:#263238"
       id="path14" />
    <path
       d="m 220.74,102.85 c 0,0 -6.52,0 -6.52,3.43 0,3.43 0.34,6.18 2.4,6.52 a 7.84,7.84 0 0 0 1.83,0 7,7 0 0 0 6.41,-6.64 v -0.23 c 0,-1.37 -1.72,-3.77 -4.12,-3.08 z"
       style="fill:#263238"
       id="path16" />
    <path
       d="m 360.76,244.55 c 0,0 -6.52,0 -6.52,3.43 0,3.43 0.34,6.18 2.4,6.52 a 7.32,7.32 0 0 0 1.82,0 7,7 0 0 0 6.41,-6.64 1.85,1.85 0 0 0 0,-0.23 c 0.01,-1.37 -1.71,-3.77 -4.11,-3.08 z"
       style="fill:#263238"
       id="path18" />
    <path
       d="m 426.47,253.51 c 0,0 1.56,6.33 4.9,5.51 3.34,-0.82 5.91,-1.82 5.75,-3.9 a 8.13,8.13 0 0 0 -0.43,-1.77 7,7 0 0 0 -8,-4.63 l -0.22,0.05 c -1.32,0.33 -3.24,2.57 -2,4.74 z"
       style="fill:#263238"
       id="path20" />
    <path
       d="m 59.14,246.18 c 0,0 1.56,6.33 4.89,5.5 3.33,-0.83 5.92,-1.81 5.76,-3.89 a 7.87,7.87 0 0 0 -0.43,-1.77 7,7 0 0 0 -8,-4.63 l -0.22,0.05 c -1.33,0.33 -3.25,2.56 -2,4.74 z"
       style="fill:#263238"
       id="path22" />
    <path
       d="m 73.73,253.4 c 0,0 0.72,2.92 2.26,2.54 1.54,-0.38 2.73,-0.84 2.65,-1.8 a 3.7,3.7 0 0 0 -0.2,-0.82 3.23,3.23 0 0 0 -3.68,-2.13 h -0.1 a 1.58,1.58 0 0 0 -0.93,2.21 z"
       style="fill:#263238"
       id="path24" />
    <path
       d="m 313.41,243.79 c 0,0 0.72,2.92 2.26,2.54 1.54,-0.38 2.72,-0.83 2.65,-1.79 a 3.57,3.57 0 0 0 -0.2,-0.82 3.22,3.22 0 0 0 -3.68,-2.13 h -0.1 a 1.57,1.57 0 0 0 -0.93,2.2 z"
       style="fill:#263238"
       id="path26" />
    <path
       d="m 421,221 c 0,0 0.72,2.92 2.26,2.54 1.54,-0.38 2.72,-0.84 2.65,-1.8 a 3.51,3.51 0 0 0 -0.2,-0.81 3.23,3.23 0 0 0 -3.68,-2.14 h -0.1 A 1.58,1.58 0 0 0 421,221 Z"
       style="fill:#263238"
       id="path28" />
    <path
       d="m 345.09,139.78 c 0,0 3,5.81 6,4.24 3,-1.57 5.34,-3.12 4.71,-5.11 a 8.37,8.37 0 0 0 -0.83,-1.63 7,7 0 0 0 -8.84,-2.67 l -0.2,0.1 c -1.19,0.62 -2.55,3.29 -0.84,5.07 z"
       style="fill:#263238"
       id="path30" />
    <path
       d="m 285.75,87.11 c 0,0 3,5.81 6,4.24 3,-1.57 5.35,-3.12 4.71,-5.11 a 7.69,7.69 0 0 0 -0.82,-1.62 7,7 0 0 0 -8.84,-2.68 l -0.2,0.1 c -1.2,0.63 -2.55,3.25 -0.85,5.07 z"
       style="fill:#263238"
       id="path32" />
    <path
       d="m 178.42,102.45 c 0,0 3,5.8 6,4.24 3,-1.56 5.34,-3.12 4.71,-5.11 a 7.84,7.84 0 0 0 -0.83,-1.63 7,7 0 0 0 -8.83,-2.68 l -0.21,0.1 c -1.19,0.63 -2.55,3.25 -0.84,5.08 z"
       style="fill:#263238"
       id="path34" />
    <path
       d="m 247.55,118.17 c 0,0 2.44,-0.33 2.27,-1.61 -0.17,-1.28 -0.44,-2.29 -1.22,-2.32 a 3.34,3.34 0 0 0 -0.69,0.09 2.64,2.64 0 0 0 -2.06,2.8 c 0,0 0,0.06 0,0.09 a 1.29,1.29 0 0 0 1.7,0.95 z"
       style="fill:#263238"
       id="path36" />
    <path
       d="m 315.25,171.93 c 0,0 -5.52,-9.09 -10.31,-6.19 -4.79,2.9 -8.32,5.71 -7.06,8.87 a 12.74,12.74 0 0 0 1.53,2.55 11.42,11.42 0 0 0 14.69,3.32 l 0.33,-0.18 c 1.91,-1.17 3.81,-5.59 0.82,-8.37 z"
       style="fill:#263238"
       id="path38" />
    <path
       d="m 105.92,232 c 0,0 -5.52,-9.1 -10.31,-6.19 -4.79,2.91 -8.33,5.7 -7.06,8.87 a 12.82,12.82 0 0 0 1.53,2.55 11.42,11.42 0 0 0 14.69,3.32 l 0.33,-0.19 c 1.9,-1.14 3.81,-5.57 0.82,-8.36 z"
       style="fill:#263238"
       id="path40" />
    <path
       d="m 169.77,168.73 c 0,0 -5.52,-9.09 -10.31,-6.19 -4.79,2.9 -8.33,5.71 -7.06,8.87 a 12.55,12.55 0 0 0 1.53,2.55 11.42,11.42 0 0 0 14.69,3.32 l 0.32,-0.19 c 1.92,-1.16 3.82,-5.59 0.83,-8.36 z"
       style="fill:#263238"
       id="path42" />
    <path
       d="m 394.35,179.37 c 0,0 -5.51,-9.09 -10.3,-6.19 -4.79,2.9 -8.33,5.71 -7.07,8.87 a 12.85,12.85 0 0 0 1.54,2.55 11.42,11.42 0 0 0 14.69,3.32 l 0.32,-0.18 c 1.92,-1.17 3.82,-5.59 0.82,-8.37 z"
       style="fill:#263238"
       id="path44" />
    <path
       d="m 293.44,96.3 c 0,0 -10.55,1.38 -9.83,6.93 0.72,5.55 1.86,9.93 5.27,10 a 12.71,12.71 0 0 0 2.95,-0.38 11.42,11.42 0 0 0 9,-12.1 c 0,-0.13 0,-0.26 0,-0.37 -0.36,-2.17 -3.65,-5.69 -7.39,-4.08 z"
       style="fill:#263238"
       id="path46" />
    <path
       d="m 448.12,224.74 c 0,0 -5.52,-9.1 -10.31,-6.19 -4.79,2.91 -8.33,5.7 -7.06,8.87 a 12.51,12.51 0 0 0 1.53,2.54 11.42,11.42 0 0 0 14.72,3.33 l 0.33,-0.19 c 1.88,-1.16 3.78,-5.59 0.79,-8.36 z"
       style="fill:#263238"
       id="path48" />
  </g>
  <g
     id="freepik--Background--inject-12"
     transform="translate(-50.506034,-81.313793)">
    <path
       d="M 303.35,147.5 H 196.07 a 2.49,2.49 0 0 1 -1.7,-0.67 l -42.15,-39.18 a 2.5011847,2.5011847 0 1 1 3.41,-3.66 l 41.42,38.51 H 302.37 L 343.8,104 a 2.5,2.5 0 0 1 3.4,3.66 l -42.14,39.18 a 2.52,2.52 0 0 1 -1.71,0.66 z"
       style="fill:#ffffff;stroke:#263238;stroke-linecap:round;stroke-linejoin:round"
       id="path51" />
    <path
       d="m 127.41,253.45 -7.9,-33.94 a 15,15 0 0 0 -9.57,-10.85 L 54.3,189.14 a 2.47,2.47 0 0 0 -3.17,1.62 2.61,2.61 0 0 0 1.57,3.24 l 55.64,19.53 a 9.88,9.88 0 0 1 6.31,7.15 l 7.9,33.94 a 10.47,10.47 0 0 1 -0.67,6.69 l -14.41,31.21 7,-3.24 11.88,-25.73 a 15.79,15.79 0 0 0 1.06,-10.1 z"
       style="fill:#ffffff;stroke:#263238;stroke-linecap:round;stroke-linejoin:round"
       id="path53" />
    <path
       d="m 453.51,190.76 a 2.48,2.48 0 0 0 -3.17,-1.62 l -55.64,19.52 a 15,15 0 0 0 -9.57,10.85 l -7.91,33.94 a 15.79,15.79 0 0 0 1,10.14 l 12.6,27.28 6.78,3.13 a 2.66,2.66 0 0 0 -0.24,-0.95 l -14.63,-31.7 a 10.4,10.4 0 0 1 -0.68,-6.69 L 390,220.72 a 9.88,9.88 0 0 1 6.31,-7.15 L 451.94,194 a 2.61,2.61 0 0 0 1.57,-3.24 z"
       style="fill:#ffffff;stroke:#263238;stroke-linecap:round;stroke-linejoin:round"
       id="path55" />
    <polygon
       points="210.65,252.51 288.78,252.51 305.52,297.31 193.9,297.31 "
       style="fill:#ffffff;stroke:#263238;stroke-linecap:round;stroke-linejoin:round"
       id="polygon57" />
    <polygon
       points="218.48,257 280.95,257 294.33,292.82 205.09,292.82 "
       style="fill:#263238;stroke:#263238;stroke-linecap:round;stroke-linejoin:round"
       id="polygon59" />
    <polygon
       points="316.82,308.02 305.52,297.31 288.78,252.51 316.82,279.57 "
       style="fill:#263238;stroke:#263238;stroke-linecap:round;stroke-linejoin:round"
       id="polygon61" />
    <polygon
       points="182.59,308.02 193.89,297.31 210.63,252.51 182.59,279.57 "
       style="fill:#263238;stroke:#263238;stroke-linecap:round;stroke-linejoin:round"
       id="polygon63" />
    <polygon
       points="133.64,317.33 182.59,308.02 182.59,279.57 133.64,288.67 "
       style="fill:#ffffff;stroke:#263238;stroke-linecap:round;stroke-linejoin:round"
       id="polygon65" />
    <polygon
       points="365.8,317.33 316.85,308.02 316.85,279.57 365.8,288.67 "
       style="fill:#ffffff;stroke:#263238;stroke-linecap:round;stroke-linejoin:round"
       id="polygon67" />
    <path
       d="m 192.52,254.63 c 0,0 -67.41,28.08 -126.39,59"
       style="fill:none;stroke:#263238;stroke-linecap:round;stroke-linejoin:round"
       id="path69" />
    <path
       d="m 310.18,254.63 c 0,0 67.41,28.08 126.39,59"
       style="fill:none;stroke:#263238;stroke-linecap:round;stroke-linejoin:round"
       id="path71" />
    <circle
       cx="140.84"
       cy="294.88"
       r="4.9299998"
       style="fill:#a61c3c"
       id="circle73" />
    <circle
       cx="157.88"
       cy="292.34"
       r="4.9299998"
       style="fill:#a61c3c"
       id="circle75" />
    <polygon
       points="137.06,308.21 139.3,307.79 139.3,312.74 137.06,313.16 "
       style="fill:#a61c3c"
       id="polygon77" />
    <polygon
       points="140.1,304.13 142.34,303.71 142.34,312.16 140.1,312.59 "
       style="fill:#a61c3c"
       id="polygon79" />
    <polygon
       points="143.13,308.84 145.37,308.42 145.37,311.59 143.13,312.01 "
       style="fill:#a61c3c"
       id="polygon81" />
    <polygon
       points="146.17,304.7 148.41,304.28 148.41,311.01 146.17,311.44 "
       style="fill:#a61c3c"
       id="polygon83" />
    <polygon
       points="149.21,305.91 151.44,305.49 151.44,310.44 149.21,310.86 "
       style="fill:#a61c3c"
       id="polygon85" />
    <polygon
       points="152.24,308.2 154.48,307.78 154.48,309.86 152.24,310.29 "
       style="fill:#a61c3c"
       id="polygon87" />
    <polygon
       points="155.28,306.94 157.51,306.52 157.51,309.29 155.28,309.71 "
       style="fill:#a61c3c"
       id="polygon89" />
    <polygon
       points="158.31,304.18 160.54,303.76 160.54,308.71 158.31,309.14 "
       style="fill:#a61c3c"
       id="polygon91" />
    <polygon
       points="161.34,300.11 163.58,299.68 163.58,308.14 161.34,308.56 "
       style="fill:#a61c3c"
       id="polygon93" />
    <polygon
       points="164.38,304.81 166.61,304.39 166.61,307.56 164.38,307.99 "
       style="fill:#a61c3c"
       id="polygon95" />
    <polygon
       points="167.41,300.68 169.65,300.26 169.65,306.99 167.41,307.41 "
       style="fill:#a61c3c"
       id="polygon97" />
    <polygon
       points="170.45,301.88 172.69,301.46 172.69,306.41 170.45,306.84 "
       style="fill:#a61c3c"
       id="polygon99" />
    <polygon
       points="173.48,304.18 175.72,303.76 175.72,305.84 173.48,306.26 "
       style="fill:#a61c3c"
       id="polygon101" />
    <polygon
       points="176.52,302.92 178.75,302.49 178.75,305.26 176.52,305.69 "
       style="fill:#a61c3c"
       id="polygon103" />
    <path
       d="m 352.8,294.88 a 4.93,4.93 0 1 0 4.93,-4.93 4.93,4.93 0 0 0 -4.93,4.93 z"
       style="fill:#a61c3c"
       id="path105" />
    <circle
       cx="340.69"
       cy="292.34"
       r="4.9299998"
       style="fill:#a61c3c"
       id="circle107" />
    <polygon
       points="361.5,308.21 359.26,307.79 359.26,312.74 361.5,313.16 "
       style="fill:#a61c3c"
       id="polygon109" />
    <polygon
       points="358.47,304.13 356.23,303.71 356.23,312.16 358.47,312.59 "
       style="fill:#a61c3c"
       id="polygon111" />
    <polygon
       points="355.43,308.84 353.19,308.42 353.19,311.59 355.43,312.01 "
       style="fill:#a61c3c"
       id="polygon113" />
    <polygon
       points="352.39,304.7 350.16,304.28 350.16,311.01 352.39,311.44 "
       style="fill:#a61c3c"
       id="polygon115" />
    <polygon
       points="349.36,305.91 347.12,305.49 347.12,310.44 349.36,310.86 "
       style="fill:#a61c3c"
       id="polygon117" />
    <polygon
       points="346.32,308.2 344.09,307.78 344.09,309.86 346.32,310.29 "
       style="fill:#a61c3c"
       id="polygon119" />
    <polygon
       points="343.29,306.94 341.05,306.52 341.05,309.29 343.29,309.71 "
       style="fill:#a61c3c"
       id="polygon121" />
    <polygon
       points="340.26,304.18 338.02,303.76 338.02,308.71 340.26,309.14 "
       style="fill:#a61c3c"
       id="polygon123" />
    <polygon
       points="337.22,300.11 334.99,299.68 334.99,308.14 337.22,308.56 "
       style="fill:#a61c3c"
       id="polygon125" />
    <polygon
       points="334.19,304.81 331.95,304.39 331.95,307.56 334.19,307.99 "
       style="fill:#a61c3c"
       id="polygon127" />
    <polygon
       points="331.15,300.68 328.92,300.26 328.92,306.99 331.15,307.41 "
       style="fill:#a61c3c"
       id="polygon129" />
    <polygon
       points="328.12,301.88 325.88,301.46 325.88,306.41 328.12,306.84 "
       style="fill:#a61c3c"
       id="polygon131" />
    <polygon
       points="325.08,304.18 322.85,303.76 322.85,305.84 325.08,306.26 "
       style="fill:#a61c3c"
       id="polygon133" />
    <polygon
       points="322.05,302.92 319.81,302.49 319.81,305.26 322.05,305.69 "
       style="fill:#a61c3c"
       id="polygon135" />
    <line
       x1="365.79999"
       y1="317.32999"
       x2="378.48999"
       y2="373"
       style="fill:none;stroke:#263238;stroke-linecap:round;stroke-linejoin:round"
       id="line137" />
    <line
       x1="133.47"
       y1="317.32999"
       x2="120.78"
       y2="373"
       style="fill:none;stroke:#263238;stroke-linecap:round;stroke-linejoin:round"
       id="line139" />
  </g>
  <g
     id="freepik--Character--inject-12"
     transform="translate(-50.506034,-81.313793)">
    <path
       d="m 218,410.25 c 0,0 -5,5.52 -7.25,8.28 -2.25,2.76 -7.07,5.35 -4.31,8.45 2.76,3.1 8.45,1.73 12.07,-1.38 3.62,-3.11 5,-6.55 6,-6.72 1,-0.17 3.45,0 3.8,-2.76 0.35,-2.76 0.51,-5.18 0.51,-5.18 0,0 -6.16,2.06 -10.82,-0.69 z"
       style="fill:#a61c3c;stroke:#263238;stroke-linecap:round;stroke-linejoin:round"
       id="path142" />
    <path
       d="m 258.89,415.08 c 0,0 -2.25,8.11 -4.32,11.9 -2.07,3.79 -2.24,7.42 1.73,7.42 3.97,0 8.28,-2.41 10.87,-8.45 a 22,22 0 0 0 1,-12.42 c 0,0 -1.69,4.14 -9.28,1.55 z"
       style="fill:#a61c3c;stroke:#263238;stroke-linecap:round;stroke-linejoin:round"
       id="path144" />
    <path
       d="m 224,273.67 c 0,0 7,5 20,5 13,0 29.67,-2 29.67,-2 0,0 2,18.66 0,36.33 -2,17.67 -3,36.33 -1,43.67 2,7.34 -1.67,28.33 -1.67,36.33 0,8 -0.67,17 -1,19.67 -0.33,2.67 -5.67,4 -8.67,3.33 l -3,-0.67 c 0,0 -1,-33 -3.33,-43.66 -2.33,-10.66 -4.67,-40.34 -6.33,-46.67 -1.66,-6.33 -4,-16 -4,-16 l -4,-2 c 0,0 -4,29 -4,39 0,10 1.66,25.67 -0.67,36 -2.33,10.33 -5.67,28 -5.67,28 0,0 -4,1.33 -6.66,0.67 a 36,36 0 0 1 -6,-2.34 c 0,0 2.66,-22 3,-31 0.34,-9 -2.34,-49 -2,-63.33 0.34,-14.33 5.33,-40.33 5.33,-40.33 z"
       style="fill:#263238;stroke:#263238;stroke-linecap:round;stroke-linejoin:round"
       id="path146" />
    <path
       d="m 247.88,195.75 c 0,0 -4.38,1 -6.75,4.25 -2.37,3.25 -5.75,9.87 -6.13,14.25 -0.38,4.38 -1.37,24.25 -2.87,31.62 -1.5,7.37 -5.5,33.63 -5.5,33.63 0,0 10.12,3.87 19.62,3.87 9.5,0 10.63,-0.87 10.63,-0.87 0,0 -3.13,-41.5 -2.25,-52.88 0.88,-11.38 4.5,-26.37 3.25,-29.75 -1.25,-3.38 -6.63,-5.25 -10,-4.12 z"
       style="fill:#ffffff;stroke:#263238;stroke-linecap:round;stroke-linejoin:round"
       id="path148" />
    <path
       d="m 243.38,200.62 a 58.48,58.48 0 0 0 -4.5,11.75 c -2,7.25 -2.75,26 -5,39.88 -2.25,13.88 -9.38,51.12 -9.38,51.12 l -8.75,-7.5 c 0,0 5.38,-33.12 6.75,-45.87 1.37,-12.75 1.88,-18 1.88,-18 0,0 -4.75,10 -7.38,15.5 -2.63,5.5 -8.37,13.37 -11.75,15.37 -3.38,2 -5.37,-2.37 -4.37,-8.12 1,-5.75 13.87,-31 16.12,-36.63 2.25,-5.63 5.11,-13 6.63,-14.12 3.56,-2.77 14.5,-4.25 15.75,-4.75 1.25,-0.5 5.75,-4.13 4,1.37 z"
       style="fill:#a61c3c;stroke:#263238;stroke-linecap:round;stroke-linejoin:round"
       id="path150" />
    <polyline
       points="224.05 218.53 224.38 232 221.16 225.35"
       style="fill:none;stroke:#263238;stroke-linecap:round;stroke-linejoin:round"
       id="polyline152" />
    <path
       d="m 204.52,245.32 c 0,0 4.95,0.71 6.55,5 a 9.62,9.62 0 0 1 -1.42,9.74 c -1.77,2.47 -2.65,5.48 -8.31,5.13 -5.66,-0.35 -5.14,-5.31 -4.43,-8.67 0.71,-3.36 1.59,-8.52 7.61,-11.2 z"
       style="fill:#ffffff;stroke:#263238;stroke-linecap:round;stroke-linejoin:round"
       id="path154" />
    <path
       d="m 255.88,200.25 c 0,0 -4,14.62 -4.88,25.12 -0.88,10.5 -1.5,27.25 -1.25,38.75 0.25,11.5 1.5,41.38 1.5,41.38 0,0 10.38,-3.25 17.88,-6.5 a 75.92,75.92 0 0 0 14.37,-8.63 c 0,0 -4.25,-24.37 -5.75,-34.25 -1.5,-9.88 -2.62,-20.87 -2.62,-20.87 0,0 2.37,-16.25 3,-22.25 0.63,-6 1.12,-9.25 -0.63,-9.88 -1.75,-0.63 -13.12,-3.5 -15.87,-4.5 -2.75,-1 -5.5,-2.25 -5.5,-2.25 a 26.21,26.21 0 0 1 -0.25,3.88 z"
       style="fill:#a61c3c;stroke:#263238;stroke-linecap:round;stroke-linejoin:round"
       id="path156" />
    <path
       d="m 244.38,194 a 6.32,6.32 0 0 0 -4.25,2.75 c -2,2.62 -5.5,9 -6.63,10.75 -1.13,1.75 -1.37,2.25 -1.37,2.25 l 7.25,-0.5 c 0,0 2.5,-6.63 5.25,-9.25 2.75,-2.62 6.87,-2.13 8.25,-0.63 a 3,3 0 0 1 2.12,2.75 53.69,53.69 0 0 1 -0.87,6.75 l 7.87,1.25 A 43.4,43.4 0 0 0 260.25,199 c -1.62,-4.75 -8.75,-6.88 -15.87,-5 z"
       style="fill:#ffffff;stroke:#263238;stroke-linecap:round;stroke-linejoin:round"
       id="path158" />
    <path
       d="m 243.13,190.37 c 0,0 0.37,7.38 -0.5,11.5 -0.87,4.12 3.25,7.5 6.5,6.13 3.25,-1.37 6.5,-4.25 6.75,-7.75 0.25,-3.5 1.25,-16 1.25,-16 0,0 -7.75,4.75 -10.38,5.37 a 5.42,5.42 0 0 1 -4,-0.25 z"
       style="fill:#ffffff;stroke:#263238;stroke-linecap:round;stroke-linejoin:round"
       id="path160" />
    <path
       d="m 240.31,158.93 c 0,0 -1.9,11.34 -2.24,18.18 -0.34,6.84 2.69,15.26 8.53,15.26 5.84,0 13.68,-10.77 13.68,-10.77 0,0 7.18,-8.42 8.42,-15 1.24,-6.58 -8.3,-13.24 -14.36,-14.47 -6.06,-1.23 -10.88,-0.6 -14.03,6.8 z"
       style="fill:#ffffff;stroke:#263238;stroke-linecap:round;stroke-linejoin:round"
       id="path162" />
    <path
       d="m 262.81,167.06 a 3.37,3.37 0 0 1 -0.84,3.4 c -1.05,1.11 -2.59,3 -2.13,4.41 0.22,0.67 5.4,0.73 8.41,-2 3.93,-3.59 2.25,-15.27 -5.16,-19.53 -7.41,-4.26 -14.66,-2.32 -15.33,0.6 -0.67,2.92 14.21,11.52 14.88,12.76 a 2.59,2.59 0 0 1 0.17,0.36 z"
       style="fill:#263238;stroke:#263238;stroke-linecap:round;stroke-linejoin:round"
       id="path164" />
    <polygon
       points="267.44,173.51 261.69,171.35 264.43,158.96 269.24,172.25 "
       style="fill:#ffffff;stroke:#263238;stroke-linecap:round;stroke-linejoin:round"
       id="polygon166" />
    <path
       d="M 265.7,163.71 264.43,159 a 3.73,3.73 0 0 1 -1.12,2.22 c -1.9,1.68 -6.28,1.46 -12.34,-0.79 -6.06,-2.25 -8.08,1.24 -13.24,1.12 -3.23,-0.07 -4.83,-1.45 -5.58,-2.48 h -0.7 l 1.46,7.18 H 233 a 4.15,4.15 0 0 0 2.17,2.69 c 3.59,1.91 6.06,0.56 9.32,0 3.26,-0.56 7.06,1.23 7.06,1.23 4.72,2.47 7.73,2.33 11.11,0.56 1.92,-1.03 4.34,-3.99 3.04,-7.02 z"
       style="fill:#ffffff;stroke:#263238;stroke-linecap:round;stroke-linejoin:round"
       id="path168" />
    <path
       d="m 250,163.65 c 0,0 -3.81,-1.8 -7.07,-1.24 -3.26,0.56 -5.72,1.91 -9.31,0 -3.59,-1.91 -3.7,-7.51 5.39,-10.21 9.09,-2.7 18.3,-0.93 22.55,2 5.5,3.82 2.13,8.64 -0.45,10 -3.42,1.8 -6.44,1.91 -11.11,-0.55 z"
       style="fill:#263238;stroke:#263238;stroke-linecap:round;stroke-linejoin:round"
       id="path170" />
    <path
       d="m 245.81,169 -1.91,1.35 c -1.12,0.78 -0.89,1 -0.22,1.79 a 7.54,7.54 0 0 0 2.36,1.46"
       style="fill:none;stroke:#263238;stroke-linecap:round;stroke-linejoin:round"
       id="path172" />
    <path
       d="m 242.33,176.1 c 0,0 1.35,1.35 5.84,1.35 4.49,0 5.61,-1.69 5.61,-1.69"
       style="fill:none;stroke:#263238;stroke-linecap:round;stroke-linejoin:round"
       id="path174" />
    <path
       d="m 243.79,176.89 c 0,0 0.79,3.25 2.13,3.36 1.34,0.11 3.59,-2.8 3.59,-2.8 0,0 -3.36,0.67 -5.72,-0.56 z"
       style="fill:none;stroke:#263238;stroke-linecap:round;stroke-linejoin:round"
       id="path176" />
    <path
       d="m 266.79,224 c 0,0 -1.58,-2.88 0.52,-11"
       style="fill:none;stroke:#263238;stroke-linecap:round;stroke-linejoin:round"
       id="path178" />
    <path
       d="m 269.83,212.17 c 0,0 -2.83,9.5 -2.66,14.5 0.17,5 -0.5,15.66 -0.5,15.66 a 10.48,10.48 0 0 0 -0.17,7 c 1.33,3.34 11,8.17 14.83,2.5 3.83,-5.67 3.67,-33.16 2.34,-39.33 -1.33,-6.17 -4.17,-9.17 -7.17,-9.67"
       style="fill:#a61c3c;stroke:#263238;stroke-linecap:round;stroke-linejoin:round"
       id="path180" />
    <path
       d="m 277.8,234.27 c -9.7,1.31 -10,5.24 -10,5.24 0,0 -1.84,-4.72 5,-12.06"
       style="fill:none;stroke:#263238;stroke-linecap:round;stroke-linejoin:round"
       id="path182" />
    <path
       d="M 264.67,241.33 A 25,25 0 0 1 275.83,239 c 5.84,0.33 9.67,7.67 9.67,11 a 7,7 0 0 1 -6,6.5 c -3,0.33 -8.67,1.5 -12.67,-3.83 -4,-5.33 -3.66,-5.84 -2.16,-11.34 z"
       style="fill:#ffffff;stroke:#263238;stroke-linecap:round;stroke-linejoin:round"
       id="path184" />
    <path
       d="m 207.17,220.67 c 0,0 1.33,-4.84 2.83,-5.67 1.5,-0.83 6.33,-1.5 5.83,-0.17 -0.5,1.33 -2.83,1.17 -3.33,1.34 -0.5,0.17 -1.33,3.16 -1.5,3.66 -0.17,0.5 -2.33,2.17 -3.83,0.84 z"
       style="fill:none;stroke:#263238;stroke-linecap:round;stroke-linejoin:round"
       id="path186" />
    <path
       d="m 228.67,214 c 0,0 -11.84,0.17 -14,0.67 -2.16,0.5 -1.17,4.16 -0.67,6.33 0.5,2.17 1.67,3.67 2.5,3.67 0.83,0 0,-2.34 1.33,-2.34 1.33,0 8.67,-0.33 9.84,0.5 1.17,0.83 1.66,2.5 2.5,2.17 0.84,-0.33 2.33,-4.17 2,-7.5 a 3.79,3.79 0 0 0 -3.5,-3.5 z"
       style="fill:#263238;stroke:#263238;stroke-linecap:round;stroke-linejoin:round"
       id="path188" />
    <path
       d="m 206.67,219.83 c 0,0 5.66,-1.5 7.33,-1.33 a 2.86,2.86 0 0 1 2.83,2.33 c 0.5,1.5 -1.66,1 -1.66,1 l -2,-0.5 -1.84,0.5 3,1.32 a 3,3 0 0 1 1.78,3.18 1.37,1.37 0 0 1 -0.91,1.17 49.81,49.81 0 0 1 -5,1 c 0,0 1,2.67 -0.34,3.83 a 5.92,5.92 0 0 1 -2,1.34 c 0,0 0.67,13.66 0.17,18.83 -0.5,5.17 -2,10 -5,11 -3,1 -5.5,-1 -4.67,-7.17 0.83,-6.17 6.34,-24.66 6.5,-27.16 0.16,-2.5 1.64,-8 1.81,-9.34 z"
       style="fill:#ffffff;stroke:#263238;stroke-linecap:round;stroke-linejoin:round"
       id="path190" />
    <path
       d="m 207.83,224.67 c 0,0 5.17,-1.84 7.67,0"
       style="fill:none;stroke:#263238;stroke-linecap:round;stroke-linejoin:round"
       id="path192" />
    <path
       d="m 208,227 c 0,0 5.49,-1.68 8.08,-0.67"
       style="fill:none;stroke:#263238;stroke-linecap:round;stroke-linejoin:round"
       id="path194" />
    <path
       d="M 211.33,221.83 A 11.43,11.43 0 0 0 208,221.5"
       style="fill:none;stroke:#263238;stroke-linecap:round;stroke-linejoin:round"
       id="path196" />
    <path
       d="m 283.33,249.5 c 0,0 -1.5,-3.5 -8.16,-7 -5.78,-3 -19.17,-8.67 -24.34,-13 A 79,79 0 0 1 239,216.5 c -1.33,-2 -4.33,-2.83 -5.83,-3.33 -1.5,-0.5 -6.34,0.33 -7.17,1.5 -0.83,1.17 0.5,2 2,1.16 1.5,-0.84 3.17,-0.16 4,0.17 a 17.24,17.24 0 0 1 3,2.67 c 0,0 -5.11,-1.08 -7.83,0.66 -1,0.66 -0.17,3 1,4.67 1.17,1.67 3.5,6 4.66,6.17 a 9.63,9.63 0 0 0 3.5,-0.84 31.25,31.25 0 0 0 4.5,2.5 52.92,52.92 0 0 0 5.67,0.67 135.76,135.76 0 0 0 13.67,13.67 c 5.16,4.21 8.78,7.33 13.5,9.5 4,1.83 12.16,0.66 9.66,-6.17 z"
       style="fill:#ffffff;stroke:#263238;stroke-linecap:round;stroke-linejoin:round"
       id="path198" />
    <line
       x1="233.7"
       y1="228.62"
       x2="236.50999"
       y2="228.62"
       style="fill:none;stroke:#263238;stroke-linecap:round;stroke-linejoin:round"
       id="line200" />
    <path
       d="m 228.17,224 c 0,0 0.5,-3.33 2.16,-3.33 1.66,0 5.84,0.16 5.84,0.16"
       style="fill:none;stroke:#263238;stroke-linecap:round;stroke-linejoin:round"
       id="path202" />
    <path
       d="m 230.09,226.41 c 0,0 0.74,-1.91 1.58,-1.91 h 6.16"
       style="fill:none;stroke:#263238;stroke-linecap:round;stroke-linejoin:round"
       id="path204" />
    <path
       d="m 217.49,402.84 c 0,0 -1.21,7.41 -0.52,8.62 0.69,1.21 5.18,2.07 7.94,2.07 2.76,0 4,0.17 4.83,-1.38 0.83,-1.55 1.55,-5.52 1.89,-7.07 0.34,-1.55 -1.55,-1 -4.65,-1 -3.1,0 -8.11,-2.24 -8.11,-2.24 0,0 -0.69,-0.38 -1.38,1 z"
       style="fill:#ffffff;stroke:#263238;stroke-linecap:round;stroke-linejoin:round"
       id="path206" />
    <path
       d="m 257.33,408.36 c 0,0 -0.51,5.17 0.18,6.9 0.69,1.73 4.48,2.58 6.9,2.41 2.42,-0.17 4.48,-0.69 5.17,-2.07 0.69,-1.38 1,-5.69 1,-6.73 0,-1.04 -3.11,-0.17 -6.39,-0.17 -3.28,0 -5.82,-1.9 -6.86,-0.34 z"
       style="fill:#ffffff;stroke:#263238;stroke-linecap:round;stroke-linejoin:round"
       id="path208" />
    <polyline
       points="238.56 284.75 239.12 297.61 242.29 298.73 242.85 292.58"
       style="fill:none;stroke:#ffffff;stroke-linecap:round;stroke-linejoin:round"
       id="polyline210" />
    <line
       x1="240.67"
       y1="307"
       x2="234.46001"
       y2="304.51001"
       style="fill:none;stroke:#ffffff;stroke-linecap:round;stroke-linejoin:round"
       id="line212" />
    <path
       d="m 262.3,175.54 c 0,0 5.61,-4.94 6.51,-1.12 0.9,3.82 -4.49,6.28 -6.28,6.5 -1.79,0.22 -1.35,-1.68 -1.35,-1.68"
       style="fill:#ffffff;stroke:#263238;stroke-linecap:round;stroke-linejoin:round"
       id="path214" />
  </g>
</svg>
