<?xml version="1.0" encoding="UTF-8" standalone="no"?>
<svg
   viewBox="0 0 666.94922 472.99063"
   version="1.1"
   id="svg741"
   sodipodi:docname="Interior design-bro.svg"
   width="666.94922"
   height="472.99063"
   inkscape:version="1.1 (c68e22c387, 2021-05-23)"
   xmlns:inkscape="http://www.inkscape.org/namespaces/inkscape"
   xmlns:sodipodi="http://sodipodi.sourceforge.net/DTD/sodipodi-0.dtd"
   xmlns="http://www.w3.org/2000/svg"
   xmlns:svg="http://www.w3.org/2000/svg">
  <defs
     id="defs745" />
  <sodipodi:namedview
     id="namedview743"
     pagecolor="#ffffff"
     bordercolor="#666666"
     borderopacity="1.0"
     inkscape:pageshadow="2"
     inkscape:pageopacity="0.0"
     inkscape:pagecheckerboard="0"
     showgrid="false"
     inkscape:zoom="1.244"
     inkscape:cx="329.18006"
     inkscape:cy="234.72669"
     inkscape:window-width="1368"
     inkscape:window-height="850"
     inkscape:window-x="-6"
     inkscape:window-y="-6"
     inkscape:window-maximized="1"
     inkscape:current-layer="svg741" />
  <g
     id="freepik--background-simple--inject-57"
     transform="translate(-20.689532,-15.271315)">
    <path
       d="m 642.63,132.22 c 0,0 -58,-95 -201,-114 -143,-19 -169,59 -198,86 -29,27 -79,22 -156,74 -77,52 -76,110 -54,166 22,56 98,105 188,112 90,7 136,-35 209,-34 73,1 135,31 193,8 58,-23 100,-208 19,-298 z"
       style="fill:#a61c3c"
       id="path2" />
    <path
       d="m 642.63,132.22 c 0,0 -58,-95 -201,-114 -143,-19 -169,59 -198,86 -29,27 -79,22 -156,74 -77,52 -76,110 -54,166 22,56 98,105 188,112 90,7 136,-35 209,-34 73,1 135,31 193,8 58,-23 100,-208 19,-298 z"
       style="opacity:0.7;fill:#ffffff"
       id="path4" />
  </g>
  <g
     id="freepik--Picture--inject-57"
     transform="translate(-20.689532,-15.271315)">
    <rect
       x="185.42"
       y="59"
       width="417.57999"
       height="263.45001"
       style="fill:#ffffff;stroke:#263238;stroke-miterlimit:10"
       id="rect7" />
    <rect
       x="194.21001"
       y="67.220001"
       width="400"
       height="247"
       style="fill:#ffffff;stroke:#263238;stroke-miterlimit:10"
       id="rect9" />
    <path
       d="m 580.27,273.93 c -0.52,-1.93 -1.25,-6.32 0.37,-12.77 2.22,-8.89 11.66,-31.66 8.33,-60 -3.33,-28.34 -36.1,-55.54 -59.43,-58.87 C 506.21,138.96 431.24,81.2 372.93,81.75 314.62,82.3 273,123.42 263,159 c -10,35.58 -39.44,30 -56.1,57.2 -16.66,27.2 -5.55,57.76 -5.55,57.76 z"
       style="fill:#a61c3c"
       id="path11" />
    <path
       d="m 580.27,273.93 c -0.52,-1.93 -1.25,-6.32 0.37,-12.77 2.22,-8.89 11.66,-31.66 8.33,-60 -3.33,-28.34 -36.1,-55.54 -59.43,-58.87 C 506.21,138.96 431.24,81.2 372.93,81.75 314.62,82.3 273,123.42 263,159 c -10,35.58 -39.44,30 -56.1,57.2 -16.66,27.2 -5.55,57.76 -5.55,57.76 z"
       style="opacity:0.7;fill:#ffffff"
       id="path13" />
    <line
       x1="198.21001"
       y1="273.92999"
       x2="587.21002"
       y2="273.92999"
       style="fill:none;stroke:#263238;stroke-miterlimit:10"
       id="line15" />
    <rect
       x="424.01999"
       y="82.559998"
       width="59.610001"
       height="167.72"
       style="fill:#ffffff;stroke:#263238;stroke-miterlimit:10"
       id="rect17" />
    <polyline
       points="424.34 87.66 483.51 87.66 482.12 83.05"
       style="fill:#ffffff;stroke:#263238;stroke-miterlimit:10"
       id="polyline19" />
    <polyline
       points="424.34 93.24 483.51 93.24 482.12 88.63"
       style="fill:#ffffff;stroke:#263238;stroke-miterlimit:10"
       id="polyline21" />
    <polyline
       points="424.34 98.83 483.51 98.83 482.12 94.22"
       style="fill:#ffffff;stroke:#263238;stroke-miterlimit:10"
       id="polyline23" />
    <polyline
       points="424.34 104.41 483.51 104.41 482.12 99.8"
       style="fill:#ffffff;stroke:#263238;stroke-miterlimit:10"
       id="polyline25" />
    <polyline
       points="424.34 110 483.51 110 482.12 105.38"
       style="fill:#ffffff;stroke:#263238;stroke-miterlimit:10"
       id="polyline27" />
    <polyline
       points="424.34 115.58 483.51 115.58 482.12 110.97"
       style="fill:#ffffff;stroke:#263238;stroke-miterlimit:10"
       id="polyline29" />
    <polyline
       points="424.34 121.16 483.51 121.16 482.12 116.55"
       style="fill:#ffffff;stroke:#263238;stroke-miterlimit:10"
       id="polyline31" />
    <polyline
       points="424.34 126.75 483.51 126.75 482.12 122.14"
       style="fill:#ffffff;stroke:#263238;stroke-miterlimit:10"
       id="polyline33" />
    <polyline
       points="424.34 132.33 483.51 132.33 482.12 127.72"
       style="fill:#ffffff;stroke:#263238;stroke-miterlimit:10"
       id="polyline35" />
    <polyline
       points="424.34 137.91 483.51 137.91 482.12 133.3"
       style="fill:#ffffff;stroke:#263238;stroke-miterlimit:10"
       id="polyline37" />
    <polyline
       points="424.34 143.5 483.51 143.5 482.12 138.89"
       style="fill:#ffffff;stroke:#263238;stroke-miterlimit:10"
       id="polyline39" />
    <polyline
       points="424.34 149.08 483.51 149.08 482.12 144.47"
       style="fill:#ffffff;stroke:#263238;stroke-miterlimit:10"
       id="polyline41" />
    <polyline
       points="424.34 154.67 483.51 154.67 482.12 150.06"
       style="fill:#ffffff;stroke:#263238;stroke-miterlimit:10"
       id="polyline43" />
    <polyline
       points="424.34 160.25 483.51 160.25 482.12 155.64"
       style="fill:#ffffff;stroke:#263238;stroke-miterlimit:10"
       id="polyline45" />
    <polyline
       points="424.34 165.84 483.51 165.84 482.12 161.22"
       style="fill:#ffffff;stroke:#263238;stroke-miterlimit:10"
       id="polyline47" />
    <polyline
       points="424.34 171.42 483.51 171.42 482.12 166.81"
       style="fill:#ffffff;stroke:#263238;stroke-miterlimit:10"
       id="polyline49" />
    <polyline
       points="424.34 177 483.51 177 482.12 172.39"
       style="fill:#ffffff;stroke:#263238;stroke-miterlimit:10"
       id="polyline51" />
    <polyline
       points="424.34 182.59 483.51 182.59 482.12 177.98"
       style="fill:#ffffff;stroke:#263238;stroke-miterlimit:10"
       id="polyline53" />
    <polyline
       points="424.34 188.17 483.51 188.17 482.12 183.56"
       style="fill:#ffffff;stroke:#263238;stroke-miterlimit:10"
       id="polyline55" />
    <polyline
       points="424.34 193.75 483.51 193.75 482.12 189.14"
       style="fill:#ffffff;stroke:#263238;stroke-miterlimit:10"
       id="polyline57" />
    <polyline
       points="424.34 199.34 483.51 199.34 482.12 194.73"
       style="fill:#ffffff;stroke:#263238;stroke-miterlimit:10"
       id="polyline59" />
    <polyline
       points="424.34 204.92 483.51 204.92 482.12 200.31"
       style="fill:#ffffff;stroke:#263238;stroke-miterlimit:10"
       id="polyline61" />
    <polyline
       points="424.34 210.51 483.51 210.51 482.12 205.9"
       style="fill:#ffffff;stroke:#263238;stroke-miterlimit:10"
       id="polyline63" />
    <polyline
       points="424.34 216.09 483.51 216.09 482.12 211.48"
       style="fill:#ffffff;stroke:#263238;stroke-miterlimit:10"
       id="polyline65" />
    <polyline
       points="424.34 221.68 483.51 221.68 482.12 217.06"
       style="fill:#ffffff;stroke:#263238;stroke-miterlimit:10"
       id="polyline67" />
    <polyline
       points="424.34 227.26 483.51 227.26 482.12 222.65"
       style="fill:#ffffff;stroke:#263238;stroke-miterlimit:10"
       id="polyline69" />
    <polyline
       points="424.34 232.84 483.51 232.84 482.12 228.23"
       style="fill:#ffffff;stroke:#263238;stroke-miterlimit:10"
       id="polyline71" />
    <polyline
       points="424.34 238.43 483.51 238.43 482.12 233.82"
       style="fill:#ffffff;stroke:#263238;stroke-miterlimit:10"
       id="polyline73" />
    <polyline
       points="424.34 244.01 483.51 244.01 482.12 239.4"
       style="fill:#ffffff;stroke:#263238;stroke-miterlimit:10"
       id="polyline75" />
    <rect
       x="488.12"
       y="82.559998"
       width="59.610001"
       height="167.72"
       style="fill:#ffffff;stroke:#263238;stroke-miterlimit:10"
       id="rect77" />
    <polyline
       points="488.44 87.66 547.61 87.66 546.22 83.05"
       style="fill:#ffffff;stroke:#263238;stroke-miterlimit:10"
       id="polyline79" />
    <polyline
       points="488.44 93.24 547.61 93.24 546.22 88.63"
       style="fill:#ffffff;stroke:#263238;stroke-miterlimit:10"
       id="polyline81" />
    <polyline
       points="488.44 98.83 547.61 98.83 546.22 94.22"
       style="fill:#ffffff;stroke:#263238;stroke-miterlimit:10"
       id="polyline83" />
    <polyline
       points="488.44 104.41 547.61 104.41 546.22 99.8"
       style="fill:#ffffff;stroke:#263238;stroke-miterlimit:10"
       id="polyline85" />
    <polyline
       points="488.44 110 547.61 110 546.22 105.38"
       style="fill:#ffffff;stroke:#263238;stroke-miterlimit:10"
       id="polyline87" />
    <polyline
       points="488.44 115.58 547.61 115.58 546.22 110.97"
       style="fill:#ffffff;stroke:#263238;stroke-miterlimit:10"
       id="polyline89" />
    <polyline
       points="488.44 121.16 547.61 121.16 546.22 116.55"
       style="fill:#ffffff;stroke:#263238;stroke-miterlimit:10"
       id="polyline91" />
    <polyline
       points="488.44 126.75 547.61 126.75 546.22 122.14"
       style="fill:#ffffff;stroke:#263238;stroke-miterlimit:10"
       id="polyline93" />
    <polyline
       points="488.44 132.33 547.61 132.33 546.22 127.72"
       style="fill:#ffffff;stroke:#263238;stroke-miterlimit:10"
       id="polyline95" />
    <polyline
       points="488.44 137.91 547.61 137.91 546.22 133.3"
       style="fill:#ffffff;stroke:#263238;stroke-miterlimit:10"
       id="polyline97" />
    <polyline
       points="488.44 143.5 547.61 143.5 546.22 138.89"
       style="fill:#ffffff;stroke:#263238;stroke-miterlimit:10"
       id="polyline99" />
    <polyline
       points="488.44 149.08 547.61 149.08 546.22 144.47"
       style="fill:#ffffff;stroke:#263238;stroke-miterlimit:10"
       id="polyline101" />
    <polyline
       points="488.44 154.67 547.61 154.67 546.22 150.06"
       style="fill:#ffffff;stroke:#263238;stroke-miterlimit:10"
       id="polyline103" />
    <polyline
       points="488.44 160.25 547.61 160.25 546.22 155.64"
       style="fill:#ffffff;stroke:#263238;stroke-miterlimit:10"
       id="polyline105" />
    <polyline
       points="488.44 165.84 547.61 165.84 546.22 161.22"
       style="fill:#ffffff;stroke:#263238;stroke-miterlimit:10"
       id="polyline107" />
    <polyline
       points="488.44 171.42 547.61 171.42 546.22 166.81"
       style="fill:#ffffff;stroke:#263238;stroke-miterlimit:10"
       id="polyline109" />
    <polyline
       points="488.44 177 547.61 177 546.22 172.39"
       style="fill:#ffffff;stroke:#263238;stroke-miterlimit:10"
       id="polyline111" />
    <polyline
       points="488.44 182.59 547.61 182.59 546.22 177.98"
       style="fill:#ffffff;stroke:#263238;stroke-miterlimit:10"
       id="polyline113" />
    <polyline
       points="488.44 188.17 547.61 188.17 546.22 183.56"
       style="fill:#ffffff;stroke:#263238;stroke-miterlimit:10"
       id="polyline115" />
    <polyline
       points="488.44 193.75 547.61 193.75 546.22 189.14"
       style="fill:#ffffff;stroke:#263238;stroke-miterlimit:10"
       id="polyline117" />
    <polyline
       points="488.44 199.34 547.61 199.34 546.22 194.73"
       style="fill:#ffffff;stroke:#263238;stroke-miterlimit:10"
       id="polyline119" />
    <polyline
       points="488.44 204.92 547.61 204.92 546.22 200.31"
       style="fill:#ffffff;stroke:#263238;stroke-miterlimit:10"
       id="polyline121" />
    <polyline
       points="488.44 210.51 547.61 210.51 546.22 205.9"
       style="fill:#ffffff;stroke:#263238;stroke-miterlimit:10"
       id="polyline123" />
    <polyline
       points="488.44 216.09 547.61 216.09 546.22 211.48"
       style="fill:#ffffff;stroke:#263238;stroke-miterlimit:10"
       id="polyline125" />
    <polyline
       points="488.44 221.68 547.61 221.68 546.22 217.06"
       style="fill:#ffffff;stroke:#263238;stroke-miterlimit:10"
       id="polyline127" />
    <polyline
       points="488.44 227.26 547.61 227.26 546.22 222.65"
       style="fill:#ffffff;stroke:#263238;stroke-miterlimit:10"
       id="polyline129" />
    <polyline
       points="488.44 232.84 547.61 232.84 546.22 228.23"
       style="fill:#ffffff;stroke:#263238;stroke-miterlimit:10"
       id="polyline131" />
    <polyline
       points="488.44 238.43 547.61 238.43 546.22 233.82"
       style="fill:#ffffff;stroke:#263238;stroke-miterlimit:10"
       id="polyline133" />
    <polyline
       points="488.44 244.01 547.61 244.01 546.22 239.4"
       style="fill:#ffffff;stroke:#263238;stroke-miterlimit:10"
       id="polyline135" />
    <path
       d="m 431.82,280 h -0.31 v -3.23 h -5.93 V 280 h -0.31 a 2,2 0 0 0 -1.95,1.95 v 0 a 2,2 0 0 0 1.95,2 h 1.06 a 1.95,1.95 0 0 0 1.3,3.4 v 0 3 h 1.91 v -3 0 a 1.94,1.94 0 0 0 1.29,-3.4 h 1.07 a 2,2 0 0 0 1.95,-2 v 0 A 2,2 0 0 0 431.82,280 Z"
       style="fill:#263238"
       id="path137" />
    <path
       d="m 256.73,280 h -0.3 v -3.23 h -5.94 V 280 h -0.3 a 2,2 0 0 0 -1.95,1.95 v 0 a 2,2 0 0 0 1.95,2 h 1.06 a 1.95,1.95 0 0 0 1.3,3.4 v 0 3 h 1.9 v -3 0 a 1.95,1.95 0 0 0 1.3,-3.4 h 1.06 a 2,2 0 0 0 1.95,-2 v 0 A 2,2 0 0 0 256.73,280 Z"
       style="fill:#263238"
       id="path139" />
    <path
       d="m 441.26,237.43 c 0,0 -2.34,-1.4 -3.52,2.58 -1.18,3.98 -2.11,30.71 -2.11,33.29 0,2.58 0.24,4.21 -3,4.45 -3.24,0.24 -6.1,0.47 -6.1,0.47 h -177 c 0,0 -2.53,-1.17 -2.53,-4.92 0,-3.75 -0.23,-23.44 -0.47,-26.73 -0.24,-3.29 -1.22,-6.95 -4.92,-8.43 -5.86,-2.35 -7.27,-9.61 -3.05,-12.89 4.22,-3.28 27.43,-5.4 27.43,-5.4 h 146.44 c 0,0 26.49,-2.34 31.88,3.52 4.61,5 1.87,10.08 1.17,11.72 -0.7,1.64 -4.22,2.34 -4.22,2.34 z"
       style="fill:#a61c3c;stroke:#263238;stroke-miterlimit:10"
       id="path141" />
    <path
       d="m 428.13,229.46 c -6.79,9.38 -5.86,35.4 -5.86,35.4 H 261.48 c 0,0 -1.17,-24.38 -6.32,-33.05 a 16.1,16.1 0 0 0 -14.16,-7.76 9.3,9.3 0 0 0 -2.47,1.2 c -4.22,3.28 -2.81,10.54 3.05,12.89 3.7,1.48 4.69,5.15 4.92,8.43 0.23,3.28 0.47,23 0.47,26.73 0,3.73 2.58,4.92 2.58,4.92 h 177 c 0,0 2.82,-0.24 6.1,-0.47 3.28,-0.23 3,-1.88 3,-4.45 0,-2.57 0.94,-29.3 2.11,-33.29 1.17,-3.99 3.52,-2.58 3.52,-2.58 0,0 3.52,-0.7 4.22,-2.34 0.7,-1.64 3,-5.92 -0.21,-10.52 v 0 c -3.09,-2.84 -10.36,-4.48 -17.16,4.89 z"
       style="fill:#a61c3c;stroke:#263238;stroke-miterlimit:10"
       id="path143" />
    <path
       d="m 260.31,249.62 c 0,0 8.21,-10.55 24.61,-12.19 A 205.69,205.69 0 0 1 325,237.9 c 4.46,0.71 13.83,5.16 13.83,5.16 0,0 23.21,-7 41.72,-6.8 18.51,0.2 27.19,5.63 28.6,6.56 1.41,0.93 12.42,7.5 12.89,10.55 0.47,3.05 1.17,10.55 0.23,11.49 -0.94,0.94 -160.79,0 -160.79,0 0,0 -2.11,-8.44 -1.17,-15.24 z"
       style="fill:#a61c3c;stroke:#263238;stroke-miterlimit:10"
       id="path145" />
    <path
       d="m 263.36,249.86 c 0,0 58.36,-3.05 77.11,1.17"
       style="fill:none;stroke:#263238;stroke-miterlimit:10"
       id="path147" />
    <path
       d="m 352.19,250.79 c 0,0 45.24,-5.15 66.1,1.18"
       style="fill:none;stroke:#263238;stroke-miterlimit:10"
       id="path149" />
    <path
       d="m 340.94,244.93 c 0,0 0.24,12.19 0.24,16.65"
       style="fill:none;stroke:#263238;stroke-miterlimit:10"
       id="path151" />
    <path
       d="m 276.72,211.89 c 0,0 -11.72,-5.16 -12.42,-1.18 -0.7,3.98 5.39,10.32 5.86,11.49 0.47,1.17 2.11,8.67 2.11,8.67 0,0 -2.58,9.61 -1.41,10.08 1.17,0.47 11.95,-2.81 14.06,-3.52 2.11,-0.71 20.39,-0.7 21.1,-0.7 0.71,0 1.17,-2.81 0,-4.69 -1.17,-1.88 -2.82,-8 -2.82,-10.54 0,-2.54 -0.23,-8.21 -1.4,-8.68 -1.17,-0.47 -10.55,-0.93 -13.83,-0.93 z"
       style="fill:#263238"
       id="path153" />
    <path
       d="m 397.9,212.12 c 0,0 -12,-2.81 -14.07,-2.58 -2.07,0.23 -2.57,4.22 -2.57,4.22 0,0 -5.16,14.06 -5.63,15.94 -0.47,1.88 -4.45,6.09 -2.58,6.8 1.87,0.71 20.16,0.46 23.91,1.64 3.75,1.18 12.42,5.62 13.13,4.22 0.71,-1.4 -0.24,-6.1 -0.71,-7.5 -0.47,-1.4 1.64,-7.51 3.05,-10.08 1.41,-2.57 2.58,-6.33 3.52,-7.27 0.94,-0.94 6.32,-5.86 2.81,-6.8 -3.51,-0.94 -18.05,1.18 -20.86,1.41 z"
       style="fill:#263238"
       id="path155" />
    <path
       d="m 222.4,258.3 v -98.65 a 4.31,4.31 0 0 1 2,-2.53 c 1.76,-1.05 4.43,-1.12 7.77,-0.22 a 10.56,10.56 0 0 0 -0.7,9.77 l 3,6.7 19.24,-8.48 -2.95,-6.71 a 10.6,10.6 0 0 0 -9,-6.24 l -4.06,-9.21 -8.83,3.9 3.66,8.3 c -3.83,-1 -6.9,-0.86 -9.13,0.46 a 6.31,6.31 0 0 0 -3,4 v 99 A 12.75,12.75 0 0 0 209,271 v 12.11 h 25.47 V 271 A 12.74,12.74 0 0 0 222.4,258.3 Z"
       style="fill:#263238"
       id="path157" />
    <rect
       x="351.54999"
       y="117.39"
       width="53.330002"
       height="69.330002"
       style="fill:#263238;stroke:#263238;stroke-miterlimit:10"
       id="rect159" />
    <rect
       x="354.22"
       y="120.86"
       width="48"
       height="62.400002"
       style="fill:#ffffff;stroke:#263238;stroke-miterlimit:10"
       id="rect161" />
    <rect
       x="290.72"
       y="153.39"
       width="48"
       height="33.330002"
       style="fill:#263238;stroke:#263238;stroke-miterlimit:10"
       id="rect163" />
    <rect
       x="293.14001"
       y="155.07001"
       width="43.16"
       height="29.969999"
       style="fill:#ffffff;stroke:#263238;stroke-miterlimit:10"
       id="rect165" />
    <rect
       x="308.89001"
       y="106.39"
       width="27"
       height="36"
       style="fill:#263238"
       id="rect167" />
    <rect
       x="310.76001"
       y="108.89"
       width="23.25"
       height="31"
       style="fill:#ffffff;stroke:#263238;stroke-miterlimit:10"
       id="rect169" />
    <line
       x1="559.96997"
       y1="175.78999"
       x2="568.40002"
       y2="256.51999"
       style="fill:none;stroke:#263238;stroke-linecap:round;stroke-linejoin:round"
       id="line171" />
    <line
       x1="566.73999"
       y1="240.73"
       x2="563.21997"
       y2="237.03"
       style="fill:none;stroke:#263238;stroke-linecap:round;stroke-linejoin:round"
       id="line173" />
    <path
       d="M 564.38,238.24 A 4.33,4.33 0 0 0 562.86,235 c -1,-0.87 -6.14,-3 -6.63,-1.23 -0.53,1.98 4.77,5.86 8.15,4.47 z"
       style="fill:#a61c3c;stroke:#263238;stroke-miterlimit:10"
       id="path175" />
    <line
       x1="564.38"
       y1="238.24001"
       x2="559.46997"
       y2="235.17999"
       style="fill:none;stroke:#263238;stroke-linecap:round;stroke-linejoin:round"
       id="line177" />
    <line
       x1="567.60999"
       y1="249.07001"
       x2="564.17999"
       y2="246.22"
       style="fill:none;stroke:#263238;stroke-linecap:round;stroke-linejoin:round"
       id="line179" />
    <path
       d="m 565.34,247.42 a 4.33,4.33 0 0 0 -1.52,-3.24 c -1,-0.87 -6.14,-3 -6.63,-1.22 -0.49,1.78 4.75,5.85 8.15,4.46 z"
       style="fill:#a61c3c;stroke:#263238;stroke-miterlimit:10"
       id="path181" />
    <line
       x1="565.34003"
       y1="247.42"
       x2="560.42999"
       y2="244.36"
       style="fill:none;stroke:#263238;stroke-linecap:round;stroke-linejoin:round"
       id="line183" />
    <line
       x1="564.34998"
       y1="217.75"
       x2="560.88"
       y2="214.63"
       style="fill:none;stroke:#263238;stroke-linecap:round;stroke-linejoin:round"
       id="line185" />
    <path
       d="m 562,215.84 a 4.32,4.32 0 0 0 -1.52,-3.24 c -1,-0.88 -6.14,-3 -6.63,-1.23 -0.49,1.98 4.79,5.86 8.15,4.47 z"
       style="fill:#a61c3c;stroke:#263238;stroke-miterlimit:10"
       id="path187" />
    <line
       x1="562.03998"
       y1="215.84"
       x2="557.13"
       y2="212.78"
       style="fill:none;stroke:#263238;stroke-linecap:round;stroke-linejoin:round"
       id="line189" />
    <line
       x1="565.32001"
       y1="227.50999"
       x2="561.84003"
       y2="223.81"
       style="fill:none;stroke:#263238;stroke-linecap:round;stroke-linejoin:round"
       id="line191" />
    <path
       d="m 563,225 a 4.32,4.32 0 0 0 -1.52,-3.24 c -1,-0.88 -6.14,-3.05 -6.63,-1.23 -0.53,2 4.75,5.88 8.15,4.47 z"
       style="fill:#a61c3c;stroke:#263238;stroke-miterlimit:10"
       id="path193" />
    <line
       x1="563"
       y1="225.02"
       x2="558.09003"
       y2="221.96001"
       style="fill:none;stroke:#263238;stroke-linecap:round;stroke-linejoin:round"
       id="line195" />
    <line
       x1="562.79999"
       y1="203.25999"
       x2="559.32001"
       y2="199.71001"
       style="fill:none;stroke:#263238;stroke-linecap:round;stroke-linejoin:round"
       id="line197" />
    <path
       d="m 560.48,200.92 a 4.33,4.33 0 0 0 -1.52,-3.24 c -1,-0.87 -6.14,-3 -6.63,-1.23 -0.53,1.98 4.75,5.86 8.15,4.47 z"
       style="fill:#a61c3c;stroke:#263238;stroke-miterlimit:10"
       id="path199" />
    <line
       x1="560.47998"
       y1="200.92"
       x2="555.57001"
       y2="197.86"
       style="fill:none;stroke:#263238;stroke-linecap:round;stroke-linejoin:round"
       id="line201" />
    <line
       x1="561.13"
       y1="187.31"
       x2="557.76001"
       y2="184.73"
       style="fill:none;stroke:#263238;stroke-linecap:round;stroke-linejoin:round"
       id="line203" />
    <path
       d="m 558.92,185.94 a 4.33,4.33 0 0 0 -1.52,-3.24 c -1,-0.87 -6.14,-3 -6.63,-1.23 -0.53,1.98 4.75,5.86 8.15,4.47 z"
       style="fill:#a61c3c;stroke:#263238;stroke-miterlimit:10"
       id="path205" />
    <line
       x1="558.91998"
       y1="185.94"
       x2="554.01001"
       y2="182.88"
       style="fill:none;stroke:#263238;stroke-linecap:round;stroke-linejoin:round"
       id="line207" />
    <line
       x1="566.40002"
       y1="235.64"
       x2="569.29999"
       y2="230.89999"
       style="fill:none;stroke:#263238;stroke-linecap:round;stroke-linejoin:round"
       id="line209" />
    <path
       d="m 568.42,232.32 a 4.31,4.31 0 0 1 0.81,-3.48 c 0.78,-1.06 5.38,-4.25 6.24,-2.57 0.86,1.68 -3.47,6.73 -7.05,6.05 z"
       style="fill:#a61c3c;stroke:#263238;stroke-miterlimit:10"
       id="path211" />
    <line
       x1="568.41998"
       y1="232.32001"
       x2="571.87"
       y2="229.08"
       style="fill:none;stroke:#263238;stroke-linecap:round;stroke-linejoin:round"
       id="line213" />
    <line
       x1="563.88"
       y1="211.47"
       x2="566.78003"
       y2="206.74001"
       style="fill:none;stroke:#263238;stroke-linecap:round;stroke-linejoin:round"
       id="line215" />
    <path
       d="m 565.89,208.16 a 4.34,4.34 0 0 1 0.82,-3.48 c 0.78,-1.06 4.38,-3.72 5.23,-2 0.93,1.79 -2.43,6.14 -6.05,5.48 z"
       style="fill:#a61c3c;stroke:#263238;stroke-miterlimit:10"
       id="path217" />
    <line
       x1="565.89001"
       y1="208.16"
       x2="570.32001"
       y2="203.92999"
       style="fill:none;stroke:#263238;stroke-linecap:round;stroke-linejoin:round"
       id="line219" />
    <line
       x1="562.77002"
       y1="200.86"
       x2="565.66998"
       y2="196.12"
       style="fill:none;stroke:#263238;stroke-linecap:round;stroke-linejoin:round"
       id="line221" />
    <path
       d="m 564.79,197.54 a 4.31,4.31 0 0 1 0.81,-3.48 c 0.78,-1.06 5.38,-4.25 6.24,-2.57 0.86,1.68 -3.44,6.71 -7.05,6.05 z"
       style="fill:#a61c3c;stroke:#263238;stroke-miterlimit:10"
       id="path223" />
    <line
       x1="564.78998"
       y1="197.53999"
       x2="569.21002"
       y2="193.31"
       style="fill:none;stroke:#263238;stroke-linecap:round;stroke-linejoin:round"
       id="line225" />
    <line
       x1="561.14001"
       y1="185.28999"
       x2="564.04999"
       y2="180.55"
       style="fill:none;stroke:#263238;stroke-linecap:round;stroke-linejoin:round"
       id="line227" />
    <path
       d="m 563.16,182 a 4.36,4.36 0 0 1 0.82,-3.49 c 0.78,-1.06 5.38,-4.25 6.23,-2.57 0.85,1.68 -3.43,6.69 -7.05,6.06 z"
       style="fill:#a61c3c;stroke:#263238;stroke-miterlimit:10"
       id="path229" />
    <line
       x1="563.15997"
       y1="181.98"
       x2="567.58002"
       y2="177.75"
       style="fill:none;stroke:#263238;stroke-linecap:round;stroke-linejoin:round"
       id="line231" />
    <path
       d="m 559.9,175.34 a 4.31,4.31 0 0 1 0.82,-3.49 c 0.78,-1.06 5.38,-4.25 6.23,-2.57 0.93,1.83 -3.43,6.72 -7.05,6.06 z"
       style="fill:#a61c3c;stroke:#263238;stroke-miterlimit:10"
       id="path233" />
    <line
       x1="559.90002"
       y1="175.34"
       x2="564.32001"
       y2="171.11"
       style="fill:none;stroke:#263238;stroke-linecap:round;stroke-linejoin:round"
       id="line235" />
    <path
       d="m 560.16,175.52 a 4.33,4.33 0 0 1 -3.38,-1.18 c -1,-0.89 -3.66,-5.79 -1.91,-6.47 1.92,-0.73 6.32,4.13 5.29,7.65 z"
       style="fill:#a61c3c;stroke:#263238;stroke-miterlimit:10"
       id="path237" />
    <line
       x1="560.15997"
       y1="175.52"
       x2="556.41998"
       y2="170.67999"
       style="fill:none;stroke:#263238;stroke-linecap:round;stroke-linejoin:round"
       id="line239" />
    <line
       x1="572.59003"
       y1="154.03"
       x2="572.59003"
       y2="256.13"
       style="fill:none;stroke:#263238;stroke-linecap:round;stroke-linejoin:round"
       id="line241" />
    <line
       x1="582.19"
       y1="186.89999"
       x2="573.82001"
       y2="267.64001"
       style="fill:none;stroke:#263238;stroke-linecap:round;stroke-linejoin:round"
       id="line243" />
    <line
       x1="575.59003"
       y1="251.14999"
       x2="573.65002"
       y2="248.92999"
       style="fill:none;stroke:#263238;stroke-linecap:round;stroke-linejoin:round"
       id="line245" />
    <path
       d="m 573.65,248.93 a 4.34,4.34 0 0 0 -0.82,-3.48 c -0.78,-1.06 -5.38,-4.25 -6.24,-2.57 -0.86,1.68 3.41,6.71 7.06,6.05 z"
       style="fill:#a61c3c;stroke:#263238;stroke-miterlimit:10"
       id="path247" />
    <line
       x1="573.65002"
       y1="248.92999"
       x2="569.46997"
       y2="244.92"
       style="fill:none;stroke:#263238;stroke-linecap:round;stroke-linejoin:round"
       id="line249" />
    <line
       x1="577.95001"
       y1="228.10001"
       x2="575.08002"
       y2="225.69"
       style="fill:none;stroke:#263238;stroke-linecap:round;stroke-linejoin:round"
       id="line251" />
    <path
       d="m 576,226.52 a 4.29,4.29 0 0 0 -0.82,-3.48 c -0.78,-1.06 -5.38,-4.24 -6.23,-2.57 -0.95,1.83 3.41,6.71 7.05,6.05 z"
       style="fill:#a61c3c;stroke:#263238;stroke-miterlimit:10"
       id="path253" />
    <line
       x1="575.96997"
       y1="226.52"
       x2="571.79999"
       y2="222.52"
       style="fill:none;stroke:#263238;stroke-linecap:round;stroke-linejoin:round"
       id="line255" />
    <line
       x1="577.03998"
       y1="239.02"
       x2="574.13"
       y2="234.28"
       style="fill:none;stroke:#263238;stroke-linecap:round;stroke-linejoin:round"
       id="line257" />
    <path
       d="m 575,235.71 a 4.36,4.36 0 0 0 -0.82,-3.49 c -0.78,-1.06 -5.38,-4.24 -6.24,-2.56 -0.86,1.68 3.47,6.71 7.06,6.05 z"
       style="fill:#a61c3c;stroke:#263238;stroke-miterlimit:10"
       id="path259" />
    <line
       x1="575.02002"
       y1="235.71001"
       x2="570.84003"
       y2="231.7"
       style="fill:none;stroke:#263238;stroke-linecap:round;stroke-linejoin:round"
       id="line261" />
    <line
       x1="579.40997"
       y1="213.38"
       x2="576.63"
       y2="210.19"
       style="fill:none;stroke:#263238;stroke-linecap:round;stroke-linejoin:round"
       id="line263" />
    <path
       d="m 577.52,211.61 a 4.36,4.36 0 0 0 -0.82,-3.49 c -0.78,-1.05 -5.38,-4.24 -6.23,-2.56 -0.85,1.68 3.44,6.71 7.05,6.05 z"
       style="fill:#a61c3c;stroke:#263238;stroke-miterlimit:10"
       id="path265" />
    <line
       x1="577.52002"
       y1="211.61"
       x2="573.34003"
       y2="207.60001"
       style="fill:none;stroke:#263238;stroke-linecap:round;stroke-linejoin:round"
       id="line267" />
    <line
       x1="580.87"
       y1="199.36"
       x2="578.19"
       y2="195.21001"
       style="fill:none;stroke:#263238;stroke-linecap:round;stroke-linejoin:round"
       id="line269" />
    <path
       d="m 579.08,196.63 a 4.34,4.34 0 0 0 -0.83,-3.49 c -0.77,-1 -5.38,-4.24 -6.23,-2.56 -0.85,1.68 3.44,6.71 7.06,6.05 z"
       style="fill:#a61c3c;stroke:#263238;stroke-miterlimit:10"
       id="path271" />
    <line
       x1="579.08002"
       y1="196.63"
       x2="574.90002"
       y2="192.62"
       style="fill:none;stroke:#263238;stroke-linecap:round;stroke-linejoin:round"
       id="line273" />
    <line
       x1="576.15997"
       y1="246.78999"
       x2="579.97998"
       y2="242.75999"
       style="fill:none;stroke:#263238;stroke-linecap:round;stroke-linejoin:round"
       id="line275" />
    <path
       d="m 578.82,244 a 4.33,4.33 0 0 1 1.51,-3.24 c 1,-0.88 6.14,-3 6.63,-1.24 0.54,1.95 -4.74,5.84 -8.14,4.48 z"
       style="fill:#a61c3c;stroke:#263238;stroke-miterlimit:10"
       id="path277" />
    <line
       x1="578.82001"
       y1="243.97"
       x2="584.01001"
       y2="240.74001"
       style="fill:none;stroke:#263238;stroke-linecap:round;stroke-linejoin:round"
       id="line279" />
    <line
       x1="578.66998"
       y1="222.63"
       x2="582.47998"
       y2="218.60001"
       style="fill:none;stroke:#263238;stroke-linecap:round;stroke-linejoin:round"
       id="line281" />
    <path
       d="m 581.32,219.8 a 4.33,4.33 0 0 1 1.52,-3.24 c 1,-0.87 6.14,-3.05 6.63,-1.23 0.53,1.98 -4.74,5.86 -8.15,4.47 z"
       style="fill:#a61c3c;stroke:#263238;stroke-miterlimit:10"
       id="path283" />
    <line
       x1="581.32001"
       y1="219.8"
       x2="586.52002"
       y2="216.58"
       style="fill:none;stroke:#263238;stroke-linecap:round;stroke-linejoin:round"
       id="line285" />
    <line
       x1="579.77002"
       y1="212.00999"
       x2="583.58002"
       y2="207.98"
       style="fill:none;stroke:#263238;stroke-linecap:round;stroke-linejoin:round"
       id="line287" />
    <path
       d="m 582.42,209.19 a 4.34,4.34 0 0 1 1.52,-3.25 c 1,-0.87 6.14,-3.05 6.63,-1.23 0.54,1.98 -4.74,5.86 -8.15,4.48 z"
       style="fill:#a61c3c;stroke:#263238;stroke-miterlimit:10"
       id="path289" />
    <line
       x1="582.41998"
       y1="209.19"
       x2="587.62"
       y2="205.96001"
       style="fill:none;stroke:#263238;stroke-linecap:round;stroke-linejoin:round"
       id="line291" />
    <line
       x1="581.34003"
       y1="195.64999"
       x2="585.20001"
       y2="192.41"
       style="fill:none;stroke:#263238;stroke-linecap:round;stroke-linejoin:round"
       id="line293" />
    <path
       d="m 584,193.62 a 4.32,4.32 0 0 1 1.52,-3.24 c 1,-0.88 6.14,-3 6.63,-1.24 0.57,1.98 -4.71,5.86 -8.15,4.48 z"
       style="fill:#a61c3c;stroke:#263238;stroke-miterlimit:10"
       id="path295" />
    <line
       x1="584.03998"
       y1="193.62"
       x2="589.23999"
       y2="190.39"
       style="fill:#ffffff;stroke:#263238;stroke-miterlimit:10"
       id="line297" />
    <path
       d="m 582.22,186.45 a 4.34,4.34 0 0 1 1.51,-3.24 c 1,-0.88 6.14,-3.05 6.63,-1.23 0.54,2.02 -4.74,5.86 -8.14,4.47 z"
       style="fill:#a61c3c;stroke:#263238;stroke-miterlimit:10"
       id="path299" />
    <line
       x1="582.21997"
       y1="186.45"
       x2="587.41998"
       y2="183.22"
       style="fill:none;stroke:#263238;stroke-linecap:round;stroke-linejoin:round"
       id="line301" />
    <path
       d="m 582.43,186.68 a 4.32,4.32 0 0 1 -3.06,-1.85 c -0.77,-1.06 -2.39,-6.42 -0.53,-6.72 2.02,-0.32 5.33,5.33 3.59,8.57 z"
       style="fill:#a61c3c;stroke:#263238;stroke-miterlimit:10"
       id="path303" />
    <line
       x1="582.42999"
       y1="186.67999"
       x2="579.77002"
       y2="181.17"
       style="fill:none;stroke:#263238;stroke-linecap:round;stroke-linejoin:round"
       id="line305" />
    <line
       x1="572.45001"
       y1="240.59"
       x2="569.28998"
       y2="236.37"
       style="fill:none;stroke:#263238;stroke-linecap:round;stroke-linejoin:round"
       id="line307" />
    <path
       d="m 570.32,237.69 a 4.3,4.3 0 0 0 -1.17,-3.38 c -0.89,-1 -5.79,-3.67 -6.47,-1.91 -0.68,1.76 4.12,6.32 7.64,5.29 z"
       style="fill:#a61c3c;stroke:#263238;stroke-miterlimit:10"
       id="path309" />
    <line
       x1="570.32001"
       y1="237.69"
       x2="565.75"
       y2="234.13"
       style="fill:none;stroke:#263238;stroke-linecap:round;stroke-linejoin:round"
       id="line311" />
    <line
       x1="572.56"
       y1="220.22"
       x2="569.28998"
       y2="217.17999"
       style="fill:none;stroke:#263238;stroke-linecap:round;stroke-linejoin:round"
       id="line313" />
    <path
       d="m 570.32,218.5 a 4.31,4.31 0 0 0 -1.17,-3.38 c -0.89,-1 -5.79,-3.67 -6.47,-1.91 -0.68,1.76 4.12,6.32 7.64,5.29 z"
       style="fill:#a61c3c;stroke:#263238;stroke-miterlimit:10"
       id="path315" />
    <line
       x1="570.32001"
       y1="218.5"
       x2="565.75"
       y2="214.95"
       style="fill:none;stroke:#263238;stroke-linecap:round;stroke-linejoin:round"
       id="line317" />
    <line
       x1="572.66998"
       y1="199.06"
       x2="569.28998"
       y2="194.64999"
       style="fill:none;stroke:#263238;stroke-linecap:round;stroke-linejoin:round"
       id="line319" />
    <path
       d="m 570.32,196 a 4.31,4.31 0 0 0 -1.17,-3.38 c -0.89,-1 -5.79,-3.66 -6.47,-1.91 -0.68,1.88 4.12,6.29 7.64,5.29 z"
       style="fill:#a61c3c;stroke:#263238;stroke-miterlimit:10"
       id="path321" />
    <line
       x1="570.32001"
       y1="195.97"
       x2="565.75"
       y2="192.42"
       style="fill:none;stroke:#263238;stroke-linecap:round;stroke-linejoin:round"
       id="line323" />
    <line
       x1="572.45001"
       y1="182.5"
       x2="569.28998"
       y2="179.66"
       style="fill:none;stroke:#263238;stroke-linecap:round;stroke-linejoin:round"
       id="line325" />
    <path
       d="m 570.32,181 a 4.3,4.3 0 0 0 -1.17,-3.38 c -0.89,-1 -5.79,-3.67 -6.47,-1.91 -0.68,1.89 4.12,6.29 7.64,5.29 z"
       style="fill:#a61c3c;stroke:#263238;stroke-miterlimit:10"
       id="path327" />
    <line
       x1="570.32001"
       y1="180.98"
       x2="565.75"
       y2="177.42"
       style="fill:none;stroke:#263238;stroke-linecap:round;stroke-linejoin:round"
       id="line329" />
    <line
       x1="572.64001"
       y1="167.5"
       x2="569.35999"
       y2="165.10001"
       style="fill:none;stroke:#263238;stroke-linecap:round;stroke-linejoin:round"
       id="line331" />
    <path
       d="m 570.32,165.92 a 4.3,4.3 0 0 0 -1.17,-3.38 c -0.89,-1 -5.79,-3.67 -6.47,-1.91 -0.68,1.91 4.12,6.37 7.64,5.29 z"
       style="fill:#a61c3c;stroke:#263238;stroke-miterlimit:10"
       id="path333" />
    <line
       x1="570.32001"
       y1="165.92"
       x2="565.75"
       y2="162.36"
       style="fill:none;stroke:#263238;stroke-linecap:round;stroke-linejoin:round"
       id="line335" />
    <line
       x1="573.25"
       y1="245.67999"
       x2="575.97998"
       y2="242.22"
       style="fill:none;stroke:#263238;stroke-linecap:round;stroke-linejoin:round"
       id="line337" />
    <path
       d="m 575,243.55 a 4.33,4.33 0 0 1 1.18,-3.38 c 0.88,-1 5.79,-3.67 6.46,-1.91 0.69,1.91 -4.16,6.32 -7.64,5.29 z"
       style="fill:#a61c3c;stroke:#263238;stroke-miterlimit:10"
       id="path339" />
    <line
       x1="574.95001"
       y1="243.55"
       x2="579.78998"
       y2="239.8"
       style="fill:none;stroke:#263238;stroke-linecap:round;stroke-linejoin:round"
       id="line341" />
    <line
       x1="572.59998"
       y1="216.12"
       x2="575.97998"
       y2="211.71001"
       style="fill:none;stroke:#263238;stroke-linecap:round;stroke-linejoin:round"
       id="line343" />
    <path
       d="m 575,213 a 4.34,4.34 0 0 1 1.18,-3.38 c 0.88,-1 5.79,-3.67 6.46,-1.91 0.67,1.76 -4.16,6.35 -7.64,5.29 z"
       style="fill:#a61c3c;stroke:#263238;stroke-miterlimit:10"
       id="path345" />
    <line
       x1="574.95001"
       y1="213.03"
       x2="579.78998"
       y2="209.28999"
       style="fill:none;stroke:#263238;stroke-linecap:round;stroke-linejoin:round"
       id="line347" />
    <line
       x1="572.59998"
       y1="201.06"
       x2="575.97998"
       y2="196.64999"
       style="fill:none;stroke:#263238;stroke-linecap:round;stroke-linejoin:round"
       id="line349" />
    <path
       d="m 575,198 a 4.34,4.34 0 0 1 1.18,-3.38 c 0.88,-1 5.79,-3.67 6.46,-1.91 0.67,1.76 -4.16,6.29 -7.64,5.29 z"
       style="fill:#a61c3c;stroke:#263238;stroke-miterlimit:10"
       id="path351" />
    <line
       x1="574.95001"
       y1="197.97"
       x2="579.78998"
       y2="194.22"
       style="fill:none;stroke:#263238;stroke-linecap:round;stroke-linejoin:round"
       id="line353" />
    <line
       x1="572.59998"
       y1="181.14999"
       x2="575.97998"
       y2="176.74001"
       style="fill:none;stroke:#263238;stroke-linecap:round;stroke-linejoin:round"
       id="line355" />
    <path
       d="m 575,178.06 a 4.34,4.34 0 0 1 1.18,-3.38 c 0.88,-1 5.79,-3.67 6.46,-1.91 0.67,1.76 -4.16,6.32 -7.64,5.29 z"
       style="fill:#a61c3c;stroke:#263238;stroke-miterlimit:10"
       id="path357" />
    <line
       x1="574.95001"
       y1="178.06"
       x2="579.78998"
       y2="174.32001"
       style="fill:none;stroke:#263238;stroke-linecap:round;stroke-linejoin:round"
       id="line359" />
    <line
       x1="572.75"
       y1="163.97"
       x2="576.06"
       y2="161.38"
       style="fill:none;stroke:#263238;stroke-linecap:round;stroke-linejoin:round"
       id="line361" />
    <path
       d="m 575,162.41 a 4.34,4.34 0 0 1 1.18,-3.38 c 0.88,-1 5.79,-3.67 6.46,-1.91 0.69,1.88 -4.16,6.32 -7.64,5.29 z"
       style="fill:#a61c3c;stroke:#263238;stroke-miterlimit:10"
       id="path363" />
    <line
       x1="574.95001"
       y1="162.41"
       x2="579.78998"
       y2="158.67"
       style="fill:none;stroke:#263238;stroke-linecap:round;stroke-linejoin:round"
       id="line365" />
    <path
       d="m 572.4,155.47 a 4.31,4.31 0 0 1 1.17,-3.38 c 0.89,-1 5.79,-3.67 6.47,-1.91 0.68,1.76 -4.12,6.32 -7.64,5.29 z"
       style="fill:#a61c3c;stroke:#263238;stroke-miterlimit:10"
       id="path367" />
    <line
       x1="572.40002"
       y1="155.47"
       x2="577.23999"
       y2="151.72"
       style="fill:none;stroke:#263238;stroke-linecap:round;stroke-linejoin:round"
       id="line369" />
    <path
       d="m 572.63,155.68 a 4.32,4.32 0 0 1 -3.24,-1.53 c -0.87,-1 -3,-6.14 -1.22,-6.63 1.98,-0.52 5.83,4.76 4.46,8.16 z"
       style="fill:#a61c3c;stroke:#263238;stroke-miterlimit:10"
       id="path371" />
    <line
       x1="572.63"
       y1="155.67999"
       x2="569.41998"
       y2="150.47"
       style="fill:none;stroke:#263238;stroke-linecap:round;stroke-linejoin:round"
       id="line373" />
    <polygon
       points="564.63,255.3 578.14,255.3 576.79,282.61 565.98,282.61 "
       style="fill:#263238;stroke:#263238;stroke-miterlimit:10"
       id="polygon375" />
    <polyline
       points="245.69 146.92 264.5 146.92 264.5 90.46 268.85 90.46"
       style="fill:none;stroke:#263238;stroke-miterlimit:10"
       id="polyline377" />
    <line
       x1="272.47"
       y1="85.400002"
       x2="296.35001"
       y2="85.400002"
       style="fill:none;stroke:#263238;stroke-miterlimit:10"
       id="line379" />
    <line
       x1="272.47"
       y1="90.459999"
       x2="296.35001"
       y2="90.459999"
       style="fill:none;stroke:#263238;stroke-miterlimit:10"
       id="line381" />
    <line
       x1="272.47"
       y1="95.529999"
       x2="296.35001"
       y2="95.529999"
       style="fill:none;stroke:#263238;stroke-miterlimit:10"
       id="line383" />
    <line
       x1="463.54999"
       y1="293.13"
       x2="487.42999"
       y2="293.13"
       style="fill:none;stroke:#263238;stroke-miterlimit:10"
       id="line385" />
    <line
       x1="463.54999"
       y1="298.19"
       x2="487.42999"
       y2="298.19"
       style="fill:none;stroke:#263238;stroke-miterlimit:10"
       id="line387" />
    <line
       x1="463.54999"
       y1="303.26001"
       x2="487.42999"
       y2="303.26001"
       style="fill:none;stroke:#263238;stroke-miterlimit:10"
       id="line389" />
    <line
       x1="558.37"
       y1="293.13"
       x2="582.25"
       y2="293.13"
       style="fill:none;stroke:#263238;stroke-miterlimit:10"
       id="line391" />
    <line
       x1="558.37"
       y1="298.19"
       x2="582.25"
       y2="298.19"
       style="fill:none;stroke:#263238;stroke-miterlimit:10"
       id="line393" />
    <line
       x1="558.37"
       y1="303.26001"
       x2="582.25"
       y2="303.26001"
       style="fill:none;stroke:#263238;stroke-miterlimit:10"
       id="line395" />
    <line
       x1="557.64001"
       y1="78.879997"
       x2="581.53003"
       y2="78.879997"
       style="fill:none;stroke:#263238;stroke-miterlimit:10"
       id="line397" />
    <line
       x1="557.64001"
       y1="83.949997"
       x2="581.53003"
       y2="83.949997"
       style="fill:none;stroke:#263238;stroke-miterlimit:10"
       id="line399" />
    <line
       x1="557.64001"
       y1="89.019997"
       x2="581.53003"
       y2="89.019997"
       style="fill:none;stroke:#263238;stroke-miterlimit:10"
       id="line401" />
    <polyline
       points="403.47 285.17 403.47 301.81 459.93 301.81"
       style="fill:none;stroke:#263238;stroke-miterlimit:10"
       id="polyline403" />
    <polyline
       points="551.85 102.05 570.67 102.05 570.67 92.64"
       style="fill:none;stroke:#263238;stroke-miterlimit:10"
       id="polyline405" />
  </g>
  <g
     id="freepik--paint-brush--inject-57"
     transform="translate(-20.689532,-15.271315)">
    <rect
       x="153.89"
       y="202.82001"
       width="19.41"
       height="29.5"
       transform="rotate(29.79,163.57201,217.53104)"
       style="fill:#a61c3c;stroke:#263238;stroke-miterlimit:10"
       id="rect408" />
    <path
       d="m 151.51,219.15 -7.85,13.71 a 2.14,2.14 0 0 0 0.05,2.2 l 1.7,2.38 a 7.33,7.33 0 0 1 0.17,7.56 L 133,265 a 13.71,13.71 0 0 0 -1.78,7.62 l 0.05,0.79 a 0.89,0.89 0 0 0 1.34,0.71 l 0.86,-0.5 a 13.65,13.65 0 0 0 5,-5 l 11.06,-21.32 a 7.3,7.3 0 0 1 6.6,-3.68 h 2.59 a 1.94,1.94 0 0 0 1.75,-1 l 7.9,-13.81 z"
       style="fill:#263238;stroke:#263238;stroke-linejoin:round"
       id="path410" />
    <rect
       x="148.57001"
       y="220.85001"
       width="15.18"
       height="19.41"
       transform="rotate(-60.21,156.17463,230.5618)"
       style="fill:#ffffff;stroke:#263238;stroke-linejoin:round"
       id="rect412" />
    <line
       x1="150.58"
       y1="220.95"
       x2="167.49001"
       y2="230.63"
       style="fill:none;stroke:#263238;stroke-linejoin:round"
       id="line414" />
    <line
       x1="149.64999"
       y1="222.56"
       x2="166.57001"
       y2="232.25"
       style="fill:none;stroke:#263238;stroke-linejoin:round"
       id="line416" />
    <line
       x1="164.92"
       y1="201.08"
       x2="163"
       y2="204.44"
       style="fill:#ffffff;stroke:#263238;stroke-miterlimit:10"
       id="line418" />
    <line
       x1="167.55"
       y1="203.41"
       x2="163.06"
       y2="211.25"
       style="fill:#ffffff;stroke:#263238;stroke-miterlimit:10"
       id="line420" />
    <line
       x1="173.11"
       y1="206.10001"
       x2="171.39999"
       y2="209.09"
       style="fill:#ffffff;stroke:#263238;stroke-miterlimit:10"
       id="line422" />
    <line
       x1="175.16"
       y1="207.42999"
       x2="172.16"
       y2="212.66"
       style="fill:#ffffff;stroke:#263238;stroke-miterlimit:10"
       id="line424" />
  </g>
  <g
     id="freepik--paint-bucket--inject-57"
     transform="translate(-20.689532,-15.271315)">
    <rect
       x="197.21001"
       y="399.25"
       width="38.540001"
       height="52.380001"
       style="fill:#ffffff;stroke:#263238;stroke-miterlimit:10"
       id="rect427" />
    <rect
       x="223.08"
       y="412.88"
       width="12.32"
       height="30.809999"
       style="fill:none;stroke:#263238;stroke-miterlimit:10"
       id="rect429" />
    <path
       d="m 197.2,407.82 c 0,0 -7.41,14 -3.56,22.45 2.74,6 14.29,10.23 24.25,2.33 9.96,-7.9 10,-26.07 10,-26.07"
       style="fill:none;stroke:#263238;stroke-miterlimit:10"
       id="path431" />
    <path
       d="m 227.73,408.36 v 0 A 1.36,1.36 0 0 1 226.36,407 v -2.88 h 2.74 V 407 a 1.36,1.36 0 0 1 -1.37,1.36 z"
       style="fill:none;stroke:#263238;stroke-miterlimit:10"
       id="path433" />
    <path
       d="m 199.48,399.47 v 12.8 a 2.08,2.08 0 0 0 2.08,2.08 v 0 a 2.08,2.08 0 0 0 2.08,-2.08 v -6.79 a 2.29,2.29 0 0 1 2.29,-2.29 v 0 a 2.3,2.3 0 0 1 2.3,2.29 v 1.43 a 2.62,2.62 0 0 0 2.63,2.62 v 0 a 2.62,2.62 0 0 0 2.62,-2.62 v -2.55 a 2.7,2.7 0 0 1 2.71,-2.7 h 4.65 a 2.71,2.71 0 0 1 2.71,2.7 v 0.91 a 0.76,0.76 0 0 0 0.76,0.76 v 0 a 0.76,0.76 0 0 0 0.77,-0.76 v -1.94 a 2.55,2.55 0 0 1 2.55,-2.55 h 3.79 V 401 a 2,2 0 0 0 2,2 v 0 a 2,2 0 0 0 2,-2 v -1.75 z"
       style="fill:#a61c3c;stroke:#263238;stroke-miterlimit:10"
       id="path435" />
    <circle
       cx="260.38"
       cy="432.10999"
       r="19.33"
       transform="rotate(-76.83,260.36294,432.10669)"
       style="fill:#ffffff;stroke:#263238;stroke-miterlimit:10"
       id="circle437" />
    <circle
       cx="258.89999"
       cy="432.10999"
       r="19.33"
       transform="rotate(-22.78,258.94309,432.15567)"
       style="fill:#a61c3c;stroke:#263238;stroke-miterlimit:10"
       id="circle439" />
    <circle
       cx="258.89999"
       cy="432.10999"
       r="17.26"
       transform="rotate(-80.83,258.91623,432.11674)"
       style="fill:#a61c3c;stroke:#263238;stroke-miterlimit:10"
       id="circle441" />
  </g>
  <g
     id="freepik--Plants--inject-57"
     transform="translate(-20.689532,-15.271315)">
    <path
       d="m 631.25,147.67 a 2.4,2.4 0 0 0 0.84,0.15 4.44,4.44 0 0 0 2.73,-1.13 c 0.61,-0.55 0.9,-1.12 0.78,-1.56 a 0.67,0.67 0 0 0 -0.5,-0.48 c -0.87,-0.26 -2.77,0.58 -3.21,1 a 2.46,2.46 0 0 0 -0.83,1.56 l -0.22,0.18 a 0.93,0.93 0 0 0 0,-0.5 0.67,0.67 0 0 0 -0.43,-0.39 l 0.23,-2.25 v 0 0 a 2.33,2.33 0 0 0 0.53,0.06 4.44,4.44 0 0 0 2.72,-1.13 c 0.61,-0.55 0.9,-1.11 0.78,-1.56 a 0.67,0.67 0 0 0 -0.5,-0.48 c -0.87,-0.26 -2.77,0.58 -3.21,1 l -0.08,0.09 a 4.72,4.72 0 0 0 -0.77,-1.75 2.14,2.14 0 0 0 -1.08,-0.9 5,5 0 0 0 1.15,-0.91 c 0.55,-0.6 0.78,-1.2 0.61,-1.63 a 0.69,0.69 0 0 0 -0.55,-0.43 c -0.89,-0.17 -2.69,0.86 -3.09,1.3 a 2.45,2.45 0 0 0 -0.65,1.79 l -0.67,0.87 v -6 a 0.28,0.28 0 0 0 0,-0.18 v -1.49 l 0.9,-0.71 a 2.32,2.32 0 0 0 0.58,0.08 4.26,4.26 0 0 0 2.87,-1.42 c 0.55,-0.61 0.78,-1.2 0.61,-1.63 a 0.68,0.68 0 0 0 -0.55,-0.43 5.17,5.17 0 0 0 -3.09,1.3 2.45,2.45 0 0 0 -0.66,1.66 l -0.66,0.52 v -3.47 h 0.21 a 4.24,4.24 0 0 0 2.86,-1.42 1.72,1.72 0 0 0 0.62,-1.63 0.69,0.69 0 0 0 -0.55,-0.43 c -0.88,-0.17 -2.69,0.87 -3.09,1.31 l -0.07,0.09 a 4.73,4.73 0 0 0 -0.94,-1.66 c -0.55,-0.62 -1.11,-0.9 -1.56,-0.78 a 0.68,0.68 0 0 0 -0.48,0.5 c -0.26,0.86 0.57,2.76 1,3.21 a 2.41,2.41 0 0 0 1.53,0.82 v 5.15 l -0.62,-0.46 a 2.45,2.45 0 0 0 -0.66,-1.67 5.18,5.18 0 0 0 -3.09,-1.31 0.69,0.69 0 0 0 -0.55,0.43 c -0.17,0.43 0.06,1 0.61,1.63 a 4.22,4.22 0 0 0 2.87,1.42 2.15,2.15 0 0 0 0.56,-0.07 l 0.88,0.65 v 6.86 l -0.63,-0.56 a 2.25,2.25 0 0 0 -0.29,-1 1.4,1.4 0 0 0 0.2,-1.31 0.63,0.63 0 0 0 -0.58,-0.37 2.48,2.48 0 0 0 -1.21,0.34 4.9,4.9 0 0 0 -1.43,-0.5 4.89,4.89 0 0 0 1.16,-1.1 c 0.49,-0.66 0.65,-1.27 0.44,-1.68 a 0.69,0.69 0 0 0 -0.59,-0.37 c -0.89,-0.08 -2.58,1.14 -2.94,1.62 a 0.47,0.47 0 0 1 -0.06,0.09 4.76,4.76 0 0 0 -1.11,-1.55 c -0.6,-0.55 -1.19,-0.78 -1.62,-0.61 a 0.66,0.66 0 0 0 -0.43,0.54 5.13,5.13 0 0 0 1.29,3.1 2.54,2.54 0 0 0 1.53,0.66 l 0.53,5.08 -0.59,-0.45 a 2.43,2.43 0 0 0 -0.82,-1.5 5.09,5.09 0 0 0 -3.21,-1 0.67,0.67 0 0 0 -0.5,0.48 c -0.12,0.44 0.17,1 0.78,1.56 a 4.44,4.44 0 0 0 2.72,1.09 2.24,2.24 0 0 0 0.89,-0.17 v 0 l 0.79,0.6 0.74,7.13 -0.6,-0.62 a 2.49,2.49 0 0 0 -0.84,-1.68 5.19,5.19 0 0 0 -3.21,-1 0.7,0.7 0 0 0 -0.5,0.49 c -0.12,0.44 0.16,1 0.78,1.55 a 4.37,4.37 0 0 0 2.72,1.14 2.54,2.54 0 0 0 0.73,-0.12 l 1,1 0.45,4.31 a 0.68,0.68 0 0 0 -0.52,0.43 0.86,0.86 0 0 0 0,0.48 2.59,2.59 0 0 0 -0.65,-0.88 5.15,5.15 0 0 0 -3.21,-1 0.66,0.66 0 0 0 -0.49,0.49 c -0.12,0.44 0.16,1 0.77,1.55 a 4.44,4.44 0 0 0 2.73,1.13 2.45,2.45 0 0 0 0.8,-0.14 l 0.91,0.82 0.42,4.06 -0.61,-0.65 a 2.43,2.43 0 0 0 -0.84,-1.71 5.17,5.17 0 0 0 -3.21,-1 0.7,0.7 0 0 0 -0.5,0.49 c -0.12,0.44 0.17,1 0.78,1.55 a 4.44,4.44 0 0 0 2.72,1.13 2.4,2.4 0 0 0 0.71,-0.11 l 1,1.1 0.19,1.9 a 2.12,2.12 0 0 0 -1,-0.13 0.69,0.69 0 0 0 -0.55,0.43 1.18,1.18 0 0 0 0.13,1 4.93,4.93 0 0 0 -2.85,-0.73 0.67,0.67 0 0 0 -0.5,0.48 c -0.12,0.45 0.16,1 0.78,1.56 a 4.41,4.41 0 0 0 2.72,1.13 2.47,2.47 0 0 0 0.72,-0.12 l 1,1.08 0.07,0.67 a 0.52,0.52 0 0 0 -0.13,0.17 1.54,1.54 0 0 0 0.3,1.48 l 0.12,1.13 -0.59,-0.49 a 2.44,2.44 0 0 0 -0.83,-1.55 c -0.44,-0.39 -2.34,-1.23 -3.2,-1 a 0.67,0.67 0 0 0 -0.5,0.48 c -0.12,0.45 0.16,1 0.78,1.56 a 4.39,4.39 0 0 0 2.72,1.13 2.4,2.4 0 0 0 0.84,-0.15 l 0.85,0.7 0.29,2.72 h -1.8 l 0.7,14.1 h 5.86 l 0.69,-14.1 h -1.5 l 0.18,-1.68 a 0.25,0.25 0 0 0 0,-0.22 l 0.19,-1.88 v 0 l 1.23,-1.3 a 2.16,2.16 0 0 0 0.71,0.12 4.41,4.41 0 0 0 2.72,-1.13 c 0.62,-0.55 0.9,-1.12 0.78,-1.56 a 0.64,0.64 0 0 0 -0.49,-0.48 3.11,3.11 0 0 0 -1.64,0.2 0.85,0.85 0 0 0 -0.05,-0.36 0.68,0.68 0 0 0 -0.55,-0.43 4.18,4.18 0 0 0 -2.27,0.71 v -0.05 l 0.53,-5.1 a 0.26,0.26 0 0 0 0,-0.15 l 0.25,-2.47 v 0 l 1.23,-1.3 a 2.46,2.46 0 0 0 0.71,0.12 4.37,4.37 0 0 0 2.72,-1.14 c 0.62,-0.54 0.9,-1.11 0.78,-1.55 a 0.68,0.68 0 0 0 -0.5,-0.49 5.14,5.14 0 0 0 -3.2,1 2.42,2.42 0 0 0 -0.84,1.71 l -0.86,0.9 0.47,-4.49 v 0 l 0.12,-0.12 a 4.5,4.5 0 0 0 0.72,-0.64 3.62,3.62 0 0 0 0.41,-0.53 2.26,2.26 0 0 0 0.69,0.11 4.41,4.41 0 0 0 2.72,-1.13 c 0.62,-0.55 0.9,-1.11 0.78,-1.56 a 0.65,0.65 0 0 0 -0.5,-0.48 c -0.86,-0.26 -2.76,0.58 -3.21,1 a 2.47,2.47 0 0 0 -0.53,0.68 1,1 0 0 0 -0.29,-0.12 1.93,1.93 0 0 0 -0.66,0 l 0.56,-5.39 z m -1.69,1.9 -0.23,-0.35 a 2.83,2.83 0 0 0 0.28,-0.2 z m -1.51,14.52 -0.49,-0.42 a 2.45,2.45 0 0 0 -0.49,-1.75 5.25,5.25 0 0 0 -1.22,-1 v -2.22 l 1,-1.35 a 2.3,2.3 0 0 0 0.45,0 3.17,3.17 0 0 0 1.23,-0.27 l 0.19,0.22 z m -5.26,5.37 a 3.11,3.11 0 0 0 1.12,0.23 2.28,2.28 0 0 0 0.44,-0.05 l 1,1.32 v 0 1.58 A 4.6,4.6 0 0 0 623,171.46 Z m 2.56,0.69 -0.63,-0.83 a 2.46,2.46 0 0 0 -0.56,-1.69 4.19,4.19 0 0 0 1.19,0.77 z m 0.5,-14.17 a 3.75,3.75 0 0 0 0.72,0.42 2.19,2.19 0 0 0 -0.05,0.62 l -0.67,0.88 z m -1.13,-7.71 a 4.19,4.19 0 0 0 0.28,-0.34 3.66,3.66 0 0 0 0.35,-0.57 v 2 l -0.63,-0.81 a 1.11,1.11 0 0 0 0,-0.28 z m -2.87,1.37 h 0.21 a 3.35,3.35 0 0 0 2,-0.74 2.21,2.21 0 0 0 0.35,0 l 1,1.29 v 1.45 a 0.71,0.71 0 0 0 -0.47,-0.21 3.78,3.78 0 0 0 -2.41,1.38 2.39,2.39 0 0 0 -0.47,1.84 l -0.65,1.06 -0.47,-4.49 v 0 z m 2.87,9.89 a 2.43,2.43 0 0 0 -0.65,-1.57 6.16,6.16 0 0 0 -2.62,-1.3 v -0.19 c 0,0 0,0 0,0 l 0.93,-1.52 h 0.24 a 2.88,2.88 0 0 0 1.74,-0.65 3.15,3.15 0 0 0 0.38,0.64 5.88,5.88 0 0 0 0.59,0.65 v 4.52 z m -1.12,7.47 0.22,0.26 -0.26,-0.19 z m 2.55,6.43 0.72,-0.91 h 0.3 l -0.3,2.84 -0.48,-0.55 a 2.38,2.38 0 0 0 -0.24,-1.34 z m 1.27,-3.25 a 2.08,2.08 0 0 0 -0.25,0.21 2.41,2.41 0 0 0 -0.65,1.77 l -0.65,0.82 v 0 -4.43 a 2.5,2.5 0 0 0 0.61,0.09 h 0.21 l 0.78,1.27 z m -1.57,-20 a 0.24,0.24 0 0 0 0,-0.26 v -2.15 a 5.1,5.1 0 0 0 0.82,0.71 2.2,2.2 0 0 0 -0.15,1 l -0.67,0.88 z m 1,-10.31 a 2.3,2.3 0 0 0 0.45,0.05 2.79,2.79 0 0 0 0.81,-0.12 v 0 a 5.16,5.16 0 0 0 0.64,3.29 2.43,2.43 0 0 0 1.35,1 l -0.24,2.28 a 4.64,4.64 0 0 0 -1.4,0.45 5.63,5.63 0 0 0 -2.63,-1.46 v -4.06 z m -1.53,5.58 a 0.65,0.65 0 0 0 -0.26,0.26 c 0,0 0,0.08 -0.05,0.13 a 0.48,0.48 0 0 0 -0.18,0 2.71,2.71 0 0 0 -1.37,0.42 4.54,4.54 0 0 0 -2.51,-0.86 0.68,0.68 0 0 0 -0.55,0.43 c -0.17,0.43 0.06,1 0.61,1.63 a 6,6 0 0 0 0.58,0.53 2.35,2.35 0 0 0 -0.17,1.31 l -0.65,1 -0.73,-6.95 v 0 l 0.93,-1.51 h 0.21 a 3.23,3.23 0 0 0 1.75,-0.6 3.15,3.15 0 0 0 0.91,0.15 2.27,2.27 0 0 0 0.63,-0.08 v 0 l 0.78,0.7 z m -5.75,-6.9 v 0 0 a 2.67,2.67 0 0 0 0.79,-0.13 1.74,1.74 0 0 0 0.64,1.58 2.42,2.42 0 0 0 -0.34,1.64 l -0.65,1 -0.42,-4 z m 1.38,20 -0.4,-0.36 a 1.33,1.33 0 0 0 -0.05,-0.3 2.77,2.77 0 0 0 0.5,0.75 z m 0.75,0.68 a 3.84,3.84 0 0 0 2.18,0.82 2.28,2.28 0 0 0 0.63,-0.09 v 0 l 0.51,0.47 a 2.06,2.06 0 0 0 -0.93,-0.21 0.67,0.67 0 0 0 -0.58,0.37 c -0.21,0.41 0,1 0.44,1.68 a 4.75,4.75 0 0 0 1.36,1.23 v 0 a 6,6 0 0 0 -1.63,1.22 0.25,0.25 0 0 1 0,0.07 v 0 a 0.69,0.69 0 0 0 -0.59,0.37 1.37,1.37 0 0 0 0.17,1.25 0.61,0.61 0 0 0 0,0.15 l -0.13,0.21 a 4.36,4.36 0 0 0 -0.65,-0.32 z m 0,10.23 a 2.56,2.56 0 0 0 -0.18,-0.79 5.4,5.4 0 0 0 0.68,0.46 l 0.11,1 z m 1.51,4.47 a 4.08,4.08 0 0 0 2.08,1.18 v 2.68 h -1.68 z m 2.58,3.86 v -2.64 h 0.17 l 0.78,0.9 -0.18,1.76 z m 1.82,-5.3 a 3.2,3.2 0 0 0 0.78,-0.2 v 0 l -0.85,0.9 z m -0.6,-4.24 a 2.48,2.48 0 0 0 -0.47,-1.84 3,3 0 0 0 -0.51,-0.49 5.67,5.67 0 0 0 0.72,-0.76 2.59,2.59 0 0 0 0.52,-1.12 l 0.66,0.55 -0.46,4.42 z m 0.88,-13.67 a 1,1 0 0 0 -0.11,-0.17 6.14,6.14 0 0 0 -2,-1.4 v -1.89 l 1,-1.35 a 2.3,2.3 0 0 0 0.45,0 3.5,3.5 0 0 0 1.58,-0.43 l 0.57,0.89 -0.39,3.76 a 6.65,6.65 0 0 0 -0.99,0.68 z"
       style="fill:#263238"
       id="path444" />
    <line
       x1="639.51001"
       y1="159.55"
       x2="663.39001"
       y2="159.55"
       style="fill:none;stroke:#263238;stroke-miterlimit:10"
       id="line446" />
    <line
       x1="639.51001"
       y1="164.62"
       x2="663.39001"
       y2="164.62"
       style="fill:none;stroke:#263238;stroke-miterlimit:10"
       id="line448" />
    <line
       x1="639.51001"
       y1="169.67999"
       x2="663.39001"
       y2="169.67999"
       style="fill:none;stroke:#263238;stroke-miterlimit:10"
       id="line450" />
    <line
       x1="639.51001"
       y1="225.55"
       x2="663.39001"
       y2="225.55"
       style="fill:none;stroke:#263238;stroke-miterlimit:10"
       id="line452" />
    <line
       x1="639.51001"
       y1="230.62"
       x2="663.39001"
       y2="230.62"
       style="fill:none;stroke:#263238;stroke-miterlimit:10"
       id="line454" />
    <line
       x1="639.51001"
       y1="235.67999"
       x2="663.39001"
       y2="235.67999"
       style="fill:none;stroke:#263238;stroke-miterlimit:10"
       id="line456" />
    <path
       d="m 609.88,207.54 a 10.52,10.52 0 0 0 3,0.33 c 0,0 -0.46,-1.41 -0.5,-1.49 -0.48,-1 -2,-2.63 -3.19,-2.46 a 1.45,1.45 0 0 0 -1.17,1.82 3.05,3.05 0 0 0 1.86,1.8 z"
       style="fill:#263238"
       id="path458" />
    <path
       d="m 638.14,200.19 c -1.22,-0.13 -2.67,1.55 -3.12,2.55 0,0.09 -0.49,1.51 -0.46,1.51 v 0 l -0.74,0.86 c -0.47,0.59 -1,1.26 -1.54,2 a 23.49,23.49 0 0 0 -1.6,2.56 18,18 0 0 0 -1.37,3.08 c 0,-0.36 0,-1.37 0,-1.45 -0.14,-1.08 -1.06,-3.11 -2.27,-3.33 a 1.45,1.45 0 0 0 -1.67,1.37 3.06,3.06 0 0 0 1.16,2.28 10.47,10.47 0 0 0 2.76,1.26 26.55,26.55 0 0 0 -0.81,3.33 c -0.12,0.66 -0.21,1.33 -0.3,2 0,-0.32 0,-0.59 0,-0.63 -0.14,-1.09 -1,-3.11 -2.26,-3.33 a 1.45,1.45 0 0 0 -1.68,1.36 3.06,3.06 0 0 0 1.17,2.28 9.52,9.52 0 0 0 2.67,1.23 c 0,0.26 -0.06,0.52 -0.1,0.77 -0.14,1.24 -0.28,2.47 -0.46,3.67 -0.06,0.43 -0.14,0.84 -0.21,1.26 0,-0.28 0,-0.51 0,-0.55 -0.14,-1.09 -1,-3.11 -2.26,-3.33 a 1.46,1.46 0 0 0 -1.68,1.37 3,3 0 0 0 1.17,2.27 9,9 0 0 0 2.6,1.21 c -0.09,0.43 -0.18,0.85 -0.29,1.26 -0.11,0.41 -0.13,0.54 -0.23,0.82 -0.1,0.28 -0.17,0.54 -0.26,0.8 -0.18,0.51 -0.37,1 -0.56,1.53 l -0.4,1 c 0.07,-0.42 0.18,-1.25 0.18,-1.32 a 5.59,5.59 0 0 0 -0.76,-2.75 1.15,1.15 0 0 0 0,-0.32 1.44,1.44 0 0 0 -1.77,-1.23 c -1.19,0.31 -1.94,2.4 -2,3.49 0,0.07 0,0.77 0.07,1.22 -0.06,-0.26 -0.11,-0.51 -0.18,-0.78 -0.12,-0.52 -0.26,-1 -0.41,-1.6 -0.08,-0.27 -0.16,-0.54 -0.25,-0.82 -0.09,-0.28 -0.19,-0.55 -0.28,-0.83 -0.24,-0.64 -0.51,-1.28 -0.79,-1.92 a 9.63,9.63 0 0 0 2.74,-1 3,3 0 0 0 1.33,-2.19 1.45,1.45 0 0 0 -1.57,-1.48 c -1.22,0.13 -2.28,2.07 -2.5,3.15 0,0.07 -0.09,0.86 -0.12,1.29 -0.18,-0.38 -0.35,-0.76 -0.54,-1.15 -0.54,-1.1 -1.13,-2.19 -1.71,-3.29 -0.18,-0.33 -0.35,-0.67 -0.53,-1 a 9.84,9.84 0 0 0 2.84,-1.05 3.06,3.06 0 0 0 1.34,-2.18 1.46,1.46 0 0 0 -1.57,-1.49 c -1.23,0.13 -2.29,2.08 -2.51,3.16 0,0.08 -0.12,1.21 -0.13,1.5 -0.38,-0.74 -0.76,-1.48 -1.1,-2.23 a 24.58,24.58 0 0 1 -1.2,-3.09 10.2,10.2 0 0 0 2.85,-1.06 3,3 0 0 0 1.34,-2.18 1.45,1.45 0 0 0 -1.57,-1.49 c -1.22,0.13 -2.28,2.08 -2.51,3.15 0,0.09 -0.12,1.31 -0.13,1.53 l -0.06,-0.18 a 18,18 0 0 1 -0.62,-3.27 c -0.07,-0.61 -0.1,-1.2 -0.12,-1.77 a 10.06,10.06 0 0 0 2.89,-0.73 3,3 0 0 0 1.56,-2 1.45,1.45 0 0 0 -1.4,-1.65 c -1.23,0 -2.49,1.81 -2.83,2.86 0,0.05 -0.14,0.65 -0.23,1.09 0,-0.26 0,-0.53 0,-0.78 0,-0.92 0.06,-1.78 0.12,-2.53 0,-0.43 0.08,-0.81 0.12,-1.17 a 9.58,9.58 0 0 0 2.21,-2 3,3 0 0 0 0.46,-2.52 1.45,1.45 0 0 0 -2,-0.82 c -1.09,0.57 -1.38,2.76 -1.2,3.85 0,0.09 0.43,1.52 0.45,1.51 v 0 c 0,0.34 -0.1,0.72 -0.14,1.12 -0.07,0.76 -0.15,1.61 -0.17,2.54 a 24,24 0 0 0 0.07,3 18.29,18.29 0 0 0 0.56,3.32 v 0 c -0.19,-0.3 -0.76,-1.14 -0.81,-1.19 -0.72,-0.83 -2.6,-2 -3.73,-1.54 a 1.46,1.46 0 0 0 -0.64,2.07 3,3 0 0 0 2.23,1.26 10.39,10.39 0 0 0 3,-0.47 25.17,25.17 0 0 0 1.17,3.23 c 0.26,0.61 0.55,1.22 0.84,1.83 -0.17,-0.26 -0.33,-0.49 -0.36,-0.52 -0.72,-0.83 -2.59,-2 -3.72,-1.53 a 1.46,1.46 0 0 0 -0.65,2.07 3,3 0 0 0 2.23,1.25 9.41,9.41 0 0 0 2.91,-0.45 l 0.35,0.7 c 0.55,1.11 1.11,2.22 1.63,3.32 0.18,0.38 0.35,0.77 0.52,1.16 -0.16,-0.23 -0.29,-0.42 -0.32,-0.45 -0.72,-0.83 -2.59,-2 -3.72,-1.53 a 1.46,1.46 0 0 0 -0.65,2.07 3,3 0 0 0 2.23,1.25 9.17,9.17 0 0 0 2.83,-0.42 c 0.16,0.4 0.32,0.81 0.46,1.2 0.14,0.39 0.19,0.53 0.26,0.81 0.07,0.28 0.15,0.55 0.23,0.82 0.12,0.53 0.26,1.07 0.37,1.58 0.08,0.36 0.14,0.7 0.22,1 -0.18,-0.39 -0.54,-1.14 -0.58,-1.2 -0.59,-0.93 -2.26,-2.38 -3.45,-2.08 a 1.46,1.46 0 0 0 -0.95,2 3.05,3.05 0 0 0 2,1.57 9.5,9.5 0 0 0 3,0 c 0.12,0.57 0.22,1.13 0.32,1.66 0.14,0.79 0.25,1.52 0.35,2.19 H 620 v 13.31 h 5.29 v -13.24 h -0.7 c 0.21,-0.48 0.43,-1 0.65,-1.53 0.22,-0.53 0.46,-1.14 0.69,-1.74 a 10.24,10.24 0 0 0 3,0.23 3,3 0 0 0 2.13,-1.42 1.45,1.45 0 0 0 -0.81,-2 c -1.16,-0.4 -2.94,0.93 -3.59,1.81 0,0 -0.39,0.66 -0.61,1 l 0.28,-0.74 c 0.18,-0.51 0.35,-1 0.54,-1.57 l 0.24,-0.81 c 0.09,-0.27 0.15,-0.57 0.22,-0.85 0.16,-0.67 0.29,-1.35 0.4,-2 a 9.59,9.59 0 0 0 2.85,0.65 3,3 0 0 0 2.32,-1.08 1.46,1.46 0 0 0 -0.49,-2.11 c -1.09,-0.56 -3.05,0.48 -3.83,1.25 0,0 -0.54,0.67 -0.81,1 0.07,-0.41 0.13,-0.83 0.19,-1.25 0.15,-1.22 0.26,-2.46 0.38,-3.69 l 0.12,-1.13 a 10.28,10.28 0 0 0 3,0.69 3.06,3.06 0 0 0 2.32,-1.09 1.45,1.45 0 0 0 -0.49,-2.1 c -1.09,-0.57 -3,0.47 -3.83,1.24 -0.06,0.06 -0.77,0.95 -0.94,1.19 0.09,-0.83 0.18,-1.66 0.31,-2.47 a 23.53,23.53 0 0 1 0.71,-3.24 10.41,10.41 0 0 0 3,0.69 3,3 0 0 0 2.32,-1.08 1.46,1.46 0 0 0 -0.49,-2.11 c -1.09,-0.56 -3.05,0.47 -3.83,1.25 -0.06,0.06 -0.83,1 -1,1.2 0,-0.06 0,-0.13 0.05,-0.19 a 18.47,18.47 0 0 1 1.28,-3.07 c 0.28,-0.55 0.58,-1.05 0.88,-1.54 a 10.06,10.06 0 0 0 2.81,1 3.05,3.05 0 0 0 2.42,-0.83 1.46,1.46 0 0 0 -0.25,-2.15 c -1,-0.68 -3.09,0.14 -4,0.83 0,0 -0.48,0.46 -0.79,0.78 l 0.42,-0.65 c 0.51,-0.77 1,-1.45 1.5,-2.05 0.26,-0.33 0.51,-0.63 0.75,-0.91 a 9.72,9.72 0 0 0 2.93,-0.42 3.05,3.05 0 0 0 1.77,-1.85 1.46,1.46 0 0 0 -1.17,-1.79 z M 624.61,233 c -0.29,0.66 -0.56,1.26 -0.82,1.82 H 622 c -0.12,-0.7 -0.26,-1.48 -0.43,-2.33 -0.11,-0.58 -0.25,-1.19 -0.39,-1.83 a 12.81,12.81 0 0 0 1.68,-0.79 10.63,10.63 0 0 0 2.45,1.58 c -0.31,0.55 -0.49,1.08 -0.7,1.55 z"
       style="fill:#263238"
       id="path460" />
    <path
       d="m 631.7,208 c 0,0 0.39,-1.43 0.41,-1.53 0.15,-1.08 -0.2,-3.27 -1.31,-3.81 a 1.45,1.45 0 0 0 -2,0.88 3,3 0 0 0 0.52,2.5 10.31,10.31 0 0 0 2.38,1.96 z"
       style="fill:#263238"
       id="path462" />
  </g>
  <g
     id="freepik--color-palette--inject-57"
     transform="translate(-20.689532,-15.271315)">
    <rect
       x="105.72"
       y="66.910004"
       width="31.68"
       height="124.81"
       transform="matrix(1,-0.09,0.09,1,-10.89,11.18)"
       style="fill:#ffffff;stroke:#263238;stroke-miterlimit:10"
       id="rect465" />
    <rect
       x="105.78"
       y="71.529999"
       width="23.440001"
       height="23.440001"
       transform="rotate(-5.04,117.44975,83.255629)"
       style="fill:#a61c3c"
       id="rect467" />
    <rect
       x="105.78"
       y="71.529999"
       width="23.440001"
       height="23.440001"
       transform="rotate(-5.04,117.44975,83.255629)"
       style="opacity:0.8;fill:#ffffff"
       id="rect469" />
    <rect
       x="108.48"
       y="102.13"
       width="23.440001"
       height="23.440001"
       transform="rotate(-5.04,120.19967,113.88278)"
       style="fill:#a61c3c"
       id="rect471" />
    <rect
       x="108.48"
       y="102.13"
       width="23.440001"
       height="23.440001"
       transform="rotate(-5.04,120.19967,113.88278)"
       style="opacity:0.5;fill:#ffffff"
       id="rect473" />
    <rect
       x="111.18"
       y="132.74001"
       width="23.440001"
       height="23.440001"
       transform="rotate(-5.04,122.94958,144.50994)"
       style="fill:#a61c3c"
       id="rect475" />
    <rect
       x="111.18"
       y="132.74001"
       width="23.440001"
       height="23.440001"
       transform="rotate(-5.04,122.94958,144.50994)"
       style="opacity:0.2;fill:#ffffff"
       id="rect477" />
    <rect
       x="113.88"
       y="163.35001"
       width="23.440001"
       height="23.440001"
       transform="rotate(-5.04,125.58589,175.1321)"
       style="fill:#a61c3c"
       id="rect479" />
    <rect
       x="123.74"
       y="64.489998"
       width="31.68"
       height="124.81"
       transform="rotate(12.73,139.59123,126.92474)"
       style="fill:#ffffff;stroke:#263238;stroke-miterlimit:10"
       id="rect481" />
    <rect
       x="138.05"
       y="70.07"
       width="23.440001"
       height="23.440001"
       transform="matrix(0.98,0.22,-0.22,0.98,21.71,-31)"
       style="fill:#a61c3c"
       id="rect483" />
    <rect
       x="138.05"
       y="70.07"
       width="23.440001"
       height="23.440001"
       transform="matrix(0.98,0.22,-0.22,0.98,21.71,-31)"
       style="opacity:0.8;fill:#ffffff"
       id="rect485" />
    <rect
       x="131.28"
       y="100.04"
       width="23.440001"
       height="23.440001"
       transform="rotate(12.73,143.03125,111.79221)"
       style="fill:#a61c3c"
       id="rect487" />
    <rect
       x="131.28"
       y="100.04"
       width="23.440001"
       height="23.440001"
       transform="rotate(12.73,143.03125,111.79221)"
       style="opacity:0.5;fill:#ffffff"
       id="rect489" />
    <rect
       x="124.5"
       y="130.00999"
       width="23.440001"
       height="23.440001"
       transform="rotate(12.73,136.25568,141.77333)"
       style="fill:#a61c3c"
       id="rect491" />
    <rect
       x="124.5"
       y="130.00999"
       width="23.440001"
       height="23.440001"
       transform="rotate(12.73,136.25568,141.77333)"
       style="opacity:0.2;fill:#ffffff"
       id="rect493" />
    <rect
       x="117.73"
       y="159.98"
       width="23.440001"
       height="23.440001"
       transform="rotate(12.73,129.48011,171.75445)"
       style="fill:#a61c3c"
       id="rect495" />
    <rect
       x="140.61"
       y="67.349998"
       width="31.68"
       height="124.81"
       transform="rotate(29.46,156.45806,129.76374)"
       style="fill:#ffffff;stroke:#263238;stroke-miterlimit:10"
       id="rect497" />
    <rect
       x="167.48"
       y="77.769997"
       width="23.440001"
       height="23.440001"
       transform="rotate(29.46,179.21805,89.498897)"
       style="fill:#a61c3c"
       id="rect499" />
    <rect
       x="167.48"
       y="77.769997"
       width="23.440001"
       height="23.440001"
       transform="rotate(29.46,179.21805,89.498897)"
       style="opacity:0.8;fill:#ffffff"
       id="rect501" />
    <rect
       x="152.37"
       y="104.52"
       width="23.440001"
       height="23.440001"
       transform="rotate(29.46,164.08812,116.24938)"
       style="fill:#a61c3c"
       id="rect503" />
    <rect
       x="152.37"
       y="104.52"
       width="23.440001"
       height="23.440001"
       transform="rotate(29.46,164.08812,116.24938)"
       style="opacity:0.5;fill:#ffffff"
       id="rect505" />
    <rect
       x="137.25"
       y="131.27"
       width="23.440001"
       height="23.440001"
       transform="rotate(29.46,148.9772,142.99487)"
       style="fill:#a61c3c"
       id="rect507" />
    <rect
       x="137.25"
       y="131.27"
       width="23.440001"
       height="23.440001"
       transform="rotate(29.46,148.9772,142.99487)"
       style="opacity:0.2;fill:#ffffff"
       id="rect509" />
    <rect
       x="122.14"
       y="158.03"
       width="23.440001"
       height="23.440001"
       transform="rotate(29.46,133.87128,169.75937)"
       style="fill:#a61c3c"
       id="rect511" />
    <rect
       x="161.58"
       y="79.010002"
       width="31.68"
       height="124.81"
       transform="rotate(50.67,177.41772,141.40394)"
       style="fill:#ffffff;stroke:#263238;stroke-miterlimit:10"
       id="rect513" />
    <rect
       x="201.47"
       y="100.38"
       width="23.440001"
       height="23.440001"
       transform="rotate(50.67,213.18149,112.08661)"
       style="fill:#a61c3c"
       id="rect515" />
    <rect
       x="201.47"
       y="100.38"
       width="23.440001"
       height="23.440001"
       transform="rotate(50.67,213.18149,112.08661)"
       style="opacity:0.8;fill:#ffffff"
       id="rect517" />
    <rect
       x="177.7"
       y="119.85"
       width="23.440001"
       height="23.440001"
       transform="rotate(50.67,189.42069,131.55833)"
       style="fill:#a61c3c"
       id="rect519" />
    <rect
       x="177.7"
       y="119.85"
       width="23.440001"
       height="23.440001"
       transform="rotate(50.67,189.42069,131.55833)"
       style="opacity:0.5;fill:#ffffff"
       id="rect521" />
    <rect
       x="153.92999"
       y="139.33"
       width="23.440001"
       height="23.440001"
       transform="rotate(50.67,165.64933,151.03505)"
       style="fill:#a61c3c"
       id="rect523" />
    <rect
       x="153.92999"
       y="139.33"
       width="23.440001"
       height="23.440001"
       transform="rotate(50.67,165.64933,151.03505)"
       style="opacity:0.2;fill:#ffffff"
       id="rect525" />
    <rect
       x="130.17"
       y="158.8"
       width="23.440001"
       height="23.440001"
       transform="rotate(50.67,141.88852,170.50677)"
       style="fill:#a61c3c"
       id="rect527" />
  </g>
  <g
     id="freepik--Rulers--inject-57"
     transform="translate(-20.689532,-15.271315)">
    <path
       d="M 541.88,336.84 555.5,394 615.59,379.67 Z m 14.89,19.74 33.52,19.42 -27.29,6.55 z"
       style="fill:#a61c3c;stroke:#263238;stroke-miterlimit:10"
       id="path530" />
    <path
       d="m 640.85,387.69 -13.93,-57 -60,14.65 z m -15,-19.66 -33.63,-19.28 27.29,-6.66 z"
       style="fill:#a61c3c;stroke:#263238;stroke-miterlimit:10"
       id="path532" />
  </g>
  <g
     id="freepik--Drawings--inject-57"
     transform="translate(-20.689532,-15.271315)">
    <rect
       x="396.95001"
       y="320.17001"
       width="136.67"
       height="90"
       transform="rotate(-13.39,465.29855,365.1836)"
       style="fill:#ffffff;stroke:#263238;stroke-miterlimit:10"
       id="rect535" />
    <polyline
       points="502.49 321.37 506.12 320.51 519.55 376.95 419.13 400.86 405.7 344.41 482.6 326.1"
       style="fill:#ffffff;stroke:#263238;stroke-miterlimit:10"
       id="polyline537" />
    <rect
       x="400.92999"
       y="324.39001"
       width="129.19"
       height="81.75"
       transform="rotate(-13.39,465.54412,365.29879)"
       style="fill:none;stroke:#263238;stroke-miterlimit:10"
       id="rect539" />
    <rect
       x="514.77002"
       y="384.75"
       width="22.49"
       height="8.0100002"
       transform="rotate(-13.39,526.05087,388.76731)"
       style="fill:none;stroke:#263238;stroke-miterlimit:10"
       id="rect541" />
    <line
       x1="514.90002"
       y1="390.07999"
       x2="536.41998"
       y2="384.95999"
       style="fill:none;stroke:#263238;stroke-miterlimit:10"
       id="line543" />
    <line
       x1="515.52002"
       y1="392.72"
       x2="537.14001"
       y2="387.57001"
       style="fill:none;stroke:#263238;stroke-miterlimit:10"
       id="line545" />
    <polyline
       points="411.93 368.62 433.44 363.5 441.01 395.32"
       style="fill:none;stroke:#263238;stroke-miterlimit:10"
       id="polyline547" />
    <line
       x1="509.22"
       y1="319.63"
       x2="514.52002"
       y2="318.35999"
       style="fill:none;stroke:#263238;stroke-miterlimit:10"
       id="line549" />
    <line
       x1="522.53998"
       y1="375.60001"
       x2="527.84998"
       y2="374.34"
       style="fill:none;stroke:#263238;stroke-miterlimit:10"
       id="line551" />
    <line
       x1="512.22998"
       y1="319.22"
       x2="525.56"
       y2="375.19"
       style="fill:none;stroke:#263238;stroke-miterlimit:10"
       id="line553" />
    <line
       x1="435.19"
       y1="362.78"
       x2="440.48999"
       y2="361.51001"
       style="fill:none;stroke:#263238;stroke-miterlimit:10"
       id="line555" />
    <line
       x1="437.69"
       y1="362.79999"
       x2="445.12"
       y2="394.03"
       style="fill:none;stroke:#263238;stroke-miterlimit:10"
       id="line557" />
    <rect
       x="443.17001"
       y="334.54999"
       width="47.849998"
       height="16.35"
       transform="rotate(-13.39,467.11424,342.7262)"
       style="fill:none;stroke:#263238;stroke-miterlimit:10"
       id="rect559" />
    <line
       x1="446.64001"
       y1="339.19"
       x2="450.28"
       y2="354.51001"
       style="fill:none;stroke:#263238;stroke-miterlimit:10"
       id="line561" />
    <line
       x1="483.26001"
       y1="330.48001"
       x2="486.89999"
       y2="345.79999"
       style="fill:none;stroke:#263238;stroke-miterlimit:10"
       id="line563" />
    <line
       x1="492.89001"
       y1="347.79001"
       x2="493.59"
       y2="350.73999"
       style="fill:none;stroke:#263238;stroke-miterlimit:10"
       id="line565" />
    <line
       x1="446.04999"
       y1="358.95001"
       x2="446.75"
       y2="361.89001"
       style="fill:none;stroke:#263238;stroke-miterlimit:10"
       id="line567" />
    <line
       x1="446.03"
       y1="360.19"
       x2="492.87"
       y2="349.04001"
       style="fill:none;stroke:#263238;stroke-miterlimit:10"
       id="line569" />
    <path
       d="m 438.94,344.76 a 3.64,3.64 0 1 0 -2.7,4.38 3.64,3.64 0 0 0 2.7,-4.38 z"
       style="fill:none;stroke:#263238;stroke-miterlimit:10"
       id="path571" />
    <line
       x1="484.60001"
       y1="325.66"
       x2="499.73999"
       y2="322.04999"
       style="fill:#ffffff;stroke:#263238;stroke-miterlimit:10"
       id="line573" />
    <line
       x1="421.60999"
       y1="405.10001"
       x2="433.04999"
       y2="402.38"
       style="fill:none;stroke:#263238;stroke-miterlimit:10"
       id="line575" />
    <line
       x1="422.23001"
       y1="407.73999"
       x2="433.67999"
       y2="405.01999"
       style="fill:none;stroke:#263238;stroke-miterlimit:10"
       id="line577" />
    <line
       x1="422.85999"
       y1="410.38"
       x2="434.29999"
       y2="407.66"
       style="fill:none;stroke:#263238;stroke-miterlimit:10"
       id="line579" />
    <line
       x1="467.26999"
       y1="363.85001"
       x2="478.70999"
       y2="361.13"
       style="fill:none;stroke:#263238;stroke-miterlimit:10"
       id="line581" />
    <line
       x1="467.89999"
       y1="366.48999"
       x2="479.34"
       y2="363.76999"
       style="fill:none;stroke:#263238;stroke-miterlimit:10"
       id="line583" />
    <line
       x1="468.53"
       y1="369.13"
       x2="479.97"
       y2="366.41"
       style="fill:none;stroke:#263238;stroke-miterlimit:10"
       id="line585" />
    <line
       x1="445.51001"
       y1="380.5"
       x2="456.95001"
       y2="377.78"
       style="fill:none;stroke:#263238;stroke-miterlimit:10"
       id="line587" />
    <line
       x1="446.14001"
       y1="383.14001"
       x2="457.57999"
       y2="380.42001"
       style="fill:none;stroke:#263238;stroke-miterlimit:10"
       id="line589" />
    <line
       x1="446.76999"
       y1="385.78"
       x2="458.20999"
       y2="383.06"
       style="fill:none;stroke:#263238;stroke-miterlimit:10"
       id="line591" />
    <line
       x1="416.62"
       y1="347.70001"
       x2="428.06"
       y2="344.98001"
       style="fill:none;stroke:#263238;stroke-miterlimit:10"
       id="line593" />
    <line
       x1="417.25"
       y1="350.34"
       x2="428.69"
       y2="347.62"
       style="fill:none;stroke:#263238;stroke-miterlimit:10"
       id="line595" />
    <line
       x1="417.88"
       y1="352.98001"
       x2="429.32001"
       y2="350.26001"
       style="fill:none;stroke:#263238;stroke-miterlimit:10"
       id="line597" />
    <rect
       x="382.95001"
       y="321.17001"
       width="136.67"
       height="90"
       transform="rotate(-5.46,451.06652,366.0142)"
       style="fill:#ffffff;stroke:#263238;stroke-miterlimit:10"
       id="rect599" />
    <polyline
       points="494.18 327.93 497.89 327.57 503.41 385.33 400.65 395.15 395.13 337.39 473.83 329.87"
       style="fill:#ffffff;stroke:#263238;stroke-miterlimit:10"
       id="polyline601" />
    <rect
       x="386.92001"
       y="325.42001"
       width="129.19"
       height="81.75"
       transform="rotate(-5.46,451.27124,366.12906)"
       style="fill:none;stroke:#263238;stroke-miterlimit:10"
       id="rect603" />
    <rect
       x="496.92999"
       y="393.91"
       width="22.49"
       height="8.0100002"
       transform="rotate(-5.46,507.88266,397.72998)"
       style="fill:none;stroke:#263238;stroke-miterlimit:10"
       id="rect605" />
    <line
       x1="496.98001"
       y1="397.69"
       x2="519.01001"
       y2="395.59"
       style="fill:none;stroke:#263238;stroke-miterlimit:10"
       id="line607" />
    <line
       x1="497.23999"
       y1="400.39001"
       x2="519.35999"
       y2="398.28"
       style="fill:none;stroke:#263238;stroke-miterlimit:10"
       id="line609" />
    <polyline
       points="397.96 362.23 419.97 360.12 423.08 392.68"
       style="fill:none;stroke:#263238;stroke-miterlimit:10"
       id="polyline611" />
    <line
       x1="501.07999"
       y1="327.13"
       x2="506.51001"
       y2="326.60999"
       style="fill:none;stroke:#263238;stroke-miterlimit:10"
       id="line613" />
    <line
       x1="506.56"
       y1="384.39999"
       x2="511.98001"
       y2="383.88"
       style="fill:none;stroke:#263238;stroke-miterlimit:10"
       id="line615" />
    <line
       x1="504.13"
       y1="327.14001"
       x2="509.60001"
       y2="384.42001"
       style="fill:none;stroke:#263238;stroke-miterlimit:10"
       id="line617" />
    <line
       x1="421.81"
       y1="359.64001"
       x2="427.23001"
       y2="359.13"
       style="fill:none;stroke:#263238;stroke-miterlimit:10"
       id="line619" />
    <line
       x1="424.28"
       y1="360.01999"
       x2="427.32999"
       y2="391.97"
       style="fill:none;stroke:#263238;stroke-miterlimit:10"
       id="line621" />
    <rect
       x="432.25"
       y="336.01999"
       width="47.849998"
       height="16.35"
       transform="rotate(-5.46,455.90141,343.96432)"
       style="fill:none;stroke:#263238;stroke-miterlimit:10"
       id="rect623" />
    <line
       x1="436.39999"
       y1="337.87"
       x2="437.89999"
       y2="353.54001"
       style="fill:none;stroke:#263238;stroke-miterlimit:10"
       id="line625" />
    <line
       x1="473.87"
       y1="334.29001"
       x2="475.37"
       y2="349.95999"
       style="fill:none;stroke:#263238;stroke-miterlimit:10"
       id="line627" />
    <line
       x1="481.01999"
       y1="352.76999"
       x2="481.31"
       y2="355.79001"
       style="fill:none;stroke:#263238;stroke-miterlimit:10"
       id="line629" />
    <line
       x1="433.09"
       y1="357.35001"
       x2="433.38"
       y2="360.35999"
       style="fill:none;stroke:#263238;stroke-miterlimit:10"
       id="line631" />
    <line
       x1="432.89999"
       y1="358.57999"
       x2="480.84"
       y2="354.01001"
       style="fill:none;stroke:#263238;stroke-miterlimit:10"
       id="line633" />
    <path
       d="m 428,342.32 a 3.63,3.63 0 1 0 -3.27,4 3.63,3.63 0 0 0 3.27,-4 z"
       style="fill:none;stroke:#263238;stroke-miterlimit:10"
       id="path635" />
    <line
       x1="475.87"
       y1="329.70001"
       x2="491.35999"
       y2="328.22"
       style="fill:#ffffff;stroke:#263238;stroke-miterlimit:10"
       id="line637" />
    <line
       x1="402.51001"
       y1="399.69"
       x2="414.22"
       y2="398.57001"
       style="fill:none;stroke:#263238;stroke-miterlimit:10"
       id="line639" />
    <line
       x1="402.76999"
       y1="402.39001"
       x2="414.48001"
       y2="401.26999"
       style="fill:none;stroke:#263238;stroke-miterlimit:10"
       id="line641" />
    <line
       x1="403.03"
       y1="405.09"
       x2="414.73999"
       y2="403.97"
       style="fill:none;stroke:#263238;stroke-miterlimit:10"
       id="line643" />
    <line
       x1="453.44"
       y1="365.14001"
       x2="465.14001"
       y2="364.01999"
       style="fill:none;stroke:#263238;stroke-miterlimit:10"
       id="line645" />
    <line
       x1="453.69"
       y1="367.84"
       x2="465.39999"
       y2="366.72"
       style="fill:none;stroke:#263238;stroke-miterlimit:10"
       id="line647" />
    <line
       x1="453.95001"
       y1="370.54001"
       x2="465.66"
       y2="369.42001"
       style="fill:none;stroke:#263238;stroke-miterlimit:10"
       id="line649" />
    <line
       x1="429.57999"
       y1="378.63"
       x2="441.29001"
       y2="377.51001"
       style="fill:none;stroke:#263238;stroke-miterlimit:10"
       id="line651" />
    <line
       x1="429.84"
       y1="381.32999"
       x2="441.54999"
       y2="380.20999"
       style="fill:none;stroke:#263238;stroke-miterlimit:10"
       id="line653" />
    <line
       x1="430.10001"
       y1="384.03"
       x2="441.81"
       y2="382.91"
       style="fill:none;stroke:#263238;stroke-miterlimit:10"
       id="line655" />
    <line
       x1="405.5"
       y1="342.14999"
       x2="417.20999"
       y2="341.03"
       style="fill:none;stroke:#263238;stroke-miterlimit:10"
       id="line657" />
    <line
       x1="405.76001"
       y1="344.85001"
       x2="417.45999"
       y2="343.73001"
       style="fill:none;stroke:#263238;stroke-miterlimit:10"
       id="line659" />
    <line
       x1="406.01001"
       y1="347.54999"
       x2="417.72"
       y2="346.44"
       style="fill:none;stroke:#263238;stroke-miterlimit:10"
       id="line661" />
  </g>
  <g
     id="freepik--Character--inject-57"
     transform="translate(-20.689532,-15.271315)">
    <path
       d="m 82.38,315.78 c 0,0 -27.17,13 -28.1,16.67 -0.93,3.67 3.09,40.76 3.09,46.63 0,5.87 -1.24,5.87 -3.09,14.21 -1.85,8.34 -4,13.58 0.62,16.67 4.62,3.09 14.82,9 34.89,9 20.07,0 50.65,-9.96 52.21,-14.56 1.56,-4.6 0.62,-34.27 0.31,-39.83 -0.31,-5.56 -9,-42.31 -11.12,-45.09 -2.12,-2.78 -6.17,-3.39 -14.51,-4.63 -8.34,-1.24 -34.3,0.93 -34.3,0.93 z"
       style="fill:#a61c3c;stroke:#263238;stroke-miterlimit:10"
       id="path664" />
    <path
       d="m 78.06,371.67 c 0,0 -12.66,22.85 -18.53,33.66 -5.87,10.81 -7.41,21.61 -4.63,34.58 2.78,12.97 16.67,21.93 30.57,21.93 a 76.81,76.81 0 0 0 23.47,-3.4 c 0,0 6.17,5.56 18.83,1.85 12.66,-3.71 18.84,-16.05 17.61,-32.42 -1.23,-16.37 -2.78,-46.94 -3.09,-52.49 -0.31,-5.55 -7.1,-4.95 -12.35,-2.48 -5.25,2.47 -24.4,31.19 -24.4,31.19 0,0 -9,-27.79 -12.66,-31.49 -3.66,-3.7 -5.88,-6.49 -14.82,-0.93 z"
       style="fill:#263238;stroke:#263238;stroke-miterlimit:10"
       id="path666" />
    <path
       d="m 108,442.38 c 0,0 -5.87,9.58 -10.81,17.3 -4.94,7.72 -11.42,14.82 -9.26,18.21 2.16,3.39 7.1,6.18 12.66,6.18 5.56,0 8.65,-1.54 10.19,-5.56 1.54,-4.02 4,-20.69 5.87,-25.32 1.87,-4.63 -3.39,-13.89 -8.65,-10.81 z"
       style="fill:#a61c3c;stroke:#263238;stroke-miterlimit:10"
       id="path668" />
    <path
       d="m 98.15,479.47 c -6.5,-1.19 -8.09,-5.64 -8.35,-8.89 -1.89,3.09 -2.92,5.65 -1.86,7.31 2.16,3.4 7.1,6.18 12.66,6.18 5.56,0 8.65,-1.54 10.19,-5.56 a 21.64,21.64 0 0 0 0.67,-2.24 16.06,16.06 0 0 1 -13.31,3.2 z"
       style="fill:#ffffff;stroke:#263238;stroke-miterlimit:10"
       id="path670" />
    <path
       d="m 119.75,370.13 c 0,0 -5.87,46.93 -8.34,58.36 -2.47,11.43 -4.63,16.36 -4.63,17.29 0,0.93 6.48,9.57 10.5,9.88 4.02,0.31 7.41,-8.34 13,-18.53 5.59,-10.19 11.11,-30.26 14.82,-40.45 3.71,-10.19 4,-23.47 0,-28.41 -4,-4.94 -14.55,-12.66 -25.35,1.86 z"
       style="fill:#263238;stroke:#263238;stroke-miterlimit:10"
       id="path672" />
    <path
       d="m 104.14,353.47 c 1.58,-7.4 5.94,-27.55 8.4,-38.94 -10.61,-0.38 -30.16,1.25 -30.16,1.25 0,0 -5.61,2.68 -11.81,5.94 3,9.57 8.92,25.91 15.87,33.63 10.17,11.3 15.44,8.65 17.7,-1.88 z"
       style="fill:#263238;stroke:#263238;stroke-miterlimit:10"
       id="path674" />
    <path
       d="m 101.84,350.36 c 1.51,-7.06 6.11,-28.33 7.75,-35.89 -10.91,-0.05 -27.21,1.31 -27.21,1.31 0,0 -4.16,2 -9.27,4.62 1.79,6.15 7.38,23.91 14.21,31.51 8.34,9.26 12.68,7.09 14.52,-1.55 z"
       style="fill:#ffffff;stroke:#263238;stroke-miterlimit:10"
       id="path676" />
    <path
       d="m 54.94,296.42 c 0,0 1.22,2.68 1.22,11 0,8.32 -4.16,12.43 6.59,14.87 10.75,2.44 16.84,-1.71 17.57,-7.81 0.73,-6.1 -4.15,-11.72 -2.93,-15.62 1.22,-3.9 6.1,-13.18 5.37,-15.87 L 82,280.31 Z"
       style="fill:#263238;stroke:#263238;stroke-linecap:round;stroke-linejoin:round"
       id="path678" />
    <path
       d="M 102.53,334.25 100.82,313 104,312.76 c 4.64,-1 11,-3.17 11,-6.59 0,-3.42 -1.22,-10.74 -1.46,-17.09 a 21.45,21.45 0 0 0 -4.64,-12.45 c -1.71,-2.44 -3.17,-7.32 -3.17,-7.32 l -2,-2.44 -25.12,15.88 a 33.27,33.27 0 0 1 -2.44,9.52 c -2,4.15 -4.39,5.61 -4.39,5.61 0,0 -5.37,-5.37 -7.08,-0.24 -1.71,5.13 1.22,9.52 5.86,11.71 4.64,2.19 6.1,-2.19 6.1,-2.19 L 81.54,336"
       style="fill:#ffffff;stroke:#263238;stroke-linecap:round;stroke-linejoin:round"
       id="path680" />
    <path
       d="m 113,294 a 13.63,13.63 0 0 1 -9.52,4.15"
       style="fill:none;stroke:#263238;stroke-linecap:round;stroke-linejoin:round"
       id="path682" />
    <ellipse
       cx="95.209999"
       cy="285.92001"
       rx="1.22"
       ry="2.2"
       transform="rotate(-28.03,95.207068,285.92885)"
       style="fill:#263238"
       id="ellipse684" />
    <path
       d="m 108.19,277.79 c 0.57,1.07 0.55,2.2 0,2.52 -0.55,0.32 -1.54,-0.3 -2.11,-1.37 -0.57,-1.07 -0.55,-2.2 0,-2.51 0.55,-0.31 1.54,0.29 2.11,1.36 z"
       style="fill:#263238"
       id="path686" />
    <path
       d="m 98.63,280.06 a 49.7,49.7 0 0 0 -15.38,8.54 l 1,2 1.46,0.73 c 0,0 2.91,3.67 6.29,3.38 3.38,-0.29 9.76,-4.15 10.25,-7.08 0.49,-2.93 -2.2,-7.57 -2.2,-7.57 z"
       style="fill:none;stroke:#263238;stroke-linecap:round;stroke-linejoin:round"
       id="path688" />
    <path
       d="m 98.63,280.06 a 49.7,49.7 0 0 0 -15.38,8.54 l 1,2 1.46,0.73 a 11,11 0 0 0 1,1 c 0,0 -1.6,-2.49 -1.3,-3.32 1.47,-4 15,-8.21 15,-8.21 l -0.12,-0.44 -0.17,-0.31 z"
       style="fill:#263238;stroke:#263238;stroke-linecap:round;stroke-linejoin:round"
       id="path690" />
    <path
       d="m 100.62,280.46 3.13,-2.11 a 16.77,16.77 0 0 0 4.4,5.62 c 2.68,1.95 5.12,2.19 5.12,3.41 0,1.22 -4.39,3.18 -4.39,3.18"
       style="fill:none;stroke:#263238;stroke-linecap:round;stroke-linejoin:round"
       id="path692" />
    <polygon
       points="71.53,298.61 84.23,290.56 83.25,288.61 70.8,297.15 "
       style="fill:#263238;stroke:#263238;stroke-linecap:round;stroke-linejoin:round"
       id="polygon694" />
    <path
       d="m 87.4,283.48 a 14.9,14.9 0 0 1 8.79,-5.37"
       style="fill:none;stroke:#263238;stroke-linecap:round;stroke-linejoin:round"
       id="path696" />
    <path
       d="m 103.27,275.42 c 0,0 0.24,-2.44 3.41,-3.17"
       style="fill:none;stroke:#263238;stroke-linecap:round;stroke-linejoin:round"
       id="path698" />
    <path
       d="m 100.82,313 a 19.65,19.65 0 0 1 -7.56,-0.73 65.89,65.89 0 0 1 -9,-3.66 c 0,0 6.1,4.39 8.78,6.1 2.68,1.71 7.57,2.69 7.57,2.69 z"
       style="fill:#263238;stroke:#263238;stroke-linecap:round;stroke-linejoin:round"
       id="path700" />
    <path
       d="M 113.76,273.72 A 5.59,5.59 0 0 0 111,272.35 c -1.2,0 -7.47,3.81 -8,4.53 -0.53,0.72 0.7,1.47 0.7,1.47 0,0 5.32,-3.82 6.29,-4.06 0.97,-0.24 3.77,-0.57 3.77,-0.57 z"
       style="fill:#263238;stroke:#263238;stroke-linecap:round;stroke-linejoin:round"
       id="path702" />
    <path
       d="m 98.63,280.06 4.42,-2.67 0.7,1 a 25.5,25.5 0 0 1 4.36,-3.1 c 2.92,-1.71 4.67,-2 5.65,-1.53 0.98,0.47 2.44,4.63 1,7.56 a 10.19,10.19 0 0 1 -3.66,4.15"
       style="fill:none;stroke:#263238;stroke-linecap:round;stroke-linejoin:round"
       id="path704" />
    <path
       d="m 49.08,303 c 0,0 6.83,-3.67 22,-13.43 15.17,-9.76 48.33,-27.09 48.33,-27.09 0,0 -14.41,1.95 -21.48,-0.25 -7.07,-2.2 -13.46,-10.48 -18.1,-10.73 -4.64,-0.25 -30.75,14.65 -30.75,19.29 0,4.64 3.41,21.23 3.9,22 0.49,0.77 -6.1,4.85 -3.9,10.21 z"
       style="fill:#ffffff;stroke:#263238;stroke-linecap:round;stroke-linejoin:round"
       id="path706" />
    <path
       d="m 79.85,284.2 c -1.9,0.51 -3.95,1 -6.12,1.48 A 95.25,95.25 0 0 0 53,292.82 c 0.17,0.86 -6.06,4.94 -3.91,10.19 0,0 6.83,-3.67 22,-13.43 2.47,-1.58 5.48,-3.45 8.76,-5.38 z"
       style="fill:#ffffff;stroke:#263238;stroke-linecap:round;stroke-linejoin:round"
       id="path708" />
    <path
       d="m 97.9,262.24 a 15.9,15.9 0 0 1 -1.94,-0.76 c -16.82,8.73 -36.91,22.17 -44,27 0.27,1.23 0.51,2.26 0.7,3 C 59,287.14 82,271.65 99.87,262.72 a 16.72,16.72 0 0 1 -1.97,-0.48 z"
       style="fill:#263238"
       id="path710" />
    <path
       d="m 65.4,338.94 a 158.42,158.42 0 0 0 5.6,15.13 c 2.47,5.25 4.63,9.88 4.63,9.88 0,0 -9.63,0.31 -13.63,3.05 -4,2.74 -14.43,15 -14.43,15 0,0 -0.39,-10.34 -0.39,-20.22 0,-9.88 0.31,-23.47 2.47,-26.87 2.16,-3.4 13.28,-7.72 13.28,-7.72"
       style="fill:#a61c3c;stroke:#263238;stroke-miterlimit:10"
       id="path712" />
    <path
       d="m 116.66,314.85 c 0,0 15.44,-1.85 18.83,0.93 3.39,2.78 21,33.35 21,33.35 0,0 -15.75,-4.94 -18.52,-2.47 -2.77,2.47 -13,14.82 -13,14.82 l -5.87,-34"
       style="fill:#a61c3c;stroke:#263238;stroke-miterlimit:10"
       id="path714" />
    <path
       d="m 138.91,339 c -9.38,0.3 -13.79,6.9 -15.78,11.73 l 1.87,10.75 c 0,0 10.19,-12.35 13,-14.82 2.81,-2.47 18.52,2.47 18.52,2.47 0,0 -1.87,-3.25 -4.5,-7.71 A 31.26,31.26 0 0 0 138.91,339 Z"
       style="fill:#263238;stroke:#263238;stroke-miterlimit:10"
       id="path716" />
    <path
       d="m 124.7,452 c 0.28,0.73 4.46,11.63 8.63,18.49 4.33,7.11 4.33,8.34 2.47,12.36 -1.86,4.02 -8.64,6.17 -14.51,4 -5.87,-2.17 -8.65,-3.71 -8.65,-9 0,-5.29 -1.54,-23.15 -1.54,-23.15 0,0 0.31,-8.34 5.56,-9.27 5.25,-0.93 8,6.5 8,6.5"
       style="fill:#a61c3c;stroke:#263238;stroke-miterlimit:10"
       id="path718" />
    <path
       d="m 127.88,483.3 c -6.26,0.37 -12.78,-4.61 -15.26,-6.73 0,0.5 0,0.95 0,1.32 0,5.25 2.78,6.8 8.65,9 5.87,2.2 12.66,0 14.51,-4 1.19,-2.57 1.61,-4 0.63,-6.56 -1.41,3.07 -4.05,6.67 -8.53,6.97 z"
       style="fill:#ffffff;stroke:#263238;stroke-miterlimit:10"
       id="path720" />
    <path
       d="m 87.32,365.18 c 0,0 -7.1,-0.3 -10.19,8.34 -2,5.6 -3.09,13.59 -1.54,18.22 1.55,4.63 32.73,57.75 33.35,58.67 0.62,0.92 2.16,4.33 2.16,4.33 0,0 3.09,-3.09 4.63,-3.09 1.54,0 9,0.31 9,0.31 a 11.37,11.37 0 0 0 -0.31,-6.49 c -1.24,-3.4 -6.18,-11.73 -6.8,-15.44 -0.62,-3.71 -10.49,-46.32 -12.66,-51.57 -2.17,-5.25 -6.83,-13.58 -17.64,-13.28 z"
       style="fill:#263238;stroke:#263238;stroke-miterlimit:10"
       id="path722" />
    <path
       d="m 50.27,378.77 c 0,0 -4.39,10.54 2.32,11.5 6.71,0.96 17.26,-13.91 18.7,-15.82 1.44,-1.91 -13.91,-4.8 -13.91,-4.8 z"
       style="fill:#263238;stroke:#263238;stroke-miterlimit:10"
       id="path724" />
    <path
       d="m 75.59,364 c 0,0 43.54,17.29 47.24,19.45 3.7,2.16 12,13.9 13.28,17.91 1.28,4.01 4.63,16.06 4.94,17 0.31,0.94 -5.25,10.81 -5.56,11.73 -0.31,0.92 -4,4.94 -5.24,4.94 -1.24,0 -3.71,-7.1 -4.33,-12 -0.62,-4.9 -3.09,-28.1 -3.09,-28.1 0,0 -26.24,-5.56 -38.6,-5.56 -12.36,0 -26.23,-6.28 -28.71,-8.75 -2.48,-2.47 -2.78,-5.86 -1.24,-7.1 1.54,-1.24 9.27,-11.73 21.31,-9.52 z"
       style="fill:#ffffff;stroke:#263238;stroke-miterlimit:10"
       id="path726" />
    <line
       x1="130.25"
       y1="434.97"
       x2="130.25"
       y2="419.53"
       style="fill:#ffffff;stroke:#263238;stroke-miterlimit:10"
       id="line728" />
    <line
       x1="132.72"
       y1="433.12"
       x2="134.88"
       y2="417.67999"
       style="fill:#ffffff;stroke:#263238;stroke-miterlimit:10"
       id="line730" />
    <line
       x1="136.73"
       y1="427.25"
       x2="139.50999"
       y2="417.37"
       style="fill:#ffffff;stroke:#263238;stroke-miterlimit:10"
       id="line732" />
    <path
       d="m 93.19,417.06 a 13.19,13.19 0 0 1 -2.38,6.28 68.85,68.85 0 0 1 -4.72,6.07 c 0,0 2.47,2.78 6.48,-0.92 4.01,-3.7 6.49,-11.43 7.1,-13.28 0.61,-1.85 -2.47,-4.01 -6.48,1.85 z"
       style="fill:#ffffff;stroke:#263238;stroke-miterlimit:10"
       id="path734" />
    <path
       d="m 128.08,349.75 c 0,0 -19.14,37.36 -24.08,46.31 -4.94,8.95 -4.94,7.11 -7.1,11.74 -1.11,2.37 -6.46,13.69 -6.09,15.54 0.37,1.85 1.12,13 1.12,13 0,0 1.11,3.33 1.85,0.37 0.74,-2.96 0.74,-10.38 0.74,-10.38 l 1.48,-4.1 c 0,0 1.85,12.23 1.85,13.34 0,1.11 1.49,3.7 2.6,2.59 1.11,-1.11 -0.37,-11.49 -0.37,-11.49 l 1.48,-5.92 c 0,0 1.85,13 3,14.45 1.15,1.45 1.86,3 2.6,0.74 0.74,-2.26 -1.16,-9.64 -1.16,-9.64 l 0.74,-6.67 c 0,0 1.48,10.75 3,12.23 1.52,1.48 2.23,0.74 2.23,-1.85 0,-2.59 -1.86,-11.12 -1.86,-11.12 l 0.09,-18.81 c 0,0 25.63,-26.25 34.28,-35.2 8.65,-8.95 16.89,-10.89 12,-18.64 -4.65,-7.37 -19.13,-6.38 -28.4,3.51 z"
       style="fill:#ffffff;stroke:#263238;stroke-miterlimit:10"
       id="path736" />
    <path
       d="m 47,381.07 a 35.52,35.52 0 0 0 1.33,4 c 0,0 7.22,-13.56 11.24,-16.34 4.02,-2.78 16,-4.78 16,-4.78 0,0 -1.06,-2.69 -2,-4.67 -1,-0.07 -3.19,-0.23 -4.34,-0.25 C 54.75,358.71 49,375.14 47,381.07 Z"
       style="fill:#263238;stroke:#263238;stroke-miterlimit:10"
       id="path738" />
  </g>
</svg>
