<?xml version="1.0" encoding="UTF-8" standalone="no"?>
<svg
   viewBox="0 0 290.87512 310.12369"
   version="1.1"
   id="svg109"
   sodipodi:docname="Partnership-bro.svg"
   width="290.87512"
   height="310.12369"
   inkscape:version="1.1 (c68e22c387, 2021-05-23)"
   xmlns:inkscape="http://www.inkscape.org/namespaces/inkscape"
   xmlns:sodipodi="http://sodipodi.sourceforge.net/DTD/sodipodi-0.dtd"
   xmlns="http://www.w3.org/2000/svg"
   xmlns:svg="http://www.w3.org/2000/svg">
  <defs
     id="defs113" />
  <sodipodi:namedview
     id="namedview111"
     pagecolor="#ffffff"
     bordercolor="#666666"
     borderopacity="1.0"
     inkscape:pageshadow="2"
     inkscape:pageopacity="0.0"
     inkscape:pagecheckerboard="0"
     showgrid="false"
     inkscape:zoom="1.244"
     inkscape:cx="145.90032"
     inkscape:cy="102.89389"
     inkscape:window-width="1368"
     inkscape:window-height="850"
     inkscape:window-x="-6"
     inkscape:window-y="-6"
     inkscape:window-maximized="1"
     inkscape:current-layer="svg109" />
  <g
     id="freepik--Characters--inject-6"
     transform="translate(-103.72001,-147.50632)">
    <path
       d="m 349.33,179.57 c 0,0 0.31,-11.29 6.82,-14.49 6.51,-3.2 6.88,7.37 6.88,7.37 0,0 14.89,-9.46 18.12,-2.29 3.23,7.17 -1.28,10.64 -1.28,10.64 0,0 13.22,-0.46 14.14,6.79 0.92,7.25 -5.91,10.8 -5.91,10.8 0,0 8.17,6.67 5.3,9.75 -2.87,3.08 -9.15,3.3 -9.15,3.3 0,0 3.56,7.15 -2.65,9.69 -6.21,2.54 -13.31,-2.19 -13.31,-2.19 0,0 1.1,3.28 -3.56,2.45 -4.66,-0.83 -9.37,-3 -12.26,-9.84 -2.89,-6.84 -6.62,-26.21 -3.14,-31.98 z"
       style="fill:#263238;stroke:#263238;stroke-linecap:round;stroke-linejoin:round"
       id="path2" />
    <path
       d="m 280.59,397.62 c 0,0 -3.71,14.16 -3.65,15.73 0.06,1.57 -1.23,5.13 -0.14,6.14 a 52.33,52.33 0 0 0 6.47,4.51 4.89,4.89 0 0 0 2.6,-0.79 2.44,2.44 0 0 0 0.81,-1.78 c 0,-0.53 -1.49,-2.75 -1.69,-3.27 -0.2,-0.52 2.73,-7.29 3.84,-10.66 a 60,60 0 0 0 1.78,-9.18 z"
       style="fill:#bdbdbd;stroke:#263238;stroke-miterlimit:10"
       id="path4" />
    <path
       d="m 284.62,407.48 c 0,0 -2.11,5 -2.25,5.86 -0.14,0.86 -3,3.26 -2.62,5.18 0.38,1.92 4.6,1.41 6.68,-4.27"
       style="fill:#bdbdbd;stroke:#263238;stroke-miterlimit:10"
       id="path6" />
    <path
       d="m 294.07,320.7 c 0,0 -1.77,28.88 -2.44,31.43 -0.67,2.55 -8.71,25.84 -10.48,33 a 97.16,97.16 0 0 0 -2.31,13.48 l 10.79,2.27 6.06,-26.62 c 0,0 7.92,-24.26 6.31,-35.63 a 34,34 0 0 0 -7.93,-17.93 z"
       style="fill:#a61c3c;stroke:#263238;stroke-miterlimit:10"
       id="path8" />
    <path
       d="m 350.28,457.13 c 0.13,-6.28 0.39,-14.75 1,-19.6 1,-8.38 4.58,-13.56 8.26,-24 3.68,-10.44 4,-24.16 4,-24.16 l -65.9,2.3 c 0,0 -7.64,28.33 -12.27,49.17 a 84.59,84.59 0 0 0 -2.19,16.29"
       style="fill:#a61c3c;stroke:#263238;stroke-miterlimit:10"
       id="path10" />
    <polygon
       points="362.26,399.59 306.27,402.29 361.1,403.83 "
       style="fill:#263238;stroke:#263238;stroke-linecap:round;stroke-linejoin:round"
       id="polygon12" />
    <path
       d="m 303.5,456.13 c 0,0 -1.08,-34.29 -1.11,-52.9"
       style="fill:#ffffff;stroke:#263238;stroke-miterlimit:10"
       id="path14" />
    <path
       d="m 345.53,248.16 8,5.38 c 0,0 9.47,8.46 11.8,15.46 2.33,7 0.64,48.57 -1.71,62 -2.35,13.43 3.52,30.16 5.61,39.6 2.09,9.44 3,27 3,27 0,0 1.48,2.06 -24.2,2.95 -25.68,0.89 -43.59,2.23 -45.69,2.65 a 25.69,25.69 0 0 1 -3.85,0.49 l -1,-9.12 -2.49,7.51 -5.33,-1.22 c 0,0 3.31,-16.32 4.14,-22.68 0.83,-6.36 6.07,-28 6.14,-36.14 0.07,-8.14 -6.73,-21.24 -8.06,-29.3 -1.33,-8.06 1.35,-21.88 8,-32.32 6.65,-10.44 11.11,-14.48 24.11,-25.14 13,-10.66 21.53,-7.12 21.53,-7.12 z"
       style="fill:#a61c3c;stroke:#263238;stroke-miterlimit:10"
       id="path16" />
    <polyline
       points="324.69 370.01 351.52 373.05 350.01 366.03 333.27 364.59"
       style="fill:none;stroke:#263238;stroke-miterlimit:10"
       id="polyline18" />
    <polyline
       points="315.31 364.2 313.95 368.8 320.68 369.56"
       style="fill:none;stroke:#263238;stroke-miterlimit:10"
       id="polyline20" />
    <path
       d="m 325.38,318.23 a 29.81,29.81 0 0 1 -3.46,-3.81"
       style="fill:none;stroke:#263238;stroke-miterlimit:10"
       id="path22" />
    <path
       d="m 334.71,326.11 c 0,0 -2.83,-2.14 -5.93,-4.8"
       style="fill:none;stroke:#263238;stroke-miterlimit:10"
       id="path24" />
    <path
       d="m 345.53,248.16 c 0,0 -8.53,-3.55 -21.53,7.12 -13,10.67 -17.45,14.72 -24.13,25.14 a 56.45,56.45 0 0 0 -7.8,21.11 c 0.16,0.78 0.33,1.57 0.52,2.38 3.72,15.72 7.86,23.32 7.86,23.32 0,0 7.2,-35.82 19.73,-50.34 12.53,-14.52 33.34,-23.35 33.34,-23.35 z"
       style="fill:#a61c3c;stroke:#263238;stroke-miterlimit:10"
       id="path26" />
    <path
       d="m 314.26,178.29 c 0,0 -9.39,8.77 -10.09,15.68 -0.7,6.91 -1.43,12.87 -2.6,15.1 -1.17,2.23 -7.07,3.69 -5.07,7.06 2,3.37 3.87,3.3 3.87,3.3 0,0 3,14.91 5.28,17 2.28,2.09 10.35,0.89 10.35,0.89 l 2.5,18.08 c 0,0 -16.79,14.89 -20.06,35.64 -3.27,20.75 0.47,32.59 0.47,32.59 0,0 2.19,-32.69 9.75,-44.93 7.56,-12.24 25.12,-23.83 27.71,-25.92 2.59,-2.09 9.16,-4.64 9.16,-4.64 0,0 -3.12,-7 -3.54,-10.16 -0.42,-3.16 -0.28,-7.81 0.31,-9.08 0.59,-1.27 11.08,-5.08 15,-17.1 3.92,-12.02 -1.85,-26.21 -8,-32.25 -6.15,-6.04 -27.18,-9.04 -35.04,-1.26 z"
       style="fill:#bdbdbd;stroke:#263238;stroke-miterlimit:10"
       id="path28" />
    <path
       d="m 357.34,211.82 c 4,-12 -1.85,-26.21 -8,-32.25 -6.15,-6.04 -27.21,-9.06 -35.07,-1.28 0,0 -0.5,0.47 -1.28,1.28 a 21.69,21.69 0 0 1 9.13,-0.3 c 6.29,1 6.15,6 4.44,10.79 -1.71,4.79 -0.42,5.64 2.79,8 3.21,2.36 -0.08,6.89 2.18,8.69 2.26,1.8 4.1,-8 9,-0.94 4.9,7.06 1.61,10.26 -1.45,12.24 a 22.93,22.93 0 0 1 -5.53,2.7 c 0,0 4.63,5.43 9.2,7.67 2.19,-1.63 11.03,-5.8 14.59,-16.6 z"
       style="fill:#263238;stroke:#263238;stroke-linecap:round;stroke-linejoin:round"
       id="path30" />
    <path
       d="m 305.46,222.07 c 0,0 6.55,-0.54 9.58,-3.46"
       style="fill:none;stroke:#263238;stroke-miterlimit:10"
       id="path32" />
    <path
       d="m 309.62,206.6 c 0.05,1.55 -0.54,2.83 -1.31,2.86 -0.77,0.03 -1.45,-1.21 -1.51,-2.76 -0.06,-1.55 0.54,-2.83 1.31,-2.86 0.77,-0.03 1.45,1.21 1.51,2.76 z"
       style="fill:#263238"
       id="path34" />
    <path
       d="m 306.8,200.27 c 0,0 2.11,-2.84 5.13,0.51"
       style="fill:none;stroke:#263238;stroke-miterlimit:10"
       id="path36" />
    <polygon
       points="318.37,244.17 316,237.34 323.81,234.4 "
       style="fill:#263238;stroke:#263238;stroke-miterlimit:10"
       id="polygon38" />
    <polygon
       points="292.46,426.14 297.52,394.6 293.51,380.87 283.27,424 "
       style="fill:#ffffff;stroke:#263238;stroke-miterlimit:10"
       id="polygon40" />
    <path
       d="m 302.56,277.61 a 52.88,52.88 0 0 0 -4.12,13.45 c -3.27,20.74 0.47,32.59 0.47,32.59 0,0 2.17,-32.25 9.6,-44.67 a 26.86,26.86 0 0 1 -5.95,-1.37 z"
       style="fill:#ffffff;stroke:#263238;stroke-miterlimit:10"
       id="path42" />
    <path
       d="m 334.2,291.07 -0.7,36.6 -64.05,10.56 1.4,17.25 c 0,0 35.55,0.7 52.09,-0.71 16.54,-1.41 31,-2.46 33.08,-4.22 2.08,-1.76 8.11,-35.78 10.57,-59.71 2.46,-23.93 -2.46,-32 -12.31,-30.62"
       style="fill:#a61c3c;stroke:#263238;stroke-miterlimit:10"
       id="path44" />
    <path
       d="m 231.13,336.68 -5.13,15.56 5,2.72 c 0,0 6.35,4.92 9.83,7.58 3.48,2.66 6.15,2.66 8,1.84 1.85,-0.82 10.24,-12.7 11.26,-14.95 1.02,-2.25 -3.89,-9 -8.8,-11.88 -4.91,-2.88 -9,-2.86 -11.88,-2 a 53.18,53.18 0 0 1 -8.28,1.13 z"
       style="fill:#ffffff;stroke:#263238;stroke-miterlimit:10"
       id="path46" />
    <path
       d="m 269.45,338.23 -8.1,-0.7 a 52.5,52.5 0 0 0 -7.74,-1.41 c -2.11,0 -4.93,2.11 -6.34,3.17 -1.41,1.06 -16.89,17.95 -16.89,17.95 0,0 1.41,2.81 3.52,2.11 2.11,-0.7 6,-2.47 6,-2.47 0,0 -4.22,4.23 -2.11,6.34 2.11,2.11 5.63,2.11 5.63,2.11 l 2.47,-1.41 a 9.73,9.73 0 0 0 3.51,1.76 c 1.76,0.35 4.58,-0.35 7,-1.76 2.42,-1.41 8.71,-8.75 8.71,-8.75 l 5.4,-2.09 z"
       style="fill:#bdbdbd;stroke:#263238;stroke-miterlimit:10"
       id="path48" />
    <path
       d="m 233.92,337.35 c 0,0 10.24,-5.94 14.74,-4.3 4.5,1.64 10.45,11.67 8.81,13.11 -1.64,1.44 -4.3,0.81 -5.73,-0.62 a 23.85,23.85 0 0 0 -3.89,-2.87 19.28,19.28 0 0 1 -8.81,2.46"
       style="fill:#ffffff;stroke:#263238;stroke-miterlimit:10"
       id="path50" />
    <path
       d="m 264.46,360.6 -3.25,-1.74 a 2.25,2.25 0 0 1 -0.93,-3.05 v 0 a 2.25,2.25 0 0 1 3.05,-0.92 l 3.25,1.73 a 2.26,2.26 0 0 1 0.93,3.05 v 0 a 2.26,2.26 0 0 1 -3.05,0.93 z"
       style="fill:#ffffff;stroke:#263238;stroke-miterlimit:10"
       id="path52" />
    <path
       d="m 261.59,364.08 -3.25,-1.74 a 2.26,2.26 0 0 1 -0.93,-3 v 0 a 2.26,2.26 0 0 1 3,-0.92 l 3.25,1.73 a 2.25,2.25 0 0 1 0.93,3 v 0 a 2.25,2.25 0 0 1 -3,0.93 z"
       style="fill:#ffffff;stroke:#263238;stroke-miterlimit:10"
       id="path54" />
    <path
       d="m 258.31,367.15 -3.25,-1.74 a 2.24,2.24 0 0 1 -0.92,-3.05 v 0 a 2.25,2.25 0 0 1 3.05,-0.92 l 3.25,1.74 a 2.25,2.25 0 0 1 0.92,3.05 v 0 a 2.25,2.25 0 0 1 -3.05,0.92 z"
       style="fill:#ffffff;stroke:#263238;stroke-miterlimit:10"
       id="path56" />
    <path
       d="m 251.41,367.3 -0.85,-0.45 a 2.25,2.25 0 0 1 -0.93,-3.05 v 0 a 2.26,2.26 0 0 1 3.05,-0.93 l 0.85,0.46 a 2.25,2.25 0 0 1 0.93,3.05 v 0 a 2.25,2.25 0 0 1 -3.05,0.92 z"
       style="fill:#ffffff;stroke:#263238;stroke-miterlimit:10"
       id="path58" />
    <polygon
       points="189.74,346.98 225.23,355.11 231.13,336.68 188.15,318.51 "
       style="fill:#263238;stroke:#263238;stroke-linecap:round;stroke-linejoin:round"
       id="polygon60" />
    <polygon
       points="225.12,334.02 225,334.63 219.5,353.72 225.23,355.11 231.13,336.68 "
       style="fill:#ffffff;stroke:#263238;stroke-miterlimit:10"
       id="polygon62" />
    <path
       d="m 164,222.8 11,5.11 c 0,0 4.62,13.09 3.08,13.47 -1.54,0.38 -13.09,-8.85 -13.09,-8.85 z"
       style="fill:#ffffff;stroke:#263238;stroke-linecap:round;stroke-linejoin:round"
       id="path64" />
    <path
       d="m 170.39,220.18 0.77,-4.41 c 0,0 10.2,0.7 14.28,0.67 4.08,-0.03 7.64,-0.55 7.61,-4.88 -0.03,-4.33 -2.41,-19.1 -2.41,-19.1 0,0 4.58,-1.05 6.35,-3.1 1.77,-2.05 -0.79,-4.58 -3.1,-7.63 -2.31,-3.05 -4.38,-6.34 -4.65,-9.91 -0.27,-3.57 -6.47,-15.25 -6.47,-15.25 0,0 1,-1.79 -2.33,-5.59 -3.33,-3.8 -20.41,-4.46 -31.34,1 -10.93,5.46 -13.42,13.34 -13.37,22 0.05,8.66 5,20.87 5,20.87 0,0 -3.23,13.27 -3.48,14 -0.25,0.73 -3.15,6.42 -3.15,6.42 0,0 13.67,9.53 18.66,13.81 4.99,4.28 16.26,11.6 16.33,7.64 0.07,-3.96 0.52,-12.9 0.52,-12.9 z"
       style="fill:#ffffff;stroke:#263238;stroke-linecap:round;stroke-linejoin:round"
       id="path66" />
    <path
       d="m 185.46,178.82 c 0.06,1.48 -0.28,2.69 -0.77,2.71 -0.49,0.02 -0.95,-1.15 -1,-2.63 -0.05,-1.48 0.27,-2.69 0.77,-2.71 0.5,-0.02 0.93,1.15 1,2.63 z"
       style="fill:#263238"
       id="path68" />
    <path
       d="m 178.29,173.93 c 0,0 2.27,-3.84 8.15,-1.58"
       style="fill:none;stroke:#263238;stroke-width:2px;stroke-linecap:round;stroke-linejoin:round"
       id="path70" />
    <path
       d="m 193.05,211.56 c 0,-4.34 -2.41,-19.1 -2.41,-19.1 0,0 -2.81,-1.51 -8.16,-0.21 -5.35,1.3 -6.81,10 -7.83,11 -1.02,1 -7.67,-5 -10.25,-9.11 -2.58,-4.11 -4.4,-11.14 -4.68,-15.25 -0.28,-4.11 9.39,-6.18 10.9,-10 1.51,-3.82 -5.62,-7.89 -3.13,-10.44 2.49,-2.55 7.64,-1.57 10.19,-1.08 a 9,9 0 0 0 5.09,-0.8 c 0,0 1,-1.79 -2.33,-5.59 -3.33,-3.8 -20.41,-4.46 -31.34,1 -10.93,5.46 -13.42,13.34 -13.37,22 0.05,7 3.29,16.36 4.51,19.66 a 8.28,8.28 0 0 0 3.27,0.68 c 1,-0.26 1.76,-3.32 2.25,-6.39 0.49,-3.07 7.86,-6.67 7.86,-6.67 0,0 1.33,9.17 1.34,10.95 0.01,1.78 -1,10.71 3.92,15 a 91.76,91.76 0 0 0 12.28,8.59 c 0,0 10.2,0.7 14.28,0.67 4.08,-0.03 7.64,-0.58 7.61,-4.91 z"
       style="fill:#263238;stroke:#263238;stroke-linecap:round;stroke-linejoin:round"
       id="path72" />
    <path
       d="m 155.19,187.58 c 0,0 -2.12,-12.22 -5.68,-11.69 -3.56,0.53 -5.58,5.13 -3.76,11 1.82,5.87 5.39,5.32 7.42,4.8"
       style="fill:#ffffff;stroke:#263238;stroke-linecap:round;stroke-linejoin:round"
       id="path74" />
    <path
       d="m 180.22,196.85 c 0,0 2.05,2.54 7.4,2.51"
       style="fill:none;stroke:#ffffff;stroke-linecap:round;stroke-linejoin:round"
       id="path76" />
    <path
       d="m 123,457.13 h 54 c 0.18,-2.84 2.28,-13.76 2.28,-20.92 0,-8.27 5.69,-61.62 5.69,-61.62 l -70.23,-0.92 2.3,32.65 z"
       style="fill:#263238;stroke:#263238;stroke-linecap:round;stroke-linejoin:round"
       id="path78" />
    <path
       d="m 130,217.13 c 0,0 -12.31,15.79 -15.78,24.64 -3.47,8.85 -6.16,10.39 -5.39,21.55 0.77,11.16 6.17,55.81 6.17,55.81 l -10.78,58.13 a 118.11,118.11 0 0 0 39.65,6.92 c 22.32,0 32,-1.92 33.49,-2.69 1.49,-0.77 15,-4.23 15,-4.23 0,0 0,-65.82 -4.24,-88.53 -4.24,-22.71 -9.62,-40 -11.54,-44.27 -1.92,-4.27 -8.09,-18.09 -8.09,-18.09 z"
       style="fill:#263238;stroke:#263238;stroke-linecap:round;stroke-linejoin:round"
       id="path80" />
    <path
       d="m 176.61,244.46 c -1.93,-4.23 -8.09,-18.09 -8.09,-18.09 L 130,217.13 c 0,0 -2.6,3.34 -5.75,7.81 8.39,4.87 29.16,16.91 30.39,17.21 1.54,0.39 9.24,-0.38 9.24,-0.38 l -3.44,4.23 c 0,0 9.24,7.32 12.32,10.39 1.62,1.62 6.32,5.9 10.42,9.6 -2.79,-11.06 -5.37,-18.87 -6.57,-21.53 z"
       style="fill:#263238;stroke:#263238;stroke-linecap:round;stroke-linejoin:round"
       id="path82" />
    <polygon
       points="182.76,264.48 175.84,236.38 161.6,228.3 158.9,234.84 171.99,245.23 "
       style="fill:#ffffff;stroke:#263238;stroke-linecap:round;stroke-linejoin:round"
       id="polygon84" />
    <polygon
       points="173.03,242.22 126.95,218.67 132.73,209.82 173.03,227.98 "
       style="fill:#ffffff;stroke:#263238;stroke-linecap:round;stroke-linejoin:round"
       id="polygon86" />
    <rect
       x="116.38"
       y="355.48999"
       width="69.639999"
       height="56.349998"
       style="fill:#a61c3c;stroke:#263238;stroke-miterlimit:10"
       id="rect88" />
    <path
       d="m 155.47,382.35 c 0,0 5.18,6.75 7.21,7.43 a 8,8 0 0 1 4,3.6 c 0.9,1.35 2,11.48 2.7,12.16 0.7,0.68 0.68,2.25 -1.8,1.12 -2.48,-1.13 -4,-5 -4,-5 l 0.9,9 c 0,0 2,0.45 0.45,1.58 -1.55,1.13 -2.93,2.7 -4.28,2 a 21.52,21.52 0 0 1 -3.37,-2.48 10.82,10.82 0 0 1 -5,0.45 c -2.47,-0.45 -2,0.45 -4.27,-1.13 -2.27,-1.58 -2.26,0.23 -3.38,-2.7 a 138.46,138.46 0 0 1 -4.28,-16 c -0.45,-2.93 -0.9,-7 -0.9,-7 z"
       style="fill:#ffffff;stroke:#263238;stroke-linecap:round;stroke-linejoin:round"
       id="path90" />
    <polygon
       points="138.59,387.75 137.69,380.77 156.38,378.07 157.95,385.05 "
       style="fill:#ffffff;stroke:#263238;stroke-linecap:round;stroke-linejoin:round"
       id="polygon92" />
    <path
       d="m 131.57,231 c 0,0 -13.47,4.23 -13.85,10.39 -0.38,6.16 -4.85,80.87 -2.92,85.87 1.93,5 20.86,55.67 20.86,55.67 l 21.94,-2.69 c 0,0 -11.24,-58.76 -11.6,-59.92 -0.36,-1.16 7.54,-66.62 7.54,-66.62"
       style="fill:#263238;stroke:#263238;stroke-linecap:round;stroke-linejoin:round"
       id="path94" />
    <polyline
       points="150.93 272.5 145.97 320.32 150.7 350.03"
       style="fill:none;stroke:#878787;stroke-linecap:round;stroke-linejoin:round"
       id="polyline96" />
    <line
       x1="151.69"
       y1="265.17999"
       x2="151.42999"
       y2="267.72"
       style="fill:none;stroke:#878787;stroke-linecap:round;stroke-linejoin:round"
       id="line98" />
    <line
       x1="116.17"
       y1="257.78"
       x2="114.69"
       y2="302.67999"
       style="fill:none;stroke:#878787;stroke-linecap:round;stroke-linejoin:round"
       id="line100" />
    <polyline
       points="166.49 342.19 181.29 341.65 182.62 346.98 158.1 348.55"
       style="fill:none;stroke:#878787;stroke-linecap:round;stroke-linejoin:round"
       id="polyline102" />
    <line
       x1="154.16"
       y1="342.63"
       x2="162.03999"
       y2="342.35001"
       style="fill:none;stroke:#878787;stroke-linecap:round;stroke-linejoin:round"
       id="line104" />
    <polyline
       points="127.52 226.21 154.67 242.15 163.91 241.77 160.44 246 178.33 260.25"
       style="fill:none;stroke:#878787;stroke-linecap:round;stroke-linejoin:round"
       id="polyline106" />
  </g>
</svg>
