<?xml version="1.0" encoding="UTF-8" standalone="no"?>
<svg
   viewBox="0 0 472.56 447.61203"
   version="1.1"
   id="svg330"
   sodipodi:docname="kpl-service-anim-formation.svg"
   width="472.56"
   height="447.61203"
   inkscape:version="1.1 (c68e22c387, 2021-05-23)"
   xmlns:inkscape="http://www.inkscape.org/namespaces/inkscape"
   xmlns:sodipodi="http://sodipodi.sourceforge.net/DTD/sodipodi-0.dtd"
   xmlns="http://www.w3.org/2000/svg"
   xmlns:svg="http://www.w3.org/2000/svg">
  <defs
     id="defs334" />
  <sodipodi:namedview
     id="namedview332"
     pagecolor="#ffffff"
     bordercolor="#666666"
     borderopacity="1.0"
     inkscape:pageshadow="2"
     inkscape:pageopacity="0.0"
     inkscape:pagecheckerboard="0"
     showgrid="false"
     inkscape:zoom="1.244"
     inkscape:cx="231.91318"
     inkscape:cy="230.7074"
     inkscape:window-width="1368"
     inkscape:window-height="850"
     inkscape:window-x="-6"
     inkscape:window-y="-6"
     inkscape:window-maximized="1"
     inkscape:current-layer="svg330" />
  <g
     id="freepik--Pennants--inject-2"
     transform="translate(-17.95,-18.986158)">
    <path
       d="M 108,57.51 Q 96.19,61.41 84.24,65.1 72.62,58.43 61.18,51.56 l 4.23,-29.31 q 22.89,3.3 45.85,5.82 -1.6,14.73 -3.26,29.44 z"
       style="fill:#f96900;stroke:#263238;stroke-miterlimit:10"
       id="path2" />
    <path
       d="m 166,62.63 q -11.62,4.4 -23.4,8.59 Q 130.67,65 119,58.66 l 3,-29.46 q 23,2.34 46,3.89 -1,14.77 -2,29.54 z"
       style="fill:none;stroke:#263238;stroke-miterlimit:10"
       id="path4" />
    <path
       d="m 224,65.32 q -11.41,4.88 -23,9.56 -12.15,-5.67 -24.1,-11.55 0.87,-14.79 1.75,-29.56 23,1.36 46.1,1.95 z"
       style="fill:#f96900;stroke:#263238;stroke-miterlimit:10"
       id="path6" />
    <path
       d="M 282.16,65.56 Q 271,70.91 259.58,76.08 247.21,70.92 235,65.55 l 0.51,-29.61 q 23.06,0.41 46.13,0 0.26,14.82 0.52,29.62 z"
       style="fill:none;stroke:#263238;stroke-miterlimit:10"
       id="path8" />
    <path
       d="m 340.24,63.35 q -11,5.82 -22.13,11.47 -12.57,-4.63 -25,-9.49 -0.36,-14.8 -0.73,-29.6 23.06,-0.57 46.1,-1.93 z"
       style="fill:#f96900;stroke:#263238;stroke-miterlimit:10"
       id="path10" />
    <path
       d="M 398.21,58.71 Q 387.49,65 376.57,71.1 363.81,67 351.2,62.66 l -2,-29.54 q 23,-1.54 46,-3.87 1.52,14.75 3.01,29.46 z"
       style="fill:none;stroke:#263238;stroke-miterlimit:10"
       id="path12" />
    <path
       d="m 456,51.62 q -10.47,6.74 -21.13,13.29 -12.94,-3.55 -25.73,-7.35 -1.61,-14.72 -3.22,-29.43 23,-2.52 45.86,-5.81 2.12,14.68 4.22,29.3 z"
       style="fill:#f96900;stroke:#263238;stroke-miterlimit:10"
       id="path14" />
    <path
       d="m 47.12,19.48 a 1353.1,1353.1 0 0 0 423.42,0"
       style="fill:none;stroke:#263238;stroke-miterlimit:10"
       id="path16" />
  </g>
  <g
     id="freepik--Board--inject-2"
     transform="translate(-17.95,-18.986158)">
    <rect
       x="80"
       y="91"
       width="332"
       height="194"
       style="fill:#ffffff;stroke:#263238;stroke-miterlimit:10"
       id="rect19" />
    <path
       d="m 277.31,134.46 v -5.81 c 0,-1.35 -0.11,-3.32 -0.33,-5.93 -0.22,-2.61 -0.34,-4.36 -0.34,-5.26 0,-0.9 0,-2 0.09,-3.23 0.09,-1.23 0.09,-2.18 0.09,-2.81 q -0.19,0.6 -1.53,6.29 -3.46,14.69 -4.95,14.69 a 1.85,1.85 0 0 1 -1.39,-0.53 2,2 0 0 1 -0.5,-1.43 46.75,46.75 0 0 0 -1.69,-8.86 c -1.14,-4.48 -2.09,-7.91 -2.88,-10.29 q -0.86,16 -0.86,21.66 l 0.06,1.36 a 1.76,1.76 0 0 1 -0.31,1.12 1.16,1.16 0 0 1 -1,0.39 1.71,1.71 0 0 1 -1.09,-0.33 0.94,0.94 0 0 1 -0.42,-0.76 q 0,-4.64 0.7,-13.9 0.7,-9.26 0.7,-13.89 a 1.69,1.69 0 0 1 -0.27,-0.94 0.84,0.84 0 0 1 0.55,-0.79 2.71,2.71 0 0 1 1.2,-0.27 q 1,0 3.86,9.14 2.86,9.14 3.56,12.64 c 0.13,-0.45 0.41,-1.57 0.83,-3.37 0.42,-1.8 0.87,-3.66 1.34,-5.6 0.47,-1.94 1,-3.92 1.55,-5.9 q 1.92,-6.84 3.24,-6.84 a 2.15,2.15 0 0 1 1.14,0.33 1,1 0 0 1 0.53,0.91 c 0,2.19 0.09,5.46 0.29,9.81 0.2,4.35 0.29,7.51 0.29,9.48 l -0.12,4.79 v 0 q 0,0.51 0.27,3.24 l 0.09,0.88 a 2.79,2.79 0 0 1 0.2,1 2.09,2.09 0 0 1 -0.42,1.16 1.27,1.27 0 0 1 -1.11,0.62 c -0.9,0.07 -1.37,-0.87 -1.37,-2.77 z"
       style="fill:#f96900"
       id="path21" />
    <path
       d="m 293,125.7 0.49,2.79 a 19.24,19.24 0 0 0 0.43,2.71 18.17,18.17 0 0 1 0.43,2.82 v 0 a 1.22,1.22 0 0 1 -0.75,1.29 3,3 0 0 1 -1.49,-0.31 1.29,1.29 0 0 1 -0.53,-1.2 33.59,33.59 0 0 0 -0.67,-5.61 l -4.48,-0.67 a 21.84,21.84 0 0 0 -0.64,3.31 24.27,24.27 0 0 1 -0.43,2.62 c -0.26,1.12 -0.76,1.68 -1.48,1.68 a 1.59,1.59 0 0 1 -1,-0.34 1.06,1.06 0 0 1 -0.45,-0.88 l 0.11,-0.4 a 195.11,195.11 0 0 0 4.55,-23 c 0,-0.2 0.07,-0.81 0.13,-1.82 0.15,-2.22 0.43,-3.63 0.84,-4.24 h 1.53 a 2,2 0 0 1 1.09,0.29 1,1 0 0 1 0.47,0.87 82.71,82.71 0 0 0 0.92,10.28 84.11,84.11 0 0 1 0.93,9.81 z m -2.38,0.9 a 14.59,14.59 0 0 1 -0.13,-2.31 c 0,-1.11 -0.06,-2.48 -0.19,-4.11 -0.13,-1.63 -0.3,-3.54 -0.54,-5.7 -0.24,-2.16 -0.4,-3.74 -0.49,-4.72 q -2.06,11.43 -2.66,16.11 a 10.45,10.45 0 0 0 4.01,0.73 z"
       style="fill:#f96900"
       id="path23" />
    <path
       d="m 299.88,134.2 -0.09,-3.49 c 0,0 0,-0.53 0.07,-1.55 q -0.18,-0.58 -0.72,-10.26 -0.54,-9.68 -0.59,-11.83 h -0.18 c -2.46,0 -3.68,-0.49 -3.68,-1.35 a 0.82,0.82 0 0 1 0.48,-0.7 2,2 0 0 1 1,-0.28 l 6.17,0.42 h 0.73 c 1,0 1.42,0.37 1.42,1.09 a 1.07,1.07 0 0 1 -0.46,0.9 1.73,1.73 0 0 1 -1.05,0.34 l -2.08,-0.31 -0.09,0.47 q 0,4.31 0.75,12.89 0.75,8.58 0.76,12.92 a 1.21,1.21 0 0 1 -0.49,0.94 1.6,1.6 0 0 1 -1.07,0.41 z"
       style="fill:#f96900"
       id="path25" />
    <path
       d="m 309.36,107.56 -0.18,11.34 a 10.14,10.14 0 0 0 2.49,0.23 h 1.64 a 5.23,5.23 0 0 0 0.11,-1.47 c 0,-0.84 -0.1,-2.7 -0.3,-5.56 -0.2,-2.86 -0.3,-5 -0.3,-6.47 a 1.06,1.06 0 0 1 0.4,-0.85 1.21,1.21 0 0 1 0.75,-0.35 1.87,1.87 0 0 1 0.58,0.07 3.33,3.33 0 0 1 0.49,0.18 l 0.42,0.15 q 0,5.91 0.43,17.26 0.43,11.35 0.44,11.73 a 1,1 0 0 1 -0.48,0.74 1.68,1.68 0 0 1 -1.07,0.37 c -0.39,0 -0.7,-0.29 -0.94,-0.87 a 8.54,8.54 0 0 1 -0.48,-2.56 c -0.08,-1.13 -0.13,-2.11 -0.16,-2.94 0,-0.36 0,-0.76 0,-1.22 0,-0.62 0,-1.33 0,-2.13 0,-1.41 0,-2.22 0,-2.44 v -0.18 l 0.07,-1.31 -0.27,-0.42 v 0 a 3.49,3.49 0 0 1 -0.82,0.09 l -2.93,-0.42 v 5.22 l 0.27,7.47 a 2.06,2.06 0 0 1 -0.33,1.15 1.1,1.1 0 0 1 -1,0.5 c -0.6,0 -1,-0.55 -1.25,-1.66 a 23,23 0 0 1 -0.35,-4.51 l 0.14,-6.93 a 20.18,20.18 0 0 0 -0.07,-2.37 v -0.22 q 0.18,-2.38 0.18,-2.67 l -0.31,-10.25 a 1.37,1.37 0 0 1 0.37,-0.95 1.23,1.23 0 0 1 0.91,-0.41 c 1.07,-0.05 1.55,0.86 1.55,2.66 z"
       style="fill:#f96900"
       id="path27" />
    <path
       d="m 328.63,144.92 h -73.14 a 1,1 0 0 1 0,-2 h 73.14 a 1,1 0 0 1 0,2 z"
       style="fill:#f96900"
       id="path29" />
    <path
       d="m 255.49,141.53 a 1,1 0 0 1 0,-2 l 66.37,-0.67 v 0 a 1,1 0 1 1 0,2 l -66.36,0.67 z"
       style="fill:#f96900"
       id="path31" />
    <path
       d="m 249.39,120.54 a 1,1 0 0 1 -0.47,-0.12 l -8.8,-4.74 a 1.0000125,1.0000125 0 1 1 0.95,-1.76 l 8.8,4.74 a 1,1 0 0 1 -0.48,1.88 z"
       style="fill:#f96900"
       id="path33" />
    <path
       d="m 252.78,114.45 a 1,1 0 0 1 -0.51,-0.15 l -6.77,-4.06 a 1,1 0 1 1 1,-1.71 l 6.78,4.06 a 1,1 0 0 1 0.34,1.37 1,1 0 0 1 -0.84,0.49 z"
       style="fill:#f96900"
       id="path35" />
    <path
       d="m 324.56,117.15 a 1,1 0 0 1 -0.79,-1.61 l 6.77,-8.8 a 1.0020604,1.0020604 0 0 1 1.59,1.22 l -6.77,8.8 a 1,1 0 0 1 -0.8,0.39 z"
       style="fill:#f96900"
       id="path37" />
    <path
       d="m 325.92,124.6 a 1,1 0 0 1 -0.71,-0.29 1,1 0 0 1 0,-1.41 l 10.16,-10.16 a 1,1 0 1 1 1.41,1.41 l -10.16,10.16 a 1,1 0 0 1 -0.7,0.29 z"
       style="fill:#f96900"
       id="path39" />
    <rect
       x="80"
       y="277.10999"
       width="332"
       height="7.8899999"
       style="fill:#263238;stroke:#263238;stroke-miterlimit:10"
       id="rect41" />
    <path
       d="m 258,181.4 0.58,-15.93 a 1.07,1.07 0 0 1 0.55,-0.93 2.05,2.05 0 0 1 1.08,-0.35 l 1,1 v 2.73 q 0,8.87 -0.13,13.23 l 1.81,-0.14 c 1.25,0 1.87,0.41 1.87,1.22 0,0.81 -0.83,1.39 -2.51,1.39 -0.67,0 -1,0.17 -1,0.5 0,1.28 0.05,3 0.17,5.28 a 16,16 0 0 0 0.47,4 7.08,7.08 0 0 0 -0.12,1.23 1.68,1.68 0 0 0 0.28,1 v 1 c 0,1.43 -0.49,2.14 -1.48,2.14 a 1.64,1.64 0 0 1 -1.47,-0.89 3.52,3.52 0 0 1 -0.52,-1.81 v -0.19 a 6.63,6.63 0 0 0 0.34,-2.06 l -0.46,-5.53 0.06,-2.47 a 11.55,11.55 0 0 0 -0.12,-1.75 l -3.44,0.3 v 0 a 4.3,4.3 0 0 1 -2.45,-0.92 7.42,7.42 0 0 1 0.28,-2.19 15.81,15.81 0 0 1 -0.28,-3.24 52.83,52.83 0 0 1 0.48,-5.82 55,55 0 0 0 0.47,-5.76 v -10.5 a 1.34,1.34 0 0 1 0.22,-0.84 c 0.14,-0.18 0.46,-0.27 0.95,-0.27 a 2.27,2.27 0 0 1 1.31,0.39 1.19,1.19 0 0 1 0.59,1 l -0.28,4.42 v 1 a 4,4 0 0 0 0.12,1 v 0.19 a 27.4,27.4 0 0 1 0.19,3.48 c 0,1.31 -0.15,3.58 -0.45,6.79 -0.3,3.21 -0.44,5.34 -0.44,6.36 a 17.69,17.69 0 0 0 0.09,2.16 11.53,11.53 0 0 0 2.24,-0.22 z"
       style="fill:#f96900"
       id="path43" />
    <path
       d="m 281,182.34 0.59,4.56 a 1.32,1.32 0 0 1 -0.59,1.1 2.49,2.49 0 0 1 -1.4,0.43 2.61,2.61 0 0 1 -1.41,-0.41 1.17,1.17 0 0 1 -0.64,-1 l -0.4,-5.53 v -0.42 l -3.49,0.25 q -2.67,0 -2.67,-1.8 a 1.56,1.56 0 0 1 0.38,-1 1.29,1.29 0 0 1 1,-0.45 l 3.71,0.2 a 9,9 0 0 0 1.44,-0.11 l -0.37,-4.17 c 0,-2.1 0.68,-3.14 2,-3.14 a 1.55,1.55 0 0 1 1.16,0.47 1.67,1.67 0 0 1 0.44,1.17 v 0.69 c 0,3.39 0.27,5.09 0.83,5.09 l 3.64,-0.22 c 2.17,0 3.25,0.57 3.25,1.72 a 1.39,1.39 0 0 1 -0.52,1.11 1.83,1.83 0 0 1 -1.25,0.45 L 283,181 c -1.29,0 -2,0.44 -2,1.34 z"
       style="fill:#f96900"
       id="path45" />
    <path
       d="m 295.76,173.25 q 0,-19.62 6.74,-19.62 a 1.73,1.73 0 0 1 1,0.35 1.11,1.11 0 0 1 0.49,0.94 1.44,1.44 0 0 1 -0.74,1.12 4.14,4.14 0 0 1 -1.66,0.68 c -0.53,0.46 -1,1.78 -1.44,3.94 a 75.31,75.31 0 0 0 -1.28,10.68 5.67,5.67 0 0 1 1,-0.09 q 6.2,0 7.29,14 c 0.17,1.93 0.25,3.59 0.25,5 0,1.41 0,2.37 -0.06,2.92 A 8.91,8.91 0 0 1 307,195 a 4.22,4.22 0 0 1 -0.81,1.63 4.76,4.76 0 0 1 -3.83,1.44 q -5.91,-0.33 -6.56,-17 z m 7.05,22.43 c 1.08,0 1.63,-1.28 1.63,-3.86 a 76.38,76.38 0 0 0 -0.56,-8.67 q -1.1,-9.48 -3.68,-10 a 2.61,2.61 0 0 0 -1.11,1.28 5.06,5.06 0 0 0 -0.26,1.76 c 0,0.7 0,1.36 0,2 0,0.64 0,1.53 0.06,2.66 0.06,1.13 0.09,2.2 0.17,3.21 0.08,1.01 0.18,2.1 0.31,3.28 a 26.54,26.54 0 0 0 0.49,3.15 c 0.2,0.93 0.44,1.8 0.7,2.61 0.56,1.72 1.31,2.57 2.25,2.58 z"
       style="fill:#f96900"
       id="path47" />
    <path
       d="m 318,176.31 -2.39,0.08 c -2.52,0 -3.78,-0.54 -3.78,-1.64 a 1.21,1.21 0 0 1 0.39,-0.93 1.46,1.46 0 0 1 1,-0.34 h 11.26 q 4.88,0 4.87,1.5 -0.01,1.5 -6.62,1.5 c -1.88,0 -3.37,-0.06 -4.48,-0.17 z m 9.59,5.31 -13.24,-0.28 c -1.68,0 -2.52,-0.41 -2.52,-1.25 a 1.18,1.18 0 0 1 0.39,-0.93 1.47,1.47 0 0 1 1,-0.35 h 9.42 q 6.41,0 6.4,1.5 a 1.19,1.19 0 0 1 -0.41,0.95 1.57,1.57 0 0 1 -1.05,0.36 z"
       style="fill:#f96900"
       id="path49" />
    <path
       d="m 342.33,194.37 h -1.49 a 2.37,2.37 0 0 1 -1.2,-0.23 1,1 0 0 1 -0.37,-0.88 c 0,-0.42 0.08,-0.7 0.24,-0.82 a 2.51,2.51 0 0 1 1.19,-0.17 c 0.65,0 1,-0.25 1,-0.76 q 0,-4.46 -0.76,-13.27 -0.76,-8.81 -0.76,-13 l 0.08,-1.66 q 0,-2.13 -1.74,-2.13 l -1.15,0.05 c -0.94,0 -1.42,-0.33 -1.42,-1 0,-0.8 1.35,-1.19 4,-1.19 1.4,0 2.25,0.25 2.56,0.75 a 10.23,10.23 0 0 0 -0.29,2.27 34.53,34.53 0 0 0 0.38,3.8 39.32,39.32 0 0 1 0.38,5.25 c 0,1.66 0.18,4.87 0.53,9.65 0.35,4.78 0.54,8.36 0.54,10.76 v 0.28 c 0.79,-0.08 1.4,-0.13 1.84,-0.13 v 0 c 1.41,0 2.12,0.38 2.12,1.13 0,0.75 -1.89,1.3 -5.68,1.3 z"
       style="fill:#f96900"
       id="path51" />
    <path
       d="m 349.88,167.12 q 0,-5.56 2.15,-7 a 3.72,3.72 0 0 1 2.1,-0.58 q 7.19,0 7.19,23.09 0,11.39 -5.38,11.39 -4,0 -5.35,-11.1 a 133.09,133.09 0 0 1 -0.71,-15.8 z m 2.59,5.14 0.51,4.43 a 56.89,56.89 0 0 0 1.1,11.81 c 0.52,2.32 1.3,3.48 2.32,3.48 0.49,0 0.92,-0.45 1.3,-1.35 a 12.17,12.17 0 0 0 0.83,-3.28 43.32,43.32 0 0 0 0.48,-5.6 q 0,-2 -0.09,-3.84 -0.09,-1.84 -0.24,-4.35 a 41.87,41.87 0 0 0 -0.57,-4.6 38,38 0 0 0 -0.95,-4 c -0.8,-2.72 -2,-4.18 -3.59,-4.39 a 3.29,3.29 0 0 0 -1,1.17 3.9,3.9 0 0 0 -0.26,1.55 z"
       style="fill:#f96900"
       id="path53" />
    <path
       d="m 262.58,256.41 h -0.9 q -2.88,0 -2.88,-1.35 a 0.85,0.85 0 0 1 0.5,-0.8 2.5,2.5 0 0 1 1.2,-0.27 2.27,2.27 0 0 1 1.28,0.39 c 0.84,-0.26 1.5,-1.13 2,-2.61 a 12,12 0 0 0 0.73,-3.66 c 0,-1 0,-1.72 0,-2.24 0,-0.52 0,-1.19 -0.06,-2 -0.06,-0.81 -0.09,-1.5 -0.17,-2 -0.08,-0.5 -0.18,-1.14 -0.32,-1.84 a 8.68,8.68 0 0 0 -0.5,-1.71 11,11 0 0 0 -0.76,-1.41 4.31,4.31 0 0 0 -1,-1.12 5.5,5.5 0 0 0 -3.13,-1 1.55,1.55 0 0 1 -1.62,-0.9 4.82,4.82 0 0 1 -0.31,-1.82 l 0.28,-2.42 a 63,63 0 0 0 -1.28,-10 l 0.9,-0.84 h 4.29 c 1.46,0 2.18,0.4 2.18,1.21 v 0.26 l -1,0.72 h -1.31 v -0.14 h -2.24 q 0.13,3 1,11.32 c 0.08,0 0.42,0.05 1,0.09 l 1.26,0.14 a 5.67,5.67 0 0 1 2,0.63 5.82,5.82 0 0 1 2,3.36 31,31 0 0 1 1.28,9 27.64,27.64 0 0 1 -0.25,5 18.78,18.78 0 0 1 -0.6,1.79 5.09,5.09 0 0 1 -0.77,1.49 12.24,12.24 0 0 1 -2.8,2.73 z"
       style="fill:#f96900"
       id="path55" />
    <path
       d="m 278.94,242.69 0.49,3.82 a 1.1,1.1 0 0 1 -0.53,0.94 2,2 0 0 1 -1.16,0.36 2.17,2.17 0 0 1 -1.19,-0.34 1,1 0 0 1 -0.54,-0.87 l -0.33,-4.63 v -0.35 l -2.93,0.21 c -1.49,0 -2.23,-0.51 -2.23,-1.52 a 1.26,1.26 0 0 1 0.32,-0.86 1.06,1.06 0 0 1 0.86,-0.37 l 3.11,0.16 a 7.33,7.33 0 0 0 1.2,-0.09 l -0.3,-3.5 c 0,-1.75 0.56,-2.63 1.69,-2.63 a 1.23,1.23 0 0 1 1,0.4 1.37,1.37 0 0 1 0.38,1 V 235 q 0,4.26 0.69,4.26 l 3.06,-0.19 c 1.81,0 2.72,0.49 2.72,1.45 a 1.15,1.15 0 0 1 -0.44,0.93 1.55,1.55 0 0 1 -1,0.37 l -3.11,-0.25 c -1.2,-0.02 -1.76,0.36 -1.76,1.12 z"
       style="fill:#f96900"
       id="path57" />
    <path
       d="m 299.75,255.47 -8,0.45 a 2.3,2.3 0 0 1 -1.34,-0.4 1.21,1.21 0 0 1 -0.59,-1.05 v -0.18 a 9.56,9.56 0 0 0 1.85,-3.14 q 0.75,-1.93 1,-2.55 a 66.38,66.38 0 0 0 4.47,-11.06 38.62,38.62 0 0 0 1.47,-10.88 c 0,-3.89 -0.84,-5.91 -2.52,-6 -0.58,0.28 -1,1 -1.18,2.28 -0.18,1.28 -0.73,1.75 -1.57,1.75 -0.84,0 -1.26,-0.49 -1.26,-1.47 a 5,5 0 0 1 1.49,-3.77 2.65,2.65 0 0 1 1.9,-0.79 v 0 a 4.79,4.79 0 0 1 4,1.54 6,6 0 0 1 1.14,2.05 c 0.16,0.61 0.28,1.09 0.34,1.44 0.06,0.35 0.1,0.82 0.14,1.38 0.05,0.84 0.07,2.06 0.07,3.66 a 27.68,27.68 0 0 1 -0.92,6.24 45.84,45.84 0 0 1 -2,6.51 c -0.72,1.78 -1.64,3.92 -2.73,6.41 -1.09,2.49 -1.89,4.42 -2.37,5.73 a 41.82,41.82 0 0 1 6.22,-0.48 q 1.11,0.72 1.11,1.29 a 1.46,1.46 0 0 1 -0.72,1.04 z"
       style="fill:#f96900"
       id="path59" />
    <path
       d="m 309.26,237.63 -2,0.07 c -2.1,0 -3.16,-0.45 -3.16,-1.37 a 1,1 0 0 1 0.32,-0.78 1.21,1.21 0 0 1 0.86,-0.29 h 9.43 c 2.73,0 4.09,0.42 4.09,1.26 0,0.84 -1.85,1.25 -5.55,1.25 a 37.06,37.06 0 0 1 -3.75,-0.14 z m 8,4.45 -11.1,-0.23 c -1.41,0 -2.11,-0.35 -2.11,-1 a 1,1 0 0 1 0.32,-0.78 1.26,1.26 0 0 1 0.86,-0.29 h 7.89 q 5.37,0 5.37,1.26 a 1,1 0 0 1 -0.35,0.79 1.29,1.29 0 0 1 -0.84,0.25 z"
       style="fill:#f96900"
       id="path61" />
  </g>
  <g
     id="freepik--Pictures--inject-2"
     transform="translate(-17.95,-18.986158)">
    <path
       d="M 445,241.67 445.74,348 h 5.84 v -47.32 h 6.48 V 348 h 6.08 v -47.32 h 6.14 V 348 h 5.43 v -47.29 h 5 V 348 h 5.83 v -53.15 c 0,0 4.54,-18.13 -2.54,-27.85 -7.08,-9.72 -20.72,-11 -20.72,-11 l -2.52,-17 -6.34,-88.7 5.8,-12.33 c 0,0 15.23,-2.9 14.51,-5.8 -0.72,-2.9 -11.65,-2.17 -11.65,-2.17 l 2,-6.11 c 0,0 2.9,0 2.9,-2.58 0,-2.58 -3.54,-3.55 -4.51,-2.26 -0.97,1.29 0,3.22 0,3.22 l -5.27,5.88 1.08,-7.16 c 0,0 2.58,-1.62 1.61,-3.23 -0.97,-1.61 -4.83,-1 -4.83,1 v 1.93 l -4.62,7.17 c 0,0 -19.05,-10.74 -24.41,0 -7,14 17.16,22.49 17.16,22.49 z"
       style="fill:none;stroke:#263238;stroke-miterlimit:10"
       id="path64" />
    <path
       d="m 459.41,256.65 c 0,0 -9.06,10.36 -6.47,14.25 2.59,3.89 12.3,1.29 12.3,-1.94 0,-3.23 -2.59,-11.66 -5.83,-12.31 z"
       style="fill:none;stroke:#263238;stroke-miterlimit:10"
       id="path66" />
    <path
       d="m 480.13,280 c 0,0 -11.65,-8.41 -11.65,-1.29 0,7.12 5.83,13.6 8.42,12.3 2.59,-1.3 7.1,-3.92 3.23,-11.01 z"
       style="fill:none;stroke:#263238;stroke-miterlimit:10"
       id="path68" />
    <path
       d="m 459.41,280 c 0,0 -5.83,5.19 -3.88,8.42 1.95,3.23 9.06,9.07 9.06,3.89 0,-5.18 -1.29,-12.99 -5.18,-12.31 z"
       style="fill:none;stroke:#263238;stroke-miterlimit:10"
       id="path70" />
    <line
       x1="426.78"
       y1="153.34"
       x2="437.73001"
       y2="153.34"
       style="fill:none;stroke:#263238;stroke-miterlimit:10"
       id="line72" />
    <line
       x1="426.78"
       y1="157.94"
       x2="433.54999"
       y2="157.94"
       style="fill:none;stroke:#263238;stroke-miterlimit:10"
       id="line74" />
    <line
       x1="426.78"
       y1="161.89"
       x2="437.73001"
       y2="161.89"
       style="fill:none;stroke:#263238;stroke-miterlimit:10"
       id="line76" />
    <line
       x1="426.78"
       y1="166.49001"
       x2="433.54999"
       y2="166.49001"
       style="fill:none;stroke:#263238;stroke-miterlimit:10"
       id="line78" />
    <line
       x1="426.78"
       y1="170.42999"
       x2="437.73001"
       y2="170.42999"
       style="fill:none;stroke:#263238;stroke-miterlimit:10"
       id="line80" />
    <line
       x1="426.78"
       y1="175.03"
       x2="433.54999"
       y2="175.03"
       style="fill:none;stroke:#263238;stroke-miterlimit:10"
       id="line82" />
    <line
       x1="426.78"
       y1="178.98"
       x2="437.73001"
       y2="178.98"
       style="fill:none;stroke:#263238;stroke-miterlimit:10"
       id="line84" />
    <line
       x1="426.78"
       y1="183.58"
       x2="433.54999"
       y2="183.58"
       style="fill:none;stroke:#263238;stroke-miterlimit:10"
       id="line86" />
    <line
       x1="426.78"
       y1="187.52"
       x2="437.73001"
       y2="187.52"
       style="fill:none;stroke:#263238;stroke-miterlimit:10"
       id="line88" />
    <line
       x1="426.78"
       y1="192.12"
       x2="433.54999"
       y2="192.12"
       style="fill:none;stroke:#263238;stroke-miterlimit:10"
       id="line90" />
    <line
       x1="426.78"
       y1="196.07001"
       x2="437.73001"
       y2="196.07001"
       style="fill:none;stroke:#263238;stroke-miterlimit:10"
       id="line92" />
    <line
       x1="426.78"
       y1="200.67"
       x2="433.54999"
       y2="200.67"
       style="fill:none;stroke:#263238;stroke-miterlimit:10"
       id="line94" />
    <line
       x1="426.78"
       y1="204.61"
       x2="437.73001"
       y2="204.61"
       style="fill:none;stroke:#263238;stroke-miterlimit:10"
       id="line96" />
    <line
       x1="426.78"
       y1="209.21001"
       x2="433.54999"
       y2="209.21001"
       style="fill:none;stroke:#263238;stroke-miterlimit:10"
       id="line98" />
    <line
       x1="426.78"
       y1="213.16"
       x2="437.73001"
       y2="213.16"
       style="fill:none;stroke:#263238;stroke-miterlimit:10"
       id="line100" />
    <line
       x1="426.78"
       y1="217.75999"
       x2="433.54999"
       y2="217.75999"
       style="fill:none;stroke:#263238;stroke-miterlimit:10"
       id="line102" />
    <line
       x1="426.78"
       y1="221.7"
       x2="437.73001"
       y2="221.7"
       style="fill:none;stroke:#263238;stroke-miterlimit:10"
       id="line104" />
    <line
       x1="426.78"
       y1="226.31"
       x2="433.54999"
       y2="226.31"
       style="fill:none;stroke:#263238;stroke-miterlimit:10"
       id="line106" />
    <line
       x1="426.78"
       y1="230.25"
       x2="437.73001"
       y2="230.25"
       style="fill:none;stroke:#263238;stroke-miterlimit:10"
       id="line108" />
    <line
       x1="426.78"
       y1="234.85001"
       x2="433.54999"
       y2="234.85001"
       style="fill:none;stroke:#263238;stroke-miterlimit:10"
       id="line110" />
    <line
       x1="426.78"
       y1="238.78999"
       x2="437.73001"
       y2="238.78999"
       style="fill:none;stroke:#263238;stroke-miterlimit:10"
       id="line112" />
    <line
       x1="426.78"
       y1="243.39999"
       x2="433.54999"
       y2="243.39999"
       style="fill:none;stroke:#263238;stroke-miterlimit:10"
       id="line114" />
    <line
       x1="426.78"
       y1="247.34"
       x2="437.73001"
       y2="247.34"
       style="fill:none;stroke:#263238;stroke-miterlimit:10"
       id="line116" />
    <line
       x1="426.78"
       y1="251.94"
       x2="433.54999"
       y2="251.94"
       style="fill:none;stroke:#263238;stroke-miterlimit:10"
       id="line118" />
    <line
       x1="426.78"
       y1="255.78999"
       x2="437.73001"
       y2="255.78999"
       style="fill:none;stroke:#263238;stroke-miterlimit:10"
       id="line120" />
    <line
       x1="426.78"
       y1="260.39001"
       x2="433.54999"
       y2="260.39001"
       style="fill:none;stroke:#263238;stroke-miterlimit:10"
       id="line122" />
    <line
       x1="426.78"
       y1="264.32999"
       x2="437.73001"
       y2="264.32999"
       style="fill:none;stroke:#263238;stroke-miterlimit:10"
       id="line124" />
    <line
       x1="426.78"
       y1="268.92999"
       x2="433.54999"
       y2="268.92999"
       style="fill:none;stroke:#263238;stroke-miterlimit:10"
       id="line126" />
    <line
       x1="426.78"
       y1="272.88"
       x2="437.73001"
       y2="272.88"
       style="fill:none;stroke:#263238;stroke-miterlimit:10"
       id="line128" />
    <line
       x1="426.78"
       y1="277.48001"
       x2="433.54999"
       y2="277.48001"
       style="fill:none;stroke:#263238;stroke-miterlimit:10"
       id="line130" />
    <line
       x1="426.78"
       y1="281.42001"
       x2="437.73001"
       y2="281.42001"
       style="fill:none;stroke:#263238;stroke-miterlimit:10"
       id="line132" />
    <line
       x1="426.78"
       y1="286.03"
       x2="433.54999"
       y2="286.03"
       style="fill:none;stroke:#263238;stroke-miterlimit:10"
       id="line134" />
    <line
       x1="426.78"
       y1="289.97"
       x2="437.73001"
       y2="289.97"
       style="fill:none;stroke:#263238;stroke-miterlimit:10"
       id="line136" />
    <line
       x1="426.78"
       y1="294.57001"
       x2="433.54999"
       y2="294.57001"
       style="fill:none;stroke:#263238;stroke-miterlimit:10"
       id="line138" />
    <line
       x1="426.78"
       y1="298.51999"
       x2="437.73001"
       y2="298.51999"
       style="fill:none;stroke:#263238;stroke-miterlimit:10"
       id="line140" />
    <line
       x1="426.78"
       y1="303.12"
       x2="433.54999"
       y2="303.12"
       style="fill:none;stroke:#263238;stroke-miterlimit:10"
       id="line142" />
    <line
       x1="426.78"
       y1="307.06"
       x2="437.73001"
       y2="307.06"
       style="fill:none;stroke:#263238;stroke-miterlimit:10"
       id="line144" />
    <line
       x1="426.78"
       y1="311.66"
       x2="433.54999"
       y2="311.66"
       style="fill:none;stroke:#263238;stroke-miterlimit:10"
       id="line146" />
    <line
       x1="426.78"
       y1="315.60999"
       x2="437.73001"
       y2="315.60999"
       style="fill:none;stroke:#263238;stroke-miterlimit:10"
       id="line148" />
    <line
       x1="426.78"
       y1="320.20999"
       x2="433.54999"
       y2="320.20999"
       style="fill:none;stroke:#263238;stroke-miterlimit:10"
       id="line150" />
    <line
       x1="426.78"
       y1="324.14999"
       x2="437.73001"
       y2="324.14999"
       style="fill:none;stroke:#263238;stroke-miterlimit:10"
       id="line152" />
    <line
       x1="426.78"
       y1="328.75"
       x2="433.54999"
       y2="328.75"
       style="fill:none;stroke:#263238;stroke-miterlimit:10"
       id="line154" />
    <line
       x1="426.78"
       y1="332.70001"
       x2="437.73001"
       y2="332.70001"
       style="fill:none;stroke:#263238;stroke-miterlimit:10"
       id="line156" />
    <line
       x1="426.78"
       y1="337.29999"
       x2="433.54999"
       y2="337.29999"
       style="fill:none;stroke:#263238;stroke-miterlimit:10"
       id="line158" />
    <line
       x1="426.78"
       y1="341.23999"
       x2="437.73001"
       y2="341.23999"
       style="fill:none;stroke:#263238;stroke-miterlimit:10"
       id="line160" />
    <line
       x1="426.78"
       y1="345.84"
       x2="433.54999"
       y2="345.84"
       style="fill:none;stroke:#263238;stroke-miterlimit:10"
       id="line162" />
    <path
       d="m 455.22,133.32 a 4.53,4.53 0 1 1 -4.52,-4.53 4.52,4.52 0 0 1 4.52,4.53 z"
       style="fill:none;stroke:#263238;stroke-miterlimit:10"
       id="path164" />
    <circle
       cx="450.85999"
       cy="134.49001"
       r="3.02"
       style="fill:#263238"
       id="circle166" />
    <path
       d="m 439.8,148.23 c 0,0 7.21,-2.34 9.05,-6.36 l 2.68,1"
       style="fill:none;stroke:#263238;stroke-miterlimit:10"
       id="path168" />
    <path
       d="m 454.89,158 c 0,0 -4,8.05 -6.71,9.05 -2.71,1 -4,5 -1,8 a 40.62,40.62 0 0 0 6.21,5.05 l 3.28,2.26 z"
       style="fill:none;stroke:#263238;stroke-miterlimit:10"
       id="path170" />
    <path
       d="m 444.57,189.92 c 0,0 1.94,-2.48 3.61,2.89 1.67,5.37 -0.67,10.72 2.35,13.07 3.02,2.35 4.36,6.37 1.67,9.05 -2.69,2.68 -7.25,3.85 -7.25,3.85 z"
       style="fill:none;stroke:#263238;stroke-miterlimit:10"
       id="path172" />
    <path
       d="m 438.46,123.43 c 0,0 3.69,12.74 -8.37,18.1"
       style="fill:none;stroke:#263238;stroke-miterlimit:10"
       id="path174" />
    <path
       d="m 433.26,130.41 a 1.21,1.21 0 1 1 -1.21,-1.21 1.22,1.22 0 0 1 1.21,1.21 z"
       style="fill:none;stroke:#263238;stroke-miterlimit:10"
       id="path176" />
    <path
       d="m 458.94,213.86 c 0,0 -3.38,7.43 -6.06,10.79 -2.68,3.36 -3.36,5.69 -0.34,7.37 a 65.11,65.11 0 0 0 7.71,3.35 z"
       style="fill:none;stroke:#263238;stroke-miterlimit:10"
       id="path178" />
    <rect
       x="420.53"
       y="108.22"
       width="69.480003"
       height="244.67"
       style="fill:none;stroke:#263238;stroke-miterlimit:10"
       id="rect180" />
    <rect
       x="21.450001"
       y="98.209999"
       width="49.240002"
       height="65.199997"
       transform="rotate(-2.9,46.097368,131.02686)"
       style="fill:none;stroke:#263238;stroke-miterlimit:10"
       id="rect182" />
    <path
       d="m 48.48,130.68 c 0,0 -7.4,-12.33 -13.56,-9.05 -6.16,3.28 -3.7,7.81 1.23,9.87 l 4.93,2.05 c 0,0 -7.81,-2.05 -9.86,4.52 -2.05,6.57 2.46,8.63 5.75,9 3.29,0.37 8.63,-3.69 8.63,-3.69 0,0 -7.4,6.57 -0.41,10.27 6.99,3.7 13.56,-0.41 14,-4.93 a 15.69,15.69 0 0 0 -1.26,-7.72 8.73,8.73 0 0 0 7.4,-7 c 1.64,-6.57 -1.23,-9.45 -6.17,-9.45 -4.94,0 -10.68,6.13 -10.68,6.13 z"
       style="fill:none;stroke:#f96900;stroke-miterlimit:10"
       id="path184" />
    <path
       d="m 54.23,138.48 a 4.93,4.93 0 1 1 -4.93,-4.93 4.94,4.94 0 0 1 4.93,4.93 z"
       style="fill:none;stroke:#f96900;stroke-miterlimit:10"
       id="path186" />
    <line
       x1="24.950001"
       y1="108.56"
       x2="64.82"
       y2="106.54"
       style="fill:none;stroke:#263238;stroke-miterlimit:10"
       id="line188" />
    <line
       x1="25.389999"
       y1="117.2"
       x2="65.260002"
       y2="115.18"
       style="fill:none;stroke:#263238;stroke-miterlimit:10"
       id="line190" />
    <rect
       x="21.450001"
       y="177.21001"
       width="49.240002"
       height="65.199997"
       transform="rotate(4.88,46.083934,209.74646)"
       style="fill:none;stroke:#263238;stroke-miterlimit:10"
       id="rect192" />
    <line
       x1="28.16"
       y1="184.91"
       x2="67.93"
       y2="188.3"
       style="fill:none;stroke:#263238;stroke-miterlimit:10"
       id="line194" />
    <line
       x1="27.42"
       y1="193.53"
       x2="67.199997"
       y2="196.92"
       style="fill:none;stroke:#263238;stroke-miterlimit:10"
       id="line196" />
    <line
       x1="26.690001"
       y1="202.14"
       x2="66.459999"
       y2="205.53999"
       style="fill:none;stroke:#263238;stroke-miterlimit:10"
       id="line198" />
    <line
       x1="25.950001"
       y1="210.75999"
       x2="65.730003"
       y2="214.16"
       style="fill:none;stroke:#263238;stroke-miterlimit:10"
       id="line200" />
    <line
       x1="25.219999"
       y1="219.38"
       x2="64.989998"
       y2="222.78"
       style="fill:none;stroke:#263238;stroke-miterlimit:10"
       id="line202" />
    <line
       x1="24.48"
       y1="228"
       x2="64.260002"
       y2="231.39"
       style="fill:none;stroke:#263238;stroke-miterlimit:10"
       id="line204" />
  </g>
  <g
     id="freepik--Plant--inject-2"
     transform="translate(-17.95,-18.986158)">
    <line
       x1="51.009998"
       y1="400.23001"
       x2="51.009998"
       y2="292.98001"
       style="fill:none;stroke:#f96900;stroke-linecap:round;stroke-linejoin:round"
       id="line207" />
    <path
       d="m 50.21,390.55 c 0,0 -5.65,-8.06 -12.91,-12.09 -7.26,-4.03 -19.35,-4 -19.35,-4 0,0 6.45,23.35 32.26,16.09 z"
       style="fill:#f96900"
       id="path209" />
    <path
       d="m 51,390.55 c 0,0 5.65,-8.06 12.9,-12.09 7.25,-4.03 19.36,-4 19.36,-4 0,0 -6.45,23.35 -32.26,16.09 z"
       style="fill:#f96900"
       id="path211" />
    <path
       d="m 50.21,361.52 c 0,0 -5.65,-8.06 -12.91,-12.09 -7.26,-4.03 -19.35,-4 -19.35,-4 0,0 6.45,23.35 32.26,16.09 z"
       style="fill:#f96900"
       id="path213" />
    <path
       d="m 51,361.52 c 0,0 5.65,-8.06 12.9,-12.09 7.25,-4.03 19.36,-4 19.36,-4 0,0 -6.45,23.35 -32.26,16.09 z"
       style="fill:#f96900"
       id="path215" />
    <path
       d="m 50.21,332.49 c 0,0 -5.65,-8.06 -12.91,-12.09 -7.26,-4.03 -19.35,-4 -19.35,-4 0,0 6.45,23.35 32.26,16.09 z"
       style="fill:#f96900"
       id="path217" />
    <path
       d="m 51,332.49 c 0,0 5.65,-8.06 12.9,-12.09 7.25,-4.03 19.36,-4 19.36,-4 0,0 -6.45,23.35 -32.26,16.09 z"
       style="fill:#f96900"
       id="path219" />
    <path
       d="m 50.21,303.47 c 0,0 -5.65,-8.07 -12.91,-12.1 -7.26,-4.03 -19.35,-4 -19.35,-4 0,0 6.45,23.35 32.26,16.1 z"
       style="fill:#f96900"
       id="path221" />
    <path
       d="m 51,303.47 c 0,0 5.65,-8.07 12.9,-12.1 7.25,-4.03 19.36,-4 19.36,-4 0,0 -6.45,23.35 -32.26,16.1 z"
       style="fill:#f96900"
       id="path223" />
    <path
       d="m 51,293 c 0,0 -6.45,-8.68 -6.78,-17 -0.33,-8.32 5.13,-19.09 5.13,-19.09 0,0 19.78,16.32 1.65,36.09 z"
       style="fill:#f96900"
       id="path225" />
    <polygon
       points="56.54,465.16 44.18,465.16 38,397.53 62.72,397.53 "
       style="fill:#263238;stroke:#263238;stroke-miterlimit:10"
       id="polygon227" />
  </g>
  <g
     id="freepik--character-2--inject-2"
     transform="translate(-17.95,-18.986158)">
    <path
       d="m 363.54,389.21 a 128.68,128.68 0 0 0 0,18.77 c 0.77,10.34 1.09,31.59 0.6,37.15 -0.49,5.56 -2.7,17.27 -1.39,18.83 1.31,1.56 7.76,1.83 10.4,0.83 2.64,-1 4.21,-0.25 4.13,-2.21 -0.08,-1.96 -1.62,-15.41 -1.74,-18.44 -0.12,-3.03 4.9,-20.4 7.68,-31.23 2.78,-10.83 1.23,-22.57 0.79,-24.7 -0.44,-2.13 -1.36,-2.63 -1.36,-2.63 0,0 -10.53,3.82 -19.11,3.63 z"
       style="fill:#ffffff;stroke:#263238;stroke-miterlimit:10"
       id="path230" />
    <path
       d="m 373,466.09 c 2.51,0 4.4,-1.55 4.32,-3.51 -0.05,-1.23 -0.72,-9.28 -1.18,-13 a 9.35,9.35 0 0 1 -5.07,2.42 10.23,10.23 0 0 1 -7.55,-1.42 c -0.76,5.64 -2.56,12.75 -1.6,13.89 1.32,1.53 8.26,1.67 11.08,1.62 z"
       style="fill:#263238;stroke:#263238;stroke-miterlimit:10"
       id="path232" />
    <path
       d="m 373,466.09 c 2.51,0 4.4,-1.55 4.32,-3.51 a 0.57,0.57 0 0 0 0,-0.13 c -6,1.25 -12.72,0 -15.59,-0.61 a 4.41,4.41 0 0 0 0.2,2.63 c 1.31,1.53 8.25,1.67 11.07,1.62 z"
       style="fill:#ffffff;stroke:#263238;stroke-miterlimit:10"
       id="path234" />
    <path
       d="m 336.72,384.69 c 0,0 -0.94,18.06 2.45,27.59 3.39,9.53 7,33.08 6.09,35.45 -0.91,2.37 -2.26,9.77 -3.26,10.14 -1,0.37 -4.59,1.86 -4.54,3.19 0.05,1.33 4.5,4.15 7.85,4.35 3.35,0.2 7.39,1.37 10.22,-3.08 a 18.76,18.76 0 0 0 2.87,-11.46 c -0.12,-3 -2.28,-6.91 -2.35,-8.57 -0.07,-1.66 3.74,-23.17 3.68,-32.85 -0.06,-9.68 -3.55,-21.87 -3.55,-21.87 z"
       style="fill:#ffffff;stroke:#263238;stroke-miterlimit:10"
       id="path236" />
    <path
       d="m 349.81,444.55 a 17.65,17.65 0 0 0 -5.43,6.24 c -0.79,3 -1.68,6.82 -2.38,7.08 -1,0.38 -4.12,-0.43 -4.54,3.19 -0.61,5.27 4.5,4.15 7.85,4.35 3.35,0.2 7.39,1.37 10.22,-3.08 a 18.76,18.76 0 0 0 2.87,-11.46 c -0.09,-2.24 -1.32,-5 -2,-6.94 -0.16,-0.22 -2.27,-2.41 -6.59,0.62 z"
       style="fill:#263238;stroke:#263238;stroke-miterlimit:10"
       id="path238" />
    <path
       d="m 345.31,465.41 c 3.34,0.2 7.39,1.37 10.22,-3.08 a 18.76,18.76 0 0 0 2.87,-11.46 14.3,14.3 0 0 0 -0.86,-3.82 9.86,9.86 0 0 0 -2.91,0.13 c -2.7,0.54 -5.14,1.89 -7.57,6.75 -2.43,4.86 -1.62,8.65 -5.13,8.92 -3.51,0.27 -4.47,-1.79 -4.47,-1.79 -0.61,5.27 4.54,4.15 7.85,4.35 z"
       style="fill:#ffffff;stroke:#263238;stroke-miterlimit:10"
       id="path240" />
    <path
       d="m 358,452 c 0,0 -1.41,-3.87 -5.74,-0.66 -4.33,3.21 -4.11,9.1 -5.63,11.31 a 8,8 0 0 1 -2.95,2.5 8.6,8.6 0 0 0 1.61,0.27 c 3.34,0.2 7.39,1.37 10.22,-3.08 a 18.36,18.36 0 0 0 2.89,-10.48 z"
       style="fill:#ffffff;stroke:#263238;stroke-miterlimit:10"
       id="path242" />
    <path
       d="m 330.13,336.92 -11.65,42.17 c 0,0 24,16.05 50.58,13.31 26.58,-2.74 44.81,-22.16 44.81,-22.16 L 396.72,333.9 c 0,0 -8.4,6.68 -30.77,6.25 -22.37,-0.43 -35.82,-3.23 -35.82,-3.23 z"
       style="fill:#263238;stroke:#263238;stroke-miterlimit:10"
       id="path244" />
    <path
       d="m 332.23,322.82 -3.89,19.51 c 0,0 8.66,8 29.31,7.16 20.65,-0.84 40.86,-12.65 40.86,-12.65 l -6.45,-19.43 c 0,0 -35.84,13.12 -59.83,5.41 z"
       style="fill:#ffffff;stroke:#263238;stroke-miterlimit:10"
       id="path246" />
    <path
       d="m 369.38,334.21 c 13.35,-2.25 21.2,-5.32 25.68,-7.75 l -3,-9 c 0,0 -35.84,13.12 -59.83,5.41 l -1.44,7.24 c 4.92,2.37 18.38,7.51 38.59,4.1 z"
       style="fill:#263238;stroke:#263238;stroke-miterlimit:10"
       id="path248" />
    <path
       d="m 332.52,265.09 c 0,0 -7,21.84 -16.95,37.49 A 175.79,175.79 0 0 1 295.06,329 c 0,0 -7.18,0.56 -10,-1 -2.82,-1.56 -5.16,2.71 -5.93,4.12 -0.77,1.41 -2.28,5.36 -1.14,6.15 1.14,0.79 4.92,5.07 5.95,3.09 1.03,-1.98 -1.8,-3.26 -1.8,-3.26 0,0 9.23,2.22 13.3,-0.26 16.81,-10.2 26.09,-20.76 30,-26.19 3.91,-5.43 7.82,-11.5 7.82,-11.5 0,0 -2.54,16.82 -3.52,20.18 -0.98,3.36 -1.74,5.67 -1.74,5.67 0,0 14.81,9.66 40.69,5.29 25.88,-4.37 31.14,-11.79 31.14,-11.79 0,0 -8,-19.36 -10.31,-28.7 -2.31,-9.34 -3.47,-17.33 -3.47,-17.33 0,0 -0.8,-19.93 0.35,-25.8 1.15,-5.87 6.75,-18.29 6.59,-22.17 -0.16,-3.88 -22.29,-30.15 -22.29,-30.15 0,0 2.19,-7.58 2.11,-9.79 -0.08,-2.21 -2.7,-4.88 -4.45,-7 -1.75,-2.12 -3.74,-3.45 -5.67,-3.1 -1.93,0.35 -2.82,-1.27 -4.12,1 -1.3,2.27 -2.55,5.37 -4.1,8.2 -1.55,2.83 2.93,4 4.12,5.94 1.19,1.94 5.59,8.09 6,10.29 0.41,2.2 11,38.93 11,38.93 z"
       style="fill:#ffffff;stroke:#263238;stroke-miterlimit:10"
       id="path250" />
    <path
       d="m 399.87,319.49 c 0,0 -8,-19.36 -10.31,-28.7 -2.31,-9.34 -3.47,-17.33 -3.47,-17.33 0,0 -0.8,-19.93 0.35,-25.8 1.15,-5.87 6.75,-18.29 6.59,-22.17 -0.09,-2.15 -7,-11.27 -13.1,-18.92 a 23.7,23.7 0 0 0 -11.64,7.79 c 3.2,11.26 7.29,25.42 7.29,25.42 l -43.06,25.31 c 0,0 -7,21.84 -16.95,37.49 -2.56,4.05 -5.17,7.77 -7.63,11.07 a 14.67,14.67 0 0 0 5.2,7.26 c 0.91,0.66 1.73,1.24 2.48,1.75 a 80.48,80.48 0 0 0 9.83,-11 c 3.94,-5.42 7.82,-11.5 7.82,-11.5 0,0 -2.54,16.82 -3.52,20.18 -0.98,3.36 -1.75,5.66 -1.75,5.66 0,0 14.81,9.66 40.69,5.29 25.88,-4.37 31.18,-11.8 31.18,-11.8 z"
       style="fill:#f96900;stroke:#263238;stroke-miterlimit:10"
       id="path252" />
    <path
       d="m 359.47,177.41 2,7.58 a 1.86,1.86 0 0 0 2.49,1.24 v 0 a 1.86,1.86 0 0 0 1,-2.56 l -3.61,-7.16 c 0,0 -1.95,-0.76 -1.88,0.9 z"
       style="fill:#ffffff;stroke:#263238;stroke-miterlimit:10"
       id="path254" />
    <path
       d="m 346.77,199.08 c 0,0 -6.21,-2.8 -13.89,6.1 -7.68,8.9 -8.31,20.85 -5.54,27.67 2.77,6.82 1.55,18 -1.65,21.14 -3.2,3.14 -9.32,9.53 -5.3,13 4.02,3.47 10.07,2.09 10.07,2.09 0,0 -7.29,11.66 3,19 10.29,7.34 14.83,-3.08 14.83,-3.08 0,0 6.43,21.92 20.34,16.09 13.91,-5.83 7.49,-20.54 7.49,-20.54 0,0 11.22,3.45 13.88,-5.3 2.66,-8.75 -1.34,-12.7 -1.34,-12.7 0,0 8.83,-1.19 6.79,-10.54 -2.04,-9.35 -9.36,-12.1 -13.12,-15.83 -3.76,-3.73 -8,-6.88 -11.27,-18.12 -3.27,-11.24 -6.06,-13.62 -6.06,-13.62 0,0 5.19,-1.87 2.57,-5.09 -2.62,-3.22 -13.7,-9.99 -20.8,-0.27 z"
       style="fill:#263238;stroke:#263238;stroke-miterlimit:10"
       id="path256" />
  </g>
  <g
     id="freepik--character-1--inject-2"
     transform="translate(-17.95,-18.986158)">
    <path
       d="m 152.86,372.58 c 0,0 -4.49,9.78 -3.43,20.63 1.06,10.85 2.64,41.8 2.64,48.68 0,6.88 -1.32,14.29 -1.32,16.93 a 36.93,36.93 0 0 0 1.06,6.88 h 35.71 c 0,0 1.59,-2.91 1.59,-4 0,-1.09 -2.65,-4.23 -4.5,-5 -1.85,-0.77 -10.05,-5 -12.17,-7.93 -2.12,-2.93 -3.44,-4.77 -3.44,-8.2 0,-3.43 10.32,-36.51 10.59,-49.48 0.27,-12.97 1,-21.69 1,-21.69 z"
       style="fill:#ffffff;stroke:#263238;stroke-miterlimit:10"
       id="path259" />
    <path
       d="m 184.61,456.7 c -1.85,-0.79 -10.05,-5 -12.17,-7.93 -1.8,-2.48 -3,-4.2 -3.34,-6.79 a 4.12,4.12 0 0 0 -4.86,1.5 56,56 0 0 0 -3.17,4.76 l -9.13,-2.34 c -0.33,5.56 -1.19,10.79 -1.19,12.92 a 36.93,36.93 0 0 0 1.06,6.88 h 35.71 c 0,0 1.59,-2.91 1.59,-4 0,-1.09 -2.65,-4.2 -4.5,-5 z"
       style="fill:#f96900;stroke:#263238;stroke-miterlimit:10"
       id="path261" />
    <path
       d="m 151.15,462.53 c 0.3,1.72 0.66,3.17 0.66,3.17 h 35.71 a 22.91,22.91 0 0 0 1.43,-3.17 z"
       style="fill:#ffffff;stroke:#263238;stroke-miterlimit:10"
       id="path263" />
    <path
       d="m 116.62,362.52 a 29.16,29.16 0 0 1 1.06,10.06 c -0.27,6.35 -4.23,17.19 -1.06,29.63 3.17,12.44 9,29.36 11.11,38.89 2.11,9.53 -0.53,15.08 -0.26,19.31 0.27,4.23 2.11,5.29 2.11,5.29 h 25.67 a 5.06,5.06 0 0 0 1.05,-4.5 c -0.79,-2.38 -6.35,-7.14 -8.46,-12.17 -2.11,-5.03 -4.5,-11.37 -4.5,-17.72 0,-6.35 2.12,-35.19 2.12,-44.18 v -15.88 z"
       style="fill:#ffffff;stroke:#263238;stroke-miterlimit:10"
       id="path265" />
    <path
       d="m 156.3,461.2 c -0.79,-2.38 -6.35,-7.14 -8.46,-12.17 a 73.84,73.84 0 0 1 -3,-8.23 7.74,7.74 0 0 0 -5.73,1.35 c -6.09,4 -5.56,6.35 -5.56,6.35 l -5,-1.62 c 0.3,6.14 -1.25,10.24 -1,13.53 0.26,4.23 2.11,5.29 2.11,5.29 h 25.67 a 5.06,5.06 0 0 0 0.97,-4.5 z"
       style="fill:#f96900;stroke:#263238;stroke-miterlimit:10"
       id="path267" />
    <path
       d="m 127.78,462.53 c 0.6,2.48 1.8,3.17 1.8,3.17 h 25.67 a 5.59,5.59 0 0 0 1.25,-3.17 z"
       style="fill:#ffffff;stroke:#263238;stroke-miterlimit:10"
       id="path269" />
    <path
       d="m 113,246 c 0,0 -9.5,18 -10.5,39.5 -1,21.5 6.5,79 6.5,79 0,0 20.5,11 42,11 a 116.66,116.66 0 0 0 39,-7 c 0,0 8,-64.5 8,-85.5 a 73,73 0 0 0 -9,-35.5 c 0,0 -44.5,2 -76,-1.5 z"
       style="fill:#263238;stroke:#263238;stroke-miterlimit:10"
       id="path271" />
    <path
       d="m 147.33,152 -14,12 -3.66,83.33 c 0,0 17.33,8 35.33,7.67 18,-0.33 24.67,-5 24.67,-5 0,0 -5.67,-73.67 -5.67,-75.67 0,-2 -8.67,-16.33 -8.67,-16.33 0,0 -15.66,-12.67 -28,-6 z"
       style="fill:#ffffff;stroke:#263238;stroke-miterlimit:10"
       id="path273" />
    <path
       d="m 185.07,162.88 c 0,0 9.43,3.37 11.43,11.87 2,8.5 19.75,48.25 20.25,53.5 0.5,5.25 1.5,6.75 -1.75,9.5 -3.25,2.75 -14,0.75 -16.5,-2.25 -2.5,-3 -4.75,-4.25 -5.75,-11.5 -1,-7.25 -5.5,-53.25 -5.5,-53.25 0,0 -4.43,-8.12 -2.18,-7.87 z"
       style="fill:#f96900;stroke:#263238;stroke-miterlimit:10"
       id="path275" />
    <path
       d="m 150.25,126.5 c 0,0 -0.75,15 -0.75,21 0,6 -4.75,7.25 -8.25,8.75 -3.5,1.5 -1.75,14.75 4.25,23.5 6,8.75 16.5,13.25 24.75,9 8.25,-4.25 6.5,-19 5,-23.75 -1.5,-4.75 -3.25,-7.5 -3.25,-10.75 a 27.75,27.75 0 0 1 1.5,-7.5 z"
       style="fill:#ffffff;stroke:#263238;stroke-miterlimit:10"
       id="path277" />
    <path
       d="m 172,154.25 a 27.75,27.75 0 0 1 1.5,-7.5 L 150.25,126.5 c 0,0 -0.16,3.19 -0.33,7.21 3.35,8 10.46,20.71 22.36,22.81 A 9.6,9.6 0 0 1 172,154.25 Z"
       style="fill:#263238;stroke:#263238;stroke-miterlimit:10"
       id="path279" />
    <path
       d="m 195.7,111.58 c 0,0 -1.48,11.84 -2.32,17.34 A 39.24,39.24 0 0 1 187.25,145 c -3.8,6.13 -8.45,7.82 -12.89,7.4 -4.44,-0.42 -11.42,-5.71 -14.59,-9.3 -3.17,-3.59 -9.72,-12.68 -9.72,-15.64 0,-2.96 0.42,-11.84 4,-16.91 3.58,-5.07 18,-7.61 23.88,-9.09 5.88,-1.48 17.77,10.12 17.77,10.12 z"
       style="fill:#ffffff;stroke:#263238;stroke-miterlimit:10"
       id="path281" />
    <path
       d="m 182.67,137.5 c 0,0 -5.34,2.5 -11.5,-2.67"
       style="fill:none;stroke:#263238;stroke-miterlimit:10"
       id="path283" />
    <path
       d="m 173.08,118.07 c 0,0 4.61,-2.22 9,-1"
       style="fill:none;stroke:#263238;stroke-miterlimit:10"
       id="path285" />
    <path
       d="m 190,117.05 c 0,0 2,-1 4.1,1.19"
       style="fill:none;stroke:#263238;stroke-miterlimit:10"
       id="path287" />
    <path
       d="m 168,119.4 0.78,6.43 a 2.55,2.55 0 0 0 2.53,2.24 h 7.91 a 2.56,2.56 0 0 0 2.34,-1.53 l 2.92,-6.71 z"
       style="fill:none;stroke:#263238;stroke-width:2px;stroke-miterlimit:10"
       id="path289" />
    <path
       d="m 188.94,119.62 0.78,6.42 a 2.56,2.56 0 0 0 2.53,2.24 l 3.86,-0.16 a 2.54,2.54 0 0 0 2.34,-1.53 l 2.93,-6.71 z"
       style="fill:none;stroke:#263238;stroke-width:2px;stroke-miterlimit:10"
       id="path291" />
    <line
       x1="184.5"
       y1="119.83"
       x2="188.94"
       y2="119.62"
       style="fill:none;stroke:#263238;stroke-width:2px;stroke-miterlimit:10"
       id="line293" />
    <line
       x1="168.02"
       y1="119.4"
       x2="151.89999"
       y2="120.29"
       style="fill:none;stroke:#263238;stroke-width:2px;stroke-miterlimit:10"
       id="line295" />
    <ellipse
       cx="178.46001"
       cy="123.71"
       rx="1.28"
       ry="2.3900001"
       style="fill:#263238"
       id="ellipse297" />
    <path
       d="m 192.38,123.54 c 0,1.22 -0.5,2.22 -1.11,2.22 -0.61,0 -1.11,-1 -1.11,-2.22 0,-1.22 0.5,-2.22 1.11,-2.22 0.61,0 1.11,0.99 1.11,2.22 z"
       style="fill:#263238"
       id="path299" />
    <path
       d="m 187.94,121.63 a 20.21,20.21 0 0 0 -0.3,5.05 c 0.3,1.79 3.27,2.68 2.68,4.76 -0.59,2.08 -3.27,3.87 -6.84,1.78"
       style="fill:none;stroke:#263238;stroke-miterlimit:10"
       id="path301" />
    <path
       d="m 153.64,122.15 a 83.47,83.47 0 0 0 11,-5.07 68,68 0 0 0 9.73,-6.55 c 0,0 -6.55,4.86 0.42,4.86 6.97,0 27.9,-2.54 32.76,-10.57 4.86,-8.03 -17.34,-21.56 -32.14,-24.52 -14.8,-2.96 -31.7,5.92 -35.72,18.6 -4.02,12.68 -1.26,30 2.12,34.45 3.38,4.45 11.2,1.48 11.2,1.48 0,0 -1.9,-0.42 -1.9,-5.49 0,-5.07 2.53,-7.19 2.53,-7.19 z"
       style="fill:#263238;stroke:#263238;stroke-miterlimit:10"
       id="path303" />
    <path
       d="m 156.39,125.75 c 0,0 -2.11,-7.19 -6.13,-7.82 -4.02,-0.63 -5.28,7.39 -1.48,11.62 3.8,4.23 7,1.69 7,1.69"
       style="fill:#ffffff;stroke:#263238;stroke-miterlimit:10"
       id="path305" />
    <path
       d="m 149.5,147.5 c 0,0 4.5,49.25 6.25,74.75 1.75,25.5 -4,61.25 -4,61.25 0,0 -15.25,-0.25 -28.75,-4.5 A 86.79,86.79 0 0 1 99.75,267.5 l 13.5,-36.5 2.5,-64.25 c 0,0 12,-4.5 16.25,-6.5 4.25,-2 14,-8.75 17.5,-12.75 z"
       style="fill:#f96900;stroke:#263238;stroke-miterlimit:10"
       id="path307" />
    <path
       d="m 156.06,229.69 c -0.05,-2.55 -0.15,-5 -0.31,-7.44 C 154,196.75 149.5,147.5 149.5,147.5 a 50.79,50.79 0 0 1 -7.51,6.42 c -0.88,5.88 -2.55,18.81 -2,29.08 0.75,13.75 9.75,32.25 12.75,39 1.4,3.12 2.51,5.75 3.32,7.69 z"
       style="fill:#f96900;stroke:#263238;stroke-miterlimit:10"
       id="path309" />
    <path
       d="m 172,154.25 c 0,0 2,34.25 3,57 1,22.75 1.25,69.5 1.25,69.5 0,0 3.75,-0.75 12.25,-7 8.5,-6.25 14.75,-12 14.75,-12 l -6.5,-22.25 c 0,0 0.94,-28.63 -0.12,-36.31 -1.25,-9 -4.88,-34.19 -7.88,-37.44 -3,-3.25 -16.75,-11.5 -16.75,-11.5 z"
       style="fill:#f96900;stroke:#263238;stroke-miterlimit:10"
       id="path311" />
    <path
       d="M 181,183.75 C 181,167 177.75,158 177.75,158 l 0.07,-0.14 c -3.2,-2 -5.82,-3.61 -5.82,-3.61 0,0 2,34.25 3,57 0.16,3.7 0.31,8.05 0.43,12.72 0.97,-4.26 5.57,-25.23 5.57,-40.22 z"
       style="fill:#f96900;stroke:#263238;stroke-miterlimit:10"
       id="path313" />
    <path
       d="m 200.19,231.27 c 0,0 -27.44,24.66 -31.69,26.66 a 65.55,65.55 0 0 1 -13.25,4 c -1.75,0.25 -6.75,2.75 -8.75,4.75 -2,2 -5.5,6 -5.25,7.5 0.25,1.5 2.5,0.75 3.5,-0.25 1,-1 2,-2.5 2.75,-2.75 0.75,-0.25 3.25,-1 3.25,-1 0,0 -9.25,7 -9.75,9.25 -0.5,2.25 7.5,3.25 9.5,3.25 2,0 9.25,-3 10.5,-4.75 a 109.82,109.82 0 0 1 7.5,-9 c 2,-2 22.25,-8 29.25,-11.25 7,-3.25 20.94,-15.16 21.19,-19.66 a 17.78,17.78 0 0 0 -2.6,-9.46"
       style="fill:#f96900;stroke:#263238;stroke-miterlimit:10"
       id="path315" />
    <path
       d="m 155.25,261.93 c -1.75,0.25 -6.75,2.75 -8.75,4.75 -2,2 -5.5,6 -5.25,7.5 0.25,1.5 2.5,0.75 3.5,-0.25 1,-1 2,-2.5 2.75,-2.75 0.75,-0.25 3.25,-1 3.25,-1 0,0 -9.25,7 -9.75,9.25 -0.5,2.25 7.5,3.25 9.5,3.25 2,0 9.25,-3 10.5,-4.75 a 109.82,109.82 0 0 1 7.5,-9 c 1.64,-1.65 15.59,-6 24.4,-9.29 -2.27,-8 -6.69,-10.75 -10.13,-11.67 -6.27,4.67 -12.4,9.08 -14.27,10 a 65.55,65.55 0 0 1 -13.25,3.96 z"
       style="fill:#ffffff;stroke:#263238;stroke-miterlimit:10"
       id="path317" />
    <path
       d="m 142.42,280.73 c 0,0 3.44,-2 6.23,-3.61 a 40.47,40.47 0 0 0 5.41,-3.93"
       style="fill:none;stroke:#263238;stroke-miterlimit:10"
       id="path319" />
    <path
       d="m 146.19,281.88 c 0,0 4.43,-2.13 6.72,-3.28 a 15,15 0 0 0 3.93,-3"
       style="fill:none;stroke:#263238;stroke-miterlimit:10"
       id="path321" />
    <path
       d="m 151.27,282.21 a 21.52,21.52 0 0 0 7.54,-5.09"
       style="fill:none;stroke:#263238;stroke-miterlimit:10"
       id="path323" />
    <path
       d="m 121.61,164.44 c 0,0 -8.25,1.5 -10.25,3.75 -2,2.25 -17.31,77.27 -16.61,78 8.51,8.72 62,19.5 62,19.5 0,0 3.5,4.75 5,6.25 1.5,1.5 6.25,6.25 8,5.5 a 26.3,26.3 0 0 0 4.5,-3 16.63,16.63 0 0 0 4,-1.5 c 1,-0.75 2.75,-3.25 2,-4.5 -0.75,-1.25 -4,-7 -6.5,-8.25 -2.5,-1.25 -13,-4.75 -13,-4.75 l -38.87,-21.12 a 2.48,2.48 0 0 1 -1.25,-2.7 l 5.73,-43.92"
       style="fill:#f96900;stroke:#263238;stroke-miterlimit:10"
       id="path325" />
    <path
       d="m 178.25,272.93 c 1,-0.75 2.75,-3.25 2,-4.5 -0.75,-1.25 -4,-7 -6.5,-8.25 -2.5,-1.25 -13,-4.75 -13,-4.75 l -27.54,-15 c -2.61,2.93 -7.38,10.51 -7.07,17.85 a 293.25,293.25 0 0 0 30.61,7.36 c 0,0 3.5,4.75 5,6.25 1.5,1.5 6.25,6.25 8,5.5 a 26.3,26.3 0 0 0 4.5,-3 16.63,16.63 0 0 0 4,-1.46 z"
       style="fill:#ffffff;stroke:#263238;stroke-miterlimit:10"
       id="path327" />
  </g>
</svg>
