<?xml version="1.0" encoding="UTF-8" standalone="no"?>
<svg
   viewBox="0 0 407.54645 428.17212"
   version="1.1"
   id="svg234"
   sodipodi:docname="kpl-services-application.svg"
   width="407.54645"
   height="428.17212"
   inkscape:version="1.1 (c68e22c387, 2021-05-23)"
   xmlns:inkscape="http://www.inkscape.org/namespaces/inkscape"
   xmlns:sodipodi="http://sodipodi.sourceforge.net/DTD/sodipodi-0.dtd"
   xmlns="http://www.w3.org/2000/svg"
   xmlns:svg="http://www.w3.org/2000/svg">
  <defs
     id="defs238" />
  <sodipodi:namedview
     id="namedview236"
     pagecolor="#ffffff"
     bordercolor="#666666"
     borderopacity="1.0"
     inkscape:pageshadow="2"
     inkscape:pageopacity="0.0"
     inkscape:pagecheckerboard="0"
     showgrid="false"
     inkscape:zoom="1.244"
     inkscape:cx="217.44373"
     inkscape:cy="196.14148"
     inkscape:window-width="1368"
     inkscape:window-height="850"
     inkscape:window-x="-6"
     inkscape:window-y="-6"
     inkscape:window-maximized="1"
     inkscape:current-layer="svg234" />
  <g
     id="freepik--Device--inject-2"
     transform="translate(-31.84,-53.499845)">
    <path
       d="m 193.67,60.07 h -52.82 v 0.19 c -1.56,5.63 -5.16,9.28 -9.15,9.28 h -2.29 c -4,0 -7.59,-3.65 -9.15,-9.28 V 60.07 H 67.34 A 26.63,26.63 0 0 0 40.71,86.7 v 322 A 15.29,15.29 0 0 0 56,424 h 149 a 15.29,15.29 0 0 0 15.28,-15.29 V 86.7 A 26.63,26.63 0 0 0 193.67,60.07 Z"
       style="fill:#ffffff;stroke:#263238;stroke-linecap:round;stroke-linejoin:round"
       id="path2" />
    <path
       d="M 220.3,219 V 86.7 A 26.63,26.63 0 0 0 193.67,60.07 h -52.82 v 0.19 c -1.56,5.63 -5.16,9.28 -9.15,9.28 h -2.29 c -4,0 -7.59,-3.65 -9.15,-9.28 V 60.07 H 67.34 A 26.63,26.63 0 0 0 40.71,86.7 V 219 Z"
       style="fill:#0b4f6c;stroke:#263238;stroke-linecap:round;stroke-linejoin:round"
       id="path4" />
    <circle
       cx="68"
       cy="142"
       r="12"
       style="fill:#ffffff;stroke:#263238;stroke-linecap:round;stroke-linejoin:round"
       id="circle6" />
    <polygon
       points="159,174 120,155 40.71,219 220.3,219 220.3,141.99 204,132 "
       style="fill:#ffffff;stroke:#263238;stroke-linecap:round;stroke-linejoin:round"
       id="polygon8" />
    <path
       d="M 220.3,108.62 V 86.7 A 26.63,26.63 0 0 0 193.67,60.07 h -52.82 v 0.19 c -1.56,5.63 -5.16,9.28 -9.15,9.28 h -2.29 c -4,0 -7.59,-3.65 -9.15,-9.28 V 60.07 H 67.34 A 26.63,26.63 0 0 0 40.71,86.7 v 21.92 z"
       style="fill:#c2c2c2;stroke:#263238;stroke-linecap:round;stroke-linejoin:round"
       id="path10" />
    <path
       d="M 220.3,94.46 V 86.7 A 26.63,26.63 0 0 0 193.67,60.07 h -52.82 v 0.19 c -1.56,5.63 -5.16,9.28 -9.15,9.28 h -2.29 c -4,0 -7.59,-3.65 -9.15,-9.28 V 60.07 H 67.34 A 26.63,26.63 0 0 0 40.71,86.7 v 7.76 z"
       style="fill:#ffffff;stroke:#263238;stroke-linecap:round;stroke-linejoin:round"
       id="path12" />
    <path
       d="m 231.73,157.58 v -33.76 h -3 V 80.61 A 26.64,26.64 0 0 0 202,54 H 59 A 26.63,26.63 0 0 0 32.34,80.61 V 412.7 A 26.63,26.63 0 0 0 59,439.33 H 202 A 26.64,26.64 0 0 0 228.64,412.7 V 186.34 h 3 V 166.4 h -3 v -8.82 z M 220.3,393.67 a 26.64,26.64 0 0 1 -26.63,26.64 H 67.34 A 26.64,26.64 0 0 1 40.71,393.67 V 86.7 A 26.63,26.63 0 0 1 67.34,60.07 h 52.82 v 0.19 c 1.56,5.63 5.16,9.28 9.15,9.28 h 2.29 c 4,0 7.59,-3.65 9.15,-9.28 v -0.19 h 52.82 A 26.63,26.63 0 0 1 220.3,86.7 Z"
       style="fill:#0b4f6c;stroke:#263238;stroke-linecap:round;stroke-linejoin:round"
       id="path14" />
    <path
       d="M 197.37,57.65 H 63.64 A 28.21,28.21 0 0 0 35.42,85.87 v 321.58 a 28.22,28.22 0 0 0 28.22,28.22 h 133.73 a 28.22,28.22 0 0 0 28.22,-28.22 V 85.87 A 28.21,28.21 0 0 0 197.37,57.65 Z m 22.93,336 a 26.64,26.64 0 0 1 -26.63,26.64 H 67.34 A 26.64,26.64 0 0 1 40.71,393.65 V 86.7 A 26.63,26.63 0 0 1 67.34,60.07 h 52.82 v 0.19 c 1.56,5.63 5.16,9.28 9.15,9.28 h 2.29 c 4,0 7.59,-3.65 9.15,-9.28 v -0.19 h 52.82 A 26.63,26.63 0 0 1 220.3,86.7 Z"
       style="fill:#263238;stroke:#263238;stroke-linecap:round;stroke-linejoin:round"
       id="path16" />
    <path
       d="m 132.46,61.34 a 2.5,2.5 0 1 0 -2.5,2.5 2.5,2.5 0 0 0 2.5,-2.5 z"
       style="fill:#707070"
       id="path18" />
    <path
       d="m 56.67,70.93 c 0,2.53 -2.84,3.44 -2.86,5.37 v 0.13 h 2.76 v 0.85 h -3.68 v -0.72 c 0,-2.71 2.84,-3.24 2.84,-5.6 0,-0.86 -0.29,-1.32 -1,-1.32 -0.71,0 -1,0.49 -1,1.24 v 0.74 h -0.88 v -0.68 c 0,-1.29 0.59,-2.14 1.88,-2.14 1.29,0 1.94,0.84 1.94,2.13 z"
       style="fill:#263238"
       id="path20" />
    <path
       d="m 61.26,70.91 v 0.22 a 1.68,1.68 0 0 1 -1,1.73 1.66,1.66 0 0 1 1,1.73 v 0.65 c 0,1.28 -0.6,2.12 -1.89,2.12 -1.29,0 -1.89,-0.84 -1.89,-2.12 v -0.57 h 0.88 v 0.63 c 0,0.76 0.31,1.21 1,1.21 0.69,0 1,-0.44 1,-1.29 v -0.65 c 0,-0.83 -0.35,-1.22 -1.06,-1.25 h -0.5 v -0.84 h 0.55 a 1,1 0 0 0 1,-1.15 V 71 c 0,-0.86 -0.3,-1.31 -1,-1.31 -0.7,0 -1,0.47 -1,1.23 v 0.43 h -0.88 v -0.39 c 0,-1.28 0.6,-2.11 1.89,-2.11 1.29,0 1.9,0.78 1.9,2.06 z"
       style="fill:#263238"
       id="path22" />
    <path
       d="m 63.07,71.55 v 1.16 h -0.9 v -1.16 z m 0,4.57 v 1.16 h -0.9 v -1.16 z"
       style="fill:#263238"
       id="path24" />
    <path
       d="m 65,72.3 a 1.35,1.35 0 0 1 1.24,-0.69 c 1.08,0 1.56,0.79 1.56,2 v 1.64 c 0,1.28 -0.61,2.12 -1.89,2.12 -1.28,0 -1.91,-0.85 -1.91,-2.13 v -0.56 h 0.87 v 0.62 c 0,0.76 0.31,1.21 1,1.21 0.69,0 1,-0.45 1,-1.21 v -1.63 c 0,-0.75 -0.31,-1.21 -1,-1.21 a 0.9,0.9 0 0 0 -0.94,0.9 v 0.19 H 64 l 0.23,-4.66 h 3.31 v 0.84 H 65.1 Z"
       style="fill:#263238"
       id="path26" />
    <path
       d="m 72.44,70.9 v 0.16 h -0.88 v -0.22 c 0,-0.75 -0.31,-1.2 -1,-1.2 -0.69,0 -1,0.46 -1,1.36 v 1.88 A 1.34,1.34 0 0 1 70.9,72 c 1.08,0 1.56,0.78 1.56,2 v 1.27 c 0,1.28 -0.63,2.12 -1.92,2.12 -1.29,0 -1.93,-0.84 -1.93,-2.12 V 71 c 0,-1.33 0.6,-2.16 1.93,-2.16 1.33,0 1.9,0.78 1.9,2.06 z M 69.55,74 v 1.3 c 0,0.76 0.31,1.21 1,1.21 0.69,0 1,-0.45 1,-1.21 V 74 c 0,-0.75 -0.33,-1.21 -1,-1.21 -0.67,0 -1,0.5 -1,1.21 z"
       style="fill:#263238"
       id="path28" />
    <rect
       x="161.69"
       y="71.269997"
       width="2.3699999"
       height="5.9200001"
       style="fill:#263238"
       id="rect30" />
    <rect
       x="164.85001"
       y="70.080002"
       width="2.3699999"
       height="7.1100001"
       style="fill:#263238"
       id="rect32" />
    <rect
       x="168.00999"
       y="69.239998"
       width="2.3699999"
       height="7.9499998"
       style="fill:#263238"
       id="rect34" />
    <rect
       x="171.17"
       y="67.779999"
       width="2.3699999"
       height="9.4200001"
       style="fill:#263238"
       id="rect36" />
    <path
       d="m 202.86,77 h -14.22 v -8.66 h 14.22 z m -13.43,-0.79 h 12.64 v -7.08 h -12.64 z"
       style="fill:#263238"
       id="path38" />
    <rect
       x="190.62"
       y="69.989998"
       width="7.5"
       height="5.3899999"
       style="fill:#263238"
       id="rect40" />
    <rect
       x="202.37"
       y="71.660004"
       width="1.79"
       height="2.05"
       style="fill:#263238"
       id="rect42" />
    <path
       d="m 183.43,75.14 a 0.52,0.52 0 0 1 -0.27,-0.07 c -2.9,-1.72 -4.81,-0.13 -4.89,-0.06 a 0.53150729,0.53150729 0 1 1 -0.7,-0.8 c 0.11,-0.09 2.55,-2.18 6.13,-0.06 a 0.54,0.54 0 0 1 0.19,0.73 0.53,0.53 0 0 1 -0.46,0.26 z"
       style="fill:#263238"
       id="path44" />
    <path
       d="m 184.5,73.36 a 0.53,0.53 0 0 1 -0.27,-0.08 c -4.19,-2.49 -7,-0.08 -7,-0.06 a 0.53,0.53 0 0 1 -0.75,0 0.54,0.54 0 0 1 0.05,-0.75 c 0,0 3.43,-2.94 8.27,-0.06 a 0.54,0.54 0 0 1 0.19,0.73 0.55,0.55 0 0 1 -0.49,0.22 z"
       style="fill:#263238"
       id="path46" />
    <path
       d="m 185.47,71.29 a 0.52,0.52 0 0 1 -0.27,-0.07 c -5.3,-3.15 -8.82,-0.19 -9,-0.06 a 0.53150729,0.53150729 0 1 1 -0.7,-0.8 c 0,0 4.23,-3.62 10.21,-0.06 a 0.54,0.54 0 0 1 0.19,0.73 0.53,0.53 0 0 1 -0.43,0.26 z"
       style="fill:#263238"
       id="path48" />
    <path
       d="M 181.83,76 A 1.33,1.33 0 1 1 180.5,74.67 1.33,1.33 0 0 1 181.83,76 Z"
       style="fill:#263238"
       id="path50" />
    <line
       x1="176.25999"
       y1="76.5"
       x2="184.92999"
       y2="68.010002"
       style="fill:none;stroke:#0b4f6c;stroke-linecap:round;stroke-linejoin:round"
       id="line52" />
    <line
       x1="109.04"
       y1="236"
       x2="123"
       y2="236"
       style="fill:none;stroke:#263238;stroke-linecap:round;stroke-linejoin:round"
       id="line54" />
    <line
       x1="72.529999"
       y1="236"
       x2="105.46"
       y2="236"
       style="fill:none;stroke:#263238;stroke-linecap:round;stroke-linejoin:round"
       id="line56" />
    <line
       x1="47"
       y1="236"
       x2="67.519997"
       y2="236"
       style="fill:none;stroke:#263238;stroke-linecap:round;stroke-linejoin:round"
       id="line58" />
    <line
       x1="110.11"
       y1="245"
       x2="123"
       y2="245"
       style="fill:none;stroke:#263238;stroke-linecap:round;stroke-linejoin:round"
       id="line60" />
    <line
       x1="47"
       y1="245"
       x2="106.17"
       y2="245"
       style="fill:none;stroke:#263238;stroke-linecap:round;stroke-linejoin:round"
       id="line62" />
    <line
       x1="75.389999"
       y1="254"
       x2="123"
       y2="254"
       style="fill:none;stroke:#263238;stroke-linecap:round;stroke-linejoin:round"
       id="line64" />
    <line
       x1="47"
       y1="254"
       x2="71.809998"
       y2="254"
       style="fill:none;stroke:#263238;stroke-linecap:round;stroke-linejoin:round"
       id="line66" />
    <line
       x1="114.41"
       y1="263"
       x2="123"
       y2="263"
       style="fill:none;stroke:#263238;stroke-linecap:round;stroke-linejoin:round"
       id="line68" />
    <line
       x1="47"
       y1="263"
       x2="110.47"
       y2="263"
       style="fill:none;stroke:#263238;stroke-linecap:round;stroke-linejoin:round"
       id="line70" />
    <line
       x1="90.07"
       y1="272"
       x2="123"
       y2="272"
       style="fill:none;stroke:#263238;stroke-linecap:round;stroke-linejoin:round"
       id="line72" />
    <line
       x1="47"
       y1="272"
       x2="86.489998"
       y2="272"
       style="fill:none;stroke:#263238;stroke-linecap:round;stroke-linejoin:round"
       id="line74" />
    <line
       x1="86.849998"
       y1="281"
       x2="123"
       y2="281"
       style="fill:none;stroke:#263238;stroke-linecap:round;stroke-linejoin:round"
       id="line76" />
    <line
       x1="58.209999"
       y1="281"
       x2="82.550003"
       y2="281"
       style="fill:none;stroke:#263238;stroke-linecap:round;stroke-linejoin:round"
       id="line78" />
    <line
       x1="47"
       y1="281"
       x2="55.349998"
       y2="281"
       style="fill:none;stroke:#263238;stroke-linecap:round;stroke-linejoin:round"
       id="line80" />
    <line
       x1="81.839996"
       y1="290"
       x2="123"
       y2="290"
       style="fill:none;stroke:#263238;stroke-linecap:round;stroke-linejoin:round"
       id="line82" />
    <line
       x1="47"
       y1="290"
       x2="78.610001"
       y2="290"
       style="fill:none;stroke:#263238;stroke-linecap:round;stroke-linejoin:round"
       id="line84" />
    <line
       x1="117.63"
       y1="299"
       x2="123"
       y2="299"
       style="fill:none;stroke:#263238;stroke-linecap:round;stroke-linejoin:round"
       id="line86" />
    <line
       x1="47"
       y1="299"
       x2="112.62"
       y2="299"
       style="fill:none;stroke:#263238;stroke-linecap:round;stroke-linejoin:round"
       id="line88" />
    <line
       x1="67.879997"
       y1="308"
       x2="123"
       y2="308"
       style="fill:none;stroke:#263238;stroke-linecap:round;stroke-linejoin:round"
       id="line90" />
    <line
       x1="47"
       y1="308"
       x2="63.580002"
       y2="308"
       style="fill:none;stroke:#263238;stroke-linecap:round;stroke-linejoin:round"
       id="line92" />
    <line
       x1="94.720001"
       y1="317"
       x2="123"
       y2="317"
       style="fill:none;stroke:#263238;stroke-linecap:round;stroke-linejoin:round"
       id="line94" />
    <line
       x1="47"
       y1="317"
       x2="91.5"
       y2="317"
       style="fill:none;stroke:#263238;stroke-linecap:round;stroke-linejoin:round"
       id="line96" />
    <line
       x1="76.82"
       y1="326"
       x2="123"
       y2="326"
       style="fill:none;stroke:#263238;stroke-linecap:round;stroke-linejoin:round"
       id="line98" />
    <line
       x1="47"
       y1="326"
       x2="70.739998"
       y2="326"
       style="fill:none;stroke:#263238;stroke-linecap:round;stroke-linejoin:round"
       id="line100" />
    <line
       x1="88.989998"
       y1="335"
       x2="123"
       y2="335"
       style="fill:none;stroke:#263238;stroke-linecap:round;stroke-linejoin:round"
       id="line102" />
    <line
       x1="47"
       y1="335"
       x2="84.339996"
       y2="335"
       style="fill:none;stroke:#263238;stroke-linecap:round;stroke-linejoin:round"
       id="line104" />
    <line
       x1="110.47"
       y1="344"
       x2="123"
       y2="344"
       style="fill:none;stroke:#263238;stroke-linecap:round;stroke-linejoin:round"
       id="line106" />
    <line
       x1="65.010002"
       y1="344"
       x2="107.25"
       y2="344"
       style="fill:none;stroke:#263238;stroke-linecap:round;stroke-linejoin:round"
       id="line108" />
    <line
       x1="47"
       y1="344"
       x2="61.43"
       y2="344"
       style="fill:none;stroke:#263238;stroke-linecap:round;stroke-linejoin:round"
       id="line110" />
    <rect
       x="134.09"
       y="237.89"
       width="11.1"
       height="89.839996"
       style="fill:#0b4f6c;stroke:#263238;stroke-linecap:round;stroke-linejoin:round"
       id="rect112" />
    <rect
       x="151.99001"
       y="273.67999"
       width="11.1"
       height="54.049999"
       style="fill:#263238;stroke:#263238;stroke-linecap:round;stroke-linejoin:round"
       id="rect114" />
    <rect
       x="169.88"
       y="290.85999"
       width="11.1"
       height="36.869999"
       style="fill:#0b4f6c;stroke:#263238;stroke-linecap:round;stroke-linejoin:round"
       id="rect116" />
    <rect
       x="187.78"
       y="256.5"
       width="11.1"
       height="71.230003"
       style="fill:#263238;stroke:#263238;stroke-linecap:round;stroke-linejoin:round"
       id="rect118" />
    <rect
       x="205.67999"
       y="310.19"
       width="11.1"
       height="17.540001"
       style="fill:#0b4f6c;stroke:#263238;stroke-linecap:round;stroke-linejoin:round"
       id="rect120" />
    <line
       x1="134.5"
       y1="337"
       x2="215.5"
       y2="337"
       style="fill:none;stroke:#263238;stroke-linecap:round;stroke-linejoin:round"
       id="line122" />
    <line
       x1="134.5"
       y1="231.5"
       x2="215.5"
       y2="231.5"
       style="fill:none;stroke:#263238;stroke-linecap:round;stroke-linejoin:round"
       id="line124" />
    <line
       x1="134.5"
       y1="344"
       x2="215.5"
       y2="344"
       style="fill:none;stroke:#263238;stroke-linecap:round;stroke-linejoin:round"
       id="line126" />
    <line
       x1="47.029999"
       y1="366.34"
       x2="214.42"
       y2="366.34"
       style="fill:none;stroke:#263238;stroke-linecap:round;stroke-linejoin:round"
       id="line128" />
    <line
       x1="57.119999"
       y1="376.42001"
       x2="95.709999"
       y2="376.42001"
       style="fill:none;stroke:#263238;stroke-linecap:round;stroke-linejoin:round"
       id="line130" />
    <line
       x1="57.119999"
       y1="382.47"
       x2="82.660004"
       y2="382.47"
       style="fill:none;stroke:#263238;stroke-linecap:round;stroke-linejoin:round"
       id="line132" />
    <line
       x1="57.119999"
       y1="388.51999"
       x2="95.709999"
       y2="388.51999"
       style="fill:none;stroke:#263238;stroke-linecap:round;stroke-linejoin:round"
       id="line134" />
    <line
       x1="57.119999"
       y1="394.57001"
       x2="79.970001"
       y2="394.57001"
       style="fill:none;stroke:#263238;stroke-linecap:round;stroke-linejoin:round"
       id="line136" />
    <line
       x1="112.78"
       y1="376.42001"
       x2="135.77"
       y2="376.42001"
       style="fill:none;stroke:#263238;stroke-linecap:round;stroke-linejoin:round"
       id="line138" />
    <line
       x1="112.78"
       y1="382.47"
       x2="151.37"
       y2="382.47"
       style="fill:none;stroke:#263238;stroke-linecap:round;stroke-linejoin:round"
       id="line140" />
    <line
       x1="112.78"
       y1="388.51999"
       x2="140.47"
       y2="388.51999"
       style="fill:none;stroke:#263238;stroke-linecap:round;stroke-linejoin:round"
       id="line142" />
    <line
       x1="112.78"
       y1="394.57001"
       x2="151.37"
       y2="394.57001"
       style="fill:none;stroke:#263238;stroke-linecap:round;stroke-linejoin:round"
       id="line144" />
    <line
       x1="168.42999"
       y1="376.42001"
       x2="207.02"
       y2="376.42001"
       style="fill:none;stroke:#263238;stroke-linecap:round;stroke-linejoin:round"
       id="line146" />
    <line
       x1="168.42999"
       y1="382.47"
       x2="187.53"
       y2="382.47"
       style="fill:none;stroke:#263238;stroke-linecap:round;stroke-linejoin:round"
       id="line148" />
    <line
       x1="168.42999"
       y1="388.51999"
       x2="207.02"
       y2="388.51999"
       style="fill:none;stroke:#263238;stroke-linecap:round;stroke-linejoin:round"
       id="line150" />
    <line
       x1="168.42999"
       y1="394.57001"
       x2="196.27"
       y2="394.57001"
       style="fill:none;stroke:#263238;stroke-linecap:round;stroke-linejoin:round"
       id="line152" />
  </g>
  <g
     id="freepik--Character--inject-2"
     transform="translate(-31.84,-53.499845)">
    <path
       d="m 350.88,372.07 c 0,0 2.6,27.78 4.63,37.91 2.03,10.13 9.55,46.58 9.55,50 0,3.42 -8.68,10.71 -12.44,12.74 -3.76,2.03 0.86,3.76 4.63,3.47 3.77,-0.29 9.83,-2.32 10.7,-3.18 a 13.85,13.85 0 0 1 2.7,-1.78 l 0.49,-0.25 -0.29,2 4.34,-0.87 a 55.48,55.48 0 0 0 0,-10.13 c -0.58,-3.76 -0.87,-6.94 -0.87,-6.94 0,0 0.87,-57.88 0.87,-62.79 V 381 Z"
       style="fill:#bdbdbd;stroke:#263238;stroke-linecap:round;stroke-linejoin:round"
       id="path155" />
    <path
       d="m 357.25,476.24 c 3.76,-0.29 9.83,-2.32 10.7,-3.18 a 13.85,13.85 0 0 1 2.7,-1.78 l 0.49,-0.25 -0.29,2 4.34,-0.87 a 55.48,55.48 0 0 0 0,-10.13 c -3.19,3.76 -11.58,8.1 -13.89,8.39 a 4.26,4.26 0 0 1 -3.48,-0.87 l -0.46,-0.12 a 34.85,34.85 0 0 1 -4.74,3.31 c -3.77,2.05 0.86,3.79 4.63,3.5 z"
       style="fill:#263238;stroke:#263238;stroke-linecap:round;stroke-linejoin:round"
       id="path157" />
    <path
       d="m 382.42,380.46 c 0,0 0.87,29.81 3.47,37.91 2.6,8.1 4.63,41.09 4.63,41.09 a 117.67,117.67 0 0 1 -3.76,11.28 c -2.52,5.88 -0.87,10.71 2.6,10.42 3.47,-0.29 8.11,-6.66 8.4,-11.58 a 103.65,103.65 0 0 1 1.44,-11 c 0,0 4.63,-31.54 5.79,-42.25 1.16,-10.71 -0.58,-23.73 -0.58,-24.88 0,-1.15 1.45,-14.76 1.45,-14.76 L 382.13,379 Z"
       style="fill:#bdbdbd;stroke:#263238;stroke-linecap:round;stroke-linejoin:round"
       id="path159" />
    <path
       d="m 398.06,466.21 c -1.84,2.92 -4.65,6.56 -7.25,6.56 -2.32,0 -3,-2.31 -3.1,-4.47 -0.31,0.88 -0.64,1.71 -0.95,2.44 -2.52,5.88 -0.87,10.71 2.6,10.42 3.47,-0.29 8.11,-6.66 8.4,-11.58 0.06,-1.09 0.17,-2.24 0.3,-3.37 z"
       style="fill:#263238;stroke:#263238;stroke-linecap:round;stroke-linejoin:round"
       id="path161" />
    <path
       d="M 352,279.42 A 110.7,110.7 0 0 0 340.4,311 c -3.68,18.24 7.88,62.85 7.88,62.85 0,0 10.12,9.55 28.93,10.41 18.81,0.86 28.94,-2.6 28.94,-2.6 0,0 10.73,-46.61 9.33,-67.11 a 62.35,62.35 0 0 0 -14,-34.42 L 354,276.39 Z"
       style="fill:#263238;stroke:#263238;stroke-linecap:round;stroke-linejoin:round"
       id="path163" />
    <path
       d="m 340.73,296.59 c 0,0 -1.34,9.81 -0.73,11.41 0.61,1.6 10.51,7.1 30.1,10.82 19.59,3.72 37.95,-5.91 42.35,-7.68 4.4,-1.77 4.85,-4.91 4.81,-5.89 -0.04,-0.98 -1.25,-6.87 -1.25,-6.87 0,0 -21.47,5.12 -35.27,5.13 -13.8,0.01 -36.06,-9.25 -38.23,-10 -2.17,-0.75 -1.78,3.08 -1.78,3.08 z"
       style="fill:#ffffff;stroke:#263238;stroke-linecap:round;stroke-linejoin:round"
       id="path165" />
    <path
       d="m 369.88,204.41 c 0,0 -19.14,7.07 -23.92,9 -4.78,1.93 -8.66,2.16 -10.76,7.85 -2.1,5.69 -13.41,42.42 -12.8,47.74 0.61,5.32 5.87,10.4 13.06,10.2 a 10.35,10.35 0 0 0 10,-7.07 c 0.7,-1.77 2.12,-5.1 2.12,-5.1 0,0 -7.84,19.77 -8.82,24.48 -0.98,4.71 0.3,7.06 5.45,9.41 5.15,2.35 20.72,9.65 30.69,11 9.97,1.35 30.75,-6.11 37,-9.25 6.25,-3.14 5.29,-3.73 4.07,-9.61 -1.22,-5.88 -8.4,-12.74 -7.47,-18.63 0.93,-5.89 3.85,-24.33 4.56,-26.1 0.71,-1.77 8.13,-19.62 8.73,-23.94 a 12.78,12.78 0 0 0 -3.15,-10.2 c -2,-2.35 -11.29,-5.09 -17.19,-6.85 -5.9,-1.76 -9.65,-2.94 -9.65,-2.94 z"
       style="fill:#ffffff;stroke:#263238;stroke-linecap:round;stroke-linejoin:round"
       id="path167" />
    <path
       d="m 329.41,255.18 a 19.33,19.33 0 0 0 -2.52,0.26"
       style="fill:none;stroke:#263238;stroke-linecap:round;stroke-linejoin:round"
       id="path169" />
    <path
       d="m 338.64,262.11 c 0,0 -0.17,-4.12 -3.35,-5.89 a 8.15,8.15 0 0 0 -2.45,-0.83"
       style="fill:none;stroke:#263238;stroke-linecap:round;stroke-linejoin:round"
       id="path171" />
    <path
       d="m 338.45,254.81 a 28.45,28.45 0 0 1 3.23,5.53"
       style="fill:none;stroke:#263238;stroke-linecap:round;stroke-linejoin:round"
       id="path173" />
    <path
       d="m 333.88,250.34 a 14.16,14.16 0 0 1 2.42,2"
       style="fill:none;stroke:#263238;stroke-linecap:round;stroke-linejoin:round"
       id="path175" />
    <path
       d="m 400.12,283.78 a 28.66,28.66 0 0 1 -1.19,2.62"
       style="fill:none;stroke:#263238;stroke-linecap:round;stroke-linejoin:round"
       id="path177" />
    <path
       d="m 411.59,254.73 c 0,0 -4.38,10.87 -8.06,20.49 -0.81,2.1 -1.48,3.81 -2,5.21"
       style="fill:none;stroke:#263238;stroke-linecap:round;stroke-linejoin:round"
       id="path179" />
    <path
       d="m 404.27,279.14 c 0,0 -5.37,11.19 -5.28,13.35"
       style="fill:none;stroke:#263238;stroke-linecap:round;stroke-linejoin:round"
       id="path181" />
    <path
       d="m 344.06,299.18 c 0,0 9.77,5.21 12.94,6.59"
       style="fill:#ffffff;stroke:#263238;stroke-linecap:round;stroke-linejoin:round"
       id="path183" />
    <path
       d="m 371.84,193.05 c 0,0 -3,0.07 -2.58,1.63 a 45.18,45.18 0 0 1 0.2,8.79 c -0.2,1.17 -3.52,1.75 1.56,4.88 5.08,3.13 11.72,3.71 17.19,2.54 5.47,-1.17 8.2,-1.56 8.78,-4.1 0.58,-2.54 -0.19,-3.13 -0.19,-5.67 0,-2.54 1.17,-6.05 0.58,-7.61 -0.59,-1.56 -7,-2.54 -8.78,-2.54 -1.78,0 -15.24,0.39 -15.24,0.39 z"
       style="fill:#ffffff;stroke:#263238;stroke-linecap:round;stroke-linejoin:round"
       id="path185" />
    <path
       d="m 366.92,172.42 c 0,0 -3.91,-4.3 -4.69,1 -0.78,5.3 4.69,9 4.69,9 z"
       style="fill:#bdbdbd;stroke:#263238;stroke-linecap:round;stroke-linejoin:round"
       id="path187" />
    <path
       d="m 399.34,172 c 0,0 3.51,-3.51 4.49,0.2 0.98,3.71 -4.1,10.16 -4.1,9.57 0,-0.59 -0.39,-9.77 -0.39,-9.77 z"
       style="fill:#bdbdbd;stroke:#263238;stroke-linecap:round;stroke-linejoin:round"
       id="path189" />
    <path
       d="m 366.22,165.81 c 0,0 0.56,8.73 0.56,15.2 0,6.47 2.53,10.42 5.06,13.79 2.53,3.37 6.48,8.73 10.42,8.73 3.94,0 8.16,-5.91 10.69,-8.44 2.53,-2.53 6.76,-8.17 6.76,-11.54 v -15.77 a 13.8,13.8 0 0 0 -1.41,-9.85 c -2.81,-5.06 -14.07,-6.75 -22.51,-4.78 -8.44,1.97 -10.42,9.85 -9.57,12.66 z"
       style="fill:#bdbdbd;stroke:#263238;stroke-linecap:round;stroke-linejoin:round"
       id="path191" />
    <path
       d="m 366.92,172.42 c 0,0 1,-1 1.17,-3.72 0.17,-2.72 0.39,-7.22 4.88,-10.35 4.49,-3.13 9,-3.71 15.24,-1.75 6.24,1.96 7.61,5.66 8.78,9.57 1.17,3.91 -0.19,6.83 2.35,5.85 2.54,-0.98 3.71,-6.05 4.49,-11.91 0.78,-5.86 -4.49,-13.11 -14.65,-16.21 -10.16,-3.1 -21.28,2.35 -23.82,9 -2.54,6.65 -2,11.52 -1,13.28 1,1.76 0.02,6.63 2.56,6.24 z"
       style="fill:#263238;stroke:#263238;stroke-linecap:round;stroke-linejoin:round"
       id="path193" />
    <path
       d="m 376.49,179.25 c 0,0.86 -0.53,1.56 -1.17,1.56 a 1.62,1.62 0 0 1 0,-3.12 c 0.68,0 1.17,0.7 1.17,1.56 z"
       style="fill:#263238"
       id="path195" />
    <path
       d="m 389,179.45 a 1.41,1.41 0 0 1 -1.18,1.56 c -0.64,0 -1.17,-0.7 -1.17,-1.56 0,-0.86 0.53,-1.57 1.17,-1.57 0.64,0 1.18,0.7 1.18,1.57 z"
       style="fill:#263238"
       id="path197" />
    <path
       d="m 378.64,187.06 c 0,0 1.95,2 6.83,0.39"
       style="fill:none;stroke:#263238;stroke-linecap:round;stroke-linejoin:round"
       id="path199" />
    <path
       d="m 375.51,189.21 a 7.17,7.17 0 0 0 6.45,3.71 9.91,9.91 0 0 0 7.42,-3.71"
       style="fill:none;stroke:#263238;stroke-linecap:round;stroke-linejoin:round"
       id="path201" />
    <path
       d="m 371.22,174.76 a 7.22,7.22 0 0 1 7.22,-0.39"
       style="fill:none;stroke:#263238;stroke-linecap:round;stroke-linejoin:round"
       id="path203" />
    <path
       d="m 385.67,174.56 c 0,0 4.1,-1.75 7.22,0.78"
       style="fill:none;stroke:#263238;stroke-linecap:round;stroke-linejoin:round"
       id="path205" />
    <path
       d="m 417.22,245.69 c 0,0 -3.9,2.93 -3.9,5.27 0,2.34 0,21.09 4.88,26.17 4.88,5.08 11.72,2.93 15.82,1.17 4.1,-1.76 5.86,-7.22 4.29,-11.32 -1.57,-4.1 -3.12,-15 -5.27,-18.75 -2.15,-3.75 -8.59,-4.69 -15.82,-2.54 z"
       style="fill:#ffffff;stroke:#263238;stroke-linecap:round;stroke-linejoin:round"
       id="path207" />
    <path
       d="m 420,238.85 c 0,0 -4.5,1.18 -3.91,3.32 0.59,2.14 -1.56,6.25 0.59,8.6 2.15,2.35 10,1.56 12.89,-0.2 2.89,-1.76 0.78,-4.69 0.78,-6.83 0,-2.14 1,-5.08 -1.18,-6.25 -2.18,-1.17 -9.17,1.36 -9.17,1.36 z"
       style="fill:#ffffff;stroke:#263238;stroke-linecap:round;stroke-linejoin:round"
       id="path209" />
    <path
       d="m 427.63,213.72 c 0,0 -2.11,-1.23 -3.33,-1.05 -1.22,0.18 -7.55,4.21 -8.42,5.26 -0.87,1.05 1.57,3.16 2.8,3.16 a 16.1,16.1 0 0 0 4.91,-1.58 c 0.53,-0.35 5.27,-3.69 5.27,-3.69 z"
       style="fill:#bdbdbd;stroke:#263238;stroke-linecap:round;stroke-linejoin:round"
       id="path211" />
    <path
       d="m 420.09,239.68 c 0,0 -3,-1.93 -3,-5.09 a 35.21,35.21 0 0 1 0.18,-4.38 c 0,0 -2.28,-0.7 -2.11,-2.63 a 4.75,4.75 0 0 1 1.41,-3 21.43,21.43 0 0 1 1.75,-2.8 l 1.41,-1.41 c 0,0 0.87,-4 3.15,-4.38 l 2.28,-0.35 c 0,0 1.23,-3 2.64,-3 1.41,0 4.91,4 6,6.31 1.09,2.31 0.18,3.51 -2.11,6.67 -2.29,3.16 -3.15,10.17 -3.15,11.75 0,1.58 0.35,4.56 -2.63,5.44 -2.98,0.88 -5.79,0.7 -6.32,-0.35 -0.53,-1.05 0.5,-2.78 0.5,-2.78 z"
       style="fill:#bdbdbd;stroke:#263238;stroke-linecap:round;stroke-linejoin:round"
       id="path213" />
    <line
       x1="425.17001"
       y1="215.64999"
       x2="430.60999"
       y2="221.78999"
       style="fill:none;stroke:#263238;stroke-linecap:round;stroke-linejoin:round"
       id="line215" />
    <line
       x1="419.73999"
       y1="220.38"
       x2="425.35001"
       y2="225.12"
       style="fill:none;stroke:#263238;stroke-linecap:round;stroke-linejoin:round"
       id="line217" />
    <line
       x1="416.57999"
       y1="224.59"
       x2="420.95999"
       y2="227.58"
       style="fill:none;stroke:#263238;stroke-linecap:round;stroke-linejoin:round"
       id="line219" />
    <path
       d="m 339.11,262.29 a 8.21,8.21 0 0 0 -5.08,-2.15 c -3.52,-0.39 -7.42,2.73 -10.16,5.47 -2.74,2.74 -4.1,10.54 -1.36,14.84 2.74,4.3 10.15,4.88 13.49,3.55 a 39.84,39.84 0 0 0 9.77,-6.06 c 2.14,-2 1,-5.47 -0.59,-7.81 -1.59,-2.34 -6.07,-7.84 -6.07,-7.84 z"
       style="fill:#ffffff;stroke:#263238;stroke-linecap:round;stroke-linejoin:round"
       id="path221" />
    <path
       d="m 349.26,261.31 c 0,0 -1,-2.15 -2.34,-2.15 -1.34,0 -6.64,2 -7.81,2.35 -1.17,0.35 -4.5,7.42 -1.37,11.32 a 6.26,6.26 0 0 0 9,1.18 c 1.37,-1.37 5.67,-3.32 5.67,-5.67 0,-2.35 -3.15,-7.03 -3.15,-7.03 z"
       style="fill:#ffffff;stroke:#263238;stroke-linecap:round;stroke-linejoin:round"
       id="path223" />
    <path
       d="m 362.35,250.57 -0.87,-17.81 a 2.11,2.11 0 0 1 2.19,-2.21 l 14.25,0.6 a 2.1,2.1 0 0 1 2,2.09 l 0.18,30.22 a 2,2 0 0 1 -1.95,2 l -12.37,0.14 A 2.78,2.78 0 0 1 363,263 Z"
       style="fill:#0b4f6c;stroke:#263238;stroke-linecap:round;stroke-linejoin:round"
       id="path225" />
    <path
       d="m 352.78,254.48 a 9.1,9.1 0 0 1 -2.93,4.29 c -2.35,2 -4.1,1.76 -4.5,3.91 a 5.39,5.39 0 0 0 4.11,6.44 c 3.71,0.78 8.39,-1.56 10,-1.56 1.61,0 5.85,0.78 8.59,0.59 2.74,-0.19 6.64,-3.13 6.25,-3.71 -0.39,-0.58 -2.15,-0.78 -2.15,-0.78 0,0 5.47,-3.52 6.64,-4.3 1.17,-0.78 1.37,-2.15 -0.78,-1.56 -2.15,0.59 -6.45,2.93 -7.23,2.93 -0.78,0 -5.27,0.19 -5.27,0.19 0,0 7.81,-4.1 9.37,-5.08 1.56,-0.98 4.3,-3.32 4.3,-4.49 0,-1.17 -2.15,-1 -2.93,-0.58 -0.78,0.42 -9.37,4.1 -10.54,4.49 -1.17,0.39 9.37,-7 10.35,-8 a 1.32,1.32 0 0 0 -1,-2.34 c -1.37,0 -10.35,5.86 -10.35,5.86 l -2.34,-0.2 -0.2,-5.86 c 0,0 -6.44,3.71 -7.81,5.86 a 10.08,10.08 0 0 0 -1.58,3.9 z"
       style="fill:#bdbdbd;stroke:#263238;stroke-linecap:round;stroke-linejoin:round"
       id="path227" />
    <path
       d="m 372.11,263.66 a 4.28,4.28 0 0 1 -2.54,1.17 31.15,31.15 0 0 1 -4.88,0.39"
       style="fill:#ffffff;stroke:#263238;stroke-linecap:round;stroke-linejoin:round"
       id="path229" />
    <line
       x1="365.67001"
       y1="255.25999"
       x2="363.32001"
       y2="256.04001"
       style="fill:#ffffff;stroke:#263238;stroke-linecap:round;stroke-linejoin:round"
       id="line231" />
  </g>
</svg>
