<?xml version="1.0" encoding="UTF-8" standalone="no"?>
<svg
   viewBox="0 0 444.5498 385.8436"
   version="1.1"
   id="svg650"
   sodipodi:docname="Social update-bro.svg"
   width="444.5498"
   height="385.8436"
   inkscape:version="1.1 (c68e22c387, 2021-05-23)"
   xmlns:inkscape="http://www.inkscape.org/namespaces/inkscape"
   xmlns:sodipodi="http://sodipodi.sourceforge.net/DTD/sodipodi-0.dtd"
   xmlns="http://www.w3.org/2000/svg"
   xmlns:svg="http://www.w3.org/2000/svg">
  <sodipodi:namedview
     id="namedview652"
     pagecolor="#ffffff"
     bordercolor="#666666"
     borderopacity="1.0"
     inkscape:pageshadow="2"
     inkscape:pageopacity="0.0"
     inkscape:pagecheckerboard="0"
     showgrid="false"
     inkscape:zoom="1.244"
     inkscape:cx="223.8746"
     inkscape:cy="190.51447"
     inkscape:window-width="1368"
     inkscape:window-height="850"
     inkscape:window-x="-6"
     inkscape:window-y="-6"
     inkscape:window-maximized="1"
     inkscape:current-layer="svg650" />
  <defs
     id="defs35">
    <clipPath
       id="freepik--clip-path--inject-80">
      <rect
         x="34.970001"
         y="93.489998"
         width="230.92999"
         height="128.67999"
         transform="rotate(-7.23,150.52702,157.93743)"
         style="fill:#ffffff;stroke:#263238;stroke-linecap:round;stroke-linejoin:round"
         id="rect2" />
    </clipPath>
    <clipPath
       id="freepik--clip-path-2--inject-80">
      <rect
         x="41.099998"
         y="107.88"
         width="100.12"
         height="100.12"
         transform="matrix(0.99,-0.13,0.13,0.99,-19.16,12.74)"
         style="fill:#ffffff;stroke:#263238;stroke-linecap:round;stroke-linejoin:round"
         id="rect5" />
    </clipPath>
    <clipPath
       id="freepik--clip-path-3--inject-80">
      <path
         d="m 93.35,168.62 -1.51,5.6 L 86,196 l -3.61,13.53 -25.37,3.22 c -0.29,-0.94 -0.55,-1.87 -0.8,-2.79 -2.71,-10 -2.93,-18.8 3.19,-23.62 l 0.19,-5.23 a 6.54,6.54 0 0 1 2,-1.48 8,8 0 0 1 4,-0.76 9.74,9.74 0 0 1 4.09,1.2 8.63,8.63 0 0 1 2.31,1.61 l -0.51,4.24 0.79,2.13 c 0,0 1.73,-9.83 4.24,-12.89 a 4.08,4.08 0 0 1 0.45,-0.47 18.78,18.78 0 0 1 4.5,-2.25 l 1.59,-0.59 c 0.57,-0.2 1.15,-0.41 1.74,-0.6 0.59,-0.19 1.41,-0.48 2.11,-0.69 1.76,-0.57 3.4,-1.06 4.59,-1.41 1.19,-0.35 1.85,-0.53 1.85,-0.53 z"
         style="fill:#f96900;stroke:#263238;stroke-linecap:round;stroke-linejoin:round"
         id="path8" />
    </clipPath>
    <clipPath
       id="freepik--clip-path-4--inject-80">
      <path
         d="m 138,129.06 2.58,20.31 a 1.46,1.46 0 0 1 -0.07,0.19 c -2.07,5.61 -10.64,18.12 -15.18,24.54 v 0 c -1.09,1.55 -2,2.74 -2.42,3.4 -2.46,3.38 -4.44,8.07 -3.07,13.44 0.88,3.43 0.27,9.77 -0.27,13.86 l -45.21,5.74 A 18.9,18.9 0 0 1 73,207.43 11.28,11.28 0 0 1 72.6,205.59 C 71.4,197.34 77,184 77,184 l 3.8,-5.61 A 22.81,22.81 0 0 1 84,175 l -0.83,-2.73 -0.11,-0.37 -0.15,-0.51 a 16.57,16.57 0 0 0 1.72,-1 c 4.78,-3.07 8.55,-8.47 10.18,-11 l 0.24,-0.39 1.68,0.51 A 16.69,16.69 0 0 1 98.81,156 l 0.4,-0.33 a 22.41,22.41 0 0 1 2.78,-1.9 v 0 a 24.23,24.23 0 0 1 2.19,-1.08 c 1.84,-0.81 3.1,-1.22 4,-2.91 v 0 c 0.29,-0.52 0.55,-1 0.79,-1.47 0.24,-0.47 0.37,-0.72 0.53,-1.05 0.16,-0.33 0.44,-0.89 0.61,-1.28 0.33,-0.72 0.59,-1.34 0.78,-1.88 v 0 a 25.61,25.61 0 0 1 0.1,-6.83 c 0.81,-5 2,-9.84 8.76,-9.47 0,0 1.53,-6.4 7.68,-6.12 h 0.06 c 3.27,0.13 7.51,3.42 10.51,7.38 z"
         style="fill:#f96900;stroke:#263238;stroke-linecap:round;stroke-linejoin:round"
         id="path11" />
    </clipPath>
    <clipPath
       id="freepik--clip-path-5--inject-80">
      <rect
         x="308.95001"
         y="93.489998"
         width="140.56"
         height="225.31"
         transform="rotate(11.28,379.13609,206.06052)"
         style="fill:#ffffff;stroke:#263238;stroke-linecap:round;stroke-linejoin:round"
         id="rect14" />
    </clipPath>
    <clipPath
       id="freepik--clip-path-6--inject-80">
      <rect
         x="309.45999"
         y="133.36"
         width="140.55"
         height="140.56"
         transform="rotate(-78.72,379.75244,203.63503)"
         style="fill:#ffffff;stroke:#263238;stroke-linecap:round;stroke-linejoin:round"
         id="rect17" />
    </clipPath>
    <clipPath
       id="freepik--clip-path-7--inject-80">
      <path
         d="m 377.88,218.82 -4.5,6.8 L 356,252 l -10.84,16.39 -35.21,-7 c 0,-1.37 0.09,-2.73 0.17,-4.07 0.87,-14.52 4.48,-26.33 14.78,-30 l 2.59,-6.87 a 9,9 0 0 1 3.35,-1.07 11,11 0 0 1 5.71,0.79 13.61,13.61 0 0 1 4.91,3.41 12.15,12.15 0 0 1 2.17,3.15 l -2.58,5.4 0.1,3.2 c 0,0 6.64,-12.33 11.35,-15.33 a 5.35,5.35 0 0 1 0.81,-0.43 25.74,25.74 0 0 1 7,-1 c 0.77,0 1.57,-0.07 2.38,-0.09 h 2.58 c 1.05,0 2.1,0 3.12,0 2.6,0 5,0.12 6.74,0.19 1.74,0.07 2.75,0.15 2.75,0.15 z"
         style="fill:#f96900;stroke:#263238;stroke-linecap:round;stroke-linejoin:round"
         id="path20" />
    </clipPath>
    <clipPath
       id="freepik--clip-path-8--inject-80">
      <path
         d="m 454.9,186 -5.62,28.2 -0.17,0.22 c -5.27,6.55 -22.25,19.38 -31.15,25.9 v 0 c -2.14,1.58 -3.81,2.78 -4.74,3.45 -4.79,3.4 -9.51,8.76 -10.08,16.51 -0.36,5 -4,13.13 -6.53,18.34 l -62.75,-12.51 a 26.94,26.94 0 0 1 -0.38,-4.73 16.47,16.47 0 0 1 0.28,-2.63 c 2.11,-11.51 15.52,-26.74 15.52,-26.74 l 7.56,-5.78 a 31.5,31.5 0 0 1 5.72,-3.2 l 0.11,-4 v -0.55 -0.75 a 24.11,24.11 0 0 0 2.74,-0.54 c 7.73,-2 15.16,-7.47 18.46,-10.15 l 0.51,-0.41 2,1.43 c 0,0 3,-3.1 4.37,-3.61 l 0.67,-0.26 A 30.24,30.24 0 0 1 396,203 v 0 a 30.09,30.09 0 0 1 3.4,-0.47 c 2.81,-0.26 4.67,-0.25 6.67,-2.07 v 0 0 c 0.61,-0.57 1.19,-1.11 1.71,-1.61 l 1.18,-1.17 c 0.51,-0.51 1,-1 1.38,-1.43 0.76,-0.81 1.37,-1.52 1.87,-2.15 v 0 a 35.47,35.47 0 0 1 3.17,-9.06 c 3.3,-6.26 7.08,-12.19 15.89,-8.69 0,0 4.88,-7.85 13,-4.73 h 0.08 c 4.19,1.57 8.42,7.85 10.55,14.38 z"
         style="fill:#f96900;stroke:#263238;stroke-linecap:round;stroke-linejoin:round"
         id="path23" />
    </clipPath>
    <clipPath
       id="freepik--clip-path-9--inject-80">
      <rect
         x="158.62"
         y="236.99001"
         width="155.41"
         height="155.39999"
         transform="rotate(-1.93,236.10694,314.26411)"
         style="fill:#ffffff;stroke:#263238;stroke-linecap:round;stroke-linejoin:round"
         id="rect26" />
    </clipPath>
    <clipPath
       id="freepik--clip-path-10--inject-80">
      <path
         d="m 238.16,331.5 -3.16,8.5 -12.1,32.8 -7.52,20.38 -39.68,1.34 c -0.31,-1.49 -0.59,-3 -0.84,-4.42 -2.74,-15.86 -1.83,-29.48 8.32,-36.05 l 1.05,-8.05 a 10.08,10.08 0 0 1 3.34,-2 12.3,12.3 0 0 1 6.35,-0.59 15.28,15.28 0 0 1 6.14,2.43 13.83,13.83 0 0 1 3.13,2.85 l -1.41,6.47 0.92,3.41 c 0,0 4.08,-14.95 8.41,-19.32 a 4.46,4.46 0 0 1 0.76,-0.65 28.19,28.19 0 0 1 7.27,-2.83 c 0.82,-0.23 1.68,-0.47 2.54,-0.69 0.86,-0.22 1.85,-0.46 2.78,-0.68 1.13,-0.27 2.26,-0.54 3.36,-0.77 2.81,-0.63 5.41,-1.14 7.3,-1.51 1.89,-0.37 3.04,-0.62 3.04,-0.62 z"
         style="fill:#f96900;stroke:#263238;stroke-linecap:round;stroke-linejoin:round"
         id="path29" />
    </clipPath>
    <clipPath
       id="freepik--clip-path-11--inject-80">
      <path
         d="m 312.8,276.77 1.06,31.76 a 2.38,2.38 0 0 1 -0.13,0.29 c -4,8.37 -19.05,26.47 -27,35.74 v 0 c -1.91,2.24 -3.41,3.95 -4.24,4.9 -4.29,4.88 -8,11.84 -6.67,20.32 0.86,5.44 -1,15.14 -2.4,21.39 l -70.71,2.38 a 30.51,30.51 0 0 1 -1.6,-5 17.82,17.82 0 0 1 -0.36,-2.9 c -0.64,-12.92 10,-32.71 10,-32.71 l 6.67,-8.12 a 35.05,35.05 0 0 1 5.35,-4.9 l -0.88,-4.33 -0.13,-0.59 -0.16,-0.82 a 26.07,26.07 0 0 0 2.81,-1.27 c 7.82,-4.06 14.43,-11.87 17.31,-15.59 l 0.44,-0.57 2.51,1 c 0,0 2.5,-4.11 3.79,-5 l 0.67,-0.44 a 32.16,32.16 0 0 1 4.57,-2.53 v 0 a 35.26,35.26 0 0 1 3.54,-1.37 c 3,-1 5,-1.44 6.66,-3.91 a 0.1,0.1 0 0 1 0,-0.05 v 0 c 0.52,-0.77 1,-1.49 1.43,-2.17 0.43,-0.68 0.67,-1.06 1,-1.55 0.42,-0.68 0.8,-1.3 1.13,-1.89 0.61,-1.06 1.1,-2 1.47,-2.78 0,0 0,0 0,0 A 39.35,39.35 0 0 1 270,285.53 c 2,-7.57 4.55,-14.91 14.91,-13.37 0,0 3.28,-9.67 12.75,-8.36 h 0.09 c 4.95,0.73 11.09,6.43 15.05,12.97 z"
         style="fill:#f96900;stroke:#263238;stroke-linecap:round;stroke-linejoin:round"
         id="path32" />
    </clipPath>
  </defs>
  <g
     id="freepik--Icons--inject-80"
     transform="translate(-26.12,-59.450138)">
    <path
       d="m 111.11,312.25 0.35,-2.16 a 3.77,3.77 0 0 0 -2.71,-4.21 v -0.05 l -0.42,-0.06 -12.31,-2 -11.43,-1.84 c 0,0 5.47,-17.07 3.58,-22.21 -1.89,-5.14 -5.29,-4 -5.29,-4 -3.57,12.89 -7.77,18.87 -10.51,21.58 a 12.91,12.91 0 0 0 -3.71,6.95 l -4.1,-0.66 0.47,-2.88 -6.5,-1.05 -5.53,34.23 6.5,1.05 0.46,-2.86 6.49,1.05 a 12.11,12.11 0 0 0 8.79,6.35 l 14.62,2.35 12.32,2 0.42,0.06 v 0 a 3.74,3.74 0 0 0 3.89,-3.15 l 0.35,-2.16 a 3.76,3.76 0 0 0 -2.5,-4.16 3.75,3.75 0 0 0 3.68,-3.16 l 0.35,-2.16 a 3.76,3.76 0 0 0 -2.5,-4.16 3.77,3.77 0 0 0 3.68,-3.16 l 0.35,-2.16 a 3.78,3.78 0 0 0 -2.5,-4.16 3.77,3.77 0 0 0 3.71,-3.21 z"
       style="fill:none;stroke:#263238;stroke-linecap:round;stroke-linejoin:round"
       id="path37" />
    <line
       x1="64.559998"
       y1="303.64001"
       x2="59.98"
       y2="332.07999"
       style="fill:none;stroke:#263238;stroke-linecap:round;stroke-linejoin:round"
       id="line39" />
    <path
       d="m 84.59,301.94 a 24.5,24.5 0 0 1 -1.52,14.87"
       style="fill:none;stroke:#263238;stroke-linecap:round;stroke-linejoin:round"
       id="path41" />
    <rect
       x="91.389999"
       y="304.70999"
       width="20.02"
       height="9.7299995"
       rx="3.0599999"
       transform="rotate(9.16,101.36095,309.42139)"
       style="fill:none;stroke:#263238;stroke-linecap:round;stroke-linejoin:round"
       id="rect43" />
    <rect
       x="89.860001"
       y="314.19"
       width="20.02"
       height="9.7299995"
       rx="3.0599999"
       transform="rotate(9.15,99.939992,319.25798)"
       style="fill:none;stroke:#263238;stroke-linecap:round;stroke-linejoin:round"
       id="rect45" />
    <rect
       x="88.339996"
       y="323.67001"
       width="20.02"
       height="9.7299995"
       rx="3.0599999"
       transform="rotate(9.16,98.294531,328.38656)"
       style="fill:none;stroke:#263238;stroke-linecap:round;stroke-linejoin:round"
       id="rect47" />
    <rect
       x="86.809998"
       y="333.14999"
       width="20.02"
       height="9.7299995"
       rx="3.0599999"
       transform="rotate(9.16,96.79253,337.86665)"
       style="fill:none;stroke:#263238;stroke-linecap:round;stroke-linejoin:round"
       id="rect49" />
    <path
       d="M 384.17,355.45 352.71,368 a 11.65,11.65 0 0 0 -6.52,15.12 l 6.47,16.26 a 11.65,11.65 0 0 0 15.12,6.52 l 10.93,-4.35 c 8.24,6.93 21.81,2.8 21.81,2.8 a 17.78,17.78 0 0 1 -11.83,-6.77 l 10.55,-4.2 a 11.63,11.63 0 0 0 6.52,-15.11 L 399.29,362 a 11.64,11.64 0 0 0 -15.12,-6.55 z"
       style="fill:none;stroke:#263238;stroke-linecap:round;stroke-linejoin:round"
       id="path51" />
    <line
       x1="358.45001"
       y1="379.23999"
       x2="387.73999"
       y2="367.59"
       style="fill:#ffffff;stroke:#263238;stroke-linecap:round;stroke-linejoin:round"
       id="line53" />
    <line
       x1="361.32999"
       y1="386.48001"
       x2="390.62"
       y2="374.82999"
       style="fill:#ffffff;stroke:#263238;stroke-linecap:round;stroke-linejoin:round"
       id="line55" />
    <line
       x1="364.20999"
       y1="393.72"
       x2="385.95999"
       y2="385.07001"
       style="fill:#ffffff;stroke:#263238;stroke-linecap:round;stroke-linejoin:round"
       id="line57" />
    <path
       d="m 308.71,76.12 c -6.47,-3 -11.1,0.64 -13.3,3.06 -1.49,-2.91 -5,-7.6 -12.05,-6.43 C 275.75,74 272,83 277,92.34 c 3.62,6.7 10.2,11.83 13.6,14.17 0.41,0.29 0.78,0.53 1.08,0.72 0.35,-0.11 0.77,-0.24 1.24,-0.41 3.89,-1.37 11.58,-4.6 16.82,-10.13 C 317,89 315.72,79.35 308.71,76.12 Z"
       style="fill:none;stroke:#263238;stroke-linecap:round;stroke-linejoin:round"
       id="path59" />
  </g>
  <g
     id="freepik--Sparkles--inject-80"
     transform="translate(-26.12,-59.450138)">
    <polyline
       points="166.78 61.85 167.3 59.95 169.28 67.1"
       style="fill:none;stroke:#263238;stroke-linecap:round;stroke-linejoin:round"
       id="polyline62" />
    <polyline
       points="166.02 73.59 165.32 71.06 158.18 69.08 163.83 67.51 165.32 67.1 165.97 64.77"
       style="fill:none;stroke:#263238;stroke-linecap:round;stroke-linejoin:round"
       id="polyline64" />
    <polyline
       points="171.19 67.63 176.43 69.08 169.28 71.06 167.3 78.2 166.78 76.3"
       style="fill:none;stroke:#263238;stroke-linecap:round;stroke-linejoin:round"
       id="polyline66" />
    <polyline
       points="296.79 173.77 298.69 174.29 291.54 176.28"
       style="fill:none;stroke:#263238;stroke-linecap:round;stroke-linejoin:round"
       id="polyline68" />
    <polyline
       points="285.05 173.01 287.58 172.31 289.56 165.17 291.13 170.82 291.54 172.31 293.87 172.96"
       style="fill:none;stroke:#263238;stroke-linecap:round;stroke-linejoin:round"
       id="polyline70" />
    <polyline
       points="291.01 178.19 289.56 183.42 287.58 176.28 280.44 174.29 282.34 173.77"
       style="fill:none;stroke:#263238;stroke-linecap:round;stroke-linejoin:round"
       id="polyline72" />
    <line
       x1="106.89"
       y1="258.45999"
       x2="118.59"
       y2="255.22"
       style="fill:none;stroke:#263238;stroke-linecap:round;stroke-linejoin:round"
       id="line74" />
    <line
       x1="115.01"
       y1="260.70999"
       x2="111.5"
       y2="259.73999"
       style="fill:none;stroke:#263238;stroke-linecap:round;stroke-linejoin:round"
       id="line76" />
    <line
       x1="120.59"
       y1="268.94"
       x2="118.59"
       y2="261.70001"
       style="fill:none;stroke:#263238;stroke-linecap:round;stroke-linejoin:round"
       id="line78" />
    <polyline
       points="133.93 257.68 136.76 258.46 125.07 261.7 121.83 273.39"
       style="fill:none;stroke:#263238;stroke-linecap:round;stroke-linejoin:round"
       id="polyline80" />
    <polyline
       points="119.3 252.65 121.83 243.53 125.07 255.22 130.81 256.81"
       style="fill:none;stroke:#263238;stroke-linecap:round;stroke-linejoin:round"
       id="polyline82" />
    <polygon
       points="142.69,398.52 139.12,399.51 138.12,403.09 137.13,399.51 133.56,398.52 137.13,397.53 138.12,393.96 139.12,397.53 "
       style="fill:none;stroke:#263238;stroke-linecap:round;stroke-linejoin:round"
       id="polygon84" />
    <polyline
       points="26.62 226.68 30.19 225.69 31.18 222.12 32.17 225.69"
       style="fill:none;stroke:#263238;stroke-linecap:round;stroke-linejoin:round"
       id="polyline86" />
    <polyline
       points="33.28 226 35.75 226.68 32.17 227.67 31.18 231.24 30.19 227.67 28.28 227.14"
       style="fill:none;stroke:#263238;stroke-linecap:round;stroke-linejoin:round"
       id="polyline88" />
    <polyline
       points="448.57 267.75 449.56 271.33 453.13 272.32 449.56 273.31"
       style="fill:none;stroke:#263238;stroke-linecap:round;stroke-linejoin:round"
       id="polyline90" />
    <polyline
       points="449.25 274.42 448.57 276.88 447.58 273.31 444.01 272.32 447.58 271.33 448.11 269.42"
       style="fill:none;stroke:#263238;stroke-linecap:round;stroke-linejoin:round"
       id="polyline92" />
  </g>
  <g
     id="freepik--screen-1--inject-80"
     transform="translate(-26.12,-59.450138)">
    <rect
       x="34.970001"
       y="93.489998"
       width="230.92999"
       height="128.67999"
       transform="rotate(-7.23,150.52702,157.93743)"
       style="fill:#ffffff"
       id="rect95" />
    <g
       clip-path="url(#freepik--clip-path--inject-80)"
       id="g275">
      <rect
         x="41.099998"
         y="107.88"
         width="100.12"
         height="100.12"
         transform="matrix(0.99,-0.13,0.13,0.99,-19.16,12.74)"
         style="fill:#ffffff"
         id="rect97" />
      <g
         clip-path="url(#freepik--clip-path-2--inject-80)"
         id="g101">
        <rect
           x="41.099998"
           y="107.88"
           width="100.12"
           height="100.12"
           transform="matrix(0.99,-0.13,0.13,0.99,-19.16,12.74)"
           style="opacity:0.4;fill:#f96900"
           id="rect99" />
      </g>
      <rect
         x="41.099998"
         y="107.88"
         width="100.12"
         height="100.12"
         transform="matrix(0.99,-0.13,0.13,0.99,-19.16,12.74)"
         style="fill:none;stroke:#263238;stroke-linecap:round;stroke-linejoin:round"
         id="rect103" />
      <path
         d="m 70.54,133.12 c 0,0 -7.93,3.1 -2.41,16.9 5.52,13.8 7.18,15.55 7.16,19.37 a 3.73,3.73 0 0 0 3.63,3.92 3.28,3.28 0 0 1 -2,-3.79 c 0,0 -0.05,3.73 5.83,2.79 5.88,-0.94 22.11,-15.89 22.11,-15.89 L 78.36,132 Z"
         style="fill:#263238"
         id="path105" />
      <path
         d="m 99.14,168.36 c -4.62,6.78 -14.44,8.06 -14.63,8.08 0,-0.06 1,-1.28 0.13,-5.79 a 13.93,13.93 0 0 0 -1.56,-4.08 21.65,21.65 0 0 0 -3.37,-4.5 l 0.14,-0.09 15,-9 c -2.44,6.38 4.29,15.38 4.29,15.38 z"
         style="fill:#ffffff;stroke:#263238;stroke-linecap:round;stroke-linejoin:round"
         id="path107" />
      <path
         d="m 81.09,132.62 c 0,0 -2.12,10 4.76,15.75 6.88,5.75 13.46,2.94 13.46,2.94 0,0 -9.55,1.48 -13.43,-4.3 -3.88,-5.78 -2.95,-14.63 -2.95,-14.63 z"
         style="fill:#263238"
         id="path109" />
      <path
         d="m 88.68,159.38 c 0,0 -1.91,5.13 -5.6,7.19 a 21.65,21.65 0 0 0 -3.37,-4.5 l 0.14,-0.09 z"
         style="fill:#263238"
         id="path111" />
      <path
         d="m 90.85,158.41 c -0.35,2.07 -7.4,7.05 -13.4,7.57 -1.93,0.17 -7.62,-9.24 -6.8,-13.11 0.92,-4.37 -2.14,-10.24 -1.56,-14.55 0.58,-4.31 3.84,-9 10.4,-11.32 7.3,-2.58 15.87,-0.2 19.23,5.61 3.17,5.46 2.46,16.44 -2,21.34"
         style="fill:#ffffff;stroke:#263238;stroke-linecap:round;stroke-linejoin:round"
         id="path113" />
      <path
         d="m 77.09,142.5 c 0,0 3.53,-2.87 7,-0.45"
         style="fill:none;stroke:#263238;stroke-linecap:round;stroke-linejoin:round"
         id="path115" />
      <path
         d="m 69.44,143 a 4.35,4.35 0 0 1 3.45,1.41"
         style="fill:none;stroke:#263238;stroke-linecap:round;stroke-linejoin:round"
         id="path117" />
      <path
         d="m 83.27,147.86 c 0.07,0.75 -0.25,1.39 -0.71,1.44 -0.46,0.05 -0.91,-0.52 -1,-1.27 -0.09,-0.75 0.24,-1.4 0.71,-1.44 0.47,-0.04 0.92,0.52 1,1.27 z"
         style="fill:#263238"
         id="path119" />
      <path
         d="m 73.92,148.5 c 0,0 -1.11,-1.27 -2,-0.41"
         style="fill:none;stroke:#263238;stroke-linecap:round;stroke-linejoin:round"
         id="path121" />
      <path
         d="m 74,146.17 c 0,0 1,2.19 0.17,3.8 -0.83,1.61 -2.61,2 -2,3.25 a 4.31,4.31 0 0 0 1.91,1.78"
         style="fill:none;stroke:#263238;stroke-linecap:round;stroke-linejoin:round"
         id="path123" />
      <path
         d="m 69.6,136.19 c 0,0 4.61,-4.86 14.68,-2.09 1.79,0.49 0.38,5.18 3.41,6.75 3.03,1.57 2.52,8.24 2.52,8.24 0,0 0.9,-5.44 4,-3.18 3.1,2.26 2.3,8.62 2.3,8.62 0,0 6.45,-6.27 4.62,-17.93 -1.83,-11.66 -14.94,-12.36 -20.65,-10.76 -8.09,2.24 -11.55,7.88 -10.88,10.35 z"
         style="fill:#263238"
         id="path125" />
      <path
         d="m 92,146.29 c 0,0 2.93,-2.94 4.58,-2.48 1.65,0.46 2.92,3.41 2.68,5.89 -0.24,2.48 -4.16,7.09 -5.57,6.35 a 1.62,1.62 0 0 1 -0.93,-2"
         style="fill:#ffffff;stroke:#263238;stroke-linecap:round;stroke-linejoin:round"
         id="path127" />
      <path
         d="m 73.91,156.7 -1,0.37 a 4,4 0 0 0 2.79,1.24 c 0,0 -1.5,0.66 -1.09,1.43"
         style="fill:none;stroke:#263238;stroke-linecap:round;stroke-linejoin:round"
         id="path129" />
      <path
         d="m 92.27,126.15 c 0,0 0.73,-3.94 4.4,-4.07 a 4.66,4.66 0 0 1 4.71,2.7 l -1.3,-0.45 a 4.17,4.17 0 0 1 1.81,2.94 4.25,4.25 0 0 1 -0.4,2.83 l -1.92,-1.56 c 0,0 1.65,2.48 -2.3,2.4 -3.95,-0.08 -5,-4.79 -5,-4.79 z"
         style="fill:#263238"
         id="path131" />
      <path
         d="m 82.17,132.77 c 0,0 0.14,6.63 5.36,14.48 5.22,7.85 12.56,7.24 15.72,11.3 3.16,4.06 2.27,6.14 2.27,6.14 0,0 8.35,-4.22 8.72,-8.79 0.37,-4.57 -8.12,-9.67 -8.12,-9.67 0,0 9,1.52 9.25,7.15 0,0 2.68,-5 -4,-7 -6.68,-2 -7.26,-15 -14.64,-16.35 -7.38,-1.35 -14.56,2.74 -14.56,2.74 z"
         style="fill:#263238"
         id="path133" />
      <g
         style="opacity:0.3"
         id="g153">
        <path
           d="m 78,131.61 a 10.22,10.22 0 0 1 8.35,-5.89"
           style="fill:none;stroke:#ffffff;stroke-linecap:round;stroke-linejoin:round"
           id="path135" />
        <path
           d="M 74,132.12 A 12.17,12.17 0 0 1 76.54,128"
           style="fill:none;stroke:#ffffff;stroke-linecap:round;stroke-linejoin:round"
           id="path137" />
        <path
           d="m 82.17,132.77 a 19.54,19.54 0 0 0 2,12.1"
           style="fill:none;stroke:#ffffff;stroke-linecap:round;stroke-linejoin:round"
           id="path139" />
        <path
           d="m 84,131.88 c 0,0 1.8,15.66 17.24,19.7"
           style="fill:none;stroke:#ffffff;stroke-linecap:round;stroke-linejoin:round"
           id="path141" />
        <path
           d="m 86.41,129.82 c 0,0 4.11,9.66 10.92,12.86 6.81,3.2 8.22,6.54 8.22,6.54"
           style="fill:none;stroke:#ffffff;stroke-linecap:round;stroke-linejoin:round"
           id="path143" />
        <path
           d="m 93.78,126.18 c 0,0 1.33,-4.3 5.62,-2.91"
           style="fill:none;stroke:#ffffff;stroke-linecap:round;stroke-linejoin:round"
           id="path145" />
        <path
           d="m 96.21,126.88 c 0,0 2.91,-2.73 4.84,1.08"
           style="fill:none;stroke:#ffffff;stroke-linecap:round;stroke-linejoin:round"
           id="path147" />
        <path
           d="m 90.61,128.8 a 8.39,8.39 0 0 1 8.31,4.2 c 3.23,5.13 4,9.8 7.63,11.39"
           style="fill:none;stroke:#ffffff;stroke-linecap:round;stroke-linejoin:round"
           id="path149" />
        <path
           d="m 68.82,135.69 c 0,0 -3.82,5.66 0.82,15.31"
           style="fill:none;stroke:#ffffff;stroke-linecap:round;stroke-linejoin:round"
           id="path151" />
      </g>
      <path
         d="m 93.35,168.62 -1.51,5.6 L 86,196 l -3.61,13.53 -25.37,3.22 c -0.29,-0.94 -0.55,-1.87 -0.8,-2.79 -2.71,-10 -2.93,-18.8 3.19,-23.62 l 0.19,-5.23 a 6.54,6.54 0 0 1 2,-1.48 8,8 0 0 1 4,-0.76 9.74,9.74 0 0 1 4.09,1.2 8.63,8.63 0 0 1 2.31,1.61 l -0.51,4.24 0.79,2.13 c 0,0 1.73,-9.83 4.24,-12.89 a 4.08,4.08 0 0 1 0.45,-0.47 18.78,18.78 0 0 1 4.5,-2.25 l 1.59,-0.59 c 0.57,-0.2 1.15,-0.41 1.74,-0.6 0.59,-0.19 1.41,-0.48 2.11,-0.69 1.76,-0.57 3.4,-1.06 4.59,-1.41 1.19,-0.35 1.85,-0.53 1.85,-0.53 z"
         style="fill:#f96900"
         id="path155" />
      <g
         clip-path="url(#freepik--clip-path-3--inject-80)"
         id="g159">
        <path
           d="m 86,196 -3.61,13.53 -25.37,3.22 c -0.29,-0.94 -0.55,-1.87 -0.8,-2.79 a 20.94,20.94 0 0 0 7.59,-0.16 c 4.31,-1.15 6,-20.7 6,-20.7 l -5.33,0.59 c 0,0 2.79,-2.08 2.92,-3.42 0.13,-1.34 4.06,-0.92 4.54,-4.57 l -0.51,4.24 0.79,2.13 c 0,0 1.73,-9.83 4.24,-12.89 a 56.83,56.83 0 0 0 -0.23,8.17 c 0,0 5.94,-7.5 9.46,-7 C 87.5,176.53 87,186.39 86,196 Z"
           style="opacity:0.3;fill-opacity:0.7"
           id="path157" />
      </g>
      <path
         d="m 93.35,168.62 -1.51,5.6 L 86,196 l -3.61,13.53 -25.37,3.22 c -0.29,-0.94 -0.55,-1.87 -0.8,-2.79 -2.71,-10 -2.93,-18.8 3.19,-23.62 l 0.19,-5.23 a 6.54,6.54 0 0 1 2,-1.48 8,8 0 0 1 4,-0.76 9.74,9.74 0 0 1 4.09,1.2 8.63,8.63 0 0 1 2.31,1.61 l -0.51,4.24 0.79,2.13 c 0,0 1.73,-9.83 4.24,-12.89 a 4.08,4.08 0 0 1 0.45,-0.47 18.78,18.78 0 0 1 4.5,-2.25 l 1.59,-0.59 c 0.57,-0.2 1.15,-0.41 1.74,-0.6 0.59,-0.19 1.41,-0.48 2.11,-0.69 1.76,-0.57 3.4,-1.06 4.59,-1.41 1.19,-0.35 1.85,-0.53 1.85,-0.53 z"
         style="fill:none;stroke:#263238;stroke-linecap:round;stroke-linejoin:round"
         id="path161" />
      <path
         d="m 70,182 a 55.84,55.84 0 0 1 0.52,-15.37 c 0.28,-2.15 -2.11,-6.73 -4.13,-6.75 -2.02,-0.02 -6.6,-1.18 -7.28,-0.86 -0.68,0.32 0.35,1.77 0.35,1.77 a 50.11,50.11 0 0 0 -8.64,0.49 c -1.47,0.3 -1.38,1.43 -1.38,1.43 0,0 -1.55,0.33 -1.85,1.22 -0.21,0.66 1.94,0.82 1.94,0.82 -1,1.3 1.85,1.51 1.85,1.51 -0.23,1.88 3.82,1.4 7.75,3.81 a 20.53,20.53 0 0 0 4.44,1.83 l -1.93,10 A 7.42,7.42 0 0 0 66,183.48 5.85,5.85 0 0 0 70,182 Z"
         style="fill:#ffffff;stroke:#263238;stroke-linecap:round;stroke-linejoin:round"
         id="path163" />
      <path
         d="m 59.44,160.78 c 1.43,1.47 3,0.32 3.87,0.95 0.87,0.63 1.34,3.16 2.37,3.57"
         style="fill:none;stroke:#263238;stroke-linecap:round;stroke-linejoin:round"
         id="path165" />
      <path
         d="m 49.42,162.7 c 1.49,-0.41 5.18,-0.38 7.71,-0.36"
         style="fill:none;stroke:#263238;stroke-linecap:round;stroke-linejoin:round"
         id="path167" />
      <path
         d="m 49.51,164.74 c 1.33,-0.77 5.91,-0.82 7.48,-0.4"
         style="fill:none;stroke:#263238;stroke-linecap:round;stroke-linejoin:round"
         id="path169" />
      <path
         d="m 51.36,166.25 a 3.34,3.34 0 0 1 2,-0.57 34.8,34.8 0 0 1 4.48,1"
         style="fill:none;stroke:#263238;stroke-linecap:round;stroke-linejoin:round"
         id="path171" />
      <path
         d="m 63.55,171.89 a 5.72,5.72 0 0 0 3.58,-0.24 4.31,4.31 0 0 0 1.94,-2.82"
         style="fill:none;stroke:#263238;stroke-linecap:round;stroke-linejoin:round"
         id="path173" />
      <path
         d="m 69.64,167 a 2.77,2.77 0 0 0 0.71,-2"
         style="fill:none;stroke:#263238;stroke-linecap:round;stroke-linejoin:round"
         id="path175" />
      <path
         d="m 138,129.06 2.58,20.31 a 1.46,1.46 0 0 1 -0.07,0.19 c -2.07,5.61 -10.64,18.12 -15.18,24.54 v 0 c -1.09,1.55 -2,2.74 -2.42,3.4 -2.46,3.38 -4.44,8.07 -3.07,13.44 0.88,3.43 0.27,9.77 -0.27,13.86 l -45.21,5.74 A 18.9,18.9 0 0 1 73,207.43 11.28,11.28 0 0 1 72.6,205.59 C 71.4,197.34 77,184 77,184 l 3.8,-5.61 A 22.81,22.81 0 0 1 84,175 l -0.83,-2.73 -0.11,-0.37 -0.15,-0.51 a 16.57,16.57 0 0 0 1.72,-1 c 4.78,-3.07 8.55,-8.47 10.18,-11 l 0.24,-0.39 1.68,0.51 A 16.69,16.69 0 0 1 98.81,156 l 0.4,-0.33 a 22.41,22.41 0 0 1 2.78,-1.9 v 0 a 24.23,24.23 0 0 1 2.19,-1.08 c 1.84,-0.81 3.1,-1.22 4,-2.91 v 0 c 0.29,-0.52 0.55,-1 0.79,-1.47 0.24,-0.47 0.37,-0.72 0.53,-1.05 0.16,-0.33 0.44,-0.89 0.61,-1.28 0.33,-0.72 0.59,-1.34 0.78,-1.88 v 0 a 25.61,25.61 0 0 1 0.1,-6.83 c 0.81,-5 2,-9.84 8.76,-9.47 0,0 1.53,-6.4 7.68,-6.12 h 0.06 c 3.27,0.13 7.51,3.42 10.51,7.38 z"
         style="fill:#f96900"
         id="path177" />
      <g
         clip-path="url(#freepik--clip-path-4--inject-80)"
         id="g181">
        <path
           d="m 139.3,139.6 1.24,9.77 a 1.46,1.46 0 0 1 -0.07,0.19 c -2.07,5.61 -10.64,18.12 -15.18,24.54 v 0 c -1.09,1.55 -2,2.74 -2.42,3.4 -2.46,3.38 -4.44,8.07 -3.07,13.44 0.88,3.43 0.27,9.77 -0.27,13.86 l -45.21,5.74 A 18.9,18.9 0 0 1 73,207.43 11.28,11.28 0 0 1 72.6,205.59 l 0.12,-0.06 c 2.77,1.21 9,-5.58 11.14,-5.62 2.14,-0.04 6.81,1.31 10.83,0.85 4.02,-0.46 9.21,-9.22 11.07,-9.49 1.86,-0.27 7.23,3.62 7.23,3.62 a 28.18,28.18 0 0 1 -6,-9.34 c -1.77,-5.06 2.09,-0.48 2.25,-0.29 -0.15,-0.3 -4.26,-8.27 -5.11,-11.31 -0.85,-3.04 1.4,-9.26 1.4,-9.26 0,0 4.12,10.19 6.83,11.59 2.71,1.4 -0.59,-5.58 -0.2,-8.24 0.39,-2.66 5.56,-1 8.14,-2.32 2.58,-1.32 -3.18,-0.67 -5,-4.53 -1.82,-3.86 2.51,0.11 6.22,1 3.71,0.89 16,-7.64 16.25,-10.75 0.25,-3.11 -3.26,-4.33 -3.26,-4.33 0,0 -7.35,2.89 -11.51,-2.75 -4.16,-5.64 2.1,1.16 8.51,0.34 2.23,-0.28 5.8,-3.15 7.79,-5.1 z"
           style="opacity:0.3;fill-opacity:0.7"
           id="path179" />
      </g>
      <path
         d="m 138,129.06 2.58,20.31 a 1.46,1.46 0 0 1 -0.07,0.19 c -2.07,5.61 -10.64,18.12 -15.18,24.54 v 0 c -1.09,1.55 -2,2.74 -2.42,3.4 -2.46,3.38 -4.44,8.07 -3.07,13.44 0.88,3.43 0.27,9.77 -0.27,13.86 l -45.21,5.74 A 18.9,18.9 0 0 1 73,207.43 11.28,11.28 0 0 1 72.6,205.59 C 71.4,197.34 77,184 77,184 l 3.8,-5.61 A 22.81,22.81 0 0 1 84,175 l -0.83,-2.73 -0.11,-0.37 -0.15,-0.51 a 16.57,16.57 0 0 0 1.72,-1 c 4.78,-3.07 8.55,-8.47 10.18,-11 l 0.24,-0.39 1.68,0.51 A 16.69,16.69 0 0 1 98.81,156 l 0.4,-0.33 a 22.41,22.41 0 0 1 2.78,-1.9 v 0 a 24.23,24.23 0 0 1 2.19,-1.08 c 1.84,-0.81 3.1,-1.22 4,-2.91 v 0 c 0.29,-0.52 0.55,-1 0.79,-1.47 0.24,-0.47 0.37,-0.72 0.53,-1.05 0.16,-0.33 0.44,-0.89 0.61,-1.28 0.33,-0.72 0.59,-1.34 0.78,-1.88 v 0 a 25.61,25.61 0 0 1 0.1,-6.83 c 0.81,-5 2,-9.84 8.76,-9.47 0,0 1.53,-6.4 7.68,-6.12 h 0.06 c 3.27,0.13 7.51,3.42 10.51,7.38 z"
         style="fill:none;stroke:#263238;stroke-linecap:round;stroke-linejoin:round"
         id="path183" />
      <path
         d="m 76.92,174.69 a 38.29,38.29 0 0 0 -1.87,10.05"
         style="fill:none;stroke:#263238;stroke-linecap:round;stroke-linejoin:round"
         id="path185" />
      <path
         d="m 70.55,211 a 19.92,19.92 0 0 0 0.75,-3"
         style="fill:none;stroke:#263238;stroke-linecap:round;stroke-linejoin:round"
         id="path187" />
      <path
         d="m 72.23,188.05 c 1.29,1.59 -1,17.81 -2.78,20.68 a 8.38,8.38 0 0 0 -1.14,2.57"
         style="fill:none;stroke:#263238;stroke-linecap:round;stroke-linejoin:round"
         id="path189" />
      <path
         d="m 59.44,186.32 c 0,0 2.57,3.22 5,3.35 a 8.24,8.24 0 0 0 4.66,-1.47"
         style="fill:none;stroke:#263238;stroke-linecap:round;stroke-linejoin:round"
         id="path191" />
      <path
         d="m 96.68,159.44 a 54.21,54.21 0 0 0 -5.82,11.3"
         style="fill:none;stroke:#263238;stroke-linecap:round;stroke-linejoin:round"
         id="path193" />
      <path
         d="m 85.06,174.85 a 7.19,7.19 0 0 0 3.22,-2.12"
         style="fill:none;stroke:#263238;stroke-linecap:round;stroke-linejoin:round"
         id="path195" />
      <path
         d="m 114.88,189.58 1.14,0.93"
         style="fill:none;stroke:#263238;stroke-linecap:round;stroke-linejoin:round"
         id="path197" />
      <path
         d="m 102.62,163.46 a 31.87,31.87 0 0 0 11.31,25.28"
         style="fill:none;stroke:#263238;stroke-linecap:round;stroke-linejoin:round"
         id="path199" />
      <path
         d="m 104.19,152.71 a 33,33 0 0 0 -1.54,9.61"
         style="fill:none;stroke:#263238;stroke-linecap:round;stroke-linejoin:round"
         id="path201" />
      <path
         d="m 108.25,149.75 c 0,0 -5.13,11.17 -1,21"
         style="fill:none;stroke:#263238;stroke-linecap:round;stroke-linejoin:round"
         id="path203" />
      <path
         d="m 113.72,171.16 c 0,0 3.8,7.79 13.75,-0.17"
         style="fill:none;stroke:#263238;stroke-linecap:round;stroke-linejoin:round"
         id="path205" />
      <path
         d="m 111,144.07 c 0,0 0.78,9.33 3.78,12.94"
         style="fill:none;stroke:#263238;stroke-linecap:round;stroke-linejoin:round"
         id="path207" />
      <path
         d="m 138.52,133.49 0.49,3.81 a 9.14,9.14 0 0 1 -3.94,4.21 8.23,8.23 0 0 1 -2,0.78 7.23,7.23 0 0 1 -6.38,-1.55 7.53,7.53 0 0 1 -1.41,-1.41 c -2.38,-3.08 -2.15,-7.43 -1.51,-10.64 a 25.17,25.17 0 0 1 1.22,-4.22 c 0,0 0,0 0,0 0,0 0,0 0,0 l 9.42,3.29 a 36,36 0 0 1 3.39,4.49 c 0.27,0.39 0.51,0.81 0.72,1.24 z"
         style="fill:#263238;stroke:#263238;stroke-miterlimit:10"
         id="path209" />
      <path
         d="m 138.83,135.89 a 61.84,61.84 0 0 1 -3.76,5.62 8.23,8.23 0 0 1 -2,0.78 7.23,7.23 0 0 1 -6.38,-1.55 7.53,7.53 0 0 1 -1.41,-1.41 c -2.38,-3.08 -2.15,-7.43 -1.51,-10.64 a 25.17,25.17 0 0 1 1.22,-4.22 c 0,0 0,0 0,0 0,0 0,0 0,0 L 134.78,104 Z"
         style="fill:#ffffff;stroke:#263238;stroke-linecap:round;stroke-linejoin:round"
         id="path211" />
      <path
         d="m 119.82,127.76 a 19.61,19.61 0 0 0 1.86,14.68 c 4.24,7.51 12.59,5.84 15.27,2.79"
         style="fill:none;stroke:#263238;stroke-linecap:round;stroke-linejoin:round"
         id="path213" />
      <path
         d="m 50.37,140.66 a 2.7,2.7 0 0 0 -2.27,2.46 2.69,2.69 0 0 0 -3.32,0.36 c -1.36,1.31 -0.89,3.65 1.42,4.84 a 10.8,10.8 0 0 0 4.7,1 h 0.32 l 0.19,-0.25 a 10.8,10.8 0 0 0 2,-4.37 c 0.42,-2.58 -1.18,-4.35 -3.04,-4.04 z"
         style="fill:#f96900;stroke:#263238;stroke-linecap:round;stroke-linejoin:round"
         id="path215" />
      <path
         d="m 52.35,150.66 0.27,0.42"
         style="fill:none;stroke:#263238;stroke-linecap:round;stroke-linejoin:round"
         id="path217" />
      <path
         d="m 53.83,152.57 c 1.22,1.28 3.11,2.63 5.28,1.94 3.81,-1.22 2.46,-5.35 0.56,-3.68 -1.9,1.67 1,7.21 7.43,7.08"
         style="fill:none;stroke:#263238;stroke-linecap:round;stroke-linejoin:round;stroke-dasharray:0.957873, 1.91575"
         id="path219" />
      <path
         d="m 68.06,157.85 0.5,-0.07"
         style="fill:none;stroke:#263238;stroke-linecap:round;stroke-linejoin:round"
         id="path221" />
      <path
         d="m 130.82,211.16 c -1.53,-1.95 -3.91,-0.87 -5,0.91 -1.46,-1.49 -4,-2 -5.08,0.23 -1.78,3.78 3.08,6.56 5.35,7.6 l 0.64,0.3 c 0.16,-0.11 0.35,-0.26 0.57,-0.43 1.98,-1.53 6.1,-5.31 3.52,-8.61 z"
         style="fill:#f96900;stroke:#263238;stroke-linecap:round;stroke-linejoin:round"
         id="path223" />
      <polygon
         points="139.82,218.21 138.66,209.1 147.76,207.95 148.92,217.05 144.09,215.4 "
         style="fill:#f96900;stroke:#263238;stroke-linecap:round;stroke-linejoin:round"
         id="polygon225" />
      <path
         d="m 104.25,213 7,-0.88 a 1.26,1.26 0 0 1 1.41,1.09 l 0.73,5.76 a 1.26,1.26 0 0 1 -1.09,1.41 l -2.67,0.34 -0.59,1.81 -1.04,-1.53 -2.67,0.34 a 1.26,1.26 0 0 1 -1.41,-1.09 l -0.73,-5.76 a 1.26,1.26 0 0 1 1.06,-1.49 z"
         style="fill:#f96900;stroke:#263238;stroke-linecap:round;stroke-linejoin:round"
         id="path227" />
      <path
         d="m 228.15,91 -49.87,6.33 a 2.1222453,2.1222453 0 0 0 0.54,4.21 l 49.87,-6.33 A 2.1222453,2.1222453 0 0 0 228.15,91 Z"
         style="fill:#263238"
         id="path229" />
      <path
         d="m 228.57,132.24 -76.8,9.76 a 2.12,2.12 0 1 0 0.53,4.2 l 76.8,-9.74 a 2.121615,2.121615 0 1 0 -0.53,-4.21 z"
         style="fill:#263238"
         id="path231" />
      <path
         d="m 253.78,137.15 -102.15,13 a 1,1 0 0 0 0.25,1.92 l 102.14,-13 a 1,1 0 1 0 -0.24,-1.91 z"
         style="fill:#263238"
         id="path233" />
      <path
         d="m 254.39,142 -102.15,13 a 1,1 0 0 0 0.25,1.92 l 102.14,-13 a 1,1 0 1 0 -0.24,-1.91 z"
         style="fill:#263238"
         id="path235" />
      <path
         d="m 240.57,148.6 -87.71,11.13 a 1,1 0 1 0 0.24,1.91 l 87.72,-11.13 a 1,1 0 0 0 -0.25,-1.91 z"
         style="fill:#263238"
         id="path237" />
      <path
         d="m 246,152.79 -92.52,11.75 a 1,1 0 1 0 0.24,1.91 l 92.53,-11.74 A 1,1 0 0 0 246,152.79 Z"
         style="fill:#263238"
         id="path239" />
      <path
         d="m 241.8,158.21 -87.72,11.14 a 1,1 0 1 0 0.24,1.91 L 242,160.13 a 1,1 0 0 0 -0.24,-1.92 z"
         style="fill:#263238"
         id="path241" />
      <path
         d="m 238.9,88.85 0.85,1.3 a 0.42,0.42 0 0 0 0.34,0.18 h 1.55 A 0.41,0.41 0 0 1 242,91 l -1,1.21 a 0.4,0.4 0 0 0 -0.07,0.38 l 0.45,1.48 a 0.41,0.41 0 0 1 -0.54,0.51 l -1.45,-0.54 a 0.42,0.42 0 0 0 -0.38,0 l -1.27,0.89 a 0.41,0.41 0 0 1 -0.65,-0.36 l 0.07,-1.54 a 0.43,0.43 0 0 0 -0.17,-0.35 l -1.23,-0.93 a 0.41,0.41 0 0 1 0.13,-0.73 l 1.5,-0.42 a 0.4,0.4 0 0 0 0.28,-0.26 l 0.5,-1.46 a 0.42,0.42 0 0 1 0.73,-0.03 z"
         style="fill:#f96900;stroke:#263238;stroke-linecap:round;stroke-linejoin:round"
         id="path243" />
      <rect
         x="144.67"
         y="99.440002"
         width="27.4"
         height="27.4"
         rx="4.5700002"
         transform="rotate(-7.23,158.43712,113.22558)"
         style="fill:#f96900;stroke:#263238;stroke-linecap:round;stroke-linejoin:round"
         id="rect245" />
      <polygon
         points="166.78,112.83 151.41,115.3 152.98,127.64 167.26,125.83 "
         style="fill:#263238"
         id="polygon247" />
      <path
         d="m 156.39,125.88 a 3.24,3.24 0 0 1 -1.4,1.5 l 9.76,-1.23 a 2.23,2.23 0 0 1 -1.23,-1.24 10.82,10.82 0 0 1 -0.38,-2.28 33.52,33.52 0 0 1 0,-3.81 l -8.23,-0.07 c 0,0 0.42,1.36 0.83,2.9 0.41,1.54 0.84,3.6 0.65,4.23 z"
         style="fill:#ffffff;stroke:#263238;stroke-linecap:round;stroke-linejoin:round"
         id="path249" />
      <path
         d="m 163.13,118.82 a 33.52,33.52 0 0 0 0,3.81 4,4 0 0 1 -2.41,0.88 5.41,5.41 0 0 1 -4.55,-2.26 l -0.45,0.4 c -0.41,-1.54 -0.83,-2.9 -0.83,-2.9 z"
         style="fill:#263238"
         id="path251" />
      <path
         d="m 151.88,114.28 c 0,0 -0.83,-0.65 -1.16,-0.36 a 1.57,1.57 0 0 0 -0.39,1.66 c 0.28,0.61 1.27,1.61 1.42,2.25 0.15,0.64 0.68,1.32 1.11,0.83 0.43,-0.49 -0.98,-4.38 -0.98,-4.38 z"
         style="fill:#ffffff;stroke:#263238;stroke-linecap:round;stroke-linejoin:round"
         id="path253" />
      <path
         d="m 165,112.62 c 0,0 0.64,-0.85 1,-0.64 a 1.56,1.56 0 0 1 0.8,1.5 20.21,20.21 0 0 0 -0.8,2.52 c 0,0.66 -0.33,1.45 -0.87,1.08 -0.54,-0.37 -0.13,-4.46 -0.13,-4.46 z"
         style="fill:#ffffff;stroke:#263238;stroke-linecap:round;stroke-linejoin:round"
         id="path255" />
      <path
         d="m 157.42,104.23 c -9.25,1.17 -5.33,12 -3.12,15.78 0.77,1.31 4,2.89 5.47,2.7 a 7.33,7.33 0 0 0 4.34,-3.74 c 1.22,-4.2 2.13,-15.86 -6.69,-14.74 z"
         style="fill:#ffffff;stroke:#263238;stroke-linecap:round;stroke-linejoin:round"
         id="path257" />
      <path
         d="m 156.82,112 c 0,0 -2.5,-0.43 -3.06,1.15"
         style="fill:#ffffff;stroke:#263238;stroke-width:0.5px;stroke-linecap:round;stroke-linejoin:round"
         id="path259" />
      <path
         d="m 155.29,114.29 c 0,0.28 0.21,0.49 0.39,0.47 0.18,-0.02 0.29,-0.27 0.26,-0.56 -0.03,-0.29 -0.21,-0.49 -0.39,-0.47 -0.18,0.02 -0.29,0.27 -0.26,0.56 z"
         style="fill:#263238"
         id="path261" />
      <path
         d="m 159.65,111.68 c 0,0 2.31,-1.06 3.24,0.34"
         style="fill:#ffffff;stroke:#263238;stroke-width:0.5px;stroke-linecap:round;stroke-linejoin:round"
         id="path263" />
      <path
         d="m 161.69,113.48 c 0,0.28 -0.08,0.53 -0.26,0.55 -0.18,0.02 -0.35,-0.19 -0.39,-0.47 -0.04,-0.28 0.08,-0.54 0.26,-0.56 0.18,-0.02 0.35,0.19 0.39,0.48 z"
         style="fill:#263238"
         id="path265" />
      <path
         d="m 159.05,113.41 c -0.23,0.76 1,2.81 0.73,3.22 a 1.53,1.53 0 0 1 -0.88,0.48"
         style="fill:#ffffff;stroke:#263238;stroke-width:0.5px;stroke-linecap:round;stroke-linejoin:round"
         id="path267" />
      <path
         d="m 161.39,117.71 a 6,6 0 0 1 -4.3,0.55"
         style="fill:#ffffff;stroke:#263238;stroke-width:0.5px;stroke-linecap:round;stroke-linejoin:round"
         id="path269" />
      <path
         d="m 167.09,110.54 a 5.77,5.77 0 0 0 -2.93,-5 6.5,6.5 0 0 0 -7.13,-3.38 h -0.1 a 6.5,6.5 0 0 0 -6.06,5 5.78,5.78 0 0 0 -1.59,5.58 c 0.86,3.43 -0.12,9.33 0.5,11.16 a 17.58,17.58 0 0 0 2.05,3.82 l 3.18,-0.4 -0.49,-1.75 a 1.72,1.72 0 0 0 1.92,-0.24 c -3.45,0 -3.24,-15.44 -3.22,-16.6 a 5.47,5.47 0 0 1 0.94,-0.6 10.74,10.74 0 0 1 3.25,-1 h 0.22 0.23 a 10.68,10.68 0 0 1 3.4,0.21 5.76,5.76 0 0 1 1.06,0.34 c 0.31,1.13 4.32,16 1,16.89 a 1.71,1.71 0 0 0 1.91,-0.25 v 1.82 l 3.19,-0.41 a 17.57,17.57 0 0 0 1,-4.21 c 0.12,-1.97 -2.31,-7.44 -2.33,-10.98 z"
         style="fill:#263238"
         id="path271" />
      <polygon
         points="136.76,193.92 270.13,183.88 273.08,207.12 139.74,224.05 "
         style="opacity:0.2;fill-opacity:0.7"
         id="polygon273" />
    </g>
    <rect
       x="34.970001"
       y="93.489998"
       width="230.92999"
       height="128.67999"
       transform="rotate(-7.23,150.52702,157.93743)"
       style="fill:none;stroke:#263238;stroke-linecap:round;stroke-linejoin:round"
       id="rect277" />
  </g>
  <g
     id="freepik--screen-3--inject-80"
     transform="translate(-26.12,-59.450138)">
    <rect
       x="308.95001"
       y="93.489998"
       width="140.56"
       height="225.31"
       transform="rotate(11.28,379.13609,206.06052)"
       style="fill:#ffffff"
       id="rect280" />
    <g
       clip-path="url(#freepik--clip-path-5--inject-80)"
       id="g470">
      <rect
         x="309.45999"
         y="133.36"
         width="140.55"
         height="140.56"
         transform="rotate(-78.72,379.75244,203.63503)"
         style="fill:#ffffff"
         id="rect282" />
      <g
         clip-path="url(#freepik--clip-path-6--inject-80)"
         id="g286">
        <rect
           x="309.45999"
           y="133.36"
           width="140.55"
           height="140.56"
           transform="rotate(-78.72,379.75244,203.63503)"
           style="opacity:0.4;fill:#f96900"
           id="rect284" />
      </g>
      <rect
         x="309.45999"
         y="133.36"
         width="140.55"
         height="140.56"
         transform="rotate(-78.72,379.75244,203.63503)"
         style="fill:none;stroke:#263238;stroke-linecap:round;stroke-linejoin:round"
         id="rect288" />
      <path
         d="m 363.34,161.4 c 0,0 -11.93,0.6 -10.73,21.43 1.2,20.83 2.62,23.9 0.89,29 a 5.23,5.23 0 0 0 3.09,6.83 4.6,4.6 0 0 1 -1,-5.95 c 0,0 -1.74,4.95 6.52,6.32 8.26,1.37 36.51,-11.29 36.51,-11.29 l -24.35,-44.38 z"
         style="fill:#263238"
         id="path290" />
      <path
         d="m 385.7,221.07 c -9.16,7 -22.8,4.29 -23.08,4.23 0.1,-0.06 1.91,-1.26 2.77,-7.65 a 19.86,19.86 0 0 0 -0.26,-6.13 30.59,30.59 0 0 0 -2.49,-7.49 l 0.24,-0.05 24,-5.33 c -6.12,7.44 -1.18,22.42 -1.18,22.42 z"
         style="fill:#ffffff;stroke:#263238;stroke-linecap:round;stroke-linejoin:round"
         id="path292" />
      <path
         d="m 377.6,165.45 c 0,0 -7.29,12.43 -0.68,23.07 6.61,10.64 16.61,9.92 16.61,9.92 0,0 -13.37,-2.28 -16,-11.7 -2.63,-9.42 2.63,-20.74 2.63,-20.74 z"
         style="fill:#263238"
         id="path294" />
      <path
         d="m 375.79,204.46 c 0,0 -4.83,6 -10.66,7.06 a 30.59,30.59 0 0 0 -2.49,-7.49 l 0.24,-0.05 z"
         style="fill:#263238"
         id="path296" />
      <path
         d="m 379.11,204.12 c -1.39,2.6 -13,6.09 -21.22,4.11 -2.64,-0.63 -6,-15.7 -3.21,-20.49 3.18,-5.4 1.72,-14.58 4.41,-20.06 2.69,-5.48 9.13,-10.28 18.9,-10.44 10.86,-0.17 21.21,6.81 23.1,16 1.78,8.7 -4.06,23 -12.17,27.52"
         style="fill:#ffffff;stroke:#263238;stroke-linecap:round;stroke-linejoin:round"
         id="path298" />
      <path
         d="m 367.88,176.81 c 0,0 6,-2.25 9.45,2.51"
         style="fill:none;stroke:#263238;stroke-linecap:round;stroke-linejoin:round"
         id="path300" />
      <path
         d="m 357.47,174.08 a 6.1,6.1 0 0 1 4,3.41"
         style="fill:none;stroke:#263238;stroke-linecap:round;stroke-linejoin:round"
         id="path302" />
      <path
         d="m 373.72,186.7 c -0.24,1 -1,1.74 -1.59,1.6 -0.59,-0.14 -1,-1.1 -0.74,-2.13 0.26,-1.03 0.94,-1.75 1.59,-1.6 0.65,0.15 1.02,1.1 0.74,2.13 z"
         style="fill:#263238"
         id="path304" />
      <path
         d="m 361,183.39 c 0,0 -0.91,-2.18 -2.48,-1.44"
         style="fill:none;stroke:#263238;stroke-linecap:round;stroke-linejoin:round"
         id="path306" />
      <path
         d="m 362.13,180.32 c 0,0 0.39,3.38 -1.46,5.13 -1.85,1.75 -4.38,1.52 -4.07,3.45 a 6,6 0 0 0 1.71,3.21"
         style="fill:none;stroke:#263238;stroke-linecap:round;stroke-linejoin:round"
         id="path308" />
      <path
         d="m 360.72,165.08 c 0,0 8.3,-4.42 20.47,3.75 2.17,1.46 -1.79,7.07 1.53,10.51 3.32,3.44 -0.31,12.09 -0.31,12.09 0,0 3.63,-6.84 6.67,-2.47 3.04,4.37 -0.78,12.5 -0.78,12.5 0,0 11.38,-5.47 14.15,-21.8 2.77,-16.33 -14.38,-23.12 -22.7,-23.54 -11.7,-0.6 -18.82,5.36 -19.03,8.96 z"
         style="fill:#263238"
         id="path310" />
      <path
         d="m 386,188.49 c 0,0 5.21,-2.62 7.2,-1.27 1.99,1.35 2.37,5.85 0.94,9 -1.43,3.15 -8.7,7.58 -10.24,6 a 2.26,2.26 0 0 1 -0.35,-3.06"
         style="fill:#ffffff;stroke:#263238;stroke-linecap:round;stroke-linejoin:round"
         id="path312" />
      <path
         d="m 357.32,194.3 h -1.5 a 5.55,5.55 0 0 0 3.17,2.89 c 0,0 -2.3,0.21 -2.1,1.42"
         style="fill:none;stroke:#263238;stroke-linecap:round;stroke-linejoin:round"
         id="path314" />
      <path
         d="m 395.38,161.81 c 0,0 2.73,-4.92 7.66,-3.45 4.93,1.47 5.07,5.68 5.07,5.68 l -1.53,-1.17 a 5.84,5.84 0 0 1 1.1,4.72 c -0.59,2.73 -1.79,3.59 -1.79,3.59 L 404,168.25 c 0,0 1.07,4 -4.15,2.16 -5.22,-1.84 -4.47,-8.6 -4.47,-8.6 z"
         style="fill:#263238"
         id="path316" />
      <path
         d="m 379,166.13 c 0,0 -2.77,8.89 0.68,21.66 3.45,12.77 13.5,15.24 15.9,22.05 2.4,6.81 0.29,9.18 0.29,9.18 0,0 13,-1.89 15.51,-7.81 2.51,-5.92 -6.49,-16.49 -6.49,-16.49 0,0 11.33,6.05 9.12,13.64 0,0 5.8,-5.51 -2.25,-11.06 -8.05,-5.55 -3,-23.22 -12.2,-28.3 -9.2,-5.08 -20.56,-2.87 -20.56,-2.87 z"
         style="fill:#263238"
         id="path318" />
      <g
         style="opacity:0.3"
         id="g338">
        <path
           d="m 373.93,162.72 a 14.36,14.36 0 0 1 13.75,-4.12"
           style="fill:none;stroke:#ffffff;stroke-linecap:round;stroke-linejoin:round"
           id="path320" />
        <path
           d="m 368.39,161.61 c 0,0 2.6,-3.26 5.22,-4.37"
           style="fill:none;stroke:#ffffff;stroke-linecap:round;stroke-linejoin:round"
           id="path322" />
        <path
           d="m 379,166.13 a 27.42,27.42 0 0 0 -2.66,17"
           style="fill:none;stroke:#ffffff;stroke-linecap:round;stroke-linejoin:round"
           id="path324" />
        <path
           d="m 381.86,165.77 c 0,0 -4.58,21.65 14.18,33.92"
           style="fill:none;stroke:#ffffff;stroke-linecap:round;stroke-linejoin:round"
           id="path326" />
        <path
           d="m 385.94,164.09 c 0,0 1.17,14.69 8.8,22 7.63,7.31 8,12.37 8,12.37"
           style="fill:none;stroke:#ffffff;stroke-linecap:round;stroke-linejoin:round"
           id="path328" />
        <path
           d="m 397.37,162.53 c 0,0 3.69,-5.14 8.78,-1.38"
           style="fill:none;stroke:#ffffff;stroke-linecap:round;stroke-linejoin:round"
           id="path330" />
        <path
           d="m 400.29,164.54 c 0,0 5.1,-2.33 6,3.6"
           style="fill:none;stroke:#ffffff;stroke-linecap:round;stroke-linejoin:round"
           id="path332" />
        <path
           d="m 392,164.6 a 11.78,11.78 0 0 1 9.21,9.25 c 2,8.27 1,14.83 5.09,18.57"
           style="fill:none;stroke:#ffffff;stroke-linecap:round;stroke-linejoin:round"
           id="path334" />
        <path
           d="m 359.91,164.06 c 0,0 -7.6,5.83 -5.72,20.69"
           style="fill:none;stroke:#ffffff;stroke-linecap:round;stroke-linejoin:round"
           id="path336" />
      </g>
      <path
         d="m 377.88,218.82 -4.5,6.8 L 356,252 l -10.84,16.39 -35.21,-7 c 0,-1.37 0.09,-2.73 0.17,-4.07 0.87,-14.52 4.48,-26.33 14.78,-30 l 2.59,-6.87 a 9,9 0 0 1 3.35,-1.07 11,11 0 0 1 5.71,0.79 13.61,13.61 0 0 1 4.91,3.41 12.15,12.15 0 0 1 2.17,3.15 l -2.58,5.4 0.1,3.2 c 0,0 6.64,-12.33 11.35,-15.33 a 5.35,5.35 0 0 1 0.81,-0.43 25.74,25.74 0 0 1 7,-1 c 0.77,0 1.57,-0.07 2.38,-0.09 h 2.58 c 1.05,0 2.1,0 3.12,0 2.6,0 5,0.12 6.74,0.19 1.74,0.07 2.75,0.15 2.75,0.15 z"
         style="fill:#f96900"
         id="path340" />
      <g
         clip-path="url(#freepik--clip-path-7--inject-80)"
         id="g344">
        <path
           d="m 356,252 -10.84,16.39 -35.21,-7 c 0,-1.37 0.09,-2.73 0.17,-4.07 2.76,1.36 6.68,2.95 10.18,3.17 6.25,0.39 17.19,-24.89 17.19,-24.89 l -7.4,-1.6 c 0,0 4.64,-1.52 5.4,-3.25 0.76,-1.73 5.82,0.59 8.09,-4.05 l -2.58,5.4 0.1,3.2 c 0,0 6.69,-12.3 11.4,-15.3 -1.31,3.12 -3.69,9 -3.94,10.77 0,0 11.24,-7.35 15.72,-5.16 2.29,1.14 -2.8,14.04 -8.28,26.39 z"
           style="opacity:0.3;fill-opacity:0.7"
           id="path342" />
      </g>
      <path
         d="m 377.88,218.82 -4.5,6.8 L 356,252 l -10.84,16.39 -35.21,-7 c 0,-1.37 0.09,-2.73 0.17,-4.07 0.87,-14.52 4.48,-26.33 14.78,-30 l 2.59,-6.87 a 9,9 0 0 1 3.35,-1.07 11,11 0 0 1 5.71,0.79 13.61,13.61 0 0 1 4.91,3.41 12.15,12.15 0 0 1 2.17,3.15 l -2.58,5.4 0.1,3.2 c 0,0 6.64,-12.33 11.35,-15.33 a 5.35,5.35 0 0 1 0.81,-0.43 25.74,25.74 0 0 1 7,-1 c 0.77,0 1.57,-0.07 2.38,-0.09 h 2.58 c 1.05,0 2.1,0 3.12,0 2.6,0 5,0.12 6.74,0.19 1.74,0.07 2.75,0.15 2.75,0.15 z"
         style="fill:none;stroke:#263238;stroke-linecap:round;stroke-linejoin:round"
         id="path346" />
      <path
         d="M 340.81,226.22 A 79.12,79.12 0 0 1 348.35,206 c 1.34,-2.73 0.2,-9.89 -2.48,-10.82 -2.68,-0.93 -8.26,-4.51 -9.3,-4.4 -1.04,0.11 -0.33,2.53 -0.33,2.53 0,0 -7.27,-2.66 -11.72,-3.21 -2.1,-0.26 -2.48,1.29 -2.48,1.29 0,0 -2.22,-0.25 -3,0.8 -0.58,0.79 2.21,2 2.21,2 -1.86,1.24 1.75,2.81 1.75,2.81 -1.15,2.39 4.46,3.57 8.62,8.53 a 28.94,28.94 0 0 0 5.1,4.42 l -7,12.48 a 10.34,10.34 0 0 0 5.09,4 8.25,8.25 0 0 0 6,-0.21 z"
         style="fill:#ffffff;stroke:#263238;stroke-linecap:round;stroke-linejoin:round"
         id="path348" />
      <path
         d="m 336.24,193.29 c 1.25,2.59 3.9,1.77 4.73,3 0.83,1.23 0.37,4.8 1.56,5.81"
         style="fill:none;stroke:#263238;stroke-linecap:round;stroke-linejoin:round"
         id="path350" />
      <path
         d="m 322,191.37 c 2.17,0.12 7.07,1.81 10.43,3"
         style="fill:none;stroke:#263238;stroke-linecap:round;stroke-linejoin:round"
         id="path352" />
      <path
         d="m 321.25,194.12 c 2.11,-0.43 8.24,1.55 10.14,2.8"
         style="fill:none;stroke:#263238;stroke-linecap:round;stroke-linejoin:round"
         id="path354" />
      <path
         d="m 323,197 a 4.74,4.74 0 0 1 2.93,0.14 48.69,48.69 0 0 1 5.53,3.31"
         style="fill:none;stroke:#263238;stroke-linecap:round;stroke-linejoin:round"
         id="path356" />
      <path
         d="m 336.76,209.91 a 8,8 0 0 0 4.86,1.27 c 2.44,-0.35 3.85,-2.89 3.85,-2.89"
         style="fill:none;stroke:#263238;stroke-linecap:round;stroke-linejoin:round"
         id="path358" />
      <path
         d="m 347,206.12 a 4,4 0 0 0 1.85,-2.36"
         style="fill:none;stroke:#263238;stroke-linecap:round;stroke-linejoin:round"
         id="path360" />
      <path
         d="m 454.9,186 -5.62,28.2 -0.17,0.22 c -5.27,6.55 -22.25,19.38 -31.15,25.9 v 0 c -2.14,1.58 -3.81,2.78 -4.74,3.45 -4.79,3.4 -9.51,8.76 -10.08,16.51 -0.36,5 -4,13.13 -6.53,18.34 l -62.75,-12.51 a 26.94,26.94 0 0 1 -0.38,-4.73 16.47,16.47 0 0 1 0.28,-2.63 c 2.11,-11.51 15.52,-26.74 15.52,-26.74 l 7.56,-5.78 a 31.5,31.5 0 0 1 5.72,-3.2 l 0.11,-4 v -0.55 -0.75 a 24.11,24.11 0 0 0 2.74,-0.54 c 7.73,-2 15.16,-7.47 18.46,-10.15 l 0.51,-0.41 2,1.43 c 0,0 3,-3.1 4.37,-3.61 l 0.67,-0.26 A 30.24,30.24 0 0 1 396,203 v 0 a 30.09,30.09 0 0 1 3.4,-0.47 c 2.81,-0.26 4.67,-0.25 6.67,-2.07 v 0 0 c 0.61,-0.57 1.19,-1.11 1.71,-1.61 l 1.18,-1.17 c 0.51,-0.51 1,-1 1.38,-1.43 0.76,-0.81 1.37,-1.52 1.87,-2.15 v 0 a 35.47,35.47 0 0 1 3.17,-9.06 c 3.3,-6.26 7.08,-12.19 15.89,-8.69 0,0 4.88,-7.85 13,-4.73 h 0.08 c 4.19,1.57 8.42,7.85 10.55,14.38 z"
         style="fill:#f96900"
         id="path362" />
      <g
         clip-path="url(#freepik--clip-path-8--inject-80)"
         id="g366">
        <path
           d="m 452,200.68 -2.71,13.56 -0.17,0.22 c -5.27,6.55 -22.25,19.38 -31.15,25.9 v 0 c -2.14,1.58 -3.81,2.78 -4.74,3.45 -4.79,3.4 -9.51,8.76 -10.08,16.51 -0.36,5 -4,13.13 -6.53,18.34 l -62.75,-12.51 a 26.94,26.94 0 0 1 -0.38,-4.73 16.47,16.47 0 0 1 0.28,-2.63 h 0.19 c 3.16,2.85 14.42,-3.44 17.34,-2.51 2.92,0.93 8.48,4.78 14,6 5.52,1.22 16.36,-8.17 19,-7.7 2.64,0.47 8,8 8,8 0,0 -3.73,-7.4 -3.82,-15.1 -0.09,-7.53 3,0.29 3.13,0.61 -0.07,-0.47 -2,-12.9 -1.76,-17.33 0.24,-4.43 6,-11.71 6,-11.71 0,0 0.94,15.4 3.92,18.47 2.98,3.07 1.71,-7.69 3.41,-11.06 1.7,-3.37 7.82,1.08 11.82,0.54 4,-0.54 -3.93,-2.31 -4.66,-8.27 -0.73,-5.96 3.29,1.26 7.84,4.09 4.55,2.83 24.68,-3.05 26.42,-7.06 1.74,-4.01 -2.41,-7.22 -2.41,-7.22 0,0 -11,0.58 -14,-8.76 -3,-9.34 2.29,2.48 11.19,4.25 3.06,0.59 9.09,-1.65 12.62,-3.35 z"
           style="opacity:0.3;fill-opacity:0.7"
           id="path364" />
      </g>
      <path
         d="m 454.9,186 -5.62,28.2 -0.17,0.22 c -5.27,6.55 -22.25,19.38 -31.15,25.9 v 0 c -2.14,1.58 -3.81,2.78 -4.74,3.45 -4.79,3.4 -9.51,8.76 -10.08,16.51 -0.36,5 -4,13.13 -6.53,18.34 l -62.75,-12.51 a 26.94,26.94 0 0 1 -0.38,-4.73 16.47,16.47 0 0 1 0.28,-2.63 c 2.11,-11.51 15.52,-26.74 15.52,-26.74 l 7.56,-5.78 a 31.5,31.5 0 0 1 5.72,-3.2 l 0.11,-4 v -0.55 -0.75 a 24.11,24.11 0 0 0 2.74,-0.54 c 7.73,-2 15.16,-7.47 18.46,-10.15 l 0.51,-0.41 2,1.43 c 0,0 3,-3.1 4.37,-3.61 l 0.67,-0.26 A 30.24,30.24 0 0 1 396,203 v 0 a 30.09,30.09 0 0 1 3.4,-0.47 c 2.81,-0.26 4.67,-0.25 6.67,-2.07 v 0 0 c 0.61,-0.57 1.19,-1.11 1.71,-1.61 l 1.18,-1.17 c 0.51,-0.51 1,-1 1.38,-1.43 0.76,-0.81 1.37,-1.52 1.87,-2.15 v 0 a 35.47,35.47 0 0 1 3.17,-9.06 c 3.3,-6.26 7.08,-12.19 15.89,-8.69 0,0 4.88,-7.85 13,-4.73 h 0.08 c 4.19,1.57 8.42,7.85 10.55,14.38 z"
         style="fill:none;stroke:#263238;stroke-linecap:round;stroke-linejoin:round"
         id="path368" />
      <path
         d="m 353.31,219.59 a 53.58,53.58 0 0 0 -7,12.55"
         style="fill:none;stroke:#263238;stroke-linecap:round;stroke-linejoin:round"
         id="path370" />
      <path
         d="M 328.64,265.11 A 28.42,28.42 0 0 0 331,261.5"
         style="fill:none;stroke:#263238;stroke-linecap:round;stroke-linejoin:round"
         id="path372" />
      <path
         d="m 341.1,235.29 c 1,2.68 -9.2,23.27 -12.91,26.29 a 12,12 0 0 0 -2.67,2.91"
         style="fill:none;stroke:#263238;stroke-linecap:round;stroke-linejoin:round"
         id="path374" />
      <path
         d="m 324.85,227.28 c 0,0 2,5.43 5.24,6.71 a 11.62,11.62 0 0 0 6.86,0.13"
         style="fill:none;stroke:#263238;stroke-linecap:round;stroke-linejoin:round"
         id="path376" />
      <path
         d="m 386.41,208.1 a 75.45,75.45 0 0 0 -12.78,12.45"
         style="fill:none;stroke:#263238;stroke-linecap:round;stroke-linejoin:round"
         id="path378" />
      <path
         d="M 364.07,223.43 A 10.11,10.11 0 0 0 369.3,222"
         style="fill:none;stroke:#263238;stroke-linecap:round;stroke-linejoin:round"
         id="path380" />
      <path
         d="m 397.21,256.33 c 0.35,0.59 0.72,1.17 1.1,1.74"
         style="fill:none;stroke:#263238;stroke-linecap:round;stroke-linejoin:round"
         id="path382" />
      <path
         d="m 392.52,216.09 a 44.82,44.82 0 0 0 3.79,38.7"
         style="fill:none;stroke:#263238;stroke-linecap:round;stroke-linejoin:round"
         id="path384" />
      <path
         d="m 399.41,202.48 a 46.05,46.05 0 0 0 -6.34,12.11"
         style="fill:none;stroke:#263238;stroke-linecap:round;stroke-linejoin:round"
         id="path386" />
      <path
         d="m 406.13,200.36 c 0,0 -11.81,12.57 -10.67,27.49"
         style="fill:none;stroke:#263238;stroke-linecap:round;stroke-linejoin:round"
         id="path388" />
      <path
         d="m 403.87,231.29 c 0,0 1.59,12.06 18.38,5.9"
         style="fill:none;stroke:#263238;stroke-linecap:round;stroke-linejoin:round"
         id="path390" />
      <path
         d="m 412.27,194 c 0,0 -3.11,12.76 -0.73,18.9"
         style="fill:none;stroke:#263238;stroke-linecap:round;stroke-linejoin:round"
         id="path392" />
      <path
         d="m 453.68,192.19 -1.06,5.29 a 12.7,12.7 0 0 1 -7.12,3.85 11.56,11.56 0 0 1 -3,0.15 10.15,10.15 0 0 1 -7.81,-4.9 10.84,10.84 0 0 1 -1.24,-2.51 c -1.8,-5.16 0.44,-10.86 2.73,-14.84 a 36.14,36.14 0 0 1 3.5,-5.07 c 0,0 0,0 0,0 v 0 l 11.07,8.58 a 50,50 0 0 1 2.52,7.49 c 0.18,0.64 0.31,1.3 0.41,1.96 z"
         style="fill:#263238;stroke:#263238;stroke-miterlimit:10"
         id="path394" />
      <path
         d="m 453,195.53 a 83.91,83.91 0 0 1 -7.51,5.8 11.56,11.56 0 0 1 -3,0.15 10.15,10.15 0 0 1 -7.81,-4.9 10.84,10.84 0 0 1 -1.24,-2.51 c -1.8,-5.16 0.44,-10.86 2.73,-14.84 a 36.14,36.14 0 0 1 3.5,-5.07 c 0,0 0,0 0,0 v 0 l 22.12,-22.8 z"
         style="fill:#ffffff;stroke:#263238;stroke-linecap:round;stroke-linejoin:round"
         id="path396" />
      <path
         d="m 431.34,176.24 a 27.45,27.45 0 0 0 -4.06,20.36 c 2.29,11.9 14.15,13.4 19.07,10.53"
         style="fill:none;stroke:#263238;stroke-linecap:round;stroke-linejoin:round"
         id="path398" />
      <path
         d="m 333.12,162.46 a 3.76,3.76 0 0 0 -4.11,2.26 3.76,3.76 0 0 0 -4.58,-1 c -2.4,1.14 -2.81,4.46 -0.27,7.07 a 15.2,15.2 0 0 0 5.84,3.41 l 0.42,0.14 0.37,-0.25 a 15.32,15.32 0 0 0 4.61,-4.93 c 1.68,-3.23 0.34,-6.29 -2.28,-6.7 z"
         style="fill:#f96900;stroke:#263238;stroke-linecap:round;stroke-linejoin:round"
         id="path400" />
      <path
         d="m 331.31,176.66 0.12,0.48"
         style="fill:none;stroke:#263238;stroke-linecap:round;stroke-linejoin:round"
         id="path402" />
      <path
         d="m 332.09,179.1 c 1,2.37 2.94,5.63 6.51,5.68 5.61,0.09 5.65,-6 2.38,-4.64 -3.11,1.31 -1.78,10.39 7.22,12.88"
         style="fill:none;stroke:#263238;stroke-linecap:round;stroke-linejoin:round;stroke-dasharray:1.03693, 2.07387"
         id="path404" />
      <path
         d="m 349.22,193.26 0.49,0.1"
         style="fill:none;stroke:#263238;stroke-linecap:round;stroke-linejoin:round"
         id="path406" />
      <circle
         cx="362.92999"
         cy="292.82999"
         r="9.3999996"
         style="fill:#ffffff;stroke:#263238;stroke-linecap:round;stroke-linejoin:round"
         id="circle408" />
      <path
         d="m 370.24,294.29 a 7.46,7.46 0 1 1 -5.86,-8.78 7.44,7.44 0 0 1 5.86,8.78 z"
         style="opacity:0.4;fill:#f96900"
         id="path410" />
      <path
         d="m 370.24,294.29 a 7.46,7.46 0 1 1 -5.86,-8.78 7.44,7.44 0 0 1 5.86,8.78 z"
         style="fill:none;stroke:#263238;stroke-linecap:round;stroke-linejoin:round"
         id="path412" />
      <rect
         x="307.73001"
         y="277.01001"
         width="12.02"
         height="12.02"
         rx="2.48"
         transform="rotate(11.28,313.62024,282.92798)"
         style="fill:none;stroke:#263238;stroke-linecap:round;stroke-linejoin:round"
         id="rect414" />
      <line
         x1="314.28"
         y1="280.29001"
         x2="313.16"
         y2="285.89001"
         style="fill:none;stroke:#263238;stroke-linecap:round;stroke-linejoin:round"
         id="line416" />
      <line
         x1="316.51999"
         y1="283.64999"
         x2="310.92001"
         y2="282.53"
         style="fill:none;stroke:#263238;stroke-linecap:round;stroke-linejoin:round"
         id="line418" />
      <rect
         x="406.10001"
         y="296.63"
         width="12.02"
         height="12.02"
         rx="2.48"
         transform="rotate(11.28,411.97335,302.50895)"
         style="fill:none;stroke:#263238;stroke-linecap:round;stroke-linejoin:round"
         id="rect420" />
      <line
         x1="415.48001"
         y1="300.34"
         x2="409.88"
         y2="299.22"
         style="fill:none;stroke:#263238;stroke-linecap:round;stroke-linejoin:round"
         id="line422" />
      <line
         x1="414.92001"
         y1="303.19"
         x2="409.31"
         y2="302.07999"
         style="fill:none;stroke:#263238;stroke-linecap:round;stroke-linejoin:round"
         id="line424" />
      <line
         x1="414.35001"
         y1="306.04999"
         x2="408.73999"
         y2="304.92999"
         style="fill:none;stroke:#263238;stroke-linecap:round;stroke-linejoin:round"
         id="line426" />
      <text
         transform="rotate(11.28,-396.74877,2046.0949)"
         style="font-size:7.39231px;font-family:BebasNeue, 'Bebas Neue';fill:#263238"
         id="text428">635</text>
      <text
         transform="rotate(11.28,-422.2631,2304.8979)"
         style="font-size:7.39231px;font-family:BebasNeue, 'Bebas Neue';fill:#263238"
         id="text430">993</text>
      <text
         transform="rotate(11.28,-408.75985,2167.7797)"
         style="font-size:7.39231px;font-family:BebasNeue, 'Bebas Neue';fill:#263238"
         id="text432">189K</text>
      <path
         d="m 412.85,132.7 -25.34,-5 a 3,3 0 0 1 -2.33,-3.49 v 0 a 3,3 0 0 1 3.49,-2.33 l 25.34,5 a 3,3 0 0 1 2.33,3.49 v 0 a 3,3 0 0 1 -3.49,2.33 z"
         style="fill:#f96900;stroke:#263238;stroke-linecap:round;stroke-linejoin:round"
         id="path434" />
      <path
         d="M 452.3,140.39 427,135.33 a 3,3 0 0 1 -2.33,-3.49 v 0 a 3,3 0 0 1 3.49,-2.33 l 25.34,5.05 a 3,3 0 0 1 2.33,3.49 v 0 a 3,3 0 0 1 -3.53,2.34 z"
         style="fill:#f96900;stroke:#263238;stroke-linecap:round;stroke-linejoin:round"
         id="path436" />
      <rect
         x="330.07999"
         y="95.580002"
         width="140.56"
         height="9.2200003"
         transform="rotate(11.28,400.21977,100.14606)"
         style="fill:#f96900;stroke:#263238;stroke-linecap:round;stroke-linejoin:round"
         id="rect438" />
      <path
         d="m 352.52,111 a 9.66,9.66 0 0 1 -3.83,6 9.45,9.45 0 0 1 -3.54,1.62 c -0.25,0.06 -0.5,0.11 -0.76,0.15 a 9.77,9.77 0 0 1 -6.82,-1.5 l -0.31,-0.22 a 9.48,9.48 0 0 1 -2.57,-2.71 9.77,9.77 0 1 1 17.83,-3.34 z"
         style="fill:#f96900;stroke:#263238;stroke-linecap:round;stroke-linejoin:round"
         id="path440" />
      <path
         d="m 337.2,110.84 c 0,0 0.74,-2.9 5.95,-1.7 5.21,1.2 8.16,11 -1.28,9.41 -9.44,-1.59 -4.67,-7.71 -4.67,-7.71 z"
         style="fill:#263238"
         id="path442" />
      <path
         d="m 344.64,118.51 -0.25,0.25 a 9.77,9.77 0 0 1 -6.82,-1.5 l -0.08,-0.17 a 2.39,2.39 0 0 0 1.33,-0.73 9.27,9.27 0 0 0 0.54,-3.12 c 0.08,-1.19 0.1,-2.25 0.1,-2.25 l 5.77,2 a 25.53,25.53 0 0 0 -0.89,2.68 8.36,8.36 0 0 0 -0.27,1.7 1.6,1.6 0 0 0 0.57,1.14 z"
         style="fill:#ffffff;stroke:#263238;stroke-linecap:round;stroke-linejoin:round"
         id="path444" />
      <path
         d="m 345.23,113 a 25.23,25.23 0 0 0 -0.89,2.69 3,3 0 0 1 -1.9,0 4,4 0 0 1 -2.67,-2.67 l -0.42,0.18 c 0.08,-1.18 0.11,-2.24 0.11,-2.24 z"
         style="fill:#263238"
         id="path446" />
      <path
         d="m 338.38,107.14 c 0,0 -0.43,-0.66 -0.73,-0.53 a 1.17,1.17 0 0 0 -0.66,1.07 15.47,15.47 0 0 1 0.47,1.93 c 0,0.48 0.17,1.08 0.59,0.84 0.42,-0.24 0.33,-3.31 0.33,-3.31 z"
         style="fill:#ffffff;stroke:#263238;stroke-linecap:round;stroke-linejoin:round"
         id="path448" />
      <path
         d="m 348,109.06 c 0,0 0.65,-0.45 0.88,-0.21 a 1.16,1.16 0 0 1 0.2,1.25 c -0.24,0.44 -1,1.13 -1.17,1.59 -0.17,0.46 -0.57,0.94 -0.87,0.56 -0.3,-0.38 0.96,-3.19 0.96,-3.19 z"
         style="fill:#ffffff;stroke:#263238;stroke-linecap:round;stroke-linejoin:round"
         id="path450" />
      <path
         d="m 344.65,101.37 c -6.78,-1.35 -6.58,7.22 -5.91,10.37 a 5.7,5.7 0 0 0 3.21,3.18 5.44,5.44 0 0 0 3.94,-1.6 c 1.84,-2.67 5.23,-10.66 -1.24,-11.95 z"
         style="fill:#ffffff;stroke:#263238;stroke-linecap:round;stroke-linejoin:round"
         id="path452" />
      <path
         d="m 342.39,106.72 c 0,0 -1.66,-0.9 -2.42,0.09"
         style="fill:#ffffff;stroke:#263238;stroke-width:0.5px;stroke-linecap:round;stroke-linejoin:round"
         id="path454" />
      <path
         d="m 340.79,108 c -0.05,0.2 0,0.39 0.16,0.42 0.16,0.03 0.27,-0.12 0.31,-0.33 0.04,-0.21 0,-0.4 -0.16,-0.42 -0.16,-0.02 -0.27,0.07 -0.31,0.33 z"
         style="fill:#263238"
         id="path456" />
      <path
         d="m 344.46,107.13 c 0,0 1.88,-0.19 2.21,1"
         style="fill:#ffffff;stroke:#263238;stroke-width:0.5px;stroke-linecap:round;stroke-linejoin:round"
         id="path458" />
      <path
         d="m 345.47,108.88 c 0,0.21 -0.18,0.36 -0.31,0.33 -0.13,-0.03 -0.2,-0.22 -0.16,-0.42 0.04,-0.2 0.18,-0.36 0.31,-0.33 0.13,0.03 0.21,0.21 0.16,0.42 z"
         style="fill:#263238"
         id="path460" />
      <path
         d="m 343.63,108.21 c -0.34,0.49 0.08,2.23 -0.24,2.44 a 1.1,1.1 0 0 1 -0.73,0.13"
         style="fill:#ffffff;stroke:#263238;stroke-width:0.5px;stroke-linecap:round;stroke-linejoin:round"
         id="path462" />
      <path
         d="m 344.26,111.79 a 4.43,4.43 0 0 1 -3.15,-0.63"
         style="fill:#ffffff;stroke:#263238;stroke-width:0.5px;stroke-linecap:round;stroke-linejoin:round"
         id="path464" />
      <path
         d="m 349,116.32 a 5.86,5.86 0 0 1 -0.32,0.67 9.45,9.45 0 0 1 -3.54,1.62 h -0.19 l 0.45,-1.27 A 1.25,1.25 0 0 1 344,117 c 2.54,0.17 3.23,-11.25 3.28,-12.11 a 5.47,5.47 0 0 0 -0.67,-0.49 7.84,7.84 0 0 0 -2.34,-1 h -0.17 -0.17 a 7.84,7.84 0 0 0 -2.53,0 8.09,8.09 0 0 0 -0.8,0.19 c -0.28,0.83 -4.07,11.63 -1.64,12.45 a 1.29,1.29 0 0 1 -1.41,-0.28 l -0.07,1.34 h -0.24 a 9.48,9.48 0 0 1 -2.57,-2.71 6.51,6.51 0 0 1 -0.06,-0.88 c 0,-1.43 2.07,-5.35 2.28,-8 a 4.29,4.29 0 0 1 2.43,-3.55 4.82,4.82 0 0 1 5.45,-2.12 h 0.07 a 4.82,4.82 0 0 1 4.22,4.06 4.29,4.29 0 0 1 0.89,4.21 c -0.8,2.47 -0.39,6.89 -0.95,8.21 z"
         style="fill:#263238"
         id="path466" />
      <polygon
         points="288.28,302.88 310.58,191.03 341.53,190.84 340.69,313.33 "
         style="opacity:0.2;fill-opacity:0.7"
         id="polygon468" />
    </g>
    <rect
       x="308.95001"
       y="93.489998"
       width="140.56"
       height="225.31"
       transform="rotate(11.28,379.13609,206.06052)"
       style="fill:none;stroke:#263238;stroke-linecap:round;stroke-linejoin:round"
       id="rect472" />
  </g>
  <g
     id="freepik--screen-2--inject-80"
     transform="translate(-26.12,-59.450138)">
    <rect
       x="153.08"
       y="205.82001"
       width="167.12"
       height="236.24001"
       transform="rotate(-1.93,236.24878,323.47119)"
       style="fill:#ffffff;stroke:#263238;stroke-linecap:round;stroke-linejoin:round"
       id="rect475" />
    <rect
       x="158.62"
       y="236.99001"
       width="155.41"
       height="155.39999"
       transform="rotate(-1.93,236.10694,314.26411)"
       style="fill:#ffffff"
       id="rect477" />
    <g
       clip-path="url(#freepik--clip-path-9--inject-80)"
       id="g481">
      <rect
         x="158.62"
         y="236.99001"
         width="155.41"
         height="155.39999"
         transform="rotate(-1.93,236.10694,314.26411)"
         style="opacity:0.4;fill:#f96900"
         id="rect479" />
    </g>
    <rect
       x="158.62"
       y="236.99001"
       width="155.41"
       height="155.39999"
       transform="rotate(-1.93,236.10694,314.26411)"
       style="fill:none;stroke:#263238;stroke-linecap:round;stroke-linejoin:round"
       id="rect483" />
    <path
       d="m 208,273.37 c 0,0 -12.7,3.65 -6.15,25.77 6.55,22.12 8.86,25.06 8.28,31 -0.58,5.94 5,6.57 5,6.57 a 5.09,5.09 0 0 1 -2.58,-6.15 c 0,0 -0.62,5.76 8.61,5.15 9.23,-0.61 36.46,-21.37 36.46,-21.37 L 220.2,272.72 Z"
       style="fill:#263238"
       id="path485" />
    <path
       d="m 247.15,331.94 c -8.1,9.81 -23.46,10.38 -23.77,10.39 0.09,-0.1 1.73,-1.84 1,-8.93 a 21.63,21.63 0 0 0 -1.83,-6.54 33.87,33.87 0 0 0 -4.57,-7.43 l 0.25,-0.12 24.51,-11.8 c -4.74,9.56 4.41,24.43 4.41,24.43 z"
       style="fill:#ffffff;stroke:#263238;stroke-linecap:round;stroke-linejoin:round"
       id="path487" />
    <path
       d="m 224.38,274.12 c 0,0 -4.71,15.22 5.1,25 9.81,9.78 20.38,6.48 20.38,6.48 0,0 -15,0.93 -20.13,-8.57 -5.13,-9.5 -2.46,-23 -2.46,-23 z"
       style="fill:#263238"
       id="path489" />
    <path
       d="m 232.28,316.56 c 0,0 -3.68,7.65 -9.69,10.3 a 33.87,33.87 0 0 0 -4.57,-7.43 l 0.25,-0.12 z"
       style="fill:#263238"
       id="path491" />
    <path
       d="m 235.77,315.37 c -0.84,3.15 -12.45,9.83 -21.79,9.78 -3,0 -10.46,-15.38 -8.64,-21.24 2.06,-6.62 -1.82,-16.14 -0.31,-22.71 1.47,-6.4 7.22,-13.37 17.7,-16 11.64,-2.93 24.55,2 28.92,11.43 4.11,8.91 1.43,25.77 -6.15,32.69"
       style="fill:#ffffff;stroke:#263238;stroke-linecap:round;stroke-linejoin:round"
       id="path493" />
    <path
       d="m 216.79,288.81 c 0,0 5.87,-3.94 10.81,0.3"
       style="fill:none;stroke:#263238;stroke-linecap:round;stroke-linejoin:round"
       id="path495" />
    <path
       d="m 204.89,288.5 a 6.72,6.72 0 0 1 5.13,2.67"
       style="fill:none;stroke:#263238;stroke-linecap:round;stroke-linejoin:round"
       id="path497" />
    <path
       d="m 225.57,298 c 0,1.16 -0.58,2.11 -1.31,2.12 -0.73,0.01 -1.32,-0.94 -1.33,-2.11 -0.01,-1.17 0.58,-2.11 1.31,-2.12 0.73,-0.01 1.32,0.92 1.33,2.11 z"
       style="fill:#263238"
       id="path499" />
    <path
       d="m 211,297.62 c 0,0 -1.53,-2.11 -3,-0.92"
       style="fill:none;stroke:#263238;stroke-linecap:round;stroke-linejoin:round"
       id="path501" />
    <path
       d="m 211.49,294 c 0,0 1.27,3.54 -0.28,5.9 -1.55,2.36 -4.33,2.74 -3.51,4.74 a 6.65,6.65 0 0 0 2.65,3"
       style="fill:none;stroke:#263238;stroke-linecap:round;stroke-linejoin:round"
       id="path503" />
    <path
       d="m 206.12,278 c 0,0 7.82,-6.85 23,-1.13 2.7,1 -0.15,8.07 4.29,10.93 4.44,2.86 2.73,13.09 2.73,13.09 0,0 2.17,-8.27 6.55,-4.34 4.38,3.93 2.31,13.63 2.31,13.63 0,0 10.86,-8.76 9.72,-27 -1.14,-18.24 -21.31,-21.25 -30.38,-19.61 -12.74,2.28 -18.9,10.49 -18.22,14.43 z"
       style="fill:#263238"
       id="path505" />
    <path
       d="m 239.24,296.8 c 0,0 4.94,-4.13 7.42,-3.18 2.48,0.95 4,5.69 3.3,9.49 -0.7,3.8 -7.45,10.35 -9.51,9 a 2.5,2.5 0 0 1 -1.16,-3.2"
       style="fill:#ffffff;stroke:#263238;stroke-linecap:round;stroke-linejoin:round"
       id="path507" />
    <path
       d="m 209.84,310.3 -1.6,0.43 a 6.13,6.13 0 0 0 4.14,2.31 c 0,0 -2.42,0.8 -1.9,2.06"
       style="fill:none;stroke:#263238;stroke-linecap:round;stroke-linejoin:round"
       id="path509" />
    <path
       d="m 242.61,265.72 c 0,0 1.69,-6 7.37,-5.65 5.68,0.35 6.89,4.83 6.89,4.83 l -1.94,-0.88 a 6.46,6.46 0 0 1 2.37,4.81 c 0.06,3.09 -1,4.31 -1,4.31 l -2.74,-2.69 c 0,0 2.19,4.08 -3.91,3.38 -6.1,-0.7 -7.04,-8.11 -7.04,-8.11 z"
       style="fill:#263238"
       id="path511" />
    <path
       d="m 226,274.5 c 0,0 -0.73,10.27 6.2,23.14 6.93,12.87 18.38,13 22.68,19.73 4.3,6.73 2.63,9.81 2.63,9.81 0,0 13.51,-5.32 14.73,-12.33 1.22,-7.01 -11.15,-16.11 -11.15,-16.11 0,0 13.72,3.65 13.26,12.38 0,0 4.86,-7.39 -5.21,-11.33 -10.07,-3.94 -9.07,-24.25 -20.28,-27.38 C 237.65,269.28 226,274.5 226,274.5 Z"
       style="fill:#263238"
       id="path513" />
    <g
       style="opacity:0.3"
       id="g533">
      <path
         d="M 219.74,272.11 A 15.9,15.9 0 0 1 233.5,264.2"
         style="fill:none;stroke:#ffffff;stroke-linecap:round;stroke-linejoin:round"
         id="path515" />
      <path
         d="m 213.5,272.32 c 0,0 2,-4.17 4.52,-6"
         style="fill:none;stroke:#ffffff;stroke-linecap:round;stroke-linejoin:round"
         id="path517" />
      <path
         d="m 226,274.5 a 30.34,30.34 0 0 0 1.43,19"
         style="fill:none;stroke:#ffffff;stroke-linecap:round;stroke-linejoin:round"
         id="path519" />
      <path
         d="m 229.05,273.39 c 0,0 0.54,24.46 23.83,32.93"
         style="fill:none;stroke:#ffffff;stroke-linecap:round;stroke-linejoin:round"
         id="path521" />
      <path
         d="m 233,270.55 c 0,0 5,15.52 15,21.43 10,5.91 11.77,11.29 11.77,11.29"
         style="fill:none;stroke:#ffffff;stroke-linecap:round;stroke-linejoin:round"
         id="path523" />
      <path
         d="m 244.93,266 c 0,0 2.67,-6.46 9.1,-3.7"
         style="fill:none;stroke:#ffffff;stroke-linecap:round;stroke-linejoin:round"
         id="path525" />
      <path
         d="m 248.58,267.41 c 0,0 4.9,-3.8 7.33,2.37"
         style="fill:none;stroke:#ffffff;stroke-linecap:round;stroke-linejoin:round"
         id="path527" />
      <path
         d="m 239.65,269.58 c 0,0 8,-0.77 12.25,7.63 4.25,8.4 4.78,15.72 10.16,18.7"
         style="fill:none;stroke:#ffffff;stroke-linecap:round;stroke-linejoin:round"
         id="path529" />
      <path
         d="m 205,277.09 c 0,0 -6.71,8.2 -0.93,23.72"
         style="fill:none;stroke:#ffffff;stroke-linecap:round;stroke-linejoin:round"
         id="path531" />
    </g>
    <path
       d="m 238.16,331.5 -3.16,8.5 -12.1,32.8 -7.52,20.38 -39.68,1.34 c -0.31,-1.49 -0.59,-3 -0.84,-4.42 -2.74,-15.86 -1.83,-29.48 8.32,-36.05 l 1.05,-8.05 a 10.08,10.08 0 0 1 3.34,-2 12.3,12.3 0 0 1 6.35,-0.59 15.28,15.28 0 0 1 6.14,2.43 13.83,13.83 0 0 1 3.13,2.85 l -1.41,6.47 0.92,3.41 c 0,0 4.08,-14.95 8.41,-19.32 a 4.46,4.46 0 0 1 0.76,-0.65 28.19,28.19 0 0 1 7.27,-2.83 c 0.82,-0.23 1.68,-0.47 2.54,-0.69 0.86,-0.22 1.85,-0.46 2.78,-0.68 1.13,-0.27 2.26,-0.54 3.36,-0.77 2.81,-0.63 5.41,-1.14 7.3,-1.51 1.89,-0.37 3.04,-0.62 3.04,-0.62 z"
       style="fill:#f96900"
       id="path535" />
    <g
       clip-path="url(#freepik--clip-path-10--inject-80)"
       id="g539">
      <path
         d="m 222.94,372.75 -7.52,20.38 -39.68,1.34 c -0.31,-1.49 -0.59,-3 -0.84,-4.42 3.31,0.76 7.93,1.49 11.75,0.84 6.82,-1.16 12.22,-31.14 12.22,-31.14 l -8.32,0.14 c 0,0 4.61,-2.8 5,-4.85 0.39,-2.05 6.41,-0.84 7.68,-6.41 l -1.41,6.47 0.92,3.41 c 0,0 4.08,-14.95 8.41,-19.32 -0.63,3.7 -1.71,10.58 -1.53,12.59 0,0 10.25,-10.74 15.62,-9.52 2.76,0.63 0.53,15.8 -2.3,30.49 z"
         style="opacity:0.3;fill-opacity:0.7"
         id="path537" />
    </g>
    <path
       d="m 238.16,331.5 -3.16,8.5 -12.1,32.8 -7.52,20.38 -39.68,1.34 c -0.31,-1.49 -0.59,-3 -0.84,-4.42 -2.74,-15.86 -1.83,-29.48 8.32,-36.05 l 1.05,-8.05 a 10.08,10.08 0 0 1 3.34,-2 12.3,12.3 0 0 1 6.35,-0.59 15.28,15.28 0 0 1 6.14,2.43 13.83,13.83 0 0 1 3.13,2.85 l -1.41,6.47 0.92,3.41 c 0,0 4.08,-14.95 8.41,-19.32 a 4.46,4.46 0 0 1 0.76,-0.65 28.19,28.19 0 0 1 7.27,-2.83 c 0.82,-0.23 1.68,-0.47 2.54,-0.69 0.86,-0.22 1.85,-0.46 2.78,-0.68 1.13,-0.27 2.26,-0.54 3.36,-0.77 2.81,-0.63 5.41,-1.14 7.3,-1.51 1.89,-0.37 3.04,-0.62 3.04,-0.62 z"
       style="fill:none;stroke:#263238;stroke-linecap:round;stroke-linejoin:round"
       id="path541" />
    <path
       d="m 200.13,348.83 a 87,87 0 0 1 3,-23.7 c 0.75,-3.27 -2.29,-10.69 -5.41,-11 -3.12,-0.31 -10,-2.76 -11.12,-2.38 -1.12,0.38 0.28,2.8 0.28,2.8 0,0 -8.49,-1 -13.42,-0.49 -2.32,0.25 -2.34,2 -2.34,2 0,0 -2.45,0.29 -3,1.62 -0.43,1 2.87,1.54 2.87,1.54 -1.67,1.88 2.65,2.61 2.65,2.61 -0.64,2.86 5.69,2.72 11.43,7 a 31.64,31.64 0 0 0 6.6,3.47 l -4.42,15.22 a 11.38,11.38 0 0 0 6.49,3 9.13,9.13 0 0 0 6.39,-1.69 z"
       style="fill:#ffffff;stroke:#263238;stroke-linecap:round;stroke-linejoin:round"
       id="path543" />
    <path
       d="m 186.89,314.53 c 2,2.48 4.65,0.93 5.85,2 1.2,1.07 1.61,5.08 3.14,5.86"
       style="fill:none;stroke:#263238;stroke-linecap:round;stroke-linejoin:round"
       id="path545" />
    <path
       d="m 171.13,316.05 c 2.36,-0.41 8.06,0.17 12,0.55"
       style="fill:none;stroke:#263238;stroke-linecap:round;stroke-linejoin:round"
       id="path547" />
    <path
       d="m 171,319.21 c 2.17,-1 9.26,-0.41 11.63,0.46"
       style="fill:none;stroke:#263238;stroke-linecap:round;stroke-linejoin:round"
       id="path549" />
    <path
       d="m 173.62,321.82 a 5.23,5.23 0 0 1 3.18,-0.6 55.34,55.34 0 0 1 6.79,2.17"
       style="fill:none;stroke:#263238;stroke-linecap:round;stroke-linejoin:round"
       id="path551" />
    <path
       d="m 191.65,332.29 a 8.92,8.92 0 0 0 5.56,0.14 c 2.53,-1 3.41,-4.08 3.41,-4.08"
       style="fill:none;stroke:#263238;stroke-linecap:round;stroke-linejoin:round"
       id="path553" />
    <path
       d="m 201.75,325.62 a 4.36,4.36 0 0 0 1.39,-3"
       style="fill:none;stroke:#263238;stroke-linecap:round;stroke-linejoin:round"
       id="path555" />
    <path
       d="m 312.8,276.77 1.06,31.76 a 2.38,2.38 0 0 1 -0.13,0.29 c -4,8.37 -19.05,26.47 -27,35.74 v 0 c -1.91,2.24 -3.41,3.95 -4.24,4.9 -4.29,4.88 -8,11.84 -6.67,20.32 0.86,5.44 -1,15.14 -2.4,21.39 l -70.71,2.38 a 30.51,30.51 0 0 1 -1.6,-5 17.82,17.82 0 0 1 -0.36,-2.9 c -0.64,-12.92 10,-32.71 10,-32.71 l 6.67,-8.12 a 35.05,35.05 0 0 1 5.35,-4.9 l -0.88,-4.33 -0.13,-0.59 -0.16,-0.82 a 26.07,26.07 0 0 0 2.81,-1.27 c 7.82,-4.06 14.43,-11.87 17.31,-15.59 l 0.44,-0.57 2.51,1 c 0,0 2.5,-4.11 3.79,-5 l 0.67,-0.44 a 32.16,32.16 0 0 1 4.57,-2.53 v 0 a 35.26,35.26 0 0 1 3.54,-1.37 c 3,-1 5,-1.44 6.66,-3.91 a 0.1,0.1 0 0 1 0,-0.05 v 0 c 0.52,-0.77 1,-1.49 1.43,-2.17 0.43,-0.68 0.67,-1.06 1,-1.55 0.42,-0.68 0.8,-1.3 1.13,-1.89 0.61,-1.06 1.1,-2 1.47,-2.78 0,0 0,0 0,0 A 39.35,39.35 0 0 1 270,285.53 c 2,-7.57 4.55,-14.91 14.91,-13.37 0,0 3.28,-9.67 12.75,-8.36 h 0.09 c 4.95,0.73 11.09,6.43 15.05,12.97 z"
       style="fill:#f96900"
       id="path557" />
    <g
       clip-path="url(#freepik--clip-path-11--inject-80)"
       id="g561">
      <path
         d="m 313.35,293.25 0.51,15.28 a 2.38,2.38 0 0 1 -0.13,0.29 c -4,8.37 -19.05,26.47 -27,35.74 v 0 c -1.91,2.24 -3.41,3.95 -4.24,4.9 -4.29,4.88 -8,11.84 -6.67,20.32 0.86,5.44 -1,15.14 -2.4,21.39 l -70.71,2.38 a 30.51,30.51 0 0 1 -1.6,-5 17.82,17.82 0 0 1 -0.36,-2.9 l 0.2,-0.08 c 4.11,2.27 14.64,-7.35 18,-7.09 3.36,0.26 10.34,3 16.62,2.88 6.28,-0.12 15.55,-12.93 18.48,-13.08 2.93,-0.15 10.64,6.63 10.64,6.63 0,0 -5.88,-7 -7.92,-15.29 -2,-8.09 3.3,-0.45 3.52,-0.14 -0.19,-0.48 -5.39,-13.38 -6.26,-18.21 -0.87,-4.83 3.49,-14.11 3.49,-14.11 0,0 4.9,16.34 8.88,18.89 3.98,2.55 -0.1,-8.71 0.87,-12.76 0.97,-4.05 8.75,-0.79 12.92,-2.42 4.17,-1.63 -4.81,-1.49 -7.1,-7.72 -2.29,-6.23 3.86,0.53 9.47,2.42 5.61,1.89 25.79,-9.51 26.65,-14.27 0.86,-4.76 -4.41,-7.17 -4.41,-7.17 0,0 -11.73,3.42 -17.32,-5.87 -5.59,-9.29 3.08,2.09 13.11,1.75 3.49,-0.1 9.41,-4.01 12.76,-6.76 z"
         style="opacity:0.3;fill-opacity:0.7"
         id="path559" />
    </g>
    <path
       d="m 312.8,276.77 1.06,31.76 a 2.38,2.38 0 0 1 -0.13,0.29 c -4,8.37 -19.05,26.47 -27,35.74 v 0 c -1.91,2.24 -3.41,3.95 -4.24,4.9 -4.29,4.88 -8,11.84 -6.67,20.32 0.86,5.44 -1,15.14 -2.4,21.39 l -70.71,2.38 a 30.51,30.51 0 0 1 -1.6,-5 17.82,17.82 0 0 1 -0.36,-2.9 c -0.64,-12.92 10,-32.71 10,-32.71 l 6.67,-8.12 a 35.05,35.05 0 0 1 5.35,-4.9 l -0.88,-4.33 -0.13,-0.59 -0.16,-0.82 a 26.07,26.07 0 0 0 2.81,-1.27 c 7.82,-4.06 14.43,-11.87 17.31,-15.59 l 0.44,-0.57 2.51,1 c 0,0 2.5,-4.11 3.79,-5 l 0.67,-0.44 a 32.16,32.16 0 0 1 4.57,-2.53 v 0 a 35.26,35.26 0 0 1 3.54,-1.37 c 3,-1 5,-1.44 6.66,-3.91 a 0.1,0.1 0 0 1 0,-0.05 v 0 c 0.52,-0.77 1,-1.49 1.43,-2.17 0.43,-0.68 0.67,-1.06 1,-1.55 0.42,-0.68 0.8,-1.3 1.13,-1.89 0.61,-1.06 1.1,-2 1.47,-2.78 0,0 0,0 0,0 A 39.35,39.35 0 0 1 270,285.53 c 2,-7.57 4.55,-14.91 14.91,-13.37 0,0 3.28,-9.67 12.75,-8.36 h 0.09 c 4.95,0.73 11.09,6.43 15.05,12.97 z"
       style="fill:none;stroke:#263238;stroke-linecap:round;stroke-linejoin:round"
       id="path563" />
    <path
       d="m 211.91,338.54 a 59.05,59.05 0 0 0 -4.33,15.26"
       style="fill:none;stroke:#263238;stroke-linecap:round;stroke-linejoin:round"
       id="path565" />
    <path
       d="m 196.85,393.76 a 31.3,31.3 0 0 0 1.58,-4.47"
       style="fill:none;stroke:#263238;stroke-linecap:round;stroke-linejoin:round"
       id="path567" />
    <path
       d="m 202.73,358.51 c 1.78,2.64 -4,27.38 -7.25,31.57 a 12.86,12.86 0 0 0 -2.14,3.8"
       style="fill:none;stroke:#263238;stroke-linecap:round;stroke-linejoin:round"
       id="path569" />
    <path
       d="m 183.22,354 c 0,0 3.51,5.35 7.33,5.9 a 12.86,12.86 0 0 0 7.42,-1.6"
       style="fill:none;stroke:#263238;stroke-linecap:round;stroke-linejoin:round"
       id="path571" />
    <path
       d="m 244.64,317.81 c 0,0 -6.83,8.19 -10.64,16.62"
       style="fill:none;stroke:#263238;stroke-linecap:round;stroke-linejoin:round"
       id="path573" />
    <path
       d="m 224.47,339.94 a 11,11 0 0 0 5.27,-2.81"
       style="fill:none;stroke:#263238;stroke-linecap:round;stroke-linejoin:round"
       id="path575" />
    <path
       d="m 268.44,367 c 0.53,0.54 1.07,1.08 1.62,1.6"
       style="fill:none;stroke:#263238;stroke-linecap:round;stroke-linejoin:round"
       id="path577" />
    <path
       d="m 253.23,324.86 a 49.53,49.53 0 0 0 13.86,40.7"
       style="fill:none;stroke:#263238;stroke-linecap:round;stroke-linejoin:round"
       id="path579" />
    <path
       d="m 257.21,308.47 a 51.45,51.45 0 0 0 -3.77,14.63"
       style="fill:none;stroke:#263238;stroke-linecap:round;stroke-linejoin:round"
       id="path581" />
    <path
       d="m 263.91,304.49 c 0,0 -9.53,16.52 -4.54,32.29"
       style="fill:none;stroke:#263238;stroke-linecap:round;stroke-linejoin:round"
       id="path583" />
    <path
       d="m 269.29,338.35 c 0,0 4.76,12.59 21.27,1.72"
       style="fill:none;stroke:#263238;stroke-linecap:round;stroke-linejoin:round"
       id="path585" />
    <path
       d="m 268.91,296.09 c 0,0 -0.13,14.53 4,20.54"
       style="fill:none;stroke:#263238;stroke-linecap:round;stroke-linejoin:round"
       id="path587" />
    <path
       d="m 313,283.69 0.2,6 a 14.08,14.08 0 0 1 -6.7,5.93 12.87,12.87 0 0 1 -3.19,0.93 11.24,11.24 0 0 1 -9.64,-3.31 12.27,12.27 0 0 1 -2,-2.39 c -3.23,-5.09 -2.25,-11.79 -0.8,-16.66 a 38.66,38.66 0 0 1 2.49,-6.34 c 0,0 0,0 0,0 0,0 0,0 0,0 l 14.08,6.44 a 53.93,53.93 0 0 1 4.6,7.42 c 0.41,0.61 0.72,1.29 0.96,1.98 z"
       style="fill:#263238;stroke:#263238;stroke-miterlimit:10"
       id="path589" />
    <path
       d="m 313.15,287.45 a 88.54,88.54 0 0 1 -6.62,8.14 12.87,12.87 0 0 1 -3.19,0.93 11.24,11.24 0 0 1 -9.64,-3.31 12.27,12.27 0 0 1 -2,-2.39 c -3.23,-5.09 -2.25,-11.79 -0.8,-16.66 a 38.66,38.66 0 0 1 2.49,-6.34 c 0,0 0,0 0,0 0,0 0,0 0,0 l 18.05,-30.13 z"
       style="fill:#ffffff;stroke:#263238;stroke-linecap:round;stroke-linejoin:round"
       id="path591" />
    <path
       d="m 285,272.17 a 30.33,30.33 0 0 0 0.77,22.94 c 5.47,12.22 18.62,10.85 23.19,6.51"
       style="fill:none;stroke:#263238;stroke-linecap:round;stroke-linejoin:round"
       id="path593" />
    <path
       d="m 175.75,282.13 a 4.16,4.16 0 0 0 -3.85,3.47 4.18,4.18 0 0 0 -5.19,0.09 c -2.29,1.83 -1.89,5.51 1.5,7.68 a 17,17 0 0 0 7.13,2.2 h 0.5 c 0.09,-0.1 0.21,-0.22 0.33,-0.37 a 16.9,16.9 0 0 0 3.72,-6.47 c 1,-3.85 -1.21,-6.82 -4.14,-6.6 z"
       style="fill:#f96900;stroke:#263238;stroke-linecap:round;stroke-linejoin:round"
       id="path595" />
    <path
       d="m 177.39,297.87 0.22,0.44"
       style="fill:none;stroke:#263238;stroke-linecap:round;stroke-linejoin:round"
       id="path597" />
    <path
       d="m 178.64,300 c 1.6,2.34 4.63,5.65 8.64,4.77 6.07,-1.33 4.57,-7.91 1.4,-5.6 -3.17,2.31 0.75,11.76 11.23,12.05"
       style="fill:none;stroke:#263238;stroke-linecap:round;stroke-linejoin:round;stroke-dasharray:0.992568, 1.98514"
       id="path599" />
    <path
       d="m 200.91,311.22 h 0.5"
       style="fill:none;stroke:#263238;stroke-linecap:round;stroke-linejoin:round"
       id="path601" />
    <path
       d="m 217.54,216.36 -34.34,1.16 a 1.89,1.89 0 1 0 0.13,3.77 l 34.33,-1.16 a 1.89,1.89 0 0 0 -0.12,-3.77 z"
       style="fill:#263238"
       id="path603" />
    <path
       d="m 228.25,223.16 -45.84,1.54 a 0.85,0.85 0 0 0 -0.82,0.89 0.84,0.84 0 0 0 0.88,0.82 l 45.84,-1.54 a 0.86,0.86 0 1 0 -0.06,-1.71 z"
       style="fill:#263238"
       id="path605" />
    <path
       d="m 170.84,401.14 c -1.19,-1.86 -3.39,-1.09 -4.5,0.39 -1.17,-1.44 -3.39,-2.12 -4.52,-0.22 -1.88,3.21 2.19,6.07 4.12,7.18 l 0.54,0.31 c 0.15,-0.08 0.33,-0.2 0.54,-0.33 1.87,-1.19 5.84,-4.2 3.82,-7.33 z"
       style="fill:#f96900;stroke:#263238;stroke-linecap:round;stroke-linejoin:round"
       id="path607" />
    <polygon
       points="308.9,403.72 308.63,395.56 316.78,395.29 317.06,403.44 312.91,401.58 "
       style="fill:#f96900;stroke:#263238;stroke-linecap:round;stroke-linejoin:round"
       id="polygon609" />
    <path
       d="m 180,399.5 6.22,-0.21 a 1.13,1.13 0 0 1 1.16,1.09 l 0.18,5.15 a 1.13,1.13 0 0 1 -1.09,1.16 l -2.39,0.08 -0.67,1.56 -0.77,-1.51 -2.39,0.08 a 1.12,1.12 0 0 1 -1.16,-1.08 l -0.18,-5.16 A 1.13,1.13 0 0 1 180,399.5 Z"
       style="fill:#f96900;stroke:#263238;stroke-linecap:round;stroke-linejoin:round"
       id="path611" />
    <path
       d="m 232.55,414.26 -68.8,2.31 a 1.89,1.89 0 0 0 0.12,3.77 l 68.8,-2.31 a 1.89,1.89 0 0 0 -0.12,-3.77 z"
       style="fill:#263238"
       id="path613" />
    <path
       d="M 316.5,418.59 163,423.76 a 0.86,0.86 0 1 0 0.06,1.71 L 316.6,420.3 a 0.86,0.86 0 1 0 -0.06,-1.71 z"
       style="fill:#263238"
       id="path615" />
    <path
       d="m 316.65,422.9 -153.55,5.16 a 0.8605231,0.8605231 0 0 0 0.06,1.72 l 153.55,-5.17 a 0.85,0.85 0 0 0 0.82,-0.89 0.84,0.84 0 0 0 -0.88,-0.82 z"
       style="fill:#263238"
       id="path617" />
    <path
       d="m 303.87,427.64 -140.62,4.73 a 0.8605231,0.8605231 0 0 0 0.06,1.72 l 140.62,-4.74 a 0.86,0.86 0 0 0 -0.06,-1.71 z"
       style="fill:#263238"
       id="path619" />
    <path
       d="m 175.69,223.72 a 10,10 0 0 1 -2.43,6.91 9.88,9.88 0 0 1 -3.18,2.47 c -0.24,0.12 -0.48,0.22 -0.72,0.32 a 9.88,9.88 0 0 1 -3.4,0.72 10,10 0 0 1 -3.81,-0.62 3,3 0 0 1 -0.36,-0.14 9.8,9.8 0 0 1 -3.22,-2.12 10.08,10.08 0 1 1 17.12,-7.54 z"
       style="fill:#f96900;stroke:#263238;stroke-linecap:round;stroke-linejoin:round"
       id="path621" />
    <path
       d="m 160.27,227.16 c 0,0 0.06,-3.08 5.57,-3.11 5.51,-0.03 10.78,9.09 0.94,9.75 -9.84,0.66 -6.51,-6.64 -6.51,-6.64 z"
       style="fill:#263238"
       id="path623" />
    <path
       d="m 169.55,233.12 -0.19,0.3 a 9.88,9.88 0 0 1 -3.4,0.72 10,10 0 0 1 -3.81,-0.62 l -0.12,-0.15 a 2.49,2.49 0 0 0 1.17,-1 10,10 0 0 0 -0.2,-3.27 c -0.2,-1.21 -0.43,-2.27 -0.43,-2.27 l 6.27,0.64 a 23.58,23.58 0 0 0 -0.27,2.9 8.53,8.53 0 0 0 0.13,1.76 1.71,1.71 0 0 0 0.85,0.99 z"
       style="fill:#ffffff;stroke:#263238;stroke-linecap:round;stroke-linejoin:round"
       id="path625" />
    <path
       d="m 168.84,227.42 a 25.32,25.32 0 0 0 -0.26,2.91 3.14,3.14 0 0 1 -1.9,0.5 4.17,4.17 0 0 1 -3.31,-2.05 l -0.38,0.28 c -0.2,-1.21 -0.42,-2.28 -0.42,-2.28 z"
       style="fill:#263238"
       id="path627" />
    <path
       d="m 160.58,223.17 c 0,0 -0.58,-0.56 -0.85,-0.36 a 1.19,1.19 0 0 0 -0.42,1.24 c 0.17,0.48 0.86,1.32 0.92,1.82 0.06,0.5 0.43,1 0.79,0.7 0.36,-0.3 -0.44,-3.4 -0.44,-3.4 z"
       style="fill:#ffffff;stroke:#263238;stroke-linecap:round;stroke-linejoin:round"
       id="path629" />
    <path
       d="m 170.69,222.83 c 0,0 0.55,-0.6 0.84,-0.42 a 1.2,1.2 0 0 1 0.49,1.21 16.06,16.06 0 0 0 -0.8,1.88 c 0,0.5 -0.35,1.07 -0.74,0.76 -0.39,-0.31 0.21,-3.43 0.21,-3.43 z"
       style="fill:#ffffff;stroke:#263238;stroke-linecap:round;stroke-linejoin:round"
       id="path631" />
    <path
       d="m 165.52,215.9 c -7.13,0.24 -4.91,8.8 -3.5,11.8 a 5.92,5.92 0 0 0 4,2.45 5.67,5.67 0 0 0 3.58,-2.55 c 1.2,-3.11 2.72,-11.93 -4.08,-11.7 z"
       style="fill:#ffffff;stroke:#263238;stroke-linecap:round;stroke-linejoin:round"
       id="path633" />
    <path
       d="m 164.51,221.81 c 0,0 -1.88,-0.52 -2.41,0.65"
       style="fill:#ffffff;stroke:#263238;stroke-width:0.5px;stroke-linecap:round;stroke-linejoin:round"
       id="path635" />
    <path
       d="m 163.19,223.41 c 0,0.22 0.12,0.4 0.26,0.39 0.14,-0.01 0.24,-0.18 0.23,-0.4 -0.01,-0.22 -0.12,-0.4 -0.26,-0.39 -0.14,0.01 -0.24,0.18 -0.23,0.4 z"
       style="fill:#263238"
       id="path637" />
    <path
       d="m 166.69,221.73 c 0,0 1.83,-0.63 2.45,0.49"
       style="fill:#ffffff;stroke:#263238;stroke-width:0.5px;stroke-linecap:round;stroke-linejoin:round"
       id="path639" />
    <path
       d="m 168.11,223.25 c 0,0.22 -0.09,0.4 -0.23,0.4 -0.14,0 -0.26,-0.17 -0.26,-0.39 0,-0.22 0.09,-0.4 0.23,-0.4 0.14,0 0.26,0.14 0.26,0.39 z"
       style="fill:#263238"
       id="path641" />
    <path
       d="m 166.11,223 c -0.23,0.57 0.59,2.22 0.33,2.5 a 1.15,1.15 0 0 1 -0.71,0.31"
       style="fill:#ffffff;stroke:#263238;stroke-width:0.5px;stroke-linecap:round;stroke-linejoin:round"
       id="path643" />
    <path
       d="m 167.58,226.45 a 4.54,4.54 0 0 1 -3.31,0.11"
       style="fill:#ffffff;stroke:#263238;stroke-width:0.5px;stroke-linecap:round;stroke-linejoin:round"
       id="path645" />
    <path
       d="m 173.42,229.88 a 6.24,6.24 0 0 1 -0.16,0.75 9.88,9.88 0 0 1 -3.18,2.47 h -0.19 l 0.15,-1.37 a 1.31,1.31 0 0 1 -1.47,0.05 c 2.6,-0.43 0.6,-12.06 0.45,-12.94 a 8.56,8.56 0 0 0 -0.8,-0.34 8,8 0 0 0 -2.57,-0.39 h -0.18 -0.17 a 8.22,8.22 0 0 0 -2.55,0.57 6.85,6.85 0 0 0 -0.76,0.38 c -0.09,0.9 -1.35,12.63 1.28,12.89 a 1.32,1.32 0 0 1 -1.47,0 l 0.24,1.36 h -0.25 a 9.8,9.8 0 0 1 -3.22,-2.12 6.73,6.73 0 0 1 -0.27,-0.87 c -0.34,-1.44 0.82,-5.86 0.41,-8.54 a 4.42,4.42 0 0 1 1.6,-4.13 5,5 0 0 1 5,-3.42 h 0.07 a 5,5 0 0 1 5.2,3.07 4.45,4.45 0 0 1 1.88,4 c -0.26,2.79 1.2,7.12 0.96,8.58 z"
       style="fill:#263238"
       id="path647" />
  </g>
</svg>
