<?xml version="1.0" encoding="UTF-8" standalone="no"?>
<svg
   xmlns:dc="http://purl.org/dc/elements/1.1/"
   xmlns:cc="http://creativecommons.org/ns#"
   xmlns:rdf="http://www.w3.org/1999/02/22-rdf-syntax-ns#"
   xmlns:svg="http://www.w3.org/2000/svg"
   xmlns="http://www.w3.org/2000/svg"
   xmlns:sodipodi="http://sodipodi.sourceforge.net/DTD/sodipodi-0.dtd"
   xmlns:inkscape="http://www.inkscape.org/namespaces/inkscape"
   viewBox="0 0 500 363.19501"
   version="1.1"
   id="svg458"
   sodipodi:docname="kpl-contact-lancement-illu.svg"
   width="500"
   height="363.19501"
   inkscape:version="1.0.2 (e86c870879, 2021-01-15, custom)">
  <metadata
     id="metadata464">
    <rdf:RDF>
      <cc:Work
         rdf:about="">
        <dc:format>image/svg+xml</dc:format>
        <dc:type
           rdf:resource="http://purl.org/dc/dcmitype/StillImage" />
        <dc:title></dc:title>
      </cc:Work>
    </rdf:RDF>
  </metadata>
  <defs
     id="defs462" />
  <sodipodi:namedview
     pagecolor="#ffffff"
     bordercolor="#666666"
     borderopacity="1"
     objecttolerance="10"
     gridtolerance="10"
     guidetolerance="10"
     inkscape:pageopacity="0"
     inkscape:pageshadow="2"
     inkscape:window-width="1368"
     inkscape:window-height="850"
     id="namedview460"
     showgrid="false"
     inkscape:zoom="1.28"
     inkscape:cx="250"
     inkscape:cy="78.333333"
     inkscape:window-x="-6"
     inkscape:window-y="-6"
     inkscape:window-maximized="1"
     inkscape:current-layer="svg458" />
  <g
     id="freepik--background-complete--inject-7"
     transform="translate(0,-55)">
    <rect
       x="416.78"
       y="398.48999"
       width="33.119999"
       height="0.25"
       style="fill:#ebebeb"
       id="rect2" />
    <rect
       x="322.53"
       y="401.20999"
       width="8.6899996"
       height="0.25"
       style="fill:#ebebeb"
       id="rect4" />
    <rect
       x="396.59"
       y="389.20999"
       width="19.190001"
       height="0.25"
       style="fill:#ebebeb"
       id="rect6" />
    <rect
       x="52.459999"
       y="390.89001"
       width="43.189999"
       height="0.25"
       style="fill:#ebebeb"
       id="rect8" />
    <rect
       x="104.56"
       y="390.89001"
       width="6.3299999"
       height="0.25"
       style="fill:#ebebeb"
       id="rect10" />
    <rect
       x="131.47"
       y="395.10999"
       width="93.68"
       height="0.25"
       style="fill:#ebebeb"
       id="rect12" />
    <path
       d="M 237,337.8 H 43.92 a 5.71,5.71 0 0 1 -5.71,-5.71 V 60.66 A 5.71,5.71 0 0 1 43.92,55 H 237 a 5.71,5.71 0 0 1 5.71,5.71 V 332.09 A 5.71,5.71 0 0 1 237,337.8 Z M 43.92,55.2 a 5.47,5.47 0 0 0 -5.46,5.46 v 271.43 a 5.47,5.47 0 0 0 5.46,5.46 H 237 a 5.47,5.47 0 0 0 5.46,-5.46 V 60.66 A 5.47,5.47 0 0 0 237,55.2 Z"
       style="fill:#ebebeb"
       id="path14" />
    <path
       d="m 453.31,337.8 h -193.1 a 5.72,5.72 0 0 1 -5.71,-5.71 V 60.66 A 5.72,5.72 0 0 1 260.21,55 h 193.1 a 5.71,5.71 0 0 1 5.69,5.66 v 271.43 a 5.71,5.71 0 0 1 -5.69,5.71 z M 260.21,55.2 a 5.47,5.47 0 0 0 -5.46,5.46 v 271.43 a 5.47,5.47 0 0 0 5.46,5.46 h 193.1 a 5.47,5.47 0 0 0 5.46,-5.46 V 60.66 a 5.47,5.47 0 0 0 -5.46,-5.46 z"
       style="fill:#ebebeb"
       id="path16" />
    <rect
       y="382.39999"
       width="500"
       height="0.25"
       style="fill:#ebebeb"
       id="rect18"
       x="0" />
    <polygon
       points="177.71,72.6 323.41,72.6 314.72,171.9 169.02,171.9 "
       style="fill:#f5f5f5"
       id="polygon20" />
    <rect
       x="185.97"
       y="154.22"
       width="79.089996"
       height="0.77999997"
       style="fill:#e0e0e0"
       id="rect22" />
    <path
       d="M 266.76,139.82 H 187 v -0.43 l 4.81,-54.92 H 271.6 V 84.9 Z M 187.83,139 H 266 l 4.7,-53.78 h -78.17 z"
       style="fill:#e0e0e0"
       id="path24" />
    <path
       d="m 190.23,166 h -2.15 a 3.06,3.06 0 0 1 -3.1,-3.39 l 0.19,-2.15 a 3.7,3.7 0 0 1 3.62,-3.33 h 2.15 a 3.06,3.06 0 0 1 3.1,3.39 l -0.19,2.15 a 3.7,3.7 0 0 1 -3.62,3.33 z m -1.44,-8.09 a 2.9,2.9 0 0 0 -2.84,2.61 l -0.19,2.15 a 2.34,2.34 0 0 0 0.59,1.81 2.3,2.3 0 0 0 1.73,0.74 h 2.15 a 2.91,2.91 0 0 0 2.85,-2.61 l 0.18,-2.15 a 2.34,2.34 0 0 0 -0.59,-1.81 2.29,2.29 0 0 0 -1.73,-0.74 z"
       style="fill:#e0e0e0"
       id="path26" />
    <path
       d="m 226.4,149.65 h -40.28 l 0.37,-4.27 h 40.28 z M 187,148.87 h 38.71 l 0.24,-2.71 h -38.74 z"
       style="fill:#e0e0e0"
       id="path28" />
    <path
       d="m 264.61,163.71 h -16 l 0.37,-4.27 H 265 Z m -15.19,-0.78 h 14.48 l 0.24,-2.71 h -14.48 z"
       style="fill:#e0e0e0"
       id="path30" />
    <path
       d="m 265.9,149.65 h -4.28 l 0.37,-4.27 h 4.28 z m -3.43,-0.78 h 2.71 l 0.24,-2.71 h -2.71 z"
       style="fill:#e0e0e0"
       id="path32" />
    <path
       d="m 260,149.65 h -4.27 l 0.37,-4.27 h 4.28 z m -3.42,-0.78 h 2.71 l 0.23,-2.71 h -2.7 z"
       style="fill:#e0e0e0"
       id="path34" />
    <path
       d="m 254.07,149.65 h -4.27 l 0.37,-4.27 h 4.27 z m -3.42,-0.78 h 2.7 l 0.24,-2.71 h -2.7 z"
       style="fill:#e0e0e0"
       id="path36" />
    <path
       d="m 272,80.33 h -60 l 0.33,-3.78 h 60 z m -59.18,-0.78 h 58.46 l 0.2,-2.22 H 213 Z"
       style="fill:#e0e0e0"
       id="path38" />
    <path
       d="m 208,80.58 h -16 l 0.37,-4.27 h 16 z m -15.19,-0.79 h 14.48 l 0.24,-2.7 h -14.45 z"
       style="fill:#e0e0e0"
       id="path40" />
    <path
       d="m 309.65,102.43 h -28.19 l 1.42,-16.19 h 28.19 z m -27.34,-0.78 h 26.62 L 310.22,87 h -26.63 z"
       style="fill:#e0e0e0"
       id="path42" />
    <path
       d="m 307,132.84 h -28.2 l 1.42,-16.2 h 28.19 z m -27.34,-0.78 h 26.62 l 1.28,-14.64 h -26.63 z"
       style="fill:#e0e0e0"
       id="path44" />
    <path
       d="m 304.33,163.25 h -28.19 l 1.42,-16.2 h 28.19 z M 277,162.47 h 26.62 l 1.29,-14.64 h -26.64 z"
       style="fill:#e0e0e0"
       id="path46" />
    <rect
       x="279.95001"
       y="93.940002"
       width="32.630001"
       height="0.77999997"
       transform="rotate(-28.23,296.25133,94.326005)"
       style="fill:#e0e0e0"
       id="rect48" />
    <polygon
       points="283.43,86.29 309.49,101.7 309.09,102.38 283.04,86.96 "
       style="fill:#e0e0e0"
       id="polygon50" />
    <rect
       x="277.29001"
       y="124.35"
       width="32.630001"
       height="0.77999997"
       transform="rotate(-28.15,293.64101,124.74669)"
       style="fill:#e0e0e0"
       id="rect52" />
    <rect
       x="293.20999"
       y="109.6"
       width="0.77999997"
       height="30.280001"
       transform="rotate(-59.39,293.61098,124.73866)"
       style="fill:#e0e0e0"
       id="rect54" />
    <path
       d="m 276.11,163.54 1.47,-16.75 13.42,7.91 14.19,-7.6 0.37,0.69 -13.77,7.37 12.43,7.36 -0.4,0.67 -12.84,-7.59 z m 2.14,-15.45 -1.25,14.08 13.13,-7 z"
       style="fill:#e0e0e0"
       id="path56" />
    <rect
       x="179.3"
       y="111.75"
       width="99.970001"
       height="0.77999997"
       transform="rotate(-33.07,229.28618,112.14484)"
       style="fill:#e0e0e0"
       id="rect58" />
    <rect
       x="228.89999"
       y="66.080002"
       width="0.77999997"
       height="92.120003"
       transform="rotate(-53.68,229.28146,112.14707)"
       style="fill:#e0e0e0"
       id="rect60" />
    <polygon
       points="303.61,253.73 383.78,253.73 372.48,382.95 292.31,382.95 "
       style="fill:#f5f5f5"
       id="polygon62" />
    <path
       d="M 318.52,377.18 H 299 l 1.2,-13.73 h 19.53 z m -18.66,-0.79 h 17.93 l 1.07,-12.15 h -17.94 z"
       style="fill:#e0e0e0"
       id="path64" />
    <path
       d="m 342.29,377.18 h -19.53 l 1.2,-13.73 h 19.53 z m -18.67,-0.79 h 17.94 l 1.06,-12.15 h -17.93 z"
       style="fill:#e0e0e0"
       id="path66" />
    <path
       d="m 366.05,377.18 h -19.52 l 1.19,-13.73 h 19.54 z m -18.66,-0.79 h 17.94 l 1.06,-12.15 h -17.94 z"
       style="fill:#e0e0e0"
       id="path68" />
    <rect
       x="302.26001"
       y="343.94"
       width="66.269997"
       height="0.79000002"
       style="fill:#e0e0e0"
       id="rect70" />
    <path
       d="M 347.44,325.43 H 303.6 l 0.44,-5.06 h 43.84 z m -43,-0.79 h 42.25 l 0.3,-3.47 h -42.22 z"
       style="fill:#e0e0e0"
       id="path72" />
    <path
       d="m 367.76,357.72 h -18.18 l 0.43,-5 h 18.18 z m -17.32,-0.8 H 367 l 0.3,-3.4 h -16.56 z"
       style="fill:#e0e0e0"
       id="path74" />
    <path
       d="m 369.47,338.19 h -6.91 l 0.6,-6.91 h 6.91 z m -6.05,-0.79 h 5.32 l 0.46,-5.32 h -5.31 z"
       style="fill:#e0e0e0"
       id="path76" />
    <path
       d="m 339.42,338.19 h -6.91 l 0.6,-6.91 H 340 Z m -6.05,-0.79 h 5.32 l 0.46,-5.32 h -5.31 z"
       style="fill:#e0e0e0"
       id="path78" />
    <path
       d="m 309.37,338.19 h -6.91 l 0.6,-6.91 H 310 Z m -6.05,-0.79 h 5.32 l 0.46,-5.32 h -5.31 z"
       style="fill:#e0e0e0"
       id="path80" />
    <path
       d="m 329.47,265.75 h -20.65 l 0.47,-5.33 h 20.64 z M 309.69,265 h 19.05 l 0.33,-3.75 H 310 Z"
       style="fill:#e0e0e0"
       id="path82" />
    <path
       d="m 307.22,359.1 h -1.74 a 4.35,4.35 0 0 1 -4.4,-4.83 l 0.15,-1.73 a 5.3,5.3 0 0 1 5.18,-4.76 h 1.73 a 4.4,4.4 0 0 1 3.29,1.41 4.47,4.47 0 0 1 1.12,3.42 l -0.15,1.73 a 5.31,5.31 0 0 1 -5.18,4.76 z m -0.81,-10.53 a 4.5,4.5 0 0 0 -4.39,4 l -0.15,1.73 a 3.58,3.58 0 0 0 3.61,4 h 1.74 a 4.51,4.51 0 0 0 4.39,-4 l 0.15,-1.73 a 3.58,3.58 0 0 0 -3.62,-4 z"
       style="fill:#e0e0e0"
       id="path84" />
    <path
       d="m 371.3,316.15 h -66.92 v -0.43 l 4,-46 h 66.93 v 0.43 z m -66.06,-0.8 h 65.33 l 3.93,-44.88 h -65.33 z"
       style="fill:#e0e0e0"
       id="path86" />
    <rect
       x="339.48001"
       y="254.35001"
       width="0.79000002"
       height="77.120003"
       transform="rotate(-53.68,339.86691,292.91213)"
       style="fill:#e0e0e0"
       id="rect88" />
    <polygon
       points="374.29,270.14 374.72,270.8 305.03,316.08 304.59,315.42 "
       style="fill:#e0e0e0"
       id="polygon90" />
    <polygon
       points="300.79,363.53 318.39,376.46 317.92,377.1 300.32,364.17 "
       style="fill:#e0e0e0"
       id="polygon92" />
    <rect
       x="297.5"
       y="369.92001"
       width="23.709999"
       height="0.80000001"
       transform="rotate(-33.07,309.31785,370.29814)"
       style="fill:#e0e0e0"
       id="rect94" />
    <polygon
       points="324.56,363.53 342.16,376.46 341.69,377.1 324.09,364.17 "
       style="fill:#e0e0e0"
       id="polygon96" />
    <rect
       x="321.26999"
       y="369.92001"
       width="23.709999"
       height="0.80000001"
       transform="rotate(-33.08,333.11501,370.30291)"
       style="fill:#e0e0e0"
       id="rect98" />
    <polygon
       points="348.32,363.53 365.93,376.46 365.45,377.1 347.85,364.17 "
       style="fill:#e0e0e0"
       id="polygon100" />
    <rect
       x="345.04001"
       y="369.92001"
       width="23.709999"
       height="0.80000001"
       transform="rotate(-33.08,356.87701,370.30584)"
       style="fill:#e0e0e0"
       id="rect102" />
    <path
       d="m 396.77,102.43 a 22.53,22.53 0 0 0 -1,-6.56 l 5.75,-5.06 -3.62,-6.27 -7.23,2.46 a 22.64,22.64 0 0 0 -11.36,-6.56 l -1.51,-7.51 h -7.24 l -1.5,7.51 A 22.6,22.6 0 0 0 357.7,87 l -7.26,-2.45 -3.62,6.27 5.75,5.06 a 22.67,22.67 0 0 0 0,13.12 l -5.75,5.06 3.62,6.27 7.26,-2.45 a 22.6,22.6 0 0 0 11.36,6.56 l 1.5,7.51 h 7.24 l 1.51,-7.51 a 22.64,22.64 0 0 0 11.36,-6.56 l 7.26,2.45 3.62,-6.27 -5.75,-5.06 a 22.58,22.58 0 0 0 0.97,-6.57 z m -22.59,12.19 a 11.74,11.74 0 1 1 11.74,-11.74 11.74,11.74 0 0 1 -11.74,11.74 z"
       style="fill:#ebebeb"
       id="path104" />
    <path
       d="m 148.73,292.48 a 41,41 0 0 0 4,-11.39 l 13.58,-3.27 -0.51,-13.19 -13.8,-2.22 a 41.07,41.07 0 0 0 -12.72,-20.23 l 3.95,-13.39 -11.67,-6.16 -8.81,10.83 a 41.17,41.17 0 0 0 -23.9,0.91 l -9.61,-10.13 -11.18,7 5,13.05 A 41.19,41.19 0 0 0 71.9,265.47 l -13.57,3.26 0.5,13.19 13.79,2.22 a 41.25,41.25 0 0 0 12.73,20.25 l -4,13.38 11.68,6.16 8.82,-10.82 a 41.22,41.22 0 0 0 23.89,-0.93 l 9.61,10.13 11.18,-7 -5,-13 a 40.9,40.9 0 0 0 7.2,-9.83 z m -46.78,0.45 A 21.4,21.4 0 1 1 130.86,284 21.39,21.39 0 0 1 102,292.93 Z"
       style="fill:#ebebeb"
       id="path106" />
    <path
       d="m 396,257.35 7.84,4.34 a 2.6,2.6 0 0 1 0.79,0.59 1.11,1.11 0 0 1 0.19,0.67 1.24,1.24 0 0 1 -0.36,0.88 1.2,1.2 0 0 1 -0.85,0.37 2.25,2.25 0 0 1 -1,-0.36 l -10.12,-5.62 a 1,1 0 0 1 0,-1.74 l 10.12,-5.63 a 2.31,2.31 0 0 1 0.95,-0.34 1.2,1.2 0 0 1 0.86,0.36 1.22,1.22 0 0 1 0.36,0.88 1.05,1.05 0 0 1 -0.19,0.66 2.6,2.6 0 0 1 -0.79,0.59 z"
       style="fill:#ebebeb"
       id="path108" />
    <path
       d="M 416.16,249.24 408.4,266 a 2.31,2.31 0 0 1 -0.53,0.81 1.12,1.12 0 0 1 -0.74,0.25 1.19,1.19 0 0 1 -0.86,-0.35 1.11,1.11 0 0 1 -0.36,-0.8 2.45,2.45 0 0 1 0.28,-0.94 L 414,248.23 a 2.5,2.5 0 0 1 0.52,-0.82 1.19,1.19 0 0 1 0.74,-0.24 1.18,1.18 0 0 1 0.85,0.34 1.09,1.09 0 0 1 0.35,0.8 2.46,2.46 0 0 1 -0.3,0.93 z"
       style="fill:#ebebeb"
       id="path110" />
    <path
       d="M 425.92,257.35 418.08,253 a 2.6,2.6 0 0 1 -0.79,-0.59 1.05,1.05 0 0 1 -0.19,-0.66 1.22,1.22 0 0 1 0.36,-0.88 1.2,1.2 0 0 1 0.86,-0.36 2.31,2.31 0 0 1 0.95,0.34 l 10.12,5.63 a 1,1 0 0 1 0,1.74 l -10.12,5.62 a 2.27,2.27 0 0 1 -0.95,0.36 1.2,1.2 0 0 1 -0.87,-0.38 1.22,1.22 0 0 1 -0.35,-0.88 1.09,1.09 0 0 1 0.19,-0.66 2.6,2.6 0 0 1 0.79,-0.59 z"
       style="fill:#ebebeb"
       id="path112" />
  </g>
  <g
     id="freepik--Graphics--inject-7"
     transform="translate(0,-55)">
    <path
       d="m 113.55,186.34 h -37 A 5.73,5.73 0 0 1 70.74,180 l 7.74,-88.46 a 7,7 0 0 1 6.81,-6.27 h 9.62 a 1.63,1.63 0 0 1 1.65,1.57 v 0.3 a 2.26,2.26 0 0 0 2.3,2.19 H 108 A 2.9,2.9 0 0 0 110.79,87 l 0.07,-0.3 a 1.88,1.88 0 0 1 1.82,-1.49 h 9.63 a 5.79,5.79 0 0 1 4.32,1.86 5.85,5.85 0 0 1 1.48,4.49 l -7.75,88.47 a 7,7 0 0 1 -6.81,6.31 z M 85.29,86.25 a 6,6 0 0 0 -5.82,5.35 l -7.74,88.47 a 4.74,4.74 0 0 0 4.8,5.27 h 37 a 6,6 0 0 0 5.82,-5.36 l 7.74,-88.46 a 4.86,4.86 0 0 0 -1.22,-3.74 4.79,4.79 0 0 0 -3.58,-1.53 h -9.63 a 0.89,0.89 0 0 0 -0.84,0.7 l -0.07,0.3 A 3.91,3.91 0 0 1 108,90.31 h -9.13 a 3.24,3.24 0 0 1 -3.3,-3.15 v -0.3 a 0.63,0.63 0 0 0 -0.65,-0.61 z"
       style="fill:#a61c3c"
       id="path115" />
    <rect
       x="78.269997"
       y="99.139999"
       width="48.630001"
       height="1"
       style="fill:#a61c3c"
       id="rect117" />
    <rect
       x="112.68"
       y="85.25"
       width="9.6199999"
       height="1"
       style="fill:#a61c3c"
       id="rect119" />
    <path
       d="M 113.26,140.47 H 84.88 l 2.48,-28.38 h 28.38 z m -27.29,-1 h 26.37 l 2.31,-26.38 H 88.28 Z"
       style="fill:#a61c3c"
       id="path121" />
    <path
       d="M 113.6,172.52 H 78.82 L 79.74,162 h 34.78 z m -33.69,-1 h 32.77 l 0.75,-8.53 H 80.65 Z"
       style="fill:#a61c3c"
       id="path123" />
    <path
       d="M 90.72,155.06 A 2.74,2.74 0 0 1 88,152 a 3.28,3.28 0 0 1 3.21,-2.94 2.74,2.74 0 0 1 2.06,0.89 2.78,2.78 0 0 1 0.7,2.14 v 0 a 3.28,3.28 0 0 1 -3.25,2.97 z m 0.44,-5 a 2.27,2.27 0 0 0 -2.21,2 1.74,1.74 0 0 0 0.45,1.38 1.77,1.77 0 0 0 1.32,0.56 2.27,2.27 0 0 0 2.21,-2 v 0 a 1.84,1.84 0 0 0 -0.45,-1.38 1.77,1.77 0 0 0 -1.32,-0.53 z"
       style="fill:#a61c3c"
       id="path125" />
    <path
       d="m 97.91,155.06 a 2.72,2.72 0 0 1 -2.76,-3 3.27,3.27 0 0 1 3.2,-2.94 2.75,2.75 0 0 1 2.77,3 3.29,3.29 0 0 1 -3.21,2.94 z m 0.44,-5 a 2.27,2.27 0 0 0 -2.21,2 1.74,1.74 0 0 0 1.77,1.94 2.27,2.27 0 0 0 2.21,-2 v 0 a 1.74,1.74 0 0 0 -1.77,-1.94 z"
       style="fill:#a61c3c"
       id="path127" />
    <path
       d="m 105.11,155.06 a 2.78,2.78 0 0 1 -2.07,-0.88 2.81,2.81 0 0 1 -0.7,-2.15 3.28,3.28 0 0 1 3.2,-2.94 2.71,2.71 0 0 1 2.06,0.89 2.75,2.75 0 0 1 0.71,2.14 v 0 a 3.28,3.28 0 0 1 -3.2,2.94 z m 0.43,-5 a 2.27,2.27 0 0 0 -2.21,2 1.81,1.81 0 0 0 0.45,1.38 1.77,1.77 0 0 0 1.33,0.56 2.26,2.26 0 0 0 2.2,-2 v 0 a 1.74,1.74 0 0 0 -1.77,-1.94 z"
       style="fill:#a61c3c"
       id="path129" />
    <rect
       x="354.25"
       y="286.54001"
       width="48.630001"
       height="1"
       style="fill:#a61c3c"
       id="rect131" />
    <path
       d="m 389.5,373.74 h -37 a 5.74,5.74 0 0 1 -5.8,-6.35 l 7.74,-88.47 a 7,7 0 0 1 6.82,-6.27 h 9.62 a 1.62,1.62 0 0 1 1.64,1.58 v 0.3 a 2.25,2.25 0 0 0 2.29,2.19 H 384 a 2.91,2.91 0 0 0 2.78,-2.28 l 0.06,-0.3 a 1.92,1.92 0 0 1 1.83,-1.49 h 9.62 a 5.76,5.76 0 0 1 4.32,1.86 5.82,5.82 0 0 1 1.48,4.5 l -7.74,88.46 a 7,7 0 0 1 -6.85,6.27 z M 361.25,273.65 a 6,6 0 0 0 -5.82,5.36 l -7.74,88.46 a 4.82,4.82 0 0 0 1.22,3.74 4.76,4.76 0 0 0 3.58,1.53 h 37 a 6,6 0 0 0 5.82,-5.35 l 7.74,-88.47 a 4.74,4.74 0 0 0 -4.8,-5.27 h -9.62 a 0.91,0.91 0 0 0 -0.85,0.7 l -0.06,0.3 a 3.93,3.93 0 0 1 -3.76,3.07 h -9.15 a 3.24,3.24 0 0 1 -3.29,-3.15 v -0.3 a 0.62,0.62 0 0 0 -0.64,-0.62 z"
       style="fill:#a61c3c"
       id="path133" />
    <path
       d="m 395.71,300.44 h -36.54 a 2.65,2.65 0 0 1 -2.67,-2.93 3.16,3.16 0 0 1 3.08,-2.84 h 36.55 a 2.65,2.65 0 0 1 2,0.86 2.7,2.7 0 0 1 0.69,2.07 3.17,3.17 0 0 1 -3.11,2.84 z m -36.13,-4.77 a 2.15,2.15 0 0 0 -2.09,1.93 1.67,1.67 0 0 0 0.43,1.3 1.63,1.63 0 0 0 1.25,0.54 h 36.54 a 2.15,2.15 0 0 0 2.09,-1.93 1.71,1.71 0 0 0 -0.42,-1.3 1.66,1.66 0 0 0 -1.25,-0.54 z"
       style="fill:#a61c3c"
       id="path135" />
    <path
       d="m 394.88,310 h -36.55 a 2.65,2.65 0 0 1 -2,-0.86 2.68,2.68 0 0 1 -0.68,-2.06 3.16,3.16 0 0 1 3.09,-2.84 h 36.54 a 2.63,2.63 0 0 1 2.67,2.92 3.15,3.15 0 0 1 -3.07,2.84 z m -36.13,-4.76 a 2.14,2.14 0 0 0 -2.09,1.92 1.73,1.73 0 0 0 0.42,1.31 1.69,1.69 0 0 0 1.25,0.53 h 36.55 a 2.15,2.15 0 0 0 2.12,-2 1.7,1.7 0 0 0 -0.43,-1.31 1.66,1.66 0 0 0 -1.25,-0.53 z"
       style="fill:#a61c3c"
       id="path137" />
    <path
       d="m 394,319.48 h -36.5 a 2.63,2.63 0 0 1 -2.67,-2.92 3.17,3.17 0 0 1 3.09,-2.84 h 36.54 a 2.65,2.65 0 0 1 2.67,2.93 3.16,3.16 0 0 1 -3.13,2.83 z m -36.12,-4.76 a 2.15,2.15 0 0 0 -2.09,1.93 1.64,1.64 0 0 0 1.67,1.83 H 394 a 2.14,2.14 0 0 0 2.09,-1.92 1.64,1.64 0 0 0 -1.67,-1.84 z"
       style="fill:#a61c3c"
       id="path139" />
    <path
       d="m 391.76,345.58 h -36.54 a 2.65,2.65 0 0 1 -2.67,-2.93 3.15,3.15 0 0 1 3.08,-2.83 h 36.55 a 2.63,2.63 0 0 1 2.67,2.92 3.17,3.17 0 0 1 -3.09,2.84 z m -36.13,-4.76 a 2.15,2.15 0 0 0 -2.09,1.92 1.67,1.67 0 0 0 0.46,1.26 1.63,1.63 0 0 0 1.25,0.54 h 36.54 a 2.15,2.15 0 0 0 2.09,-1.93 1.67,1.67 0 0 0 -0.42,-1.3 1.65,1.65 0 0 0 -1.25,-0.53 z"
       style="fill:#a61c3c"
       id="path141" />
    <path
       d="m 390.93,355.1 h -36.55 a 2.64,2.64 0 0 1 -2,-0.85 2.71,2.71 0 0 1 -0.69,-2.07 3.17,3.17 0 0 1 3.09,-2.84 h 36.54 a 2.65,2.65 0 0 1 2.67,2.92 3.15,3.15 0 0 1 -3.06,2.84 z m -36.13,-4.76 a 2.14,2.14 0 0 0 -2.09,1.92 1.73,1.73 0 0 0 0.42,1.31 1.69,1.69 0 0 0 1.25,0.53 h 36.55 a 2.14,2.14 0 0 0 2.09,-1.92 1.7,1.7 0 0 0 -0.43,-1.31 1.66,1.66 0 0 0 -1.25,-0.53 z"
       style="fill:#a61c3c"
       id="path143" />
    <path
       d="m 390.09,364.62 h -36.54 a 2.63,2.63 0 0 1 -2.67,-2.92 3.17,3.17 0 0 1 3.09,-2.84 h 36.54 a 2.65,2.65 0 0 1 2.67,2.93 3.16,3.16 0 0 1 -3.09,2.83 z M 354,359.86 a 2.15,2.15 0 0 0 -2.09,1.93 1.64,1.64 0 0 0 1.67,1.83 h 36.54 a 2.16,2.16 0 0 0 2.1,-1.92 1.67,1.67 0 0 0 -0.43,-1.3 1.65,1.65 0 0 0 -1.25,-0.54 z"
       style="fill:#a61c3c"
       id="path145" />
    <path
       d="m 413.56,193.9 h -37 a 5.76,5.76 0 0 1 -4.32,-1.85 5.86,5.86 0 0 1 -1.48,-4.5 l 7.74,-88.47 a 7,7 0 0 1 6.82,-6.26 h 9.62 a 1.62,1.62 0 0 1 1.65,1.57 v 0.3 a 2.26,2.26 0 0 0 2.3,2.19 H 408 a 2.91,2.91 0 0 0 2.78,-2.27 l 0.07,-0.31 a 1.87,1.87 0 0 1 1.82,-1.48 h 9.62 a 5.72,5.72 0 0 1 5.8,6.35 l -7.74,88.47 a 7,7 0 0 1 -6.79,6.26 z M 385.3,93.82 a 6,6 0 0 0 -5.82,5.35 l -7.74,88.47 a 4.74,4.74 0 0 0 4.8,5.26 h 37 a 6,6 0 0 0 5.82,-5.35 l 7.74,-88.47 a 4.74,4.74 0 0 0 -4.81,-5.26 h -9.62 a 0.9,0.9 0 0 0 -0.85,0.69 l -0.06,0.31 A 3.94,3.94 0 0 1 408,97.88 h -9.14 a 3.24,3.24 0 0 1 -3.3,-3.15 v -0.3 a 0.63,0.63 0 0 0 -0.65,-0.61 z"
       style="fill:#a61c3c"
       id="path147" />
    <rect
       x="378.26999"
       y="106.71"
       width="48.630001"
       height="1"
       style="fill:#a61c3c"
       id="rect149" />
    <path
       d="M 415.92,183.57 H 376.56 L 379,155.19 h 39.4 z m -38.27,-1 H 415 l 2.31,-26.38 H 380 Z"
       style="fill:#a61c3c"
       id="path151" />
    <rect
       x="396.98001"
       y="146.78"
       width="1"
       height="45.189999"
       transform="rotate(-52.72,397.48698,169.3822)"
       style="fill:#a61c3c"
       id="rect153" />
    <rect
       x="372.94"
       y="168.88"
       width="49.09"
       height="1"
       transform="rotate(-33.89,397.51037,169.3923)"
       style="fill:#a61c3c"
       id="rect155" />
    <path
       d="m 421.07,124.74 h -39.36 l 0.92,-10.52 H 422 Z m -38.27,-1 h 37.35 l 0.75,-8.52 h -37.35 z"
       style="fill:#a61c3c"
       id="path157" />
    <rect
       x="381.67999"
       y="118.98"
       width="40.330002"
       height="1"
       transform="rotate(-13.67,401.83718,119.46394)"
       style="fill:#a61c3c"
       id="rect159" />
    <rect
       x="401.35001"
       y="100.12"
       width="1"
       height="38.709999"
       transform="rotate(-75.76,401.83574,119.48174)"
       style="fill:#a61c3c"
       id="rect161" />
    <path
       d="m 419.87,138.43 h -39.36 l 0.92,-10.53 h 39.36 z m -38.27,-1 H 419 l 0.75,-8.53 h -37.4 z"
       style="fill:#a61c3c"
       id="path163" />
    <rect
       x="380.48999"
       y="132.67"
       width="40.330002"
       height="1"
       transform="rotate(-13.67,400.66104,133.15959)"
       style="fill:#a61c3c"
       id="rect165" />
    <rect
       x="400.14999"
       y="113.81"
       width="1"
       height="38.709999"
       transform="rotate(-75.76,400.63824,133.16938)"
       style="fill:#a61c3c"
       id="rect167" />
    <path
       d="m 418.67,152.12 h -39.36 l 0.92,-10.53 h 39.36 z m -38.27,-1 h 37.36 l 0.74,-8.53 h -37.35 z"
       style="fill:#a61c3c"
       id="path169" />
    <rect
       x="379.29001"
       y="146.35001"
       width="40.330002"
       height="1"
       transform="rotate(-13.67,399.44318,146.85023)"
       style="fill:#a61c3c"
       id="rect171" />
    <rect
       x="398.95001"
       y="127.5"
       width="1"
       height="38.709999"
       transform="rotate(-75.76,399.44075,146.85702)"
       style="fill:#a61c3c"
       id="rect173" />
    <path
       d="m 407.88,239.39 a 16,16 0 1 1 16,-16 16,16 0 0 1 -16,16 z m 0,-31 a 15,15 0 1 0 15,15 15,15 0 0 0 -15,-14.98 z"
       style="fill:#a61c3c"
       id="path175" />
    <path
       d="m 405.12,232.65 -7.46,-9.86 0.8,-0.61 6.26,8.29 a 44.57,44.57 0 0 1 16.74,-23 l 2.23,-1.57 0.57,0.82 -2.26,1.59 a 43.51,43.51 0 0 0 -16.64,23.38 z"
       style="fill:#a61c3c"
       id="path177" />
  </g>
  <g
     id="freepik--Device--inject-7"
     transform="translate(0,-55)">
    <path
       d="m 297.17,107.79 h -26 L 245,407.1 h 26 a 24.26,24.26 0 0 0 23.7,-21.79 l 22.38,-255.73 a 19.66,19.66 0 0 0 -19.91,-21.79 z"
       style="fill:#263238"
       id="path180" />
    <path
       d="m 265.67,407.1 h -107 a 19.65,19.65 0 0 1 -19.88,-21.79 l 22.37,-255.73 a 24.26,24.26 0 0 1 23.7,-21.79 h 107 a 19.65,19.65 0 0 1 19.89,21.79 l -22.38,255.73 a 24.27,24.27 0 0 1 -23.7,21.79 z"
       style="fill:#a61c3c"
       id="path182" />
    <path
       d="M 291.41,112.79 H 263.6 a 4,4 0 0 0 -3.86,3.16 l -0.19,0.87 a 9.86,9.86 0 0 1 -9.44,7.72 h -26.44 a 7.94,7.94 0 0 1 -8.09,-7.72 v -0.87 a 3.26,3.26 0 0 0 -3.32,-3.16 h -27.84 a 18.7,18.7 0 0 0 -18.26,16.79 l -22.37,255.73 a 15.14,15.14 0 0 0 15.32,16.79 h 107 a 18.71,18.71 0 0 0 18.27,-16.79 l 22.37,-255.73 a 15.14,15.14 0 0 0 -15.34,-16.79 z"
       style="fill:#ffffff"
       id="path184" />
    <g
       style="opacity:0.2"
       id="g190">
      <path
         d="m 231.2,115.62 a 2.36,2.36 0 0 1 -2.31,2.13 1.92,1.92 0 0 1 -1.94,-2.13 2.36,2.36 0 0 1 2.31,-2.12 1.92,1.92 0 0 1 1.94,2.12 z"
         id="path186" />
      <path
         d="m 246.45,113.5 h -7.28 a 2.36,2.36 0 0 0 -2.31,2.12 1.91,1.91 0 0 0 1.93,2.13 h 7.29 a 2.36,2.36 0 0 0 2.31,-2.13 1.91,1.91 0 0 0 -1.94,-2.12 z"
         id="path188" />
    </g>
    <polygon
       points="180.7,122.25 178.45,122.25 178.25,124.5 180.5,124.5 "
       style="fill:#263238"
       id="polygon192" />
    <polygon
       points="185,124.5 185.2,122.25 185.39,120 183.14,120 182.95,122.25 182.75,124.5 "
       style="fill:#263238"
       id="polygon194" />
    <polygon
       points="187.45,122.25 187.25,124.5 189.5,124.5 189.7,122.25 189.89,120 190.09,117.75 187.84,117.75 187.64,120 "
       style="fill:#263238"
       id="polygon196" />
    <path
       d="m 284.58,117.9 -0.14,1.65 h -1.1 l -0.29,3.3 h 1.1 L 284,124.5 h 9.9 l 0.57,-6.6 z m 4,4.95 h -3.3 l 0.29,-3.3 h 3.3 z"
       style="fill:#263238"
       id="path198" />
    <polygon
       points="147.56,157.09 292.27,157.09 280.1,296.25 135.38,296.25 "
       style="opacity:0.8;fill:#263238"
       id="polygon200" />
    <polygon
       points="143.73,152.9 288.45,152.9 276.27,292.06 131.56,292.06 "
       style="fill:#a61c3c"
       id="polygon202" />
    <g
       style="opacity:0.8"
       id="g208">
      <polygon
         points="143.73,152.9 288.45,152.9 276.27,292.06 131.56,292.06 "
         style="fill:#ffffff"
         id="polygon204" />
      <path
         d="M 276.73,292.56 H 131 l 0.05,-0.55 12.23,-139.61 H 289 Z m -144.63,-1 H 275.81 L 287.9,153.4 H 144.19 Z"
         style="fill:#a61c3c"
         id="path206" />
    </g>
    <polygon
       points="154.11,164.67 276.01,164.67 268.22,253.73 146.32,253.73 "
       style="opacity:0.8;fill:#ffffff"
       id="polygon210" />
    <path
       d="M 268.68,254.23 H 145.77 l 7.88,-90.06 h 122.91 z m -121.82,-1 h 120.9 l 7.7,-88.06 H 154.57 Z"
       style="fill:#a61c3c"
       id="path212" />
    <rect
       x="210.66"
       y="136.82001"
       width="1"
       height="144.75"
       transform="rotate(-52.03,211.1479,209.1875)"
       style="fill:#a61c3c"
       id="rect214" />
    <line
       x1="146.32001"
       y1="253.73"
       x2="276.01001"
       y2="164.67"
       style="fill:#ffffff"
       id="line216" />
    <rect
       x="132.5"
       y="208.7"
       width="157.33"
       height="1"
       transform="rotate(-34.5,211.13795,209.18491)"
       style="fill:#a61c3c"
       id="rect218" />
    <path
       d="m 193.58,266.77 a 5.12,5.12 0 0 1 -5,4.6 4.15,4.15 0 0 1 -4.2,-4.6 5.13,5.13 0 0 1 5,-4.6 4.15,4.15 0 0 1 4.2,4.6 z"
       style="fill:#a61c3c"
       id="path220" />
    <path
       d="m 210.72,266.77 a 5.12,5.12 0 0 1 -5,4.6 4.15,4.15 0 0 1 -4.19,-4.6 5.12,5.12 0 0 1 5,-4.6 4.14,4.14 0 0 1 4.19,4.6 z"
       style="fill:#a61c3c"
       id="path222" />
    <path
       d="m 227.87,266.77 a 5.12,5.12 0 0 1 -5,4.6 4.14,4.14 0 0 1 -4.19,-4.6 5.12,5.12 0 0 1 5,-4.6 4.15,4.15 0 0 1 4.19,4.6 z"
       style="fill:#a61c3c"
       id="path224" />
    <polygon
       points="130.4,305.29 198.16,305.29 192.46,370.45 124.7,370.45 "
       style="fill:#a61c3c"
       id="polygon226" />
    <g
       style="opacity:0.8"
       id="g232">
      <polygon
         points="130.4,305.29 198.16,305.29 192.46,370.45 124.7,370.45 "
         style="fill:#ffffff"
         id="polygon228" />
      <path
         d="m 192.92,371 h -68.77 l 5.79,-66.16 h 68.77 z m -67.67,-1 H 192 l 5.61,-64.16 h -66.75 z"
         style="fill:#a61c3c"
         id="path230" />
    </g>
    <polygon
       points="135.26,310.8 192.34,310.8 188.69,352.5 131.61,352.5 "
       style="fill:#ffffff"
       id="polygon234" />
    <path
       d="m 189.15,353 h -58.08 l 3.73,-42.7 h 58.08 z m -57,-1 h 56.07 l 3.56,-40.7 h -56.06 z"
       style="fill:#a61c3c"
       id="path236" />
    <line
       x1="135.25999"
       y1="310.79999"
       x2="188.69"
       y2="352.5"
       style="fill:#ffffff"
       id="line238" />
    <rect
       x="161.47"
       y="297.76001"
       width="1"
       height="67.779999"
       transform="rotate(-52.03,161.96199,331.64293)"
       style="fill:#a61c3c"
       id="rect240" />
    <line
       x1="131.61"
       y1="352.5"
       x2="192.34"
       y2="310.79999"
       style="fill:#ffffff"
       id="line242" />
    <rect
       x="125.14"
       y="331.14999"
       width="73.669998"
       height="1"
       transform="rotate(-34.5,161.94499,331.62043)"
       style="fill:#a61c3c"
       id="rect244" />
    <path
       d="m 153.74,358.61 a 2.39,2.39 0 0 1 -2.34,2.15 1.93,1.93 0 0 1 -2,-2.15 2.4,2.4 0 0 1 2.34,-2.16 2,2 0 0 1 2,2.16 z"
       style="fill:#a61c3c"
       id="path246" />
    <path
       d="m 161.77,358.61 a 2.4,2.4 0 0 1 -2.34,2.15 1.94,1.94 0 0 1 -2,-2.15 2.41,2.41 0 0 1 2.34,-2.16 2,2 0 0 1 2,2.16 z"
       style="fill:#a61c3c"
       id="path248" />
    <path
       d="m 169.8,358.61 a 2.4,2.4 0 0 1 -2.34,2.15 1.94,1.94 0 0 1 -2,-2.15 2.4,2.4 0 0 1 2.34,-2.16 2,2 0 0 1 2,2.16 z"
       style="fill:#a61c3c"
       id="path250" />
    <polygon
       points="207.35,305.29 275.11,305.29 269.41,370.45 201.65,370.45 "
       style="fill:#a61c3c"
       id="polygon252" />
    <g
       style="opacity:0.8"
       id="g258">
      <polygon
         points="207.35,305.29 275.11,305.29 269.41,370.45 201.65,370.45 "
         style="fill:#ffffff"
         id="polygon254" />
      <path
         d="m 269.87,371 h -68.76 l 5.79,-66.16 h 68.76 z M 202.2,370 H 269 l 5.62,-64.16 h -66.81 z"
         style="fill:#a61c3c"
         id="path256" />
    </g>
    <polygon
       points="212.21,310.8 269.29,310.8 265.64,352.5 208.56,352.5 "
       style="fill:#ffffff"
       id="polygon260" />
    <path
       d="M 266.1,353 H 208 l 3.73,-42.7 h 58.09 z m -57,-1 h 56.07 l 3.56,-40.7 h -56.06 z"
       style="fill:#a61c3c"
       id="path262" />
    <line
       x1="212.21001"
       y1="310.79999"
       x2="265.64001"
       y2="352.5"
       style="fill:#ffffff"
       id="line264" />
    <rect
       x="238.42999"
       y="297.76001"
       width="1"
       height="67.779999"
       transform="rotate(-52.03,238.9114,331.63834)"
       style="fill:#a61c3c"
       id="rect266" />
    <line
       x1="208.56"
       y1="352.5"
       x2="269.29001"
       y2="310.79999"
       style="fill:#ffffff"
       id="line268" />
    <rect
       x="202.09"
       y="331.14999"
       width="73.669998"
       height="1"
       transform="rotate(-34.5,238.90136,331.62857)"
       style="fill:#a61c3c"
       id="rect270" />
    <path
       d="m 230.69,358.61 a 2.39,2.39 0 0 1 -2.34,2.15 1.93,1.93 0 0 1 -2,-2.15 2.4,2.4 0 0 1 2.34,-2.16 1.94,1.94 0 0 1 2,2.16 z"
       style="fill:#a61c3c"
       id="path272" />
    <path
       d="m 238.72,358.61 a 2.39,2.39 0 0 1 -2.34,2.15 1.93,1.93 0 0 1 -2,-2.15 2.4,2.4 0 0 1 2.34,-2.16 1.94,1.94 0 0 1 2,2.16 z"
       style="fill:#a61c3c"
       id="path274" />
    <path
       d="m 246.75,358.61 a 2.39,2.39 0 0 1 -2.34,2.15 1.94,1.94 0 0 1 -2,-2.15 2.41,2.41 0 0 1 2.35,-2.16 2,2 0 0 1 1.99,2.16 z"
       style="fill:#a61c3c"
       id="path276" />
    <polygon
       points="197.42,137.53 269.04,137.53 268.2,147.13 196.58,147.13 "
       style="fill:#a61c3c"
       id="polygon278" />
    <rect
       x="177.60001"
       y="144.98"
       width="11.07"
       height="1"
       style="fill:#263238"
       id="rect280" />
    <rect
       x="177.92"
       y="141.24001"
       width="11.07"
       height="1"
       style="fill:#263238"
       id="rect282" />
    <rect
       x="178.25"
       y="137.5"
       width="11.07"
       height="1"
       style="fill:#263238"
       id="rect284" />
    <g
       style="opacity:0.2"
       id="g290">
      <path
         d="m 223.75,124.54 -73.86,274.63 a 15.52,15.52 0 0 0 9.22,2.93 h 5.78 l 74.64,-277.56 z"
         style="fill:#ffffff"
         id="path286" />
      <path
         d="M 291.41,112.79 H 263.6 a 4,4 0 0 0 -3.86,3.16 l -0.19,0.87 a 9.88,9.88 0 0 1 -9.1,7.71 L 175.8,402.1 h 56.94 l 74,-275.17 a 15.07,15.07 0 0 0 -15.33,-14.14 z"
         style="fill:#ffffff"
         id="path288" />
    </g>
    <rect
       x="165.89999"
       y="131.85001"
       width="140.53"
       height="1.5"
       style="fill:#a61c3c"
       id="rect292" />
  </g>
  <g
     id="freepik--character-2--inject-7"
     transform="translate(0,-55)">
    <path
       d="m 318.68,167.92 a 2.07,2.07 0 0 1 0.59,-0.83 2,2 0 0 1 0.75,-0.25 13.5,13.5 0 0 1 6.12,-0.2 0.74,0.74 0 0 1 0.4,0.21 0.7,0.7 0 0 1 0.11,0.37 c 0.16,1.13 0.31,2.26 0.46,3.38 a 1.16,1.16 0 0 1 -0.49,1.33 34.81,34.81 0 0 1 -5.7,3.57 c -1,0.2 -4.08,-0.8 -5,-1.19 -0.92,-0.39 1.86,-4.52 2.76,-6.39 z"
       style="fill:#cb7a63"
       id="path295" />
    <path
       d="m 296.19,202.21 c 0.9,-7.13 16.83,-26.36 18.93,-29.14 1.16,-1.55 6,-0.4 7,2.54 -4.35,6 -6.75,11.13 -9.72,17.95 a 102.42,102.42 0 0 1 -4.89,9.2 c -8.08,11.24 -11.71,2.55 -11.32,-0.55 z"
       style="fill:#a61c3c"
       id="path297" />
    <g
       style="opacity:0.1;isolation:isolate"
       id="g301">
      <path
         d="m 296.19,202.21 c 0.9,-7.13 16.83,-26.36 18.93,-29.14 1.16,-1.55 6,-0.4 7,2.54 -4.35,6 -6.75,11.13 -9.72,17.95 a 102.42,102.42 0 0 1 -4.89,9.2 c -8.08,11.24 -11.71,2.55 -11.32,-0.55 z"
         id="path299" />
    </g>
    <path
       d="m 353.65,219.21 c 0,0 -5.06,0.07 -6.64,1.46 l -2.19,1.94 a 1,1 0 0 0 -0.07,1.47 c 1.18,1.33 3.76,3.92 6.65,4.94 a 1.93,1.93 0 0 0 1.91,-0.33 c 0,0 3.5,-4.38 2.94,-5.28 z"
       style="fill:#cb7a63"
       id="path303" />
    <path
       d="m 367,219.69 c -0.45,0.25 -0.91,0.49 -1.39,0.74 l -7.15,2.65 c -4.87,2.38 -5.24,-3.63 -5.24,-3.63 l 1.95,-1.69 13.28,-11 c 0,0 -12.36,-9.16 -20.36,-16.88 -6,-6.95 -5.24,-11.48 1.85,-10.72 5.09,0.54 28.45,22.36 30.48,24.69 2.03,2.33 -2.58,9.9 -13.42,15.84 z"
       style="fill:#a61c3c"
       id="path305" />
    <path
       d="m 367,219.69 c -0.45,0.25 -0.91,0.49 -1.39,0.74 l -7.15,2.65 c -4.87,2.38 -5.24,-3.63 -5.24,-3.63 l 1.95,-1.69 13.28,-11 c 0,0 -12.36,-9.16 -20.36,-16.88 -6,-6.95 -5.24,-11.48 1.85,-10.72 5.09,0.54 28.45,22.36 30.48,24.69 2.03,2.33 -2.58,9.9 -13.42,15.84 z"
       style="opacity:0.1;isolation:isolate"
       id="path307" />
    <path
       d="m 370.83,195.63 -0.11,-0.12 z"
       style="fill:#263238"
       id="path309" />
    <g
       id="freepik--group--inject-7">
      <path
         d="m 324.61,151 c -0.41,-0.07 -0.83,0.36 -0.95,1 -0.12,0.64 0.1,1.2 0.51,1.27 0.41,0.07 0.84,-0.36 1,-1 0.16,-0.64 -0.17,-1.27 -0.56,-1.27 z"
         style="fill:#263238"
         id="path311" />
      <path
         d="m 323.51,159.19 a 3.6,3.6 0 0 1 -2.87,-1.13 22.82,22.82 0 0 0 4,-4.76 z"
         style="fill:#b74d3c"
         id="path313" />
      <path
         d="m 327.82,149.14 a 3,3 0 0 0 -2.51,-1 v 0 h -0.12 a 0.37,0.37 0 0 1 -0.38,-0.37 0.38,0.38 0 0 1 0.37,-0.39 3.71,3.71 0 0 1 3.17,1.2 0.46,0.46 0 0 1 0.1,0.25 0.4,0.4 0 0 1 -0.63,0.32 z"
         style="fill:#263238"
         id="path315" />
      <path
         d="m 332.71,186.9 c 10.69,-0.11 12.21,-6 12.21,-6 -3.24,-3 -3.52,-8.74 -2.95,-13.84 a 11.78,11.78 0 0 1 -3.11,3.11 9.77,9.77 0 0 1 -7.8,1.56 0.33,0.33 0 0 1 -0.13,0 2.84,2.84 0 0 1 0.06,0.31 c 0.72,4.06 0.25,8.43 -4,9.79 0.01,0 -6.05,5.17 5.72,5.07 z"
         style="fill:#cb7a63"
         id="path317" />
      <path
         d="m 330.6,170.23 c 0.12,0.49 0.25,1 0.33,1.5 a 0.33,0.33 0 0 0 0.13,0 9.77,9.77 0 0 0 7.8,-1.56 11.78,11.78 0 0 0 3.14,-3.07 c 0.14,-1.29 0.35,-2.56 0.56,-3.72 L 331,170 Z"
         style="fill:#cb7a63"
         id="path319" />
      <path
         d="m 346,180.48 c 0,0 -1.61,-4.65 -3.93,-6.08 -2.32,-1.43 -12.33,0.31 -13.89,1 -1.56,0.69 -3.07,4.31 -3.07,4.31 z"
         style="fill:#a61c3c"
         id="path321" />
      <path
         d="m 346,180.48 c 0,0 -1.61,-4.65 -3.93,-6.08 -2.32,-1.43 -12.33,0.31 -13.89,1 -1.56,0.69 -3.07,4.31 -3.07,4.31 z"
         style="opacity:0.8;fill:#ffffff"
         id="path323" />
      <path
         d="m 332.9,410.37 c -1,0 -1.89,-0.13 -2.2,-0.57 a 0.66,0.66 0 0 1 0,-0.77 0.9,0.9 0 0 1 0.58,-0.41 c 1.25,-0.35 3.87,1.14 4,1.2 a 0.18,0.18 0 0 1 0.08,0.18 0.17,0.17 0 0 1 -0.15,0.15 13.81,13.81 0 0 1 -2.31,0.22 z m -1.18,-1.45 a 1,1 0 0 0 -0.34,0 0.52,0.52 0 0 0 -0.36,0.25 c -0.12,0.22 -0.08,0.32 0,0.39 0.35,0.48 2.25,0.49 3.64,0.29 a 7.94,7.94 0 0 0 -2.94,-1 z"
         style="fill:#a61c3c"
         id="path325" />
      <path
         d="m 335.17,410.13 h -0.07 c -0.91,-0.41 -2.69,-2 -2.54,-2.87 0,-0.2 0.17,-0.45 0.66,-0.5 a 1.33,1.33 0 0 1 1,0.3 c 1,0.79 1.15,2.8 1.16,2.89 a 0.19,0.19 0 0 1 -0.08,0.16 0.19,0.19 0 0 1 -0.13,0.02 z m -1.81,-3 h -0.1 c -0.32,0 -0.34,0.16 -0.35,0.2 -0.09,0.51 1.12,1.78 2,2.34 a 4.22,4.22 0 0 0 -1,-2.31 1,1 0 0 0 -0.63,-0.26 z"
         style="fill:#a61c3c"
         id="path327" />
      <polygon
         points="335.93,409.95 343.44,409.94 342.77,392.68 335.3,392.69 "
         style="fill:#cb7a63"
         id="polygon329" />
      <path
         d="m 334.16,409.67 c -5.11,3.14 -6.68,3.28 -12.58,4.58 -1.29,0.28 -0.48,3.41 2.62,3.4 5.11,0 5.65,-0.25 10,-0.25 3.73,0 8,0.16 11,0.2 a 1.18,1.18 0 0 0 0.27,0 1.1,1.1 0 0 0 0.82,-1.31 l -1.46,-6.67 a 0.65,0.65 0 0 0 -0.64,-0.51 H 336 a 3.56,3.56 0 0 0 -1.84,0.56 z"
         style="fill:#263238"
         id="path331" />
      <polygon
         points="335.62,402.33 335.3,392.7 342.78,392.69 343.12,402.32 "
         style="opacity:0.2;isolation:isolate"
         id="polygon333" />
      <path
         d="m 398.56,407.26 a 3.1,3.1 0 0 1 0.36,-2.34 0.72,0.72 0 0 1 0.82,-0.06 1,1 0 0 1 0.48,0.55 c 0.48,1.26 -0.81,4.11 -0.87,4.25 a 0.17,0.17 0 0 1 -0.18,0.11 0.19,0.19 0 0 1 -0.16,-0.14 13.76,13.76 0 0 1 -0.45,-2.37 z m 1.4,-1.36 a 1.47,1.47 0 0 0 0,-0.36 0.52,0.52 0 0 0 -0.29,-0.34 c -0.24,-0.1 -0.35,-0.05 -0.41,0 -0.46,0.41 -0.29,2.37 0.06,3.79 a 8.18,8.18 0 0 0 0.68,-3.12 z"
         style="fill:#a61c3c"
         id="path335" />
      <path
         d="m 399,409.58 a 0.17,0.17 0 0 1 0,-0.07 c 0.33,-1 1.83,-3 2.73,-2.9 0.21,0 0.49,0.14 0.59,0.63 a 1.33,1.33 0 0 1 -0.22,1.06 c -0.71,1.11 -2.8,1.45 -2.89,1.46 a 0.15,0.15 0 0 1 -0.17,-0.06 0.13,0.13 0 0 1 -0.04,-0.12 z m 2.95,-2.16 v -0.11 c 0,-0.33 -0.2,-0.34 -0.24,-0.34 -0.54,0 -1.73,1.33 -2.22,2.34 a 4.31,4.31 0 0 0 2.3,-1.22 1,1 0 0 0 0.21,-0.67 z"
         style="fill:#a61c3c"
         id="path337" />
      <polygon
         points="390.69,410.5 398.03,409.97 393.68,392.57 386.39,393.1 "
         style="fill:#cb7a63"
         id="polygon339" />
      <path
         d="m 399.8,408.56 c 2.28,2.27 3.48,3.43 9.63,4.84 1.36,0.31 0.47,3.55 -2.76,3.52 -5.33,-0.06 -2.41,-0.28 -7,-0.32 -3.89,-0.05 -7.29,0 -10.38,0 a 1.55,1.55 0 0 1 -0.31,0 1.16,1.16 0 0 1 -0.87,-1.37 l 1.56,-6.94 a 0.67,0.67 0 0 1 0.67,-0.52 l 7.48,0.17 a 2.69,2.69 0 0 1 1.98,0.62 z"
         style="fill:#263238"
         id="path341" />
      <polygon
         points="388.61,402.05 386.39,393.1 393.69,392.58 395.91,401.52 "
         style="opacity:0.2;isolation:isolate"
         id="polygon343" />
      <path
         d="m 354.15,241 a 77.78,77.78 0 0 1 6.92,13.91 c 4,10.82 2.58,16.49 3.92,23.81 2.35,12.91 5.88,22.81 8.35,32.6 7.71,30.63 24,85 24,85 l -13.17,2.9 c 0,0 -24.42,-64.86 -31.35,-86.77 C 346.58,292.77 330.55,241 330.55,241 Z"
         style="fill:#a61c3c"
         id="path345" />
      <path
         d="m 354.15,241 a 77.78,77.78 0 0 1 6.92,13.91 c 4,10.82 2.58,16.49 3.92,23.81 2.35,12.91 5.88,22.81 8.35,32.6 7.71,30.63 24,85 24,85 l -13.17,2.9 c 0,0 -24.42,-64.86 -31.35,-86.77 C 346.58,292.77 330.55,241 330.55,241 Z"
         style="opacity:0.4"
         id="path347" />
      <path
         d="m 398.9,393.91 0.14,4.69 -15.87,1.71 c 0,0 -1.4,-5.11 -1.34,-5.11 z"
         style="fill:#a61c3c"
         id="path349" />
      <path
         d="m 398.9,393.91 0.14,4.69 -15.87,1.71 c 0,0 -1.4,-5.11 -1.34,-5.11 z"
         style="opacity:0.8;fill:#ffffff"
         id="path351" />
      <path
         d="m 338,264.83 c 5.05,16.27 11.45,36.85 14.86,47.64 0.16,0.53 0.34,1.07 0.52,1.64 -1.34,-18 -4.88,-48.27 -13.95,-49.38 a 3.29,3.29 0 0 0 -1.43,0.1 z"
         style="opacity:0.3;isolation:isolate"
         id="path353" />
      <path
         d="m 342,240.94 c 0,0 3.85,49.7 4.29,73.19 0.4,21.9 -1.21,85.7 -1.21,85.7 h -12.7 c 0,0 -6.06,-65.13 -8.31,-87.37 -2.14,-21.05 -7.69,-71.09 -7.69,-71.09 z"
         style="fill:#a61c3c"
         id="path355" />
      <path
         d="m 342,240.94 c 0,0 3.85,49.7 4.29,73.19 0.4,21.9 -1.21,85.7 -1.21,85.7 h -12.7 c 0,0 -6.06,-65.13 -8.31,-87.37 -2.14,-21.05 -7.69,-71.09 -7.69,-71.09 z"
         style="opacity:0.4"
         id="path357" />
      <path
         d="m 347,395.38 -0.43,4.66 h -15.44 c 0,0 -0.73,-5.22 -0.67,-5.22 z"
         style="fill:#a61c3c"
         id="path359" />
      <path
         d="m 347,395.38 -0.43,4.66 h -15.44 c 0,0 -0.73,-5.22 -0.67,-5.22 z"
         style="opacity:0.8;fill:#ffffff"
         id="path361" />
      <path
         d="m 366.62,256.81 -3.55,-1 a 35,35 0 0 0 -17.48,-0.52 l -4.15,-9.48 1.27,10 h -1.82 a 35,35 0 0 0 -15.23,3.09 35.39,35.39 0 0 1 -4.79,2 c 0,-0.3 -4.47,-19.41 -4.47,-19.41 -4.55,-31 -3.81,-46.69 -2.44,-54.33 a 10,10 0 0 1 8,-8.08 c 1.55,-0.29 3.28,-0.56 5.06,-0.74 a 138.42,138.42 0 0 1 16,-0.16 l 3.54,0.26 c 5.59,0.29 11.32,5 10.31,10.55 -3.35,18.32 -3.91,31.71 -3.68,40.54 z"
         style="fill:#a61c3c"
         id="path363" />
      <path
         d="m 313.11,212.13 c 0,0 -0.11,-15.27 0,-18.1 l 11.37,-7.82 a 108.56,108.56 0 0 0 -11.37,25.92 z"
         style="opacity:0.2;isolation:isolate"
         id="path365" />
      <path
         d="m 322.76,161.67 a 10.85,10.85 0 0 0 5.45,9 v 0 a 9.43,9.43 0 0 0 2.66,1.06 0.33,0.33 0 0 0 0.13,0 9.77,9.77 0 0 0 7.8,-1.56 11.78,11.78 0 0 0 3.2,-3.07 c 2,-2.91 2.83,-6.77 4.22,-12.19 a 10.65,10.65 0 0 0 -12.41,-13.22 c -8.13,1.61 -11.35,12.76 -11.05,19.98 z"
         style="fill:#cb7a63"
         id="path367" />
      <path
         d="m 328.27,170.67 a 9.43,9.43 0 0 0 2.66,1.06 c 0,0 -0.39,-4.75 -0.39,-4.75 0,0 -1.7,3.68 -2.27,3.69 z"
         style="opacity:0.2"
         id="path369" />
      <path
         d="m 355.59,156.13 c -0.86,1.12 -2,2.3 -3.4,2.42 a 5.12,5.12 0 0 1 -2.42,-0.38 c -2.5,4.34 -7.8,8.93 -7.8,8.93 a 11.69,11.69 0 0 1 -4.16,0.76 11.83,11.83 0 0 1 -4.34,-0.83 8.19,8.19 0 0 0 -0.82,-0.31 c -0.39,-0.09 -2.4,-8.55 -5.2,-9.84 l -0.63,-0.3 c 0.19,-0.89 -0.09,-3.36 0.78,-4.2 0.47,-0.46 -0.82,-1.63 -0.72,-2.52 a 1.43,1.43 0 0 1 0,-0.22 c -0.89,-0.56 -1,-1.77 -0.62,-3 0.85,-3.22 2.55,-2.34 2.55,-2.34 a 3.65,3.65 0 0 1 -0.57,-2.91 c 0.35,-1.84 3.79,-2.76 3.79,-2.76 l 1.23,0.24 a 4,4 0 0 1 2.78,-0.88 5.06,5.06 0 0 1 3.69,2.13 4.18,4.18 0 0 1 6.64,2.23 3.5,3.5 0 0 1 3.61,1 3.76,3.76 0 0 1 1,3.72 2.4,2.4 0 0 1 1.74,2.08 13.07,13.07 0 0 1 -0.25,3.11 4.79,4.79 0 0 0 0.4,3 2.09,2.09 0 0 0 2.72,0.87 z"
         style="fill:#263238"
         id="path371" />
      <path
         d="m 330.45,151.74 c -2.23,0.7 -3.33,4 -3.39,6.14 -0.06,2.33 1.52,3.76 3.52,2.16 a 8.84,8.84 0 0 0 3,-4.8 c 0.5,-2.24 -0.89,-4.24 -3.13,-3.5 z"
         style="fill:#cb7a63"
         id="path373" />
    </g>
    <path
       d="m 311.33,186.81 -14.1,16 c -2,4.53 4.81,9.53 9.59,5.1 l 16.92,-19.49 c 1.23,-2.67 1.39,-4.86 -0.4,-6.63 -2.34,-2.31 -6.52,-3.79 -12.01,5.02 z"
       style="fill:#a61c3c"
       id="path376" />
  </g>
  <g
     id="freepik--character-1--inject-7"
     transform="translate(0,-55)">
    <path
       d="m 118.61,217.33 a 119,119 0 0 0 12.79,12.3 c 2.63,2.07 25.14,-11.62 27.93,-13.18 0,0 -2.52,-2.48 -3.56,-2.21 -3.93,1 -21.46,7 -21.46,7 -0.81,-0.25 -8.9,-9.54 -8.9,-9.54 z"
       style="fill:#b97964"
       id="path379" />
    <path
       d="m 162.24,213 -0.07,-0.05 0.08,0.08 c 0,0 -2,3.27 -4.72,4.09 l -2.06,-2 0.93,-6 0.06,-0.37 0.22,-0.21 2.81,-2.74 a 1.49,1.49 0 0 1 2.07,0 l 2.11,2 a 1.46,1.46 0 0 1 0.29,1.73 z"
       style="fill:#b97964"
       id="path381" />
    <path
       d="m 130.65,214.66 c -5.73,-8.18 -15.82,-13.52 -18.69,-13.56 -4.14,-0.07 -5.42,0.89 -3.85,4 2.65,5.34 7,10.78 13.11,17.28 z"
       style="fill:#263238"
       id="path383" />
    <path
       d="m 114.33,201.51 a 61.36,61.36 0 0 0 -7,-2.12 93.21,93.21 0 0 0 -13.33,-2.19 77,77 0 0 0 -7.83,-0.44 3.48,3.48 0 0 0 -0.79,0.09 3.94,3.94 0 0 0 -2.9,4.62 c 4.39,23.2 4.6,33.5 4,45.45 l 26.71,1 a 1.43,1.43 0 0 0 1.42,-1.2 c 1.18,-6 4.89,-19.41 4.89,-19.41 3.76,-2.67 3.6,-5.73 2.62,-9.66 -0.31,-1.23 -1,-2.41 -4.06,-9 -0.06,-0.08 -2.35,-6.65 -3.73,-7.14 z"
       style="fill:#263238"
       id="path385" />
    <path
       d="m 97.45,247.31 9.74,0.35 c 1.45,-11.56 0.72,-20.19 0.67,-33.31 0.04,12.25 -6.98,27 -10.41,32.96 z"
       style="fill:#ffffff"
       id="path387" />
    <path
       d="m 107.55,252 c 0,0 12,59.41 11.4,84 -0.65,25.94 -5.74,70.6 -5.74,70.6 l -6.33,-0.07 c 0,0 -5.69,-33.06 -2.43,-69.32 -16.6,-36.36 -20.9,-82.9 -20.9,-82.9 z"
       style="fill:#b97964"
       id="path389" />
    <path
       d="m 107.55,252 c 0,0 12,59.41 11.4,84 -0.65,25.94 -5.74,70.6 -5.74,70.6 l -6.33,-0.07 c 0,0 -5.69,-33.06 -2.43,-69.32 -16.6,-36.36 -20.9,-82.9 -20.9,-82.9 z"
       style="fill:#a86955"
       id="path391" />
    <path
       d="m 102.16,266.62 c 0,0 3.13,46.5 -0.13,70.91 -3.44,25.72 -13.3,69.57 -13.3,69.57 l -6.3,-0.75 c 0,0 -2.09,-33.48 5,-69.18 C 74.9,299.23 78,266.36 78,266.36 Z"
       style="fill:#b97964"
       id="path393" />
    <path
       d="m 102.16,266.62 c 0,0 3.13,46.5 -0.13,70.91 -3.44,25.72 -13.3,69.57 -13.3,69.57 l -6.3,-0.75 c 0,0 -2.09,-33.48 5,-69.18 C 74.9,299.23 78,266.36 78,266.36 Z"
       style="fill:#b97964"
       id="path395" />
    <path
       d="M 78.26,320.08 A 140.91,140.91 0 0 0 98,323.52 l 0.6,0.05 c 0.42,0.05 0.85,0.08 1.31,0.1 2.68,0.14 20.64,2.47 21.88,-4.93 0,0 -3.86,-18.32 -7.58,-38.65 -2.26,-12.33 -0.42,-29.67 -0.42,-29.67 v 0 A 135.52,135.52 0 0 0 90.3,249.73 l -4.55,0.26 c 0,0 -15.45,15.25 -11.62,30.34 5.72,22.58 4.13,39.75 4.13,39.75 z"
       style="fill:#a61c3c"
       id="path397" />
    <g
       style="opacity:0.4"
       id="g401">
      <path
         d="M 78.26,320.08 A 140.91,140.91 0 0 0 98,323.52 l 0.6,0.05 c 0.42,0.05 0.85,0.08 1.31,0.1 2.68,0.14 20.64,2.47 21.88,-4.93 0,0 -3.86,-18.32 -7.58,-38.65 -2.26,-12.33 -0.42,-29.67 -0.42,-29.67 v 0 A 135.52,135.52 0 0 0 90.3,249.73 l -4.55,0.26 c 0,0 -15.45,15.25 -11.62,30.34 5.72,22.58 4.13,39.75 4.13,39.75 z"
         id="path399" />
    </g>
    <path
       d="m 90.18,196.83 v 0 a 19.83,19.83 0 0 0 3.1,6.53 c 3.87,5.33 9.58,11.12 12.1,11.75 0.72,-1.67 1.84,-4.94 1.84,-4.94 1.65,0.81 2.11,3.14 2.66,4.92 2.65,-4.3 4.67,-11.7 4,-14.39 0,0 -3.21,-0.95 -4.79,-1.34 a 96.37,96.37 0 0 0 -13.28,-2.13 45.29,45.29 0 0 0 -5.63,-0.4 z"
       style="opacity:0.1"
       id="path403" />
    <path
       d="m 90.1,196.34 0.88,1.6 c 3.41,6.19 11.31,14.15 14.4,14.94 a 40.43,40.43 0 0 0 1.46,-4.57 c 1.65,0.81 2.87,3.14 3.42,4.92 2.65,-4.3 4.22,-10.32 3.55,-13 v 0 c -1.56,-0.47 -3.22,-0.95 -4.8,-1.35 a 97.77,97.77 0 0 0 -13.27,-2.13 47.6,47.6 0 0 0 -5.64,-0.41 z"
       style="fill:#ffffff"
       id="path405" />
    <path
       d="m 86.48,250 13.53,0.37 h 1.13 l 2.93,0.07 h 1.12 l 7.94,0.21 c 0.25,0 0.47,-0.12 0.48,-0.28 l 0.31,-2.54 c 0,-0.18 -0.19,-0.33 -0.47,-0.34 l -7.85,-0.31 h -0.94 l -3.88,-0.15 h -0.92 l -13,-0.51 a 0.52,0.52 0 0 0 -0.47,0.2 L 86,249.58 c -0.07,0.19 0.16,0.42 0.48,0.42 z"
       style="fill:#a61c3c"
       id="path407" />
    <path
       d="m 86.48,250 13.53,0.37 h 1.13 l 2.93,0.07 h 1.12 l 7.94,0.21 c 0.25,0 0.47,-0.12 0.48,-0.28 l 0.31,-2.54 c 0,-0.18 -0.19,-0.33 -0.47,-0.34 l -7.85,-0.31 h -0.94 l -3.88,-0.15 h -0.92 l -13,-0.51 a 0.52,0.52 0 0 0 -0.47,0.2 L 86,249.58 c -0.07,0.19 0.16,0.42 0.48,0.42 z"
       style="opacity:0.2;fill:#ffffff"
       id="path409" />
    <path
       d="m 109.39,250.94 h -0.87 a 0.25,0.25 0 0 1 -0.29,-0.22 l 0.48,-3.61 c 0,-0.11 0.17,-0.2 0.35,-0.2 h 0.87 c 0.17,0 0.3,0.1 0.29,0.21 l -0.48,3.62 a 0.35,0.35 0 0 1 -0.35,0.2 z"
       style="fill:#263238"
       id="path411" />
    <path
       d="m 94.31,250.72 h -0.82 a 0.23,0.23 0 0 1 -0.28,-0.2 l 0.49,-3.63 c 0,-0.09 0.17,-0.19 0.33,-0.18 h 0.82 c 0.17,0 0.29,0.09 0.28,0.2 l -0.49,3.61 c -0.01,0.12 -0.16,0.2 -0.33,0.2 z"
       style="fill:#263238"
       id="path413" />
    <polygon
       points="105,212.88 125.41,212.88 123.02,240.16 102.62,240.16 "
       style="fill:#a61c3c"
       id="polygon415" />
    <path
       d="m 86.59,235.07 a 3.64,3.64 0 0 0 1.1,-3 c 0,0 0,-1.66 0.06,-4.18 0.08,-7.39 0.14,-22.12 -0.63,-24.07 -1.68,-4.23 -4.56,-6.52 -6.07,-4.05 -1.77,2.89 -1.9,24.77 -1.9,24.77 0.42,14.46 5.72,12.55 7.44,10.53 z"
       style="fill:#b97964"
       id="path417" />
    <path
       d="m 114.78,232.87 v -0.07 0.1 c 0,0 -3.31,1.94 -6.1,1.38 l -0.86,-2.75 3.65,-4.84 0.22,-0.29 0.29,-0.09 3.78,-1.08 a 1.49,1.49 0 0 1 1.82,1 l 0.9,2.8 a 1.49,1.49 0 0 1 -0.56,1.66 z"
       style="fill:#b97964"
       id="path419" />
    <path
       d="m 82.22,235.87 c 2.39,2.94 26.81,-1.41 27,-1.5 0.8,-0.36 0.92,-2.45 0,-3.21 -0.5,-0.42 -25.47,-2.68 -27.2,-2.82 -2.95,4.54 -1.02,6.03 0.2,7.53 z"
       style="fill:#b97964"
       id="path421" />
    <path
       d="m 116.83,168 c 3.31,4 5,7 3,20.47 -0.38,2.53 0.72,8.49 1.2,8.55 -13,-1.52 -16.77,-3.66 -23,-7.44 C 94,187 90.59,177.86 91.67,173.13 c 1.17,-5.1 6.73,-11 12.1,-11.56 6.02,-0.57 9.29,1.83 13.06,6.43 z"
       style="fill:#263238"
       id="path423" />
    <path
       d="m 107.91,193.29 c -1.39,2.75 -2.23,5.88 1.14,8.66 a 4,4 0 0 1 1.42,2.3 c 0.28,1.46 -0.33,3 -5.52,1 -7.5,-2.94 -7.68,-7.63 -7.68,-7.63 3.41,-1.69 4.31,-9.63 4.42,-14.1 z"
       style="fill:#b97964"
       id="path425" />
    <path
       d="m 103.15,190 c -0.22,1.94 2.21,4.56 3.87,5.49 a 13,13 0 0 1 0.89,-2.15 l -3.69,-5.79 a 6.64,6.64 0 0 0 -1.07,2.45 z"
       style="opacity:0.2;isolation:isolate"
       id="path427" />
    <path
       d="M 98.28,172.52 A 9.64,9.64 0 0 1 110.75,167 c 7,2.66 8.3,13.17 7,19.61 -1.45,7.18 -10.06,9.49 -15.61,4.09 -3.71,-3.59 -3.81,-6.62 -4.43,-13.73 a 9.78,9.78 0 0 1 0.57,-4.45 z"
       style="fill:#b97964"
       id="path429" />
    <path
       d="m 99.14,184.46 a 10.26,10.26 0 0 0 2.45,-8.19 c 0,0 3.24,-3.32 3.08,-6.87 0,0 1,2.83 0,4.85 0,0 8.41,-0.61 8.22,-4.85 0,0 0.72,3.68 -0.55,4.78 0,0 5.81,-0.45 5.35,-4.42 -0.71,-6.13 -5.92,-6.45 -5.92,-6.45 0,0 -5.58,-4.74 -13.3,3.64 0,0 -9.08,5.67 -2.64,15.13 z"
       style="fill:#263238"
       id="path431" />
    <path
       d="m 113.51,184.07 a 2.49,2.49 0 0 0 2,-0.44 15.27,15.27 0 0 1 -2.11,-3.63 z"
       style="fill:#b74d3c"
       id="path433" />
    <path
       d="m 108.11,184.71 a 0.17,0.17 0 0 1 0,-0.23 0.16,0.16 0 0 1 0.23,0 4.56,4.56 0 0 0 3.78,1.71 0.17,0.17 0 0 1 0.17,0.16 v 0 a 0.15,0.15 0 0 1 -0.15,0.17 5.76,5.76 0 0 1 -0.83,0 4.85,4.85 0 0 1 -3.2,-1.81 z"
       style="fill:#263238"
       id="path435" />
    <path
       d="m 95,181.24 a 2.64,2.64 0 0 1 2.54,-2.72 c 2,0 3.33,2.48 3.62,4.21 0.29,1.92 -0.87,3.57 -2.77,2.78 A 6,6 0 0 1 95.26,182.29 2.75,2.75 0 0 1 95,181.24 Z"
       style="fill:#b97964"
       id="path437" />
    <path
       d="m 108.67,178 c 0,0.71 0.34,1.3 0.81,1.32 0.47,0.02 0.86,-0.55 0.87,-1.27 0.01,-0.72 -0.34,-1.3 -0.8,-1.32 -0.46,-0.02 -0.86,0.56 -0.88,1.27 z"
       style="fill:#263238"
       id="path439" />
    <path
       d="m 115.29,178.76 c 0,0.71 0.34,1.3 0.81,1.32 0.47,0.02 0.85,-0.55 0.87,-1.27 0.02,-0.72 -0.34,-1.3 -0.8,-1.32 -0.46,-0.02 -0.87,0.51 -0.88,1.27 z"
       style="fill:#263238"
       id="path441" />
    <path
       d="m 116,177.52 1.73,-0.44 c 0,0 -0.96,1.31 -1.73,0.44 z"
       style="fill:#263238"
       id="path443" />
    <path
       d="m 106.67,175.65 a 0.3,0.3 0 0 1 -0.16,-0.08 0.35,0.35 0 0 1 0,-0.5 v 0 a 4,4 0 0 1 3.52,-1.28 0.35,0.35 0 0 1 0.27,0.41 0.34,0.34 0 0 1 -0.4,0.27 3.42,3.42 0 0 0 -2.9,1.09 0.32,0.32 0 0 1 -0.33,0.09 z"
       style="fill:#263238"
       id="path445" />
    <path
       d="m 117.83,176.52 a 0.41,0.41 0 0 1 -0.14,-0.12 3.41,3.41 0 0 0 -2.7,-1.52 0.35,0.35 0 0 1 -0.36,-0.33 v 0 a 0.35,0.35 0 0 1 0.34,-0.36 4.16,4.16 0 0 1 3.3,1.82 0.35,0.35 0 0 1 -0.44,0.52 z"
       style="fill:#263238"
       id="path447" />
    <path
       d="m 109.34,176.77 1.72,-0.44 c 0,0 -0.91,1.31 -1.72,0.44 z"
       style="fill:#263238"
       id="path449" />
    <path
       d="m 84,197.13 a 5,5 0 0 1 4.76,1.33 9.67,9.67 0 0 1 2.42,5.32 c 0.38,3 -2.88,13.93 -2.8,17 -3.22,-1.76 -8,-4.18 -12.48,-4.62 0.63,-7.17 1.45,-11.95 2.85,-14.32 a 13,13 0 0 1 2.85,-3.75 6.62,6.62 0 0 1 2.4,-0.96 z"
       style="fill:#263238"
       id="path451" />
    <path
       d="m 114.86,407.39 c 2.28,2.26 3.48,3.43 9.63,4.84 1.36,0.3 0.48,3.55 -2.75,3.52 -5.34,-0.06 -2.42,-0.28 -7,-0.33 -3.9,0 -7.29,0 -10.39,0 a 1.63,1.63 0 0 1 -0.31,0 1.16,1.16 0 0 1 -0.86,-1.37 l 1.56,-6.94 a 0.65,0.65 0 0 1 0.66,-0.52 l 7.49,0.17 a 2.66,2.66 0 0 1 1.97,0.63 z"
       style="fill:#263238"
       id="path453" />
    <path
       d="m 91,407.88 c 1.46,2.86 2.23,4.35 7.64,7.61 1.19,0.71 -0.66,3.51 -3.72,2.48 -5,-1.73 -2.21,-1 -6.51,-2.48 -3.69,-1.26 -6.93,-2.27 -9.88,-3.21 a 1,1 0 0 1 -0.28,-0.13 1.15,1.15 0 0 1 -0.4,-1.57 l 3.65,-6.1 a 0.66,0.66 0 0 1 0.8,-0.29 l 7,2.5 a 2.64,2.64 0 0 1 1.7,1.19 z"
       style="fill:#263238"
       id="path455" />
  </g>
</svg>
