<?xml version="1.0" encoding="UTF-8" standalone="no"?>
<svg
   viewBox="0 0 354.35001 456.14102"
   version="1.1"
   id="svg141"
   sodipodi:docname="kpl-service-detail-sessions.svg"
   width="354.35001"
   height="456.14102"
   inkscape:version="1.1 (c68e22c387, 2021-05-23)"
   xmlns:inkscape="http://www.inkscape.org/namespaces/inkscape"
   xmlns:sodipodi="http://sodipodi.sourceforge.net/DTD/sodipodi-0.dtd"
   xmlns="http://www.w3.org/2000/svg"
   xmlns:svg="http://www.w3.org/2000/svg">
  <defs
     id="defs145" />
  <sodipodi:namedview
     id="namedview143"
     pagecolor="#ffffff"
     bordercolor="#666666"
     borderopacity="1.0"
     inkscape:pageshadow="2"
     inkscape:pageopacity="0.0"
     inkscape:pagecheckerboard="0"
     showgrid="false"
     inkscape:zoom="1.244"
     inkscape:cx="199.75884"
     inkscape:cy="226.6881"
     inkscape:window-width="1368"
     inkscape:window-height="850"
     inkscape:window-x="-6"
     inkscape:window-y="-6"
     inkscape:window-maximized="1"
     inkscape:current-layer="svg141" />
  <g
     id="freepik--Device--inject-2"
     transform="translate(-49.73,-23.489997)">
    <rect
       x="193.7"
       y="42.5"
       width="201.83"
       height="373.89001"
       style="fill:#ffffff"
       id="rect2" />
    <rect
       x="193.7"
       y="352.63"
       width="201.83"
       height="63.759998"
       style="fill:#dedede"
       id="rect4" />
    <path
       d="m 401.59,116.06 a 2.49,2.49 0 0 0 2.49,-2.49 V 88.64 a 2.49,2.49 0 0 0 -2.49,-2.49 2.42,2.42 0 0 0 -0.47,0 V 39.56 A 16.07,16.07 0 0 0 385.05,23.49 H 207.9 a 16.07,16.07 0 0 0 -16.08,16.07 v 376.29 a 16.08,16.08 0 0 0 16.08,16.08 h 177.15 a 16.08,16.08 0 0 0 16.07,-16.08 V 186.93 a 2.42,2.42 0 0 0 0.47,0 2.5,2.5 0 0 0 2.49,-2.5 v -24.88 a 2.49,2.49 0 0 0 -2.49,-2.49 2.42,2.42 0 0 0 -0.47,0.05 v -5.64 a 2.42,2.42 0 0 0 0.47,0.05 2.5,2.5 0 0 0 2.49,-2.49 v -24.94 a 2.5,2.5 0 0 0 -2.49,-2.49 2.42,2.42 0 0 0 -0.47,0.05 V 116 a 2.42,2.42 0 0 0 0.47,0.06 z m -9.78,291.63 H 201.13 V 51.22 h 190.68 z"
       style="fill:#263238"
       id="path6" />
    <rect
       x="369.51001"
       y="54.919998"
       width="15.81"
       height="8.6700001"
       style="fill:none;stroke:#263238;stroke-width:0.821067px;stroke-linecap:round;stroke-linejoin:round"
       id="rect8" />
    <rect
       x="369.51001"
       y="54.919998"
       width="12.33"
       height="8.6700001"
       style="fill:#263238;stroke:#263238;stroke-width:0.725073px;stroke-linecap:round;stroke-linejoin:round"
       id="rect10" />
    <rect
       x="385.29001"
       y="57.349998"
       width="2.23"
       height="3.8199999"
       style="fill:#263238;stroke:#263238;stroke-width:0.725073px;stroke-linecap:round;stroke-linejoin:round"
       id="rect12" />
    <rect
       x="205.42"
       y="57.610001"
       width="2.9000001"
       height="4.9699998"
       style="fill:#263238;stroke:#263238;stroke-width:0.883086px;stroke-linecap:round;stroke-linejoin:round"
       id="rect14" />
    <rect
       x="209.98"
       y="55.869999"
       width="2.9000001"
       height="6.71"
       style="fill:#263238;stroke:#263238;stroke-width:0.883086px;stroke-linecap:round;stroke-linejoin:round"
       id="rect16" />
    <rect
       x="214.53"
       y="53.799999"
       width="2.9000001"
       height="8.7799997"
       style="fill:#263238;stroke:#263238;stroke-width:0.883086px;stroke-linecap:round;stroke-linejoin:round"
       id="rect18" />
    <rect
       x="204.2"
       y="68.410004"
       width="183.11"
       height="48.119999"
       style="fill:#439a86"
       id="rect20" />
    <line
       x1="250.48"
       y1="75.339996"
       x2="250.48"
       y2="110.67"
       style="fill:none;stroke:#ffffff;stroke-miterlimit:10"
       id="line22" />
    <line
       x1="297.14001"
       y1="75.339996"
       x2="297.14001"
       y2="110.67"
       style="fill:none;stroke:#ffffff;stroke-miterlimit:10"
       id="line24" />
    <line
       x1="343.81"
       y1="75.339996"
       x2="343.81"
       y2="110.67"
       style="fill:none;stroke:#ffffff;stroke-miterlimit:10"
       id="line26" />
    <path
       d="m 399.47,186.93 a 2.42,2.42 0 0 0 0.47,0 2.5,2.5 0 0 0 2.49,-2.5 v -8.93 l -12.27,21.63 V 407.69 H 270.79 L 257,431.93 h 126.39 a 16.08,16.08 0 0 0 16.08,-16.08 z"
       style="opacity:0.15;fill:#ffffff"
       id="path28" />
  </g>
  <g
     id="freepik--qr-code--inject-2"
     transform="translate(-49.73,-23.489997)">
    <path
       d="M 288.73,282.43 V 271 v 0 h 5.71 v -5.75 h -5.69 c 0,-1.91 0,-3.83 0,-5.74 h 11.45 v -5.71 h 5.72 v 5.68 h 5.74 V 248 h 17.2 v 5.71 h 5.69 V 248 h -5.71 v -5.76 h -11.47 v -11.38 h -17.21 v 5.72 h -11.41 v 11.47 h 5.68 v 5.72 h -5.71 v 5.73 H 283 v -5.74 h -17.19 v -5.71 H 283 v -45.88 h 5.75 v 0 q 0,8.28 0,16.56 v 0.62 h 5.73 v -11.43 h 5.71 v 11.45 h 5.76 v 5.71 h 28.66 v 5.72 h 5.74 v 5.77 0 h -5.71 v 5.75 h 5.69 v 11.48 h 5.75 v 0 11.46 h -5.69 V 276.7 H 346 v 5.73 h 11.45 v 5.72 h -17.12 v 11.45 h -5.72 v -5.72 h -11.5 v 0 -5.73 h -5.72 v -5.72 h 11.41 v -5.73 h -28.59 v 5.7 h -11.48 z m 34.38,-17.2 v -5.7 h -5.69 v 5.69 h 5.71 v 5.71 h 11.42 v -5.7 z m -11.48,0 H 306 v 5.67 h 5.67 z m 11.51,-28.73 h 5.67 v -5.68 h -5.67 z"
       style="fill:#263238"
       id="path31" />
    <path
       d="m 237.14,219.33 v -40.08 h 40.07 v 40.08 z M 242.89,185 v 28.61 h 28.6 V 185 Z"
       style="fill:#263238"
       id="path33" />
    <path
       d="m 357.48,219.34 h -40.07 v -40.07 h 40.07 z M 351.76,185 h -28.6 v 28.6 h 28.6 z"
       style="fill:#263238"
       id="path35" />
    <path
       d="m 237.15,259.51 h 40.08 v 40.08 h -40.08 z m 34.35,5.75 h -28.61 v 28.61 h 28.61 z"
       style="fill:#263238"
       id="path37" />
    <path
       d="M 288.72,202.17 V 190.7 H 283 v -11.44 h 28.61 v 11.42 H 306 v 5.74 h 5.67 v 11.44 h -5.71 v -5.69 h -5.76 v -5.72 h -5.72 v 5.7 h -5.77 z m 5.75,-11.51 h 5.68 V 185 h -5.68 z"
       style="fill:#263238"
       id="path39" />
    <path
       d="m 265.78,230.82 v 5.73 h 11.45 v 5.72 h -17.17 v 11.46 h -22.9 v -11.4 h 5.67 V 248 h 11.5 v -17.18 h 11.46 z"
       style="fill:#263238"
       id="path41" />
    <path
       d="m 288.71,282.42 v 5.73 h 5.73 v 5.72 h 5.71 v 5.73 H 283 v -17.17 h 5.69 z"
       style="fill:#263238"
       id="path43" />
    <path
       d="m 254.33,230.82 h -11.46 v 5.71 h -5.71 v -11.4 h 17.15 v 5.7 z"
       style="fill:#263238"
       id="path45" />
    <path
       d="m 357.48,242.27 h -5.68 v -11.43 h -5.72 v -5.72 h 11.4 z"
       style="fill:#263238"
       id="path47" />
    <path
       d="m 265.79,230.84 v -5.71 h 11.43 v 5.69 h -11.44 z"
       style="fill:#263238"
       id="path49" />
    <path
       d="m 346.06,253.77 v -5.71 h 5.69 v 5.69 H 346 Z"
       style="fill:#263238"
       id="path51" />
    <path
       d="m 351.81,259.52 h 5.67 v 5.68 h -5.67 z"
       style="fill:#263238"
       id="path53" />
    <path
       d="m 305.92,219.37 v -5.71 h 5.7 v 5.69 h -5.71 z"
       style="fill:#263238"
       id="path55" />
    <path
       d="M 288.73,271 H 283 v -5.72 h 5.69 V 271 Z"
       style="fill:#263238"
       id="path57" />
    <path
       d="M 346.06,276.7 V 271 h 5.69 v 5.69 h -5.69 z"
       style="fill:#263238"
       id="path59" />
    <path
       d="M 340.31,236.57 H 346 v 5.72 h -5.69 v -5.75 z"
       style="fill:#263238"
       id="path61" />
    <path
       d="m 311.62,293.87 h -5.68 v -5.67 h 5.68 z"
       style="fill:#263238"
       id="path63" />
    <path
       d="m 323.11,293.88 v 5.71 h -5.69 v -5.69 h 5.71 z"
       style="fill:#263238"
       id="path65" />
    <path
       d="m 357.48,299.61 h -5.67 v -5.68 h 5.67 z"
       style="fill:#263238"
       id="path67" />
    <path
       d="M 311.66,248 H 306 v -5.69 h 5.7 V 248 Z"
       style="fill:#263238"
       id="path69" />
    <path
       d="m 265.75,207.87 h -17.14 v -17.14 h 17.14 z"
       style="fill:#263238"
       id="path71" />
    <path
       d="M 328.87,207.86 V 190.72 H 346 v 17.14 z"
       style="fill:#263238"
       id="path73" />
    <path
       d="M 248.61,288.13 V 271 h 17.14 v 17.14 z"
       style="fill:#263238"
       id="path75" />
    <polyline
       points="253.79 165.67 228.69 165.67 228.69 193.36"
       style="fill:none;stroke:#439a86;stroke-width:2px;stroke-miterlimit:10"
       id="polyline77" />
    <polyline
       points="345.07 165.67 370.16 165.67 370.16 193.36"
       style="fill:none;stroke:#439a86;stroke-width:2px;stroke-miterlimit:10"
       id="polyline79" />
    <polyline
       points="253.79 311.49 228.69 311.49 228.69 283.8"
       style="fill:none;stroke:#439a86;stroke-width:2px;stroke-miterlimit:10"
       id="polyline81" />
    <polyline
       points="345.07 311.49 370.16 311.49 370.16 283.8"
       style="fill:none;stroke:#439a86;stroke-width:2px;stroke-miterlimit:10"
       id="polyline83" />
  </g>
  <g
     id="freepik--Character--inject-2"
     transform="translate(-49.73,-23.489997)">
    <rect
       x="166.42"
       y="171.67"
       width="13.67"
       height="28.67"
       rx="2.6700001"
       style="fill:#263238;stroke:#263238;stroke-miterlimit:10"
       id="rect86" />
    <rect
       x="167.62"
       y="174.2"
       width="11.25"
       height="23.6"
       style="fill:#ffffff;stroke:#263238;stroke-miterlimit:10"
       id="rect88" />
    <path
       d="M 57.66,312.17 A 21.6,21.6 0 0 0 69,308.88 c -0.22,6.38 -0.39,11.21 -0.39,11.21 0,0 1.1,1.92 1.65,2.75 0.55,0.83 5.22,3.57 5.77,6.05 0.55,2.48 3,3.85 2.75,7.42 -0.25,3.57 -3.3,-0.28 -2.75,0.55 0.55,0.83 2.2,3.57 2.2,6.05 0,2.48 -5.22,2.47 -7.15,0.82 -1.93,-1.65 -8.24,-5.5 -8.79,-9.07 l -2.15,-8 z"
       style="fill:#ffffff;stroke:#263238;stroke-miterlimit:10"
       id="path90" />
    <path
       d="m 69.08,332 1.34,6 c 0,0 4.33,3.33 4.66,5.67"
       style="fill:#ffffff;stroke:#263238;stroke-miterlimit:10"
       id="path92" />
    <line
       x1="76.019997"
       y1="336.85999"
       x2="74.080002"
       y2="333"
       style="fill:#ffffff;stroke:#263238;stroke-miterlimit:10"
       id="line94" />
    <path
       d="m 90.69,458.77 c 0,0 -1.57,12.87 -0.35,14.44 a 9.17,9.17 0 0 0 5.91,3.79 c 2.78,0.35 7.48,-1.22 7.48,-1.22 a 28.38,28.38 0 0 0 9.74,0.87 c 5,-0.52 8.34,-2.43 8.69,-4.87 0.35,-2.44 -4,-3.47 -6.43,-6.08 -2.43,-2.61 -6.31,-7.23 -6.31,-7.23 l -1,-3.38 c 0,0 -5.91,3 -9.73,3.13 a 23.11,23.11 0 0 1 -6.44,-0.52 z"
       style="fill:#ffffff;stroke:#263238;stroke-miterlimit:10"
       id="path96" />
    <path
       d="m 122.16,471.81 a 1.86,1.86 0 0 0 -0.08,-0.85 c -1.15,0.48 -2.62,1.06 -4.44,1.72 -5.22,1.92 -7.83,0.35 -10.43,0.35 -2.6,0 -2.79,2.78 -10.09,0.87 -4.77,-1.25 -6.56,-2.86 -7.24,-3.84 a 6.86,6.86 0 0 0 0.46,3.15 9.17,9.17 0 0 0 5.91,3.79 c 2.78,0.35 7.48,-1.22 7.48,-1.22 a 28.38,28.38 0 0 0 9.74,0.87 c 5.04,-0.49 8.34,-2.4 8.69,-4.84 z"
       style="fill:#ffffff;stroke:#263238;stroke-miterlimit:10"
       id="path98" />
    <path
       d="m 81.42,299 c 0,0 -7,23.5 -4.5,40 2.5,16.5 14.5,47.5 14.5,47.5 0,0 -1.5,11.5 -1.5,15.5 0,4 -3.5,11.5 -1,19.5 2.5,8 2.5,29 2.5,30.5 0,1.5 -1,9.5 -1,9.5 0,0 2,3 9.5,3 7.5,0 9.5,-6 9.5,-6 0,0 7.5,-44.5 7.5,-51.5 0,-7 8,-33 11,-43.5 a 89.6,89.6 0 0 1 8.65,-20.68 c 2,-3.5 0.85,-45.82 0.85,-45.82 l -57,-5 z"
       style="fill:#737373;stroke:#263238;stroke-miterlimit:10"
       id="path100" />
    <path
       d="m 120.77,462.08 c 0,0 7.48,2.95 11.13,4.69 3.65,1.74 6.08,1.91 6.08,4.7 0,2.79 -6.6,5.56 -10.6,6.26 -4,0.7 -10.44,0.52 -11.13,0.69 -0.69,0.17 -13.74,2.09 -15.3,-1.22 -1.56,-3.31 0.17,-14.6 0.17,-14.6 a 50.57,50.57 0 0 0 19.65,-0.52 z"
       style="fill:#ffffff;stroke:#263238;stroke-miterlimit:10"
       id="path102" />
    <path
       d="m 116.25,478.42 c 0.69,-0.17 7.13,0 11.13,-0.69 4,-0.69 10.6,-3.48 10.6,-6.26 a 3.56,3.56 0 0 0 -0.16,-1.08 48.36,48.36 0 0 1 -5.23,2.64 c -4.87,2.09 -11.3,3.48 -21,3.31 a 44.88,44.88 0 0 1 -11.14,-1.43 7.34,7.34 0 0 0 0.54,2.29 c 1.52,3.31 14.56,1.4 15.26,1.22 z"
       style="fill:#ffffff;stroke:#263238;stroke-miterlimit:10"
       id="path104" />
    <path
       d="m 137.92,301 c 0,0 3,40.5 -3,71 -6,30.5 -16,72 -16.5,74 -0.5,2 3.5,7.5 3.5,7.5 v 8 c 0,0 -3.5,3.5 -11.5,4.5 -8,1 -10.5,-1.5 -10.5,-1.5 0,0 -2,-13.5 -2,-23 0,-9.5 2,-42 2,-42 0,0 4.5,-33 4,-38 -0.5,-5 -2,-20.5 -2,-20.5 l -8,-9.5"
       style="fill:#737373;stroke:#263238;stroke-miterlimit:10"
       id="path106" />
    <path
       d="m 53.87,293.38 15.73,-2.76 c -0.07,2.13 0.38,-11.33 0.38,-12.33 0,-2.2 5.22,-16 5.22,-16 0,0 4.12,17.88 4.12,20.08 0,2.2 -1.65,19 0.55,21.17 2.2,2.17 9.9,6.6 26.95,6.05 17.05,-0.55 29.7,-1.93 33,-5.23 3.3,-3.3 -0.55,-13.47 -0.83,-14.84 -0.28,-1.37 4.4,-37.4 4.4,-37.4 0,0 18.42,19.25 29.42,16.5 11,-2.75 5.78,-45.62 5.78,-45.62 l 0.55,-12.37 c 0,0 3.57,-9.07 3.57,-10.45 0,-1.38 -3.57,-11.27 -3.57,-11.27 0,0 -2.2,-1.93 -3.58,2.75 a 45.12,45.12 0 0 0 -1.65,7.7 c 0,0 -3.3,2.47 -3,6.05 a 23.65,23.65 0 0 0 1.37,6.32 L 164.84,236 c 0,0 -8.25,-9.35 -8.8,-11 -0.55,-1.65 -0.28,-7.7 -7.15,-11.28 -6.87,-3.58 -20.9,-3.85 -20.9,-3.85 l -38.77,0.28 c 0,0 -18.15,1.6 -22.22,5.17 -4.07,3.57 -16.77,48.95 -16.77,55.82 0,2.15 1.12,8.81 2.69,17.05 z"
       style="fill:#ffffff;stroke:#263238;stroke-miterlimit:10"
       id="path108" />
    <path
       d="m 179.14,188.93 c 0,0 -0.83,6.87 -0.28,8.25 a 15.36,15.36 0 0 1 0.55,7.42"
       style="fill:none;stroke:#263238;stroke-miterlimit:10"
       id="path110" />
    <path
       d="m 172.81,268.67 c 11,-2.75 5.78,-45.65 5.78,-45.65 l 0.12,-2.77 a 9.94,9.94 0 0 0 -8.54,-1.69 L 164.84,236 c 0,0 -8.25,-9.35 -8.8,-11 -0.55,-1.65 -0.28,-7.7 -7.15,-11.28 -6.87,-3.58 -20.9,-3.85 -20.9,-3.85 l -38.77,0.28 c 0,0 -18.15,1.6 -22.22,5.17 -4.07,3.57 -16.77,48.95 -16.77,55.82 0,4.08 4.06,24.42 7.48,41 A 21.6,21.6 0 0 0 69,308.88 c 0.4,-11.89 1,-29.16 1,-30.59 0,-2.2 5.22,-16 5.22,-16 0,0 4.12,17.88 4.12,20.08 0,2.2 -1.65,19 0.55,21.17 2.2,2.17 9.9,6.6 26.95,6.05 17.05,-0.55 29.7,-1.93 33,-5.23 3.3,-3.3 -0.55,-13.47 -0.83,-14.84 -0.28,-1.37 4.4,-37.4 4.4,-37.4 0,0 18.4,19.3 29.4,16.55 z"
       style="fill:#439a86;stroke:#263238;stroke-miterlimit:10"
       id="path112" />
    <polyline
       points="69.8 247.21 75.2 262.34 64.08 243.33"
       style="fill:none;stroke:#263238;stroke-miterlimit:10"
       id="polyline114" />
    <line
       x1="66.75"
       y1="238.67"
       x2="68.660004"
       y2="244.02"
       style="fill:none;stroke:#263238;stroke-miterlimit:10"
       id="line116" />
    <path
       d="m 104.83,248.28 c 2.43,5.46 6,12.31 10.25,16.72"
       style="fill:none;stroke:#263238;stroke-miterlimit:10"
       id="path118" />
    <path
       d="m 101.42,239.67 c 0,0 0.75,2.25 2.09,5.52"
       style="fill:none;stroke:#263238;stroke-miterlimit:10"
       id="path120" />
    <path
       d="m 107.42,258 c 0,0 6,12 9,14.33"
       style="fill:none;stroke:#263238;stroke-miterlimit:10"
       id="path122" />
    <line
       x1="152.8"
       y1="243.45"
       x2="155.08"
       y2="241.33"
       style="fill:none;stroke:#263238;stroke-miterlimit:10"
       id="line124" />
    <polyline
       points="149.08 240.33 143.39 252.17 150.73 245.37"
       style="fill:none;stroke:#263238;stroke-miterlimit:10"
       id="polyline126" />
    <path
       d="m 175.08,247 c -0.33,-2.33 -10.24,-11.05 -10.24,-11.05 0,0 10.24,4.05 12.91,7.72"
       style="fill:none;stroke:#263238;stroke-miterlimit:10"
       id="path128" />
    <path
       d="m 131.84,173.8 c 0,0 0.55,6.88 1.38,8 0.83,1.12 1.37,9.62 0,12.1 -1.37,2.48 -2.2,5.5 -3,6.32 -0.8,0.82 -3.85,0.83 -5,0.83 -1.15,0 -13.47,-0.55 -13.47,-0.55 l 0.28,-17.33 c 0,0 3.04,-12.94 19.81,-9.37 z"
       style="fill:#ffffff;stroke:#263238;stroke-miterlimit:10"
       id="path130" />
    <path
       d="m 109.85,154.56 c 0,0 -11.28,3.57 -13.75,13.44 -2.47,9.87 5.5,21.17 5.5,21.17 0,0 2.2,8 4.12,9.63 1.92,1.63 9.62,0 12.1,-0.55 2.48,-0.55 8,-15.4 8,-15.4 0,0 0,3.57 1.65,3.57 1.65,0 1.38,-4.67 1.38,-5.5 0,-0.83 7.7,-6.6 7.7,-16.49 0,-9.89 -8.55,-14.27 -16.55,-13.72 -8,0.55 -10.15,3.85 -10.15,3.85 z"
       style="fill:#263238;stroke:#263238;stroke-miterlimit:10"
       id="path132" />
    <path
       d="m 133.22,209.27 c 0,0 -1.65,-5.77 -2.48,-6.59 -0.83,-0.82 -6.05,-4.13 -14.57,-4.68 -8.52,-0.55 -21.17,-0.27 -22.27,0.28 -1.1,0.55 -1.38,5.22 -1.38,5.22 0,0 -3.57,3.3 -4.4,5.23 -0.83,1.93 -1.65,2.74 6,9.07 7.65,6.33 11.83,8.8 19.8,6.87 7.97,-1.93 19.52,-13.47 19.52,-13.47 z"
       style="fill:#439a86;stroke:#263238;stroke-miterlimit:10"
       id="path134" />
    <path
       d="M 113.55,213.17 A 83.29,83.29 0 0 0 129.09,206"
       style="fill:none;stroke:#263238;stroke-miterlimit:10"
       id="path136" />
    <path
       d="m 92.52,204.6 c 0,0 5,9.9 13.75,9.9 a 18.92,18.92 0 0 0 3.55,-0.38"
       style="fill:none;stroke:#263238;stroke-miterlimit:10"
       id="path138" />
  </g>
</svg>
