<svg xmlns="http://www.w3.org/2000/svg" viewBox="0 0 500 500"><g id="freepik--Windows--inject-51"><polygon points="340.04 40.48 333.7 36.86 333.3 175.38 333.32 175.39 384.4 204.56 384.42 197.3 384.8 66.03 340.04 40.48" style="fill:#f0f0f0"></polygon><polygon points="339.66 171.75 340.04 40.48 333.7 36.86 333.3 175.38 333.32 175.39 339.68 171.76 339.66 171.75" style="opacity:0.1"></polygon><polygon points="384.42 197.3 339.68 171.76 333.32 175.39 384.4 204.56 384.42 197.3" style="opacity:0.2"></polygon><polygon points="409.94 80.39 403.6 76.77 403.2 215.29 403.22 215.3 454.3 244.47 454.32 237.21 454.7 105.95 409.94 80.39" style="fill:#f0f0f0"></polygon><polygon points="409.56 211.66 409.94 80.39 403.6 76.77 403.2 215.29 403.22 215.3 409.58 211.67 409.56 211.66" style="opacity:0.1"></polygon><polygon points="454.32 237.21 409.58 211.67 403.22 215.3 454.3 244.47 454.32 237.21" style="opacity:0.2"></polygon></g><g id="freepik--Screen--inject-51"><path d="M77.29,340.11a5.36,5.36,0,0,1-.74.34A5.36,5.36,0,0,0,77.29,340.11Z" style="fill:#455a64"></path><path d="M76,340.57l-.16,0Z" style="fill:#455a64"></path><path d="M74.73,340.43h0l0,0Z" style="fill:#455a64"></path><path d="M286.47,43.31h0a2.62,2.62,0,0,0-2.73.23L70.45,166.68a8.34,8.34,0,0,0-3.76,6.52l0,7.05h0l0,0v.28l0,11.94v.27L67.12,334a2.66,2.66,0,0,0,1.08,2.39h0l0,0,0,0,6.29,3.84a2.65,2.65,0,0,1-1-2.36L73.1,196.4h0l0-12.22,0,0,0-7a8.29,8.29,0,0,1,3.76-6.53L290.12,47.45a2.7,2.7,0,0,1,2.64-.28Z" style="fill:#A61C3C"></path><path d="M66.69,173.2l0,7.05h0l0,0v.28l0,11.94v.27L67.12,334a2.66,2.66,0,0,0,1.08,2.39h0l0,0,0,0,6.29,3.84a2.65,2.65,0,0,1-1-2.36L73.1,196.4h0l0-12.22,0,0,0-7a7.42,7.42,0,0,1,.84-3.21l-6.46-3.74A7.33,7.33,0,0,0,66.69,173.2Z" style="fill:#fff;opacity:0.2"></path><path d="M286.47,43.31h0a2.62,2.62,0,0,0-2.73.23L70.45,166.68a8.07,8.07,0,0,0-3,3.49l6.46,3.74a7.93,7.93,0,0,1,2.92-3.32L290.12,47.45a2.7,2.7,0,0,1,2.64-.28Z" style="fill:#fff;opacity:0.30000000000000004"></path><path d="M293.94,68.92h0l0-12.19,0-.07,0-7c0-2.39-1.71-3.36-3.79-2.16L76.83,170.59a8.29,8.29,0,0,0-3.76,6.53l0,7,0,.08,0,12.22h0L73.5,338c0,2.39,1.7,3.36,3.79,2.16L290.58,217a8.28,8.28,0,0,0,3.76-6.51Z" style="fill:#A61C3C"></path><path d="M85.67,193.22a3,3,0,0,1,1.5-2.58l57.67-32.81a1.49,1.49,0,0,1,2.22,1.3V267.45a3,3,0,0,1-1.5,2.58L87.89,302.89a1.49,1.49,0,0,1-2.22-1.29Z" style="opacity:0.2"></path><path d="M153.36,154.38a3,3,0,0,1,1.5-2.58L212.53,119a1.48,1.48,0,0,1,2.22,1.29V228.61a3,3,0,0,1-1.5,2.58l-57.67,32.86a1.49,1.49,0,0,1-2.22-1.29Z" style="opacity:0.2"></path><path d="M221.05,115.54a3,3,0,0,1,1.5-2.58l57.67-32.8a1.48,1.48,0,0,1,2.22,1.29V189.77a3,3,0,0,1-1.5,2.58l-57.67,32.86a1.49,1.49,0,0,1-2.22-1.29Z" style="opacity:0.2"></path><path d="M138.1,142.66a3.73,3.73,0,0,1,2.41-.61c.19,0,.38.17.38.54a1.7,1.7,0,0,1-.78,1.34.73.73,0,0,1-.43.11,2.61,2.61,0,0,0-1.6.33,1.75,1.75,0,0,0-1,1.33v0c0,.57.33.57,1.65.2,1.54-.43,2.42-.29,2.42,1.23v0a5.2,5.2,0,0,1-2.78,4.32,3.94,3.94,0,0,1-2.87.6c-.19,0-.32-.23-.32-.53a1.72,1.72,0,0,1,.78-1.35.65.65,0,0,1,.48-.1,2.51,2.51,0,0,0,2-.34,1.89,1.89,0,0,0,1.09-1.45v0c0-.48-.26-.58-1.54-.22-1.54.43-2.53.51-2.53-1.22v0A5.14,5.14,0,0,1,138.1,142.66Z" style="fill:#fff"></path><path d="M147.68,137.25c.41-.23.76,0,.76.43a1.65,1.65,0,0,1-.75,1.29l-3.4,2v1.77L147.2,141c.41-.24.76-.05.76.43a1.63,1.63,0,0,1-.75,1.28l-2.91,1.68v1.83l3.45-2c.42-.24.75,0,.76.43a1.65,1.65,0,0,1-.75,1.29l-4.28,2.47c-.47.27-.84.06-.84-.49l0-6.82a1.83,1.83,0,0,1,.84-1.45Z" style="fill:#fff"></path><path d="M150.75,135.4c.47-.27.85-.06.85.48V142l3.1-1.78c.43-.25.77-.05.77.44a1.67,1.67,0,0,1-.76,1.31l-3.94,2.27c-.47.27-.84.07-.85-.48v-6.89A1.82,1.82,0,0,1,150.75,135.4Z" style="fill:#fff"></path><path d="M161.71,129.15c.42-.24.76,0,.76.43a1.63,1.63,0,0,1-.75,1.29l-3.39,1.95v1.78l2.89-1.68c.42-.24.76,0,.76.43a1.63,1.63,0,0,1-.75,1.29l-2.9,1.68v1.83l3.44-2c.42-.24.75,0,.76.43a1.65,1.65,0,0,1-.75,1.28l-4.28,2.47c-.47.27-.84.06-.84-.48l0-6.82a1.83,1.83,0,0,1,.83-1.45Z" style="fill:#fff"></path><path d="M167.59,125.61a3.25,3.25,0,0,1,2.55-.58.54.54,0,0,1,.33.57,1.81,1.81,0,0,1-.83,1.42.73.73,0,0,1-.5.1,1.92,1.92,0,0,0-1.56.27,4.94,4.94,0,0,0-2.2,4v0c0,1.5.91,2.22,2.22,1.47a5,5,0,0,0,1.65-1.65,1.59,1.59,0,0,1,.5-.5c.43-.24.79-.06.79.43a1.72,1.72,0,0,1-.28.86,7.68,7.68,0,0,1-2.71,2.66c-2.24,1.3-3.91.27-3.92-2.25A8.45,8.45,0,0,1,167.59,125.61Z" style="fill:#fff"></path><path d="M177.05,120.29c.43-.24.77,0,.77.45a1.68,1.68,0,0,1-.76,1.33l-1.61.93,0,6.09a1.85,1.85,0,0,1-.84,1.45c-.47.27-.84.06-.85-.48V124l-1.61.93c-.43.24-.78,0-.78-.44a1.75,1.75,0,0,1,.77-1.34Z" style="fill:#fff"></path><path d="M185.43,115.46c1.82-1,2.92-.44,2.92,1.35a5.85,5.85,0,0,1-3.07,4.87l-1.27.74v1.74a1.8,1.8,0,0,1-.83,1.44c-.47.28-.84.07-.84-.48l0-6.9a1.82,1.82,0,0,1,.84-1.45Zm1.22,2.39v0c0-.87-.53-1-1.36-.55L184,118v2.68l1.33-.77a2.53,2.53,0,0,0,1.32-2.09" style="fill:#fff"></path><path d="M190.42,112.5c.48-.27.85-.06.85.48l0,6.11,3.1-1.79c.42-.25.76,0,.76.44a1.63,1.63,0,0,1-.76,1.31l-3.94,2.28c-.47.27-.84.06-.84-.48l0-6.9A1.83,1.83,0,0,1,190.42,112.5Z" style="fill:#fff"></path><path d="M209.38,101.55c.52-.3.82-.06.82.46a2.07,2.07,0,0,1-.21.8l-2.46,5.24v2.52a1.82,1.82,0,0,1-.83,1.45c-.47.27-.84.06-.84-.48v-2.49l-2.47-2.42a.79.79,0,0,1-.21-.57,1.8,1.8,0,0,1,.84-1.41.59.59,0,0,1,.83.11l1.85,2,1.88-4.18A2.1,2.1,0,0,1,209.38,101.55Z" style="fill:#fff"></path><path d="M203.29,112.68a.94.94,0,0,1,.08.34,1.73,1.73,0,0,1-.79,1.38c-.39.23-.66.12-.8-.2l-.52-1.07-3.35,1.93-.54,1.75a1.8,1.8,0,0,1-.76,1c-.44.26-.78.05-.78-.45a1.47,1.47,0,0,1,.1-.47l2.63-8.42a2.27,2.27,0,0,1,1-1.33l.1-.06c.45-.26.78-.17,1,.2Zm-4.77.32,2.11-1.21-1.06-2.29-1,3.5" style="fill:#fff"></path><path d="M216.41,97.57c.41-.24.75,0,.75.43a1.63,1.63,0,0,1-.75,1.29l-3.4,2V103l2.91-1.68c.41-.24.75,0,.75.43a1.63,1.63,0,0,1-.75,1.29L213,104.74v1.83l3.45-2c.42-.24.76,0,.76.43a1.65,1.65,0,0,1-.75,1.29l-4.28,2.47c-.47.27-.84.06-.84-.49l0-6.82a1.84,1.84,0,0,1,.83-1.45Z" style="fill:#fff"></path><path d="M225,95.53a5.08,5.08,0,0,1-1.52,3.54l1.17,1a.66.66,0,0,1,.28.57,1.7,1.7,0,0,1-.8,1.35.65.65,0,0,1-.83,0l-1.64-1.44-1.33.78v1.91a1.82,1.82,0,0,1-.83,1.45c-.47.27-.84.06-.84-.48l0-6.9a1.78,1.78,0,0,1,.83-1.45l2.64-1.53c1-.56,1.73-.68,2.23-.39A1.79,1.79,0,0,1,225,95.5Zm-1.7,1.08v0c0-.83-.5-1-1.32-.5l-1.67,1v2.52l1.7-1a2.38,2.38,0,0,0,1.28-2" style="fill:#fff"></path><polygon points="214.75 227.13 197.63 200.34 199.61 189.12 211.73 194.57 214.75 201.58 214.75 227.13" style="fill:#e0e0e0"></polygon><path d="M207.53,197.51a10.86,10.86,0,0,0,5.24-.52l-1-2.42-12.12-5.45-2,11.22,9.8,15.34A24.69,24.69,0,0,0,207.53,197.51Z" style="opacity:0.2"></path><path d="M192.28,184.14a12.82,12.82,0,0,1,22,12.13C205.7,196.1,197.3,191.06,192.28,184.14Z" style="fill:#e0e0e0"></path><path d="M204.81,189.77a25.21,25.21,0,0,1-10-7.81,12.61,12.61,0,0,0-2.49,2.18c5,6.92,13.42,12,22,12.13a12.35,12.35,0,0,0,.51-4.48A25.38,25.38,0,0,1,204.81,189.77Z" style="fill:#455a64"></path><path d="M209.69,192.65a18.24,18.24,0,0,1-5.49-1.84,7,7,0,0,0-2.95-11.08,13.15,13.15,0,0,0-6.48,2.23h0a13.18,13.18,0,0,0-1.26,1l-.07,0a12.7,12.7,0,0,0-1.16,1.16c5,6.92,13.42,12,22,12.13.12-.4.22-.8.3-1.21a23.68,23.68,0,0,1-9-2.31A13.51,13.51,0,0,0,209.69,192.65Z" style="opacity:0.2"></path><path d="M173.37,184.31a69,69,0,0,0-20,12.61v23.57c1.11,5.19,3.84,10.84,7.71,14.42a10.65,10.65,0,0,1,3.34,8.1,38.48,38.48,0,0,1-1.54,9.1c3.21,2.66,8.77,2.79,8.77,2.79l31-17.68c1.2-5.22.32-15.6.32-15.6,6.12-5.57,4.7-16.39,2.85-23a72.53,72.53,0,0,0-3.77-9.82,10.17,10.17,0,0,0-8-5.87C184.6,181.82,173.37,184.31,173.37,184.31Z" style="fill:#e0e0e0"></path><path d="M166.08,237.65a80.83,80.83,0,0,0,4.08-19.82,13.61,13.61,0,0,0,2.8-8.66l-1.72-6.84c-.78-2.71-4.17-7.71-12.7-9.65a63.15,63.15,0,0,0-5.18,4.24v23.57c1.11,5.19,3.84,10.84,7.7,14.42a10.62,10.62,0,0,1,3.35,8.1,38.48,38.48,0,0,1-1.54,9.1c3.21,2.66,8.77,2.79,8.77,2.79l8.52-4.86C172.16,245.16,169.1,240,166.08,237.65Z" style="opacity:0.2"></path><path d="M192.82,224.9c-8.31,7.21-14.43,9.5-20.11,8.57a17.73,17.73,0,0,0,17.11-1.2c1.81-1.25,3.38-2.85,5.32-3.89a18.93,18.93,0,0,1,8.11-1.76c-.09-2.84-.27-5-.27-5C199.16,224.68,192.82,224.9,192.82,224.9Z" style="opacity:0.2"></path><path d="M153.36,196.92c13.59,1.46,16.51,11.37,16.51,11.37-2.19,9.32-9.91,34-9.91,34,7.14,2.18,15.8,6.78,20.14,7.83L164,259.26a25.49,25.49,0,0,1-10.52-1.58Z" style="fill:#e0e0e0"></path><path d="M165.71,213.07a13.43,13.43,0,0,0,5.17-6.68,9.61,9.61,0,0,0,.36-4.06,16.35,16.35,0,0,0-5.57-5.79,16.15,16.15,0,0,0-12.31-1.62l0,21.47A18.61,18.61,0,0,0,165.71,213.07Z" style="fill:#e0e0e0"></path><path d="M173,206.72a16.11,16.11,0,0,0-1.72-4.39,9.61,9.61,0,0,1-.36,4.06,13.43,13.43,0,0,1-5.17,6.68,18.61,18.61,0,0,1-12.31,3.32v3.37c4.21.76,9.34,0,12.8-2.46S173.91,210.89,173,206.72Z" style="fill:#455a64"></path><path d="M168.41,203.21a3.48,3.48,0,0,1,.24,2.26,1.69,1.69,0,0,1-1.72,1.25,2.66,2.66,0,0,1-1.54-1.21l-3-4c-.54-.72-1.28-2-.34-2.75.64-.5,1.72,0,2.35.29A7.79,7.79,0,0,1,168.41,203.21Z" style="fill:#fff"></path><path d="M157.42,197.24a1.18,1.18,0,0,0,.1.76,1.63,1.63,0,0,0,1.23.92,1.41,1.41,0,0,0,1.36-.68,1.26,1.26,0,0,0-.19-1.48,1.47,1.47,0,0,0-1-.36C158.39,196.39,157.57,196.63,157.42,197.24Z" style="fill:#fff"></path><path d="M153.44,240.85v4.76c1.68-1.42,4.17-3.16,6.51-3.37A17.5,17.5,0,0,0,153.44,240.85Z" style="fill:#455a64"></path><path d="M160,242.24c-2.34.21-4.83,1.95-6.51,3.37l0,12.07s.4.16,1.07.38C153.42,253.61,156,245,160,242.24Z" style="fill:#37474f"></path><path d="M192.53,182.67c.51,2.66.95,13.81-1.1,25.25-3.21-5.46-20.18-17.63-27.92-18.63.68-3.23,7.09-6.07,13.57-7.31S190.56,180.23,192.53,182.67Z" style="fill:#e0e0e0"></path><path d="M192.53,182.67a5,5,0,0,0-2.95-1.44c.95,5.14,2.1,13.89,1,22.29-3-4.66-16.82-14-25.43-16.67a4.85,4.85,0,0,0-1.62,2.44c7.74,1,24.71,13.17,27.92,18.63C193.48,196.48,193,185.33,192.53,182.67Z" style="fill:#455a64"></path><path d="M168.82,156.76a7.39,7.39,0,0,1,4.72-2.54l24.64,2.32c2.85,6.11.58,10.15.58,10.15.38,9.33.7,15.25-3.34,17.22a18.61,18.61,0,0,1-9,1.26,21.15,21.15,0,0,1-8.26-2.22l-.13-.07a7.07,7.07,0,0,1-3.53-4.71,38.15,38.15,0,0,1-.85-5.52,23.55,23.55,0,0,0-.34-3.14,5.64,5.64,0,0,0-1.39-2.79,3.16,3.16,0,0,0-2.84-1,2.18,2.18,0,0,0-.5.2C167.87,161.8,167.67,158.21,168.82,156.76Z" style="fill:#263238"></path><polygon points="175.33 181.44 175.33 181.44 175.34 181.45 175.33 181.44" style="fill:#ffa8a7"></polygon><path d="M173.18,175.34s0,2.17.1,4.77A7.54,7.54,0,0,1,171,176.5,3.35,3.35,0,0,0,173.18,175.34Z" style="fill:#263238"></path><path d="M166.87,167.76a3.4,3.4,0,0,1,1.71-1.81,2.18,2.18,0,0,1,.5-.2,3.16,3.16,0,0,1,2.84,1,5.64,5.64,0,0,1,1.39,2.79,23.55,23.55,0,0,1,.34,3.14,38.38,38.38,0,0,0,.88,5.65,6.94,6.94,0,0,0,3.51,4.58l.12.07a21.15,21.15,0,0,0,8.26,2.22l0,2.49v5.92l-11.64-6.9a2.84,2.84,0,0,1-1.39-2.37c0-1.35-.06-2.83-.09-4.2-.05-2.6-.1-4.77-.1-4.77A3.35,3.35,0,0,1,171,176.5a2.93,2.93,0,0,1-1.15-.06,4.32,4.32,0,0,1-2.56-2.22,8.1,8.1,0,0,1-.82-3.39A6.8,6.8,0,0,1,166.87,167.76Z" style="fill:#ffa8a7"></path><path d="M176.5,182.78a8.15,8.15,0,0,1-1.44-3,7,7,0,0,0,3,3.13l.12.07a21.15,21.15,0,0,0,8.26,2.22v2.15a20.81,20.81,0,0,1-4.88-1A11.06,11.06,0,0,1,176.5,182.78Z" style="opacity:0.2"></path><path d="M177.84,157.47a8.8,8.8,0,0,1-.32,5.24A37.34,37.34,0,0,0,176,167.8a8.39,8.39,0,0,0,.68,5.14,5.94,5.94,0,0,0,3.93,3.18c2.65.57,5.23-1,7.89-1.52a10.94,10.94,0,0,1,7.42,1.33,1.28,1.28,0,0,0,1.94-1c.31-5.36.31-13.77-.48-17.72Z" style="fill:#ffa8a7"></path><path d="M194.63,166.41a1.09,1.09,0,1,1-1.09-1.08A1.08,1.08,0,0,1,194.63,166.41Z" style="fill:#263238"></path><polygon points="189.18 166.99 193.68 172.51 189.56 173.99 189.18 166.99" style="fill:#f28f8f"></polygon><path d="M185.78,176.74l3.47,1.08a2.12,2.12,0,0,1-2.34,1.09A2,2,0,0,1,185.78,176.74Z" style="fill:#f28f8f"></path><path d="M185.78,176.74l3.47,1.08a2.12,2.12,0,0,1-2.34,1.09A2,2,0,0,1,185.78,176.74Z" style="opacity:0.30000000000000004"></path><path d="M188.05,178.84a2,2,0,0,1-1.14.07,1.75,1.75,0,0,1-1.12-1.59,2,2,0,0,1,1.34.25A2.06,2.06,0,0,1,188.05,178.84Z" style="fill:#f28f8f"></path><path d="M198,164.77a48.57,48.57,0,0,0-.63-7.6l-19.49.3a8.8,8.8,0,0,1-.32,5.24A37.34,37.34,0,0,0,176,167.8l0,.27a46.31,46.31,0,0,0,14.35,3.37A39.06,39.06,0,0,0,198,164.77Z" style="opacity:0.2"></path><path d="M183.14,144.88h0a16.71,16.71,0,0,0-16.7,16.71V181.9l15,6.71,3.5,6.63v-23.1l-3.22-.92a5.27,5.27,0,0,1-3.78-4.64l-.23-2.92L190,167.35l6.77-4.92v4.44a3.52,3.52,0,0,1-1.07,2.52l-1.26,1.2v19.12l1.53-5.18,3.9-4.42V161.59A16.71,16.71,0,0,0,183.14,144.88Z" style="fill:#e0e0e0"></path><path d="M195.81,182.82l-.55,1.93.35-13.68.72-.68a5.12,5.12,0,0,0,1.61-3.73v-7.25l-8.29,6-13.87-4.17.43,5.46a7,7,0,0,0,5,6.19l1.95.56v15.63l-1.15-2.19-15.61-6.61v1.61l15,6.71,3.5,6.63v-23.1l-3.22-.92a5.27,5.27,0,0,1-3.78-4.64l-.23-2.92L190,167.35l6.77-4.92v4.44a3.52,3.52,0,0,1-1.07,2.52l-1.26,1.2v19.12l1.53-5.18,3.9-4.42V179Z" style="fill:#455a64"></path><path d="M185.31,167.79a1.09,1.09,0,1,1-1.08-1.08A1.08,1.08,0,0,1,185.31,167.79Z" style="fill:#263238"></path><path d="M195.25,153.65a3.47,3.47,0,0,1,.23,2.26,1.69,1.69,0,0,1-1.72,1.25,2.64,2.64,0,0,1-1.53-1.21l-3-4c-.54-.72-1.29-2-.34-2.75.64-.5,1.71,0,2.35.29A7.83,7.83,0,0,1,195.25,153.65Z" style="fill:#fff"></path><path d="M184.25,147.68a1.18,1.18,0,0,0,.1.76,1.64,1.64,0,0,0,1.24.92,1.42,1.42,0,0,0,1.36-.68,1.26,1.26,0,0,0-.2-1.48,1.45,1.45,0,0,0-1-.36C185.23,146.83,184.41,147.07,184.25,147.68Z" style="fill:#fff"></path><path d="M160.37,281.52a.6.6,0,0,0,.33-.49h0c0-.21-.13-.24-.34-.12l-.41.24v.63Z" style="fill:none"></path><polygon points="156.87 269.28 156.61 270.16 157.13 269.86 156.87 269.28" style="fill:none"></polygon><path d="M156.5,277.59a1.16,1.16,0,0,0,.57-1h0c0-.39-.24-.53-.58-.33l-.32.19v1.31Z" style="fill:none"></path><polygon points="183.41 270.2 210.37 254.63 210.35 250.88 183.4 266.45 183.41 270.2" style="fill:#A61C3C"></polygon><polygon points="164.03 277.63 164.04 281.38 183.41 270.2 183.41 270.2 183.4 266.45 164.03 277.63" style="fill:#fff"></polygon><polygon points="210.33 240.84 210.32 237.08 200.04 243.01 200.05 246.77 210.33 240.84" style="fill:#A61C3C"></polygon><polygon points="200.05 246.77 200.05 246.77 200.04 243.01 163.99 263.83 164 267.59 200.05 246.77" style="fill:#fff"></polygon><polygon points="192.83 254.08 164.01 270.73 164.02 274.48 192.84 257.84 192.83 254.08" style="fill:#fff"></polygon><polygon points="192.84 257.84 164.02 274.48 210.35 247.74 210.34 243.98 192.83 254.08 192.84 257.84" style="fill:#A61C3C"></polygon><line x1="164.02" y1="274.48" x2="164.01" y2="270.73" style="fill:none;stroke:#A61C3C;stroke-linecap:round;stroke-linejoin:round;stroke-width:0px"></line><path d="M156.13,271.37a.48.48,0,0,0,.19-.26l.13-.44.84-.48.13.27c0,.08.1.11.2.05a.44.44,0,0,0,.2-.34l0-.09-.67-1.34c0-.09-.13-.12-.25-.05l0,0a.58.58,0,0,0-.25.33l-.65,2.1,0,.12C155.94,271.38,156,271.43,156.13,271.37Zm.74-2.09.26.58-.52.3Z" style="fill:#fff"></path><path d="M159.2,267.39l-1.22.7a.45.45,0,0,0-.2.34c0,.12.09.17.2.11l.4-.23v1.52c0,.13.1.19.21.12a.46.46,0,0,0,.21-.37v-1.52l.4-.23a.41.41,0,0,0,.19-.33C159.39,267.38,159.31,267.33,159.2,267.39Z" style="fill:#fff"></path><path d="M159.74,267.52l.4-.23v1.52c0,.14.1.19.21.12a.46.46,0,0,0,.21-.36v-1.52l.4-.23a.44.44,0,0,0,.19-.33c0-.13-.08-.18-.19-.12l-1.22.71a.42.42,0,0,0-.2.33C159.54,267.53,159.63,267.58,159.74,267.52Z" style="fill:#fff"></path><path d="M156,278.34l.54-.31a2.09,2.09,0,0,0,1-1.68c0-.62-.42-.85-1-.51l-.53.31a.46.46,0,0,0-.21.36v1.71C155.75,278.35,155.85,278.41,156,278.34Zm.53-2.06c.34-.2.57-.06.58.33h0a1.16,1.16,0,0,1-.57,1l-.33.19v-1.31Z" style="fill:#fff"></path><path d="M159.33,274.42c0-.11-.09-.16-.19-.1l-1.06.6a.49.49,0,0,0-.21.36V277c0,.14.09.19.21.13l1.07-.62a.42.42,0,0,0,.18-.32c0-.12-.08-.17-.19-.11l-.86.5v-.46l.73-.42a.43.43,0,0,0,.19-.32.12.12,0,0,0-.19-.11l-.73.42v-.44l.85-.49A.44.44,0,0,0,159.33,274.42Z" style="fill:#fff"></path><path d="M161,273.26l-1.07.61a.49.49,0,0,0-.21.37V276c0,.13.09.19.21.12a.45.45,0,0,0,.2-.36v-.62l.74-.43a.39.39,0,0,0,.18-.33c0-.12-.08-.17-.18-.11l-.74.43v-.47l.86-.49a.44.44,0,0,0,.19-.33A.12.12,0,0,0,161,273.26Z" style="fill:#fff"></path><path d="M155,285.79a.46.46,0,0,0,.21-.36V285l.32-.18a1.45,1.45,0,0,0,.76-1.21h0c0-.44-.27-.59-.73-.33l-.56.33a.43.43,0,0,0-.21.36v1.72C154.75,285.81,154.85,285.85,155,285.79Zm.53-2.08c.21-.12.34-.08.34.13h0a.63.63,0,0,1-.33.52l-.33.2v-.67Z" style="fill:#fff"></path><path d="M157.8,281.92a.46.46,0,0,0-.21.31l-.38,1.55-.38-1.12c0-.09-.1-.12-.2-.06a.45.45,0,0,0-.22.36l0,.08.54,1.41c0,.1.11.13.22.07l0,0a.45.45,0,0,0,.21-.31l.37-1.47.38,1a.14.14,0,0,0,.22.07l0,0a.55.55,0,0,0,.22-.32l.52-2,0-.1c0-.13-.09-.18-.21-.11a.47.47,0,0,0-.2.29l-.37,1.56-.38-1.11c0-.1-.11-.13-.22-.07Z" style="fill:#fff"></path><path d="M159.74,283a.46.46,0,0,0,.21-.36v-.48l.34-.19.41.35s.11.06.2,0a.43.43,0,0,0,.2-.34.17.17,0,0,0-.07-.14l-.29-.24a1.27,1.27,0,0,0,.38-.89.44.44,0,0,0-.17-.41.6.6,0,0,0-.55.1l-.66.39a.43.43,0,0,0-.21.36v1.72C159.54,283,159.63,283.09,159.74,283Zm.62-2.13c.21-.12.34-.09.34.12h0a.6.6,0,0,1-.33.49l-.42.25v-.63Z" style="fill:#fff"></path><polygon points="183.41 270.2 210.37 254.63 210.35 250.88 183.4 266.45 183.41 270.2" style="opacity:0.30000000000000004"></polygon><polygon points="210.33 240.84 210.32 237.08 200.04 243.01 200.05 246.77 210.33 240.84" style="opacity:0.30000000000000004"></polygon><polygon points="192.84 257.84 164.02 274.48 210.35 247.74 210.34 243.98 192.83 254.08 192.84 257.84" style="opacity:0.30000000000000004"></polygon><path d="M89.91,316c0-.38-.24-.52-.58-.32l-.32.18v1.32l.33-.18a1.19,1.19,0,0,0,.57-1Z" style="fill:none"></path><path d="M93.22,320.94a.61.61,0,0,0,.32-.5h0c0-.21-.13-.24-.34-.12l-.41.24v.62Z" style="fill:none"></path><polygon points="89.45 309.58 89.97 309.27 89.71 308.71 89.45 309.58" style="fill:none"></polygon><path d="M88.34,323.79a.63.63,0,0,0,.33-.52h0c0-.22-.13-.26-.34-.14l-.32.19V324Z" style="fill:none"></path><polygon points="139.99 292.14 96.87 317.05 96.88 320.8 140 295.9 139.99 292.14" style="fill:#fff"></polygon><polygon points="113.65 300.45 96.85 310.15 96.86 313.91 113.66 304.2 113.65 300.45" style="fill:#fff"></polygon><polygon points="116.21 295.82 116.2 292.06 96.83 303.25 96.84 307 116.21 295.82" style="fill:#fff"></polygon><polygon points="143.17 280.25 143.16 276.5 116.2 292.06 116.21 295.82 143.17 280.25" style="fill:#A61C3C"></polygon><line x1="96.84" y1="307" x2="96.83" y2="303.25" style="fill:none;stroke:#A61C3C;stroke-linecap:round;stroke-linejoin:round;stroke-width:0px"></line><polygon points="116.21 295.82 116.21 295.82 96.84 307 116.21 295.82" style="fill:#A61C3C"></polygon><polygon points="139.99 292.14 140 295.9 96.88 320.8 143.21 294.05 143.2 290.3 139.99 292.14" style="fill:#A61C3C"></polygon><line x1="96.88" y1="320.8" x2="96.87" y2="317.05" style="fill:none;stroke:#A61C3C;stroke-linecap:round;stroke-linejoin:round;stroke-width:0px"></line><polygon points="113.66 304.2 96.86 313.91 143.19 287.16 143.18 283.4 113.65 300.45 113.66 304.2" style="fill:#A61C3C"></polygon><line x1="96.86" y1="313.91" x2="96.85" y2="310.15" style="fill:none;stroke:#A61C3C;stroke-linecap:round;stroke-linejoin:round;stroke-width:0px"></line><path d="M92,306.81l-1.22.7a.44.44,0,0,0-.2.34c0,.12.09.17.2.11l.4-.23v1.51c0,.14.1.19.21.12a.43.43,0,0,0,.21-.36v-1.52l.4-.23a.41.41,0,0,0,.19-.33C92.23,306.79,92.15,306.75,92,306.81Z" style="fill:#fff"></path><path d="M90,308.16c0-.09-.13-.12-.25-.05h0a.65.65,0,0,0-.25.33l-.65,2.11,0,.11c0,.13.08.18.19.12a.52.52,0,0,0,.19-.26l.13-.44.84-.48.13.27c0,.08.1.1.2.05a.46.46,0,0,0,.2-.35l0-.08Zm-.52,1.42.26-.87.26.56Z" style="fill:#fff"></path><path d="M94,305.9c0-.12-.08-.17-.19-.11l-1.22.71a.42.42,0,0,0-.2.33c0,.12.09.17.2.11l.4-.23v1.52c0,.13.1.19.21.12a.46.46,0,0,0,.21-.37v-1.51l.4-.23A.41.41,0,0,0,94,305.9Z" style="fill:#fff"></path><path d="M90.35,315.76c0-.61-.42-.84-1-.5l-.53.31a.46.46,0,0,0-.21.36v1.71c0,.13.1.18.22.12l.53-.31A2.11,2.11,0,0,0,90.35,315.76Zm-1,1.26-.33.18v-1.32l.32-.18c.34-.2.58-.06.58.32h0A1.19,1.19,0,0,1,89.34,317Z" style="fill:#fff"></path><path d="M92.17,313.84c0-.12-.09-.16-.19-.1l-1.06.61a.44.44,0,0,0-.2.36v1.7c0,.13.09.19.21.12l1.07-.62a.41.41,0,0,0,.18-.32c0-.12-.08-.16-.18-.1l-.86.49v-.46l.73-.42a.4.4,0,0,0,.19-.32c0-.12-.09-.16-.19-.1l-.73.42v-.45l.85-.49A.42.42,0,0,0,92.17,313.84Z" style="fill:#fff"></path><path d="M93.81,312.68l-1.07.61a.49.49,0,0,0-.21.37v1.72c0,.14.09.18.21.12a.43.43,0,0,0,.2-.36v-.63l.74-.42a.44.44,0,0,0,.19-.33.12.12,0,0,0-.19-.11l-.74.43v-.47l.86-.49a.44.44,0,0,0,.19-.33C94,312.66,93.91,312.62,93.81,312.68Z" style="fill:#fff"></path><path d="M87.8,325.21a.46.46,0,0,0,.21-.36v-.44l.32-.18a1.46,1.46,0,0,0,.76-1.22c0-.45-.27-.6-.73-.34l-.56.33a.46.46,0,0,0-.21.36v1.73C87.59,325.22,87.69,325.28,87.8,325.21Zm.53-2.08c.21-.12.34-.08.34.14h0a.63.63,0,0,1-.33.52L88,324v-.67Z" style="fill:#fff"></path><path d="M90.64,321.34a.46.46,0,0,0-.21.31l-.38,1.54-.38-1.12c0-.08-.1-.11-.2-.05a.47.47,0,0,0-.22.36l0,.08.54,1.41c0,.1.11.13.22.07l0,0a.49.49,0,0,0,.21-.32l.37-1.47.38,1a.14.14,0,0,0,.22.08l0,0a.55.55,0,0,0,.22-.32l.53-2v-.1c0-.13-.09-.18-.21-.11a.51.51,0,0,0-.2.28l-.37,1.56-.38-1.1a.13.13,0,0,0-.21-.07Z" style="fill:#fff"></path><path d="M92.58,322.45a.46.46,0,0,0,.21-.36v-.48l.34-.2.41.37a.18.18,0,0,0,.2,0,.45.45,0,0,0,.2-.34.16.16,0,0,0-.07-.14l-.29-.24a1.27,1.27,0,0,0,.38-.89.43.43,0,0,0-.17-.41c-.12-.07-.31,0-.55.1l-.66.38a.46.46,0,0,0-.21.36v1.73C92.38,322.46,92.47,322.51,92.58,322.45Zm.62-2.13c.21-.12.34-.09.34.12h0a.61.61,0,0,1-.32.5l-.43.24v-.62Z" style="fill:#fff"></path><polygon points="143.17 280.25 143.16 276.5 116.2 292.06 116.21 295.82 143.17 280.25" style="opacity:0.30000000000000004"></polygon><polygon points="116.21 295.82 116.21 295.82 96.84 307 116.21 295.82" style="opacity:0.30000000000000004"></polygon><polygon points="139.99 292.14 140 295.9 96.88 320.8 143.21 294.05 143.2 290.3 139.99 292.14" style="opacity:0.30000000000000004"></polygon><polygon points="113.66 304.2 96.86 313.91 143.19 287.16 143.18 283.4 113.65 300.45 113.66 304.2" style="opacity:0.30000000000000004"></polygon><path d="M222.8,245.33l-.32.18v.67l.33-.19a.64.64,0,0,0,.34-.52h0C223.15,245.25,223,245.2,222.8,245.33Z" style="fill:none"></path><path d="M227.68,242.51l-.42.24v.63l.43-.24a.61.61,0,0,0,.32-.5h0C228,242.43,227.88,242.39,227.68,242.51Z" style="fill:none"></path><path d="M223.81,237.9l-.33.18v1.32l.32-.19a1.17,1.17,0,0,0,.57-1h0C224.38,237.84,224.15,237.7,223.81,237.9Z" style="fill:none"></path><polygon points="223.92 231.77 224.44 231.47 224.18 230.9 223.92 231.77" style="fill:none"></polygon><polygon points="267.68 204.44 231.3 225.45 231.31 229.2 267.69 208.2 267.68 204.44" style="fill:#fff"></polygon><polygon points="277.64 202.46 277.63 198.7 267.68 204.44 267.69 208.2 277.64 202.46" style="fill:#A61C3C"></polygon><line x1="231.31" y1="229.2" x2="231.3" y2="225.45" style="fill:none;stroke:#A61C3C;stroke-linecap:round;stroke-linejoin:round;stroke-width:0px"></line><polygon points="267.69 208.2 231.31 229.2 267.69 208.2 267.69 208.2" style="fill:#A61C3C"></polygon><polygon points="277.67 212.5 264.47 220.12 264.48 223.87 277.68 216.25 277.67 212.5" style="fill:#A61C3C"></polygon><polygon points="231.34 239.25 231.35 243 264.48 223.87 264.48 223.87 264.47 220.12 231.34 239.25" style="fill:#fff"></polygon><polygon points="240.01 227.33 231.32 232.34 231.33 236.1 240.02 231.08 240.01 227.33" style="fill:#fff"></polygon><polygon points="277.65 205.59 240.01 227.33 240.02 231.08 231.33 236.1 277.66 209.35 277.65 205.59" style="fill:#A61C3C"></polygon><polygon points="277.64 202.46 277.63 198.7 267.68 204.44 267.69 208.2 277.64 202.46" style="opacity:0.30000000000000004"></polygon><polygon points="267.69 208.2 231.31 229.2 267.69 208.2 267.69 208.2" style="opacity:0.30000000000000004"></polygon><polygon points="277.67 212.5 264.47 220.12 264.48 223.87 277.68 216.25 277.67 212.5" style="opacity:0.30000000000000004"></polygon><polygon points="277.65 205.59 240.01 227.33 240.02 231.08 231.33 236.1 277.66 209.35 277.65 205.59" style="opacity:0.30000000000000004"></polygon><line x1="231.33" y1="236.1" x2="231.32" y2="232.34" style="fill:none;stroke:#A61C3C;stroke-linecap:round;stroke-linejoin:round;stroke-width:0px"></line><path d="M225.13,231.78l0-.09-.67-1.33c-.05-.09-.13-.12-.25-.05h0a.63.63,0,0,0-.24.33l-.66,2.1,0,.12c0,.13.08.18.19.12a.42.42,0,0,0,.19-.27l.13-.43.84-.48.13.26a.13.13,0,0,0,.2.06A.46.46,0,0,0,225.13,231.78Zm-1.21,0,.26-.87.26.57Z" style="fill:#fff"></path><path d="M226.51,229l-1.22.71a.42.42,0,0,0-.2.34c0,.11.09.16.2.1l.4-.23v1.52c0,.14.09.19.21.12a.45.45,0,0,0,.21-.36v-1.52l.4-.23a.42.42,0,0,0,.19-.33C226.7,229,226.62,228.94,226.51,229Z" style="fill:#fff"></path><path d="M228.46,228.1c0-.12-.08-.17-.19-.11l-1.22.7a.45.45,0,0,0-.2.34c0,.12.09.17.2.11l.4-.23v1.52c0,.13.09.19.21.12a.49.49,0,0,0,.21-.37v-1.52l.4-.23A.41.41,0,0,0,228.46,228.1Z" style="fill:#fff"></path><path d="M223.8,237.46l-.53.31a.43.43,0,0,0-.21.36v1.71c0,.13.09.18.21.12l.53-.31a2.08,2.08,0,0,0,1-1.69C224.82,237.35,224.4,237.11,223.8,237.46Zm.58.77a1.17,1.17,0,0,1-.57,1l-.32.19v-1.32l.33-.18c.34-.2.57-.06.57.32Z" style="fill:#fff"></path><path d="M226.47,237.69l-.86.49v-.46l.72-.42a.4.4,0,0,0,.19-.32c0-.12-.09-.16-.19-.1l-.73.42v-.45l.85-.49a.42.42,0,0,0,.19-.32.12.12,0,0,0-.19-.11l-1.06.61a.47.47,0,0,0-.2.36v1.71c0,.13.1.19.21.12l1.07-.62a.41.41,0,0,0,.18-.32C226.65,237.67,226.57,237.63,226.47,237.69Z" style="fill:#fff"></path><path d="M228.28,234.87l-1.06.62a.46.46,0,0,0-.21.36v1.73c0,.13.09.18.21.12a.46.46,0,0,0,.21-.36v-.63l.74-.42a.41.41,0,0,0,.19-.33.12.12,0,0,0-.19-.11l-.74.42v-.46l.86-.5a.42.42,0,0,0,.19-.33A.12.12,0,0,0,228.28,234.87Z" style="fill:#fff"></path><path d="M222.84,244.87l-.57.33a.46.46,0,0,0-.21.36v1.73c0,.13.1.18.22.11a.43.43,0,0,0,.2-.35v-.44l.32-.19a1.44,1.44,0,0,0,.77-1.2h0C223.57,244.76,223.29,244.61,222.84,244.87Zm.31.6a.64.64,0,0,1-.34.52l-.33.19v-.67l.32-.18c.21-.13.35-.08.35.13Z" style="fill:#fff"></path><path d="M226.32,242.84a.46.46,0,0,0-.2.29l-.38,1.56-.38-1.11a.13.13,0,0,0-.21-.07l0,0a.5.5,0,0,0-.21.31l-.37,1.55-.39-1.12c0-.08-.1-.11-.2-.06a.46.46,0,0,0-.21.36v.09l.54,1.41a.14.14,0,0,0,.22.07l0,0a.47.47,0,0,0,.21-.32l.38-1.47.38,1c0,.1.11.13.21.07l.05,0a.58.58,0,0,0,.21-.33l.53-2,0-.1C226.53,242.82,226.43,242.77,226.32,242.84Z" style="fill:#fff"></path><path d="M228.27,242a.59.59,0,0,0-.56.1l-.66.38a.49.49,0,0,0-.21.36v1.73c0,.12.09.18.21.11a.42.42,0,0,0,.2-.35v-.48l.34-.2.41.36a.15.15,0,0,0,.2,0,.39.39,0,0,0,.2-.33.2.2,0,0,0-.07-.15l-.28-.23a1.33,1.33,0,0,0,.37-.9A.44.44,0,0,0,228.27,242Zm-.58,1.18-.43.24v-.63l.42-.24c.2-.12.33-.08.33.13h0A.61.61,0,0,1,227.69,243.14Z" style="fill:#fff"></path><path d="M87.89,302.89,145.56,270a3,3,0,0,0,1.5-2.58V229A12.3,12.3,0,0,0,136,216.72l-8.5-.83-22.59,6.49-19.2,19.86V301.6A1.49,1.49,0,0,0,87.89,302.89Z" style="fill:#455a64"></path><path d="M107.85,243.57c1.62,3.45,4,6.59,4.87,10.31.59,2.59.36,5.29.45,7.94a17.73,17.73,0,0,0,1.89,8,9.27,9.27,0,0,0,6.34,4.82,6.32,6.32,0,0,0,6.81-3.47c-1.73-3.13-1-7,.45-10.22s3.51-6.34,4.12-9.86-.32-7.32-1.55-10.77-2.76-6.84-3.36-10.46-.23-7.62-1-11.35a13.85,13.85,0,0,0-.63-2.24l-18.93,5.44c.08.34.15.68.23,1A25.62,25.62,0,0,0,107.85,243.57Z" style="opacity:0.2"></path><path d="M101.37,266.65a37.6,37.6,0,0,0-1.45-9.15,21.85,21.85,0,0,0-4.1-7.71,15.1,15.1,0,0,0-6.26-4.52c4.12,2.47,7.13,7.29,8.29,12.77s.8,11.67.71,17.91c-.13,7.12-.1,14.24.09,20.81l2-1.13c.39-6.24.65-12.93.77-19.62C101.45,272.9,101.52,269.78,101.37,266.65Z" style="opacity:0.2"></path><path d="M145.4,234.25A74.39,74.39,0,0,0,139.71,223a193.52,193.52,0,0,1,7.35,23.26v-7.61C146.53,237.17,146,235.68,145.4,234.25Z" style="opacity:0.2"></path><path d="M100.41,196.72a7.33,7.33,0,0,1,4.72-2.54l24.64,2.32c2.84,6.11.57,10.15.57,10.15.39,9.32.71,15.25-3.33,17.21a18.61,18.61,0,0,1-9,1.27,21.16,21.16,0,0,1-8.26-2.23l-.13-.07a7.05,7.05,0,0,1-3.53-4.71,37.8,37.8,0,0,1-.85-5.51,22.16,22.16,0,0,0-.35-3.15,5.58,5.58,0,0,0-1.38-2.79,3.18,3.18,0,0,0-2.84-1,3.13,3.13,0,0,0-.51.19C99.46,201.76,99.26,198.17,100.41,196.72Z" style="fill:#e0e0e0"></path><polygon points="106.92 221.4 106.92 221.4 106.93 221.4 106.92 221.4" style="fill:#ffa8a7"></polygon><path d="M104.77,215.29s0,2.18.1,4.78a7.54,7.54,0,0,1-2.29-3.61A3.32,3.32,0,0,0,104.77,215.29Z" style="fill:#e0e0e0"></path><path d="M98.46,207.71a3.5,3.5,0,0,1,1.7-1.81,3.13,3.13,0,0,1,.51-.19,3.18,3.18,0,0,1,2.84,1,5.68,5.68,0,0,1,1.39,2.79,23.7,23.7,0,0,1,.34,3.15,38.59,38.59,0,0,0,.88,5.65,6.94,6.94,0,0,0,3.51,4.58l.12.06a21.16,21.16,0,0,0,8.26,2.23l0,2.48v5.92l-11.65-6.89a2.84,2.84,0,0,1-1.38-2.38c0-1.34-.06-2.82-.09-4.19-.05-2.6-.1-4.78-.1-4.78a3.32,3.32,0,0,1-2.19,1.17,2.93,2.93,0,0,1-1.15-.06,4.38,4.38,0,0,1-2.57-2.23,8.32,8.32,0,0,1-.82-3.38A7,7,0,0,1,98.46,207.71Z" style="fill:#ffa8a7"></path><path d="M108.09,222.73a8.08,8.08,0,0,1-1.44-3,7,7,0,0,0,3,3.14l.12.06a21.16,21.16,0,0,0,8.26,2.23v2.14a20.81,20.81,0,0,1-4.88-1A10.93,10.93,0,0,1,108.09,222.73Z" style="opacity:0.2"></path><path d="M109.43,197.43a8.8,8.8,0,0,1-.32,5.24,36.49,36.49,0,0,0-1.57,5.09,8.41,8.41,0,0,0,.68,5.14,6,6,0,0,0,3.93,3.18c2.64.57,5.23-1,7.89-1.52a10.89,10.89,0,0,1,7.42,1.33,1.27,1.27,0,0,0,1.93-1c.32-5.37.32-13.77-.47-17.72Z" style="fill:#ffa8a7"></path><path d="M126.22,206.37a1.09,1.09,0,1,1-1.09-1.09A1.09,1.09,0,0,1,126.22,206.37Z" style="fill:#263238"></path><polygon points="120.77 206.94 125.27 212.47 121.14 213.95 120.77 206.94" style="fill:#f28f8f"></polygon><path d="M117.37,216.69l3.47,1.09a2.14,2.14,0,0,1-2.34,1.09A2,2,0,0,1,117.37,216.69Z" style="fill:#f28f8f"></path><path d="M117.37,216.69l3.47,1.09a2.14,2.14,0,0,1-2.34,1.09A2,2,0,0,1,117.37,216.69Z" style="opacity:0.30000000000000004"></path><path d="M119.64,218.8a2,2,0,0,1-1.14.07,1.8,1.8,0,0,1-1.13-1.59,2,2,0,0,1,2.27,1.52Z" style="fill:#f28f8f"></path><circle cx="115.82" cy="207.75" r="1.08" style="fill:#263238"></circle><path d="M107.28,216.54a89.32,89.32,0,0,0-.5,14.71,30.1,30.1,0,0,0,4.24,14c1.55,2.43,3.61,4.63,4.36,7.41.92,3.41-.3,7,0,10.53a11.7,11.7,0,0,0,6.07,9.5,9.92,9.92,0,0,0,11-1.35,8.59,8.59,0,0,0,1.38-10.73,8.61,8.61,0,0,1-1.44,4.38,3.54,3.54,0,0,1-4,1.39c-1.9-.79-2.22-3.37-1.85-5.4,1.23-6.82,6.7-12.59,6.71-19.52,0-3.52-1.4-6.85-2.5-10.19s-.81-10-.29-13.69l-6.5,4.73Z" style="fill:#e0e0e0"></path><path d="M139.44,207.42a27.54,27.54,0,0,0,7.62-6.28V182a27.74,27.74,0,0,0-7.8-6.42,49.3,49.3,0,0,0-15.9-5.56L87.17,190.64a3,3,0,0,0-1.5,2.58v14.83C101,216.2,124.7,216,139.44,207.42Z" style="fill:#455a64"></path><path d="M132,185.38h-3.52a13.67,13.67,0,0,0-1.79-1.22c-7-4.07-18.42-4.07-25.41,0a13.41,13.41,0,0,0-1.77,1.22H96v6.14h0c0,2.67,1.79,5.33,5.31,7.36,7,4.07,18.42,4.07,25.42,0,3.5-2,5.24-4.69,5.22-7.36h0Z" style="fill:#263238"></path><path d="M125.93,168.59,114.69,175,96,185.6h0c.11,2.58,1.87,5.15,5.29,7.13,7,4.06,18.42,4.07,25.42,0,3.5-2,5.24-4.7,5.22-7.36h0C132,177.83,129.21,172.17,125.93,168.59Z" style="fill:#37474f"></path><path d="M235.68,208.3a56.54,56.54,0,0,0-.08,9.88l19.22-11Z" style="fill:#263238"></path><path d="M269.21,148.94c8,.11,10.16,10.37,13.23,16.39v20.81l-11.92-18.6Z" style="fill:#37474f"></path><path d="M269.62,154.72l.9,12.82,6.18,9.64c-.46-2.39-.85-4.8-1.29-7.18C274.41,164.6,272.91,159,269.62,154.72Z" style="opacity:0.2"></path><path d="M230,161.06c5-4.36,14.15-9.39,19.83-10.81s19.34-1.31,19.34-1.31c5.69,12.68,1.75,33,4.27,39s1.39,7.86,1.39,7.86l-27,15.37a17.63,17.63,0,0,1-9.23,1.17,6.41,6.41,0,0,1-5.34-6.48l.22-14Z" style="fill:#37474f"></path><path d="M241,207a103.6,103.6,0,0,0,21.88-13.68,17.53,17.53,0,0,0,4-4.17,7.18,7.18,0,0,0,.89-5.78l-4.41-1.08a55.61,55.61,0,0,1-20,4.74,62.48,62.48,0,0,0-4.14-20.76,21.35,21.35,0,0,0-8.72-.23l3,25.82-.22,14a6.29,6.29,0,0,0,.21,1.74,6.19,6.19,0,0,0,2.14.7A10.31,10.31,0,0,0,241,207Z" style="opacity:0.2"></path><path d="M269.1,176.6a1.72,1.72,0,0,0-.22-.66c-.34-.5-1.05-.51-1.66-.47a1.22,1.22,0,0,0-.77-1.26,2,2,0,0,0-1.6,0,3.14,3.14,0,0,0-.37.18,5.09,5.09,0,0,1,.1-4.11,2.77,2.77,0,0,0,.34-.88.82.82,0,0,0-.37-.81.76.76,0,0,0-.75.12,2,2,0,0,0-.49.62,8.69,8.69,0,0,0-.87,2.22c0-.76,0-1.55,0-2.31,0-.46,0-1-.45-1.22a.79.79,0,0,0-.93.35,2.3,2.3,0,0,0-.28,1,71.24,71.24,0,0,0,.49,13.61c3.21,1,3.41,4.34,3.33,5.9,4.7-2.52,2.93-10.19,2.93-10.19.95,1.89,2.16,1.38,2.16,1.38C269.5,178.94,269.32,177.77,269.1,176.6Z" style="fill:#ffa8a7"></path><path d="M261.31,183a17.76,17.76,0,0,1-1.07-6.15,1.28,1.28,0,0,1,1.49-1.28,6.74,6.74,0,0,1,3.42,1.59,4.64,4.64,0,0,1,1.54,3.82c-.36,5-2.5,6.25-2.5,6.25Z" style="fill:#37474f"></path><path d="M261.83,183.21a19.41,19.41,0,0,1-.72-6.34.44.44,0,0,1,.12-.3.4.4,0,0,1,.29-.12,5.85,5.85,0,0,1,3.05,1.39,3.75,3.75,0,0,1,1.24,3.1,10.49,10.49,0,0,1-1.47,5.2Z" style="fill:#263238"></path><g style="opacity:0.2"><path d="M262.44,171.55a11.76,11.76,0,0,0,0,3.33C260.93,172.86,262.44,171.55,262.44,171.55Z"></path><path d="M264.48,174.39c-.55.27-1.2.66-1.2.66C263.58,173.93,264.48,174.39,264.48,174.39Z"></path><path d="M267.22,175.47c-1.4.53-2,.81-2,.81A1.71,1.71,0,0,1,267.22,175.47Z"></path></g><path d="M262.1,188.2a5.42,5.42,0,0,0-1.23-3.06,3.85,3.85,0,0,0-1.85-1.2l-12.57,5a15.48,15.48,0,0,1,2.35,9.67L262,190.54A8.74,8.74,0,0,0,262.1,188.2Z" style="fill:#263238"></path><path d="M261.31,183l-2.29.92a3.85,3.85,0,0,1,1.85,1.2,5.42,5.42,0,0,1,1.23,3.06,8.74,8.74,0,0,1-.11,2.34l2.49-1.52.16-.1C264.72,187.36,264.52,184,261.31,183Z" style="fill:#455a64"></path><path d="M246.67,187.26,240.54,189c.66-8.24-.22-16.5-1.09-23.59s-11.13-7.31-12.17.3c-2.25,10.14-.93,23.9.51,33.42a8.11,8.11,0,0,0,11.77,6l11-5.72A3.53,3.53,0,0,0,252.4,196a27.14,27.14,0,0,0-1.51-6.61A3.47,3.47,0,0,0,246.67,187.26Z" style="fill:#37474f"></path><path d="M240.54,189a54.26,54.26,0,0,1-2.13,8.7c6.07-4.62,2.63-8.84,2.63-8.84Z" style="opacity:0.2"></path><polygon points="245.12 151.9 243.12 153.09 243.12 158.28 252.58 170.74 257.5 176.85 258.5 171.34 259.16 163.59 259.41 157.76 258.98 153.97 256.32 150.32 251.84 148.76 245.12 151.9" style="fill:#263238"></polygon><path d="M258,176.85c-5.86-9.46-18.11-21.35-12.91-24.95V150c-4.76,2.55-3.72,6.37-2.25,9.54s13.59,18,14.87,21.19Z" style="fill:#455a64"></path><path d="M258,176.85c2.55-17.24,3.46-26-3.7-28.6v2c4.22,2.24,4.91,4.21,4.68,10.17S257.46,176,257.46,176Z" style="fill:#455a64"></path><path d="M245.12,144.05v9.07a4.29,4.29,0,0,0,1.44,3.22,12.13,12.13,0,0,0,8.67,2.95,3,3,0,0,0,1.8-.55,2.37,2.37,0,0,0,.58-2.47,4.72,4.72,0,0,0-.66-1.33,4.11,4.11,0,0,1-.71-2.3v-8.59Z" style="fill:#263238"></path><path d="M252.27,154a19.89,19.89,0,0,0,4.6.8,4.11,4.11,0,0,1-.63-2.15v-8.59H245.12v3.19a12.33,12.33,0,0,0,1.46,2.9A11,11,0,0,0,252.27,154Z" style="opacity:0.2"></path><path d="M256.72,129.5c-1.38-.4-2.85-1.13-4.18-.59a7.79,7.79,0,0,0-1.87,1.44,6.44,6.44,0,0,1-4.14,1.46,1.5,1.5,0,0,0-.17.72l.17,3.79a1.79,1.79,0,0,1-.38,1.49,1.22,1.22,0,0,1-1.38,0,3.59,3.59,0,0,1-1-1.06c-.59-.84-1.25,5.44.25,4.59-.25,3,1.78,5.79,4.35,7.34s5.59,2.1,8.54,2.62a9.31,9.31,0,0,0,4.86,0,6.09,6.09,0,0,0,2.93-2.61,14.05,14.05,0,0,0,1.43-3.71,46.62,46.62,0,0,0,1.17-18.1C264.48,129.36,259.63,130.34,256.72,129.5Z" style="fill:#ffa8a7"></path><polygon points="258.99 136.08 262.39 141.81 258.33 142.57 258.99 136.08" style="fill:#f28f8f"></polygon><path d="M254.42,144.55l3.08,1.5a2,2,0,0,1-2.34.66A1.8,1.8,0,0,1,254.42,144.55Z" style="fill:#f28f8f"></path><path d="M254.42,144.55l3.08,1.5a2,2,0,0,1-2.34.66A1.8,1.8,0,0,1,254.42,144.55Z" style="opacity:0.30000000000000004"></path><path d="M256.23,146.81a1.84,1.84,0,0,1-1.07-.1,1.63,1.63,0,0,1-.82-1.62,1.9,1.9,0,0,1,1.21.42A1.94,1.94,0,0,1,256.23,146.81Z" style="fill:#f28f8f"></path><path d="M253.11,136.31a1.15,1.15,0,0,0,1,1.27,1.17,1.17,0,0,0,1.28-1,1.18,1.18,0,0,0-1.05-1.28A1.16,1.16,0,0,0,253.11,136.31Z" style="fill:#263238"></path><path d="M262.88,136.91a1.18,1.18,0,0,0,1.05,1.28,1.17,1.17,0,1,0-1.05-1.28Z" style="fill:#263238"></path><path d="M262.1,133.65l3.11-.46a1.67,1.67,0,0,0-1.62-1A2,2,0,0,0,262.1,133.65Z" style="fill:#263238"></path><path d="M256.39,133.61l-3-.89a1.67,1.67,0,0,1,1.74-.76A2,2,0,0,1,256.39,133.61Z" style="fill:#263238"></path><path d="M247,134.5a3.6,3.6,0,0,0,1.06,4.12,6.26,6.26,0,0,0,2.64,1c.51.1,1,.18,1.56.25a12,12,0,0,0,6-1,2.94,2.94,0,0,1,1.21-.24,8.16,8.16,0,0,1,2.42.74,6.51,6.51,0,0,0,5.66-.74c-1.09,10.58-3.1,13.53-6.89,13.59s-19.11-2-18.06-10.65a5.33,5.33,0,0,1-3.91-4.37,5.27,5.27,0,0,1,2.62-5.2,12.5,12.5,0,0,1,.13-8.79,12.21,12.21,0,0,1,5.78-6.51,20.25,20.25,0,0,1,8.92-1.8c2.83-.06,5.87.14,8.14,1.85A9.42,9.42,0,0,1,267.5,122c.54,2,.6,6.73.63,8.81a70.45,70.45,0,0,1-14.14.52,12.7,12.7,0,0,0-4.13.08C248.52,131.76,247.55,133.23,247,134.5Z" style="fill:#263238"></path></g><g id="freepik--Tv--inject-51"><polygon points="270.56 437.94 274.01 435.94 277.45 437.94 274 439.94 270.56 437.94" style="fill:#455a64"></polygon><polygon points="274 439.94 274.02 446.58 270.58 444.59 270.56 437.94 274 439.94" style="fill:#455a64"></polygon><polygon points="274 439.94 274.02 446.58 270.58 444.59 270.56 437.94 274 439.94" style="opacity:0.1"></polygon><polygon points="277.45 437.94 277.47 444.59 274.02 446.58 274 439.94 277.45 437.94" style="fill:#455a64"></polygon><polygon points="277.45 437.94 277.47 444.59 274.02 446.58 274 439.94 277.45 437.94" style="opacity:0.2"></polygon><polygon points="229.95 460.02 233.4 458.03 236.84 460.02 233.38 462.02 229.95 460.02" style="fill:#455a64"></polygon><polygon points="233.38 462.02 233.4 468.67 229.97 466.67 229.95 460.02 233.38 462.02" style="fill:#455a64"></polygon><polygon points="233.38 462.02 233.4 468.67 229.97 466.67 229.95 460.02 233.38 462.02" style="opacity:0.1"></polygon><polygon points="236.84 460.02 236.86 466.67 233.4 468.67 233.38 462.02 236.84 460.02" style="fill:#455a64"></polygon><polygon points="236.84 460.02 236.86 466.67 233.4 468.67 233.38 462.02 236.84 460.02" style="opacity:0.2"></polygon><polygon points="117.76 394.84 121.22 392.85 124.65 394.85 121.2 396.84 117.76 394.84" style="fill:#455a64"></polygon><polygon points="121.2 396.84 121.22 403.49 117.78 401.49 117.76 394.84 121.2 396.84" style="fill:#455a64"></polygon><polygon points="121.2 396.84 121.22 403.49 117.78 401.49 117.76 394.84 121.2 396.84" style="opacity:0.1"></polygon><polygon points="124.65 394.85 124.67 401.49 121.22 403.49 121.2 396.84 124.65 394.85" style="fill:#455a64"></polygon><polygon points="124.65 394.85 124.67 401.49 121.22 403.49 121.2 396.84 124.65 394.85" style="opacity:0.2"></polygon><polygon points="117.78 354.94 163.89 328.15 279.53 394.91 233.41 421.71 117.78 354.94" style="fill:#455a64"></polygon><polygon points="279.53 394.91 279.52 438.11 233.4 464.91 233.41 421.71 279.53 394.91" style="fill:#455a64"></polygon><polygon points="279.53 394.91 279.52 438.11 233.4 464.91 233.41 421.71 279.53 394.91" style="fill:#455a64"></polygon><polygon points="117.78 354.94 233.41 421.71 233.4 464.91 117.76 398.15 117.78 354.94" style="fill:#455a64"></polygon><polygon points="117.78 354.94 233.41 421.71 233.4 464.91 117.76 398.15 117.78 354.94" style="opacity:0.1"></polygon><polygon points="279.53 394.91 279.52 438.11 233.4 464.91 233.41 421.71 279.53 394.91" style="opacity:0.2"></polygon><polygon points="108.56 346.7 159.93 316.85 288.75 391.23 237.38 421.08 108.56 346.7" style="fill:#455a64"></polygon><polygon points="288.75 391.23 288.74 396.05 237.36 425.91 237.38 421.08 288.75 391.23" style="fill:#455a64"></polygon><polygon points="288.75 391.23 288.74 396.05 237.36 425.91 237.38 421.08 288.75 391.23" style="opacity:0.30000000000000004"></polygon><polygon points="108.56 346.7 237.38 421.08 237.36 425.91 108.55 351.53 108.56 346.7" style="fill:#455a64"></polygon><polygon points="108.56 346.7 159.93 316.85 288.75 391.23 237.38 421.08 108.56 346.7" style="opacity:0.1"></polygon><polygon points="108.56 346.7 237.38 421.08 237.36 425.91 108.55 351.53 108.56 346.7" style="opacity:0.2"></polygon><path d="M244.88,304.16,156.79,253.3a1.27,1.27,0,0,0-1.21,0h0l0,0-2.18,1.17h0a1.26,1.26,0,0,0-.73,1.14v61.92a3.81,3.81,0,0,0,1.92,3.31l88.09,50.86a1.26,1.26,0,0,0,1.31,0h0l2.16-1.16.12-.07h0a1.24,1.24,0,0,0,.58-1.05V307.47A3.81,3.81,0,0,0,244.88,304.16Z" style="fill:#263238"></path><path d="M244.88,304.16,156.79,253.3a1.27,1.27,0,0,0-1.21,0h0l0,0-2.18,1.17h0a1.26,1.26,0,0,1,1.19,0l88.09,50.86a3.82,3.82,0,0,1,1.91,3.31v61.92a1.27,1.27,0,0,1-.6,1.08h0l2.16-1.16.12-.07h0a1.24,1.24,0,0,0,.58-1.05V307.47A3.81,3.81,0,0,0,244.88,304.16Z" style="fill:#fff;opacity:0.4"></path><path d="M244.52,370.61V308.69a3.82,3.82,0,0,0-1.91-3.31l-88.09-50.86a1.29,1.29,0,0,0-1.92,1.1v61.92a3.81,3.81,0,0,0,1.92,3.31l88.09,50.86a1.26,1.26,0,0,0,1.31,0A1.27,1.27,0,0,0,244.52,370.61Z" style="fill:#fff;opacity:0.30000000000000004"></path><path d="M157.61,306.76a2.31,2.31,0,0,1,1,1.81l0,9.08c0,.68-.48.94-1,.61a2.28,2.28,0,0,1-1.05-1.82l0-9.08C156.55,306.69,157,306.42,157.61,306.76Z" style="fill:#263238"></path><path d="M161.37,308.93a2.32,2.32,0,0,1,1,1.82l0,9.08c0,.67-.47.93-1,.6a2.3,2.3,0,0,1-1.05-1.82l0-9.08C160.31,308.87,160.78,308.59,161.37,308.93Z" style="fill:#263238"></path><path d="M165.13,311.1a2.32,2.32,0,0,1,1.05,1.82l0,9.08c0,.67-.47.93-1.05.6a2.3,2.3,0,0,1-1-1.82l0-9.08C164.08,311,164.55,310.76,165.13,311.1Z" style="fill:#263238"></path><path d="M168.89,313.27a2.32,2.32,0,0,1,1.05,1.82l0,9.08c0,.67-.48.93-1.06.6a2.3,2.3,0,0,1-1.05-1.82l0-9.08C167.84,313.21,168.31,312.93,168.89,313.27Z" style="fill:#263238"></path><path d="M227.39,346.68a2.29,2.29,0,0,1,1.05,1.82l0,9.08c0,.67-.48.93-1.06.6a2.33,2.33,0,0,1-1.05-1.82l0-9.08C226.34,346.62,226.81,346.34,227.39,346.68Z" style="fill:#263238"></path><path d="M231.16,348.85a2.34,2.34,0,0,1,1.05,1.82l0,9.08c0,.67-.48.93-1.06.6a2.33,2.33,0,0,1-1.05-1.82l0-9.08C230.1,348.79,230.57,348.51,231.16,348.85Z" style="fill:#263238"></path><path d="M234.92,351a2.34,2.34,0,0,1,1.05,1.82l0,9.08c0,.67-.48.93-1.06.6a2.33,2.33,0,0,1-1-1.82l0-9.08C233.86,351,234.33,350.68,234.92,351Z" style="fill:#263238"></path><path d="M238.68,353.19a2.36,2.36,0,0,1,1,1.82l0,9.08c0,.67-.48.93-1.06.6a2.32,2.32,0,0,1-1-1.82l0-9.08C237.62,353.13,238.09,352.85,238.68,353.19Z" style="fill:#263238"></path><polygon points="172.74 364.84 192.68 376.19 212.7 364.84 192.72 353.23 172.74 364.84" style="fill:#263238"></polygon><polygon points="172.74 364.84 172.74 366.78 192.68 378.13 192.68 376.19 172.74 364.84" style="fill:#263238"></polygon><polygon points="172.74 364.84 192.68 376.19 212.7 364.84 192.72 353.23 172.74 364.84" style="fill:#fff;opacity:0.30000000000000004"></polygon><polygon points="172.74 364.84 172.74 366.78 192.68 378.13 192.68 376.19 172.74 364.84" style="fill:#fff;opacity:0.2"></polygon><polygon points="172.74 364.84 189.41 298.51 209.28 309.97 192.68 376.19 172.74 364.84" style="fill:#263238"></polygon><polygon points="194.81 374.98 194.81 374.98 209.28 316.73 209.28 309.97 192.68 376.19 192.68 378.13 212.7 366.78 212.7 364.83 194.81 374.98" style="fill:#263238"></polygon><polygon points="172.74 364.84 189.41 298.51 209.28 309.97 192.68 376.19 172.74 364.84" style="fill:#fff;opacity:0.2"></polygon><polygon points="194.81 374.98 194.81 374.98 209.28 316.73 209.28 309.97 192.68 376.19 192.68 378.13 212.7 366.78 212.7 364.83 194.81 374.98" style="fill:#fff;opacity:0.1"></polygon></g><g id="freepik--Character--inject-51"><path d="M299,271.16v52.52l66.82-38.57V232.59Zm7.35,4.34,52-30.07V280.8l-52,30Z" style="fill:#455a64"></path><polygon points="298.99 271.15 291.57 266.89 291.57 319.42 298.99 323.68 298.99 271.15" style="fill:#455a64"></polygon><polygon points="365.81 232.59 358.38 228.33 291.57 266.89 298.99 271.15 365.81 232.59" style="fill:#455a64"></polygon><polygon points="365.81 232.59 358.38 228.33 291.57 266.89 298.99 271.15 365.81 232.59" style="fill:#fff;opacity:0.30000000000000004"></polygon><polygon points="350.96 276.54 358.38 280.8 358.38 245.43 350.96 249.72 350.96 276.54" style="fill:#455a64"></polygon><polygon points="306.34 310.78 306.34 302.25 350.96 276.54 358.38 280.8 306.34 310.78" style="fill:#455a64"></polygon><polygon points="298.99 271.15 291.57 266.89 291.57 319.42 298.99 323.68 298.99 271.15" style="fill:#fff;opacity:0.2"></polygon><polygon points="350.96 276.54 358.38 280.8 358.38 245.43 350.96 249.72 350.96 276.54" style="fill:#fff;opacity:0.2"></polygon><polygon points="306.34 310.78 306.34 302.25 350.96 276.54 358.38 280.8 306.34 310.78" style="fill:#fff;opacity:0.30000000000000004"></polygon><path d="M367.77,220.39h0a2.88,2.88,0,0,0-1.28-1.49l-4.5-2.57a7.35,7.35,0,0,0-7.38,0l-66,39.13a2.88,2.88,0,0,0-1.28,1.51h0a14.53,14.53,0,0,0,.08,12.27,3.29,3.29,0,0,0,1.21,1.29l4.5,2.56a7.35,7.35,0,0,0,7.38,0l66-39.12a2.88,2.88,0,0,0,1.18-1.3h0A14.53,14.53,0,0,0,367.77,220.39Z" style="fill:#A61C3C"></path><path d="M300.49,263.12l66-39.13a2.94,2.94,0,0,0,1.27-3.6h0a14.53,14.53,0,0,1-.08,12.27h0a2.88,2.88,0,0,1-1.18,1.3l-66,39.12a7.38,7.38,0,0,1-3.89,1v-10A7.28,7.28,0,0,0,300.49,263.12Z" style="opacity:0.30000000000000004"></path><path d="M287.32,257h0a2.94,2.94,0,0,0,1.29,3.58l4.5,2.57a7.36,7.36,0,0,0,3.49,1v10a7.26,7.26,0,0,1-3.49-1l-4.5-2.56a3.29,3.29,0,0,1-1.21-1.29A14.53,14.53,0,0,1,287.32,257Z" style="opacity:0.2"></path><path d="M418.38,298.6h0a2.9,2.9,0,0,0-1.28-1.5l-53-30.58a7.35,7.35,0,0,0-7.38,0L304.16,297.1a3,3,0,0,0-1.28,1.51h0c-1.51,2.79-2,15,.08,19a3.3,3.3,0,0,0,1.21,1.28l53,30.58a7.35,7.35,0,0,0,7.38,0l52.59-30.56a2.89,2.89,0,0,0,1.18-1.3h0C420.4,313.61,419.89,301.39,418.38,298.6Z" style="fill:#A61C3C"></path><path d="M418.38,298.6h0a2.9,2.9,0,0,0-1.28-1.5l-53-30.58a7.35,7.35,0,0,0-7.38,0L304.16,297.1a3,3,0,0,0-1.28,1.51h0c-1.51,2.79-2,15,.08,19a3.3,3.3,0,0,0,1.21,1.28l53,30.58a7.35,7.35,0,0,0,7.38,0l52.59-30.56a2.89,2.89,0,0,0,1.18-1.3h0C420.4,313.61,419.89,301.39,418.38,298.6Z" style="opacity:0.1"></path><path d="M364.52,332.77l52.59-30.57a2.93,2.93,0,0,0,1.27-3.59h0c1.51,2.79,2,15-.09,19h0a2.89,2.89,0,0,1-1.18,1.3l-52.59,30.56a7.28,7.28,0,0,1-3.89,1V333.75A7.37,7.37,0,0,0,364.52,332.77Z" style="opacity:0.30000000000000004"></path><path d="M302.88,298.6h0a2.93,2.93,0,0,0,1.29,3.58l53,30.59a7.36,7.36,0,0,0,3.49,1v16.72a7.25,7.25,0,0,1-3.49-1l-53-30.58a3.3,3.3,0,0,1-1.21-1.28C300.86,313.61,301.37,301.39,302.88,298.6Z" style="opacity:0.2"></path><path d="M418.38,280.06h0a2.88,2.88,0,0,0-1.28-1.49l-53-30.59a7.4,7.4,0,0,0-7.38,0l-52.59,30.57a2.88,2.88,0,0,0-1.28,1.51h0c-1.51,2.78-2,15,.08,19a3.23,3.23,0,0,0,1.21,1.28l53,30.59a7.37,7.37,0,0,0,7.38,0l52.59-30.56a2.94,2.94,0,0,0,1.18-1.3h0C420.4,295.06,419.89,282.84,418.38,280.06Z" style="fill:#A61C3C"></path><path d="M418.38,280.06h0a2.88,2.88,0,0,0-1.28-1.49l-53-30.59a7.4,7.4,0,0,0-7.38,0l-52.59,30.57a2.88,2.88,0,0,0-1.28,1.51h0c-1.51,2.78-2,15,.08,19a3.23,3.23,0,0,0,1.21,1.28l53,30.59a7.37,7.37,0,0,0,7.38,0l52.59-30.56a2.94,2.94,0,0,0,1.18-1.3h0C420.4,295.06,419.89,282.84,418.38,280.06Z" style="opacity:0.1"></path><path d="M366.75,194.55h0v0Z" style="fill:#ffa8a7"></path><path d="M429.49,217.74l-50.08-28.92a3,3,0,0,0-1.47-.4h-.24c-4.58,0-8.16,2.77-10.83,6l-.11.13v0a3.06,3.06,0,0,0-.58,1.12L351.8,249.19a7.13,7.13,0,0,0,3.32,8l50.08,28.92a3.15,3.15,0,0,0,1.77.4h0a16.55,16.55,0,0,0,10.8-6,3,3,0,0,0,.68-1.25l14.37-53.52A7.13,7.13,0,0,0,429.49,217.74Z" style="fill:#A61C3C"></path><path d="M429.49,217.74l-50.08-28.92a3,3,0,0,0-1.47-.4h-.24c-4.58,0-8.16,2.77-10.83,6a3.05,3.05,0,0,1,3.77-.58l50.09,28.92a7.18,7.18,0,0,1,3.1,3.66l8.74-5.05A7.12,7.12,0,0,0,429.49,217.74Z" style="opacity:0.1"></path><path d="M423.83,226.4a7.16,7.16,0,0,1,.21,4.35l-14.37,53.52a3,3,0,0,1-2.7,2.25h0a16.55,16.55,0,0,0,10.8-6,3,3,0,0,0,.68-1.25l14.37-53.52a7.1,7.1,0,0,0-.24-4.4Z" style="opacity:0.2"></path><path d="M351.8,249.19l14.37-53.52a3.06,3.06,0,0,1,.58-1.12h0v0l.11-.13c2.67-3.21,6.25-5.94,10.83-6h.24a3.22,3.22,0,0,1,.75.1,3.67,3.67,0,0,1,.72.3l50.08,28.92a8.21,8.21,0,0,1,1,.7l0,0a6.67,6.67,0,0,1,.84.84v0a7,7,0,0,1,1.2,2h0a8.06,8.06,0,0,1,.32,1.06h0a4.51,4.51,0,0,1,.09.53v0c0,.17,0,.33.05.5v.1c0,.15,0,.31,0,.46s0,.12,0,.17,0,.26,0,.39,0,.19,0,.29a2.7,2.7,0,0,0,0,.28c0,.19-.08.38-.13.57l-14.37,53.52a3,3,0,0,1-.68,1.25,16.55,16.55,0,0,1-10.8,6h0a3.15,3.15,0,0,1-1.77-.4L355.12,257.2A7.13,7.13,0,0,1,351.8,249.19Z" style="opacity:0.1"></path><path d="M364.52,314.22l52.59-30.56a2.94,2.94,0,0,0,1.27-3.6h0c1.51,2.78,2,15-.09,19h0a2.94,2.94,0,0,1-1.18,1.3L364.52,331a7.28,7.28,0,0,1-3.89,1V315.21A7.38,7.38,0,0,0,364.52,314.22Z" style="opacity:0.30000000000000004"></path><path d="M302.88,280.06h0a2.94,2.94,0,0,0,1.29,3.58l53,30.58a7.26,7.26,0,0,0,3.49,1v16.72a7.36,7.36,0,0,1-3.49-1l-53-30.59a3.23,3.23,0,0,1-1.21-1.28C300.86,295.06,301.37,282.84,302.88,280.06Z" style="opacity:0.2"></path><path d="M321,318a54.09,54.09,0,0,1,.95,8.9l2.12-.79a5.45,5.45,0,0,1,5.86,1.33l.11.11a2.12,2.12,0,0,0,2.93.13h0a2.13,2.13,0,0,0,.73-1.53l.28-9Z" style="fill:#ffa8a7"></path><path d="M329.16,351.35c-4.38,4.68-12.45,8.78-18.31,4.78l.66,1.49c5.86,4,13.93-.1,18.31-4.78s1.54-7.93,5.48-12.09a14.42,14.42,0,0,0,3.41-5.06c-.18-.45-.35-1-.55-1.7a18,18,0,0,1-3.52,5.27C330.7,343.42,333.54,346.66,329.16,351.35Z" style="fill:#f5f5f5"></path><path d="M336,329.09a8.34,8.34,0,0,1-1.38-3.19,1.85,1.85,0,0,0-.87-1.31l0,1.51a2.13,2.13,0,0,1-3.66,1.4l-.11-.11a5.45,5.45,0,0,0-5.86-1.33l-2.15.81a1.63,1.63,0,0,0-1.07,1.57c.14,6.15-2.73,14.31-5.74,18.79-3.09,1.28-5.77,5.5-4.4,8.59l.13.31c5.86,4,13.93-.1,18.31-4.78s1.54-7.93,5.48-12.09a18,18,0,0,0,3.52-5.27A19.44,19.44,0,0,0,336,329.09Z" style="fill:#A61C3C"></path><path d="M327.43,338a.75.75,0,0,0,.69-1.33,8.55,8.55,0,0,0-8.42,0q-.19.72-.42,1.44A8.26,8.26,0,0,1,327.43,338Z" style="fill:#fff"></path><path d="M328.51,334.64a.75.75,0,0,0,.69-1.33,9,9,0,0,0-8.76.07c-.09.5-.19,1-.3,1.51A8.31,8.31,0,0,1,328.51,334.64Z" style="fill:#fff"></path><path d="M326.24,341.27a.76.76,0,0,0,1-.34.74.74,0,0,0-.31-1,8.49,8.49,0,0,0-8.23-.08c-.19.52-.38,1-.59,1.53A8.22,8.22,0,0,1,326.24,341.27Z" style="fill:#fff"></path><path d="M315.12,347.23c-3.09,1.28-5.77,5.5-4.4,8.59l.13.31c5.78,3.94,13.68,0,18.11-4.58C325.27,344.32,317.56,346.12,315.12,347.23Z" style="fill:#fff"></path><path d="M325,344.49a.75.75,0,0,0,.69-1.32,8.55,8.55,0,0,0-8.25-.08c-.27.58-.54,1.12-.81,1.65A8.36,8.36,0,0,1,325,344.49Z" style="fill:#fff"></path><path d="M311.8,335.82a54.35,54.35,0,0,1-2.72,8.52l2.26.13a5.44,5.44,0,0,1,4.82,3.59l.06.14a2.11,2.11,0,0,0,2.63,1.3h0a2.07,2.07,0,0,0,1.28-1.11l3.89-8.1Z" style="fill:#ffa8a7"></path><path d="M305.78,369.66c-5.9,2.52-14.93,3-18.68-3v1.63c3.75,6,12.78,5.53,18.68,3s4.61-6.64,9.89-8.85a14.38,14.38,0,0,0,5.17-3.26c0-.48.1-1.08.18-1.77a18,18,0,0,1-5.35,3.4C310.39,363,311.68,367.14,305.78,369.66Z" style="fill:#f5f5f5"></path><path d="M321,352.06a8.51,8.51,0,0,1,0-3.48,1.86,1.86,0,0,0-.27-1.55l-.65,1.36a2.12,2.12,0,0,1-3.91-.19l-.06-.14a5.44,5.44,0,0,0-4.82-3.59l-2.29-.13a1.66,1.66,0,0,0-1.62,1c-2.35,5.67-8.27,12-12.83,14.87-3.35-.08-7.5,2.7-7.5,6.08v.34c3.75,6,12.78,5.53,18.68,3s4.61-6.64,9.89-8.85a18,18,0,0,0,5.35-3.4A19.35,19.35,0,0,0,321,352.06Z" style="fill:#A61C3C"></path><path d="M309.6,356.71a.75.75,0,0,0,1.17-.93,8.54,8.54,0,0,0-7.71-3.39c-.31.39-.63.78-1,1.15A8.26,8.26,0,0,1,309.6,356.71Z" style="fill:#fff"></path><path d="M311.93,354.11a.74.74,0,0,0,1,.09.73.73,0,0,0,.12-1,9,9,0,0,0-8-3.47c-.28.42-.58.84-.88,1.26A8.33,8.33,0,0,1,311.93,354.11Z" style="fill:#fff"></path><path d="M307.18,359.26a.75.75,0,0,0,1.05.09.74.74,0,0,0,.12-1,8.56,8.56,0,0,0-7.5-3.4c-.38.4-.77.79-1.16,1.17A8.23,8.23,0,0,1,307.18,359.26Z" style="fill:#fff"></path><path d="M294.6,360.23c-3.35-.08-7.5,2.7-7.5,6.08v.34c3.69,5.93,12.51,5.54,18.41,3.12C305.06,361.66,297.27,360.2,294.6,360.23Z" style="fill:#fff"></path><path d="M304.69,361.69a.75.75,0,0,0,1.17-.94,8.56,8.56,0,0,0-7.52-3.4c-.47.42-.94.82-1.4,1.19A8.3,8.3,0,0,1,304.69,361.69Z" style="fill:#fff"></path><path d="M346.46,259.08l-29.53,16.46A14.61,14.61,0,0,0,309.67,291l5.73,30.86-4.7,14.94c4.05,5.43,13.36,5.71,13.36,5.71,5.19-10.41,9-14.84,11.95-23.57s4.92-14.74,4.92-14.74l24.52-6.7a29.06,29.06,0,0,0,21.25-24.73c.42-3.71.44-6.24.44-6.24Z" style="fill:#455a64"></path><path d="M346.46,259.08l-29.53,16.46A14.61,14.61,0,0,0,309.67,291l5.73,30.86-4.7,14.94c4.05,5.43,13.36,5.71,13.36,5.71,5.19-10.41,9-14.84,11.95-23.57s4.92-14.74,4.92-14.74l24.52-6.7a29.06,29.06,0,0,0,21.25-24.73c.42-3.71.44-6.24.44-6.24Z" style="opacity:0.4"></path><path d="M346.68,267.38a14,14,0,0,0,3.31,9l-20.84,13a15,15,0,0,0-6.38,8.32l-7.37,24.11L322.05,295a12.14,12.14,0,0,1,5.42-7.43l19.24-11.9C344.74,270.76,346.68,267.38,346.68,267.38Z" style="opacity:0.2"></path><path d="M336.78,231.42l-1.86,14c-4.58,6.32-4.58,9.93-4.9,12.05l9.26,4.18c8.39-6.74,8.47-15.12,8.47-15.12l-.25-12Z" style="fill:#ffa8a7"></path><path d="M334.92,245.43a8.38,8.38,0,0,1,7.77,2.82,12.48,12.48,0,0,0-1.78-2.79,5.27,5.27,0,0,0-2.83-1.66C337,243.6,335.67,244.6,334.92,245.43Z" style="opacity:0.2"></path><path d="M337.58,254.39a6.67,6.67,0,0,0-5.73,1.07,17.31,17.31,0,0,0-1.78,1.65c0,.13,0,.25-.05.37l9.26,4.18a24.37,24.37,0,0,0,3.43-3.36c-.1-.16-.19-.33-.31-.49A8.89,8.89,0,0,0,337.58,254.39Z" style="opacity:0.2"></path><path d="M350.5,208.27l-3,.2A11.46,11.46,0,0,0,336.79,219l-1.26,15.6c4.33,5.43,15.61,3.15,15.61,3.15Z" style="fill:#455a64"></path><path d="M350.5,208.27l-3,.2A11.46,11.46,0,0,0,336.79,219l-1.26,15.6c4.33,5.43,15.61,3.15,15.61,3.15Z" style="fill:#fff;opacity:0.30000000000000004"></path><path d="M387.61,268.82c-5.24,5-30.4,6-43.23-6.26,1.23-8.63.82-17.87,0-27s-6.17-25.13,4-27c13.62-2.66,22.52-2.45,31.63,2.68C389.77,227.44,388.43,251.67,387.61,268.82Z" style="fill:#455a64"></path><path d="M387.61,268.82c-5.24,5-30.4,6-43.23-6.26,1.23-8.63.82-17.87,0-27s-6.17-25.13,4-27c13.62-2.66,22.52-2.45,31.63,2.68C389.77,227.44,388.43,251.67,387.61,268.82Z" style="fill:#fff;opacity:0.2"></path><path d="M366.87,203.45c1.7-2.89,6.16-15.94,7.85-18.83a24.58,24.58,0,0,0,2.53-5.21,8.24,8.24,0,0,0-.13-5.69c-.79-1.77-2.62-3.41-4.56-3.34,1.08-.64,2.42-1.5,3.49-2.13a6,6,0,0,0-6.39,1.42c0-2.35-1-4.33-3.27-5a13.09,13.09,0,0,0-7,.27,37.17,37.17,0,0,1-6.88,1.47,6.43,6.43,0,0,1-5.65-2.48,3.7,3.7,0,0,0-1.83,2.85,3.21,3.21,0,0,0,1.18,2.91,4.88,4.88,0,0,0-3.66,8.24c-1.82,2.6-1.5,6.31-.22,9.21s3.52,5.27,5.71,7.58C355.47,196.79,360,206.8,366.87,203.45Z" style="fill:#263238"></path><path d="M367.23,198.74v9.58a4.51,4.51,0,0,1-1.53,3.4,12.76,12.76,0,0,1-9.15,3.11,3.21,3.21,0,0,1-1.9-.58,2.49,2.49,0,0,1-.61-2.61,5,5,0,0,1,.69-1.41,4.28,4.28,0,0,0,.76-2.42v-9.07Z" style="fill:#ffa8a7"></path><path d="M360.25,206.48a25.71,25.71,0,0,1-4.76.94v-8.68h11.74v2a10.07,10.07,0,0,1-1,1.69A11.72,11.72,0,0,1,360.25,206.48Z" style="opacity:0.2"></path><path d="M355,183.38c1.46-.42,3-1.19,4.41-.62a7.94,7.94,0,0,1,2,1.52,6.91,6.91,0,0,0,4.38,1.55,1.38,1.38,0,0,1,.17.75l-.18,4a1.93,1.93,0,0,0,.41,1.58,1.28,1.28,0,0,0,1.45,0,3.75,3.75,0,0,0,1.05-1.12,11.21,11.21,0,0,1,2.1-2.45,3.77,3.77,0,0,1,3-.88c1.74.35,2.76,2.31,2.64,4.08a5.49,5.49,0,0,1-2.84,4.39,5.41,5.41,0,0,1-5.17-.29c.26,3.15-1.89,6.11-4.59,7.75s-5.91,2.22-9,2.77a9.81,9.81,0,0,1-5.13,0,6.26,6.26,0,0,1-3.09-2.75,14.7,14.7,0,0,1-1.52-3.92,49.2,49.2,0,0,1-1.24-19.1C346.79,183.23,351.9,184.27,355,183.38Z" style="fill:#ffa8a7"></path><polygon points="352.59 190.33 348.99 196.38 353.28 197.18 352.59 190.33" style="fill:#f28f8f"></polygon><path d="M357.41,199.27l-3.26,1.58a2.13,2.13,0,0,0,2.47.7A1.91,1.91,0,0,0,357.41,199.27Z" style="fill:#f28f8f"></path><path d="M357.41,199.27l-3.26,1.58a2.13,2.13,0,0,0,2.47.7A1.91,1.91,0,0,0,357.41,199.27Z" style="opacity:0.30000000000000004"></path><path d="M355.49,201.66a2,2,0,0,0,1.13-.11,1.72,1.72,0,0,0,.87-1.71,2,2,0,0,0-2,1.82Z" style="fill:#f28f8f"></path><path d="M358.79,190.57a1.22,1.22,0,0,1-1.1,1.34,1.23,1.23,0,1,1-.24-2.44A1.22,1.22,0,0,1,358.79,190.57Z" style="fill:#263238"></path><path d="M348.47,191.21a1.23,1.23,0,0,1-2.45.24,1.23,1.23,0,1,1,2.45-.24Z" style="fill:#263238"></path><path d="M346.79,186.45l-2.53,2.15a1.75,1.75,0,0,1,.34-2A2.08,2.08,0,0,1,346.79,186.45Z" style="fill:#263238"></path><path d="M357.26,185.25l2.91,1.6a1.76,1.76,0,0,0-.73-1.87A2.1,2.1,0,0,0,357.26,185.25Z" style="fill:#263238"></path><path d="M338.72,267.08a16.4,16.4,0,0,1-3.55,3.41,7.46,7.46,0,0,1-4.67,1.32,4.75,4.75,0,0,1-3.87-2.63,2.76,2.76,0,0,1-2.13-1.39,2.85,2.85,0,0,1,.05-2.59,2.74,2.74,0,0,1-.83-2.64A6.33,6.33,0,0,1,325,260a19.85,19.85,0,0,1,6.06-5.33c1.71-1,4.25-.52,6,.37a6.68,6.68,0,0,1,3.5,4.53A10.08,10.08,0,0,1,338.72,267.08Z" style="fill:#ffa8a7"></path><path d="M341.06,258l6.22,3.75A3.43,3.43,0,0,1,349,265s0,.05,0,.08A3.44,3.44,0,0,1,345,268l-3.23-.44Z" style="fill:#A61C3C"></path><path d="M347.35,263.11l-6.16-3.43.61,7.86L345,268a3.5,3.5,0,0,0,3.36-1.47l.16-.8A2.42,2.42,0,0,0,347.35,263.11Z" style="fill:#A61C3C"></path><path d="M347.35,263.11l-6.16-3.43.61,7.86L345,268a3.5,3.5,0,0,0,3.36-1.47l.16-.8A2.42,2.42,0,0,0,347.35,263.11Z" style="opacity:0.2"></path><path d="M343,260.7a2.82,2.82,0,0,1-1.18,2.24,8.67,8.67,0,0,1-5.34,1.66l-2.32.88a2,2,0,0,1-1.55-.1l-4.31-2.49a.63.63,0,0,1-.36-.52h0v4.95h0a.64.64,0,0,0,.36.48l4.31,2.49a1.93,1.93,0,0,0,1.55.09l2.32-.87a8.67,8.67,0,0,0,5.34-1.66,2.84,2.84,0,0,0,1.18-2.26h0V260.7Z" style="fill:#A61C3C"></path><path d="M343,260.7a2.82,2.82,0,0,1-1.18,2.24,8.67,8.67,0,0,1-5.34,1.66l-2.32.88a2,2,0,0,1-1.55-.1l-4.31-2.49a.63.63,0,0,1-.36-.52h0v4.95h0a.64.64,0,0,0,.36.48l4.31,2.49a1.93,1.93,0,0,0,1.55.09l2.32-.87a8.67,8.67,0,0,0,5.34-1.66,2.84,2.84,0,0,0,1.18-2.26h0V260.7Z" style="opacity:0.2"></path><path d="M328.33,262.89l4.31,2.49a2,2,0,0,0,1.55.1l2.32-.88a8.67,8.67,0,0,0,5.34-1.66A2.82,2.82,0,0,0,343,260.7a3.06,3.06,0,0,0-1.45-2.37c-.16-.12-.34-.23-.52-.34a10.44,10.44,0,0,0-9.46,0,3.37,3.37,0,0,0-1.93,2.66L328.16,262a.56.56,0,0,0-.19.38A.63.63,0,0,0,328.33,262.89Z" style="fill:#A61C3C"></path><polygon points="328.48 264.35 328.47 265.61 331.55 267.39 331.56 266.13 328.48 264.35" style="fill:#A61C3C"></polygon><polygon points="331.56 266.13 331.55 267.39 332.19 267.02 332.2 265.75 331.56 266.13" style="fill:#A61C3C"></polygon><polygon points="332.2 265.75 329.12 263.98 328.48 264.35 331.56 266.13 332.2 265.75" style="fill:#A61C3C"></polygon><polygon points="328.48 264.35 328.47 265.61 331.55 267.39 331.56 266.13 328.48 264.35" style="fill:#fff;opacity:0.2"></polygon><polygon points="331.56 266.13 331.55 267.39 332.19 267.02 332.2 265.75 331.56 266.13" style="fill:#fff;opacity:0.1"></polygon><polygon points="332.2 265.75 329.12 263.98 328.48 264.35 331.56 266.13 332.2 265.75" style="fill:#fff;opacity:0.30000000000000004"></polygon><polygon points="328.48 266.84 328.47 268.1 331.55 269.88 331.56 268.61 328.48 266.84" style="fill:#A61C3C"></polygon><polygon points="331.56 268.61 331.55 269.88 332.19 269.5 332.2 268.24 331.56 268.61" style="fill:#A61C3C"></polygon><polygon points="332.2 268.24 329.12 266.46 328.48 266.84 331.56 268.61 332.2 268.24" style="fill:#A61C3C"></polygon><polygon points="328.48 266.84 328.47 268.1 331.55 269.88 331.56 268.61 328.48 266.84" style="fill:#fff;opacity:0.2"></polygon><polygon points="331.56 268.61 331.55 269.88 332.19 269.5 332.2 268.24 331.56 268.61" style="fill:#fff;opacity:0.1"></polygon><polygon points="332.2 268.24 329.12 266.46 328.48 266.84 331.56 268.61 332.2 268.24" style="fill:#fff;opacity:0.30000000000000004"></polygon><path d="M334.26,261.86a2.31,2.31,0,0,1-2.08,0,.76.76,0,0,1-.43-.6h0v1h0a.76.76,0,0,0,.43.6,2.31,2.31,0,0,0,2.08,0,.74.74,0,0,0,.43-.6h0v-1A.75.75,0,0,1,334.26,261.86Z" style="fill:#A61C3C"></path><path d="M334.26,261.86a2.31,2.31,0,0,1-2.08,0,.76.76,0,0,1-.43-.6h0v1h0a.76.76,0,0,0,.43.6,2.31,2.31,0,0,0,2.08,0,.74.74,0,0,0,.43-.6h0v-1A.75.75,0,0,1,334.26,261.86Z" style="fill:#fff;opacity:0.2"></path><polygon points="334.69 261.26 334.69 261.26 334.69 261.26 334.69 261.26" style="fill:#455a64"></polygon><path d="M332.18,261.86a2.31,2.31,0,0,0,2.08,0,.75.75,0,0,0,.43-.6h0a.75.75,0,0,0-.44-.6,2.25,2.25,0,0,0-2.08,0,.72.72,0,0,0-.42.6A.76.76,0,0,0,332.18,261.86Z" style="fill:#A61C3C"></path><path d="M332.18,261.86a2.31,2.31,0,0,0,2.08,0,.75.75,0,0,0,.43-.6h0a.75.75,0,0,0-.44-.6,2.25,2.25,0,0,0-2.08,0,.72.72,0,0,0-.42.6A.76.76,0,0,0,332.18,261.86Z" style="fill:#fff;opacity:0.4"></path><path d="M339.05,259.13a2.29,2.29,0,0,1-2.07,0,.75.75,0,0,1-.44-.6h0v1h0a.75.75,0,0,0,.44.61,2.29,2.29,0,0,0,2.07,0,.74.74,0,0,0,.43-.61h0v-1A.74.74,0,0,1,339.05,259.13Z" style="fill:#A61C3C"></path><path d="M339.05,259.13a2.29,2.29,0,0,1-2.07,0,.75.75,0,0,1-.44-.6h0v1h0a.75.75,0,0,0,.44.61,2.29,2.29,0,0,0,2.07,0,.74.74,0,0,0,.43-.61h0v-1A.74.74,0,0,1,339.05,259.13Z" style="fill:#fff;opacity:0.2"></path><path d="M337,259.13a2.29,2.29,0,0,0,2.07,0,.74.74,0,0,0,.43-.6h0a.75.75,0,0,0-.44-.61,2.29,2.29,0,0,0-2.07,0,.74.74,0,0,0-.43.61A.75.75,0,0,0,337,259.13Z" style="fill:#A61C3C"></path><path d="M337,259.13a2.29,2.29,0,0,0,2.07,0,.74.74,0,0,0,.43-.6h0a.75.75,0,0,0-.44-.61,2.29,2.29,0,0,0-2.07,0,.74.74,0,0,0-.43.61A.75.75,0,0,0,337,259.13Z" style="fill:#fff;opacity:0.4"></path><path d="M337.2,261.67a2.28,2.28,0,0,0,2.08,0,.71.71,0,0,0,.43-.6h0v1h0a.71.71,0,0,1-.43.6,2.25,2.25,0,0,1-2.08,0,.7.7,0,0,1-.42-.6h0v-1A.75.75,0,0,0,337.2,261.67Z" style="fill:#A61C3C"></path><path d="M337.2,261.67a2.28,2.28,0,0,0,2.08,0,.71.71,0,0,0,.43-.6h0v1h0a.71.71,0,0,1-.43.6,2.25,2.25,0,0,1-2.08,0,.7.7,0,0,1-.42-.6h0v-1A.75.75,0,0,0,337.2,261.67Z" style="fill:#fff;opacity:0.2"></path><polygon points="336.78 261.06 336.78 261.06 336.78 261.06 336.78 261.06" style="fill:#455a64"></polygon><path d="M339.28,261.66a2.28,2.28,0,0,1-2.08,0,.75.75,0,0,1-.42-.61h0a.74.74,0,0,1,.43-.6,2.31,2.31,0,0,1,2.08,0,.64.64,0,0,1,0,1.2Z" style="fill:#A61C3C"></path><path d="M339.28,261.66a2.28,2.28,0,0,1-2.08,0,.75.75,0,0,1-.42-.61h0a.74.74,0,0,1,.43-.6,2.31,2.31,0,0,1,2.08,0,.64.64,0,0,1,0,1.2Z" style="fill:#fff;opacity:0.4"></path><path d="M332.41,258.94a2.28,2.28,0,0,0,2.08,0,.73.73,0,0,0,.43-.6h0v1h0a.73.73,0,0,1-.43.6,2.25,2.25,0,0,1-2.08,0,.71.71,0,0,1-.43-.6h0v-1A.76.76,0,0,0,332.41,258.94Z" style="fill:#A61C3C"></path><path d="M332.41,258.94a2.28,2.28,0,0,0,2.08,0,.73.73,0,0,0,.43-.6h0v1h0a.73.73,0,0,1-.43.6,2.25,2.25,0,0,1-2.08,0,.71.71,0,0,1-.43-.6h0v-1A.76.76,0,0,0,332.41,258.94Z" style="fill:#fff;opacity:0.2"></path><polygon points="331.98 258.33 331.98 258.33 331.98 258.33 331.98 258.33" style="fill:#455a64"></polygon><path d="M334.49,258.93a2.28,2.28,0,0,1-2.08,0,.76.76,0,0,1-.43-.61h0a.76.76,0,0,1,.44-.6,2.31,2.31,0,0,1,2.08,0,.64.64,0,0,1,0,1.2Z" style="fill:#A61C3C"></path><path d="M334.49,258.93a2.28,2.28,0,0,1-2.08,0,.76.76,0,0,1-.43-.61h0a.76.76,0,0,1,.44-.6,2.31,2.31,0,0,1,2.08,0,.64.64,0,0,1,0,1.2Z" style="fill:#fff;opacity:0.4"></path><polygon points="349.73 264.78 343.11 260.96 336.79 264.63 343.4 268.44 349.73 264.78" style="fill:#A61C3C"></polygon><polygon points="349.73 264.78 343.11 260.96 336.79 264.63 343.4 268.44 349.73 264.78" style="opacity:0.1"></polygon><polygon points="343.4 268.44 343.39 272.98 349.71 269.32 349.73 264.78 343.4 268.44" style="fill:#A61C3C"></polygon><polygon points="336.79 264.63 336.77 269.16 343.39 272.98 343.4 268.44 336.79 264.63" style="fill:#A61C3C"></polygon><polygon points="336.79 264.63 336.77 269.16 343.39 272.98 343.4 268.44 336.79 264.63" style="opacity:0.2"></polygon><polygon points="344.1 265.43 342.64 264.58 341.82 265.06 343.28 265.9 344.1 265.43" style="fill:#A61C3C"></polygon><polygon points="344.1 265.43 342.64 264.58 341.82 265.06 343.28 265.9 344.1 265.43" style="fill:#fff;opacity:0.30000000000000004"></polygon><polygon points="343.28 265.9 343.28 266.21 344.1 265.74 344.1 265.43 343.28 265.9" style="fill:#A61C3C"></polygon><polygon points="343.28 265.9 343.28 266.21 344.1 265.74 344.1 265.43 343.28 265.9" style="fill:#fff;opacity:0.1"></polygon><polygon points="341.82 265.06 341.82 265.37 343.28 266.21 343.28 265.9 341.82 265.06" style="fill:#A61C3C"></polygon><polygon points="341.82 265.06 341.82 265.37 343.28 266.21 343.28 265.9 341.82 265.06" style="fill:#fff;opacity:0.2"></polygon><polygon points="341.49 263.92 340.03 263.07 339.21 263.55 340.67 264.39 341.49 263.92" style="fill:#A61C3C"></polygon><polygon points="341.49 263.92 340.03 263.07 339.21 263.55 340.67 264.39 341.49 263.92" style="fill:#fff;opacity:0.30000000000000004"></polygon><polygon points="340.67 264.39 340.67 264.7 341.49 264.23 341.49 263.92 340.67 264.39" style="fill:#A61C3C"></polygon><polygon points="340.67 264.39 340.67 264.7 341.49 264.23 341.49 263.92 340.67 264.39" style="fill:#fff;opacity:0.1"></polygon><polygon points="339.21 263.55 339.21 263.86 340.67 264.7 340.67 264.39 339.21 263.55" style="fill:#A61C3C"></polygon><polygon points="339.21 263.55 339.21 263.86 340.67 264.7 340.67 264.39 339.21 263.55" style="fill:#fff;opacity:0.2"></polygon><path d="M354.67,265.29l6.21,3.75a3.41,3.41,0,0,1,1.68,3.25.28.28,0,0,0,0,.09,3.45,3.45,0,0,1-3.92,2.9l-3.23-.44Z" style="fill:#A61C3C"></path><path d="M361,270.41,354.8,267l.6,7.87,3.23.44a3.49,3.49,0,0,0,3.36-1.47l.16-.8A2.43,2.43,0,0,0,361,270.41Z" style="fill:#A61C3C"></path><path d="M361,270.41,354.8,267l.6,7.87,3.23.44a3.49,3.49,0,0,0,3.36-1.47l.16-.8A2.43,2.43,0,0,0,361,270.41Z" style="opacity:0.2"></path><path d="M356.63,268a2.84,2.84,0,0,1-1.17,2.24,8.72,8.72,0,0,1-5.35,1.66l-2.32.87a1.94,1.94,0,0,1-1.55-.09l-4.31-2.49a.63.63,0,0,1-.36-.52h0v4.95h0a.68.68,0,0,0,.36.48l4.31,2.49a2,2,0,0,0,1.55.09l2.32-.87a8.85,8.85,0,0,0,5.35-1.66,2.83,2.83,0,0,0,1.17-2.26h0V268Z" style="fill:#A61C3C"></path><path d="M356.63,268a2.84,2.84,0,0,1-1.17,2.24,8.72,8.72,0,0,1-5.35,1.66l-2.32.87a1.94,1.94,0,0,1-1.55-.09l-4.31-2.49a.63.63,0,0,1-.36-.52h0v4.95h0a.68.68,0,0,0,.36.48l4.31,2.49a2,2,0,0,0,1.55.09l2.32-.87a8.85,8.85,0,0,0,5.35-1.66,2.83,2.83,0,0,0,1.17-2.26h0V268Z" style="opacity:0.2"></path><path d="M341.93,270.19l4.31,2.49a1.94,1.94,0,0,0,1.55.09l2.32-.87a8.72,8.72,0,0,0,5.35-1.66,2.84,2.84,0,0,0,1.17-2.24,3.06,3.06,0,0,0-1.45-2.37c-.16-.12-.33-.23-.51-.34a10.46,10.46,0,0,0-9.47,0,3.35,3.35,0,0,0-1.93,2.66l-1.51,1.34a.6.6,0,0,0-.19.38A.63.63,0,0,0,341.93,270.19Z" style="fill:#A61C3C"></path><polygon points="342.08 271.65 342.08 272.91 345.15 274.69 345.16 273.43 342.08 271.65" style="fill:#A61C3C"></polygon><polygon points="345.16 273.43 345.15 274.69 345.79 274.32 345.8 273.05 345.16 273.43" style="fill:#A61C3C"></polygon><polygon points="345.8 273.05 342.72 271.27 342.08 271.65 345.16 273.43 345.8 273.05" style="fill:#A61C3C"></polygon><polygon points="342.08 271.65 342.08 272.91 345.15 274.69 345.16 273.43 342.08 271.65" style="fill:#fff;opacity:0.2"></polygon><polygon points="345.16 273.43 345.15 274.69 345.79 274.32 345.8 273.05 345.16 273.43" style="fill:#fff;opacity:0.1"></polygon><polygon points="345.8 273.05 342.72 271.27 342.08 271.65 345.16 273.43 345.8 273.05" style="fill:#fff;opacity:0.30000000000000004"></polygon><polygon points="342.08 274.13 342.08 275.4 345.15 277.17 345.16 275.91 342.08 274.13" style="fill:#A61C3C"></polygon><polygon points="345.16 275.91 345.15 277.17 345.79 276.8 345.8 275.54 345.16 275.91" style="fill:#A61C3C"></polygon><polygon points="345.8 275.54 342.72 273.76 342.08 274.13 345.16 275.91 345.8 275.54" style="fill:#A61C3C"></polygon><polygon points="342.08 274.13 342.08 275.4 345.15 277.17 345.16 275.91 342.08 274.13" style="fill:#fff;opacity:0.2"></polygon><polygon points="345.16 275.91 345.15 277.17 345.79 276.8 345.8 275.54 345.16 275.91" style="fill:#fff;opacity:0.1"></polygon><polygon points="345.8 275.54 342.72 273.76 342.08 274.13 345.16 275.91 345.8 275.54" style="fill:#fff;opacity:0.30000000000000004"></polygon><path d="M347.86,269.16a2.31,2.31,0,0,1-2.08,0,.76.76,0,0,1-.43-.61h0v1h0a.73.73,0,0,0,.43.6,2.28,2.28,0,0,0,2.08,0,.74.74,0,0,0,.43-.61h0v-1A.74.74,0,0,1,347.86,269.16Z" style="fill:#A61C3C"></path><path d="M347.86,269.16a2.31,2.31,0,0,1-2.08,0,.76.76,0,0,1-.43-.61h0v1h0a.73.73,0,0,0,.43.6,2.28,2.28,0,0,0,2.08,0,.74.74,0,0,0,.43-.61h0v-1A.74.74,0,0,1,347.86,269.16Z" style="fill:#fff;opacity:0.2"></path><polygon points="348.29 268.55 348.29 268.55 348.29 268.56 348.29 268.55" style="fill:#455a64"></polygon><path d="M345.78,269.16a2.31,2.31,0,0,0,2.08,0,.74.74,0,0,0,.43-.6h0a.75.75,0,0,0-.44-.6,2.31,2.31,0,0,0-2.08,0,.75.75,0,0,0-.42.6A.76.76,0,0,0,345.78,269.16Z" style="fill:#A61C3C"></path><path d="M345.78,269.16a2.31,2.31,0,0,0,2.08,0,.74.74,0,0,0,.43-.6h0a.75.75,0,0,0-.44-.6,2.31,2.31,0,0,0-2.08,0,.75.75,0,0,0-.42.6A.76.76,0,0,0,345.78,269.16Z" style="fill:#fff;opacity:0.4"></path><path d="M352.65,266.43a2.26,2.26,0,0,1-2.07,0,.73.73,0,0,1-.44-.6h0v1h0a.73.73,0,0,0,.44.6,2.26,2.26,0,0,0,2.07,0,.74.74,0,0,0,.43-.61h0v-1A.74.74,0,0,1,352.65,266.43Z" style="fill:#A61C3C"></path><path d="M352.65,266.43a2.26,2.26,0,0,1-2.07,0,.73.73,0,0,1-.44-.6h0v1h0a.73.73,0,0,0,.44.6,2.26,2.26,0,0,0,2.07,0,.74.74,0,0,0,.43-.61h0v-1A.74.74,0,0,1,352.65,266.43Z" style="fill:#fff;opacity:0.2"></path><polygon points="353.08 265.82 353.08 265.82 353.08 265.82 353.08 265.82" style="fill:#455a64"></polygon><path d="M350.58,266.42a2.26,2.26,0,0,0,2.07,0,.74.74,0,0,0,.43-.61h0a.76.76,0,0,0-.43-.6,2.31,2.31,0,0,0-2.08,0,.74.74,0,0,0-.43.6A.73.73,0,0,0,350.58,266.42Z" style="fill:#A61C3C"></path><path d="M350.58,266.42a2.26,2.26,0,0,0,2.07,0,.74.74,0,0,0,.43-.61h0a.76.76,0,0,0-.43-.6,2.31,2.31,0,0,0-2.08,0,.74.74,0,0,0-.43.6A.73.73,0,0,0,350.58,266.42Z" style="fill:#fff;opacity:0.4"></path><path d="M350.8,269a2.31,2.31,0,0,0,2.08,0,.71.71,0,0,0,.43-.6h0v1h0a.73.73,0,0,1-.43.6,2.31,2.31,0,0,1-2.08,0,.72.72,0,0,1-.42-.6h0v-1A.72.72,0,0,0,350.8,269Z" style="fill:#A61C3C"></path><path d="M350.8,269a2.31,2.31,0,0,0,2.08,0,.71.71,0,0,0,.43-.6h0v1h0a.73.73,0,0,1-.43.6,2.31,2.31,0,0,1-2.08,0,.72.72,0,0,1-.42-.6h0v-1A.72.72,0,0,0,350.8,269Z" style="fill:#fff;opacity:0.2"></path><polygon points="350.38 268.36 350.38 268.36 350.38 268.36 350.38 268.36" style="fill:#455a64"></polygon><path d="M352.88,269a2.31,2.31,0,0,1-2.08,0,.72.72,0,0,1-.42-.6h0a.73.73,0,0,1,.43-.6,2.31,2.31,0,0,1,2.08,0,.69.69,0,0,1,.42.6A.71.71,0,0,1,352.88,269Z" style="fill:#A61C3C"></path><path d="M352.88,269a2.31,2.31,0,0,1-2.08,0,.72.72,0,0,1-.42-.6h0a.73.73,0,0,1,.43-.6,2.31,2.31,0,0,1,2.08,0,.69.69,0,0,1,.42.6A.71.71,0,0,1,352.88,269Z" style="fill:#fff;opacity:0.4"></path><path d="M346,266.23a2.31,2.31,0,0,0,2.08,0,.71.71,0,0,0,.43-.6h0v1h0a.73.73,0,0,1-.43.6,2.31,2.31,0,0,1-2.08,0,.7.7,0,0,1-.42-.6h0v-1A.7.7,0,0,0,346,266.23Z" style="fill:#A61C3C"></path><path d="M346,266.23a2.31,2.31,0,0,0,2.08,0,.71.71,0,0,0,.43-.6h0v1h0a.73.73,0,0,1-.43.6,2.31,2.31,0,0,1-2.08,0,.7.7,0,0,1-.42-.6h0v-1A.7.7,0,0,0,346,266.23Z" style="fill:#fff;opacity:0.2"></path><polygon points="345.58 265.63 345.58 265.63 345.58 265.63 345.58 265.63" style="fill:#455a64"></polygon><path d="M348.09,266.23a2.31,2.31,0,0,1-2.08,0,.7.7,0,0,1-.42-.6h0a.73.73,0,0,1,.43-.6,2.31,2.31,0,0,1,2.08,0,.64.64,0,0,1,0,1.2Z" style="fill:#A61C3C"></path><path d="M348.09,266.23a2.31,2.31,0,0,1-2.08,0,.7.7,0,0,1-.42-.6h0a.73.73,0,0,1,.43-.6,2.31,2.31,0,0,1,2.08,0,.64.64,0,0,1,0,1.2Z" style="fill:#fff;opacity:0.4"></path><path d="M363.36,272.89l27-10.65a9,9,0,0,0,5.43-10.72L392,237.29l-13.52,3,3.24,11.11-19.81,14.07-3.08-1.16a8.43,8.43,0,0,0-5-.4c-1.94.47-3.87.21-6.13.17a.29.29,0,0,0-.31.29h0a2.84,2.84,0,0,0,2.78,2.91,23.78,23.78,0,0,0,4.79-.3,20.67,20.67,0,0,1-4.82,9.87c-1.3,1.38-3.59,1.08-5.62.56a1.54,1.54,0,0,0-1.89,1.15h0a1.54,1.54,0,0,0,1.21,1.86,16.68,16.68,0,0,0,7.44,0,3.74,3.74,0,0,0,2.61.8,7.49,7.49,0,0,0,2.48-.63C359,279.48,362.87,274.63,363.36,272.89Z" style="fill:#ffa8a7"></path><path d="M394.09,239.16l-.41-1.9c-4.91-22.31-8.82-23.9-15.4-26.95-6.41,5.58-5.34,15.05-5.34,15.05l5.74,17.17.17.5A20,20,0,0,0,394.09,239.16Z" style="fill:#455a64"></path><path d="M394.09,239.16l-.41-1.9c-4.91-22.31-8.82-23.9-15.4-26.95-6.41,5.58-5.34,15.05-5.34,15.05l5.74,17.17.17.5A20,20,0,0,0,394.09,239.16Z" style="fill:#fff;opacity:0.30000000000000004"></path><path d="M335.59,258.7a6.06,6.06,0,0,0,1.76,1,2.45,2.45,0,0,0,2-.16,1.54,1.54,0,0,0,.7-1.75,2.45,2.45,0,0,0-1.09-1.14,9.92,9.92,0,0,0-4.06-1.91c-.85-.11-2.75.42-2.07,1.67.21.38.77.6,1.1.86C334.47,257.74,335,258.25,335.59,258.7Z" style="fill:#ffa8a7"></path><path d="M367.37,310.79v52.53l66.82-38.58V272.23Zm7.35,4.34,52-30.07v35.37l-52,30Z" style="fill:#455a64"></path><polygon points="367.37 310.79 359.95 306.53 359.95 359.06 367.37 363.32 367.37 310.79" style="fill:#455a64"></polygon><polygon points="434.19 272.23 426.76 267.96 359.95 306.53 367.37 310.79 434.19 272.23" style="fill:#455a64"></polygon><polygon points="434.19 272.23 426.76 267.96 359.95 306.53 367.37 310.79 434.19 272.23" style="fill:#fff;opacity:0.30000000000000004"></polygon><polygon points="419.34 316.17 426.76 320.43 426.76 285.06 419.34 289.35 419.34 316.17" style="fill:#455a64"></polygon><polygon points="374.72 350.42 374.72 341.88 419.34 316.17 426.76 320.43 374.72 350.42" style="fill:#455a64"></polygon><polygon points="367.37 310.79 359.95 306.53 359.95 359.06 367.37 363.32 367.37 310.79" style="fill:#fff;opacity:0.2"></polygon><polygon points="419.34 316.17 426.76 320.43 426.76 285.06 419.34 289.35 419.34 316.17" style="fill:#fff;opacity:0.2"></polygon><polygon points="374.72 350.42 374.72 341.88 419.34 316.17 426.76 320.43 374.72 350.42" style="fill:#fff;opacity:0.30000000000000004"></polygon><path d="M436.15,260h0a2.92,2.92,0,0,0-1.28-1.49l-4.5-2.57a7.35,7.35,0,0,0-7.37,0L357,295.1a3,3,0,0,0-1.28,1.51h0a14.56,14.56,0,0,0,.08,12.28,3.3,3.3,0,0,0,1.21,1.28l4.5,2.57a7.37,7.37,0,0,0,7.38,0l66-39.13a2.91,2.91,0,0,0,1.19-1.3h0A14.56,14.56,0,0,0,436.15,260Z" style="fill:#A61C3C"></path><path d="M368.87,302.75l66-39.13a2.94,2.94,0,0,0,1.27-3.6h0a14.56,14.56,0,0,1-.08,12.28h0a2.91,2.91,0,0,1-1.19,1.3l-66,39.13a7.28,7.28,0,0,1-3.89,1v-10A7.38,7.38,0,0,0,368.87,302.75Z" style="opacity:0.30000000000000004"></path><path d="M355.7,296.6h0a2.93,2.93,0,0,0,1.29,3.58l4.5,2.57a7.37,7.37,0,0,0,3.49,1v10a7.36,7.36,0,0,1-3.49-1l-4.5-2.57a3.3,3.3,0,0,1-1.21-1.28A14.56,14.56,0,0,1,355.7,296.6Z" style="opacity:0.2"></path></g><g id="freepik--Plants--inject-51"><path d="M79.16,353.57l-17.81.52-17.81-.52c-.77,12,1.58,24.29,4.82,30.28h0a8.11,8.11,0,0,0,3.53,3.59c5.26,3,13.75,3,19,0a7.87,7.87,0,0,0,3.52-3.68C77.61,377.73,79.93,365.54,79.16,353.57Z" style="fill:#fff"></path><path d="M73.91,346.28c7,4,7,10.56.08,14.59s-18.21,4-25.19,0-7-10.56-.08-14.59S66.93,342.25,73.91,346.28Z" style="fill:#ebebeb"></path><path d="M71.15,347.88c5.44,3.14,5.47,8.24.06,11.38s-14.21,3.15-19.65,0-5.47-8.24-.06-11.38S65.7,344.74,71.15,347.88Z" style="fill:#e0e0e0"></path><g style="opacity:0.15"><path d="M71.15,347.88c5.44,3.14,5.47,8.24.06,11.38s-14.21,3.15-19.65,0-5.47-8.24-.06-11.38S65.7,344.74,71.15,347.88Z"></path></g><path d="M56.86,317.41c-2.2-4.06-4.94-7.84-6.87-12-1.33-2.86-2.25-6.24-1-9.11A7.87,7.87,0,0,1,56.15,292a12,12,0,0,1,7.9,3.34,25.65,25.65,0,0,1,5.15,7.05,62.89,62.89,0,0,1,5,46.53,9.48,9.48,0,0,1-2.55,4.78,5.18,5.18,0,0,1-5.53.65c-4.51-2.29-2.71-8.62-2.8-12.56a54.35,54.35,0,0,0-2.78-15.88A53.43,53.43,0,0,0,56.86,317.41Z" style="fill:#A61C3C"></path><path d="M56.86,317.41c-2.2-4.06-4.94-7.84-6.87-12-1.33-2.86-2.25-6.24-1-9.11A7.87,7.87,0,0,1,56.15,292a12,12,0,0,1,7.9,3.34,25.65,25.65,0,0,1,5.15,7.05,62.89,62.89,0,0,1,5,46.53,9.48,9.48,0,0,1-2.55,4.78,5.18,5.18,0,0,1-5.53.65c-4.51-2.29-2.71-8.62-2.8-12.56a54.35,54.35,0,0,0-2.78-15.88A53.43,53.43,0,0,0,56.86,317.41Z" style="opacity:0.2"></path><path d="M67.29,349.56a.41.41,0,0,1-.26-.45c1-7.72,3.32-34.33-12-52.45a.43.43,0,0,1,0-.6.44.44,0,0,1,.6.05c15.55,18.39,13.27,45.3,12.2,53.12a.43.43,0,0,1-.48.36A.17.17,0,0,1,67.29,349.56Z" style="fill:#f0f0f0"></path><path d="M69.78,350.87a13.06,13.06,0,0,1-7.33,7.06,16.77,16.77,0,0,1-9.13-.13,38.94,38.94,0,0,1-8.6-3.77c-1.36-.75-2.85-1.69-2.68-3.51a3.25,3.25,0,0,1,1.48-2.34,11.32,11.32,0,0,1,1.08-.63.94.94,0,0,0-.19-1.75,23.39,23.39,0,0,1-2.5-.78A11.56,11.56,0,0,1,37,341.61a9.2,9.2,0,0,1-1.82-4.14c-.21-1.28-.06-2.81,1-3.54a4,4,0,0,1,2.15-.51c.67,0,1.33,0,2,0a.86.86,0,0,0,.49-1.59l-2.51-1.63a5.13,5.13,0,0,1-1.83-1.66,4.55,4.55,0,0,1,.16-3.84c.64-1.64,1.52-3.17,2.23-4.79A11,11,0,0,0,40,314.79a44.12,44.12,0,0,1,15,3.78,11.31,11.31,0,0,1,3.83,2.58c1.44,1.66,1.52,3.78.94,6a.4.4,0,0,0,.7.34l2.32-2.88a2.11,2.11,0,0,1,2.86-.38,12.76,12.76,0,0,1,3.4,3.85,7,7,0,0,1,.78,5.39,45.38,45.38,0,0,1-2.63,7.24.7.7,0,0,0,1,.92l.09,0a2.37,2.37,0,0,1,1.73-.18c1.5.47,1.61,2.1,1.47,3.44A26.3,26.3,0,0,1,69.78,350.87Z" style="fill:#A61C3C"></path><path d="M69.78,350.87a13.06,13.06,0,0,1-7.33,7.06,16.77,16.77,0,0,1-9.13-.13,38.94,38.94,0,0,1-8.6-3.77c-1.36-.75-2.85-1.69-2.68-3.51a3.25,3.25,0,0,1,1.48-2.34,11.32,11.32,0,0,1,1.08-.63.94.94,0,0,0-.19-1.75,23.39,23.39,0,0,1-2.5-.78A11.56,11.56,0,0,1,37,341.61a9.2,9.2,0,0,1-1.82-4.14c-.21-1.28-.06-2.81,1-3.54a4,4,0,0,1,2.15-.51c.67,0,1.33,0,2,0a.86.86,0,0,0,.49-1.59l-2.51-1.63a5.13,5.13,0,0,1-1.83-1.66,4.55,4.55,0,0,1,.16-3.84c.64-1.64,1.52-3.17,2.23-4.79A11,11,0,0,0,40,314.79a44.12,44.12,0,0,1,15,3.78,11.31,11.31,0,0,1,3.83,2.58c1.44,1.66,1.52,3.78.94,6a.4.4,0,0,0,.7.34l2.32-2.88a2.11,2.11,0,0,1,2.86-.38,12.76,12.76,0,0,1,3.4,3.85,7,7,0,0,1,.78,5.39,45.38,45.38,0,0,1-2.63,7.24.7.7,0,0,0,1,.92l.09,0a2.37,2.37,0,0,1,1.73-.18c1.5.47,1.61,2.1,1.47,3.44A26.3,26.3,0,0,1,69.78,350.87Z" style="opacity:0.2"></path><path d="M69.78,350.87a13.06,13.06,0,0,1-7.33,7.06,16.77,16.77,0,0,1-9.13-.13,38.94,38.94,0,0,1-8.6-3.77c-1.36-.75-2.85-1.69-2.68-3.51a3.25,3.25,0,0,1,1.48-2.34,11.32,11.32,0,0,1,1.08-.63.94.94,0,0,0-.19-1.75,23.39,23.39,0,0,1-2.5-.78A11.56,11.56,0,0,1,37,341.61a9.2,9.2,0,0,1-1.82-4.14c-.21-1.28-.06-2.81,1-3.54a4,4,0,0,1,2.15-.51c.67,0,1.33,0,2,0a.86.86,0,0,0,.49-1.59l-2.51-1.63a5.13,5.13,0,0,1-1.83-1.66,4.55,4.55,0,0,1,.16-3.84c.64-1.64,1.52-3.17,2.23-4.79A11,11,0,0,0,40,314.79a44.12,44.12,0,0,1,15,3.78,11.31,11.31,0,0,1,3.83,2.58c1.44,1.66,1.52,3.78.94,6a.4.4,0,0,0,.7.34l2.32-2.88a2.11,2.11,0,0,1,2.86-.38,12.76,12.76,0,0,1,3.4,3.85,7,7,0,0,1,.78,5.39,45.38,45.38,0,0,1-2.63,7.24.7.7,0,0,0,1,.92l.09,0a2.37,2.37,0,0,1,1.73-.18c1.5.47,1.61,2.1,1.47,3.44A26.3,26.3,0,0,1,69.78,350.87Z" style="fill:#fff;opacity:0.2"></path><path d="M60.3,357.1a62.72,62.72,0,0,0-1.94-12.61.42.42,0,0,0-.09-.34c-.05-.22-.11-.44-.17-.67a39.09,39.09,0,0,1,6.53-12.86.42.42,0,0,0,0-.59.43.43,0,0,0-.6.05,39.32,39.32,0,0,0-6.3,11.9c-2.2-7.58-6.25-16.72-13.71-24.21a.42.42,0,0,0-.6.6c7.69,7.73,11.7,17.23,13.8,24.9A25.9,25.9,0,0,0,43,338.67a.42.42,0,0,0-.42.42.44.44,0,0,0,.27.4l.16,0c.08,0,8.31,0,14.5,5.11a61.85,61.85,0,0,1,1.93,12.5.45.45,0,0,0,.27.39.44.44,0,0,0,.16,0A.42.42,0,0,0,60.3,357.1Z" style="fill:#f0f0f0"></path><path d="M461.52,314.58l-14.88.43-14.88-.43c-.64,10,1.32,20.29,4,25.29h0a6.81,6.81,0,0,0,2.94,3c4.39,2.54,11.49,2.54,15.85,0a6.58,6.58,0,0,0,2.94-3.07C460.22,334.76,462.16,324.58,461.52,314.58Z" style="fill:#fff"></path><path d="M457.13,308.48c5.83,3.37,5.86,8.82.07,12.19s-15.22,3.37-21.05,0-5.86-8.82-.06-12.19S451.3,305.12,457.13,308.48Z" style="fill:#ebebeb"></path><path d="M454.82,309.82c4.55,2.63,4.58,6.88.06,9.51s-11.87,2.63-16.42,0-4.57-6.88,0-9.51S450.27,307.2,454.82,309.82Z" style="fill:#e0e0e0"></path><g style="opacity:0.15"><path d="M454.82,309.82c4.55,2.63,4.58,6.88.06,9.51s-11.87,2.63-16.42,0-4.57-6.88,0-9.51S450.27,307.2,454.82,309.82Z"></path></g><path d="M471.11,251.08c-33.54,11-33.84,33.41-26.28,49.39,1.91,3.23,7.68,5,12.7-14.9l-8.81,1.13L459,281.5l2.67-8-8.56.63L464,269.59A161.54,161.54,0,0,1,471.11,251.08Z" style="fill:#A61C3C"></path><path d="M471.11,251.08c-33.54,11-33.84,33.41-26.28,49.39,1.91,3.23,7.68,5,12.7-14.9l-8.81,1.13L459,281.5l2.67-8-8.56.63L464,269.59A161.54,161.54,0,0,1,471.11,251.08Z" style="opacity:0.2"></path><path d="M471.11,251.08c-33.54,11-33.84,33.41-26.28,49.39,1.91,3.23,7.68,5,12.7-14.9l-8.81,1.13L459,281.5l2.67-8-8.56.63L464,269.59A161.54,161.54,0,0,1,471.11,251.08Z" style="fill:#fff;opacity:0.2"></path><path d="M461.62,256.69c-17.68,13.42-19.28,28.81-14.28,44.87C445.57,287.42,443.66,273.12,461.62,256.69Z" style="fill:#fff"></path><path d="M414.31,273.87c33.05,4.65,37.06,25.49,32.68,41.63-1.24,3.33-6.33,5.9-14.3-11.77l8.39-.41-10.43-3.14-3.8-7,8.07-.83-10.87-2.45A151.31,151.31,0,0,0,414.31,273.87Z" style="fill:#A61C3C"></path><path d="M414.31,273.87c33.05,4.65,37.06,25.49,32.68,41.63-1.24,3.33-6.33,5.9-14.3-11.77l8.39-.41-10.43-3.14-3.8-7,8.07-.83-10.87-2.45A151.31,151.31,0,0,0,414.31,273.87Z" style="fill:#fff;opacity:0.2"></path><path d="M414.31,273.87c33.05,4.65,37.06,25.49,32.68,41.63-1.24,3.33-6.33,5.9-14.3-11.77l8.39-.41-10.43-3.14-3.8-7,8.07-.83-10.87-2.45A151.31,151.31,0,0,0,414.31,273.87Z" style="opacity:0.1"></path><path d="M424.08,277.52c18.69,9.56,22.74,23.62,20.75,39.41C444.13,303.47,443.53,289.83,424.08,277.52Z" style="fill:#fff"></path><path d="M480.78,281.68c-30.31.49-36.26,18.83-34.11,33.86.74,3.14,5,6,14.2-9l-7.51-1.31,9.74-1.66,4.22-5.87-7.19-1.65,10.08-1A138.37,138.37,0,0,1,480.78,281.68Z" style="fill:#A61C3C"></path><path d="M471.57,283.87c-17.92,6.53-23.14,18.75-23.12,33.21C450.59,305,452.66,292.79,471.57,283.87Z" style="fill:#fff"></path><path d="M480.78,281.68c-30.31.49-36.26,18.83-34.11,33.86.74,3.14,5,6,14.2-9l-7.51-1.31,9.74-1.66,4.22-5.87-7.19-1.65,10.08-1A138.37,138.37,0,0,1,480.78,281.68Z" style="fill:#fff;opacity:0.2"></path></g></svg>