<?xml version="1.0" encoding="UTF-8" standalone="no"?>
<svg
   viewBox="0 0 212.25999 408.44"
   version="1.1"
   id="svg86"
   sodipodi:docname="QR Code-bro.svg"
   width="212.25999"
   height="408.44"
   inkscape:version="1.1 (c68e22c387, 2021-05-23)"
   xmlns:inkscape="http://www.inkscape.org/namespaces/inkscape"
   xmlns:sodipodi="http://sodipodi.sourceforge.net/DTD/sodipodi-0.dtd"
   xmlns="http://www.w3.org/2000/svg"
   xmlns:svg="http://www.w3.org/2000/svg">
  <defs
     id="defs90" />
  <sodipodi:namedview
     id="namedview88"
     pagecolor="#ffffff"
     bordercolor="#666666"
     borderopacity="1.0"
     inkscape:pageshadow="2"
     inkscape:pageopacity="0.0"
     inkscape:pagecheckerboard="0"
     showgrid="false"
     inkscape:zoom="1.244"
     inkscape:cx="57.475884"
     inkscape:cy="226.6881"
     inkscape:window-width="1368"
     inkscape:window-height="850"
     inkscape:window-x="-6"
     inkscape:window-y="-6"
     inkscape:window-maximized="1"
     inkscape:current-layer="svg86" />
  <g
     id="freepik--Device--inject-2"
     transform="translate(-191.82,-23.489997)">
    <rect
       x="193.7"
       y="42.5"
       width="201.83"
       height="373.89001"
       style="fill:#ffffff"
       id="rect2" />
    <rect
       x="193.7"
       y="352.63"
       width="201.83"
       height="63.759998"
       style="fill:#dedede"
       id="rect4" />
    <path
       d="m 401.59,116.06 a 2.49,2.49 0 0 0 2.49,-2.49 V 88.64 a 2.49,2.49 0 0 0 -2.49,-2.49 2.42,2.42 0 0 0 -0.47,0 V 39.56 A 16.07,16.07 0 0 0 385.05,23.49 H 207.9 a 16.07,16.07 0 0 0 -16.08,16.07 v 376.29 a 16.08,16.08 0 0 0 16.08,16.08 h 177.15 a 16.08,16.08 0 0 0 16.07,-16.08 V 186.93 a 2.42,2.42 0 0 0 0.47,0 2.5,2.5 0 0 0 2.49,-2.5 v -24.88 a 2.49,2.49 0 0 0 -2.49,-2.49 2.42,2.42 0 0 0 -0.47,0.05 v -5.64 a 2.42,2.42 0 0 0 0.47,0.05 2.5,2.5 0 0 0 2.49,-2.49 v -24.94 a 2.5,2.5 0 0 0 -2.49,-2.49 2.42,2.42 0 0 0 -0.47,0.05 V 116 a 2.42,2.42 0 0 0 0.47,0.06 z m -9.78,291.63 H 201.13 V 51.22 h 190.68 z"
       style="fill:#263238"
       id="path6" />
    <rect
       x="369.51001"
       y="54.919998"
       width="15.81"
       height="8.6700001"
       style="fill:none;stroke:#263238;stroke-width:0.821067px;stroke-linecap:round;stroke-linejoin:round"
       id="rect8" />
    <rect
       x="369.51001"
       y="54.919998"
       width="12.33"
       height="8.6700001"
       style="fill:#263238;stroke:#263238;stroke-width:0.725073px;stroke-linecap:round;stroke-linejoin:round"
       id="rect10" />
    <rect
       x="385.29001"
       y="57.349998"
       width="2.23"
       height="3.8199999"
       style="fill:#263238;stroke:#263238;stroke-width:0.725073px;stroke-linecap:round;stroke-linejoin:round"
       id="rect12" />
    <rect
       x="205.42"
       y="57.610001"
       width="2.9000001"
       height="4.9699998"
       style="fill:#263238;stroke:#263238;stroke-width:0.883086px;stroke-linecap:round;stroke-linejoin:round"
       id="rect14" />
    <rect
       x="209.98"
       y="55.869999"
       width="2.9000001"
       height="6.71"
       style="fill:#263238;stroke:#263238;stroke-width:0.883086px;stroke-linecap:round;stroke-linejoin:round"
       id="rect16" />
    <rect
       x="214.53"
       y="53.799999"
       width="2.9000001"
       height="8.7799997"
       style="fill:#263238;stroke:#263238;stroke-width:0.883086px;stroke-linecap:round;stroke-linejoin:round"
       id="rect18" />
    <rect
       x="204.2"
       y="68.410004"
       width="183.11"
       height="48.119999"
       style="fill:#439a86"
       id="rect20" />
    <line
       x1="250.48"
       y1="75.339996"
       x2="250.48"
       y2="110.67"
       style="fill:none;stroke:#ffffff;stroke-miterlimit:10"
       id="line22" />
    <line
       x1="297.14001"
       y1="75.339996"
       x2="297.14001"
       y2="110.67"
       style="fill:none;stroke:#ffffff;stroke-miterlimit:10"
       id="line24" />
    <line
       x1="343.81"
       y1="75.339996"
       x2="343.81"
       y2="110.67"
       style="fill:none;stroke:#ffffff;stroke-miterlimit:10"
       id="line26" />
    <path
       d="m 399.47,186.93 a 2.42,2.42 0 0 0 0.47,0 2.5,2.5 0 0 0 2.49,-2.5 v -8.93 l -12.27,21.63 V 407.69 H 270.79 L 257,431.93 h 126.39 a 16.08,16.08 0 0 0 16.08,-16.08 z"
       style="opacity:0.15;fill:#ffffff"
       id="path28" />
  </g>
  <g
     id="freepik--qr-code--inject-2"
     transform="translate(-191.82,-23.489997)">
    <path
       d="M 288.73,282.43 V 271 v 0 h 5.71 v -5.75 h -5.69 c 0,-1.91 0,-3.83 0,-5.74 h 11.45 v -5.71 h 5.72 v 5.68 h 5.74 V 248 h 17.2 v 5.71 h 5.69 V 248 h -5.71 v -5.76 h -11.47 v -11.38 h -17.21 v 5.72 h -11.41 v 11.47 h 5.68 v 5.72 h -5.71 v 5.73 H 283 v -5.74 h -17.19 v -5.71 H 283 v -45.88 h 5.75 v 0 q 0,8.28 0,16.56 v 0.62 h 5.73 v -11.43 h 5.71 v 11.45 h 5.76 v 5.71 h 28.66 v 5.72 h 5.74 v 5.77 0 h -5.71 v 5.75 h 5.69 v 11.48 h 5.75 v 0 11.46 h -5.69 V 276.7 H 346 v 5.73 h 11.45 v 5.72 h -17.12 v 11.45 h -5.72 v -5.72 h -11.5 v 0 -5.73 h -5.72 v -5.72 h 11.41 v -5.73 h -28.59 v 5.7 h -11.48 z m 34.38,-17.2 v -5.7 h -5.69 v 5.69 h 5.71 v 5.71 h 11.42 v -5.7 z m -11.48,0 H 306 v 5.67 h 5.67 z m 11.51,-28.73 h 5.67 v -5.68 h -5.67 z"
       style="fill:#263238"
       id="path31" />
    <path
       d="m 237.14,219.33 v -40.08 h 40.07 v 40.08 z M 242.89,185 v 28.61 h 28.6 V 185 Z"
       style="fill:#263238"
       id="path33" />
    <path
       d="m 357.48,219.34 h -40.07 v -40.07 h 40.07 z M 351.76,185 h -28.6 v 28.6 h 28.6 z"
       style="fill:#263238"
       id="path35" />
    <path
       d="m 237.15,259.51 h 40.08 v 40.08 h -40.08 z m 34.35,5.75 h -28.61 v 28.61 h 28.61 z"
       style="fill:#263238"
       id="path37" />
    <path
       d="M 288.72,202.17 V 190.7 H 283 v -11.44 h 28.61 v 11.42 H 306 v 5.74 h 5.67 v 11.44 h -5.71 v -5.69 h -5.76 v -5.72 h -5.72 v 5.7 h -5.77 z m 5.75,-11.51 h 5.68 V 185 h -5.68 z"
       style="fill:#263238"
       id="path39" />
    <path
       d="m 265.78,230.82 v 5.73 h 11.45 v 5.72 h -17.17 v 11.46 h -22.9 v -11.4 h 5.67 V 248 h 11.5 v -17.18 h 11.46 z"
       style="fill:#263238"
       id="path41" />
    <path
       d="m 288.71,282.42 v 5.73 h 5.73 v 5.72 h 5.71 v 5.73 H 283 v -17.17 h 5.69 z"
       style="fill:#263238"
       id="path43" />
    <path
       d="m 254.33,230.82 h -11.46 v 5.71 h -5.71 v -11.4 h 17.15 v 5.7 z"
       style="fill:#263238"
       id="path45" />
    <path
       d="m 357.48,242.27 h -5.68 v -11.43 h -5.72 v -5.72 h 11.4 z"
       style="fill:#263238"
       id="path47" />
    <path
       d="m 265.79,230.84 v -5.71 h 11.43 v 5.69 h -11.44 z"
       style="fill:#263238"
       id="path49" />
    <path
       d="m 346.06,253.77 v -5.71 h 5.69 v 5.69 H 346 Z"
       style="fill:#263238"
       id="path51" />
    <path
       d="m 351.81,259.52 h 5.67 v 5.68 h -5.67 z"
       style="fill:#263238"
       id="path53" />
    <path
       d="m 305.92,219.37 v -5.71 h 5.7 v 5.69 h -5.71 z"
       style="fill:#263238"
       id="path55" />
    <path
       d="M 288.73,271 H 283 v -5.72 h 5.69 V 271 Z"
       style="fill:#263238"
       id="path57" />
    <path
       d="M 346.06,276.7 V 271 h 5.69 v 5.69 h -5.69 z"
       style="fill:#263238"
       id="path59" />
    <path
       d="M 340.31,236.57 H 346 v 5.72 h -5.69 v -5.75 z"
       style="fill:#263238"
       id="path61" />
    <path
       d="m 311.62,293.87 h -5.68 v -5.67 h 5.68 z"
       style="fill:#263238"
       id="path63" />
    <path
       d="m 323.11,293.88 v 5.71 h -5.69 v -5.69 h 5.71 z"
       style="fill:#263238"
       id="path65" />
    <path
       d="m 357.48,299.61 h -5.67 v -5.68 h 5.67 z"
       style="fill:#263238"
       id="path67" />
    <path
       d="M 311.66,248 H 306 v -5.69 h 5.7 V 248 Z"
       style="fill:#263238"
       id="path69" />
    <path
       d="m 265.75,207.87 h -17.14 v -17.14 h 17.14 z"
       style="fill:#263238"
       id="path71" />
    <path
       d="M 328.87,207.86 V 190.72 H 346 v 17.14 z"
       style="fill:#263238"
       id="path73" />
    <path
       d="M 248.61,288.13 V 271 h 17.14 v 17.14 z"
       style="fill:#263238"
       id="path75" />
    <polyline
       points="253.79 165.67 228.69 165.67 228.69 193.36"
       style="fill:none;stroke:#439a86;stroke-width:2px;stroke-miterlimit:10"
       id="polyline77" />
    <polyline
       points="345.07 165.67 370.16 165.67 370.16 193.36"
       style="fill:none;stroke:#439a86;stroke-width:2px;stroke-miterlimit:10"
       id="polyline79" />
    <polyline
       points="253.79 311.49 228.69 311.49 228.69 283.8"
       style="fill:none;stroke:#439a86;stroke-width:2px;stroke-miterlimit:10"
       id="polyline81" />
    <polyline
       points="345.07 311.49 370.16 311.49 370.16 283.8"
       style="fill:none;stroke:#439a86;stroke-width:2px;stroke-miterlimit:10"
       id="polyline83" />
  </g>
</svg>
