<?xml version="1.0" encoding="UTF-8" standalone="no"?>
<svg
   viewBox="0 0 197.02 357.89001"
   version="1.1"
   id="svg347"
   sodipodi:docname="kpl-animations.svg"
   width="197.02"
   height="357.89001"
   inkscape:version="1.1 (c68e22c387, 2021-05-23)"
   xmlns:inkscape="http://www.inkscape.org/namespaces/inkscape"
   xmlns:sodipodi="http://sodipodi.sourceforge.net/DTD/sodipodi-0.dtd"
   xmlns="http://www.w3.org/2000/svg"
   xmlns:svg="http://www.w3.org/2000/svg">
  <defs
     id="defs351" />
  <sodipodi:namedview
     id="namedview349"
     pagecolor="#ffffff"
     bordercolor="#666666"
     borderopacity="1.0"
     inkscape:pageshadow="2"
     inkscape:pageopacity="0.0"
     inkscape:pagecheckerboard="0"
     showgrid="false"
     inkscape:zoom="1.244"
     inkscape:cx="85.610932"
     inkscape:cy="221.86495"
     inkscape:window-width="1368"
     inkscape:window-height="850"
     inkscape:window-x="-6"
     inkscape:window-y="-6"
     inkscape:window-maximized="1"
     inkscape:current-layer="svg347" />
  <g
     id="freepik--Calendar--inject-2"
     transform="translate(-164.02,-27.77)">
    <polyline
       points="173.04 91.09 265.39 29.65 352.32 90.92"
       style="fill:none;stroke:#263238;stroke-linecap:round;stroke-linejoin:round"
       id="polyline2" />
    <circle
       cx="265.39001"
       cy="29.65"
       r="1.88"
       style="fill:#263238"
       id="circle4" />
    <line
       x1="166.52"
       y1="93.059998"
       x2="358.54001"
       y2="93.059998"
       style="fill:none;stroke:#263238;stroke-width:5px;stroke-linecap:round;stroke-linejoin:round"
       id="line6" />
    <line
       x1="166.52"
       y1="383.16"
       x2="358.54001"
       y2="383.16"
       style="fill:none;stroke:#263238;stroke-width:5px;stroke-linecap:round;stroke-linejoin:round"
       id="line8" />
    <rect
       x="169.95"
       y="90.870003"
       width="186.88"
       height="294.09"
       style="fill:#ffffff;stroke:#263238;stroke-linecap:round;stroke-linejoin:round"
       id="rect10" />
    <path
       d="m 175.66,166.21 c 0,0 0.32,-0.15 0.92,-0.4"
       style="fill:none;stroke:#263238;stroke-linecap:round;stroke-linejoin:round"
       id="path12" />
    <path
       d="m 178.45,165.1 a 64.75,64.75 0 0 1 37.22,-1.75 c 21.71,5.72 21.78,10.67 41.14,8 16.58,-2.28 29.15,-17.14 53.15,-11.43 22.6,5.38 28.48,13.29 38.15,9.91"
       style="fill:none;stroke:#263238;stroke-linecap:round;stroke-linejoin:round;stroke-dasharray:2.00852, 2.00852"
       id="path14" />
    <path
       d="m 349.05,169.47 c 0.3,-0.12 0.61,-0.26 0.92,-0.4"
       style="fill:none;stroke:#263238;stroke-linecap:round;stroke-linejoin:round"
       id="path16" />
    <path
       d="m 196.54,156.21 0.47,-4.7 a 13.72,13.72 0 0 1 -5.76,-1.69 3.4,3.4 0 0 1 -1.83,-3 c 0,-1.75 1.54,-3.46 3.32,-4.87 a 5.17,5.17 0 0 1 -1.86,-2 c -0.47,-0.94 -1.72,-3.43 6.84,-9.88 l 1.38,-1.38 a 4.6,4.6 0 0 1 3.66,-1.67 6.61,6.61 0 0 1 4.13,1.54 c 8.58,7.1 9.64,9.41 8.62,11.41 a 5.23,5.23 0 0 1 -1.88,2 c 1.81,1.41 3.35,3.12 3.36,4.87 a 3.38,3.38 0 0 1 -1.85,3 14.28,14.28 0 0 1 -5.89,1.69 l 0.48,4.69 z"
       style="fill:#f96900;stroke:#263238;stroke-linecap:round;stroke-linejoin:round"
       id="path18" />
    <path
       d="m 208.83,141.4 c 0,0 3.83,-0.47 4.79,-2.35 0.66,-1.3 -4.69,-6 -8.07,-8.81 -1.44,-1.19 -3.74,-1.59 -4.86,-0.1 l -1.58,1.57 c 0,0 -7.28,5.46 -6.34,7.34 0.94,1.88 4.7,2.35 4.7,2.35 0,0 -8.47,4.7 -5.17,6.6 a 12.65,12.65 0 0 0 7,1.41 l -0.47,4.7 h 8.51 l -0.48,-4.7 A 13.13,13.13 0 0 0 214.1,148 c 3.36,-1.9 -5.27,-6.6 -5.27,-6.6 z"
       style="fill:#f96900;stroke:#263238;stroke-width:0.5px;stroke-linecap:round;stroke-linejoin:round;stroke-dasharray:1"
       id="path20" />
    <path
       d="m 290.27,156.21 0.47,-4.7 a 13.72,13.72 0 0 1 -5.76,-1.69 3.38,3.38 0 0 1 -1.83,-3 c 0,-1.75 1.53,-3.46 3.32,-4.87 a 5.12,5.12 0 0 1 -1.87,-2 c -0.47,-0.94 -1.72,-3.43 6.85,-9.88 l 1.38,-1.38 a 4.59,4.59 0 0 1 3.65,-1.67 6.63,6.63 0 0 1 4.14,1.54 c 8.58,7.1 9.63,9.41 8.61,11.41 a 5.16,5.16 0 0 1 -1.88,2 c 1.81,1.41 3.36,3.12 3.37,4.87 a 3.37,3.37 0 0 1 -1.86,3 14.24,14.24 0 0 1 -5.88,1.69 l 0.48,4.69 z"
       style="fill:#f96900;stroke:#263238;stroke-linecap:round;stroke-linejoin:round"
       id="path22" />
    <path
       d="m 302.55,141.4 c 0,0 3.84,-0.47 4.8,-2.35 0.66,-1.3 -4.69,-6 -8.08,-8.81 -1.43,-1.19 -3.74,-1.59 -4.86,-0.1 l -1.57,1.57 c 0,0 -7.29,5.46 -6.35,7.34 0.94,1.88 4.71,2.35 4.71,2.35 0,0 -8.47,4.7 -5.18,6.58 a 12.69,12.69 0 0 0 7.06,1.41 l -0.47,4.7 h 8.51 l -0.48,-4.7 a 13.14,13.14 0 0 0 7.19,-1.41 c 3.35,-1.88 -5.28,-6.58 -5.28,-6.58 z"
       style="fill:#f96900;stroke:#263238;stroke-width:0.5px;stroke-linecap:round;stroke-linejoin:round;stroke-dasharray:1"
       id="path24" />
    <path
       d="m 327.92,156.21 0.36,-3.55 a 10.46,10.46 0 0 1 -4.36,-1.29 2.52,2.52 0 0 1 -1.38,-2.24 c 0,-1.32 1.16,-2.62 2.51,-3.69 a 3.77,3.77 0 0 1 -1.41,-1.5 c -0.36,-0.71 -1.3,-2.6 5.17,-7.48 l 1.05,-1 a 3.45,3.45 0 0 1 2.76,-1.26 5,5 0 0 1 3.13,1.16 c 6.49,5.37 7.29,7.12 6.52,8.63 a 3.91,3.91 0 0 1 -1.42,1.49 c 1.37,1.07 2.54,2.37 2.55,3.69 a 2.56,2.56 0 0 1 -1.41,2.25 10.88,10.88 0 0 1 -4.45,1.28 l 0.36,3.55 z"
       style="fill:#f96900;stroke:#263238;stroke-linecap:round;stroke-linejoin:round"
       id="path26" />
    <path
       d="m 337.22,145 c 0,0 2.9,-0.35 3.62,-1.77 0.5,-1 -3.54,-4.55 -6.11,-6.67 -1.08,-0.9 -2.82,-1.2 -3.67,-0.07 l -1.19,1.19 c 0,0 -5.51,4.12 -4.8,5.55 0.71,1.43 3.55,1.77 3.55,1.77 0,0 -6.4,3.56 -3.91,5 a 9.53,9.53 0 0 0 5.34,1.07 l -0.36,3.56 h 6.44 l -0.36,-3.56 a 9.88,9.88 0 0 0 5.44,-1.07 c 2.54,-1.44 -3.99,-5 -3.99,-5 z"
       style="fill:#f96900;stroke:#263238;stroke-linecap:round;stroke-linejoin:round;stroke-dasharray:1"
       id="path28" />
    <circle
       cx="249.56"
       cy="136.85001"
       r="5.48"
       style="fill:#ffffff;stroke:#263238;stroke-linecap:round;stroke-linejoin:round"
       id="circle30" />
    <circle
       cx="249.56"
       cy="136.85001"
       r="3.9200001"
       style="fill:#ffffff;stroke:#263238;stroke-width:0.5px;stroke-linecap:round;stroke-linejoin:round;stroke-dasharray:1"
       id="circle32" />
    <path
       d="m 256.23,147.21 a 6.67,6.67 0 1 1 -6.67,-6.67 6.68,6.68 0 0 1 6.67,6.67 z"
       style="fill:#ffffff;stroke:#263238;stroke-linecap:round;stroke-linejoin:round"
       id="path34" />
    <path
       d="m 254.33,147.21 a 4.77,4.77 0 1 1 -4.77,-4.77 4.77,4.77 0 0 1 4.77,4.77 z"
       style="fill:#ffffff;stroke:#263238;stroke-width:0.5px;stroke-linecap:round;stroke-linejoin:round;stroke-dasharray:1"
       id="path36" />
    <circle
       cx="249.56"
       cy="158.77"
       r="9.4200001"
       transform="rotate(-22.64,249.50788,158.7694)"
       style="fill:#ffffff;stroke:#263238;stroke-linecap:round;stroke-linejoin:round"
       id="circle38" />
    <path
       d="m 256.29,158.77 a 6.74,6.74 0 1 1 -6.73,-6.73 6.73,6.73 0 0 1 6.73,6.73 z"
       style="fill:#ffffff;stroke:#263238;stroke-width:0.5px;stroke-linecap:round;stroke-linejoin:round;stroke-dasharray:1"
       id="path40" />
    <circle
       cx="247.82001"
       cy="136.17"
       r="0.97000003"
       style="fill:#263238"
       id="circle42" />
    <circle
       cx="251"
       cy="136.17"
       r="0.97000003"
       style="fill:#263238"
       id="circle44" />
    <path
       d="m 247.24,138.18 a 3,3 0 0 0 4.15,0"
       style="fill:none;stroke:#263238;stroke-linecap:round;stroke-linejoin:round"
       id="path46" />
    <path
       d="m 247.24,141.69 a 1.17,1.17 0 1 1 -1.17,-1.17 1.17,1.17 0 0 1 1.17,1.17 z"
       style="fill:#f96900;stroke:#263238;stroke-linecap:round;stroke-linejoin:round"
       id="path48" />
    <path
       d="m 254.25,141.69 a 1.17,1.17 0 0 1 -2.34,0 1.17,1.17 0 0 1 2.34,0 z"
       style="fill:#f96900;stroke:#263238;stroke-linecap:round;stroke-linejoin:round"
       id="path50" />
    <path
       d="m 252.43,143.12 a 1.17,1.17 0 1 1 -1.17,-1.17 1.17,1.17 0 0 1 1.17,1.17 z"
       style="fill:#f96900;stroke:#263238;stroke-linecap:round;stroke-linejoin:round"
       id="path52" />
    <path
       d="m 249.44,143.12 a 1.17,1.17 0 1 1 -1.16,-1.17 1.16,1.16 0 0 1 1.16,1.17 z"
       style="fill:#f96900;stroke:#263238;stroke-linecap:round;stroke-linejoin:round"
       id="path54" />
    <path
       d="m 250.87,144.94 a 1.17,1.17 0 1 1 -1.17,-1.17 1.17,1.17 0 0 1 1.17,1.17 z"
       style="fill:#f96900;stroke:#263238;stroke-linecap:round;stroke-linejoin:round"
       id="path56" />
    <path
       d="m 250.87,147.28 a 1.17,1.17 0 1 1 -1.17,-1.17 1.16,1.16 0 0 1 1.17,1.17 z"
       style="fill:#f96900;stroke:#263238;stroke-linecap:round;stroke-linejoin:round"
       id="path58" />
    <line
       x1="183.09"
       y1="122.2"
       x2="183.09"
       y2="130.2"
       style="fill:none;stroke:#f96900;stroke-linecap:round;stroke-linejoin:round"
       id="line60" />
    <line
       x1="187.09"
       y1="126.2"
       x2="179.09"
       y2="126.2"
       style="fill:none;stroke:#f96900;stroke-linecap:round;stroke-linejoin:round"
       id="line62" />
    <line
       x1="185.92"
       y1="129.03"
       x2="180.25999"
       y2="123.37"
       style="fill:none;stroke:#f96900;stroke-linecap:round;stroke-linejoin:round"
       id="line64" />
    <line
       x1="185.92"
       y1="123.37"
       x2="180.25999"
       y2="129.03"
       style="fill:none;stroke:#f96900;stroke-linecap:round;stroke-linejoin:round"
       id="line66" />
    <line
       x1="225.95"
       y1="143.92"
       x2="225.95"
       y2="151.92"
       style="fill:none;stroke:#f96900;stroke-linecap:round;stroke-linejoin:round"
       id="line68" />
    <line
       x1="229.95"
       y1="147.92"
       x2="221.95"
       y2="147.92"
       style="fill:none;stroke:#f96900;stroke-linecap:round;stroke-linejoin:round"
       id="line70" />
    <line
       x1="228.78"
       y1="150.75"
       x2="223.12"
       y2="145.09"
       style="fill:none;stroke:#f96900;stroke-linecap:round;stroke-linejoin:round"
       id="line72" />
    <line
       x1="228.78"
       y1="145.09"
       x2="223.12"
       y2="150.75"
       style="fill:none;stroke:#f96900;stroke-linecap:round;stroke-linejoin:round"
       id="line74" />
    <line
       x1="222.24001"
       y1="95.059998"
       x2="222.24001"
       y2="103.06"
       style="fill:none;stroke:#f96900;stroke-linecap:round;stroke-linejoin:round"
       id="line76" />
    <line
       x1="226.24001"
       y1="99.059998"
       x2="218.24001"
       y2="99.059998"
       style="fill:none;stroke:#f96900;stroke-linecap:round;stroke-linejoin:round"
       id="line78" />
    <line
       x1="225.07001"
       y1="101.89"
       x2="219.41"
       y2="96.230003"
       style="fill:none;stroke:#f96900;stroke-linecap:round;stroke-linejoin:round"
       id="line80" />
    <line
       x1="225.07001"
       y1="96.230003"
       x2="219.41"
       y2="101.89"
       style="fill:none;stroke:#f96900;stroke-linecap:round;stroke-linejoin:round"
       id="line82" />
    <line
       x1="325.39001"
       y1="120.49"
       x2="325.39001"
       y2="128.49001"
       style="fill:none;stroke:#f96900;stroke-linecap:round;stroke-linejoin:round"
       id="line84" />
    <line
       x1="329.39001"
       y1="124.49"
       x2="321.39001"
       y2="124.49"
       style="fill:none;stroke:#f96900;stroke-linecap:round;stroke-linejoin:round"
       id="line86" />
    <line
       x1="328.22"
       y1="127.32"
       x2="322.56"
       y2="121.66"
       style="fill:none;stroke:#f96900;stroke-linecap:round;stroke-linejoin:round"
       id="line88" />
    <line
       x1="328.22"
       y1="121.66"
       x2="322.56"
       y2="127.32"
       style="fill:none;stroke:#f96900;stroke-linecap:round;stroke-linejoin:round"
       id="line90" />
    <line
       x1="272.53"
       y1="135.92"
       x2="272.53"
       y2="143.92"
       style="fill:none;stroke:#f96900;stroke-linecap:round;stroke-linejoin:round"
       id="line92" />
    <line
       x1="276.53"
       y1="139.92"
       x2="268.53"
       y2="139.92"
       style="fill:none;stroke:#f96900;stroke-linecap:round;stroke-linejoin:round"
       id="line94" />
    <line
       x1="275.35999"
       y1="142.75"
       x2="269.70001"
       y2="137.09"
       style="fill:none;stroke:#f96900;stroke-linecap:round;stroke-linejoin:round"
       id="line96" />
    <line
       x1="275.35999"
       y1="137.09"
       x2="269.70001"
       y2="142.75"
       style="fill:none;stroke:#f96900;stroke-linecap:round;stroke-linejoin:round"
       id="line98" />
    <line
       x1="265.67001"
       y1="157.35001"
       x2="265.67001"
       y2="165.35001"
       style="fill:none;stroke:#f96900;stroke-linecap:round;stroke-linejoin:round"
       id="line100" />
    <line
       x1="269.67001"
       y1="161.35001"
       x2="261.67001"
       y2="161.35001"
       style="fill:none;stroke:#f96900;stroke-linecap:round;stroke-linejoin:round"
       id="line102" />
    <line
       x1="268.5"
       y1="164.17999"
       x2="262.84"
       y2="158.52"
       style="fill:none;stroke:#f96900;stroke-linecap:round;stroke-linejoin:round"
       id="line104" />
    <line
       x1="268.5"
       y1="158.52"
       x2="262.84"
       y2="164.17999"
       style="fill:none;stroke:#f96900;stroke-linecap:round;stroke-linejoin:round"
       id="line106" />
    <line
       x1="341.67999"
       y1="99.339996"
       x2="341.67999"
       y2="107.34"
       style="fill:none;stroke:#f96900;stroke-linecap:round;stroke-linejoin:round"
       id="line108" />
    <line
       x1="345.67999"
       y1="103.34"
       x2="337.67999"
       y2="103.34"
       style="fill:none;stroke:#f96900;stroke-linecap:round;stroke-linejoin:round"
       id="line110" />
    <line
       x1="344.51001"
       y1="106.17"
       x2="338.85001"
       y2="100.52"
       style="fill:none;stroke:#f96900;stroke-linecap:round;stroke-linejoin:round"
       id="line112" />
    <line
       x1="344.51001"
       y1="100.52"
       x2="338.85001"
       y2="106.17"
       style="fill:none;stroke:#f96900;stroke-linecap:round;stroke-linejoin:round"
       id="line114" />
    <line
       x1="346.82001"
       y1="152.21001"
       x2="346.82001"
       y2="160.21001"
       style="fill:none;stroke:#f96900;stroke-linecap:round;stroke-linejoin:round"
       id="line116" />
    <line
       x1="350.82001"
       y1="156.21001"
       x2="342.82001"
       y2="156.21001"
       style="fill:none;stroke:#f96900;stroke-linecap:round;stroke-linejoin:round"
       id="line118" />
    <line
       x1="349.64999"
       y1="159.03999"
       x2="344"
       y2="153.38"
       style="fill:none;stroke:#f96900;stroke-linecap:round;stroke-linejoin:round"
       id="line120" />
    <line
       x1="349.64999"
       y1="153.38"
       x2="344"
       y2="159.03999"
       style="fill:none;stroke:#f96900;stroke-linecap:round;stroke-linejoin:round"
       id="line122" />
    <line
       x1="281.39001"
       y1="97.059998"
       x2="281.39001"
       y2="105.06"
       style="fill:none;stroke:#f96900;stroke-linecap:round;stroke-linejoin:round"
       id="line124" />
    <line
       x1="285.39001"
       y1="101.06"
       x2="277.39001"
       y2="101.06"
       style="fill:none;stroke:#f96900;stroke-linecap:round;stroke-linejoin:round"
       id="line126" />
    <line
       x1="284.22"
       y1="103.89"
       x2="278.56"
       y2="98.230003"
       style="fill:none;stroke:#f96900;stroke-linecap:round;stroke-linejoin:round"
       id="line128" />
    <line
       x1="284.22"
       y1="98.230003"
       x2="278.56"
       y2="103.89"
       style="fill:none;stroke:#f96900;stroke-linecap:round;stroke-linejoin:round"
       id="line130" />
    <path
       d="m 212.66,184.62 c -17.66,4.89 -30.28,1 -33.71,-0.31 v 39.48 h 33.71 z"
       style="fill:#ffffff;stroke:#263238;stroke-linecap:round;stroke-linejoin:round"
       id="path132" />
    <path
       d="m 246.34,184.62 c -17.66,4.89 -30.28,1 -33.71,-0.31 v 39.48 h 33.71 z"
       style="fill:#ffffff;stroke:#263238;stroke-linecap:round;stroke-linejoin:round"
       id="path134" />
    <path
       d="m 280,184.62 c -17.66,4.89 -30.28,1 -33.71,-0.31 v 39.48 H 280 Z"
       style="fill:#ffffff;stroke:#263238;stroke-linecap:round;stroke-linejoin:round"
       id="path136" />
    <path
       d="m 313.71,184.62 c -17.66,4.89 -30.28,1 -33.71,-0.31 v 39.48 h 33.71 z"
       style="fill:#ffffff;stroke:#263238;stroke-linecap:round;stroke-linejoin:round"
       id="path138" />
    <path
       d="m 347.4,184.62 c -17.66,4.89 -30.28,1 -33.71,-0.31 v 39.48 h 33.71 z"
       style="fill:#ffffff;stroke:#263238;stroke-linecap:round;stroke-linejoin:round"
       id="path140" />
    <path
       d="m 212.66,223.62 c -17.88,6.93 -30.28,1 -33.71,-0.3 v 39.47 h 33.71 z"
       style="fill:#ffffff;stroke:#263238;stroke-linecap:round;stroke-linejoin:round"
       id="path142" />
    <path
       d="m 246.34,223.62 c -17.66,4.89 -30.28,1 -33.71,-0.3 v 39.47 h 33.71 z"
       style="fill:#ffffff;stroke:#263238;stroke-linecap:round;stroke-linejoin:round"
       id="path144" />
    <path
       d="m 280,223.62 c -17.66,4.89 -30.28,1 -33.71,-0.3 v 39.47 H 280 Z"
       style="fill:#ffffff;stroke:#263238;stroke-linecap:round;stroke-linejoin:round"
       id="path146" />
    <path
       d="m 313.71,223.62 c -17.66,4.89 -30.28,1 -33.71,-0.3 v 39.47 h 33.71 z"
       style="fill:#ffffff;stroke:#263238;stroke-linecap:round;stroke-linejoin:round"
       id="path148" />
    <path
       d="m 347.4,223.62 c -17.66,4.89 -30.28,1 -33.71,-0.3 v 39.47 h 33.71 z"
       style="fill:#ffffff;stroke:#263238;stroke-linecap:round;stroke-linejoin:round"
       id="path150" />
    <path
       d="m 212.66,262.63 c -18.74,9.27 -30.28,1 -33.71,-0.31 v 39.47 h 33.71 z"
       style="fill:#ffffff;stroke:#263238;stroke-linecap:round;stroke-linejoin:round"
       id="path152" />
    <path
       d="m 246.34,262.63 c -17.66,4.89 -30.28,1 -33.71,-0.31 v 39.47 h 33.71 z"
       style="fill:#ffffff;stroke:#263238;stroke-linecap:round;stroke-linejoin:round"
       id="path154" />
    <path
       d="m 280,262.63 c -19.54,10.44 -30.28,1 -33.71,-0.31 v 39.47 H 280 Z"
       style="fill:#ffffff;stroke:#263238;stroke-linecap:round;stroke-linejoin:round"
       id="path156" />
    <path
       d="m 313.71,262.63 c -17.66,4.89 -30.28,1 -33.71,-0.31 v 39.47 h 33.71 z"
       style="fill:#ffffff;stroke:#263238;stroke-linecap:round;stroke-linejoin:round"
       id="path158" />
    <path
       d="m 347.4,262.63 c -17.66,4.89 -30.28,1 -33.71,-0.31 v 39.47 h 33.71 z"
       style="fill:#ffffff;stroke:#263238;stroke-linecap:round;stroke-linejoin:round"
       id="path160" />
    <path
       d="m 212.66,301.63 c -17.66,4.89 -30.28,1 -33.71,-0.3 v 39.47 h 33.71 z"
       style="fill:#ffffff;stroke:#263238;stroke-linecap:round;stroke-linejoin:round"
       id="path162" />
    <path
       d="m 246.34,301.63 c -17.66,4.89 -30.28,1 -33.71,-0.3 v 39.47 h 33.71 z"
       style="fill:#ffffff;stroke:#263238;stroke-linecap:round;stroke-linejoin:round"
       id="path164" />
    <path
       d="m 280,301.63 c -17.66,4.89 -30.28,1 -33.71,-0.3 V 340.8 H 280 Z"
       style="fill:#ffffff;stroke:#263238;stroke-linecap:round;stroke-linejoin:round"
       id="path166" />
    <path
       d="m 313.71,301.63 c -19.91,11.67 -30.28,1 -33.71,-0.3 v 39.47 h 33.71 z"
       style="fill:#ffffff;stroke:#263238;stroke-linecap:round;stroke-linejoin:round"
       id="path168" />
    <path
       d="m 347.4,301.63 c -17.66,4.89 -30.28,1 -33.71,-0.3 v 39.47 h 33.71 z"
       style="fill:#ffffff;stroke:#263238;stroke-linecap:round;stroke-linejoin:round"
       id="path170" />
    <path
       d="m 212.66,340.63 c -17.66,4.9 -30.28,1 -33.71,-0.3 v 39.47 h 33.71 z"
       style="fill:#ffffff;stroke:#263238;stroke-linecap:round;stroke-linejoin:round"
       id="path172" />
    <path
       d="m 246.34,340.63 c -20,9.94 -30.28,1 -33.71,-0.3 v 39.47 h 33.71 z"
       style="fill:#ffffff;stroke:#263238;stroke-linecap:round;stroke-linejoin:round"
       id="path174" />
    <path
       d="m 280,340.63 c -17.66,4.9 -30.28,1 -33.71,-0.3 V 379.8 H 280 Z"
       style="fill:#ffffff;stroke:#263238;stroke-linecap:round;stroke-linejoin:round"
       id="path176" />
    <path
       d="m 313.71,340.63 c -17.66,4.9 -30.28,1 -33.71,-0.3 v 39.47 h 33.71 z"
       style="fill:#ffffff;stroke:#263238;stroke-linecap:round;stroke-linejoin:round"
       id="path178" />
    <path
       d="m 347.4,340.63 c -17.66,4.9 -30.28,1 -33.71,-0.3 v 39.47 h 33.71 z"
       style="fill:#ffffff;stroke:#263238;stroke-linecap:round;stroke-linejoin:round"
       id="path180" />
    <path
       d="m 270.24,255.69 a 4.64,4.64 0 0 0 -8.38,1.26 l -2.86,10.3 a 17.76,17.76 0 0 0 2.89,0.27 l 2.73,-9.81 a 1.78,1.78 0 0 1 2,-1.28 1.77,1.77 0 0 1 1.45,2.28 l -1.57,5.19 a 1.4314765,1.4314765 0 1 0 2.74,0.83 l 1.57,-5.19 a 4.63,4.63 0 0 0 -0.57,-3.85 z"
       style="fill:#ffffff;stroke:#263238;stroke-linecap:round;stroke-linejoin:round"
       id="path182" />
    <path
       d="m 266.87,256.5 a 1.75,1.75 0 0 1 1,0.73 1.79,1.79 0 0 1 0.26,1.21 l 0.68,-4.19 a 4.89,4.89 0 0 0 -1.79,-0.66 h -0.13 z"
       style="fill:#f96900;stroke:#263238;stroke-width:0.5px;stroke-linecap:round;stroke-linejoin:round"
       id="path184" />
    <polygon
       points="262.71,264.57 260.41,262.17 259.81,264.3 262.12,266.71 "
       style="fill:#f96900;stroke:#263238;stroke-width:0.5px;stroke-linecap:round;stroke-linejoin:round"
       id="polygon186" />
    <polygon
       points="263.8,260.65 261.67,257.62 261.01,260 263.14,263.03 "
       style="fill:#f96900;stroke:#263238;stroke-width:0.5px;stroke-linecap:round;stroke-linejoin:round"
       id="polygon188" />
    <path
       d="m 262.63,255.4 1.71,3.31 0.28,-1 a 1.79,1.79 0 0 1 0.81,-1 l -1.3,-2.53 a 4.58,4.58 0 0 0 -1.5,1.22 z"
       style="fill:#f96900;stroke:#263238;stroke-width:0.5px;stroke-linecap:round;stroke-linejoin:round"
       id="path190" />
    <path
       d="m 270.77,259.54 a 4.63,4.63 0 0 0 0.18,-1.77 l -3.14,1.67 -0.81,2.56 3.57,-1.89 z"
       style="fill:#f96900;stroke:#263238;stroke-width:0.5px;stroke-linecap:round;stroke-linejoin:round"
       id="path192" />
    <path
       d="m 202.72,215 a 4.64,4.64 0 0 0 -8.38,1.25 l -2.86,10.31 a 16.77,16.77 0 0 0 2.89,0.26 l 2.73,-9.8 a 1.79,1.79 0 0 1 2,-1.29 1.76,1.76 0 0 1 1.25,0.81 1.7,1.7 0 0 1 0.2,1.47 l -1.57,5.2 a 1.4314765,1.4314765 0 0 0 2.74,0.83 l 1.57,-5.2 A 4.6,4.6 0 0 0 202.72,215 Z"
       style="fill:#ffffff;stroke:#263238;stroke-linecap:round;stroke-linejoin:round"
       id="path194" />
    <path
       d="m 199.35,215.77 a 1.77,1.77 0 0 1 1,0.74 1.7,1.7 0 0 1 0.26,1.2 l 0.68,-4.19 a 4.7,4.7 0 0 0 -1.79,-0.65 h -0.13 z"
       style="fill:#f96900;stroke:#263238;stroke-width:0.5px;stroke-linecap:round;stroke-linejoin:round"
       id="path196" />
    <polygon
       points="195.19,223.84 192.89,221.44 192.29,223.58 194.6,225.98 "
       style="fill:#f96900;stroke:#263238;stroke-width:0.5px;stroke-linecap:round;stroke-linejoin:round"
       id="polygon198" />
    <polygon
       points="196.28,219.92 194.15,216.9 193.49,219.27 195.62,222.3 "
       style="fill:#f96900;stroke:#263238;stroke-width:0.5px;stroke-linecap:round;stroke-linejoin:round"
       id="polygon200" />
    <path
       d="m 195.11,214.67 1.71,3.31 0.28,-1 a 1.73,1.73 0 0 1 0.81,-1.05 l -1.3,-2.54 a 4.71,4.71 0 0 0 -1.5,1.28 z"
       style="fill:#f96900;stroke:#263238;stroke-width:0.5px;stroke-linecap:round;stroke-linejoin:round"
       id="path202" />
    <path
       d="m 203.25,218.81 a 4.63,4.63 0 0 0 0.18,-1.77 l -3.14,1.67 -0.78,2.58 3.57,-1.9 z"
       style="fill:#f96900;stroke:#263238;stroke-width:0.5px;stroke-linecap:round;stroke-linejoin:round"
       id="path204" />
    <path
       d="m 190.37,266.34 a 27.43,27.43 0 0 0 10.39,-0.18 7.39,7.39 0 1 0 -10.39,0.18 z"
       style="fill:#ffffff;stroke:#263238;stroke-linecap:round;stroke-linejoin:round"
       id="path206" />
    <path
       d="m 194.17,266.74 c 0.9,0 1.87,0 2.92,-0.08 a 5.89,5.89 0 1 0 -2.92,0.08 z"
       style="fill:#f96900;stroke:#263238;stroke-width:0.5px;stroke-linecap:round;stroke-linejoin:round"
       id="path208" />
    <circle
       cx="195.47"
       cy="261"
       r="4.3899999"
       style="fill:#ffffff;stroke:#263238;stroke-width:0.5px;stroke-linecap:round;stroke-linejoin:round"
       id="circle210" />
    <path
       d="m 198.48,261 a 3,3 0 1 1 -3,-3 3,3 0 0 1 3,3 z"
       style="fill:#f96900;stroke:#263238;stroke-width:0.5px;stroke-linecap:round;stroke-linejoin:round"
       id="path212" />
    <path
       d="m 197.71,261 a 2.24,2.24 0 1 1 -2.24,-2.25 2.24,2.24 0 0 1 2.24,2.25 z"
       style="fill:#ffffff;stroke:#263238;stroke-width:0.5px;stroke-linecap:round;stroke-linejoin:round"
       id="path214" />
    <path
       d="m 326.47,342.6 a 27.27,27.27 0 0 0 10.39,-0.19 7.39,7.39 0 1 0 -10.39,0.19 z"
       style="fill:#ffffff;stroke:#263238;stroke-linecap:round;stroke-linejoin:round"
       id="path216" />
    <path
       d="m 330.27,343 a 27,27 0 0 0 2.92,-0.09 5.87,5.87 0 1 0 -2.92,0.09 z"
       style="fill:#f96900;stroke:#263238;stroke-width:0.5px;stroke-linecap:round;stroke-linejoin:round"
       id="path218" />
    <circle
       cx="331.57001"
       cy="337.25"
       r="4.3899999"
       style="fill:#ffffff;stroke:#263238;stroke-width:0.5px;stroke-linecap:round;stroke-linejoin:round"
       id="circle220" />
    <path
       d="m 334.58,337.25 a 3,3 0 1 1 -3,-3 3,3 0 0 1 3,3 z"
       style="fill:#f96900;stroke:#263238;stroke-width:0.5px;stroke-linecap:round;stroke-linejoin:round"
       id="path222" />
    <path
       d="m 333.81,337.25 a 2.24,2.24 0 1 1 -2.24,-2.24 2.24,2.24 0 0 1 2.24,2.24 z"
       style="fill:#ffffff;stroke:#263238;stroke-width:0.5px;stroke-linecap:round;stroke-linejoin:round"
       id="path224" />
    <path
       d="m 288.39,305.52 2.55,-10.35 16.7,3.34 -1.2,6.68 c 0,0 -9.99,3.95 -18.05,0.33 z"
       style="fill:#f96900;stroke:#263238;stroke-linecap:round;stroke-linejoin:round"
       id="path226" />
    <path
       d="m 295.69,307 a 24.47,24.47 0 0 0 2.59,-0.08 l 2.3,-9.86 -2.53,-0.5 z"
       style="fill:#ffffff;stroke:#263238;stroke-linecap:round;stroke-linejoin:round"
       id="path228" />
    <path
       d="m 220.6,344.11 2.55,-10.35 16.7,3.34 -1.19,6.68 c 0,0 -10,3.95 -18.06,0.33 z"
       style="fill:#f96900;stroke:#263238;stroke-linecap:round;stroke-linejoin:round"
       id="path230" />
    <path
       d="m 220.8,343.32 10,2.21 a 32.67,32.67 0 0 0 4.86,-0.83 l -14.46,-3 z"
       style="fill:#ffffff;stroke:#263238;stroke-linecap:round;stroke-linejoin:round"
       id="path232" />
    <path
       d="m 227.91,345.63 a 24.28,24.28 0 0 0 2.58,-0.08 l 2.31,-9.86 -2.53,-0.51 z"
       style="fill:#ffffff;stroke:#263238;stroke-linecap:round;stroke-linejoin:round"
       id="path234" />
    <path
       d="m 194.51,195.57 a 4.2,4.2 0 0 1 -2,0.61 v -1.3 A 2.43,2.43 0 0 0 195,193 h 1.1 v 14.23 h -1.57 z"
       style="fill:#263238"
       id="path236" />
    <path
       d="m 231.71,196.45 c 0,4.29 -4.81,5.83 -4.83,9.1 v 0.23 h 4.67 v 1.44 h -6.24 V 206 c 0,-4.59 4.82,-5.49 4.82,-9.49 0,-1.47 -0.49,-2.24 -1.67,-2.24 -1.18,0 -1.66,0.84 -1.66,2.1 v 1.26 h -1.49 v -1.16 c 0,-2.18 1,-3.62 3.19,-3.62 2.19,0 3.21,1.42 3.21,3.6 z"
       style="fill:#263238"
       id="path238" />
    <path
       d="m 266.66,196.43 v 0.36 a 2.82,2.82 0 0 1 -1.72,2.93 2.82,2.82 0 0 1 1.72,2.95 v 1.09 c 0,2.18 -1,3.6 -3.21,3.6 -2.21,0 -3.19,-1.42 -3.19,-3.6 v -1 h 1.49 v 1.08 c 0,1.28 0.52,2 1.66,2 1.14,0 1.67,-0.75 1.67,-2.2 v -1.09 c 0,-1.41 -0.59,-2.08 -1.79,-2.12 h -0.85 v -1.42 h 0.93 a 1.71,1.71 0 0 0 1.71,-2 v -0.65 c 0,-1.47 -0.51,-2.22 -1.67,-2.22 -1.16,0 -1.66,0.79 -1.66,2.08 v 0.73 h -1.49 v -0.65 c 0,-2.18 1,-3.58 3.19,-3.58 2.19,0 3.21,1.53 3.21,3.71 z"
       style="fill:#263238"
       id="path240" />
    <path
       d="m 299.32,204.35 v 2.87 h -1.55 v -2.87 h -4.59 v -1.44 l 4.41,-9.92 h 1.73 v 9.92 h 1.14 v 1.44 z m -4.68,-1.44 h 3.13 V 196 Z"
       style="fill:#263238"
       id="path242" />
    <path
       d="m 328.6,198.78 a 2.3,2.3 0 0 1 2.11,-1.18 c 1.83,0 2.64,1.35 2.64,3.38 v 2.78 c 0,2.18 -1,3.6 -3.21,3.6 -2.21,0 -3.19,-1.42 -3.19,-3.6 v -0.95 h 1.49 v 1.06 c 0,1.28 0.52,2 1.66,2 1.14,0 1.67,-0.77 1.67,-2 v -2.77 c 0,-1.28 -0.53,-2 -1.67,-2 a 1.53,1.53 0 0 0 -1.6,1.52 v 0.33 H 327 l 0.39,-7.91 H 333 v 1.42 h -4.19 z"
       style="fill:#263238"
       id="path244" />
    <path
       d="m 197.47,237.09 v 0.26 H 196 V 237 c 0,-1.28 -0.52,-2 -1.68,-2 -1.16,0 -1.73,0.77 -1.73,2.3 v 3.19 a 2.29,2.29 0 0 1 2.3,-1.52 c 1.83,0 2.64,1.32 2.64,3.37 v 2.15 c 0,2.18 -1.08,3.6 -3.25,3.6 -2.17,0 -3.28,-1.42 -3.28,-3.6 v -7.25 c 0,-2.26 1,-3.66 3.28,-3.66 2.28,0 3.19,1.33 3.19,3.51 z m -4.9,5.32 v 2.14 c 0,1.28 0.53,2 1.69,2 1.16,0 1.68,-0.77 1.68,-2 v -2.14 c 0,-1.28 -0.54,-2 -1.68,-2 -1.14,0 -1.69,0.72 -1.69,2 z"
       style="fill:#263238"
       id="path246" />
    <path
       d="m 230.05,235.09 h -4.84 v -1.42 h 6.44 v 1.38 L 228,247.9 h -1.59 z"
       style="fill:#263238"
       id="path248" />
    <path
       d="m 266.82,237.05 v 0.44 a 2.81,2.81 0 0 1 -1.63,2.93 c 1.18,0.47 1.63,1.58 1.63,3 v 1 c 0,2.2 -1.14,3.56 -3.36,3.56 -2.22,0 -3.35,-1.36 -3.35,-3.56 v -1 c 0,-1.45 0.45,-2.52 1.65,-3 -1.16,-0.45 -1.65,-1.48 -1.65,-2.93 v -0.44 c 0,-2.2 1.16,-3.52 3.35,-3.52 2.19,0 3.36,1.32 3.36,3.52 z m -5.15,0 v 0.69 c 0,1.38 0.68,2 1.79,2 1.11,0 1.79,-0.61 1.79,-2 v -0.69 c 0,-1.47 -0.67,-2.14 -1.79,-2.14 -1.12,0 -1.79,0.71 -1.79,2.18 z m 0,6.15 v 1.2 c 0,1.47 0.66,2.16 1.79,2.16 1.13,0 1.77,-0.69 1.79,-2.16 v -1.2 c 0,-1.38 -0.61,-2.05 -1.79,-2.05 -1.18,0 -1.79,0.71 -1.79,2.09 z"
       style="fill:#263238"
       id="path250" />
    <path
       d="m 300,237.11 v 7.25 c 0,2.26 -1,3.68 -3.29,3.68 -2.29,0 -3.21,-1.4 -3.21,-3.58 v -0.26 h 1.5 v 0.37 c 0,1.28 0.55,2 1.69,2 1.14,0 1.74,-0.77 1.74,-2.28 v -3.19 a 2.25,2.25 0 0 1 -2.29,1.5 c -1.83,0 -2.64,-1.3 -2.64,-3.35 v -2.17 c 0,-2.18 1.05,-3.58 3.25,-3.58 2.2,0 3.25,1.43 3.25,3.61 z m -5,-0.08 v 2.13 c 0,1.28 0.55,2.05 1.69,2.05 1.14,0 1.68,-0.77 1.68,-2.05 V 237 c 0,-1.31 -0.52,-2.06 -1.68,-2.06 -1.16,0 -1.61,0.78 -1.61,2.06 z"
       style="fill:#263238"
       id="path252" />
    <path
       d="m 326.46,236.25 a 4.16,4.16 0 0 1 -2,0.61 v -1.3 a 2.42,2.42 0 0 0 2.44,-1.89 h 1.1 v 14.23 h -1.57 z"
       style="fill:#263238"
       id="path254" />
    <path
       d="m 330.31,237.11 c 0,-2.18 1.07,-3.58 3.25,-3.58 2.18,0 3.27,1.4 3.27,3.58 v 7.33 c 0,2.18 -1.08,3.6 -3.27,3.6 -2.19,0 -3.25,-1.42 -3.25,-3.6 z m 1.56,7.44 c 0,1.28 0.55,2 1.69,2 1.14,0 1.69,-0.77 1.69,-2 V 237 c 0,-1.31 -0.53,-2.08 -1.69,-2.08 -1.16,0 -1.69,0.77 -1.69,2.08 z"
       style="fill:#263238"
       id="path256" />
    <path
       d="m 191.08,276.67 a 4.2,4.2 0 0 1 -2,0.61 V 276 a 2.42,2.42 0 0 0 2.44,-1.89 h 1.1 v 14.23 h -1.56 z"
       style="fill:#263238"
       id="path258" />
    <path
       d="m 198,276.67 a 4.2,4.2 0 0 1 -2,0.61 V 276 a 2.42,2.42 0 0 0 2.43,-1.89 h 1.1 v 14.23 H 198 Z"
       style="fill:#263238"
       id="path260" />
    <path
       d="m 224.78,276.67 a 4.16,4.16 0 0 1 -2,0.61 V 276 a 2.42,2.42 0 0 0 2.44,-1.89 h 1.1 v 14.23 h -1.57 z"
       style="fill:#263238"
       id="path262" />
    <path
       d="m 235.15,277.55 c 0,4.29 -4.82,5.83 -4.84,9.1 v 0.23 H 235 v 1.44 h -6.24 v -1.22 c 0,-4.59 4.82,-5.49 4.82,-9.49 0,-1.47 -0.49,-2.24 -1.67,-2.24 -1.18,0 -1.67,0.84 -1.67,2.1 v 1.26 h -1.48 v -1.16 c 0,-2.18 1,-3.62 3.19,-3.62 2.19,0 3.2,1.42 3.2,3.6 z"
       style="fill:#263238"
       id="path264" />
    <path
       d="m 259.81,276.67 a 4.16,4.16 0 0 1 -2,0.61 V 276 a 2.42,2.42 0 0 0 2.44,-1.89 h 1.1 v 14.23 h -1.57 z"
       style="fill:#263238"
       id="path266" />
    <path
       d="m 270.1,277.53 v 0.36 a 2.83,2.83 0 0 1 -1.73,2.93 2.83,2.83 0 0 1 1.73,2.95 v 1.09 c 0,2.18 -1,3.6 -3.21,3.6 -2.21,0 -3.19,-1.42 -3.19,-3.6 v -1 h 1.48 V 285 c 0,1.28 0.53,2 1.67,2 1.14,0 1.66,-0.75 1.66,-2.2 v -1.09 c 0,-1.41 -0.59,-2.08 -1.78,-2.12 h -0.86 v -1.42 h 0.94 a 1.7,1.7 0 0 0 1.7,-1.95 v -0.65 c 0,-1.47 -0.5,-2.22 -1.66,-2.22 -1.16,0 -1.67,0.8 -1.67,2.08 v 0.73 h -1.48 v -0.65 c 0,-2.18 1,-3.58 3.19,-3.58 2.19,0 3.21,1.42 3.21,3.6 z"
       style="fill:#263238"
       id="path268" />
    <path
       d="m 293,276.67 a 4.2,4.2 0 0 1 -2,0.61 V 276 a 2.42,2.42 0 0 0 2.44,-1.89 h 1.1 v 14.23 H 293 Z"
       style="fill:#263238"
       id="path270" />
    <path
       d="m 302.75,285.45 v 2.87 h -1.54 v -2.87 h -4.59 V 284 l 4.41,-9.92 h 1.72 V 284 h 1.14 v 1.44 z M 298.08,284 h 3.13 v -6.95 z"
       style="fill:#263238"
       id="path272" />
    <path
       d="m 326.48,276.67 a 4.16,4.16 0 0 1 -2,0.61 V 276 a 2.42,2.42 0 0 0 2.44,-1.89 h 1.1 v 14.23 h -1.57 z"
       style="fill:#263238"
       id="path274" />
    <path
       d="m 332,279.88 a 2.29,2.29 0 0 1 2.12,-1.17 c 1.83,0 2.64,1.34 2.64,3.37 v 2.78 c 0,2.18 -1,3.6 -3.21,3.6 -2.21,0 -3.19,-1.42 -3.19,-3.6 v -0.95 h 1.48 V 285 c 0,1.28 0.53,2 1.67,2 1.14,0 1.67,-0.77 1.67,-2 v -2.8 c 0,-1.28 -0.53,-2.05 -1.67,-2.05 a 1.54,1.54 0 0 0 -1.61,1.52 V 282 h -1.48 l 0.38,-7.91 h 5.61 v 1.42 h -4.18 z"
       style="fill:#263238"
       id="path276" />
    <path
       d="m 190.56,314.53 a 4.32,4.32 0 0 1 -2,0.61 v -1.3 A 2.43,2.43 0 0 0 191,312 h 1.1 v 14.22 h -1.56 z"
       style="fill:#263238"
       id="path278" />
    <path
       d="m 200.9,315.36 v 0.27 h -1.48 v -0.37 c 0,-1.28 -0.53,-2 -1.69,-2 -1.16,0 -1.73,0.74 -1.73,2.26 v 3.19 a 2.28,2.28 0 0 1 2.29,-1.52 c 1.83,0 2.64,1.32 2.64,3.37 v 2.16 c 0,2.17 -1.07,3.6 -3.25,3.6 -2.18,0 -3.27,-1.43 -3.27,-3.6 v -7.26 c 0,-2.25 1,-3.66 3.27,-3.66 2.27,0 3.22,1.39 3.22,3.56 z m -4.9,5.33 v 2.13 c 0,1.28 0.52,2.05 1.68,2.05 1.16,0 1.69,-0.77 1.69,-2.05 v -2.13 c 0,-1.28 -0.55,-2.06 -1.69,-2.06 -1.14,0 -1.68,0.78 -1.68,2.06 z"
       style="fill:#263238"
       id="path280" />
    <path
       d="m 224.78,314.53 a 4.28,4.28 0 0 1 -2,0.61 v -1.3 a 2.43,2.43 0 0 0 2.44,-1.89 h 1.1 v 14.22 h -1.57 z"
       style="fill:#263238"
       id="path282" />
    <path
       d="m 233.48,313.37 h -4.83 V 312 h 6.44 v 1.38 l -3.66,12.84 h -1.58 z"
       style="fill:#263238"
       id="path284" />
    <path
       d="m 259.76,314.53 a 4.28,4.28 0 0 1 -2,0.61 v -1.3 a 2.43,2.43 0 0 0 2.44,-1.89 h 1.1 v 14.22 h -1.57 z"
       style="fill:#263238"
       id="path286" />
    <path
       d="m 270.25,315.32 v 0.45 a 2.82,2.82 0 0 1 -1.62,2.93 c 1.17,0.46 1.62,1.58 1.62,3 v 1.06 c 0,2.2 -1.14,3.56 -3.35,3.56 -2.21,0 -3.36,-1.36 -3.36,-3.56 v -1.06 c 0,-1.44 0.45,-2.52 1.65,-3 a 2.79,2.79 0 0 1 -1.65,-2.93 v -0.45 c 0,-2.19 1.16,-3.52 3.36,-3.52 2.2,0 3.35,1.33 3.35,3.52 z m -5.14,0 v 0.69 c 0,1.38 0.67,2 1.79,2 1.12,0 1.79,-0.61 1.79,-2 v -0.69 c 0,-1.46 -0.67,-2.13 -1.79,-2.13 -1.12,0 -1.79,0.71 -1.79,2.17 z m 0,6.16 v 1.2 c 0,1.46 0.65,2.15 1.79,2.15 1.14,0 1.77,-0.69 1.79,-2.15 v -1.2 c 0,-1.38 -0.61,-2 -1.79,-2 -1.18,0 -1.79,0.66 -1.79,2.04 z"
       style="fill:#263238"
       id="path288" />
    <path
       d="m 293.13,314.53 a 4.32,4.32 0 0 1 -2,0.61 v -1.3 A 2.45,2.45 0 0 0 293.6,312 h 1.09 v 14.22 h -1.56 z"
       style="fill:#263238"
       id="path290" />
    <path
       d="m 303.48,315.38 v 7.26 c 0,2.25 -1,3.68 -3.3,3.68 -2.3,0 -3.21,-1.41 -3.21,-3.58 v -0.27 h 1.49 v 0.37 c 0,1.28 0.54,2 1.68,2 1.14,0 1.75,-0.77 1.75,-2.27 v -3.19 a 2.28,2.28 0 0 1 -2.3,1.5 c -1.83,0 -2.64,-1.3 -2.64,-3.35 v -2.18 c 0,-2.17 1.06,-3.58 3.25,-3.58 2.19,0 3.28,1.44 3.28,3.61 z m -5,-0.08 v 2.13 c 0,1.28 0.54,2.06 1.68,2.06 1.14,0 1.69,-0.78 1.69,-2.06 v -2.13 c 0,-1.3 -0.53,-2.05 -1.69,-2.05 -1.16,0 -1.64,0.75 -1.64,2.05 z"
       style="fill:#263238"
       id="path292" />
    <path
       d="m 329.46,315.4 c 0,4.29 -4.82,5.84 -4.84,9.11 v 0.22 h 4.68 v 1.44 h -6.24 V 325 c 0,-4.6 4.82,-5.49 4.82,-9.5 0,-1.46 -0.49,-2.23 -1.67,-2.23 -1.18,0 -1.67,0.83 -1.67,2.09 v 1.26 h -1.48 v -1.16 c 0,-2.17 1,-3.62 3.19,-3.62 2.19,0 3.21,1.39 3.21,3.56 z"
       style="fill:#263238"
       id="path294" />
    <path
       d="m 330.8,315.38 c 0,-2.17 1.08,-3.58 3.26,-3.58 2.18,0 3.27,1.41 3.27,3.58 v 7.34 c 0,2.17 -1.08,3.6 -3.27,3.6 -2.19,0 -3.26,-1.43 -3.26,-3.6 z m 1.57,7.44 c 0,1.28 0.55,2.05 1.69,2.05 1.14,0 1.68,-0.77 1.68,-2.05 v -7.52 c 0,-1.3 -0.53,-2.07 -1.68,-2.07 -1.15,0 -1.69,0.77 -1.69,2.07 z"
       style="fill:#263238"
       id="path296" />
    <path
       d="m 194.07,355.52 c 0,4.29 -4.81,5.83 -4.83,9.1 v 0.23 h 4.67 v 1.44 h -6.24 v -1.22 c 0,-4.59 4.82,-5.49 4.82,-9.49 0,-1.46 -0.49,-2.24 -1.67,-2.24 -1.18,0 -1.66,0.84 -1.66,2.1 v 1.26 h -1.49 v -1.16 c 0,-2.18 1,-3.62 3.19,-3.62 2.19,0 3.21,1.42 3.21,3.6 z"
       style="fill:#263238"
       id="path298" />
    <path
       d="m 198.45,354.64 a 4.2,4.2 0 0 1 -2,0.61 V 354 a 2.42,2.42 0 0 0 2.44,-1.89 H 200 v 14.23 h -1.56 z"
       style="fill:#263238"
       id="path300" />
    <path
       d="m 227.78,355.52 c 0,4.29 -4.82,5.83 -4.84,9.1 v 0.23 h 4.68 v 1.44 h -6.24 v -1.22 c 0,-4.59 4.82,-5.49 4.82,-9.49 0,-1.46 -0.49,-2.24 -1.67,-2.24 -1.18,0 -1.67,0.84 -1.67,2.1 v 1.26 h -1.48 v -1.16 c 0,-2.18 1,-3.62 3.19,-3.62 2.19,0 3.21,1.42 3.21,3.6 z"
       style="fill:#263238"
       id="path302" />
    <path
       d="m 235.65,355.52 c 0,4.29 -4.82,5.83 -4.84,9.1 v 0.23 h 4.68 v 1.44 h -6.24 v -1.22 c 0,-4.59 4.81,-5.49 4.81,-9.49 0,-1.46 -0.48,-2.24 -1.66,-2.24 -1.18,0 -1.67,0.84 -1.67,2.1 v 1.26 h -1.48 v -1.16 c 0,-2.18 1,-3.62 3.19,-3.62 2.19,0 3.21,1.42 3.21,3.6 z"
       style="fill:#263238"
       id="path304" />
    <path
       d="m 262.81,355.52 c 0,4.29 -4.81,5.83 -4.84,9.1 v 0.23 h 4.68 v 1.44 h -6.24 v -1.22 c 0,-4.59 4.82,-5.49 4.82,-9.49 0,-1.46 -0.49,-2.24 -1.67,-2.24 -1.18,0 -1.67,0.84 -1.67,2.1 v 1.26 h -1.48 v -1.16 c 0,-2.18 1,-3.62 3.19,-3.62 2.19,0 3.21,1.42 3.21,3.6 z"
       style="fill:#263238"
       id="path306" />
    <path
       d="m 270.6,355.5 v 0.36 a 2.83,2.83 0 0 1 -1.73,2.93 2.83,2.83 0 0 1 1.73,2.95 v 1.09 c 0,2.18 -1,3.6 -3.21,3.6 -2.21,0 -3.19,-1.42 -3.19,-3.6 v -1 h 1.48 v 1.08 c 0,1.28 0.53,2.05 1.67,2.05 1.14,0 1.66,-0.75 1.66,-2.2 v -1.06 c 0,-1.41 -0.59,-2.08 -1.79,-2.12 h -0.85 v -1.42 h 0.94 a 1.7,1.7 0 0 0 1.7,-2 v -0.65 c 0,-1.47 -0.51,-2.22 -1.66,-2.22 -1.15,0 -1.67,0.8 -1.67,2.08 v 0.73 h -1.48 v -0.65 c 0,-2.18 1,-3.58 3.19,-3.58 2.19,0 3.21,1.45 3.21,3.63 z"
       style="fill:#263238"
       id="path308" />
    <path
       d="m 296,355.52 c 0,4.29 -4.81,5.83 -4.83,9.1 v 0.23 h 4.67 v 1.44 h -6.24 v -1.22 c 0,-4.59 4.82,-5.49 4.82,-9.49 0,-1.46 -0.49,-2.24 -1.67,-2.24 -1.18,0 -1.66,0.84 -1.66,2.1 v 1.26 h -1.49 v -1.16 c 0,-2.18 1,-3.62 3.19,-3.62 2.19,0 3.21,1.42 3.21,3.6 z"
       style="fill:#263238"
       id="path310" />
    <path
       d="m 303.25,363.42 v 2.87 h -1.54 v -2.87 h -4.6 V 362 l 4.41,-9.92 h 1.73 V 362 h 1.14 v 1.44 z M 298.58,362 h 3.13 v -7 z"
       style="fill:#263238"
       id="path312" />
    <path
       d="m 329.48,355.52 c 0,4.29 -4.81,5.83 -4.84,9.1 v 0.23 h 4.68 v 1.44 h -6.24 v -1.22 c 0,-4.59 4.82,-5.49 4.82,-9.49 0,-1.46 -0.49,-2.24 -1.67,-2.24 -1.18,0 -1.67,0.84 -1.67,2.1 v 1.26 h -1.48 v -1.16 c 0,-2.18 1,-3.62 3.19,-3.62 2.19,0 3.21,1.42 3.21,3.6 z"
       style="fill:#263238"
       id="path314" />
    <path
       d="m 332.53,357.86 a 2.28,2.28 0 0 1 2.12,-1.18 c 1.83,0 2.64,1.34 2.64,3.37 v 2.78 c 0,2.18 -1,3.6 -3.21,3.6 -2.21,0 -3.19,-1.42 -3.19,-3.6 v -0.95 h 1.48 v 1.06 c 0,1.28 0.53,2.05 1.67,2.05 1.14,0 1.66,-0.77 1.66,-2.05 v -2.77 c 0,-1.28 -0.53,-2.05 -1.66,-2.05 a 1.53,1.53 0 0 0 -1.61,1.52 V 360 H 331 l 0.38,-7.91 h 5.61 v 1.43 h -4.18 z"
       style="fill:#263238"
       id="path316" />
    <path
       d="m 212.41,120.19 h -1.52 l -2.36,-11.32 v 11.34 h -1.38 V 106 h 2.21 L 211.7,117.36 214,106 h 2.21 v 14.23 h -1.5 v -11.46 z"
       style="fill:#263238"
       id="path318" />
    <path
       d="m 222.86,112.28 v 1.42 h -3.48 v 5.07 h 4.27 v 1.44 H 217.8 V 106 h 5.85 v 1.44 h -4.27 v 4.86 z"
       style="fill:#263238"
       id="path320" />
    <path
       d="m 228.29,106 c 2.23,0 3.17,1.14 3.17,3.25 v 1.16 c 0,1.57 -0.55,2.54 -1.77,2.93 1.3,0.38 1.79,1.44 1.79,3 v 2.21 a 3.63,3.63 0 0 0 0.28,1.71 h -1.6 a 3.76,3.76 0 0 1 -0.27,-1.73 v -2.24 c 0,-1.6 -0.75,-2.11 -2.07,-2.11 h -1.12 v 6.08 h -1.58 V 106 Z m -0.41,6.71 c 1.26,0 2,-0.41 2,-2 v -1.36 c 0,-1.29 -0.46,-2 -1.64,-2 h -1.54 v 5.27 z"
       style="fill:#263238"
       id="path322" />
    <path
       d="m 236.3,106 c 2.23,0 3.17,1.14 3.17,3.25 v 1.16 c 0,1.57 -0.55,2.54 -1.77,2.93 1.3,0.38 1.79,1.44 1.79,3 v 2.21 a 3.63,3.63 0 0 0 0.28,1.71 h -1.6 a 3.76,3.76 0 0 1 -0.27,-1.73 v -2.24 c 0,-1.6 -0.75,-2.11 -2.07,-2.11 h -1.12 v 6.08 h -1.58 V 106 Z m -0.41,6.71 c 1.26,0 2,-0.41 2,-2 v -1.36 c 0,-1.29 -0.46,-2 -1.64,-2 h -1.55 v 5.27 z"
       style="fill:#263238"
       id="path324" />
    <path
       d="m 243.45,115.11 -3,-9.13 h 1.64 l 2.22,7 2.23,-7 h 1.51 l -3,9.13 v 5.1 h -1.57 z"
       style="fill:#263238"
       id="path326" />
    <path
       d="m 258.62,109.42 v 1.28 h -1.51 v -1.37 c 0,-1.28 -0.5,-2 -1.66,-2 -1.16,0 -1.67,0.77 -1.67,2 v 7.52 c 0,1.28 0.53,2.06 1.67,2.06 1.14,0 1.66,-0.78 1.66,-2.06 V 115 h 1.51 v 1.77 c 0,2.16 -1,3.58 -3.21,3.58 -2.21,0 -3.19,-1.42 -3.19,-3.58 v -7.35 c 0,-2.16 1,-3.58 3.19,-3.58 2.19,0 3.21,1.42 3.21,3.58 z"
       style="fill:#263238"
       id="path328" />
    <path
       d="m 261.65,113.81 v 6.4 h -1.59 V 106 h 1.59 v 6.4 h 3.5 V 106 h 1.58 v 14.23 h -1.58 v -6.4 z"
       style="fill:#263238"
       id="path330" />
    <path
       d="m 271.53,106 c 2.23,0 3.17,1.14 3.17,3.25 v 1.16 c 0,1.57 -0.55,2.54 -1.77,2.93 1.3,0.38 1.79,1.44 1.79,3 v 2.21 a 3.63,3.63 0 0 0 0.28,1.71 h -1.6 a 3.76,3.76 0 0 1 -0.27,-1.73 v -2.24 c 0,-1.6 -0.75,-2.11 -2.07,-2.11 h -1.12 v 6.08 h -1.58 V 106 Z m -0.41,6.71 c 1.26,0 2,-0.41 2,-2 v -1.36 c 0,-1.29 -0.46,-2 -1.64,-2 h -1.55 v 5.27 z"
       style="fill:#263238"
       id="path332" />
    <path
       d="m 278,106 v 14.23 h -1.58 V 106 Z"
       style="fill:#263238"
       id="path334" />
    <path
       d="m 285.74,109.4 v 0.38 h -1.51 v -0.47 c 0,-1.28 -0.48,-2 -1.62,-2 -1.14,0 -1.63,0.75 -1.63,2 0,3.19 4.78,3.5 4.78,7.5 0,2.16 -1,3.56 -3.21,3.56 -2.21,0 -3.19,-1.4 -3.19,-3.56 V 116 h 1.48 v 0.9 c 0,1.28 0.53,2 1.67,2 1.14,0 1.66,-0.75 1.66,-2 0,-3.18 -4.75,-3.48 -4.75,-7.48 0,-2.2 1,-3.56 3.15,-3.56 2.15,0 3.17,1.38 3.17,3.54 z"
       style="fill:#263238"
       id="path336" />
    <path
       d="m 289.22,120.21 v -12.79 h -2.63 V 106 h 6.83 v 1.44 h -2.62 v 12.79 z"
       style="fill:#263238"
       id="path338" />
    <path
       d="m 299.77,120.19 h -1.53 l -2.36,-11.32 v 11.34 H 294.5 V 106 h 2.22 l 2.33,11.36 2.26,-11.36 h 2.22 v 14.23 H 302 v -11.46 z"
       style="fill:#263238"
       id="path340" />
    <path
       d="m 306.76,117.34 -0.55,2.87 h -1.46 L 307.47,106 h 2.3 l 2.72,14.23 h -1.58 l -0.55,-2.87 z M 307,116 h 3.17 l -1.6,-8.21 z"
       style="fill:#263238"
       id="path342" />
    <path
       d="m 319.89,109.4 v 0.38 h -1.5 v -0.47 c 0,-1.28 -0.49,-2 -1.63,-2 -1.14,0 -1.62,0.75 -1.62,2 0,3.19 4.77,3.5 4.77,7.5 0,2.16 -1,3.56 -3.21,3.56 -2.21,0 -3.19,-1.4 -3.19,-3.56 V 116 H 315 v 0.9 c 0,1.28 0.53,2 1.67,2 1.14,0 1.67,-0.75 1.67,-2 0,-3.18 -4.76,-3.48 -4.76,-7.48 0,-2.2 1,-3.56 3.15,-3.56 2.15,0 3.16,1.38 3.16,3.54 z"
       style="fill:#263238"
       id="path344" />
  </g>
</svg>
