<?xml version="1.0" encoding="UTF-8" standalone="no"?>
<svg
   viewBox="0 0 616.59003 436.15866"
   version="1.1"
   id="svg253"
   sodipodi:docname="kpl-accueil-problematique.svg"
   width="616.59003"
   height="436.15866"
   inkscape:version="1.1 (c68e22c387, 2021-05-23)"
   xmlns:inkscape="http://www.inkscape.org/namespaces/inkscape"
   xmlns:sodipodi="http://sodipodi.sourceforge.net/DTD/sodipodi-0.dtd"
   xmlns="http://www.w3.org/2000/svg"
   xmlns:svg="http://www.w3.org/2000/svg">
  <defs
     id="defs257" />
  <sodipodi:namedview
     id="namedview255"
     pagecolor="#ffffff"
     bordercolor="#666666"
     borderopacity="1.0"
     inkscape:pageshadow="2"
     inkscape:pageopacity="0.0"
     inkscape:pagecheckerboard="0"
     showgrid="false"
     inkscape:zoom="1.244"
     inkscape:cx="307.47588"
     inkscape:cy="235.53055"
     inkscape:window-width="1368"
     inkscape:window-height="850"
     inkscape:window-x="-6"
     inkscape:window-y="-6"
     inkscape:window-maximized="1"
     inkscape:current-layer="svg253" />
  <g
     id="freepik--gears-4--inject-2"
     transform="translate(-67.650002,-14.77)">
    <g
       style="opacity:0.3"
       id="g6">
      <path
         d="m 381.3,47.11 1.35,-3.61 -3.07,-1.5 a 11.67,11.67 0 0 0 -0.07,-4.41 l 3,-1.77 -1.6,-3.51 -3.25,1.09 a 11.25,11.25 0 0 0 -3.16,-3.06 l 0.89,-3.4 -3.62,-1.35 -1.52,3.07 a 11.22,11.22 0 0 0 -4.4,0.07 l -1.78,-3 -3.51,1.6 1.1,3.25 a 11.38,11.38 0 0 0 -3.06,3.16 l -3.4,-0.89 -1.35,3.62 3.15,1.46 a 11.41,11.41 0 0 0 0.06,4.4 l -3,1.78 1.6,3.51 3.25,-1.1 a 11.41,11.41 0 0 0 3.09,3.07 l -0.9,3.41 3.62,1.35 1.52,-3.07 a 11.62,11.62 0 0 0 4.4,-0.07 l 1.78,3 3.51,-1.6 -1.1,-3.25 a 11.42,11.42 0 0 0 3.07,-3.16 z m -15.34,-1 a 6.58,6.58 0 1 1 8.47,-3.86 6.58,6.58 0 0 1 -8.43,3.87 z"
         id="path2" />
      <path
         d="m 399,31.25 1,-2.77 -2.35,-1.17 a 8.87,8.87 0 0 0 -0.05,-3.37 l 2.4,-1.36 -1.23,-2.7 -2.48,0.84 a 8.89,8.89 0 0 0 -2.43,-2.34 l 0.68,-2.61 -2.77,-1 -1.16,2.36 a 8.73,8.73 0 0 0 -3.38,0.05 l -1.36,-2.32 -2.7,1.14 0.84,2.49 A 8.88,8.88 0 0 0 381.66,21 L 379.05,20.32 378,23 l 2.35,1.17 a 8.67,8.67 0 0 0 0.06,3.37 l -2.31,1.46 1.23,2.69 2.49,-0.84 a 8.57,8.57 0 0 0 2.42,2.34 l -0.68,2.61 2.77,1 1.16,-2.36 a 8.73,8.73 0 0 0 3.38,0 l 1.36,2.32 2.69,-1.22 -0.84,-2.54 a 8.74,8.74 0 0 0 2.35,-2.42 z m -11.76,-0.76 a 5,5 0 1 1 6.49,-3 5,5 0 0 1 -6.45,3 z"
         id="path4" />
    </g>
  </g>
  <g
     id="freepik--icon-3--inject-2"
     transform="translate(-67.650002,-14.77)">
    <g
       style="opacity:0.3"
       id="g15">
      <path
         d="M 650.41,154.55 638,145.77 v -4.89 l 12.46,-8.78 v 5.23 l -8.28,6 8.28,6 z"
         id="path9" />
      <path
         d="m 654.34,157.44 9.79,-33.87 h 3.76 l -9.78,33.87 z"
         id="path11" />
      <path
         d="m 671.74,154.55 v -5.22 l 8.36,-6 -8.36,-6 v -5.23 l 12.5,8.78 v 4.89 z"
         id="path13" />
    </g>
  </g>
  <g
     id="freepik--icon-2--inject-2"
     transform="translate(-67.650002,-14.77)">
    <path
       d="m 325.42,118.65 v 34.72 h 35.94 z m 6.35,14.54 13.74,13.27 h -13.74 z"
       style="opacity:0.3"
       id="path18" />
    <g
       style="opacity:0.3"
       id="g26">
      <rect
         x="348.48001"
         y="115.12"
         width="7.2399998"
         height="30.290001"
         transform="rotate(-45,352.0945,130.25768)"
         id="rect20" />
      <rect
         x="334.25"
         y="113.44"
         width="7.2399998"
         height="5.1900001"
         transform="rotate(-45,337.87444,116.03782)"
         id="rect22" />
      <polygon
         points="361.2,144.34 368.24,146.33 366.24,139.3 "
         id="polygon24" />
    </g>
  </g>
  <g
     id="freepik--icon-1--inject-2"
     transform="translate(-67.650002,-14.77)">
    <g
       style="opacity:0.3"
       id="g33">
      <rect
         x="67.650002"
         y="141.42"
         width="53.919998"
         height="4.3899999"
         id="rect29" />
      <path
         d="m 97.05,119.56 c 0,0 0,-0.09 0,-0.14 a 2.45,2.45 0 0 0 -4.9,0 0.68,0.68 0 0 0 0,0.14 23.2,23.2 0 0 0 -20.55,19.92 h 46 A 23.18,23.18 0 0 0 97.05,119.56 Z"
         id="path31" />
    </g>
  </g>
  <g
     id="freepik--character-3--inject-2"
     transform="translate(-67.650002,-14.77)">
    <path
       d="m 571.43,124.89 c 0,0 -10.11,13.53 -7.93,17.9 2.18,4.37 7.25,6.43 8.21,10 0.96,3.57 -3.15,7 -1.51,12.31 1.64,5.31 2.6,5.47 2.33,7.52 -0.27,2.05 -0.14,2.32 7,2.18 7.14,-0.14 21.6,0.41 29.94,-3.69 8.34,-4.1 15.17,-13.12 12.71,-23.78 -2.46,-10.66 -8.47,-18.05 -11.89,-22.42 -3.42,-4.37 -18.46,-9.3 -28.16,-7.25 -9.7,2.05 -10.7,7.23 -10.7,7.23 z"
       style="fill:#263238;stroke:#263238;stroke-miterlimit:10"
       id="path36" />
    <path
       d="m 565.07,324.33 c 0,0 7.46,34.45 8.71,38.72 1.25,4.27 0.88,10.12 4.79,21.66 3.91,11.54 9.06,35.7 9.06,35.7 0,0 -5,8.53 -8.7,11.72 -3.7,3.19 -8,4.62 -7.11,6 0.89,1.38 5.86,0.71 11.55,-0.53 a 19.46,19.46 0 0 0 9.94,-5.69 c 1.6,-1.42 3.2,-1.24 4.44,-2.66 1.24,-1.42 0.89,-4.44 -0.35,-7.64 -1.24,-3.2 -2.49,-5.86 -2.49,-5.86 0,0 0.18,-28.77 -1.24,-45.82 -1.42,-17.05 -2,-21.66 -2,-21.66 v -18.08 z"
       style="fill:#ffffff;stroke:#263238;stroke-miterlimit:10"
       id="path38" />
    <path
       d="m 589.76,430.18 c -4.26,3.91 -5.51,3.37 -5.51,3.37 l -5.32,-1.42 c -3.73,3.2 -8,4.62 -7.11,6 0.89,1.38 5.86,0.71 11.55,-0.53 a 19.46,19.46 0 0 0 9.94,-5.69 c 1.6,-1.42 3.2,-1.24 4.44,-2.66 1.24,-1.42 0.89,-4.44 -0.35,-7.64 -0.71,4.13 -3.4,4.66 -7.64,8.57 z"
       style="fill:#263238;stroke:#263238;stroke-miterlimit:10"
       id="path40" />
    <path
       d="m 593.13,330.9 c 0,0 2.49,22.56 4.62,31.61 2.13,9.05 11,54.7 11.19,57.19 0.19,2.49 1.42,15.1 3,20.42 1.58,5.32 6.39,7.46 8.35,2.31 1.96,-5.15 2.48,-8.17 -0.36,-13.85 -2.84,-5.68 -5.15,-4.44 -5.15,-13.67 a 98.85,98.85 0 0 1 2,-20.25 c 1.07,-5.86 3.38,-10.3 2.14,-19.18 -1.24,-8.88 -2.49,-9.77 -2.49,-15.63 0,-5.86 2.66,-30.73 2.66,-30.73 l -0.35,-5.15 c 0,0 -18.5,6.75 -25.61,6.93 z"
       style="fill:#ffffff;stroke:#263238;stroke-miterlimit:10"
       id="path42" />
    <path
       d="m 620,428.58 a 20.89,20.89 0 0 0 -1.48,-2.51 c 0.12,0.63 0.25,1.33 0.42,2.16 a 27.44,27.44 0 0 1 0.35,5.86 c -5.68,0 -6.92,0.88 -6.92,0.88 l -3,-11.08 c 0.52,4.89 1.48,12.42 2.62,16.23 1.6,5.33 6.39,7.46 8.35,2.31 1.96,-5.15 2.45,-8.17 -0.34,-13.85 z"
       style="fill:#263238;stroke:#263238;stroke-miterlimit:10"
       id="path44" />
    <path
       d="m 567,239.61 c 0,0 -8,11.55 -10.13,37.66 -2.13,26.11 6.58,51.5 6.58,51.5 0,0 5.5,4.26 23.08,5.33 a 83,83 0 0 0 32.5,-5 c 0,0 7.82,-20.95 8.35,-39.25 0.53,-18.3 -16.52,-49.37 -16.52,-49.37 z"
       style="fill:#263238;stroke:#263238;stroke-miterlimit:10"
       id="path46" />
    <path
       d="m 587.29,171.09 0.28,8.62 c 0,0 -15.18,1.36 -19.42,2.18 a 11.45,11.45 0 0 0 -9.29,9.57 c -1,5.61 -2.74,21.74 -2.74,22.7 0,0.96 -2.19,14.63 -2.19,14.63 l 13.68,2.05 c 0,0 -1.92,8.75 -0.55,10.25 1.37,1.5 37.73,-0.14 41.29,-0.14 3.56,0 3.28,0.41 4.78,-2.87 1.5,-3.28 6,-22.28 6,-22.28 0,0 8.33,-19.69 8.75,-26.52 0.42,-6.83 -2.19,-8.34 -4.79,-9.3 -2.6,-0.96 -20.37,-2.87 -20.37,-2.87 l -3.55,-13.26 c 0,0 -9.83,6.83 -11.88,7.24 z"
       style="fill:#a61c3c;stroke:#263238;stroke-miterlimit:10"
       id="path48" />
    <path
       d="m 584.08,181.54 c 0,0 -8,14.74 -9.24,22 -1.24,7.26 -0.89,20.25 -0.89,20.25"
       style="fill:none;stroke:#263238;stroke-miterlimit:10"
       id="path50" />
    <path
       d="m 587.1,181.54 c 0,0 -9.06,19.18 -9.77,23.09 -0.71,3.91 -2.13,23.8 -2.13,23.8"
       style="fill:none;stroke:#263238;stroke-miterlimit:10"
       id="path52" />
    <path
       d="m 603.08,179.59 c 0,0 -8.17,20.24 -8.7,24.68 -0.53,4.44 -4.27,31.26 -4.27,31.26"
       style="fill:none;stroke:#263238;stroke-miterlimit:10"
       id="path54" />
    <path
       d="m 606.45,179.59 c 0,0 -8,19.71 -8.52,23.62 -0.52,3.91 -3.73,29.79 -3.73,29.79"
       style="fill:none;stroke:#263238;stroke-miterlimit:10"
       id="path56" />
    <path
       d="m 587.39,174.22 c 3.26,0.53 10,0.92 13.57,-3.76 l -1.77,-6.61 c 0,0 -9.85,6.83 -11.9,7.24 z"
       style="fill:#ffffff;stroke:#263238;stroke-miterlimit:10"
       id="path58" />
    <path
       d="m 579.09,134.59 c 0,0 -5.47,5.61 -6.43,11.21 -0.96,5.6 4.65,15.59 7.11,20 2.46,4.41 8.34,7.66 11.9,6.29 3.56,-1.37 8.61,-7.38 9,-11.21 0.39,-3.83 1.23,-10.66 -1.91,-15.31 -3.14,-4.65 -6.16,-3.56 -11.62,-6.29 a 60.12,60.12 0 0 1 -8.05,-4.69 z"
       style="fill:#ffffff;stroke:#263238;stroke-linecap:round;stroke-linejoin:round"
       id="path60" />
    <path
       d="m 582.2,151.05 c 0,0 0.59,1.23 0.18,4.23 -0.41,3 0,3.87 0.72,3.87 a 17.69,17.69 0 0 0 2.79,-0.63"
       style="fill:none;stroke:#263238;stroke-linecap:round;stroke-linejoin:round"
       id="path62" />
    <path
       d="m 583.19,163.57 c 0,0 5.88,1 7.38,-4.23"
       style="fill:none;stroke:#263238;stroke-linecap:round;stroke-linejoin:round"
       id="path64" />
    <path
       d="m 574.85,149.49 a 8.26,8.26 0 0 1 4,-2.05"
       style="fill:none;stroke:#263238;stroke-linecap:round;stroke-linejoin:round"
       id="path66" />
    <path
       d="m 584.28,146.21 c 0,0 3.56,-1.5 6,-0.54"
       style="fill:none;stroke:#263238;stroke-linecap:round;stroke-linejoin:round"
       id="path68" />
    <path
       d="m 580,152.75 a 1.28,1.28 0 1 1 -1.74,-1.1 1.49,1.49 0 0 1 1.74,1.1 z"
       style="fill:#263238"
       id="path70" />
    <path
       d="m 590,150.29 a 1.49,1.49 0 0 1 -0.57,2 1.71,1.71 0 1 1 0.57,-2 z"
       style="fill:#263238"
       id="path72" />
    <path
       d="m 620.92,180 c 5.88,0 14.36,7.79 15.18,14.76 0.82,6.97 -0.69,15.86 -0.69,15.86 l -13.67,5.47 a 22.24,22.24 0 0 1 -7.52,-12.3"
       style="fill:#a61c3c;stroke:#263238;stroke-miterlimit:10"
       id="path74" />
    <path
       d="m 621.74,216.07 2.19,8.89 c 0,0 -22,0.13 -24.47,0.54 -2.47,0.41 -6.84,0.41 -11.89,3.29 -5.05,2.88 -7.52,4.1 -9.16,7.24 -1.64,3.14 -2.19,4.24 -1.37,4.38 a 2.13,2.13 0 0 0 1.5,-0.41 c 0,0 0.41,1.23 1.37,0.95 a 4.19,4.19 0 0 0 1.64,-0.95 c 0,0 0.14,1.09 1.37,0.68 a 13.14,13.14 0 0 0 2.18,-1 c 0,0 -0.13,0.69 1.23,0 a 18.85,18.85 0 0 0 3.56,-3 12.84,12.84 0 0 0 5.74,-1.65 c 2.19,-1.5 5.74,-4.1 5.74,-4.1 0,0 21.47,4.79 29,6.84 7.53,2.05 9,0 9.29,-3.42 0.29,-3.42 -4.24,-23.79 -4.24,-23.79 z"
       style="fill:#ffffff;stroke:#263238;stroke-miterlimit:10"
       id="path76" />
    <line
       x1="623.92999"
       y1="224.96001"
       x2="633.90997"
       y2="225.37"
       style="fill:none;stroke:#263238;stroke-miterlimit:10"
       id="line78" />
    <line
       x1="588.65997"
       y1="234.53"
       x2="585.09998"
       y2="239.72"
       style="fill:none;stroke:#263238;stroke-miterlimit:10"
       id="line80" />
    <line
       x1="586.33002"
       y1="233.42999"
       x2="581.54999"
       y2="240"
       style="fill:none;stroke:#263238;stroke-miterlimit:10"
       id="line82" />
    <path
       d="m 582.92,232.75 c 0,0 -3.83,5.88 -4.38,7.25"
       style="fill:none;stroke:#263238;stroke-miterlimit:10"
       id="path84" />
    <rect
       x="579.90997"
       y="240.95"
       width="23.92"
       height="2.46"
       style="fill:#ffffff;stroke:#263238;stroke-miterlimit:10"
       id="rect86" />
    <polygon
       points="523.62,206.78 575.43,206.78 580.56,243.41 528.74,243.41 "
       style="fill:#ffffff;stroke:#263238;stroke-miterlimit:10"
       id="polygon88" />
    <path
       d="m 543.27,239.59 c 0,0 -1.5,6 -1.23,7.52 0.27,1.52 3.83,3 5.06,3.69 1.23,0.69 4.1,2.87 5.47,2.87 1.37,0 3.28,0.54 5.47,-1.78 2.19,-2.32 4,-7.52 4,-7.52 l -3,-0.41 c 0,0 -1.13,1.54 -1.22,1 -0.25,-1.65 0.26,-6.88 -0.55,-7.79 -1.1,-1.23 -1.78,1.23 -1.78,1.23 0,0 -0.82,-5.88 -2.19,-5.75 -1.37,0.13 -1.5,1 -1.5,1 0,0 -1.37,-3.83 -2.19,-3.28 -0.82,0.55 -1.09,2.46 -1.09,2.46 a 1.94,1.94 0 0 0 -2.33,1.64 c -0.41,2.05 -1.09,4.24 -1.09,4.24 0,0 -1.28,-0.9 -1.83,0.88 z"
       style="fill:#ffffff;stroke:#263238;stroke-miterlimit:10"
       id="path90" />
    <path
       d="m 545.05,238.63 c 0,0 -1.51,7.79 -0.69,8.89 a 13.94,13.94 0 0 0 2.6,2.32"
       style="fill:none;stroke:#263238;stroke-miterlimit:10"
       id="path92" />
    <line
       x1="548.46997"
       y1="232.75"
       x2="547.51001"
       y2="244.64"
       style="fill:none;stroke:#263238;stroke-miterlimit:10"
       id="line94" />
    <line
       x1="551.75"
       y1="233.57001"
       x2="551.20001"
       y2="244.78"
       style="fill:none;stroke:#263238;stroke-miterlimit:10"
       id="line96" />
    <path
       d="m 555.44,238.36 c 0,0 -1.92,9.16 -0.69,10.25 a 20.86,20.86 0 0 0 2.06,1.64"
       style="fill:none;stroke:#263238;stroke-miterlimit:10"
       id="path98" />
    <line
       x1="558.98999"
       y1="243.96001"
       x2="559.13"
       y2="246.7"
       style="fill:none;stroke:#263238;stroke-miterlimit:10"
       id="line100" />
    <line
       x1="605.73999"
       y1="266.07999"
       x2="592.59998"
       y2="277.44"
       style="fill:none;stroke:#ffffff;stroke-miterlimit:10"
       id="line102" />
    <line
       x1="603.08002"
       y1="271.39999"
       x2="600.41998"
       y2="274.07001"
       style="fill:none;stroke:#ffffff;stroke-miterlimit:10"
       id="line104" />
    <line
       x1="564.01001"
       y1="265.19"
       x2="568.45001"
       y2="269.26999"
       style="fill:none;stroke:#ffffff;stroke-miterlimit:10"
       id="line106" />
  </g>
  <g
     id="freepik--character-2--inject-2"
     transform="translate(-67.650002,-14.77)">
    <polygon
       points="338.7,231.23 341.54,240.84 369.58,242.26 377.46,180.97 373.05,172.15 359.97,226.34 "
       style="fill:#ffffff;stroke:#263238;stroke-linecap:round;stroke-linejoin:round"
       id="polygon109" />
    <path
       d="m 368,257.05 c 0,0 -2.42,11.1 -2.42,43.62 0,32.52 7.67,78.37 8.88,89.07 1.21,10.7 2.43,22.82 2.43,22.82 l -1.22,2 0.61,5.66 a 51.52,51.52 0 0 0 -13.13,9.29 c -5.45,5.65 -9.49,5.45 -5.65,7.47 3.84,2.02 13.73,1.21 17.37,0.41 3.64,-0.8 6.66,-4.65 6.66,-4.65 0,0 7.07,-2 8.28,-5.05 1.21,-3.05 -1.21,-10.1 -1.21,-10.1 a 43.86,43.86 0 0 0 1.62,-10.1 c 0.4,-6.46 0.4,-10.7 0.4,-10.7 l 3.84,-86.65 26,102.81 c 0,0 0.2,4.24 1.21,6.46 1.01,2.22 3,5.25 3.24,6.26 0.24,1.01 -0.61,11.31 0.4,15.76 1.01,4.45 4.44,10.5 7.07,8.68 2.63,-1.82 5.86,-5.25 5.65,-12.32 -0.21,-7.07 -3.83,-14.74 -3.83,-14.74 a 30.65,30.65 0 0 1 0.6,-3.64 c 0.41,-1.62 -1.41,-7.07 -2,-9.69 -0.59,-2.62 -4.24,-68.88 -4.24,-68.88 l -8.08,-82.4 -50.69,-6.06 z"
       style="fill:#263238;stroke:#263238;stroke-miterlimit:10"
       id="path111" />
    <polyline
       points="394.48 310.16 391.25 296.43 384.78 291.38"
       style="fill:none;stroke:#ffffff;stroke-miterlimit:10"
       id="polyline113" />
    <path
       d="m 398.88,169.63 c 0,0 -25.05,0.47 -25.83,2.52 -0.78,2.05 -5.52,59.55 -5.52,59.55 0,0 -0.79,25.37 0,26.63 0.79,1.26 20.8,4.25 30.57,5.67 9.77,1.42 21.26,2.36 22.68,0.16 a 15.36,15.36 0 0 0 1.89,-5.05 c 0,0 20.48,-70 19.7,-73.26 -0.78,-3.26 -21,-15 -21,-15 z"
       style="fill:#ffffff;stroke:#263238;stroke-linecap:round;stroke-linejoin:round"
       id="path115" />
    <polygon
       points="407.71,178.61 407.23,173.88 395.26,172.46 393.68,175.93 394.94,187.59 "
       style="fill:#a61c3c;stroke:#263238;stroke-miterlimit:10"
       id="polygon117" />
    <polygon
       points="381.55,256.12 391.48,238 394.94,187.59 376.83,236.74 "
       style="fill:#a61c3c;stroke:#263238;stroke-miterlimit:10"
       id="polygon119" />
    <polygon
       points="396.83,179.71 399.2,164.59 390.85,169.63 "
       style="fill:#ffffff;stroke:#263238;stroke-linecap:round;stroke-linejoin:round"
       id="polygon121" />
    <polygon
       points="394.79,176.24 390.85,169.63 390.38,179.08 "
       style="fill:#ffffff;stroke:#263238;stroke-linecap:round;stroke-linejoin:round"
       id="polygon123" />
    <path
       d="m 394.61,153.47 c 0,0 2,26.61 2.77,27.1 0.77,0.49 16.9,-13.83 16.9,-13.83 l 1.93,-12.32 c 0,0 -3,2.72 -9,4 -6,1.28 -12.6,-4.95 -12.6,-4.95 z"
       style="fill:#ffffff;stroke:#263238;stroke-linecap:round;stroke-linejoin:round"
       id="path125" />
    <polygon
       points="406.29,176.4 403.29,170.57 396.83,179.71 "
       style="fill:#ffffff;stroke:#263238;stroke-linecap:round;stroke-linejoin:round"
       id="polygon127" />
    <polygon
       points="423.54,172.68 417.08,164.61 403.29,170.57 406.44,183.02 "
       style="fill:#ffffff;stroke:#263238;stroke-linecap:round;stroke-linejoin:round"
       id="polygon129" />
    <path
       d="m 421.1,194.2 -8,35.93 -49.47,5.51 v 8.66 c 0,0 57.35,5.36 59.4,5 a 7.72,7.72 0 0 0 5.67,-5 c 1.1,-3 15.91,-52.62 15.6,-56.71 -0.31,-4.09 -12.13,-8 -12.13,-8"
       style="fill:#ffffff;stroke:#263238;stroke-linecap:round;stroke-linejoin:round"
       id="path131" />
    <path
       d="m 294,175.77 c 0,0 0.31,-2.2 1.41,-3 1.1,-0.8 17.33,-9 17.33,-9 0,0 1.26,16.07 2.68,20 a 39,39 0 0 0 2.05,5 c 0,0 -13.23,-4.89 -17.64,-8 -4.41,-3.11 -5.83,-5 -5.83,-5 z"
       style="fill:#bdbdbd;stroke:#263238;stroke-linecap:round;stroke-linejoin:round"
       id="path133" />
    <path
       d="m 349.57,227 c 0,0 -6.93,-18.59 -9.77,-24.89 -2.84,-6.3 -5.2,-18.9 -5,-19.53 0.2,-0.63 -11.5,2.52 -23.32,-0.79 -11.82,-3.31 -17,-5 -17.48,-6 -0.48,-1 2.67,12.61 10.71,24.26 8.04,11.65 19.06,28.05 19.38,29.31 0.32,1.26 2.83,22.68 2.83,27.57 0,4.89 0.95,5.2 15.76,11.5 A 94.9,94.9 0 0 0 371,275.5 l -13.24,-32 -6.46,-12 z"
       style="fill:#ffffff;stroke:#263238;stroke-linecap:round;stroke-linejoin:round"
       id="path135" />
    <path
       d="m 325.94,225.24 c 0,0 6.77,6 10.87,8.19"
       style="fill:none;stroke:#263238;stroke-linecap:round;stroke-linejoin:round"
       id="path137" />
    <path
       d="m 328.93,231.7 c 0,0 6.46,2.84 9.77,4.41"
       style="fill:none;stroke:#263238;stroke-linecap:round;stroke-linejoin:round"
       id="path139" />
    <path
       d="m 363.59,235.64 c 0,0 -3.94,-1.58 -4.57,-2.84 -0.63,-1.26 -1.26,-3 -3,-3.78 a 63.79,63.79 0 0 0 -6.46,-2.05 l 1.73,4.57 c 0,0 -10.08,0.48 -11,0.32 -0.92,-0.16 -1.9,1.73 -0.79,2.83 a 4.67,4.67 0 0 0 2.68,1.26 36.61,36.61 0 0 1 4.56,4.89 c 1.11,1.42 1.11,1.1 6.62,2.52 a 32.47,32.47 0 0 0 10.24,0.94 z"
       style="fill:#ffffff;stroke:#263238;stroke-linecap:round;stroke-linejoin:round"
       id="path141" />
    <path
       d="m 389.14,132.66 c 0,0 3.29,18.12 4.18,20.78 0.89,2.66 7.79,10 12.08,10.41 4.29,0.41 11.19,-6.71 12.64,-11 1.45,-4.29 4.59,-20.61 4.59,-20.61 l -33.51,-2.06 z"
       style="fill:#ffffff;stroke:#263238;stroke-linecap:round;stroke-linejoin:round"
       id="path143" />
    <path
       d="m 387.3,132 3.52,12.91 c 2.24,0.84 0.15,-10.41 0.15,-10.41 l 28.39,1.41 v 8.64 l 5.1,-11.72 -35.34,-2.65 z"
       style="fill:#263238;stroke:#263238;stroke-miterlimit:10"
       id="path145" />
    <path
       d="m 403.31,149.84 a 8.52,8.52 0 0 0 3.62,1.26 5.37,5.37 0 0 0 3.53,-1.58"
       style="fill:none;stroke:#263238;stroke-linecap:round;stroke-linejoin:round"
       id="path147" />
    <path
       d="m 401.15,153.15 c 0,0 5.29,3.72 10.77,0.1"
       style="fill:none;stroke:#263238;stroke-linecap:round;stroke-linejoin:round"
       id="path149" />
    <path
       d="m 400.89,141.45 c 0.22,1.07 0,2 -0.57,2.13 -0.57,0.13 -1.14,-0.66 -1.36,-1.73 -0.22,-1.07 0,-2 0.56,-2.13 0.56,-0.13 1.14,0.67 1.37,1.73 z"
       style="fill:#263238"
       id="path151" />
    <path
       d="m 413.7,142.25 c -0.27,1.05 -0.93,1.79 -1.45,1.65 -0.52,-0.14 -0.73,-1.11 -0.45,-2.16 0.28,-1.05 0.93,-1.79 1.46,-1.65 0.53,0.14 0.74,1.1 0.44,2.16 z"
       style="fill:#263238"
       id="path153" />
    <path
       d="m 396.33,138.62 c 0,0 0.94,-2.45 5.4,-1.13"
       style="fill:none;stroke:#263238;stroke-linecap:round;stroke-linejoin:round"
       id="path155" />
    <path
       d="m 411,138 a 3.57,3.57 0 0 1 4.72,1.75"
       style="fill:none;stroke:#263238;stroke-linecap:round;stroke-linejoin:round"
       id="path157" />
    <path
       d="m 390.09,134.94 c 0,0 -6,-1.16 -4.57,4.33 a 10,10 0 0 0 6.27,6.9 z"
       style="fill:#ffffff;stroke:#263238;stroke-linecap:round;stroke-linejoin:round"
       id="path159" />
    <path
       d="m 421.52,135.93 c 0,0 3.79,-1.11 4,2.37 0.21,3.48 -6,8.18 -6,8.18 z"
       style="fill:#ffffff;stroke:#263238;stroke-linecap:round;stroke-linejoin:round"
       id="path161" />
    <path
       d="m 382,131.78 c 0,0 7.2,1 9,2.68 1.8,1.68 3.11,3.27 11.56,4.71 8.45,1.44 14.17,-1.11 15.93,-2.44 1.76,-1.33 9.57,-1.6 9.57,-1.6 a 51,51 0 0 1 -2.15,-8 c -0.83,-4.53 0.09,-14.9 -5.61,-19.52 -5.7,-4.62 -21.2,-6.47 -28.66,0.45 -5.85,5.43 -5.18,8.14 -5.06,13.3 0.12,5.16 -0.74,8.66 -1.81,9.2 -1.07,0.54 -2.77,1.22 -2.77,1.22 z"
       style="fill:#a61c3c;stroke:#263238;stroke-miterlimit:10"
       id="path163" />
    <path
       d="m 405,105.67 -0.47,12.19 c 0,0 -5.64,0.34 -5.84,3.4 -0.2,3.06 0.25,10 0.25,10"
       style="fill:none;stroke:#263238;stroke-linecap:round;stroke-linejoin:round"
       id="path165" />
    <path
       d="m 392.65,131.76 a 74,74 0 0 0 29,1.16"
       style="fill:none;stroke:#263238;stroke-linecap:round;stroke-linejoin:round"
       id="path167" />
    <path
       d="m 413.37,132.12 c 0,0 0.72,-10.22 0.32,-12.15 -0.4,-1.93 -3.95,-2 -3.95,-2 l -0.46,-11.82"
       style="fill:none;stroke:#263238;stroke-linecap:round;stroke-linejoin:round"
       id="path169" />
  </g>
  <g
     id="freepik--character-1--inject-2"
     transform="translate(-67.650002,-14.77)">
    <path
       d="m 167.79,178.35 c 0,0 -26.65,8.2 -27.39,10.62 -0.74,2.42 -7.08,37.09 -7.08,37.09 l -1.87,8 c 0,0 0.75,11.92 0.75,12.67 0,0.75 5.59,1.68 8.2,0.19 2.61,-1.49 8.38,-9 8.38,-9 l 4.48,-17.7 c 0,0 2.23,20.87 4.1,21.24 1.87,0.37 43.79,-2.42 46.77,-4.28 2.98,-1.86 7.45,-22.18 7.45,-22.18 0,0 17,6.71 26.09,6 9.09,-0.71 16.4,-6.33 16.77,-10.43 0.37,-4.1 -9.32,-12.49 -9.32,-12.49 l -13.6,1.68 c 0,0 -13,-8.38 -14.54,-9.69 -1.54,-1.31 -5.59,-5.4 -8,-7.64 -2.41,-2.24 -4.47,-3.54 -6.15,-3.91 -1.68,-0.37 -15.65,-1.87 -16.4,-1.87 -0.75,0 -18.64,1.7 -18.64,1.7 z"
       style="fill:#ffffff;stroke:#263238;stroke-linecap:round;stroke-linejoin:round"
       id="path172" />
    <line
       x1="153.25999"
       y1="220.28"
       x2="147.67"
       y2="203.32001"
       style="fill:none;stroke:#263238;stroke-linecap:round;stroke-linejoin:round"
       id="line174" />
    <path
       d="m 179.34,188.6 -24.78,6.15 c 0,0 7.08,17.89 9.69,29.44 2.61,11.55 1.86,16.4 1.86,16.4"
       style="fill:none;stroke:#263238;stroke-linecap:round;stroke-linejoin:round"
       id="path176" />
    <path
       d="m 211.58,215.06 c 0,0 -0.37,-5.4 -0.56,-10.81 -0.19,-5.41 -5.78,-15.65 -5.78,-15.65"
       style="fill:none;stroke:#263238;stroke-linecap:round;stroke-linejoin:round"
       id="path178" />
    <path
       d="m 166.49,199.41 a 1.5,1.5 0 1 1 -1.49,-1.49 1.49,1.49 0 0 1 1.49,1.49 z"
       style="fill:none;stroke:#263238;stroke-linecap:round;stroke-linejoin:round"
       id="path180" />
    <path
       d="m 173.19,227.36 a 1.49,1.49 0 1 1 -1.49,-1.49 1.49,1.49 0 0 1 1.49,1.49 z"
       style="fill:none;stroke:#263238;stroke-linecap:round;stroke-linejoin:round"
       id="path182" />
    <path
       d="m 201.7,224.75 a 1.49,1.49 0 1 1 -1.49,-1.49 1.49,1.49 0 0 1 1.49,1.49 z"
       style="fill:none;stroke:#263238;stroke-linecap:round;stroke-linejoin:round"
       id="path184" />
    <circle
       cx="198.35001"
       cy="193.45"
       r="1.49"
       style="fill:none;stroke:#263238;stroke-linecap:round;stroke-linejoin:round"
       id="circle186" />
    <path
       d="m 170.4,169 -4.85,1.5 0.19,8.75 c 0,0 8.76,6.9 12.11,8.39 3.35,1.49 10.44,-7.45 11.18,-8.95 0.74,-1.5 0.19,-7.45 0.19,-7.45 0,0 -2.05,-1.86 -8.76,-2.79 -6.71,-0.93 -10.06,0.55 -10.06,0.55 z"
       style="fill:#a61c3c;stroke:#263238;stroke-miterlimit:10"
       id="path188" />
    <path
       d="m 168.72,160.46 c 0,0 0.19,9.13 0.56,11.37 0.37,2.24 9.32,9.5 10.81,8.94 1.49,-0.56 7.27,-7.45 7.27,-7.45 l 0.93,-6.15 z"
       style="fill:#ffffff;stroke:#263238;stroke-linecap:round;stroke-linejoin:round"
       id="path190" />
    <path
       d="m 119.34,231.83 c 0,0 -3.73,3.36 -3.91,5.41 -0.18,2.05 5.59,10.8 7.08,11.92 1.49,1.12 7.27,0.56 11.55,-1.49 4.28,-2.05 5.41,-6.33 5,-11.74 -0.41,-5.41 -3,-6.71 -5.59,-7.64 -2.59,-0.93 -6,0.56 -7.08,0.93 -1.08,0.37 -7.05,2.61 -7.05,2.61 z"
       style="fill:#a61c3c;stroke:#263238;stroke-miterlimit:10"
       id="path192" />
    <path
       d="m 133.88,231.83 c 0,0 -6.71,-11.37 -8.2,-16.21 -1.49,-4.84 -2.43,-9.5 -2.43,-9.5 a 13.45,13.45 0 0 0 1.12,-6.53 c -0.18,-4.1 -2.79,-7.26 -4.1,-9.69 -1.31,-2.43 -0.56,-6 -2.23,-5.77 a 2.75,2.75 0 0 0 -2.43,3.54 c 0.38,2.05 1.12,5.59 1.12,5.59 0,0 -3.54,1.86 -4.1,3.54 -0.56,1.68 -1.86,9.69 -0.56,11.74 1.3,2.05 4.29,6.52 4.29,6.52 0,0 0.37,17.14 1.12,20.31 0.75,3.17 6.89,12.49 12.86,9.51 5.97,-2.98 3.54,-13.05 3.54,-13.05 z"
       style="fill:#ffffff;stroke:#263238;stroke-linecap:round;stroke-linejoin:round"
       id="path194" />
    <path
       d="m 112.44,176.42 c 0,0 -1.66,35.17 -1.06,36.84 0.6,1.67 1.66,1.66 2.85,0.23 1.19,-1.43 0.71,-35.52 1.18,-36.47 0.47,-0.95 3.93,-4 5.11,-8.08 1.18,-4.08 1,-9.75 -1.18,-13.43 -2.18,-3.68 -9.39,-3.92 -11.41,5 -2.02,8.92 4.51,15.91 4.51,15.91 z"
       style="fill:#bdbdbd;stroke:#263238;stroke-linecap:round;stroke-linejoin:round"
       id="path196" />
    <path
       d="m 117.2,194.48 c 0,0 -6.89,-1.54 -7.37,-0.24 -0.48,1.3 -0.36,2.38 0.36,3 0.72,0.62 6.18,1.42 7.48,0.83 1.3,-0.59 0.72,-2.87 -0.47,-3.59 z"
       style="fill:#ffffff;stroke:#263238;stroke-linecap:round;stroke-linejoin:round"
       id="path198" />
    <path
       d="m 111.26,197.81 a 1.88,1.88 0 0 0 -2.14,2 c 0,2.26 2.49,2.14 4.51,2.49 2.02,0.35 4.76,0.24 5,-1.42 a 3.62,3.62 0 0 0 -1,-2.85 z"
       style="fill:#ffffff;stroke:#263238;stroke-linecap:round;stroke-linejoin:round"
       id="path200" />
    <path
       d="m 109.71,201.14 a 7.59,7.59 0 0 0 -0.24,2.85 c 0.24,1.19 1.31,1.31 3.93,2 2.62,0.69 4,0 4.51,-1.07 a 3.42,3.42 0 0 0 -0.24,-2.5 c 0,0 -7.01,-0.57 -7.96,-1.28 z"
       style="fill:#ffffff;stroke:#263238;stroke-linecap:round;stroke-linejoin:round"
       id="path202" />
    <path
       d="m 110.19,204.94 a 4.45,4.45 0 0 0 -0.12,2.73 c 0.47,1.07 4.28,3.33 5.82,2.38 1.54,-0.95 -1.07,-3.45 -1.07,-3.45 z"
       style="fill:#ffffff;stroke:#263238;stroke-linecap:round;stroke-linejoin:round"
       id="path204" />
    <path
       d="m 246.88,217.74 c 4.92,-0.88 8.78,-7.55 9.13,-9.83 C 256.36,205.63 251.8,193 251.8,193 l -21.07,10.7 c 0,0 1.23,5.79 2.64,8.42"
       style="fill:#ffffff;stroke:#263238;stroke-linecap:round;stroke-linejoin:round"
       id="path206" />
    <path
       d="m 231.79,193.16 c 0,0 -5.1,2.81 -4.39,4.92 0.71,2.11 5.09,9.48 7.9,9.83 2.81,0.35 16,-6.67 17.55,-11.94 1.55,-5.27 -4,-9.3 -5.62,-11.23 -1.62,-1.93 -5.44,0 -7.37,1.75 -1.93,1.75 -8.07,6.67 -8.07,6.67 z"
       style="fill:#a61c3c;stroke:#263238;stroke-miterlimit:10"
       id="path208" />
    <path
       d="m 214.41,170.87 c 0,0 -5.62,-4.21 -7.9,-5.44 -2.28,-1.23 -4.74,-6.5 -4,-8.25 0.74,-1.75 1.58,-2.28 2.63,0 1.05,2.28 2.81,4.39 4,4.74 1.19,0.35 3.16,-1.23 3.16,-1.23 0,0 -0.88,-5.27 -2.28,-6.15 -1.4,-0.88 -3.34,0 -4.39,0.18 -1.05,0.18 -2.63,-1.58 -1.23,-2.46 1.4,-0.88 3.51,-2.46 5.62,-2.28 2.11,0.18 4.91,3.86 4.91,3.86 0,0 -2.28,-4.74 -2.45,-7 a 19.85,19.85 0 0 1 0,-3.69 c 0,0 -1.41,-2.28 0,-3.33 1.41,-1.05 5.44,3.33 5.44,3.33 0,0 1.4,-1.75 3,1.23 1.6,2.98 4,13 4.74,17.38 a 34.06,34.06 0 0 1 -0.17,9.48 c 0,0 18.06,14.76 19.51,16.66 1.45,1.9 0.7,3.68 -1,6 -1.7,2.32 -10.71,5.26 -10.71,5.26 l -16,-25.63 z"
       style="fill:#ffffff;stroke:#263238;stroke-linecap:round;stroke-linejoin:round"
       id="path210" />
    <path
       d="m 221.08,172.27 c 0,0 -3.16,-1.05 -2.28,-6 a 34,34 0 0 1 2.28,-7.9"
       style="fill:none;stroke:#263238;stroke-linecap:round;stroke-linejoin:round"
       id="path212" />
    <line
       x1="217.92"
       y1="143.13"
       x2="220.89999"
       y2="153.84"
       style="fill:none;stroke:#263238;stroke-linecap:round;stroke-linejoin:round"
       id="line214" />
    <path
       d="m 212.48,143.13 c 0,0 2.28,3 2.63,3.69 0.35,0.69 2.46,7.55 2.46,7.55"
       style="fill:none;stroke:#263238;stroke-linecap:round;stroke-linejoin:round"
       id="path216" />
    <polygon
       points="205.11,245.81 204.13,237.24 157.35,241.52 157.31,248.63 "
       style="fill:#263238;stroke:#263238;stroke-miterlimit:10"
       id="polygon218" />
    <path
       d="m 153.4,415.5 c 0,0 -3,7 -6.74,13.91 -3.74,6.91 -5.64,13 -4.34,14.12 1.3,1.12 7.6,2.61 12.17,-2.39 4.57,-5 3.91,-9.12 5.43,-13.25 1.52,-4.13 2.82,-13.89 2.82,-13.89 z"
       style="fill:#ffffff;stroke:#263238;stroke-linecap:round;stroke-linejoin:round"
       id="path220" />
    <path
       d="m 150.58,438.1 c -4.6,0.66 -5.6,-3 -5.81,-4.87 -2.42,5.25 -3.51,9.42 -2.45,10.3 1.3,1.09 7.6,2.61 12.17,-2.39 4.57,-5 3.91,-9.12 5.43,-13.25 0,-0.05 0,-0.1 0.05,-0.14 -1.48,3.14 -4.53,9.66 -9.39,10.35 z"
       style="fill:#263238;stroke:#263238;stroke-miterlimit:10"
       id="path222" />
    <path
       d="m 201.64,413.76 v 15.65 c 0,3.26 -0.22,5.43 2.82,6.3 3.04,0.87 6.09,0.65 10.43,1.09 4.34,0.44 8.26,2.6 12.39,2.17 4.13,-0.43 11.51,-2 11.08,-5 -0.43,-3 -9.13,-3 -14.34,-6.3 -5.21,-3.3 -11.08,-9.34 -11.08,-9.34 0,0 -0.44,-5 -0.44,-5.87 0,-0.87 -10.86,1.3 -10.86,1.3 z"
       style="fill:#ffffff;stroke:#263238;stroke-linecap:round;stroke-linejoin:round"
       id="path224" />
    <path
       d="m 227,429.11 -2.79,3.34 c 0,0 -8,0.44 -13.47,-2.17 l -9.12,-4.4 v 3.53 c 0,3.26 -0.22,5.43 2.82,6.3 3.04,0.87 6.09,0.65 10.43,1.09 4.34,0.44 8.26,2.6 12.39,2.17 4.13,-0.43 11.51,-2 11.08,-5 C 238,431.46 232,431 227,429.11 Z"
       style="fill:#263238;stroke:#263238;stroke-miterlimit:10"
       id="path226" />
    <polygon
       points="164.26,418.54 182.52,331.41 187.3,331.63 198.81,415.94 215.76,415.29 218.15,331.85 218.8,322.94 150.58,325.33 151.66,336.63 150.58,417.68 "
       style="fill:#a61c3c;stroke:#263238;stroke-miterlimit:10"
       id="polygon228" />
    <path
       d="m 157.31,248.63 c 0,0 -8.25,13.47 -11.08,28.68 -2.83,15.21 -0.22,63 -0.22,63 l 86.7,-2.39 c 0,0 -2.61,-56.92 -14.99,-76.92 -12.38,-20 -12.61,-15.21 -12.61,-15.21 z"
       style="fill:#263238;stroke:#263238;stroke-miterlimit:10"
       id="path230" />
    <path
       d="m 156.61,157.11 c 0,0 -3,5.4 0.37,9.5 3.37,4.1 11.74,-0.56 13.23,-5.22 1.49,-4.66 -2.42,-9.87 -5.21,-9.87 -2.79,0 -8,3.73 -8.39,5.59 z"
       style="fill:#263238;stroke:#263238;stroke-miterlimit:10"
       id="path232" />
    <path
       d="m 193.51,138.47 a 43.9,43.9 0 0 1 2.79,7.64 105.51,105.51 0 0 1 1.7,14.17 c 0.18,4.1 0.18,6.52 -1.31,7.64 -1.49,1.12 -7.26,2.61 -10.43,2.23 -3.17,-0.38 -10.25,-2.05 -12.86,-3.72 -2.61,-1.67 -4.66,-2.43 -5.22,-3.73 a 17.17,17.17 0 0 0 -1.86,-3 c 0,0 -4.1,0.93 -5.4,-0.56 -1.3,-1.49 -1.5,-4.85 -1.5,-4.85 a 210.11,210.11 0 0 1 19,-11.74 c 10.58,-5.75 15.09,-4.08 15.09,-4.08 z"
       style="fill:#ffffff;stroke:#263238;stroke-linecap:round;stroke-linejoin:round"
       id="path234" />
    <path
       d="m 190.52,143.51 c 0,0 1.12,3.54 2,4.28 0.88,0.74 4.29,1.68 3.36,3.54 a 4.38,4.38 0 0 1 -3.36,2"
       style="fill:none;stroke:#263238;stroke-linecap:round;stroke-linejoin:round"
       id="path236" />
    <path
       d="m 184.19,156.36 a 9.34,9.34 0 0 0 9.69,0.93"
       style="fill:none;stroke:#263238;stroke-linecap:round;stroke-linejoin:round"
       id="path238" />
    <path
       d="m 180.28,149.65 c 0,0 4.09,0.56 5.59,-1.86"
       style="fill:none;stroke:#263238;stroke-linecap:round;stroke-linejoin:round"
       id="path240" />
    <path
       d="m 191.64,146.3 c 0,0 3.17,0.19 3.92,-1.68"
       style="fill:none;stroke:#263238;stroke-linecap:round;stroke-linejoin:round"
       id="path242" />
    <path
       d="m 177.29,145.74 a 10.42,10.42 0 0 1 5.78,-4.47"
       style="fill:none;stroke:#263238;stroke-linecap:round;stroke-linejoin:round"
       id="path244" />
    <path
       d="m 189.41,139.41 a 3.69,3.69 0 0 1 5,0.93"
       style="fill:none;stroke:#263238;stroke-linecap:round;stroke-linejoin:round"
       id="path246" />
    <path
       d="m 187.17,130.09 c 0,0 3,-2.42 3.54,-9 0.54,-6.58 -6.34,-12.67 -20.31,-11.36 -13.97,1.31 -26.09,13.09 -29.4,19.27 -3.31,6.18 -2.8,13 4.66,15.28 7.46,2.28 7.26,3.36 7.26,3.36 0,0 12.67,-7.09 16.21,-9.14 3.54,-2.05 18.04,-8.41 18.04,-8.41 z"
       style="fill:#ffffff;stroke:#263238;stroke-linecap:round;stroke-linejoin:round"
       id="path248" />
    <path
       d="m 156.61,157.11 c 0,0 25.53,-17 36.9,-18.64 l -6.34,-8.38 c 0,0 -10.06,-0.37 -21.24,6.71 -11.18,7.08 -13.05,10.81 -13.05,10.81 z"
       style="fill:#a61c3c;stroke:#263238;stroke-miterlimit:10"
       id="path250" />
  </g>
</svg>
