<?xml version="1.0" encoding="UTF-8" standalone="no"?>
<svg
   xmlns:dc="http://purl.org/dc/elements/1.1/"
   xmlns:cc="http://creativecommons.org/ns#"
   xmlns:rdf="http://www.w3.org/1999/02/22-rdf-syntax-ns#"
   xmlns:svg="http://www.w3.org/2000/svg"
   xmlns="http://www.w3.org/2000/svg"
   xmlns:sodipodi="http://sodipodi.sourceforge.net/DTD/sodipodi-0.dtd"
   xmlns:inkscape="http://www.inkscape.org/namespaces/inkscape"
   width="132.29166mm"
   height="131.95096mm"
   viewBox="0 0 132.29166 131.95096"
   version="1.1"
   id="svg983"
   inkscape:version="1.0 (4035a4fb49, 2020-05-01)"
   sodipodi:docname="kpl-logo.svg"
   inkscape:export-filename="C:\Users\bsere\Downloads\kpl-logo.png"
   inkscape:export-xdpi="96.055382"
   inkscape:export-ydpi="96.055382">
  <defs
     id="defs977" />
  <sodipodi:namedview
     id="base"
     pagecolor="#ffffff"
     bordercolor="#666666"
     borderopacity="1.0"
     inkscape:pageopacity="0.0"
     inkscape:pageshadow="2"
     inkscape:zoom="0.35"
     inkscape:cx="187.46105"
     inkscape:cy="95.777795"
     inkscape:document-units="mm"
     inkscape:current-layer="layer1"
     inkscape:document-rotation="0"
     showgrid="false"
     fit-margin-top="0"
     fit-margin-left="0"
     fit-margin-right="0"
     fit-margin-bottom="0"
     inkscape:window-width="1920"
     inkscape:window-height="1057"
     inkscape:window-x="-8"
     inkscape:window-y="-8"
     inkscape:window-maximized="1" />
  <metadata
     id="metadata980">
    <rdf:RDF>
      <cc:Work
         rdf:about="">
        <dc:format>image/svg+xml</dc:format>
        <dc:type
           rdf:resource="http://purl.org/dc/dcmitype/StillImage" />
        <dc:title />
      </cc:Work>
    </rdf:RDF>
  </metadata>
  <g
     inkscape:label="Calque 1"
     inkscape:groupmode="layer"
     id="layer1"
     transform="translate(-56.234263,-122.82546)">
    <path
       style="stroke-width:0.668885;fill:#ffffff;fill-opacity:1"
       d="m 170.46109,177.0389 c -6.22063,-12.44127 -19.06323,-21.87256 -32.64163,-24.74875 -14.11345,-2.9431 -28.49451,1.67219 -38.126455,12.44127 -8.561732,9.56506 -12.575045,22.80899 -9.297507,35.31715 3.411316,13.04325 16.053252,24.14674 30.032962,22.87588 7.09018,-0.6689 13.57837,-3.94644 17.92612,-9.63195 4.1471,-5.41798 5.08352,-12.70884 3.14376,-19.19703 -1.93976,-6.48817 -7.49151,-11.90615 -14.18035,-13.17704 -3.34444,-0.60198 -6.62198,-0.33444 -9.83263,0.86955 -2.94311,1.13711 -5.08353,3.21065 -6.75575,5.88619 -1.33777,2.14044 1.204,4.1471 3.21066,3.21065 4.41464,-2.14042 11.37106,-1.47154 14.38103,2.80932 1.60533,2.27422 1.87287,4.68221 1.67222,7.29085 -0.20073,2.20734 -1.73911,3.94642 -3.67887,5.68553 -3.27755,2.94311 -9.02995,3.14376 -12.70882,1.33778 -5.08354,-2.47488 -8.36108,-7.29085 -9.69885,-12.57505 -1.1371,-4.34775 -0.20065,-10.16707 1.67222,-14.24725 2.54176,-5.35109 6.01997,-9.16375 10.56838,-12.03994 2.87621,-1.806 3.94644,-2.14044 7.02331,-2.9431 1.93976,-0.46823 1.80597,-0.40133 3.4113,-0.53512 1.806,-0.13373 3.61198,-0.067 5.41798,0.067 0.66888,0.067 1.87287,0.26757 3.4113,0.60201 1.53847,0.33443 3.01,0.80266 4.41465,1.33777 1.93979,0.66888 5.48488,2.67554 7.89287,4.41465 9.36437,6.55506 13.84591,17.59168 13.51147,28.69517 0,0.73577 -0.067,1.40467 -0.13373,2.14044 0,0.067 -0.13374,1.40465 -0.13374,1.40465 -0.20072,1.27089 -0.46822,2.54177 -0.73576,3.74577 -0.33444,1.40464 -0.73577,2.80931 -1.204,4.14709 -0.20073,0.66888 -0.46822,1.33776 -0.73576,2.07353 -0.13374,0.33446 -0.26758,0.6689 -0.40134,0.93645 0,0 -0.067,0.20072 -0.26757,0.66887 -2.67553,5.88621 -5.41796,9.69885 -9.69882,13.84594 -3.81266,3.67888 -8.69552,6.68885 -13.57839,8.36107 -6.28752,2.14044 -10.83595,2.54177 -17.65858,2.07355 -0.66888,-0.067 -1.40465,-0.13374 -2.07352,-0.20073 0.86953,0.067 -1.33778,-0.20073 -1.33778,-0.20073 -1.53844,-0.26755 -3.00999,-0.60201 -4.48154,-1.00334 -2.80931,-0.73577 -6.82263,-2.20731 -8.42795,-2.87619 -6.153749,-2.80932 -10.568393,-5.88621 -14.983036,-10.23396 -9.565068,-9.3644 -14.782374,-23.61165 -14.514821,-37.52446 0.267556,-11.30417 5.55175,-23.14345 13.110159,-31.77206 16.253918,-18.59502 42.340438,-25.21698 65.082558,-14.04659 16.78902,8.29417 28.56142,23.14342 36.25358,39.93244 0.7358,1.60533 3.14379,0.73577 3.21065,-0.86955 0.40134,-27.55807 -24.14675,-49.29685 -48.89553,-56.32014 -27.62496,-7.82597 -55.918812,5.61864 -71.972067,28.29384 -17.725463,24.94943 -14.314147,60.40037 6.755744,82.20602 19.063237,19.73212 51.905503,25.88588 75.450293,10.76907 22.60831,-14.11348 32.70849,-45.01599 20.60166,-69.29654 z"
       id="path60" />
  </g>
</svg>
