<?xml version="1.0" encoding="UTF-8" standalone="no"?>
<svg
   viewBox="0 0 468.80688 460.49915"
   version="1.1"
   id="svg399"
   sodipodi:docname="QR Code-bro.svg"
   width="468.80688"
   height="460.49915"
   inkscape:version="1.1 (c68e22c387, 2021-05-23)"
   xmlns:inkscape="http://www.inkscape.org/namespaces/inkscape"
   xmlns:sodipodi="http://sodipodi.sourceforge.net/DTD/sodipodi-0.dtd"
   xmlns="http://www.w3.org/2000/svg"
   xmlns:svg="http://www.w3.org/2000/svg">
  <defs
     id="defs403" />
  <sodipodi:namedview
     id="namedview401"
     pagecolor="#ffffff"
     bordercolor="#666666"
     borderopacity="1.0"
     inkscape:pageshadow="2"
     inkscape:pageopacity="0.0"
     inkscape:pagecheckerboard="0"
     showgrid="false"
     inkscape:zoom="1.244"
     inkscape:cx="235.12862"
     inkscape:cy="230.7074"
     inkscape:window-width="1368"
     inkscape:window-height="850"
     inkscape:window-x="-6"
     inkscape:window-y="-6"
     inkscape:window-maximized="1"
     inkscape:current-layer="svg399" />
  <g
     id="freepik--background-simple--inject-2"
     transform="translate(-14.151118,-19.131892)">
    <path
       d="m 459.24,137.52 c -2.41,-18.76 -7.11,-36.75 -17,-53.14 C 424,53.93 391,35.53 357.63,26.2 c -28,-7.82 -58.16,-10.08 -86.09,-2 -30.66,8.87 -56.39,29.29 -84,45.3 a 437.69,437.69 0 0 1 -63.1,29.66 c -17.58,6.73 -39.92,10.5 -54.37,23.28 A 144.93,144.93 0 0 0 46.72,149.09 C 19.74,188.4 11,238.62 15.12,285.5 c 2.91,32.66 11.89,65.71 32,91.58 28.27,36.31 76.8,54.2 122.59,49.69 52,-5.12 101.25,-36.19 152.93,-28.73 25.73,3.71 50.35,16.93 76.23,14.47 25.51,-2.42 47.34,-20 62.73,-40.45 12.34,-16.43 20.55,-36.3 21.31,-57 0.83,-22.39 -9.31,-42.81 -14.4,-64.19 -8.85,-37.37 -4.42,-75.6 -9.27,-113.35 z"
       style="fill:#439a86"
       id="path2" />
    <path
       d="m 459.24,137.52 c -2.41,-18.76 -7.11,-36.75 -17,-53.14 C 424,53.93 391,35.53 357.63,26.2 c -28,-7.82 -58.16,-10.08 -86.09,-2 -30.66,8.87 -56.39,29.29 -84,45.3 a 437.69,437.69 0 0 1 -63.1,29.66 c -17.58,6.73 -39.92,10.5 -54.37,23.28 A 144.93,144.93 0 0 0 46.72,149.09 C 19.74,188.4 11,238.62 15.12,285.5 c 2.91,32.66 11.89,65.71 32,91.58 28.27,36.31 76.8,54.2 122.59,49.69 52,-5.12 101.25,-36.19 152.93,-28.73 25.73,3.71 50.35,16.93 76.23,14.47 25.51,-2.42 47.34,-20 62.73,-40.45 12.34,-16.43 20.55,-36.3 21.31,-57 0.83,-22.39 -9.31,-42.81 -14.4,-64.19 -8.85,-37.37 -4.42,-75.6 -9.27,-113.35 z"
       style="opacity:0.7;fill:#ffffff"
       id="path4" />
  </g>
  <g
     id="freepik--Furniture--inject-2"
     transform="translate(-14.151118,-19.131892)">
    <rect
       x="334.92999"
       y="309.73999"
       width="145.94"
       height="5.5"
       transform="rotate(180,407.9,312.49)"
       style="fill:none;stroke:#263238;stroke-linecap:round;stroke-linejoin:round"
       id="rect7" />
    <rect
       x="341.70001"
       y="315.39999"
       width="132.39999"
       height="148.60001"
       transform="rotate(180,407.9,389.7)"
       style="fill:none;stroke:#263238;stroke-linecap:round;stroke-linejoin:round"
       id="rect9" />
    <rect
       x="346.45999"
       y="322.31"
       width="123.03"
       height="32.240002"
       transform="rotate(180,407.98,338.435)"
       style="fill:none;stroke:#263238;stroke-linecap:round;stroke-linejoin:round"
       id="rect11" />
    <rect
       x="402.04001"
       y="335.47"
       width="12.3"
       height="5.9400001"
       transform="rotate(180,408.19,338.435)"
       style="fill:#263238;stroke:#263238;stroke-linecap:round;stroke-linejoin:round"
       id="rect13" />
    <rect
       x="346.45999"
       y="363.04001"
       width="123.03"
       height="32.240002"
       transform="rotate(180,407.98,379.165)"
       style="fill:none;stroke:#263238;stroke-linecap:round;stroke-linejoin:round"
       id="rect15" />
    <rect
       x="402.04001"
       y="376.19"
       width="12.3"
       height="5.9400001"
       transform="rotate(180,408.19,379.165)"
       style="fill:#263238;stroke:#263238;stroke-linecap:round;stroke-linejoin:round"
       id="rect17" />
    <rect
       x="346.45999"
       y="403.95999"
       width="123.03"
       height="32.240002"
       transform="rotate(180,407.98,420.08)"
       style="fill:none;stroke:#263238;stroke-linecap:round;stroke-linejoin:round"
       id="rect19" />
    <rect
       x="402.04001"
       y="417.10999"
       width="12.3"
       height="5.9400001"
       transform="rotate(180,408.19,420.08)"
       style="fill:#263238;stroke:#263238;stroke-linecap:round;stroke-linejoin:round"
       id="rect21" />
    <path
       d="m 414,244.73 c 1.49,0.65 5.14,0.57 5.14,0.57 0,0 -0.78,-2.39 -0.85,-2.54 -0.8,-1.67 -3.33,-4.44 -5.39,-4.16 a 2.47,2.47 0 0 0 -2,3.09 5.2,5.2 0 0 0 3.1,3.04 z"
       style="fill:#263238"
       id="path23" />
    <path
       d="m 450.87,245.53 c 0,0 0.66,-2.42 0.68,-2.58 0.26,-1.84 -0.33,-5.54 -2.2,-6.45 a 2.46,2.46 0 0 0 -3.35,1.5 5.18,5.18 0 0 0 0.89,4.24 c 0.89,1.34 3.97,3.29 3.98,3.29 z"
       style="fill:#263238"
       id="path25" />
    <path
       d="m 461.76,232.31 c -2.07,-0.22 -4.53,2.61 -5.28,4.3 -0.07,0.15 -0.82,2.56 -0.78,2.56 v 0 c -0.39,0.44 -0.81,0.92 -1.25,1.46 -0.81,1 -1.71,2.12 -2.61,3.42 a 42.76,42.76 0 0 0 -2.71,4.31 31.47,31.47 0 0 0 -2.32,5.22 c 0,0 0,0 0,0.06 0,-0.61 0,-2.31 0,-2.44 -0.24,-1.84 -1.78,-5.26 -3.83,-5.64 a 2.46,2.46 0 0 0 -2.83,2.32 5.16,5.16 0 0 0 2,3.85 c 1.17,1 4.4,2.05 4.66,2.13 a 45.53,45.53 0 0 0 -1.37,5.64 c -0.19,1.12 -0.36,2.24 -0.51,3.37 0,-0.52 0,-1 0,-1.06 -0.24,-1.84 -1.78,-5.26 -3.82,-5.63 a 2.45,2.45 0 0 0 -2.84,2.31 5.15,5.15 0 0 0 2,3.85 16.24,16.24 0 0 0 4.52,2.08 c -0.05,0.44 -0.11,0.87 -0.16,1.31 -0.25,2.08 -0.49,4.17 -0.79,6.2 -0.1,0.72 -0.23,1.42 -0.36,2.13 0,-0.47 0,-0.87 0,-0.93 -0.24,-1.84 -1.78,-5.25 -3.83,-5.63 a 2.45,2.45 0 0 0 -2.83,2.31 5.15,5.15 0 0 0 2,3.85 15.44,15.44 0 0 0 4.39,2 c -0.15,0.72 -0.3,1.44 -0.48,2.13 -0.14,0.46 -0.23,0.92 -0.39,1.38 -0.16,0.46 -0.3,0.92 -0.44,1.37 -0.31,0.86 -0.63,1.75 -1,2.58 -0.22,0.57 -0.44,1.12 -0.66,1.67 0.11,-0.71 0.3,-2.11 0.3,-2.23 a 9.57,9.57 0 0 0 -1.28,-4.65 2.55,2.55 0 0 0 -3,-2.63 c -2,0.54 -3.28,4.06 -3.38,5.92 0,0.11 0.07,1.3 0.13,2.05 -0.11,-0.43 -0.2,-0.86 -0.31,-1.31 -0.21,-0.89 -0.45,-1.77 -0.7,-2.71 -0.13,-0.46 -0.27,-0.92 -0.41,-1.38 -0.14,-0.46 -0.33,-0.93 -0.49,-1.4 -0.39,-1.09 -0.85,-2.17 -1.33,-3.25 a 16.24,16.24 0 0 0 4.63,-1.74 5.13,5.13 0 0 0 2.26,-3.69 2.46,2.46 0 0 0 -2.66,-2.52 c -2.07,0.23 -3.86,3.52 -4.23,5.34 0,0.11 -0.15,1.45 -0.2,2.18 -0.3,-0.65 -0.59,-1.29 -0.91,-1.94 -0.92,-1.86 -1.92,-3.71 -2.9,-5.57 -0.3,-0.56 -0.59,-1.13 -0.89,-1.7 0.28,-0.07 3.57,-0.83 4.8,-1.78 a 5.13,5.13 0 0 0 2.26,-3.69 2.46,2.46 0 0 0 -2.66,-2.52 c -2.06,0.23 -3.86,3.52 -4.23,5.34 0,0.13 -0.2,2.05 -0.22,2.54 -0.65,-1.25 -1.29,-2.5 -1.87,-3.77 a 42.82,42.82 0 0 1 -2,-5.24 c 0.13,0 3.57,-0.81 4.83,-1.78 a 5.13,5.13 0 0 0 2.26,-3.69 2.46,2.46 0 0 0 -2.66,-2.52 c -2.06,0.23 -3.86,3.52 -4.23,5.33 0,0.12 -0.16,1.59 -0.21,2.29 h -0.11 a 30.93,30.93 0 0 1 -1.06,-5.55 c -0.12,-1 -0.17,-2 -0.2,-3 a 16.54,16.54 0 0 0 4.88,-1.22 5.15,5.15 0 0 0 2.65,-3.43 2.46,2.46 0 0 0 -2.37,-2.79 c -2.08,0 -4.22,3.07 -4.79,4.84 0,0.09 -0.24,1.1 -0.38,1.84 0,-0.43 0,-0.88 0,-1.3 0,-1.58 0.1,-3 0.2,-4.29 0.06,-0.72 0.13,-1.38 0.2,-2 a 16.47,16.47 0 0 0 3.75,-3.32 5.14,5.14 0 0 0 0.77,-4.26 2.47,2.47 0 0 0 -3.39,-1.39 c -1.84,1 -2.33,4.67 -2,6.5 0,0.16 0.72,2.59 0.75,2.57 v 0 c -0.08,0.59 -0.16,1.22 -0.24,1.91 -0.12,1.27 -0.25,2.71 -0.29,4.29 a 44.58,44.58 0 0 0 0.12,5.1 32.17,32.17 0 0 0 0.94,5.62 v 0.07 c -0.33,-0.52 -1.29,-1.92 -1.38,-2 -1.21,-1.4 -4.39,-3.4 -6.3,-2.59 a 2.46,2.46 0 0 0 -1.09,3.49 5.15,5.15 0 0 0 3.77,2.13 c 1.55,0.22 4.8,-0.72 5.06,-0.8 a 44.47,44.47 0 0 0 2,5.47 c 0.45,1 0.93,2.06 1.43,3.09 l -0.61,-0.87 c -1.22,-1.41 -4.39,-3.4 -6.3,-2.59 a 2.45,2.45 0 0 0 -1.09,3.49 5.15,5.15 0 0 0 3.77,2.13 16.35,16.35 0 0 0 4.92,-0.76 c 0.2,0.39 0.39,0.79 0.58,1.18 1,1.88 1.89,3.75 2.77,5.61 0.31,0.65 0.59,1.31 0.87,2 -0.26,-0.39 -0.49,-0.71 -0.53,-0.76 -1.21,-1.4 -4.39,-3.4 -6.3,-2.59 a 2.47,2.47 0 0 0 -1.09,3.5 5.17,5.17 0 0 0 3.77,2.12 15.93,15.93 0 0 0 4.79,-0.72 c 0.27,0.68 0.54,1.36 0.77,2 0.14,0.46 0.32,0.9 0.44,1.37 l 0.39,1.38 c 0.21,0.89 0.43,1.8 0.62,2.68 0.13,0.6 0.25,1.18 0.37,1.76 -0.3,-0.65 -0.91,-1.93 -1,-2 -1,-1.57 -3.82,-4 -5.83,-3.51 a 2.47,2.47 0 0 0 -1.61,3.29 5.16,5.16 0 0 0 3.41,2.67 16.81,16.81 0 0 0 5.09,0 c 0.2,1 0.38,1.91 0.53,2.8 0.34,1.95 0.6,3.7 0.8,5.19 h -8.19 v 17.22 h 21.54 v -17.25 h -8.33 c 0.54,-1.2 1.13,-2.56 1.75,-4.07 0.38,-0.93 0.77,-1.93 1.16,-2.95 0.39,0.08 3.59,0.73 5.08,0.39 a 5.12,5.12 0 0 0 3.59,-2.4 2.45,2.45 0 0 0 -1.35,-3.4 c -2,-0.67 -5,1.57 -6.08,3.07 -0.07,0.08 -0.67,1.12 -1,1.78 0.16,-0.42 0.32,-0.83 0.47,-1.26 0.32,-0.86 0.61,-1.73 0.92,-2.65 0.14,-0.46 0.27,-0.92 0.41,-1.38 0.14,-0.46 0.25,-1 0.37,-1.44 0.27,-1.13 0.49,-2.28 0.68,-3.45 a 15.86,15.86 0 0 0 4.82,1.11 5.1,5.1 0 0 0 3.92,-1.83 2.46,2.46 0 0 0 -0.82,-3.57 c -1.85,-0.95 -5.16,0.81 -6.48,2.12 -0.08,0.08 -0.92,1.12 -1.37,1.71 0.11,-0.71 0.22,-1.41 0.31,-2.12 0.26,-2.06 0.45,-4.16 0.66,-6.24 0.06,-0.64 0.13,-1.28 0.2,-1.92 0.26,0.1 3.43,1.28 5,1.17 1.38,-0.1 3.12,-0.6 3.92,-1.83 a 2.47,2.47 0 0 0 -0.83,-3.57 c -1.84,-1 -5.16,0.8 -6.47,2.11 -0.1,0.1 -1.31,1.61 -1.59,2 0.15,-1.41 0.31,-2.81 0.52,-4.18 a 43.42,43.42 0 0 1 1.2,-5.49 c 0.12,0 3.42,1.29 5,1.18 a 5.14,5.14 0 0 0 3.92,-1.83 2.46,2.46 0 0 0 -0.82,-3.57 c -1.85,-0.95 -5.16,0.8 -6.48,2.11 -0.09,0.09 -1,1.24 -1.43,1.79 h -0.1 a 31.55,31.55 0 0 1 2.18,-5.22 c 0.47,-0.92 1,-1.78 1.48,-2.6 a 16.72,16.72 0 0 0 4.75,1.67 5.17,5.17 0 0 0 4.1,-1.4 2.46,2.46 0 0 0 -0.43,-3.63 c -1.74,-1.15 -5.22,0.23 -6.67,1.39 -0.08,0.06 -0.81,0.79 -1.34,1.33 0.24,-0.37 0.47,-0.76 0.71,-1.1 0.86,-1.31 1.74,-2.46 2.53,-3.47 0.45,-0.57 0.87,-1.07 1.26,-1.54 a 16.85,16.85 0 0 0 5,-0.71 5.12,5.12 0 0 0 3,-3.12 2.45,2.45 0 0 0 -2.3,-3.07 z m -22.89,55.53 c -0.74,1.72 -1.46,3.25 -2.08,4.55 h -2.19 c -0.23,-1.54 -0.54,-3.37 -1,-5.42 -0.19,-1 -0.42,-2 -0.66,-3.09 a 28.66,28.66 0 0 0 2.84,-1.34 18,18 0 0 0 4.15,2.67 c -0.32,0.91 -0.69,1.79 -1.06,2.63 z"
       style="fill:#263238"
       id="path27" />
  </g>
  <g
     id="freepik--Plant--inject-2"
     transform="translate(-14.151118,-19.131892)">
    <line
       x1="28.469999"
       y1="316.95999"
       x2="40.07"
       y2="428.09"
       style="fill:none;stroke:#263238;stroke-width:2px;stroke-miterlimit:10"
       id="line30" />
    <line
       x1="38.200001"
       y1="406.82001"
       x2="32.939999"
       y2="401.26999"
       style="fill:none;stroke:#263238;stroke-width:2px;stroke-miterlimit:10"
       id="line32" />
    <path
       d="m 34.54,402.93 a 6,6 0 0 0 -2.09,-4.46 c -1.35,-1.2 -8.46,-4.19 -9.13,-1.69 -0.73,2.72 6.54,8.06 11.22,6.15 z"
       style="fill:#439a86;stroke:#263238;stroke-miterlimit:10"
       id="path34" />
    <line
       x1="34.540001"
       y1="402.92999"
       x2="27.780001"
       y2="398.72"
       style="fill:none;stroke:#263238;stroke-width:0.5px;stroke-miterlimit:10"
       id="line36" />
    <line
       x1="39.52"
       y1="419.45999"
       x2="34.259998"
       y2="413.91"
       style="fill:none;stroke:#263238;stroke-width:2px;stroke-miterlimit:10"
       id="line38" />
    <path
       d="m 35.86,415.57 a 6,6 0 0 0 -2.09,-4.46 c -1.35,-1.2 -8.46,-4.19 -9.13,-1.69 -0.73,2.72 6.54,8.06 11.22,6.15 z"
       style="fill:#439a86;stroke:#263238;stroke-miterlimit:10"
       id="path40" />
    <line
       x1="35.860001"
       y1="415.57001"
       x2="29.1"
       y2="411.35999"
       style="fill:none;stroke:#263238;stroke-width:0.5px;stroke-miterlimit:10"
       id="line42" />
    <line
       x1="34.98"
       y1="375.98001"
       x2="29.719999"
       y2="370.42999"
       style="fill:none;stroke:#263238;stroke-width:2px;stroke-miterlimit:10"
       id="line44" />
    <path
       d="m 31.32,372.09 a 6,6 0 0 0 -2.09,-4.46 c -1.35,-1.21 -8.46,-4.19 -9.13,-1.69 -0.73,2.72 6.54,8.06 11.22,6.15 z"
       style="fill:#439a86;stroke:#263238;stroke-miterlimit:10"
       id="path46" />
    <line
       x1="31.32"
       y1="372.09"
       x2="24.559999"
       y2="367.88"
       style="fill:none;stroke:#263238;stroke-width:0.5px;stroke-miterlimit:10"
       id="line48" />
    <line
       x1="36.299999"
       y1="388.62"
       x2="31.040001"
       y2="383.07001"
       style="fill:none;stroke:#263238;stroke-width:2px;stroke-miterlimit:10"
       id="line50" />
    <path
       d="m 32.64,384.73 a 6,6 0 0 0 -2.09,-4.46 c -1.35,-1.21 -8.46,-4.19 -9.13,-1.69 -0.73,2.72 6.58,8.06 11.22,6.15 z"
       style="fill:#439a86;stroke:#263238;stroke-miterlimit:10"
       id="path52" />
    <line
       x1="32.639999"
       y1="384.73001"
       x2="25.879999"
       y2="380.51999"
       style="fill:none;stroke:#263238;stroke-width:0.5px;stroke-miterlimit:10"
       id="line54" />
    <line
       x1="32.84"
       y1="355.45001"
       x2="27.58"
       y2="349.89001"
       style="fill:none;stroke:#263238;stroke-width:2px;stroke-miterlimit:10"
       id="line56" />
    <path
       d="m 29.18,351.56 a 5.94,5.94 0 0 0 -2.1,-4.46 c -1.35,-1.21 -8.45,-4.19 -9.12,-1.69 -0.73,2.72 6.54,8.06 11.22,6.15 z"
       style="fill:#439a86;stroke:#263238;stroke-miterlimit:10"
       id="path58" />
    <line
       x1="29.18"
       y1="351.56"
       x2="22.42"
       y2="347.35001"
       style="fill:none;stroke:#263238;stroke-width:0.5px;stroke-miterlimit:10"
       id="line60" />
    <line
       x1="30.690001"
       y1="334.82999"
       x2="25.43"
       y2="329.26999"
       style="fill:none;stroke:#263238;stroke-width:2px;stroke-miterlimit:10"
       id="line62" />
    <path
       d="m 27,330.94 a 5.94,5.94 0 0 0 -2.1,-4.46 c -1.35,-1.21 -8.45,-4.2 -9.12,-1.69 -0.71,2.72 6.56,8.06 11.22,6.15 z"
       style="fill:#439a86;stroke:#263238;stroke-miterlimit:10"
       id="path64" />
    <line
       x1="27.030001"
       y1="330.94"
       x2="20.26"
       y2="326.72"
       style="fill:none;stroke:#263238;stroke-width:0.5px;stroke-miterlimit:10"
       id="line66" />
    <line
       x1="37.32"
       y1="399.34"
       x2="41.310001"
       y2="392.82001"
       style="fill:none;stroke:#263238;stroke-width:2px;stroke-miterlimit:10"
       id="line68" />
    <path
       d="M 40.09,394.78 A 6,6 0 0 1 41.22,390 c 1.07,-1.46 7.4,-5.85 8.58,-3.54 1.28,2.54 -4.73,9.23 -9.71,8.32 z"
       style="fill:#439a86;stroke:#263238;stroke-miterlimit:10"
       id="path70" />
    <line
       x1="40.09"
       y1="394.78"
       x2="46.18"
       y2="388.95999"
       style="fill:none;stroke:#263238;stroke-width:0.5px;stroke-miterlimit:10"
       id="line72" />
    <line
       x1="33.84"
       y1="366.07999"
       x2="37.84"
       y2="359.56"
       style="fill:none;stroke:#263238;stroke-width:2px;stroke-miterlimit:10"
       id="line74" />
    <path
       d="m 36.62,361.52 a 6,6 0 0 1 1.13,-4.79 c 1.07,-1.46 7.4,-5.85 8.58,-3.54 1.28,2.51 -4.73,9.24 -9.71,8.33 z"
       style="fill:#439a86;stroke:#263238;stroke-miterlimit:10"
       id="path76" />
    <line
       x1="36.619999"
       y1="361.51999"
       x2="42.709999"
       y2="355.70001"
       style="fill:none;stroke:#263238;stroke-width:0.5px;stroke-miterlimit:10"
       id="line78" />
    <line
       x1="32.32"
       y1="351.47"
       x2="36.32"
       y2="344.95001"
       style="fill:none;stroke:#263238;stroke-width:2px;stroke-miterlimit:10"
       id="line80" />
    <path
       d="m 35.1,346.91 a 6,6 0 0 1 1.12,-4.8 c 1.08,-1.46 7.41,-5.85 8.58,-3.54 1.28,2.51 -4.73,9.24 -9.7,8.34 z"
       style="fill:#439a86;stroke:#263238;stroke-miterlimit:10"
       id="path82" />
    <line
       x1="35.099998"
       y1="346.91"
       x2="41.189999"
       y2="341.09"
       style="fill:none;stroke:#263238;stroke-width:0.5px;stroke-miterlimit:10"
       id="line84" />
    <line
       x1="30.08"
       y1="330.04001"
       x2="34.080002"
       y2="323.51999"
       style="fill:none;stroke:#263238;stroke-width:2px;stroke-miterlimit:10"
       id="line86" />
    <path
       d="m 32.86,325.48 a 6,6 0 0 1 1.13,-4.8 c 1.07,-1.46 7.4,-5.85 8.58,-3.54 1.28,2.51 -4.73,9.24 -9.71,8.34 z"
       style="fill:#439a86;stroke:#263238;stroke-miterlimit:10"
       id="path88" />
    <line
       x1="32.860001"
       y1="325.48001"
       x2="38.950001"
       y2="319.66"
       style="fill:none;stroke:#263238;stroke-width:0.5px;stroke-miterlimit:10"
       id="line90" />
    <path
       d="m 28.37,316.34 a 6,6 0 0 1 1.13,-4.8 c 1.07,-1.46 7.4,-5.85 8.58,-3.54 1.28,2.51 -4.73,9.24 -9.71,8.34 z"
       style="fill:#439a86;stroke:#263238;stroke-miterlimit:10"
       id="path92" />
    <line
       x1="28.370001"
       y1="316.34"
       x2="34.459999"
       y2="310.51999"
       style="fill:none;stroke:#263238;stroke-width:0.5px;stroke-miterlimit:10"
       id="line94" />
    <path
       d="M 28.73,316.59 A 6,6 0 0 1 24.07,315 c -1.33,-1.22 -5,-8 -2.62,-8.91 2.63,-1.04 8.7,5.65 7.28,10.5 z"
       style="fill:#439a86;stroke:#263238;stroke-miterlimit:10"
       id="path96" />
    <line
       x1="28.73"
       y1="316.59"
       x2="23.58"
       y2="309.92001"
       style="fill:none;stroke:#263238;stroke-width:0.5px;stroke-miterlimit:10"
       id="line98" />
    <line
       x1="59.060001"
       y1="332.26001"
       x2="47.529999"
       y2="443.39999"
       style="fill:none;stroke:#263238;stroke-width:2px;stroke-miterlimit:10"
       id="line100" />
    <line
       x1="50.080002"
       y1="422.20001"
       x2="46.080002"
       y2="415.69"
       style="fill:none;stroke:#263238;stroke-width:2px;stroke-miterlimit:10"
       id="line102" />
    <path
       d="m 47.3,417.64 a 6,6 0 0 0 -1.13,-4.79 c -1.08,-1.46 -7.41,-5.84 -8.59,-3.54 -1.27,2.52 4.74,9.24 9.72,8.33 z"
       style="fill:#439a86;stroke:#263238;stroke-miterlimit:10"
       id="path104" />
    <line
       x1="47.299999"
       y1="417.64001"
       x2="41.549999"
       y2="412.13"
       style="fill:none;stroke:#263238;stroke-width:0.5px;stroke-miterlimit:10"
       id="line106" />
    <line
       x1="53.279999"
       y1="391.35999"
       x2="49.279999"
       y2="384.84"
       style="fill:none;stroke:#263238;stroke-width:2px;stroke-miterlimit:10"
       id="line108" />
    <path
       d="M 50.5,386.8 A 6,6 0 0 0 49.37,382 c -1.07,-1.46 -7.41,-5.85 -8.58,-3.54 -1.28,2.54 4.73,9.25 9.71,8.34 z"
       style="fill:#439a86;stroke:#263238;stroke-miterlimit:10"
       id="path110" />
    <line
       x1="50.5"
       y1="386.79999"
       x2="44.75"
       y2="381.28"
       style="fill:none;stroke:#263238;stroke-width:0.5px;stroke-miterlimit:10"
       id="line112" />
    <line
       x1="51.970001"
       y1="404"
       x2="47.970001"
       y2="397.48001"
       style="fill:none;stroke:#263238;stroke-width:2px;stroke-miterlimit:10"
       id="line114" />
    <path
       d="m 49.19,399.44 a 6,6 0 0 0 -1.13,-4.79 c -1.08,-1.46 -7.41,-5.85 -8.59,-3.54 -1.27,2.51 4.74,9.24 9.72,8.33 z"
       style="fill:#439a86;stroke:#263238;stroke-miterlimit:10"
       id="path116" />
    <line
       x1="49.189999"
       y1="399.44"
       x2="43.439999"
       y2="393.92001"
       style="fill:none;stroke:#263238;stroke-width:0.5px;stroke-miterlimit:10"
       id="line118" />
    <line
       x1="55.41"
       y1="370.82999"
       x2="51.41"
       y2="364.31"
       style="fill:none;stroke:#263238;stroke-width:2px;stroke-miterlimit:10"
       id="line120" />
    <path
       d="m 52.63,366.27 a 6,6 0 0 0 -1.13,-4.8 c -1.07,-1.45 -7.41,-5.84 -8.58,-3.53 -1.28,2.51 4.73,9.24 9.71,8.33 z"
       style="fill:#439a86;stroke:#263238;stroke-miterlimit:10"
       id="path122" />
    <line
       x1="52.630001"
       y1="366.26999"
       x2="46.880001"
       y2="360.75"
       style="fill:none;stroke:#263238;stroke-width:0.5px;stroke-miterlimit:10"
       id="line124" />
    <line
       x1="57.549999"
       y1="350.20999"
       x2="53.549999"
       y2="343.69"
       style="fill:none;stroke:#263238;stroke-width:2px;stroke-miterlimit:10"
       id="line126" />
    <path
       d="m 54.77,345.65 a 6,6 0 0 0 -1.13,-4.8 c -1.07,-1.46 -7.41,-5.84 -8.58,-3.53 -1.28,2.51 4.73,9.23 9.71,8.33 z"
       style="fill:#439a86;stroke:#263238;stroke-miterlimit:10"
       id="path128" />
    <line
       x1="54.77"
       y1="345.64999"
       x2="49.02"
       y2="340.13"
       style="fill:none;stroke:#263238;stroke-width:0.5px;stroke-miterlimit:10"
       id="line130" />
    <line
       x1="50.75"
       y1="414.70001"
       x2="56.009998"
       y2="409.14999"
       style="fill:none;stroke:#263238;stroke-width:2px;stroke-miterlimit:10"
       id="line132" />
    <path
       d="m 54.41,410.81 a 6,6 0 0 1 2.09,-4.46 c 1.35,-1.2 8.45,-4.2 9.13,-1.7 0.73,2.72 -6.54,8.07 -11.22,6.16 z"
       style="fill:#439a86;stroke:#263238;stroke-miterlimit:10"
       id="path134" />
    <line
       x1="54.41"
       y1="410.81"
       x2="61.57"
       y2="406.37"
       style="fill:none;stroke:#263238;stroke-width:0.5px;stroke-miterlimit:10"
       id="line136" />
    <line
       x1="54.200001"
       y1="381.44"
       x2="59.459999"
       y2="375.89001"
       style="fill:none;stroke:#263238;stroke-width:2px;stroke-miterlimit:10"
       id="line138" />
    <path
       d="M 57.86,377.55 A 6,6 0 0 1 60,373.09 c 1.35,-1.21 8.45,-4.2 9.13,-1.7 0.68,2.72 -6.58,8.07 -11.27,6.16 z"
       style="fill:#439a86;stroke:#263238;stroke-miterlimit:10"
       id="path140" />
    <line
       x1="57.860001"
       y1="377.54999"
       x2="65.019997"
       y2="373.10999"
       style="fill:none;stroke:#263238;stroke-width:0.5px;stroke-miterlimit:10"
       id="line142" />
    <line
       x1="55.720001"
       y1="366.82001"
       x2="60.98"
       y2="361.26999"
       style="fill:none;stroke:#263238;stroke-width:2px;stroke-miterlimit:10"
       id="line144" />
    <path
       d="m 59.38,362.93 a 6,6 0 0 1 2.09,-4.46 c 1.35,-1.2 8.45,-4.2 9.12,-1.7 0.74,2.73 -6.53,8.07 -11.21,6.16 z"
       style="fill:#439a86;stroke:#263238;stroke-miterlimit:10"
       id="path146" />
    <line
       x1="59.380001"
       y1="362.92999"
       x2="66.540001"
       y2="358.48999"
       style="fill:none;stroke:#263238;stroke-width:0.5px;stroke-miterlimit:10"
       id="line148" />
    <line
       x1="57.939999"
       y1="345.39999"
       x2="63.200001"
       y2="339.84"
       style="fill:none;stroke:#263238;stroke-width:2px;stroke-miterlimit:10"
       id="line150" />
    <path
       d="m 61.6,341.5 a 6,6 0 0 1 2.09,-4.5 c 1.35,-1.2 8.45,-4.2 9.13,-1.69 0.73,2.76 -6.53,8.1 -11.22,6.19 z"
       style="fill:#439a86;stroke:#263238;stroke-miterlimit:10"
       id="path152" />
    <line
       x1="61.599998"
       y1="341.5"
       x2="68.760002"
       y2="337.06"
       style="fill:none;stroke:#263238;stroke-width:0.5px;stroke-miterlimit:10"
       id="line154" />
    <path
       d="m 59.09,331.64 a 6,6 0 0 1 2.09,-4.46 c 1.35,-1.21 8.45,-4.2 9.13,-1.7 0.69,2.72 -6.53,8.07 -11.22,6.16 z"
       style="fill:#439a86;stroke:#263238;stroke-miterlimit:10"
       id="path156" />
    <line
       x1="59.09"
       y1="331.64001"
       x2="66.25"
       y2="327.20001"
       style="fill:none;stroke:#263238;stroke-width:0.5px;stroke-miterlimit:10"
       id="line158" />
    <path
       d="m 59.39,332 a 5.94,5.94 0 0 1 -4.22,-2.54 c -1.06,-1.47 -3.29,-8.84 -0.73,-9.25 2.78,-0.5 7.34,7.29 4.95,11.79 z"
       style="fill:#439a86;stroke:#263238;stroke-miterlimit:10"
       id="path160" />
    <line
       x1="59.389999"
       y1="331.95001"
       x2="55.720001"
       y2="324.37"
       style="fill:none;stroke:#263238;stroke-width:0.5px;stroke-miterlimit:10"
       id="line162" />
    <line
       x1="45.84"
       y1="287"
       x2="45.84"
       y2="427.54999"
       style="fill:none;stroke:#263238;stroke-width:2px;stroke-miterlimit:10"
       id="line164" />
    <line
       x1="45.959999"
       y1="406.42001"
       x2="41.299999"
       y2="400.35001"
       style="fill:none;stroke:#263238;stroke-width:2px;stroke-miterlimit:10"
       id="line166" />
    <path
       d="m 42.72,402.17 a 6,6 0 0 0 -1.62,-4.66 c -1.22,-1.33 -8,-5 -8.9,-2.62 -1.01,2.62 5.66,8.69 10.52,7.28 z"
       style="fill:#439a86;stroke:#263238;stroke-miterlimit:10"
       id="path168" />
    <line
       x1="42.720001"
       y1="402.17001"
       x2="36.43"
       y2="397.28"
       style="fill:none;stroke:#263238;stroke-width:0.5px;stroke-miterlimit:10"
       id="line170" />
    <line
       x1="45.959999"
       y1="380"
       x2="41.299999"
       y2="373.94"
       style="fill:none;stroke:#263238;stroke-width:2px;stroke-miterlimit:10"
       id="line172" />
    <path
       d="M 42.72,375.76 A 6,6 0 0 0 41.1,371.1 c -1.22,-1.34 -8,-5.05 -8.9,-2.63 -1.01,2.63 5.66,8.7 10.52,7.29 z"
       style="fill:#439a86;stroke:#263238;stroke-miterlimit:10"
       id="path174" />
    <line
       x1="42.720001"
       y1="375.76001"
       x2="36.43"
       y2="370.85999"
       style="fill:none;stroke:#263238;stroke-width:0.5px;stroke-miterlimit:10"
       id="line176" />
    <line
       x1="45.959999"
       y1="349"
       x2="41.299999"
       y2="342.92999"
       style="fill:none;stroke:#263238;stroke-width:2px;stroke-miterlimit:10"
       id="line178" />
    <path
       d="m 42.72,344.75 a 6,6 0 0 0 -1.62,-4.66 c -1.22,-1.34 -8,-5 -8.9,-2.63 -1.01,2.63 5.66,8.7 10.52,7.29 z"
       style="fill:#439a86;stroke:#263238;stroke-miterlimit:10"
       id="path180" />
    <line
       x1="42.720001"
       y1="344.75"
       x2="36.43"
       y2="339.85001"
       style="fill:none;stroke:#263238;stroke-width:0.5px;stroke-miterlimit:10"
       id="line182" />
    <line
       x1="45.959999"
       y1="328.35001"
       x2="41.299999"
       y2="322.28"
       style="fill:none;stroke:#263238;stroke-width:2px;stroke-miterlimit:10"
       id="line184" />
    <path
       d="m 42.72,324.1 a 6,6 0 0 0 -1.62,-4.65 c -1.22,-1.34 -8,-5.05 -8.9,-2.63 -1.01,2.63 5.66,8.7 10.52,7.28 z"
       style="fill:#439a86;stroke:#263238;stroke-miterlimit:10"
       id="path186" />
    <line
       x1="42.720001"
       y1="324.10001"
       x2="36.43"
       y2="319.20999"
       style="fill:none;stroke:#263238;stroke-width:0.5px;stroke-miterlimit:10"
       id="line188" />
    <line
       x1="45.959999"
       y1="307.62"
       x2="41.299999"
       y2="301.54999"
       style="fill:none;stroke:#263238;stroke-width:2px;stroke-miterlimit:10"
       id="line190" />
    <path
       d="m 42.72,303.37 a 6,6 0 0 0 -1.62,-4.65 c -1.22,-1.34 -8,-5.05 -8.9,-2.63 -1.01,2.63 5.66,8.7 10.52,7.28 z"
       style="fill:#439a86;stroke:#263238;stroke-miterlimit:10"
       id="path192" />
    <line
       x1="42.720001"
       y1="303.37"
       x2="36.43"
       y2="298.48001"
       style="fill:none;stroke:#263238;stroke-width:0.5px;stroke-miterlimit:10"
       id="line194" />
    <line
       x1="45.849998"
       y1="414.48001"
       x2="50.509998"
       y2="408.41"
       style="fill:none;stroke:#263238;stroke-width:2px;stroke-miterlimit:10"
       id="line196" />
    <path
       d="m 49.09,410.23 a 6,6 0 0 1 1.62,-4.65 c 1.22,-1.34 8,-5.05 8.9,-2.63 1.01,2.63 -5.61,8.7 -10.52,7.28 z"
       style="fill:#439a86;stroke:#263238;stroke-miterlimit:10"
       id="path198" />
    <line
       x1="49.09"
       y1="410.23001"
       x2="55.75"
       y2="405.07999"
       style="fill:none;stroke:#263238;stroke-width:0.5px;stroke-miterlimit:10"
       id="line200" />
    <line
       x1="45.849998"
       y1="372.47"
       x2="50.509998"
       y2="366.41"
       style="fill:none;stroke:#263238;stroke-width:2px;stroke-miterlimit:10"
       id="line202" />
    <path
       d="m 49.09,368.23 a 6,6 0 0 1 1.62,-4.66 c 1.22,-1.34 8,-5 8.9,-2.63 1.01,2.63 -5.61,8.7 -10.52,7.29 z"
       style="fill:#439a86;stroke:#263238;stroke-miterlimit:10"
       id="path204" />
    <line
       x1="49.09"
       y1="368.23001"
       x2="55.75"
       y2="363.07001"
       style="fill:none;stroke:#263238;stroke-width:0.5px;stroke-miterlimit:10"
       id="line206" />
    <line
       x1="45.849998"
       y1="351.73999"
       x2="50.509998"
       y2="345.67001"
       style="fill:none;stroke:#263238;stroke-width:2px;stroke-miterlimit:10"
       id="line208" />
    <path
       d="m 49.09,347.49 a 6,6 0 0 1 1.62,-4.65 c 1.22,-1.34 8,-5 8.9,-2.63 1.01,2.63 -5.61,8.7 -10.52,7.28 z"
       style="fill:#439a86;stroke:#263238;stroke-miterlimit:10"
       id="path210" />
    <line
       x1="49.09"
       y1="347.48999"
       x2="55.75"
       y2="342.34"
       style="fill:none;stroke:#263238;stroke-width:0.5px;stroke-miterlimit:10"
       id="line212" />
    <line
       x1="45.849998"
       y1="324.34"
       x2="50.509998"
       y2="318.26999"
       style="fill:none;stroke:#263238;stroke-width:2px;stroke-miterlimit:10"
       id="line214" />
    <path
       d="m 49.09,320.09 a 6,6 0 0 1 1.62,-4.65 c 1.22,-1.34 8,-5.05 8.9,-2.63 1.01,2.63 -5.61,8.7 -10.52,7.28 z"
       style="fill:#439a86;stroke:#263238;stroke-miterlimit:10"
       id="path216" />
    <line
       x1="49.09"
       y1="320.09"
       x2="55.75"
       y2="314.92999"
       style="fill:none;stroke:#263238;stroke-width:0.5px;stroke-miterlimit:10"
       id="line218" />
    <line
       x1="45.849998"
       y1="302.79001"
       x2="50.509998"
       y2="296.72"
       style="fill:none;stroke:#263238;stroke-width:2px;stroke-miterlimit:10"
       id="line220" />
    <path
       d="m 49.09,298.55 a 6,6 0 0 1 1.62,-4.66 c 1.22,-1.34 8,-5.05 8.9,-2.63 1.01,2.63 -5.61,8.74 -10.52,7.29 z"
       style="fill:#439a86;stroke:#263238;stroke-miterlimit:10"
       id="path222" />
    <line
       x1="49.09"
       y1="298.54999"
       x2="55.75"
       y2="293.39001"
       style="fill:none;stroke:#263238;stroke-width:0.5px;stroke-miterlimit:10"
       id="line224" />
    <path
       d="m 45.58,289 a 5.93,5.93 0 0 1 1.61,-4.65 c 1.22,-1.34 8,-5 8.91,-2.63 1.01,2.62 -5.67,8.69 -10.52,7.28 z"
       style="fill:#439a86;stroke:#263238;stroke-miterlimit:10"
       id="path226" />
    <line
       x1="45.580002"
       y1="288.98999"
       x2="52.240002"
       y2="283.82999"
       style="fill:none;stroke:#263238;stroke-width:0.5px;stroke-miterlimit:10"
       id="line228" />
    <path
       d="m 45.9,289.28 a 6,6 0 0 1 -4.46,-2.1 c -1.2,-1.35 -4.18,-8.46 -1.68,-9.13 2.72,-0.73 8.06,6.55 6.14,11.23 z"
       style="fill:#439a86;stroke:#263238;stroke-miterlimit:10"
       id="path230" />
    <line
       x1="45.900002"
       y1="289.28"
       x2="41.470001"
       y2="282.10999"
       style="fill:none;stroke:#263238;stroke-width:0.5px;stroke-miterlimit:10"
       id="line232" />
    <polygon
       points="34.88,426.41 53.49,426.41 51.63,464 36.74,464 "
       style="fill:#263238;stroke:#263238;stroke-miterlimit:10"
       id="polygon234" />
  </g>
  <g
     id="freepik--Picture--inject-2"
     transform="translate(-14.151118,-19.131892)">
    <polyline
       points="115.08 176.18 25.66 176.18 25.66 33.83 136.37 33.83 136.37 176.18 120.89 176.18"
       style="fill:none;stroke:#263238;stroke-miterlimit:10"
       id="polyline237" />
    <rect
       x="29.68"
       y="38.990002"
       width="102.68"
       height="132.03"
       style="fill:none;stroke:#263238;stroke-miterlimit:10"
       id="rect239" />
    <path
       d="m 50.25,75.15 a 48.89,48.89 0 0 0 5.81,4.61 c 23.23,15.76 62.63,8.3 75.9,30.69"
       style="fill:none;stroke:#263238;stroke-miterlimit:10"
       id="path241" />
    <path
       d="M 36.57,39.53 A 42.92,42.92 0 0 0 47.35,72.22"
       style="fill:none;stroke:#263238;stroke-miterlimit:10"
       id="path243" />
    <path
       d="m 45.37,112.26 c 11.33,-6 26,-10.23 33.51,1.92 8.71,14.11 -31.53,39 -31.53,56.82"
       style="fill:none;stroke:#263238;stroke-miterlimit:10"
       id="path245" />
    <path
       d="M 29.94,122.48 A 98.4,98.4 0 0 1 42.24,114"
       style="fill:none;stroke:#263238;stroke-miterlimit:10"
       id="path247" />
    <path
       d="m 83.44,39.53 c 0,0 14.93,23.23 48.94,17"
       style="fill:none;stroke:#263238;stroke-miterlimit:10"
       id="path249" />
    <path
       d="M 87.9,62.34 A 13,13 0 0 1 88,64 13.67,13.67 0 1 1 86.42,57.6"
       style="fill:none;stroke:#263238;stroke-miterlimit:10"
       id="path251" />
    <path
       d="M 122,82.46 A 6.43,6.43 0 1 1 115.58,76 6.42,6.42 0 0 1 122,82.46 Z"
       style="fill:none;stroke:#263238;stroke-miterlimit:10"
       id="path253" />
    <path
       d="m 122.09,125.83 a 26.28,26.28 0 0 1 9.91,5"
       style="fill:none;stroke:#263238;stroke-miterlimit:10"
       id="path255" />
    <path
       d="M 97.46,171.1 A 26.54,26.54 0 0 1 115.37,125 c 0.52,0 1,0 1.53,0"
       style="fill:none;stroke:#263238;stroke-miterlimit:10"
       id="path257" />
  </g>
  <g
     id="freepik--Device--inject-2"
     transform="translate(-14.151118,-19.131892)">
    <rect
       x="193.7"
       y="42.5"
       width="201.83"
       height="373.89001"
       style="fill:#ffffff"
       id="rect260" />
    <rect
       x="193.7"
       y="352.63"
       width="201.83"
       height="63.759998"
       style="fill:#dedede"
       id="rect262" />
    <path
       d="m 401.59,116.06 a 2.49,2.49 0 0 0 2.49,-2.49 V 88.64 a 2.49,2.49 0 0 0 -2.49,-2.49 2.42,2.42 0 0 0 -0.47,0 V 39.56 A 16.07,16.07 0 0 0 385.05,23.49 H 207.9 a 16.07,16.07 0 0 0 -16.08,16.07 v 376.29 a 16.08,16.08 0 0 0 16.08,16.08 h 177.15 a 16.08,16.08 0 0 0 16.07,-16.08 V 186.93 a 2.42,2.42 0 0 0 0.47,0 2.5,2.5 0 0 0 2.49,-2.5 v -24.88 a 2.49,2.49 0 0 0 -2.49,-2.49 2.42,2.42 0 0 0 -0.47,0.05 v -5.64 a 2.42,2.42 0 0 0 0.47,0.05 2.5,2.5 0 0 0 2.49,-2.49 v -24.94 a 2.5,2.5 0 0 0 -2.49,-2.49 2.42,2.42 0 0 0 -0.47,0.05 V 116 a 2.42,2.42 0 0 0 0.47,0.06 z m -9.78,291.63 H 201.13 V 51.22 h 190.68 z"
       style="fill:#263238"
       id="path264" />
    <rect
       x="369.51001"
       y="54.919998"
       width="15.81"
       height="8.6700001"
       style="fill:none;stroke:#263238;stroke-width:0.821067px;stroke-linecap:round;stroke-linejoin:round"
       id="rect266" />
    <rect
       x="369.51001"
       y="54.919998"
       width="12.33"
       height="8.6700001"
       style="fill:#263238;stroke:#263238;stroke-width:0.725073px;stroke-linecap:round;stroke-linejoin:round"
       id="rect268" />
    <rect
       x="385.29001"
       y="57.349998"
       width="2.23"
       height="3.8199999"
       style="fill:#263238;stroke:#263238;stroke-width:0.725073px;stroke-linecap:round;stroke-linejoin:round"
       id="rect270" />
    <rect
       x="205.42"
       y="57.610001"
       width="2.9000001"
       height="4.9699998"
       style="fill:#263238;stroke:#263238;stroke-width:0.883086px;stroke-linecap:round;stroke-linejoin:round"
       id="rect272" />
    <rect
       x="209.98"
       y="55.869999"
       width="2.9000001"
       height="6.71"
       style="fill:#263238;stroke:#263238;stroke-width:0.883086px;stroke-linecap:round;stroke-linejoin:round"
       id="rect274" />
    <rect
       x="214.53"
       y="53.799999"
       width="2.9000001"
       height="8.7799997"
       style="fill:#263238;stroke:#263238;stroke-width:0.883086px;stroke-linecap:round;stroke-linejoin:round"
       id="rect276" />
    <rect
       x="204.2"
       y="68.410004"
       width="183.11"
       height="48.119999"
       style="fill:#439a86"
       id="rect278" />
    <line
       x1="250.48"
       y1="75.339996"
       x2="250.48"
       y2="110.67"
       style="fill:none;stroke:#ffffff;stroke-miterlimit:10"
       id="line280" />
    <line
       x1="297.14001"
       y1="75.339996"
       x2="297.14001"
       y2="110.67"
       style="fill:none;stroke:#ffffff;stroke-miterlimit:10"
       id="line282" />
    <line
       x1="343.81"
       y1="75.339996"
       x2="343.81"
       y2="110.67"
       style="fill:none;stroke:#ffffff;stroke-miterlimit:10"
       id="line284" />
    <path
       d="m 399.47,186.93 a 2.42,2.42 0 0 0 0.47,0 2.5,2.5 0 0 0 2.49,-2.5 v -8.93 l -12.27,21.63 V 407.69 H 270.79 L 257,431.93 h 126.39 a 16.08,16.08 0 0 0 16.08,-16.08 z"
       style="opacity:0.15;fill:#ffffff"
       id="path286" />
  </g>
  <g
     id="freepik--qr-code--inject-2"
     transform="translate(-14.151118,-19.131892)">
    <path
       d="M 288.73,282.43 V 271 v 0 h 5.71 v -5.75 h -5.69 c 0,-1.91 0,-3.83 0,-5.74 h 11.45 v -5.71 h 5.72 v 5.68 h 5.74 V 248 h 17.2 v 5.71 h 5.69 V 248 h -5.71 v -5.76 h -11.47 v -11.38 h -17.21 v 5.72 h -11.41 v 11.47 h 5.68 v 5.72 h -5.71 v 5.73 H 283 v -5.74 h -17.19 v -5.71 H 283 v -45.88 h 5.75 v 0 q 0,8.28 0,16.56 v 0.62 h 5.73 v -11.43 h 5.71 v 11.45 h 5.76 v 5.71 h 28.66 v 5.72 h 5.74 v 5.77 0 h -5.71 v 5.75 h 5.69 v 11.48 h 5.75 v 0 11.46 h -5.69 V 276.7 H 346 v 5.73 h 11.45 v 5.72 h -17.12 v 11.45 h -5.72 v -5.72 h -11.5 v 0 -5.73 h -5.72 v -5.72 h 11.41 v -5.73 h -28.59 v 5.7 h -11.48 z m 34.38,-17.2 v -5.7 h -5.69 v 5.69 h 5.71 v 5.71 h 11.42 v -5.7 z m -11.48,0 H 306 v 5.67 h 5.67 z m 11.51,-28.73 h 5.67 v -5.68 h -5.67 z"
       style="fill:#263238"
       id="path289" />
    <path
       d="m 237.14,219.33 v -40.08 h 40.07 v 40.08 z M 242.89,185 v 28.61 h 28.6 V 185 Z"
       style="fill:#263238"
       id="path291" />
    <path
       d="m 357.48,219.34 h -40.07 v -40.07 h 40.07 z M 351.76,185 h -28.6 v 28.6 h 28.6 z"
       style="fill:#263238"
       id="path293" />
    <path
       d="m 237.15,259.51 h 40.08 v 40.08 h -40.08 z m 34.35,5.75 h -28.61 v 28.61 h 28.61 z"
       style="fill:#263238"
       id="path295" />
    <path
       d="M 288.72,202.17 V 190.7 H 283 v -11.44 h 28.61 v 11.42 H 306 v 5.74 h 5.67 v 11.44 h -5.71 v -5.69 h -5.76 v -5.72 h -5.72 v 5.7 h -5.77 z m 5.75,-11.51 h 5.68 V 185 h -5.68 z"
       style="fill:#263238"
       id="path297" />
    <path
       d="m 265.78,230.82 v 5.73 h 11.45 v 5.72 h -17.17 v 11.46 h -22.9 v -11.4 h 5.67 V 248 h 11.5 v -17.18 h 11.46 z"
       style="fill:#263238"
       id="path299" />
    <path
       d="m 288.71,282.42 v 5.73 h 5.73 v 5.72 h 5.71 v 5.73 H 283 v -17.17 h 5.69 z"
       style="fill:#263238"
       id="path301" />
    <path
       d="m 254.33,230.82 h -11.46 v 5.71 h -5.71 v -11.4 h 17.15 v 5.7 z"
       style="fill:#263238"
       id="path303" />
    <path
       d="m 357.48,242.27 h -5.68 v -11.43 h -5.72 v -5.72 h 11.4 z"
       style="fill:#263238"
       id="path305" />
    <path
       d="m 265.79,230.84 v -5.71 h 11.43 v 5.69 h -11.44 z"
       style="fill:#263238"
       id="path307" />
    <path
       d="m 346.06,253.77 v -5.71 h 5.69 v 5.69 H 346 Z"
       style="fill:#263238"
       id="path309" />
    <path
       d="m 351.81,259.52 h 5.67 v 5.68 h -5.67 z"
       style="fill:#263238"
       id="path311" />
    <path
       d="m 305.92,219.37 v -5.71 h 5.7 v 5.69 h -5.71 z"
       style="fill:#263238"
       id="path313" />
    <path
       d="M 288.73,271 H 283 v -5.72 h 5.69 V 271 Z"
       style="fill:#263238"
       id="path315" />
    <path
       d="M 346.06,276.7 V 271 h 5.69 v 5.69 h -5.69 z"
       style="fill:#263238"
       id="path317" />
    <path
       d="M 340.31,236.57 H 346 v 5.72 h -5.69 v -5.75 z"
       style="fill:#263238"
       id="path319" />
    <path
       d="m 311.62,293.87 h -5.68 v -5.67 h 5.68 z"
       style="fill:#263238"
       id="path321" />
    <path
       d="m 323.11,293.88 v 5.71 h -5.69 v -5.69 h 5.71 z"
       style="fill:#263238"
       id="path323" />
    <path
       d="m 357.48,299.61 h -5.67 v -5.68 h 5.67 z"
       style="fill:#263238"
       id="path325" />
    <path
       d="M 311.66,248 H 306 v -5.69 h 5.7 V 248 Z"
       style="fill:#263238"
       id="path327" />
    <path
       d="m 265.75,207.87 h -17.14 v -17.14 h 17.14 z"
       style="fill:#263238"
       id="path329" />
    <path
       d="M 328.87,207.86 V 190.72 H 346 v 17.14 z"
       style="fill:#263238"
       id="path331" />
    <path
       d="M 248.61,288.13 V 271 h 17.14 v 17.14 z"
       style="fill:#263238"
       id="path333" />
    <polyline
       points="253.79 165.67 228.69 165.67 228.69 193.36"
       style="fill:none;stroke:#439a86;stroke-width:2px;stroke-miterlimit:10"
       id="polyline335" />
    <polyline
       points="345.07 165.67 370.16 165.67 370.16 193.36"
       style="fill:none;stroke:#439a86;stroke-width:2px;stroke-miterlimit:10"
       id="polyline337" />
    <polyline
       points="253.79 311.49 228.69 311.49 228.69 283.8"
       style="fill:none;stroke:#439a86;stroke-width:2px;stroke-miterlimit:10"
       id="polyline339" />
    <polyline
       points="345.07 311.49 370.16 311.49 370.16 283.8"
       style="fill:none;stroke:#439a86;stroke-width:2px;stroke-miterlimit:10"
       id="polyline341" />
  </g>
  <g
     id="freepik--Character--inject-2"
     transform="translate(-14.151118,-19.131892)">
    <rect
       x="166.42"
       y="171.67"
       width="13.67"
       height="28.67"
       rx="2.6700001"
       style="fill:#263238;stroke:#263238;stroke-miterlimit:10"
       id="rect344" />
    <rect
       x="167.62"
       y="174.2"
       width="11.25"
       height="23.6"
       style="fill:#ffffff;stroke:#263238;stroke-miterlimit:10"
       id="rect346" />
    <path
       d="M 57.66,312.17 A 21.6,21.6 0 0 0 69,308.88 c -0.22,6.38 -0.39,11.21 -0.39,11.21 0,0 1.1,1.92 1.65,2.75 0.55,0.83 5.22,3.57 5.77,6.05 0.55,2.48 3,3.85 2.75,7.42 -0.25,3.57 -3.3,-0.28 -2.75,0.55 0.55,0.83 2.2,3.57 2.2,6.05 0,2.48 -5.22,2.47 -7.15,0.82 -1.93,-1.65 -8.24,-5.5 -8.79,-9.07 l -2.15,-8 z"
       style="fill:#ffffff;stroke:#263238;stroke-miterlimit:10"
       id="path348" />
    <path
       d="m 69.08,332 1.34,6 c 0,0 4.33,3.33 4.66,5.67"
       style="fill:#ffffff;stroke:#263238;stroke-miterlimit:10"
       id="path350" />
    <line
       x1="76.019997"
       y1="336.85999"
       x2="74.080002"
       y2="333"
       style="fill:#ffffff;stroke:#263238;stroke-miterlimit:10"
       id="line352" />
    <path
       d="m 90.69,458.77 c 0,0 -1.57,12.87 -0.35,14.44 a 9.17,9.17 0 0 0 5.91,3.79 c 2.78,0.35 7.48,-1.22 7.48,-1.22 a 28.38,28.38 0 0 0 9.74,0.87 c 5,-0.52 8.34,-2.43 8.69,-4.87 0.35,-2.44 -4,-3.47 -6.43,-6.08 -2.43,-2.61 -6.31,-7.23 -6.31,-7.23 l -1,-3.38 c 0,0 -5.91,3 -9.73,3.13 a 23.11,23.11 0 0 1 -6.44,-0.52 z"
       style="fill:#ffffff;stroke:#263238;stroke-miterlimit:10"
       id="path354" />
    <path
       d="m 122.16,471.81 a 1.86,1.86 0 0 0 -0.08,-0.85 c -1.15,0.48 -2.62,1.06 -4.44,1.72 -5.22,1.92 -7.83,0.35 -10.43,0.35 -2.6,0 -2.79,2.78 -10.09,0.87 -4.77,-1.25 -6.56,-2.86 -7.24,-3.84 a 6.86,6.86 0 0 0 0.46,3.15 9.17,9.17 0 0 0 5.91,3.79 c 2.78,0.35 7.48,-1.22 7.48,-1.22 a 28.38,28.38 0 0 0 9.74,0.87 c 5.04,-0.49 8.34,-2.4 8.69,-4.84 z"
       style="fill:#ffffff;stroke:#263238;stroke-miterlimit:10"
       id="path356" />
    <path
       d="m 81.42,299 c 0,0 -7,23.5 -4.5,40 2.5,16.5 14.5,47.5 14.5,47.5 0,0 -1.5,11.5 -1.5,15.5 0,4 -3.5,11.5 -1,19.5 2.5,8 2.5,29 2.5,30.5 0,1.5 -1,9.5 -1,9.5 0,0 2,3 9.5,3 7.5,0 9.5,-6 9.5,-6 0,0 7.5,-44.5 7.5,-51.5 0,-7 8,-33 11,-43.5 a 89.6,89.6 0 0 1 8.65,-20.68 c 2,-3.5 0.85,-45.82 0.85,-45.82 l -57,-5 z"
       style="fill:#737373;stroke:#263238;stroke-miterlimit:10"
       id="path358" />
    <path
       d="m 120.77,462.08 c 0,0 7.48,2.95 11.13,4.69 3.65,1.74 6.08,1.91 6.08,4.7 0,2.79 -6.6,5.56 -10.6,6.26 -4,0.7 -10.44,0.52 -11.13,0.69 -0.69,0.17 -13.74,2.09 -15.3,-1.22 -1.56,-3.31 0.17,-14.6 0.17,-14.6 a 50.57,50.57 0 0 0 19.65,-0.52 z"
       style="fill:#ffffff;stroke:#263238;stroke-miterlimit:10"
       id="path360" />
    <path
       d="m 116.25,478.42 c 0.69,-0.17 7.13,0 11.13,-0.69 4,-0.69 10.6,-3.48 10.6,-6.26 a 3.56,3.56 0 0 0 -0.16,-1.08 48.36,48.36 0 0 1 -5.23,2.64 c -4.87,2.09 -11.3,3.48 -21,3.31 a 44.88,44.88 0 0 1 -11.14,-1.43 7.34,7.34 0 0 0 0.54,2.29 c 1.52,3.31 14.56,1.4 15.26,1.22 z"
       style="fill:#ffffff;stroke:#263238;stroke-miterlimit:10"
       id="path362" />
    <path
       d="m 137.92,301 c 0,0 3,40.5 -3,71 -6,30.5 -16,72 -16.5,74 -0.5,2 3.5,7.5 3.5,7.5 v 8 c 0,0 -3.5,3.5 -11.5,4.5 -8,1 -10.5,-1.5 -10.5,-1.5 0,0 -2,-13.5 -2,-23 0,-9.5 2,-42 2,-42 0,0 4.5,-33 4,-38 -0.5,-5 -2,-20.5 -2,-20.5 l -8,-9.5"
       style="fill:#737373;stroke:#263238;stroke-miterlimit:10"
       id="path364" />
    <path
       d="m 53.87,293.38 15.73,-2.76 c -0.07,2.13 0.38,-11.33 0.38,-12.33 0,-2.2 5.22,-16 5.22,-16 0,0 4.12,17.88 4.12,20.08 0,2.2 -1.65,19 0.55,21.17 2.2,2.17 9.9,6.6 26.95,6.05 17.05,-0.55 29.7,-1.93 33,-5.23 3.3,-3.3 -0.55,-13.47 -0.83,-14.84 -0.28,-1.37 4.4,-37.4 4.4,-37.4 0,0 18.42,19.25 29.42,16.5 11,-2.75 5.78,-45.62 5.78,-45.62 l 0.55,-12.37 c 0,0 3.57,-9.07 3.57,-10.45 0,-1.38 -3.57,-11.27 -3.57,-11.27 0,0 -2.2,-1.93 -3.58,2.75 a 45.12,45.12 0 0 0 -1.65,7.7 c 0,0 -3.3,2.47 -3,6.05 a 23.65,23.65 0 0 0 1.37,6.32 L 164.84,236 c 0,0 -8.25,-9.35 -8.8,-11 -0.55,-1.65 -0.28,-7.7 -7.15,-11.28 -6.87,-3.58 -20.9,-3.85 -20.9,-3.85 l -38.77,0.28 c 0,0 -18.15,1.6 -22.22,5.17 -4.07,3.57 -16.77,48.95 -16.77,55.82 0,2.15 1.12,8.81 2.69,17.05 z"
       style="fill:#ffffff;stroke:#263238;stroke-miterlimit:10"
       id="path366" />
    <path
       d="m 179.14,188.93 c 0,0 -0.83,6.87 -0.28,8.25 a 15.36,15.36 0 0 1 0.55,7.42"
       style="fill:none;stroke:#263238;stroke-miterlimit:10"
       id="path368" />
    <path
       d="m 172.81,268.67 c 11,-2.75 5.78,-45.65 5.78,-45.65 l 0.12,-2.77 a 9.94,9.94 0 0 0 -8.54,-1.69 L 164.84,236 c 0,0 -8.25,-9.35 -8.8,-11 -0.55,-1.65 -0.28,-7.7 -7.15,-11.28 -6.87,-3.58 -20.9,-3.85 -20.9,-3.85 l -38.77,0.28 c 0,0 -18.15,1.6 -22.22,5.17 -4.07,3.57 -16.77,48.95 -16.77,55.82 0,4.08 4.06,24.42 7.48,41 A 21.6,21.6 0 0 0 69,308.88 c 0.4,-11.89 1,-29.16 1,-30.59 0,-2.2 5.22,-16 5.22,-16 0,0 4.12,17.88 4.12,20.08 0,2.2 -1.65,19 0.55,21.17 2.2,2.17 9.9,6.6 26.95,6.05 17.05,-0.55 29.7,-1.93 33,-5.23 3.3,-3.3 -0.55,-13.47 -0.83,-14.84 -0.28,-1.37 4.4,-37.4 4.4,-37.4 0,0 18.4,19.3 29.4,16.55 z"
       style="fill:#439a86;stroke:#263238;stroke-miterlimit:10"
       id="path370" />
    <polyline
       points="69.8 247.21 75.2 262.34 64.08 243.33"
       style="fill:none;stroke:#263238;stroke-miterlimit:10"
       id="polyline372" />
    <line
       x1="66.75"
       y1="238.67"
       x2="68.660004"
       y2="244.02"
       style="fill:none;stroke:#263238;stroke-miterlimit:10"
       id="line374" />
    <path
       d="m 104.83,248.28 c 2.43,5.46 6,12.31 10.25,16.72"
       style="fill:none;stroke:#263238;stroke-miterlimit:10"
       id="path376" />
    <path
       d="m 101.42,239.67 c 0,0 0.75,2.25 2.09,5.52"
       style="fill:none;stroke:#263238;stroke-miterlimit:10"
       id="path378" />
    <path
       d="m 107.42,258 c 0,0 6,12 9,14.33"
       style="fill:none;stroke:#263238;stroke-miterlimit:10"
       id="path380" />
    <line
       x1="152.8"
       y1="243.45"
       x2="155.08"
       y2="241.33"
       style="fill:none;stroke:#263238;stroke-miterlimit:10"
       id="line382" />
    <polyline
       points="149.08 240.33 143.39 252.17 150.73 245.37"
       style="fill:none;stroke:#263238;stroke-miterlimit:10"
       id="polyline384" />
    <path
       d="m 175.08,247 c -0.33,-2.33 -10.24,-11.05 -10.24,-11.05 0,0 10.24,4.05 12.91,7.72"
       style="fill:none;stroke:#263238;stroke-miterlimit:10"
       id="path386" />
    <path
       d="m 131.84,173.8 c 0,0 0.55,6.88 1.38,8 0.83,1.12 1.37,9.62 0,12.1 -1.37,2.48 -2.2,5.5 -3,6.32 -0.8,0.82 -3.85,0.83 -5,0.83 -1.15,0 -13.47,-0.55 -13.47,-0.55 l 0.28,-17.33 c 0,0 3.04,-12.94 19.81,-9.37 z"
       style="fill:#ffffff;stroke:#263238;stroke-miterlimit:10"
       id="path388" />
    <path
       d="m 109.85,154.56 c 0,0 -11.28,3.57 -13.75,13.44 -2.47,9.87 5.5,21.17 5.5,21.17 0,0 2.2,8 4.12,9.63 1.92,1.63 9.62,0 12.1,-0.55 2.48,-0.55 8,-15.4 8,-15.4 0,0 0,3.57 1.65,3.57 1.65,0 1.38,-4.67 1.38,-5.5 0,-0.83 7.7,-6.6 7.7,-16.49 0,-9.89 -8.55,-14.27 -16.55,-13.72 -8,0.55 -10.15,3.85 -10.15,3.85 z"
       style="fill:#263238;stroke:#263238;stroke-miterlimit:10"
       id="path390" />
    <path
       d="m 133.22,209.27 c 0,0 -1.65,-5.77 -2.48,-6.59 -0.83,-0.82 -6.05,-4.13 -14.57,-4.68 -8.52,-0.55 -21.17,-0.27 -22.27,0.28 -1.1,0.55 -1.38,5.22 -1.38,5.22 0,0 -3.57,3.3 -4.4,5.23 -0.83,1.93 -1.65,2.74 6,9.07 7.65,6.33 11.83,8.8 19.8,6.87 7.97,-1.93 19.52,-13.47 19.52,-13.47 z"
       style="fill:#439a86;stroke:#263238;stroke-miterlimit:10"
       id="path392" />
    <path
       d="M 113.55,213.17 A 83.29,83.29 0 0 0 129.09,206"
       style="fill:none;stroke:#263238;stroke-miterlimit:10"
       id="path394" />
    <path
       d="m 92.52,204.6 c 0,0 5,9.9 13.75,9.9 a 18.92,18.92 0 0 0 3.55,-0.38"
       style="fill:none;stroke:#263238;stroke-miterlimit:10"
       id="path396" />
  </g>
</svg>
