<?xml version="1.0" encoding="UTF-8" standalone="no"?>
<svg
   viewBox="0 0 455.16422 452.09012"
   version="1.1"
   id="svg353"
   sodipodi:docname="kpl-service-detail-sessions.svg"
   width="455.16422"
   height="452.09012"
   inkscape:version="1.1 (c68e22c387, 2021-05-23)"
   xmlns:inkscape="http://www.inkscape.org/namespaces/inkscape"
   xmlns:sodipodi="http://sodipodi.sourceforge.net/DTD/sodipodi-0.dtd"
   xmlns="http://www.w3.org/2000/svg"
   xmlns:svg="http://www.w3.org/2000/svg">
  <sodipodi:namedview
     id="namedview355"
     pagecolor="#ffffff"
     bordercolor="#666666"
     borderopacity="1.0"
     inkscape:pageshadow="2"
     inkscape:pageopacity="0.0"
     inkscape:pagecheckerboard="0"
     showgrid="false"
     inkscape:zoom="1.244"
     inkscape:cx="227.89389"
     inkscape:cy="225.88424"
     inkscape:window-width="1368"
     inkscape:window-height="850"
     inkscape:window-x="-6"
     inkscape:window-y="-6"
     inkscape:window-maximized="1"
     inkscape:current-layer="svg353" />
  <defs
     id="defs32">
    <clipPath
       id="freepik--clip-path--inject-2">
      <path
         d="m 91.7,246.5 c -0.38,1 -1.2,2.18 -3.68,2.59 5,7.13 19.24,13.47 29.44,12.18 5.64,-1 5.77,-2.51 4.21,-3.86 -3.08,-2.65 -5.57,-8.27 -5.67,-12.33 l -0.09,-4.2 -22.64,-11.8 c 0,0 -1.13,12 -1.17,15.3 a 5.91,5.91 0 0 1 -0.4,2.12 z"
         style="fill:#999999"
         id="path2" />
    </clipPath>
    <clipPath
       id="freepik--clip-path-2--inject-2">
      <path
         d="m 105.59,365.3 c -2.54,3.3 -3.89,6.78 -6.42,10.08 -11.24,-4.84 -26.74,-19.85 -39.31,-28.58 -10.71,-7.44 -6.19,-18.88 -6.19,-18.9 0.44,-2 16.29,-61 17.44,-63.76 3,-7.13 8,-16.52 15.48,-14.68 22.24,5.42 -9.75,83.26 -9.75,83.26 1.3,1.22 19.73,22.42 28.75,32.58 z"
         style="fill:#439a86"
         id="path5" />
    </clipPath>
    <clipPath
       id="freepik--clip-path-3--inject-2">
      <path
         d="m 141.46,271.14 c 10.21,10 18.21,27.72 16.91,42 -1.77,19.35 -0.19,7.77 2.73,27 3.82,25.16 4.36,55 4.36,55 -27,7.17 -60.1,2.59 -75.35,-11.7 -0.54,-25.37 10.91,-36.67 1,-60 -6,-14 -15.88,-29.77 -17.76,-44.91 -1.38,-11.13 -2.64,-19.76 3.59,-25.59 a 15.72,15.72 0 0 1 10.15,-4 c 33.6,-1.44 54.37,22.2 54.37,22.2 z"
         style="fill:#439a86"
         id="path8" />
    </clipPath>
    <clipPath
       id="freepik--clip-path-4--inject-2">
      <path
         d="m 220.81,280.9 c -10.07,19.43 -19.07,35 -33.09,51.76 -2.95,3.52 -6.14,7 -10.19,9.14 -4.05,2.14 -7.4,3.21 -11.42,1 a 121.17,121.17 0 0 1 -46.85,-46.56 c -4.09,-7.29 -7.36,-16.53 -3,-23.68 3.39,-5.62 11.73,-9.48 17.83,-7.07 4.72,1.86 8,6.14 11,10.24 5.73,7.91 21.46,33 23.9,36.75 12.5,-12.53 25,-26.3 36.56,-39.72 2.19,-2.64 13.36,3.15 15.26,8.14 z"
         style="fill:#439a86"
         id="path11" />
    </clipPath>
    <clipPath
       id="freepik--clip-path-5--inject-2">
      <path
         d="m 114.72,261.94 c -9.8,0 -22.26,-5.61 -27.11,-12.56 l -0.46,-0.65 0.78,-0.13 c 2.28,-0.38 3,-1.42 3.31,-2.28 v 0 a 5.5,5.5 0 0 0 0.36,-1.95 c 0,-3.32 1.12,-14.84 1.17,-15.33 l 0.07,-0.74 23.56,12.28 0.1,4.48 c 0.1,4 2.61,9.49 5.49,12 0.84,0.72 1.17,1.44 1,2.14 -0.32,1.16 -2,2 -5.42,2.59 a 23.64,23.64 0 0 1 -2.85,0.15 z M 88.88,249.42 c 5.42,7 19.23,12.53 28.52,11.36 3.89,-0.7 4.52,-1.54 4.61,-1.87 0.09,-0.33 -0.31,-0.81 -0.67,-1.12 -3.12,-2.68 -5.74,-8.38 -5.84,-12.7 l -0.09,-3.9 -21.71,-11.32 c -0.25,2.66 -1.06,11.71 -1.1,14.51 a 6.37,6.37 0 0 1 -0.43,2.31 v 0 a 4.53,4.53 0 0 1 -3.29,2.73 z"
         style="fill:#263238"
         clip-path="url(#freepik--clip-path--inject-2)"
         id="path14" />
    </clipPath>
    <clipPath
       id="freepik--clip-path-6--inject-2">
      <path
         d="m 99.61,178.87 c -6.84,4.41 -12.6,9 -15.14,23.39 -2.54,14.39 3.53,24.17 3.53,24.17 a 37.56,37.56 0 0 0 5.1,6.74 c 3.89,4.35 20.8,9.94 25.74,9.61 4.94,-0.33 11.35,-8.83 13.78,-21 2.43,-12.17 0.07,-15 -3.38,-30.62 -3.45,-15.62 -11.9,-17.16 -11.9,-17.16 0,0 -8.34,-1.17 -17.73,4.87 z"
         style="fill:none"
         id="path17" />
    </clipPath>
    <clipPath
       id="freepik--clip-path-7--inject-2">
      <path
         d="m 89.62,224.89 c 0,0 -3.28,2.43 -6.65,-1.35 -3.37,-3.78 -5.86,-10.28 -2,-12.81 3.86,-2.53 7.87,6.53 7.87,6.53"
         style="fill:none"
         id="path20" />
    </clipPath>
    <clipPath
       id="freepik--clip-path-8--inject-2">
      <path
         d="m 99.17,375.88 a 0.45,0.45 0 0 1 -0.2,0 c -7.17,-3.09 -16.1,-10.31 -24.73,-17.29 -4.95,-4 -10.06,-8.14 -14.67,-11.34 -10.51,-7.3 -6.83,-18.25 -6.38,-19.47 v 0 C 54,324.72 69.38,267 70.65,264 c 3.13,-7.35 8.2,-16.89 16.06,-15 a 9.16,9.16 0 0 1 6.13,5 c 9,17.66 -13.31,73.39 -15.42,78.57 1.46,1.52 7.54,8.46 14.51,16.41 5.08,5.79 10.33,11.78 14,16 a 0.49,0.49 0 0 1 0,0.63 43.23,43.23 0 0 0 -3.19,5 43.53,43.53 0 0 1 -3.24,5.08 0.49,0.49 0 0 1 -0.33,0.19 z M 84.73,249.73 c -6.18,0 -10.42,8.19 -13.16,14.61 -1,2.42 -16.66,60.26 -17.41,63.66 -0.45,1.24 -3.91,11.52 6,18.39 4.64,3.22 9.77,7.37 14.72,11.38 8.44,6.82 17.16,13.88 24.15,17 a 46.45,46.45 0 0 0 2.92,-4.66 49.11,49.11 0 0 1 3,-4.79 c -3.69,-4.15 -8.81,-10 -13.77,-15.65 C 84,341.51 77.25,333.79 76.5,333.09 a 0.51,0.51 0 0 1 -0.13,-0.56 c 0.25,-0.6 24.61,-60.31 15.58,-78 A 8.2,8.2 0 0 0 86.48,250 7.23,7.23 0 0 0 84.73,249.73 Z"
         style="fill:#263238"
         clip-path="url(#freepik--clip-path-2--inject-2)"
         id="path23" />
    </clipPath>
    <clipPath
       id="freepik--clip-path-9--inject-2">
      <path
         d="m 139.26,398.86 c -20,0 -39.17,-5.47 -49.49,-15.15 a 0.48,0.48 0 0 1 -0.16,-0.35 c -0.21,-9.8 1.39,-17.66 2.81,-24.6 2.29,-11.27 4.28,-21 -1.77,-35.24 -1.71,-4 -3.72,-8.14 -5.84,-12.49 -5.22,-10.67 -10.61,-21.7 -12,-32.56 l -0.11,-0.88 c -1.34,-10.77 -2.39,-19.28 3.86,-25.13 a 16.16,16.16 0 0 1 10.47,-4.16 c 33.09,-1.29 54.11,21.77 54.75,22.49 10.94,10.73 18.27,28.94 17.05,42.35 -1.06,11.55 -0.92,12 0,14.58 0.63,1.83 1.58,4.6 2.74,12.29 3.78,24.9 4.36,54.74 4.37,55 a 0.5,0.5 0 0 1 -0.37,0.49 103.51,103.51 0 0 1 -26.31,3.36 z M 90.61,383.13 c 14.67,13.58 47.19,18.62 74.34,11.54 -0.08,-3.6 -0.81,-31.23 -4.35,-54.51 -1.15,-7.6 -2.08,-10.32 -2.69,-12.11 -1,-2.8 -1.11,-3.24 0,-15 1.2,-13.15 -6,-31 -16.76,-41.56 v 0 c -0.21,-0.24 -21,-23.45 -54,-22.17 a 15.16,15.16 0 0 0 -9.82,3.89 c -5.89,5.5 -4.86,13.79 -3.55,24.28 l 0.11,0.88 c 1.28,10.63 6.64,21.63 11.82,32.22 2.13,4.36 4.14,8.48 5.86,12.54 6.17,14.52 4.16,24.4 1.83,35.83 -1.46,7.17 -2.97,14.58 -2.79,24.17 z"
         style="fill:#263238"
         clip-path="url(#freepik--clip-path-3--inject-2)"
         id="path26" />
    </clipPath>
    <clipPath
       id="freepik--clip-path-10--inject-2">
      <path
         d="m 170.53,344.51 a 9.42,9.42 0 0 1 -4.67,-1.28 122.58,122.58 0 0 1 -47,-46.76 c -5.63,-10.05 -6.65,-18.18 -3,-24.18 3.35,-5.55 11.95,-9.84 18.44,-7.27 4.71,1.85 8,6 11.2,10.41 4.26,5.88 14,21.17 19.78,30.31 1.7,2.67 3,4.78 3.79,5.94 11.37,-11.41 23.51,-24.62 36.1,-39.25 0.65,-0.77 1.83,-1 3.49,-0.72 4.46,0.78 11.19,5.09 12.69,9 a 0.53,0.53 0 0 1 0,0.41 C 211,300.88 201.9,316.44 188.1,333 c -3.39,4.06 -6.45,7.2 -10.34,9.26 a 15.69,15.69 0 0 1 -7.23,2.25 z M 130,265.24 a 16.74,16.74 0 0 0 -13.36,7.57 c -3.42,5.66 -2.4,13.46 3,23.17 a 121.65,121.65 0 0 0 46.66,46.38 c 3.7,2 6.82,1.18 10.94,-1 3.75,-2 6.72,-5 10,-9 13.69,-16.41 22.77,-31.87 32.93,-51.47 -1.5,-3.43 -7.84,-7.48 -11.84,-8.17 -1.26,-0.22 -2.17,-0.08 -2.57,0.38 -12.76,14.84 -25.07,28.21 -36.58,39.74 a 0.49,0.49 0 0 1 -0.4,0.15 0.53,0.53 0 0 1 -0.37,-0.22 c -0.63,-1 -2.14,-3.33 -4.13,-6.47 -5.8,-9.13 -15.51,-24.41 -19.75,-30.26 -3.13,-4.31 -6.3,-8.32 -10.75,-10.07 A 10.36,10.36 0 0 0 130,265.24 Z"
         style="fill:#263238"
         clip-path="url(#freepik--clip-path-4--inject-2)"
         id="path29" />
    </clipPath>
  </defs>
  <g
     id="freepik--background-simple--inject-2"
     transform="translate(-22.059228,-24.462795)">
    <path
       d="M 117.18,42.45 C 95.69,48.07 75.08,61.69 57.47,80.75 39.86,99.81 25.88,127.93 23,159.88 c -2.93,32.89 6,65.66 17.57,94.14 11.57,28.48 17.94,53.5 27.46,83.56 8.38,26.45 13,55.73 24.27,79.71 15.36,32.65 41.69,51.46 68.35,57 26.66,5.54 61.72,0.29 87.9,-9.05 54.53,-19.46 106.86,-51.91 155,-94.53 21.78,-19.3 43.26,-41.47 57.26,-72.76 15.82,-35.36 20.57,-81.06 12.65,-121.79 C 467,142.81 451.82,112 431.88,93.33 423.37,85.37 338.28,-15.44 117.18,42.45 Z"
       style="fill:#439a86"
       id="path34" />
    <path
       d="m 460.43,297.83 c -14,31.29 -35.49,53.46 -57.26,72.76 -48.12,42.62 -100.44,75.07 -155,94.54 -20.36,7.26 -46.09,12.05 -69.06,11.21 a 111.38,111.38 0 0 1 -18.84,-2.18 c -26.67,-5.55 -53,-24.36 -68.35,-57 -1.48,-3.16 -2.85,-6.41 -4.14,-9.74 -8.42,-21.9 -12.86,-47 -20.12,-70 C 58.14,307.35 51.74,282.33 40.19,253.85 28.64,225.37 19.69,192.6 22.62,159.71 25.5,127.79 39.49,99.66 57.1,80.6 74.71,61.54 95.31,47.93 116.81,42.31 337.9,-15.59 423,85.23 431.5,93.18 c 19.94,18.64 35.1,49.49 41.59,82.86 7.91,40.73 3.16,86.43 -12.66,121.79 z"
       style="opacity:0.7;fill:#ffffff"
       id="path36" />
  </g>
  <g
     id="freepik--Plant--inject-2"
     transform="translate(-22.059228,-24.462795)">
    <path
       d="m 276.89,452.08 c -0.14,0.23 1.07,1.44 -3,1.5 -10.08,0.15 -27.87,-1 -34.32,-10.33 -9.21,-13.33 12.79,-11.55 10.84,-18.82 -1.95,-7.27 -25.77,-2 -30.12,-12.41 -4.35,-10.41 12.81,-7.95 12.15,-13.27 -0.66,-5.32 -18.9,1.07 -24.56,-10 -5.66,-11.07 10,-4.81 7.52,-9.41 -2.48,-4.6 -22,-23.94 -13.75,-27.93 8.25,-3.99 26.53,16.17 32.68,18.44 6.15,2.27 8.09,-17 16.07,-10.31 7.98,6.69 1.87,35.63 11.29,39.49 7,2.88 3.42,-7.65 12.16,-7 11.83,0.83 14.66,41.74 3.04,60.05 z"
       style="fill:#439a86"
       id="path39" />
    <g
       style="opacity:0.1"
       id="g43">
      <path
         d="m 276.89,452.08 c -0.14,0.23 1.07,1.44 -3,1.5 -10.08,0.15 -27.87,-1 -34.32,-10.33 -9.21,-13.33 12.79,-11.55 10.84,-18.82 -1.95,-7.27 -25.77,-2 -30.12,-12.41 -4.35,-10.41 12.81,-7.95 12.15,-13.27 -0.66,-5.32 -18.9,1.07 -24.56,-10 -5.66,-11.07 10,-4.81 7.52,-9.41 -2.48,-4.6 -22,-23.94 -13.75,-27.93 8.25,-3.99 26.53,16.17 32.68,18.44 6.15,2.27 8.09,-17 16.07,-10.31 7.98,6.69 1.87,35.63 11.29,39.49 7,2.88 3.42,-7.65 12.16,-7 11.83,0.83 14.66,41.74 3.04,60.05 z"
         id="path41" />
    </g>
    <path
       d="m 277.13,454.21 a 0.5,0.5 0 0 1 -0.49,-0.39 1.66,1.66 0 0 0 -0.06,-0.21 L 276.4,453 c -0.57,-1.88 -1.09,-3.54 -1.6,-5.08 -1.2,-3.52 -2.45,-6.87 -3.74,-9.95 -1.29,-3.08 -2.56,-5.92 -4,-8.85 -0.57,-1.14 -1.14,-2.28 -1.73,-3.37 a 131.53,131.53 0 0 0 -11.1,-17.55 c -2.22,-2.95 -4.56,-5.76 -6.95,-8.36 a 70.52,70.52 0 0 0 -8.92,-8.38 0.49406477,0.49406477 0 1 1 0.58,-0.8 67.6,67.6 0 0 1 9.08,8.51 c 2.4,2.62 4.76,5.45 7,8.43 a 132.45,132.45 0 0 1 11.18,17.68 c 0.64,1.18 1.24,2.38 1.75,3.4 1.45,2.95 2.82,5.95 4,8.91 1.18,2.96 2.55,6.47 3.75,10 0.52,1.54 1.05,3.21 1.62,5.1 l 0.18,0.59 a 2.64,2.64 0 0 1 0.07,0.3 0.5,0.5 0 0 1 -0.38,0.6 z"
       style="fill:#263238"
       id="path45" />
    <path
       d="m 247.64,400 a 0.51,0.51 0 0 1 -0.17,0 c -0.06,0 -5.73,-2 -15,-0.26 a 0.5,0.5 0 0 1 -0.58,-0.4 0.49,0.49 0 0 1 0.4,-0.58 c 9.52,-1.77 15.24,0.21 15.47,0.3 a 0.5,0.5 0 0 1 0.31,0.63 0.5,0.5 0 0 1 -0.43,0.31 z"
       style="fill:#263238"
       id="path47" />
    <path
       d="m 254.62,408.41 v 0 a 0.5,0.5 0 0 1 -0.49,-0.51 c 0.73,-20.06 -10.47,-36 -10.58,-36.21 a 0.5,0.5 0 1 1 0.81,-0.58 c 0.12,0.16 11.51,16.42 10.77,36.82 a 0.5,0.5 0 0 1 -0.51,0.48 z"
       style="fill:#263238"
       id="path49" />
    <path
       d="m 265.78,426 a 0.51,0.51 0 0 1 -0.36,-0.15 c -0.08,-0.08 -8.14,-7.91 -19.05,-4.33 a 0.5012235,0.5012235 0 0 1 -0.32,-0.95 c 11.51,-3.79 20,4.49 20.08,4.57 a 0.51,0.51 0 0 1 -0.35,0.86 z"
       style="fill:#263238"
       id="path51" />
    <path
       d="m 271.53,438.28 a 0.54,0.54 0 0 1 -0.21,0 0.5,0.5 0 0 1 -0.25,-0.66 c 0.05,-0.1 4.62,-10.31 2.69,-24.68 a 0.5,0.5 0 0 1 0.42,-0.57 0.51,0.51 0 0 1 0.57,0.43 c 2,14.68 -2.72,25.13 -2.77,25.24 a 0.49,0.49 0 0 1 -0.45,0.24 z"
       style="fill:#263238"
       id="path53" />
    <path
       d="m 280.13,452.86 h -0.05 a 0.5,0.5 0 0 1 -0.45,-0.55 2.64,2.64 0 0 0 0,-0.28 v -0.19 c 0,-0.54 0.09,-1.08 0.13,-1.62 0.04,-0.54 0.07,-0.76 0.1,-1.13 0.16,-1.88 0.34,-3.89 0.56,-5.93 0.73,-7.05 1.69,-13.91 2.86,-20.39 0.17,-0.94 0.33,-1.8 0.5,-2.66 1.29,-6.65 2.81,-13 4.54,-18.84 v 0 c 0.22,-0.75 0.45,-1.5 0.68,-2.25 l 0.27,-0.86 c 0.27,-0.85 0.55,-1.71 0.83,-2.55 0.6,-1.81 1.3,-3.95 1.93,-6.11 1.24,-4.17 2.34,-8.37 3.27,-12.49 0,0 0,-0.05 0,-0.08 v 0 c 0.59,-2.6 1.07,-4.95 1.47,-7.2 a 156.3,156.3 0 0 0 2.61,-26.56 c 0,-3.52 -0.07,-7 -0.31,-10.38 a 99,99 0 0 0 -1.28,-10.57 c -0.05,-0.25 -0.09,-0.49 -0.13,-0.72 v -0.2 0 -0.08 0 a 0.53,0.53 0 0 1 0,-0.44 0.51,0.51 0 0 1 0.67,-0.21 0.5,0.5 0 0 1 0.27,0.43 0.34,0.34 0 0 1 0,0.1 l 0.06,0.25 0.12,0.71 a 98.45,98.45 0 0 1 1.3,10.68 c 0.24,3.39 0.34,6.91 0.31,10.46 a 157.29,157.29 0 0 1 -2.63,26.73 c -0.4,2.26 -0.88,4.63 -1.47,7.24 v 0 0.05 c -0.93,4.14 -2,8.35 -3.28,12.53 a 0.07,0.07 0 0 1 0,0.05 c -0.64,2.19 -1.34,4.36 -2,6.19 -0.29,0.84 -0.56,1.68 -0.83,2.53 l -0.26,0.86 c -0.23,0.74 -0.46,1.48 -0.68,2.23 v 0 c -1.72,5.82 -3.24,12.13 -4.52,18.75 -0.17,0.86 -0.33,1.71 -0.49,2.57 -1.17,6.53 -2.13,13.37 -2.85,20.39 -0.23,2 -0.41,4 -0.57,5.91 0,0.38 -0.06,0.76 -0.1,1.14 -0.04,0.38 -0.08,1.07 -0.12,1.61 v 0.15 c 0,0.09 0,0.21 0,0.34 a 0.51,0.51 0 0 1 -0.46,0.39 z"
       style="fill:#263238"
       id="path55" />
    <path
       d="m 298.18,321.13 c 0,0 0,0 0,0 0,0 0,0 0,0 a 20.14,20.14 0 0 0 -3.65,-2.72 19.43,19.43 0 0 0 -4.6,-1.88"
       style="fill:#ffffff"
       id="path57" />
    <path
       d="m 298.18,321.63 a 0.49,0.49 0 0 1 -0.38,-0.18 v 0 a 18.86,18.86 0 0 0 -3.57,-2.64 19.3,19.3 0 0 0 -4.46,-1.84 0.5153882,0.5153882 0 1 1 0.25,-1 20,20 0 0 1 4.71,1.94 20.61,20.61 0 0 1 3.75,2.78 v 0 l 0.06,0.06 a 0.42,0.42 0 0 1 0.11,0.16 0.49,0.49 0 0 1 -0.24,0.66 0.54,0.54 0 0 1 -0.23,0.06 z m 0,-0.5 z"
       style="fill:#263238"
       id="path59" />
    <path
       d="m 299.63,333.17 a 0.5,0.5 0 0 1 -0.32,-0.88 l 4.36,-3.73 a 0.500025,0.500025 0 0 1 0.65,0.76 l -4.32,3.73 a 0.52,0.52 0 0 1 -0.37,0.12 z"
       style="fill:#263238"
       id="path61" />
    <path
       d="m 292.56,390 a 0.46,0.46 0 0 1 -0.5,-0.45 v 0 a 15.82,15.82 0 0 0 -0.87,-3.12 16.18,16.18 0 0 0 -2.34,-4.25 16,16 0 0 0 -2.51,-2.63 0.50383529,0.50383529 0 0 1 0.65,-0.77 17.92,17.92 0 0 1 2.66,2.79 17.52,17.52 0 0 1 2.48,4.5 16.8,16.8 0 0 1 0.92,3.39 0.54,0.54 0 0 1 -0.49,0.54 z"
       style="fill:#263238"
       id="path63" />
    <path
       d="m 288.82,401.92 a 0.71,0.71 0 0 1 -0.2,0 0.51,0.51 0 0 1 -0.26,-0.66 12.21,12.21 0 0 1 7.13,-6.64 0.50284192,0.50284192 0 1 1 0.33,0.95 11.2,11.2 0 0 0 -6.54,6.08 0.51,0.51 0 0 1 -0.46,0.27 z"
       style="fill:#263238"
       id="path65" />
    <path
       d="m 295.84,377.5 v 0 a 0.49,0.49 0 0 1 -0.47,-0.52 c 0,-0.26 1.33,-25.71 -12.23,-35.23 a 0.50219518,0.50219518 0 0 1 0.58,-0.82 c 14,9.85 12.71,35 12.64,36.1 a 0.49,0.49 0 0 1 -0.52,0.47 z"
       style="fill:#263238"
       id="path67" />
    <path
       d="m 296,436.51 c 0.13,6.32 -15.54,13.8 -15.54,13.8 0,0 -16,-6.81 -16.11,-13.13 -0.11,-6.32 6.78,-14.62 15.52,-14.81 8.74,-0.19 15.95,7.82 16.13,14.14 z"
       style="fill:#439a86"
       id="path69" />
    <path
       d="m 312.08,359.76 c -1.84,6.37 -14.29,10.56 -14.29,10.56 0,0 -8.3,-10.19 -6.46,-16.55 1.84,-6.36 8.85,-13.23 14.58,-11.57 5.73,1.66 8,11.2 6.17,17.56 z"
       style="fill:#439a86"
       id="path71" />
    <path
       d="m 279,379.35 a 16.44,16.44 0 0 0 5.2,3.14 5.59,5.59 0 0 0 5.68,-1.17 c 1.71,-1.85 1.35,-4.82 0.38,-7.15 -1.94,-4.61 -9.33,-12.56 -15.25,-10.52 -8.55,2.96 0.31,12.79 3.99,15.7 z"
       style="fill:#439a86"
       id="path73" />
    <path
       d="m 296,391.46 c -1.14,1.34 -2.37,3 -1.81,4.72 a 3.54,3.54 0 0 0 3.83,2 10.48,10.48 0 0 0 4.25,-1.92 c 3,-2 9.28,-6.16 5.5,-10.34 -3.98,-4.32 -9.38,2.71 -11.77,5.54 z"
       style="fill:#439a86"
       id="path75" />
    <path
       d="m 272.69,332.87 a 3.06,3.06 0 0 0 -2.85,2.18 c -0.3,1.47 0.89,2.8 2.05,3.75 2.9,2.37 11.62,8.8 13.78,2.91 2.05,-5.56 -9.03,-9.16 -12.98,-8.84 z"
       style="fill:#439a86"
       id="path77" />
    <path
       d="m 289.68,313.79 c -1.85,0.12 -3.66,-0.6 -5.5,-0.53 -1.84,0.07 -3.94,1.48 -3.58,3.29 0.36,1.81 2.38,2.29 4.08,2.45 a 32.94,32.94 0 0 0 8.7,-0.35 2.65,2.65 0 0 0 1.79,-0.83 c 0.78,-1.08 -0.36,-2.58 -1.62,-3 -1.26,-0.42 -2.69,-0.34 -3.82,-1 z"
       style="fill:#439a86"
       id="path79" />
    <path
       d="m 307.26,327 c 1.85,0.11 3.65,-0.63 5.5,-0.58 1.85,0.05 3.94,1.46 3.6,3.27 -0.34,1.81 -2.36,2.31 -4.06,2.44 a 33.44,33.44 0 0 1 -8.71,-0.28 2.65,2.65 0 0 1 -1.79,-0.83 c -0.79,-1.06 0.34,-2.58 1.6,-3 1.26,-0.42 2.69,-0.36 3.81,-1.06 z"
       style="fill:#439a86"
       id="path81" />
    <path
       d="m 298.18,321.85 a 0.5,0.5 0 0 1 -0.49,-0.46 c -0.16,-1.82 -0.51,-7.82 1.51,-8.44 a 0.5,0.5 0 1 1 0.29,0.95 c -0.84,0.26 -1.1,4 -0.81,7.4 a 0.49,0.49 0 0 1 -0.45,0.54 z"
       style="fill:#263238"
       id="path83" />
    <path
       d="m 296.85,313.6 c 1.19,-2.46 2.47,-5.05 4.73,-6.59 2.26,-1.54 5.81,-1.56 7.36,0.7 1.73,2.52 -0.18,6.23 -3,7.47 -2.82,1.24 -6,0.74 -9,0.23 v -1.35 z"
       style="fill:#439a86"
       id="path85" />
    <path
       d="m 288.92,440.55 c 8.14,1.57 23.4,-3.6 30.16,-10 6.76,-6.4 -9.58,-4.59 -7,-10.19 2.58,-5.6 21.14,2.08 26.16,-5.72 5.02,-7.8 -9.23,-8.28 -7.93,-12.49 1.3,-4.21 15.55,-0.83 21.73,-9 6.18,-8.17 -7.37,-5.33 -4.74,-8.7 2.63,-3.37 21.22,-16.23 15.14,-20.63 -6.08,-4.4 -23.79,9.27 -29.09,10.22 -5.3,0.95 -4.52,-10.48 -11.94,-6.23 -7.42,4.25 -6.63,28.57 -14.81,30.34 -6.09,1.33 -1.81,-9 -8.83,-7.43 -12.25,2.76 -12.15,49.19 -8.85,49.83 z"
       style="fill:#439a86"
       id="path87" />
    <g
       style="opacity:0.2"
       id="g91">
      <path
         d="m 288.92,440.55 c 8.14,1.57 23.4,-3.6 30.16,-10 6.76,-6.4 -9.58,-4.59 -7,-10.19 2.58,-5.6 21.14,2.08 26.16,-5.72 5.02,-7.8 -9.23,-8.28 -7.93,-12.49 1.3,-4.21 15.55,-0.83 21.73,-9 6.18,-8.17 -7.37,-5.33 -4.74,-8.7 2.63,-3.37 21.22,-16.23 15.14,-20.63 -6.08,-4.4 -23.79,9.27 -29.09,10.22 -5.3,0.95 -4.52,-10.48 -11.94,-6.23 -7.42,4.25 -6.63,28.57 -14.81,30.34 -6.09,1.33 -1.81,-9 -8.83,-7.43 -12.25,2.76 -12.15,49.19 -8.85,49.83 z"
         style="fill:#ffffff"
         id="path89" />
    </g>
    <path
       d="m 286.12,450.06 a 0.47,0.47 0 0 1 -0.17,0 0.5,0.5 0 0 1 -0.29,-0.64 l 0.14,-0.39 c 0.37,-1 0.75,-1.92 1.13,-2.86 0.84,-2.06 1.65,-3.91 2.45,-5.66 1.41,-3.1 3,-6.25 4.66,-9.35 A 163.91,163.91 0 0 1 306.2,412 c 2.12,-2.88 4.43,-5.82 6.87,-8.72 14,-16.63 26.87,-25.61 27,-25.7 a 0.50062461,0.50062461 0 0 1 0.56,0.83 c -0.12,0.08 -12.91,9 -26.8,25.51 -2.42,2.89 -4.72,5.81 -6.82,8.67 a 162,162 0 0 0 -12.09,19 c -1.67,3.08 -3.23,6.2 -4.63,9.29 -0.8,1.73 -1.6,3.57 -2.43,5.62 -0.38,0.94 -0.76,1.88 -1.12,2.84 l -0.15,0.38 a 0.5,0.5 0 0 1 -0.47,0.34 z"
       style="fill:#263238"
       id="path93" />
    <path
       d="m 320.43,397.66 a 0.49,0.49 0 0 1 -0.5,-0.47 0.48,0.48 0 0 1 0.35,-0.5 0.17,0.17 0 0 1 0.1,0 l 0.23,-0.06 a 43.56,43.56 0 0 1 17.63,-0.39 0.5,0.5 0 0 1 0.39,0.59 0.5,0.5 0 0 1 -0.58,0.39 42.57,42.57 0 0 0 -17.21,0.39 l -0.24,0.05 h -0.14 z"
       style="fill:#263238"
       id="path95" />
    <path
       d="m 313.44,404.26 v 0 a 0.5,0.5 0 0 1 -0.46,-0.54 c 1.42,-18 13.1,-31 13.21,-31.16 a 0.5,0.5 0 0 1 0.74,0.67 c -0.11,0.13 -11.56,12.9 -13,30.57 a 0.49,0.49 0 0 1 -0.49,0.46 z"
       style="fill:#263238"
       id="path97" />
    <path
       d="m 305.84,413.31 a 0.52,0.52 0 0 1 -0.4,-0.21 0.51,0.51 0 0 1 0.11,-0.7 19,19 0 0 1 18,-1.33 0.51,0.51 0 0 1 0.25,0.66 0.5,0.5 0 0 1 -0.66,0.25 18,18 0 0 0 -17,1.23 0.47,0.47 0 0 1 -0.3,0.1 z"
       style="fill:#263238"
       id="path99" />
    <path
       d="m 295.56,428.59 a 0.5,0.5 0 0 1 -0.48,-0.34 44.59,44.59 0 0 1 0.13,-22.5 0.5153882,0.5153882 0 0 1 1,0.25 43.46,43.46 0 0 0 -0.15,21.94 0.49,0.49 0 0 1 -0.32,0.63 z"
       style="fill:#263238"
       id="path101" />
  </g>
  <g
     id="freepik--Graphics--inject-2"
     transform="translate(-22.059228,-24.462795)">
    <path
       d="m 66.93,154 a 0.51,0.51 0 0 1 -0.5,-0.5 0.5,0.5 0 0 1 0.5,-0.5 24.64,24.64 0 1 0 0,-49.27 0.5,0.5 0 0 1 -0.5,-0.5 0.51,0.51 0 0 1 0.5,-0.5 25.64,25.64 0 1 1 0,51.27 z"
       style="fill:#263238"
       id="path104" />
    <path
       d="m 66.93,154 a 0.52,0.52 0 0 1 -0.45,-0.28 0.5,0.5 0 0 1 0.24,-0.67 C 66.84,153 79,146.89 79,128.38 79,109.87 66.84,103.76 66.72,103.71 a 0.50323951,0.50323951 0 0 1 0.43,-0.91 C 67.28,102.87 80,109.19 80,128.38 80,147.57 67.28,153.91 67.15,154 a 0.54,0.54 0 0 1 -0.22,0 z"
       style="fill:#263238"
       id="path106" />
    <path
       d="m 66.93,154 a 0.51,0.51 0 0 1 -0.5,-0.5 v -50.25 a 0.51,0.51 0 0 1 0.5,-0.5 0.5,0.5 0 0 1 0.5,0.5 v 50.27 a 0.5,0.5 0 0 1 -0.5,0.48 z"
       style="fill:#263238"
       id="path108" />
    <path
       d="m 67.06,154 a 25.64,25.64 0 0 1 0,-51.27 0.5,0.5 0 0 1 0.5,0.5 0.5,0.5 0 0 1 -0.5,0.5 24.64,24.64 0 0 0 0,49.27 0.5,0.5 0 0 1 0.5,0.5 0.5,0.5 0 0 1 -0.5,0.5 z"
       style="fill:#263238"
       id="path110" />
    <path
       d="m 67.06,154 a 0.54,0.54 0 0 1 -0.21,-0.05 C 66.72,153.89 54,147.53 54,128.36 54,109.19 66.72,102.85 66.85,102.78 a 0.49,0.49 0 0 1 0.66,0.24 0.5,0.5 0 0 1 -0.23,0.67 C 67.16,103.74 55,109.83 55,128.36 55,146.89 67.16,153 67.28,153.07 a 0.51195703,0.51195703 0 0 1 -0.22,1 z"
       style="fill:#263238"
       id="path112" />
    <path
       d="m 67.06,154 a 0.51,0.51 0 0 1 -0.5,-0.5 v -50.25 a 0.51,0.51 0 0 1 0.5,-0.5 0.5,0.5 0 0 1 0.5,0.5 v 50.27 a 0.5,0.5 0 0 1 -0.5,0.48 z"
       style="fill:#263238"
       id="path114" />
    <path
       d="m 67.06,103.75 h -0.13 a 0.5,0.5 0 0 1 -0.5,-0.5 0.51,0.51 0 0 1 0.5,-0.5 h 0.13 a 0.5,0.5 0 0 1 0.5,0.5 0.5,0.5 0 0 1 -0.5,0.5 z"
       style="fill:#263238"
       id="path116" />
    <path
       d="M 90.64,120.51 H 43.36 a 0.5,0.5 0 0 1 0,-1 h 47.28 a 0.5,0.5 0 0 1 0,1 z"
       style="fill:#263238"
       id="path118" />
    <path
       d="M 90.64,137.26 H 43.36 a 0.5,0.5 0 0 1 0,-1 h 47.28 a 0.5,0.5 0 0 1 0,1 z"
       style="fill:#263238"
       id="path120" />
    <path
       d="m 67.06,154 h -0.13 a 0.51,0.51 0 0 1 -0.5,-0.5 0.5,0.5 0 0 1 0.5,-0.5 h 0.13 a 0.5,0.5 0 0 1 0.5,0.5 0.5,0.5 0 0 1 -0.5,0.5 z"
       style="fill:#263238"
       id="path122" />
    <path
       d="m 466.75,230.17 v 0 a 0.48,0.48 0 0 1 -0.34,-0.18 l -4.82,-5.85 -5.59,4.46 a 0.52,0.52 0 0 1 -0.47,0.08 0.48,0.48 0 0 1 -0.32,-0.34 l -6.77,-24.71 a 0.51,0.51 0 0 1 0.17,-0.52 0.48,0.48 0 0 1 0.55,-0.05 l 22.66,12 a 0.52,0.52 0 0 1 0.27,0.4 0.53,0.53 0 0 1 -0.19,0.44 l -5.73,4.57 4.72,5.73 a 0.5,0.5 0 0 1 -0.07,0.7 l -3.71,3.13 a 0.52,0.52 0 0 1 -0.36,0.14 z M 461.63,223 a 0.49,0.49 0 0 1 0.38,0.18 l 4.81,5.83 2.95,-2.49 -4.77,-5.79 a 0.54,0.54 0 0 1 -0.11,-0.37 0.51,0.51 0 0 1 0.19,-0.34 l 5.53,-4.41 -21,-11.13 6.26,22.86 5.37,-4.29 a 0.55,0.55 0 0 1 0.39,-0.05 z"
       style="fill:#263238"
       id="path124" />
    <path
       d="m 443.61,198.41 a 0.52,0.52 0 0 1 -0.35,-0.14 l -3,-3 a 0.49497475,0.49497475 0 0 1 0.7,-0.7 l 3,3 a 0.51,0.51 0 0 1 0,0.71 0.54,0.54 0 0 1 -0.35,0.13 z"
       style="fill:#263238"
       id="path126" />
    <path
       d="m 441.58,203.3 h -4.26 a 0.5,0.5 0 0 1 0,-1 h 4.26 a 0.5,0.5 0 0 1 0,1 z"
       style="fill:#263238"
       id="path128" />
    <path
       d="m 453.38,198.42 a 0.5,0.5 0 0 1 -0.35,-0.85 l 3,-3 a 0.5,0.5 0 0 1 0.71,0 0.5,0.5 0 0 1 0,0.7 l -3,3 a 0.51,0.51 0 0 1 -0.36,0.15 z"
       style="fill:#263238"
       id="path130" />
    <path
       d="m 440.6,211.2 a 0.5,0.5 0 0 1 -0.35,-0.85 l 3,-3 a 0.5,0.5 0 0 1 0.71,0 0.5,0.5 0 0 1 0,0.7 l -3,3 a 0.52,0.52 0 0 1 -0.36,0.15 z"
       style="fill:#263238"
       id="path132" />
    <path
       d="m 448.5,196.39 a 0.5,0.5 0 0 1 -0.5,-0.5 v -4.26 a 0.5,0.5 0 0 1 0.5,-0.5 0.5,0.5 0 0 1 0.5,0.5 v 4.26 a 0.5,0.5 0 0 1 -0.5,0.5 z"
       style="fill:#263238"
       id="path134" />
    <path
       d="m 359.38,318 a 9.58,9.58 0 0 1 2.62,0.36 11.09,11.09 0 0 1 1.19,0.44 9.4,9.4 0 0 1 3.52,2.7 6.55,6.55 0 0 1 0.62,0.89 9.3,9.3 0 0 1 0.39,9.4 4.41,4.41 0 0 1 -1.91,-0.56 7.51,7.51 0 0 0 1.05,-3.82 7.36,7.36 0 0 0 -1.75,-4.77 6.36,6.36 0 0 0 -0.8,-0.83 7.34,7.34 0 0 0 -4.45,-1.84 4.1,4.1 0 0 0 -0.48,0 h -10.44 a 7.47,7.47 0 1 0 0,14.94 h 9.23 l 0.18,0.23 a 12.2,12.2 0 0 0 1.67,1.7 c -0.21,0 -0.42,0 -0.64,0 h -10.44 a 9.42,9.42 0 1 1 0,-18.84 h 10.44 m 0,-1 h -10.44 a 10.42,10.42 0 1 0 0,20.84 h 10.44 a 10.15,10.15 0 0 0 3.19,-0.5 11.23,11.23 0 0 1 -3.44,-2.84 c -0.16,-0.2 -0.32,-0.4 -0.46,-0.61 h -9.73 a 6.47,6.47 0 1 1 0,-12.94 h 10.44 a 2.36,2.36 0 0 1 0.38,0 6.23,6.23 0 0 1 3.88,1.59 4.63,4.63 0 0 1 0.69,0.71 6.3,6.3 0 0 1 1.53,4.14 6.4,6.4 0 0 1 -1.44,4.06 5.42,5.42 0 0 0 3.26,1.32 h 0.6 a 10.29,10.29 0 0 0 -0.11,-11 7,7 0 0 0 -0.68,-1 10.38,10.38 0 0 0 -3.9,-3 11.5,11.5 0 0 0 -1.32,-0.48 10.24,10.24 0 0 0 -2.89,-0.4 z"
       style="fill:#263238"
       id="path136" />
    <path
       d="m 378.45,317.89 a 9.42,9.42 0 1 1 0,18.83 H 368 a 9.19,9.19 0 0 1 -2.63,-0.37 9.58,9.58 0 0 1 -4.7,-3.12 8.1,8.1 0 0 1 -0.63,-0.89 9.34,9.34 0 0 1 -0.38,-9.41 v 0 a 4.56,4.56 0 0 1 1.91,0.56 7.43,7.43 0 0 0 -1.06,3.82 7.27,7.27 0 0 0 1.76,4.78 6.84,6.84 0 0 0 0.8,0.84 7.42,7.42 0 0 0 4.44,1.82 4.19,4.19 0 0 0 0.48,0 h 10.44 a 7.47,7.47 0 1 0 0,-14.93 h -9.23 l -0.18,-0.23 a 11.67,11.67 0 0 0 -1.67,-1.7 c 0.21,0 0.42,0 0.64,0 h 10.44 m 0,-1 H 368 a 10.31,10.31 0 0 0 -3.17,0.49 11.55,11.55 0 0 1 3.42,2.85 c 0.16,0.2 0.31,0.4 0.45,0.61 h 9.74 a 6.47,6.47 0 1 1 0,12.93 H 368 a 2.36,2.36 0 0 1 -0.38,0 6.34,6.34 0 0 1 -3.88,-1.58 4.57,4.57 0 0 1 -0.68,-0.71 6.29,6.29 0 0 1 -1.54,-4.15 6.37,6.37 0 0 1 1.44,-4.05 5.29,5.29 0 0 0 -3.26,-1.33 h -0.6 a 10.33,10.33 0 0 0 0.1,11 8,8 0 0 0 0.69,1 10.47,10.47 0 0 0 3.91,3 11.14,11.14 0 0 0 1.3,0.47 9.92,9.92 0 0 0 2.9,0.41 h 10.44 a 10.42,10.42 0 1 0 0,-20.83 z"
       style="fill:#263238"
       id="path138" />
  </g>
  <g
     id="freepik--Window--inject-2"
     transform="translate(-22.059228,-24.462795)">
    <rect
       x="97.269997"
       y="50.34"
       width="334.45001"
       height="249.75999"
       style="fill:#999999"
       id="rect141" />
    <path
       d="M 432.22,300.6 H 96.77 V 49.84 h 335.45 z m -334.45,-1 H 431.22 V 50.84 H 97.77 Z"
       style="fill:#263238"
       id="path143" />
    <rect
       x="100.86"
       y="68.32"
       width="327.31"
       height="228.11"
       style="fill:#ffffff"
       id="rect145" />
    <rect
       x="97.169998"
       y="50.34"
       width="334.45001"
       height="14.05"
       style="fill:#263238"
       id="rect147" />
    <circle
       cx="109.48"
       cy="57.240002"
       r="4.1999998"
       style="fill:#ffffff"
       id="circle149" />
    <circle
       cx="122.36"
       cy="57.240002"
       r="4.1999998"
       style="fill:#ffffff"
       id="circle151" />
    <path
       d="m 139.45,57.24 a 4.21,4.21 0 1 1 -4.2,-4.2 4.2,4.2 0 0 1 4.2,4.2 z"
       style="fill:#ffffff"
       id="path153" />
    <rect
       x="219.23"
       y="200.2"
       width="94.610001"
       height="36.93"
       rx="10.7"
       style="fill:#439a86"
       id="rect155" />
    <path
       d="m 303.14,237.63 h -73.21 a 11.21,11.21 0 0 1 -11.2,-11.2 V 210.9 a 11.21,11.21 0 0 1 11.2,-11.2 h 73.21 a 11.21,11.21 0 0 1 11.2,11.2 v 15.53 a 11.21,11.21 0 0 1 -11.2,11.2 z M 229.93,200.7 a 10.2,10.2 0 0 0 -10.2,10.2 v 15.53 a 10.2,10.2 0 0 0 10.2,10.2 h 73.21 a 10.2,10.2 0 0 0 10.2,-10.2 V 210.9 a 10.2,10.2 0 0 0 -10.2,-10.2 z"
       style="fill:#263238"
       id="path157" />
    <path
       d="m 305.16,240.81 h -76.53 a 0.5,0.5 0 0 1 0,-1 h 76.53 a 11.46,11.46 0 0 0 11.45,-11.45 v -18.05 a 0.5,0.5 0 0 1 1,0 v 18.05 a 12.46,12.46 0 0 1 -12.45,12.45 z"
       style="fill:#263238"
       id="path159" />
    <path
       d="m 247.4,221.11 a 2.8,2.8 0 0 1 -0.64,2 2.84,2.84 0 0 1 -3.71,0 2.8,2.8 0 0 1 -0.64,-2 v -5.54 a 2.8,2.8 0 0 1 0.64,-2 2.81,2.81 0 0 1 3.71,0 2.8,2.8 0 0 1 0.64,2 v 1 h -1.58 v -1.14 q 0,-1.05 -0.87,-1.05 -0.87,0 -0.87,1.05 v 5.76 c 0,0.69 0.29,1 0.87,1 0.58,0 0.87,-0.34 0.87,-1 v -1.53 h 1.58 z"
       style="fill:#263238"
       id="path161" />
    <path
       d="m 250.1,213 v 9.14 h 2.76 v 1.52 h -4.44 V 213 Z"
       style="fill:#263238"
       id="path163" />
    <path
       d="m 255.26,213 v 10.66 h -1.67 V 213 Z"
       style="fill:#263238"
       id="path165" />
    <path
       d="m 261.34,221.11 a 2.8,2.8 0 0 1 -0.64,2 2.84,2.84 0 0 1 -3.71,0 2.8,2.8 0 0 1 -0.64,-2 v -5.54 a 2.8,2.8 0 0 1 0.64,-2 2.81,2.81 0 0 1 3.71,0 2.8,2.8 0 0 1 0.64,2 v 1 h -1.58 v -1.14 q 0,-1.05 -0.87,-1.05 -0.87,0 -0.87,1.05 v 5.76 c 0,0.69 0.29,1 0.87,1 0.58,0 0.87,-0.34 0.87,-1 v -1.53 h 1.58 z"
       style="fill:#263238"
       id="path167" />
    <path
       d="m 264,220.4 v 3.27 h -1.68 V 213 H 264 v 4.64 l 2.19,-4.64 h 1.68 l -2.33,4.75 2.33,5.91 h -1.72 l -1.63,-4.25 z"
       style="fill:#263238"
       id="path169" />
    <path
       d="M 271,223.67 V 213 h 1.68 v 4.57 h 1.9 V 213 h 1.71 v 10.66 h -1.71 v -4.56 h -1.9 v 4.57 z"
       style="fill:#263238"
       id="path171" />
    <path
       d="m 281.52,217.5 v 1.5 h -2.31 v 3.13 h 2.9 v 1.52 h -4.57 V 213 h 4.57 v 1.52 h -2.9 v 3 z"
       style="fill:#263238"
       id="path173" />
    <path
       d="m 286.53,223.18 a 7.31,7.31 0 0 1 0,-0.82 v -1.67 a 1.68,1.68 0 0 0 -0.26,-1.05 1,1 0 0 0 -0.84,-0.31 h -0.58 v 4.34 h -1.67 V 213 h 2.52 a 2.15,2.15 0 0 1 2.49,2.45 v 0.84 a 2.14,2.14 0 0 1 -1.1,2.16 1.52,1.52 0 0 1 0.85,0.82 3.39,3.39 0 0 1 0.26,1.45 v 1.65 a 7.39,7.39 0 0 0 0,0.74 1.64,1.64 0 0 0 0.16,0.55 h -1.71 a 2.33,2.33 0 0 1 -0.12,-0.48 z m -1.71,-5.37 h 0.66 a 1,1 0 0 0 0.75,-0.26 1.24,1.24 0 0 0 0.25,-0.87 v -1.05 a 1.4,1.4 0 0 0 -0.2,-0.84 0.8,0.8 0 0 0 -0.65,-0.26 h -0.81 z"
       style="fill:#263238"
       id="path175" />
    <path
       d="M 293.25,217.5 V 219 H 291 v 3.13 h 2.89 v 1.52 h -4.57 V 213 h 4.57 v 1.52 H 291 v 3 z"
       style="fill:#263238"
       id="path177" />
    <rect
       x="220.23"
       y="117.95"
       width="148.06"
       height="14.08"
       style="fill:#999999"
       id="rect179" />
    <rect
       x="220.23"
       y="140.83"
       width="98.400002"
       height="14.08"
       style="fill:#999999"
       id="rect181" />
    <rect
       x="220.23"
       y="166.73"
       width="98.400002"
       height="1"
       style="fill:#263238"
       id="rect183" />
    <rect
       x="220.23"
       y="175.67999"
       width="107.59"
       height="1"
       style="fill:#263238"
       id="rect185" />
    <rect
       x="220.23"
       y="184.63"
       width="116.77"
       height="1"
       style="fill:#263238"
       id="rect187" />
    <rect
       x="402.48999"
       y="75.260002"
       width="18.6"
       height="1"
       style="fill:#263238"
       id="rect189" />
    <rect
       x="402.48999"
       y="80.300003"
       width="18.6"
       height="1"
       style="fill:#263238"
       id="rect191" />
    <rect
       x="402.48999"
       y="85.349998"
       width="18.6"
       height="1"
       style="fill:#263238"
       id="rect193" />
    <rect
       x="138.49001"
       y="75.169998"
       width="30.66"
       height="5.6300001"
       style="fill:#999999"
       id="rect195" />
    <rect
       x="179.08"
       y="75.169998"
       width="30.66"
       height="5.6300001"
       style="fill:#999999"
       id="rect197" />
    <rect
       x="219.66"
       y="75.169998"
       width="30.66"
       height="5.6300001"
       style="fill:#999999"
       id="rect199" />
    <rect
       x="260.25"
       y="75.169998"
       width="30.66"
       height="5.6300001"
       style="fill:#999999"
       id="rect201" />
    <rect
       x="106.98"
       y="75.169998"
       width="22.360001"
       height="22.360001"
       style="fill:#ffffff"
       id="rect203" />
    <path
       d="M 129.34,98 H 107 a 0.5,0.5 0 0 1 -0.5,-0.5 V 75.17 a 0.5,0.5 0 0 1 0.5,-0.5 h 22.36 a 0.5,0.5 0 0 1 0.5,0.5 V 97.53 A 0.5,0.5 0 0 1 129.34,98 Z m -21.86,-1 h 21.36 V 75.67 h -21.36 z"
       style="fill:#263238"
       id="path205" />
  </g>
  <g
     id="freepik--Character--inject-2"
     transform="translate(-22.059228,-24.462795)">
    <path
       d="m 235.66,229.69 a 1,1 0 0 1 -0.72,-1.7 l 2.89,-3 a 1,1 0 0 1 1.41,0 1,1 0 0 1 0,1.42 l -2.89,2.95 a 1,1 0 0 1 -0.69,0.33 z"
       style="fill:#ffffff"
       id="path208" />
    <path
       d="m 231.07,227.93 v 0 a 1,1 0 0 1 -1,-1 l 0.05,-4 a 1,1 0 0 1 1,-1 1,1 0 0 1 1,1 l -0.05,4 a 1,1 0 0 1 -1,1 z"
       style="fill:#ffffff"
       id="path210" />
    <path
       d="m 226.42,230 a 1,1 0 0 1 -0.69,-0.28 l -2.8,-2.73 a 1.0041912,1.0041912 0 0 1 1.4,-1.44 l 2.79,2.74 a 1,1 0 0 1 0,1.41 1,1 0 0 1 -0.7,0.3 z"
       style="fill:#ffffff"
       id="path212" />
    <path
       d="m 237.51,234.23 a 1,1 0 0 1 0,-2 l 4,-0.14 a 1.0006123,1.0006123 0 0 1 0.07,2 l -4,0.15 z"
       style="fill:#ffffff"
       id="path214" />
    <path
       d="m 138.09,210.39 a 59.56,59.56 0 0 1 -2.69,27.4 c -0.74,2.15 -2,4.58 -4.24,4.89 0.12,3.11 -3.29,6.69 -6.38,7.12 -1.59,0.23 -2.91,2.31 -4,3.49 a 7,7 0 0 1 -12.06,-6.29 16,16 0 0 1 4.15,-7.37 c 3.93,-4.43 6.47,-11.48 8.72,-17 0.78,0.14 1.26,-14.48 1.76,-20.44 2,-1.35 10.35,-0.33 12.39,1 2.04,1.33 2.03,4.81 2.35,7.2 z"
       style="fill:#263238"
       id="path216" />
    <path
       d="m 91.7,246.5 c -0.38,1 -1.2,2.18 -3.68,2.59 5,7.13 19.24,13.47 29.44,12.18 5.64,-1 5.77,-2.51 4.21,-3.86 -3.08,-2.65 -5.57,-8.27 -5.67,-12.33 l -0.09,-4.2 -22.64,-11.8 c 0,0 -1.13,12 -1.17,15.3 a 5.91,5.91 0 0 1 -0.4,2.12 z"
       style="fill:#999999"
       id="path218" />
    <path
       d="m 114.72,261.94 c -9.8,0 -22.26,-5.61 -27.11,-12.56 l -0.46,-0.65 0.78,-0.13 c 2.28,-0.38 3,-1.42 3.31,-2.28 v 0 a 5.5,5.5 0 0 0 0.36,-1.95 c 0,-3.32 1.12,-14.84 1.17,-15.33 l 0.07,-0.74 23.56,12.28 0.1,4.48 c 0.1,4 2.61,9.49 5.49,12 0.84,0.72 1.17,1.44 1,2.14 -0.32,1.16 -2,2 -5.42,2.59 a 23.64,23.64 0 0 1 -2.85,0.15 z M 88.88,249.42 c 5.42,7 19.23,12.53 28.52,11.36 3.89,-0.7 4.52,-1.54 4.61,-1.87 0.09,-0.33 -0.31,-0.81 -0.67,-1.12 -3.12,-2.68 -5.74,-8.38 -5.84,-12.7 l -0.09,-3.9 -21.71,-11.32 c -0.25,2.66 -1.06,11.71 -1.1,14.51 a 6.37,6.37 0 0 1 -0.43,2.31 v 0 a 4.53,4.53 0 0 1 -3.29,2.73 z"
       style="fill:#263238"
       id="path220" />
    <g
       clip-path="url(#freepik--clip-path-5--inject-2)"
       id="g224">
      <path
         d="m 90.71,243.73 c -0.19,1.45 -0.6,3.17 -2,3.68 -0.68,0.25 -1.56,0.21 -1.95,0.82 -0.39,0.61 0.16,1.55 0.73,2.14 a 61.28,61.28 0 0 0 9.18,8.39 20.52,20.52 0 0 0 11.59,4 16.65,16.65 0 0 1 6,-20.35 c 1.58,-1 3.63,-2.29 3.25,-4.12 -0.28,-1.32 -1.7,-2 -3,-2.48 l -10.23,-3.95 c -3.16,-1.23 -6.84,-3.4 -10.18,-3.94 -3.06,-0.5 -2.21,3.32 -2.39,5.59 -0.2,3.42 -0.55,6.82 -1,10.22 z"
         style="opacity:0.3;isolation:isolate"
         id="path222" />
    </g>
    <path
       d="m 107.75,242.81 c 2.29,0.72 8.26,2.51 8.26,2.51 v 0 l -0.1,-4.44 v 0 l -22.64,-11.8 v 0 c 1.09,7.15 7.59,11.54 14.48,13.73 z"
       style="fill:#263238"
       id="path226" />
    <path
       d="m 116,245.82 a 0.36,0.36 0 0 1 -0.14,0 c 0,0 -6,-1.79 -8.27,-2.52 -5,-1.57 -13.51,-5.5 -14.83,-14.12 a 0.5,0.5 0 0 1 0.21,-0.48 0.49,0.49 0 0 1 0.52,0 l 22.64,11.8 a 0.51,0.51 0 0 1 0.27,0.43 l 0.1,4.44 a 0.48,0.48 0 0 1 -0.19,0.41 0.5,0.5 0 0 1 -0.31,0.04 z M 94,230 c 1.72,7.39 9.4,10.88 14,12.32 1.82,0.58 6,1.83 7.6,2.32 l -0.09,-3.46 z"
       style="fill:#263238"
       id="path228" />
    <path
       d="m 99.61,178.87 c -6.84,4.41 -12.6,9 -15.14,23.39 -2.54,14.39 3.53,24.17 3.53,24.17 a 37.56,37.56 0 0 0 5.1,6.74 c 3.89,4.35 20.8,9.94 25.74,9.61 4.94,-0.33 11.35,-8.83 13.78,-21 2.43,-12.17 0.07,-15 -3.38,-30.62 -3.45,-15.62 -11.9,-17.16 -11.9,-17.16 0,0 -8.34,-1.17 -17.73,4.87 z"
       style="fill:#999999"
       id="path230" />
    <g
       clip-path="url(#freepik--clip-path-6--inject-2)"
       id="g234">
      <path
         d="m 84.4,202.28 c -2.53,14.34 3.48,24.16 3.48,24.16 a 37.56,37.56 0 0 0 5.1,6.74 c 3.89,4.35 20.86,9.93 25.75,9.61 1.75,-0.12 3.7,-1.29 5.6,-3.3 A 24.09,24.09 0 0 1 114,239 C 106.17,236.86 97.47,229 95.14,216.47 93.22,206.35 89.7,194.34 88.4,190 a 40.41,40.41 0 0 0 -4,12.28 z"
         style="opacity:0.3;isolation:isolate"
         id="path232" />
    </g>
    <path
       d="m 118.37,243.29 c -5.53,0 -21.74,-5.37 -25.69,-9.78 a 38.28,38.28 0 0 1 -5.16,-6.83 c -0.06,-0.09 -6.08,-10.14 -3.54,-24.5 2.54,-14.36 8.47,-19.29 15.36,-23.73 v 0 c 9.39,-6.08 17.72,-4.95 18.07,-4.9 0.35,0.05 8.78,1.76 12.27,17.49 0.78,3.55 1.51,6.42 2.15,8.94 2.14,8.5 3.13,12.38 1.23,21.89 -2.59,13 -9.27,21.08 -14.23,21.41 z m -2.88,-68.84 a 29.13,29.13 0 0 0 -15.61,4.84 v 0 c -6.93,4.47 -12.43,9 -14.92,23.06 -2.49,14.06 3.36,23.72 3.41,23.82 a 37.62,37.62 0 0 0 5,6.66 c 3.85,4.29 20.59,9.77 25.35,9.45 4.49,-0.29 10.86,-8.26 13.32,-20.61 1.85,-9.28 0.89,-13.09 -1.22,-21.44 -0.64,-2.54 -1.37,-5.41 -2.16,-9 -3.35,-15.08 -11.37,-16.7 -11.45,-16.71 a 12.57,12.57 0 0 0 -1.72,-0.07 z m -15.88,4.42 z"
       style="fill:#263238"
       id="path236" />
    <path
       d="m 122,165.7 a 59.59,59.59 0 0 1 15.73,9.61 1.75,1.75 0 0 1 -0.35,2.93 7,7 0 0 1 -4.93,0.25 80.22,80.22 0 0 1 20.55,22.78 2.32,2.32 0 0 1 -2.11,3.52 9.51,9.51 0 0 1 -3.1,-0.79 c 4,3.34 6.2,6.05 5,7.77 -1.61,0.3 -3.64,-3.74 -5.13,-4.35 a 28.27,28.27 0 0 1 4.51,13.58 3,3 0 0 1 -5,2.43 l -0.26,-0.22 0.67,7.17 a 2.08,2.08 0 0 1 -4.07,0.78 1.05,1.05 0 0 1 -0.06,-0.24 c 1,2.22 2,4.56 1.39,7 a 4,4 0 0 1 -3.24,3.18 c -2.62,0.35 -4.43,-2.34 -5.46,-4.72 0,0 1.39,-33.08 -14.84,-54.31 -9.11,-11.91 -13.45,-13.41 -13.45,-13.41 0.15,-6.66 10.9,-4.32 14.15,-2.96 z"
       style="fill:#263238"
       id="path238" />
    <path
       d="m 113.46,167.24 c -4.42,-2.75 -10.44,-5 -15.28,-6.85 -10.24,-4 -22.64,-2.55 -31.15,4.52 a 1.78,1.78 0 0 0 0.69,3.09 l 2.73,0.72 a 18.93,18.93 0 0 0 -10.61,5.52 1.9,1.9 0 0 0 1.86,3.15 v 0 a 36.92,36.92 0 0 0 -16.52,21.49 3.2,3.2 0 0 0 4.82,3.6 18.45,18.45 0 0 0 3.39,-2.84 53.57,53.57 0 0 0 -8.09,15.52 c -0.47,1.43 -0.85,3.12 0.36,4.26 a 3,3 0 0 0 3.19,0.48 c 1.92,-0.77 2.88,-2.64 3.74,-4.41 a 23.87,23.87 0 0 0 -1.75,8.59 1.49,1.49 0 0 0 2.69,0.92 l 1.17,-1.6 a 18.5,18.5 0 0 0 1.91,17.86 1.5,1.5 0 0 0 2.52,-0.1 l 3.12,-5.42 c -0.93,2.26 -1.86,4.88 -0.75,7.06 1,2 4.44,2.22 5.26,0.47 -0.22,1.8 1.91,3.55 3.86,3.35 2.19,-0.21 3.92,-1.88 5.45,-3.45 11.18,8 17,6.4 18.3,-5.54 0.35,-3.17 -2.38,-4.19 -6.43,-11.2 0,0 -4.76,-9.18 -2.24,-14.4 a 15.82,15.82 0 0 1 2.3,3.72 l 3.43,5.31 c 0,0 -1.08,-0.75 -0.4,-6.73 a 90.51,90.51 0 0 1 3.17,-14.27 c 7.71,-25.05 32.43,-14.84 32,-11.8 0.01,0 -3.1,-15.02 -12.74,-21.02 z"
       style="fill:#263238"
       id="path240" />
    <path
       d="m 120.51,230.44 a 6.33,6.33 0 0 1 -4.13,-1.38 0.5,0.5 0 0 1 0,-0.71 0.5,0.5 0 0 1 0.7,0 5.81,5.81 0 0 0 5.33,0.8 2.13,2.13 0 0 0 1.49,-1.81 1.63,1.63 0 0 0 -0.54,-0.94 0.38,0.38 0 0 0 -0.37,0 0.50152268,0.50152268 0 0 1 -0.35,-0.94 1.38,1.38 0 0 1 1.21,0.06 2.64,2.64 0 0 1 1,1.69 0.53,0.53 0 0 1 0,0.13 3.09,3.09 0 0 1 -2.12,2.73 6.07,6.07 0 0 1 -2.22,0.37 z"
       style="fill:#263238"
       id="path242" />
    <path
       d="m 118,227 c -0.69,0 -1.38,0 -2,-0.06 a 0.50062461,0.50062461 0 0 1 0.05,-1 c 2.49,0.14 5.3,0.13 7.26,-0.88 a 1.14,1.14 0 0 0 0.45,-1.1 0.82,0.82 0 0 0 -0.85,-0.5 0.50717354,0.50717354 0 0 1 -0.17,-1 1.8,1.8 0 0 1 2,1.14 2.09,2.09 0 0 1 -0.94,2.33 12.63,12.63 0 0 1 -5.8,1.07 z"
       style="fill:#263238"
       id="path244" />
    <path
       d="m 119.3,220.1 a 2.81,2.81 0 0 1 -2.2,-0.88 0.51,0.51 0 0 1 0.09,-0.7 0.5,0.5 0 0 1 0.7,0.08 c 0.06,0.07 1.18,1.32 4.25,-0.44 a 2.57,2.57 0 0 0 1.43,-1.71 c 0.34,-1.72 -1.49,-4 -3.09,-6.11 a 8.16,8.16 0 0 1 -1.33,-7.13 0.51790443,0.51790443 0 1 1 1,0.27 7.2,7.2 0 0 0 1.16,6.25 c 1.73,2.22 3.7,4.75 3.28,6.91 a 3.57,3.57 0 0 1 -1.91,2.39 6.89,6.89 0 0 1 -3.38,1.07 z"
       style="fill:#263238"
       id="path246" />
    <path
       d="m 106.62,207.93 c 0.77,-0.12 1.58,1 1.81,2.51 0.23,1.51 -0.21,2.82 -1,2.93 -0.79,0.11 -1.58,-1 -1.81,-2.51 -0.23,-1.51 0.23,-2.86 1,-2.93 z"
       style="fill:#263238"
       id="path248" />
    <path
       d="m 124.9,206.87 c 0.23,1.51 -0.21,2.82 -1,2.94 -0.79,0.12 -1.59,-1 -1.82,-2.51 -0.23,-1.51 0.21,-2.82 1,-2.94 0.79,-0.12 1.59,1.01 1.82,2.51 z"
       style="fill:#263238"
       id="path250" />
    <path
       d="m 100.83,206.31 h -0.13 a 0.5,0.5 0 0 1 -0.35,-0.61 5.16,5.16 0 0 1 2.65,-3.4 c 4.07,-2.19 11,0.1 11.25,0.2 a 0.5,0.5 0 0 1 0.31,0.64 0.49,0.49 0 0 1 -0.63,0.31 c -0.07,0 -6.78,-2.25 -10.45,-0.27 a 4.16,4.16 0 0 0 -2.15,2.75 0.5,0.5 0 0 1 -0.5,0.38 z"
       style="fill:#263238"
       id="path252" />
    <path
       d="m 120.67,202.31 a 0.54,0.54 0 0 1 -0.32,-0.11 0.51,0.51 0 0 1 -0.07,-0.71 c 1.81,-2.24 3.63,-3.39 5.4,-3.41 v 0 a 4,4 0 0 1 2.9,1.27 0.49,0.49 0 0 1 -0.06,0.7 0.49,0.49 0 0 1 -0.7,-0.06 3,3 0 0 0 -2.19,-0.91 c -1.43,0 -3,1.08 -4.61,3 a 0.49,0.49 0 0 1 -0.35,0.23 z"
       style="fill:#263238"
       id="path254" />
    <path
       d="m 89.62,224.89 c 0,0 -3.28,2.43 -6.65,-1.35 -3.37,-3.78 -5.86,-10.28 -2,-12.81 3.86,-2.53 7.87,6.53 7.87,6.53 z"
       style="fill:#999999"
       id="path256" />
    <g
       clip-path="url(#freepik--clip-path-7--inject-2)"
       id="g260">
      <path
         d="m 89.62,224.89 c 0,0 -3.28,2.43 -6.65,-1.35 -3.37,-3.78 -5.86,-10.28 -2,-12.81 3.86,-2.53 7.87,6.53 7.87,6.53"
         style="opacity:0.3;isolation:isolate"
         id="path258" />
    </g>
    <path
       d="m 87.05,226.15 a 5.88,5.88 0 0 1 -4.45,-2.28 c -2.33,-2.61 -4.47,-6.74 -4,-10.07 a 4.72,4.72 0 0 1 2.16,-3.49 3,3 0 0 1 2.63,-0.38 c 3.24,1 5.86,6.88 6,7.13 a 0.50361195,0.50361195 0 0 1 -0.92,0.41 c 0,-0.06 -2.54,-5.74 -5.34,-6.58 a 2,2 0 0 0 -1.8,0.26 3.77,3.77 0 0 0 -1.71,2.79 c -0.41,3 1.66,6.91 3.77,9.27 3,3.38 5.85,1.36 6,1.27 a 0.51,0.51 0 0 1 0.7,0.11 0.5,0.5 0 0 1 -0.1,0.7 5.35,5.35 0 0 1 -2.94,0.86 z"
       style="fill:#263238"
       id="path262" />
    <path
       d="m 134.05,265.48 c -16.42,-5.09 -35.55,-10.85 -46.89,-16.82 0,0 2.38,-6.27 4.58,-7.26 0,0 5.41,-0.19 14.15,3.25 11.61,4.58 27.81,20.16 28.16,20.83 z"
       style="fill:#ffffff"
       id="path264" />
    <path
       d="m 134.05,266 h -0.15 l -2.87,-0.89 c -15.65,-4.84 -33.38,-10.32 -44.11,-16 a 0.5,0.5 0 0 1 -0.23,-0.62 c 0.25,-0.66 2.52,-6.49 4.85,-7.53 a 0.59,0.59 0 0 1 0.19,0 c 0.22,0 5.6,-0.15 14.34,3.29 11.65,4.59 28,20.16 28.43,21.06 a 0.5,0.5 0 0 1 -0.07,0.55 0.46,0.46 0 0 1 -0.38,0.14 z M 87.79,248.42 c 10.68,5.53 28.12,10.93 43.53,15.69 l 1.07,0.33 c -4.07,-4 -17.07,-15.54 -26.69,-19.32 -7.82,-3.08 -13,-3.22 -13.82,-3.22 v 0 c -1.53,0.79 -3.33,4.64 -4.09,6.52 z"
       style="fill:#263238"
       id="path266" />
    <path
       d="m 105.59,365.3 c -2.54,3.3 -3.89,6.78 -6.42,10.08 -11.24,-4.84 -26.74,-19.85 -39.31,-28.58 -10.71,-7.44 -6.19,-18.88 -6.19,-18.9 0.44,-2 16.29,-61 17.44,-63.76 3,-7.13 8,-16.52 15.48,-14.68 22.24,5.42 -9.75,83.26 -9.75,83.26 1.3,1.22 19.73,22.42 28.75,32.58 z"
       style="fill:#439a86"
       id="path268" />
    <path
       d="m 99.17,375.88 a 0.45,0.45 0 0 1 -0.2,0 c -7.17,-3.09 -16.1,-10.31 -24.73,-17.29 -4.95,-4 -10.06,-8.14 -14.67,-11.34 -10.51,-7.3 -6.83,-18.25 -6.38,-19.47 v 0 C 54,324.72 69.38,267 70.65,264 c 3.13,-7.35 8.2,-16.89 16.06,-15 a 9.16,9.16 0 0 1 6.13,5 c 9,17.66 -13.31,73.39 -15.42,78.57 1.46,1.52 7.54,8.46 14.51,16.41 5.08,5.79 10.33,11.78 14,16 a 0.49,0.49 0 0 1 0,0.63 43.23,43.23 0 0 0 -3.19,5 43.53,43.53 0 0 1 -3.24,5.08 0.49,0.49 0 0 1 -0.33,0.19 z M 84.73,249.73 c -6.18,0 -10.42,8.19 -13.16,14.61 -1,2.42 -16.66,60.26 -17.41,63.66 -0.45,1.24 -3.91,11.52 6,18.39 4.64,3.22 9.77,7.37 14.72,11.38 8.44,6.82 17.16,13.88 24.15,17 a 46.45,46.45 0 0 0 2.92,-4.66 49.11,49.11 0 0 1 3,-4.79 c -3.69,-4.15 -8.81,-10 -13.77,-15.65 C 84,341.51 77.25,333.79 76.5,333.09 a 0.51,0.51 0 0 1 -0.13,-0.56 c 0.25,-0.6 24.61,-60.31 15.58,-78 A 8.2,8.2 0 0 0 86.48,250 7.23,7.23 0 0 0 84.73,249.73 Z"
       style="fill:#263238"
       id="path270" />
    <g
       clip-path="url(#freepik--clip-path-8--inject-2)"
       id="g274">
      <path
         d="M 72,262.86 A 139.26,139.26 0 0 0 77,299 l -4.27,-5.16 c 1.33,7.55 2.67,15.2 2,22.83 -0.22,2.3 -0.69,4.72 -2.21,6.45 -1.52,1.73 -4.42,2.46 -6.19,1 1.89,-0.33 3,2.34 2.89,4.26 a 3.35,3.35 0 0 1 -4.08,2.91 c -0.61,1.21 1.07,2.36 2.42,2.32 1.35,-0.04 2.81,-0.56 4,0.15 A 4.41,4.41 0 0 1 73,336.56 80.26,80.26 0 0 0 91.11,370 C 78.14,361 64.6,351.48 53,340.67 48.79,336.73 44.33,331.62 45.48,325.97 50.1,303.48 62.1,283.57 72,262.86 Z"
         style="opacity:0.3;isolation:isolate"
         id="path272" />
    </g>
    <path
       d="m 179.14,476.34 a 111.38,111.38 0 0 1 -18.84,-2.18 c -26.67,-5.55 -53,-24.36 -68.35,-57 -1.48,-3.16 -2.85,-6.41 -4.14,-9.74 a 3.37,3.37 0 0 0 0,-0.57 74,74 0 0 1 3.69,-26 v 0 L 164.77,378 v 0 a 371.72,371.72 0 0 0 9.44,77 z"
       style="fill:#263238"
       id="path276" />
    <path
       d="m 141.46,271.14 c 10.21,10 18.21,27.72 16.91,42 -1.77,19.35 -0.19,7.77 2.73,27 3.82,25.16 4.36,55 4.36,55 -27,7.17 -60.1,2.59 -75.35,-11.7 -0.54,-25.37 10.91,-36.67 1,-60 -6,-14 -15.88,-29.77 -17.76,-44.91 -1.38,-11.13 -2.64,-19.76 3.59,-25.59 a 15.72,15.72 0 0 1 10.15,-4 c 33.6,-1.44 54.37,22.2 54.37,22.2 z"
       style="fill:#439a86"
       id="path278" />
    <path
       d="m 139.26,398.86 c -20,0 -39.17,-5.47 -49.49,-15.15 a 0.48,0.48 0 0 1 -0.16,-0.35 c -0.21,-9.8 1.39,-17.66 2.81,-24.6 2.29,-11.27 4.28,-21 -1.77,-35.24 -1.71,-4 -3.72,-8.14 -5.84,-12.49 -5.22,-10.67 -10.61,-21.7 -12,-32.56 l -0.11,-0.88 c -1.34,-10.77 -2.39,-19.28 3.86,-25.13 a 16.16,16.16 0 0 1 10.47,-4.16 c 33.09,-1.29 54.11,21.77 54.75,22.49 10.94,10.73 18.27,28.94 17.05,42.35 -1.06,11.55 -0.92,12 0,14.58 0.63,1.83 1.58,4.6 2.74,12.29 3.78,24.9 4.36,54.74 4.37,55 a 0.5,0.5 0 0 1 -0.37,0.49 103.51,103.51 0 0 1 -26.31,3.36 z M 90.61,383.13 c 14.67,13.58 47.19,18.62 74.34,11.54 -0.08,-3.6 -0.81,-31.23 -4.35,-54.51 -1.15,-7.6 -2.08,-10.32 -2.69,-12.11 -1,-2.8 -1.11,-3.24 0,-15 1.2,-13.15 -6,-31 -16.76,-41.56 v 0 c -0.21,-0.24 -21,-23.45 -54,-22.17 a 15.16,15.16 0 0 0 -9.82,3.89 c -5.89,5.5 -4.86,13.79 -3.55,24.28 l 0.11,0.88 c 1.28,10.63 6.64,21.63 11.82,32.22 2.13,4.36 4.14,8.48 5.86,12.54 6.17,14.52 4.16,24.4 1.83,35.83 -1.46,7.17 -2.97,14.58 -2.79,24.17 z"
       style="fill:#263238"
       id="path280" />
    <g
       clip-path="url(#freepik--clip-path-9--inject-2)"
       id="g284">
      <path
         d="m 109.48,277.57 a 161.45,161.45 0 0 1 11.13,29.32 l -20,-11.63 a 91.13,91.13 0 0 0 25.24,26.11 6.39,6.39 0 0 0 -3.89,4.18 12.45,12.45 0 0 0 0.22,5.15 68.27,68.27 0 0 0 15,31.09 46,46 0 0 1 -15.32,-11 c -6.92,-7.37 -13.83,-14.76 -19.79,-22.93 -0.79,-1.08 -2.9,-2.4 -4.21,-2.11 a 62.81,62.81 0 0 0 33.41,43.72 c -3.11,1.72 -7.67,2.69 -10.78,0.95 -3.11,-1.74 -5.52,-4.45 -7.87,-7.11 L 101.6,350.82 c 2.49,16.23 13.19,31.9 28.31,38.3 a 28.28,28.28 0 0 1 11.67,9.12 c -18.18,3.05 -37,-3.52 -51.47,-14.89 -0.63,-13 4.6,-25.05 5,-42 0.26,-9.94 -7.87,-27.75 -13.77,-38.58 -5.14,-9.42 -8.06,-20.78 -9.17,-31.45 -0.3,-2.93 -1.19,-9.87 4.72,-18.49 1.72,-2.43 14.85,-11.43 32.59,24.74 z"
         style="opacity:0.3;isolation:isolate"
         id="path282" />
    </g>
    <path
       d="m 229,272.18 -0.34,0.22 a 13.72,13.72 0 0 0 -4.92,5.17 v 0 l -14.39,-7.76 c 0.42,-1.79 2.06,-3.71 1.13,-5.46 a 12.83,12.83 0 0 1 -1.71,-6.6 c 0.05,-1.24 0.18,-2.49 0.33,-3.75 a 34.82,34.82 0 0 0 -0.45,-10 6.61,6.61 0 0 1 -0.16,-2 2.41,2.41 0 0 1 1.85,-1.63 c 1.42,-0.29 2.64,1.07 3.23,2.23 a 20.38,20.38 0 0 1 1,3.66 c 0.51,1.86 0.4,4.18 1.49,5.71 a 2,2 0 0 0 3,-0.19 c 1.77,-3.29 9.56,-18.16 9.56,-18.16 a 3.3,3.3 0 0 1 1.84,-1.68 c 2.62,-0.88 4.29,1.92 3,4.33 l -8.46,15.27 4.46,-8.18 c 0,0 1,-1.37 2.84,0 1,0.82 1.51,1.67 0.78,3 l -4,7.39 3.45,-6.3 a 2.21,2.21 0 0 1 2.76,0.17 2.88,2.88 0 0 1 1.11,2.68 l -3.81,7.08 2.25,-4.19 a 2.42,2.42 0 0 1 2.61,0.17 2.74,2.74 0 0 1 1.21,3.14 c -0.07,0.23 -4.48,8.36 -6.4,11.9 a 10.13,10.13 0 0 1 -3.26,3.78 z"
       style="fill:#999999"
       id="path286" />
    <path
       d="m 223.93,278.24 -15.16,-8.17 0.09,-0.37 a 9.88,9.88 0 0 1 0.68,-1.83 c 0.52,-1.19 1,-2.31 0.49,-3.28 a 13.23,13.23 0 0 1 -1.77,-6.86 c 0.05,-1.1 0.16,-2.3 0.34,-3.79 a 34.45,34.45 0 0 0 -0.45,-9.88 v -0.17 a 5.9,5.9 0 0 1 -0.12,-2.08 2.91,2.91 0 0 1 2.23,-2 c 1.68,-0.35 3.09,1.12 3.78,2.49 a 10.8,10.8 0 0 1 0.76,2.59 c 0.09,0.41 0.17,0.8 0.27,1.17 a 17.59,17.59 0 0 1 0.39,2.07 8.17,8.17 0 0 0 1,3.48 1.32,1.32 0 0 0 1.07,0.34 1.3,1.3 0 0 0 1,-0.48 c 1.75,-3.24 9.48,-18 9.56,-18.16 a 3.73,3.73 0 0 1 2.12,-1.91 3,3 0 0 1 3.32,0.82 3.79,3.79 0 0 1 0.27,4.22 l -3.18,5.83 a 3,3 0 0 1 2,0.74 c 0.93,0.74 1.88,1.82 0.93,3.62 a 2.78,2.78 0 0 1 2.09,0.68 3.35,3.35 0 0 1 1.28,3.16 l -0.05,0.14 -1,1.87 a 3.84,3.84 0 0 1 1.86,0.51 3.26,3.26 0 0 1 1.45,3.73 c 0,0.1 -0.09,0.3 -6.44,12 a 10.75,10.75 0 0 1 -3.48,3.9 v 0 l -0.36,0.23 a 13.26,13.26 0 0 0 -4.73,5 z m -14,-8.68 13.61,7.34 a 14.23,14.23 0 0 1 4.85,-4.93 l 0.33,-0.2 a 9.89,9.89 0 0 0 3.15,-3.54 c 3.86,-7.1 6.24,-11.53 6.38,-11.84 v 0 a 2.29,2.29 0 0 0 -1,-2.52 2.16,2.16 0 0 0 -2,-0.25 l -2.19,4.06 -0.88,-0.47 v 0 l 3.76,-7 a 2.41,2.41 0 0 0 -0.95,-2.13 1.72,1.72 0 0 0 -2.06,-0.22 l -3.4,6.2 -0.87,-0.47 4,-7.4 c 0.53,-1 0.37,-1.59 -0.65,-2.39 -1.24,-1 -1.93,-0.36 -2.11,-0.16 l -4.44,8.14 -0.88,-0.47 v 0 l 4.45,-8.16 v 0 L 233,236 a 2.8,2.8 0 0 0 -0.15,-3.09 2,2 0 0 0 -2.24,-0.52 2.75,2.75 0 0 0 -1.55,1.42 c -0.09,0.16 -7.82,14.93 -9.57,18.17 a 2.52,2.52 0 0 1 -3.81,0.25 9,9 0 0 1 -1.2,-3.91 17.59,17.59 0 0 0 -0.36,-2 c -0.11,-0.38 -0.2,-0.8 -0.28,-1.22 a 10.45,10.45 0 0 0 -0.69,-2.35 c -0.42,-0.84 -1.47,-2.22 -2.68,-2 a 1.92,1.92 0 0 0 -1.46,1.26 5.75,5.75 0 0 0 0.14,1.67 v 0.17 a 35,35 0 0 1 0.45,10.17 c -0.18,1.46 -0.28,2.65 -0.33,3.72 a 12.21,12.21 0 0 0 1.65,6.34 c 0.75,1.4 0.11,2.86 -0.46,4.15 a 12.9,12.9 0 0 0 -0.53,1.33 z"
       style="fill:#263238"
       id="path288" />
    <path
       d="m 205.48,272.75 2.78,-8.11 c 0,0 13.08,-0.54 18.77,9.54 l -8.33,9 c 0,0 0.2,-7.24 -13.22,-10.43 z"
       style="fill:#ffffff"
       id="path290" />
    <path
       d="m 218.7,283.68 a 0.58,0.58 0 0 1 -0.19,0 0.5,0.5 0 0 1 -0.31,-0.48 c 0,-0.07 0,-6.89 -12.84,-9.93 A 0.47,0.47 0 0 1 205,273 a 0.51,0.51 0 0 1 0,-0.4 l 2.78,-8.11 a 0.52,0.52 0 0 1 0.46,-0.34 c 0.13,0 13.46,-0.43 19.22,9.79 a 0.5,0.5 0 0 1 -0.07,0.59 l -8.33,9 a 0.46,0.46 0 0 1 -0.36,0.15 z M 206.13,272.4 c 10.15,2.55 12.42,7.44 12.93,9.66 l 7.35,-7.95 c -5,-8.5 -15.76,-9 -17.8,-9 z"
       style="fill:#263238"
       id="path292" />
    <path
       d="m 114.92,285.83 c 0,0 3.24,22.17 24.53,43.65 11.69,11.8 21.65,10.6 21.65,10.6 0,0 -28.53,-17.58 -46.18,-54.25 z"
       style="fill:#263238"
       id="path294" />
    <path
       d="m 220.81,280.9 c -10.07,19.43 -19.07,35 -33.09,51.76 -2.95,3.52 -6.14,7 -10.19,9.14 -4.05,2.14 -7.4,3.21 -11.42,1 a 121.17,121.17 0 0 1 -46.85,-46.56 c -4.09,-7.29 -7.36,-16.53 -3,-23.68 3.39,-5.62 11.73,-9.48 17.83,-7.07 4.72,1.86 8,6.14 11,10.24 5.73,7.91 21.46,33 23.9,36.75 12.5,-12.53 25,-26.3 36.56,-39.72 2.19,-2.64 13.36,3.15 15.26,8.14 z"
       style="fill:#439a86"
       id="path296" />
    <path
       d="m 170.53,344.51 a 9.42,9.42 0 0 1 -4.67,-1.28 122.58,122.58 0 0 1 -47,-46.76 c -5.63,-10.05 -6.65,-18.18 -3,-24.18 3.35,-5.55 11.95,-9.84 18.44,-7.27 4.71,1.85 8,6 11.2,10.41 4.26,5.88 14,21.17 19.78,30.31 1.7,2.67 3,4.78 3.79,5.94 11.37,-11.41 23.51,-24.62 36.1,-39.25 0.65,-0.77 1.83,-1 3.49,-0.72 4.46,0.78 11.19,5.09 12.69,9 a 0.53,0.53 0 0 1 0,0.41 C 211,300.88 201.9,316.44 188.1,333 c -3.39,4.06 -6.45,7.2 -10.34,9.26 a 15.69,15.69 0 0 1 -7.23,2.25 z M 130,265.24 a 16.74,16.74 0 0 0 -13.36,7.57 c -3.42,5.66 -2.4,13.46 3,23.17 a 121.65,121.65 0 0 0 46.66,46.38 c 3.7,2 6.82,1.18 10.94,-1 3.75,-2 6.72,-5 10,-9 13.69,-16.41 22.77,-31.87 32.93,-51.47 -1.5,-3.43 -7.84,-7.48 -11.84,-8.17 -1.26,-0.22 -2.17,-0.08 -2.57,0.38 -12.76,14.84 -25.07,28.21 -36.58,39.74 a 0.49,0.49 0 0 1 -0.4,0.15 0.53,0.53 0 0 1 -0.37,-0.22 c -0.63,-1 -2.14,-3.33 -4.13,-6.47 -5.8,-9.13 -15.51,-24.41 -19.75,-30.26 -3.13,-4.31 -6.3,-8.32 -10.75,-10.07 A 10.36,10.36 0 0 0 130,265.24 Z"
       style="fill:#263238"
       id="path298" />
    <g
       clip-path="url(#freepik--clip-path-10--inject-2)"
       id="g302">
      <path
         d="m 180.2,340.12 a 18.54,18.54 0 0 0 7.91,-9.75 c -2.86,1.88 -5.94,3.79 -9.36,3.86 -3.42,0.07 -7.53,-3.11 -7.33,-6.53 0.58,0.21 0.5,1.2 -0.07,1.46 a 1.36,1.36 0 0 1 -1.6,-0.6 4,4 0 0 1 -0.49,-1.77 c -0.31,-2.65 -1,-5.59 -1.32,-8.24 -1.36,3.74 -1.35,2.74 -2.71,6.49 a 5.69,5.69 0 0 1 -1.41,2.47 c -0.72,0.63 -1.95,-0.29 -2.72,-0.86 -3.36,-2.49 -12.14,-14.2 -22.46,-26.55 -9.22,-11 -19.8,-30.71 -24.46,-22.53 0,0 -0.11,8.26 6,20.19 9.84,19.25 32.16,40.73 51.27,46.36 3.41,1.01 4.64,-1.75 8.75,-4 z"
         style="opacity:0.3;isolation:isolate"
         id="path300" />
    </g>
    <path
       d="m 94,196.47 a 21.28,21.28 0 0 0 -0.64,14 c -1.87,7.91 1,11 3.47,11.28 a 17,17 0 0 0 -0.85,4.13 4.32,4.32 0 0 0 1.08,3.4 2.64,2.64 0 0 0 3.35,0.38 13.67,13.67 0 0 0 0,3.78 4.17,4.17 0 0 0 1.87,2.94 2.57,2.57 0 0 0 3.25,-0.53 c -2.33,5.19 3.17,7.42 3.64,6.92 -0.54,0.05 -1,-0.53 -1.17,-1.12 -1.07,-3.63 1.35,-5.12 1.28,-8.63 -0.1,-4.77 -4.37,-3.85 -4.17,-2.82 0.16,-0.55 1,-10.12 -3.49,-9.29 -0.77,0.14 2.75,-7.49 -1.67,-8.59 -0.77,-0.2 -1.77,0.44 -1.54,1.21 6.88,-34.59 25.66,-27.51 25.66,-27.51 C 118.31,179.84 100,179.53 94,196.47 Z"
       style="fill:#263238"
       id="path304" />
    <circle
       cx="87.779999"
       cy="230.45"
       r="2.55"
       style="fill:#999999"
       id="circle306" />
    <path
       d="m 87.78,233.49 a 3,3 0 1 1 3,-3 3,3 0 0 1 -3,3 z m 0,-5.09 a 2,2 0 1 0 2,2 2,2 0 0 0 -2,-2 z"
       style="fill:#263238"
       id="path308" />
    <path
       d="m 127.27,265.1 a 0.5,0.5 0 0 1 -0.37,-0.16 c -6.13,-6.87 -11.53,-10.52 -19.93,-13.47 a 0.5,0.5 0 0 1 0.33,-0.94 c 8.58,3 14.1,6.73 20.35,13.74 a 0.51,0.51 0 0 1 0,0.71 0.54,0.54 0 0 1 -0.38,0.12 z"
       style="fill:#263238"
       id="path310" />
    <path
       d="m 170.17,313.72 a 31.22,31.22 0 0 0 -0.82,13.18"
       style="fill:#439a86"
       id="path312" />
    <path
       d="m 169.35,327.4 a 0.5,0.5 0 0 1 -0.49,-0.42 31.92,31.92 0 0 1 0.83,-13.4 0.48,0.48 0 0 1 0.61,-0.34 0.5,0.5 0 0 1 0.35,0.61 30.93,30.93 0 0 0 -0.8,13 0.51,0.51 0 0 1 -0.42,0.57 z"
       style="fill:#263238"
       id="path314" />
    <path
       d="m 173.65,332.88 a 0.5,0.5 0 0 1 -0.44,-0.27 19.15,19.15 0 0 1 -2.21,-10.31 0.5012235,0.5012235 0 1 1 1,0.07 18.21,18.21 0 0 0 2.1,9.77 0.51,0.51 0 0 1 -0.2,0.68 0.53,0.53 0 0 1 -0.25,0.06 z"
       style="fill:#263238"
       id="path316" />
    <path
       d="m 100.15,347.16 a 0.5,0.5 0 0 1 -0.49,-0.38 119,119 0 0 0 -14.08,-34.21 0.50249378,0.50249378 0 1 1 0.86,-0.52 120.43,120.43 0 0 1 14.2,34.49 0.52,0.52 0 0 1 -0.37,0.61 z"
       style="fill:#263238"
       id="path318" />
    <path
       d="m 125,313.8 a 0.44,0.44 0 0 1 -0.22,-0.05 74.2,74.2 0 0 1 -9,-5.34 0.5,0.5 0 0 1 -0.13,-0.7 0.49,0.49 0 0 1 0.69,-0.13 73.72,73.72 0 0 0 8.93,5.28 0.5,0.5 0 0 1 -0.23,0.94 z"
       style="fill:#263238"
       id="path320" />
    <path
       d="m 111.2,304.89 a 0.56,0.56 0 0 1 -0.32,-0.11 76.93,76.93 0 0 1 -19.06,-23 0.5,0.5 0 0 1 0.21,-0.68 0.49,0.49 0 0 1 0.67,0.21 75.86,75.86 0 0 0 18.81,22.69 0.5,0.5 0 0 1 -0.31,0.89 z"
       style="fill:#263238"
       id="path322" />
    <path
       d="m 152.34,398.06 a 0.51,0.51 0 0 1 -0.5,-0.44 l -6.37,-55.85 a 0.5,0.5 0 0 1 0.44,-0.55 0.5,0.5 0 0 1 0.55,0.44 l 6.37,55.84 a 0.5,0.5 0 0 1 -0.44,0.56 z"
       style="fill:#263238"
       id="path324" />
    <path
       d="m 145.51,338.22 a 0.48,0.48 0 0 1 -0.49,-0.44 l -0.85,-7.45 a 0.48,0.48 0 0 1 0.44,-0.55 0.49,0.49 0 0 1 0.55,0.44 l 0.85,7.45 a 0.5,0.5 0 0 1 -0.44,0.55 z"
       style="fill:#263238"
       id="path326" />
    <path
       d="M 68.74,334.35 A 25.15,25.15 0 0 1 58,332 a 0.49,0.49 0 0 1 0,-0.9 13.58,13.58 0 0 1 11,-0.27 0.49,0.49 0 0 1 0.27,0.65 0.51,0.51 0 0 1 -0.66,0.27 12.59,12.59 0 0 0 -9.1,-0.19 24.22,24.22 0 0 0 15.15,1.07 0.51662365,0.51662365 0 0 1 0.26,1 24.67,24.67 0 0 1 -6.18,0.72 z"
       style="fill:#263238"
       id="path328" />
    <path
       d="m 73.78,328.6 h -0.06 a 16.18,16.18 0 0 1 -11.66,-7.6 0.50249378,0.50249378 0 0 1 0.86,-0.52 15.31,15.31 0 0 0 10.92,7.09 0.51,0.51 0 0 1 0.44,0.56 0.51,0.51 0 0 1 -0.5,0.47 z"
       style="fill:#263238"
       id="path330" />
    <path
       d="m 81.39,304.85 a 0.51,0.51 0 0 1 -0.4,-0.2 L 70.63,290.78 a 0.51,0.51 0 0 1 0.1,-0.7 0.5,0.5 0 0 1 0.7,0.11 l 10.36,13.86 a 0.51,0.51 0 0 1 -0.1,0.7 0.49,0.49 0 0 1 -0.3,0.1 z"
       style="fill:#263238"
       id="path332" />
    <path
       d="m 134,450.46 a 0.54,0.54 0 0 1 -0.21,0 c -9.18,-4.24 -19.55,-14.1 -26.42,-25.13 a 0.5,0.5 0 1 1 0.84,-0.53 c 6.78,10.88 17,20.59 26,24.75 a 0.5,0.5 0 0 1 0.24,0.67 0.49,0.49 0 0 1 -0.45,0.24 z"
       style="fill:#999999"
       id="path334" />
    <path
       d="m 105.92,422.15 a 0.49,0.49 0 0 1 -0.45,-0.3 c -0.61,-1.32 -1.17,-2.68 -1.66,-4 a 0.49,0.49 0 0 1 0.3,-0.64 0.51,0.51 0 0 1 0.64,0.3 c 0.48,1.33 1,2.67 1.63,4 a 0.5,0.5 0 0 1 -0.25,0.66 0.54,0.54 0 0 1 -0.21,-0.02 z"
       style="fill:#999999"
       id="path336" />
    <path
       d="m 125,457.46 a 0.5,0.5 0 0 1 -0.48,-0.38 L 120.32,441 a 0.51,0.51 0 0 1 0.36,-0.62 0.52,0.52 0 0 1 0.61,0.36 l 4.19,16.13 a 0.5,0.5 0 0 1 -0.36,0.61 z"
       style="fill:#999999"
       id="path338" />
    <path
       d="m 136.5,363.16 a 0.48,0.48 0 0 1 -0.28,-0.08 114.85,114.85 0 0 1 -38.35,-42.08 0.51,0.51 0 0 1 0.21,-0.68 0.5,0.5 0 0 1 0.68,0.21 113.76,113.76 0 0 0 38,41.7 0.51,0.51 0 0 1 0.15,0.7 0.52,0.52 0 0 1 -0.41,0.23 z"
       style="fill:#263238"
       id="path340" />
    <path
       d="m 95.9,316.46 a 0.49,0.49 0 0 1 -0.45,-0.29 c -1.11,-2.33 -2.14,-4.73 -3.08,-7.13 a 0.5,0.5 0 0 1 0.29,-0.65 0.51,0.51 0 0 1 0.65,0.28 c 0.92,2.38 2,4.76 3,7.07 a 0.5,0.5 0 0 1 -0.24,0.67 0.54,0.54 0 0 1 -0.17,0.05 z"
       style="fill:#263238"
       id="path342" />
    <path
       d="m 141.31,297.7 5.93,-7.09"
       style="fill:#439a86"
       id="path344" />
    <path
       d="m 141.31,298.2 a 0.51,0.51 0 0 1 -0.32,-0.12 0.49,0.49 0 0 1 -0.06,-0.7 l 5.92,-7.09 a 0.51,0.51 0 0 1 0.71,-0.06 0.49,0.49 0 0 1 0.06,0.7 L 141.7,298 a 0.5,0.5 0 0 1 -0.39,0.2 z"
       style="fill:#263238"
       id="path346" />
    <path
       d="m 133.9,298 a 18.63,18.63 0 0 0 10.46,-8.58"
       style="fill:#439a86"
       id="path348" />
    <path
       d="m 133.9,298.46 a 0.5,0.5 0 0 1 -0.48,-0.35 0.5,0.5 0 0 1 0.32,-0.63 18.09,18.09 0 0 0 10.18,-8.34 0.50119856,0.50119856 0 0 1 0.88,0.48 19.11,19.11 0 0 1 -10.75,8.81 z"
       style="fill:#263238"
       id="path350" />
  </g>
</svg>
